<svg xmlns="http://www.w3.org/2000/svg" viewBox="0 0 513.58 180"><defs><style>.cls-1{fill:#001689;}.cls-2{fill:#cf0a2c;}</style></defs><title>Asset 1</title><g id="Layer_2" data-name="Layer 2"><g id="Layer_2-2" data-name="Layer 2"><path class="cls-1" d="M20.23,153C8.29,153,0,145.49,0,130.58,0,118,8.72,108.13,20.23,108.13c11.94,0,20.23,7.55,20.23,22.45C40.45,143.07,31.73,153,20.23,153Zm0-42.43c-7.3,0-10.33,9.28-10.33,20s3,20,10.33,20,10.33-9.28,10.33-20S27.53,110.6,20.23,110.6Z"/><path class="cls-1" d="M66.19,152.66a12.28,12.28,0,0,1-8.78-3.59h-.19v12.06c0,2,.93,3.46,3,3.46v1.55H45.59V164.6c2,0,2.91-1.36,2.91-3.46V127.42c0-2.17-1-3.46-3-3.46v-1.48H57.22v4.39h.19a12.74,12.74,0,0,1,10.08-5c5.88,0,12.06,3.84,12.06,14.35C79.55,147.28,73.61,152.66,66.19,152.66Zm-1.24-27.59c-4.08,0-7.73,4.33-7.73,12.8,0,9.46,4,11.81,7.3,11.81,4,0,6.06-4.58,6.06-13.05C70.58,128.91,68.66,125.07,64.95,125.07Z"/><path class="cls-1" d="M104.66,152.66a12.28,12.28,0,0,1-8.78-3.59h-.19v12.06c0,2,.93,3.46,3,3.46v1.55H84.06V164.6c2,0,2.91-1.36,2.91-3.46V127.42c0-2.17-1-3.46-3-3.46v-1.48H95.69v4.39h.19a12.74,12.74,0,0,1,10.08-5c5.88,0,12.06,3.84,12.06,14.35C118,147.28,112.08,152.66,104.66,152.66Zm-1.24-27.59c-4.08,0-7.73,4.33-7.73,12.8,0,9.46,4,11.81,7.3,11.81,4,0,6.06-4.58,6.06-13.05C109.05,128.91,107.13,125.07,103.42,125.07Z"/><path class="cls-1" d="M138.56,152.72c-10.27,0-15.59-5.63-15.59-15.53,0-8.72,5-15.34,15.59-15.34s15.59,6.62,15.59,15.34C154.14,147.09,148.82,152.72,138.56,152.72Zm0-28.39c-4.58,0-6.62,5-6.62,13.11,0,7.36,2,12.8,6.62,12.8s6.62-5.44,6.62-12.8C145.17,129.34,143.13,124.33,138.56,124.33Z"/><path class="cls-1" d="M179.88,131.51a3.18,3.18,0,0,1-3.34-3.83c.06-.56.31-1.24.31-1.61a.67.67,0,0,0-.74-.68c-1.61,0-4.52,2.91-5.81,6.8v14.91c0,2,.87,3.46,2.91,3.46v1.55H158.66v-1.55c2,0,2.85-1.36,2.85-3.46V127.36c0-2.23-.93-3.4-2.91-3.4v-1.48h11.69v4.89h.12c.93-1.67,4-5.5,8.54-5.5A4.87,4.87,0,0,1,183.9,127C183.9,129.59,182.23,131.51,179.88,131.51Z"/><path class="cls-1" d="M206.72,148.39a9,9,0,0,1-8.1,4.33c-4.45,0-8.54-2.16-8.54-8.1V125H186V123c5.32-1.55,9.15-6.12,10.76-9.59h2v9h5.75V125H198.8V146c0,2.66,1.11,3.71,2.6,3.71a5.5,5.5,0,0,0,4.14-2.47.81.81,0,0,1,1.48.37A1.91,1.91,0,0,1,206.72,148.39Z"/><path class="cls-1" d="M242.6,152.11H232.51a10.51,10.51,0,0,1-1.61-3.71h-.19a12.53,12.53,0,0,1-9.83,4.33c-4.7,0-9.59-2-9.59-9.22V127.42c0-2.1-.87-3.46-2.91-3.46v-1.48H220v20.78c0,3.59,1.67,5.26,4.7,5.26,3.59,0,6.19-2.91,6.19-7v-14.1c0-2.1-.87-3.46-2.91-3.46v-1.48h11.63v24.68c0,2.23,1,3.46,3,3.46Z"/><path class="cls-1" d="M280.76,152.11h-14v-1.55c1.67,0,2.41-1.18,2.41-2.85V131.26c0-2.72-1.55-5.13-4.82-5.13a5.93,5.93,0,0,0-6.06,6.25v15.34c0,1.67.68,2.85,2.35,2.85v1.55H246.68v-1.55c2,0,2.78-1.36,2.78-3.46V127.36c0-2.23-.93-3.4-2.91-3.4v-1.48h11.69v3.84h.12a13.54,13.54,0,0,1,10-4.45c3.9,0,9.46,2.17,9.46,9.34v15.9c0,2.1.87,3.46,2.91,3.46Z"/><path class="cls-1" d="M299.38,152.11h-14.6v-1.48c2,0,2.91-1.36,2.91-3.46V127.42c0-2.23-1-3.46-3-3.46v-1.48h11.69v24.68c0,2,.93,3.46,3,3.46Zm-8-34.45a4.86,4.86,0,1,1,5-4.82A5,5,0,0,1,291.4,117.65Z"/><path class="cls-1" d="M355.91,124c-2.41,0-3.53,1.79-5.32,6.06l-11.44,27.59c-2,4.7-4.14,9-8.85,9-3.4,0-5.88-2.17-5.88-5.2,0-2.78,1.86-4.52,4.08-4.52s3.28,1.55,3,3.65a12.85,12.85,0,0,0-.25,1.36c0,.62.31,1,1.18,1,1.61,0,3.09-3,4-5.2l2-5.07-12.12-23.07c-2.29-4.39-3.09-4.64-6.31-4.64h-4.39V146c0,2.66,1.11,3.71,2.6,3.71a5.5,5.5,0,0,0,4.14-2.47.81.81,0,0,1,1.48.37,1.91,1.91,0,0,1-.31.74,9,9,0,0,1-8.1,4.33c-4.45,0-8.54-2.16-8.54-8.1V125h-4.08V123c5.32-1.55,9.15-6.12,10.76-9.59h2v9h20.54V124c-1.92,0-2.54,1-1.36,3.28l7.73,15.22h.19l5.2-14.85c.87-2.54.49-3.65-1.36-3.65v-1.48h9.34Z"/><path class="cls-2" d="M116.55,172.19v0a7.94,7.94,0,0,1,15.88,0v0a7.94,7.94,0,0,1-15.88,0Zm13.08,0v0a5.2,5.2,0,0,0-5.16-5.4,5.13,5.13,0,0,0-5.12,5.36v0a5.18,5.18,0,0,0,5.16,5.38A5.11,5.11,0,0,0,129.63,172.19Z"/><path class="cls-2" d="M140,164.56h11.3V167h-8.63v4.14h7.66v2.43h-7.66v6.18H140Z"/><path class="cls-2" d="M169.41,164.56h2.84l4.62,7.18,4.62-7.18h2.84v15.18h-2.67V168.85L176.87,176h-.09L172,168.89v10.85h-2.62Z"/><path class="cls-2" d="M191.9,172.19v0a7.94,7.94,0,0,1,15.88,0v0a7.94,7.94,0,0,1-15.88,0Zm13.08,0v0a5.2,5.2,0,0,0-5.16-5.4,5.13,5.13,0,0,0-5.12,5.36v0a5.18,5.18,0,0,0,5.16,5.38A5.11,5.11,0,0,0,205,172.19Z"/><path class="cls-2" d="M215.35,164.56h2.47l8.13,10.5v-10.5h2.62v15.18h-2.23L218,168.94v10.8h-2.62Z"/><path class="cls-2" d="M240.56,167h-4.82v-2.47h12.32V167h-4.82v12.71h-2.69Z"/><path class="cls-2" d="M258.65,164.45h2.47l6.68,15.29H265l-1.54-3.67h-7.18l-1.56,3.67H252Zm3.82,9.26-2.62-6.07-2.6,6.07Z"/><path class="cls-2" d="M274.74,164.56h2.47l8.13,10.5v-10.5H288v15.18h-2.23l-8.37-10.8v10.8h-2.62Z"/><path class="cls-2" d="M301.59,164.45h2.47l6.68,15.29h-2.82l-1.54-3.67h-7.18l-1.56,3.67h-2.73Zm3.82,9.26-2.62-6.07-2.6,6.07Z"/><path class="cls-1" d="M386.16,152H364.08v-1.42a4.52,4.52,0,0,0,4.45-4.45v-31.3a4.47,4.47,0,0,0-4.45-4.45v-1.42h21c8.35,0,12.74,4.08,12.74,9.84,0,4.14-2.72,7.86-7.42,9.65v.12c6.06,1.61,10.08,6.12,10.08,11.63C400.45,146.3,395.5,152,386.16,152Zm-3.59-40.58h-.8c-3.4,0-4,1.48-4,4.27v12.43h2.78c7.11,0,9-4.58,9-9.09C389.62,115.06,387.52,111.41,382.57,111.41ZM381,130.84l-3.15-.19V145c0,3.09.06,4.52,3.22,4.52h2.78c4.27,0,6.74-3.53,6.74-8.54C390.55,134.92,387.09,131.21,381,130.84Z"/><path class="cls-1" d="M437.62,148.71a7.79,7.79,0,0,1-7,3.84,5.72,5.72,0,0,1-5.69-4.08h-.25c-2.85,2.23-6.62,4.08-10.21,4.08-4.21,0-8.78-2.23-8.78-7.61,0-7.86,10.33-9.9,19.18-11.26v-3.4c0-3.4-1.55-6.06-5.5-6.06-3.16,0-4.52,1.18-4.52,2.35a7.46,7.46,0,0,0,.37,2,3.85,3.85,0,0,1-4,4.89A4.13,4.13,0,0,1,407,129.1c0-4.27,4.89-7.36,13.05-7.36,6.25,0,13.55,2.1,13.55,9.9v14.23c0,2.72,1.11,4.58,3.15,1.79.43-.62,1.05-.19,1.05.43A1.19,1.19,0,0,1,437.62,148.71Zm-12.74-13.05c-4.14.62-10.14,2.91-10.14,8.1,0,3,1.61,4.58,4,4.58,2.78,0,6.12-2.78,6.12-3.71Z"/><path class="cls-1" d="M474.74,152h-14v-1.55c1.67,0,2.41-1.18,2.41-2.85V131.14c0-2.72-1.55-5.13-4.82-5.13a5.93,5.93,0,0,0-6.06,6.25V147.6c0,1.67.68,2.85,2.35,2.85V152H440.66v-1.55c2,0,2.78-1.36,2.78-3.46V127.25c0-2.23-.93-3.4-2.91-3.4v-1.48h11.69v3.84h.12a13.54,13.54,0,0,1,10-4.45c3.9,0,9.46,2.17,9.46,9.34V147c0,2.1.87,3.46,2.91,3.46Z"/><path class="cls-1" d="M513.58,152H501.4l-6.62-12.19c-1.42-2.66-2.78-2.78-4.45-2.78v10c0,2,.93,3.46,3,3.46V152H478.7v-1.55c2,0,2.91-1.36,2.91-3.46V112.22c0-2.23-.93-3.46-2.91-3.46v-1.48h11.63v27.28c3,.12,4.45-.56,6.74-3l4.58-4.89c1.36-1.42,1.36-2.78-1.24-2.78v-1.48h11.2v1.48c-1.92.06-3.4.12-6.68,3.4l-5.51,5.57v.25l9.84,15.09a4.34,4.34,0,0,0,4.33,2.29Z"/><path class="cls-1" d="M246.83,90.73s35.44,4.54,44.76-34.59C291.59,56.14,260.68,54.33,246.83,90.73Z"/><path class="cls-1" d="M209.78,45.1C210,20.16,228.47,0,251.27,0s41.49,20.35,41.49,45.46q0,.09,0,.18L271.42,24.29l-8.65,6L246.5,15.81S209.78,45.22,209.78,45.1Z"/><path class="cls-2" d="M270.6,37.28,262.4,43l-16-14.1-35,27.88A46.83,46.83,0,0,0,221,76.11c28.41-24.15,61.8-26.42,61.8-26.42Z"/><path class="cls-1" d="M503.65,117.24v0a2.79,2.79,0,0,1,5.59,0v0a2.79,2.79,0,0,1-5.59,0Zm5.3,0v0a2.5,2.5,0,1,0-5,0v0a2.5,2.5,0,1,0,5,0Zm-3.63-1.54h1.3a1.23,1.23,0,0,1,.89.31.84.84,0,0,1,.24.62v0a.87.87,0,0,1-.68.88l.79,1.1h-.66l-.71-1h-.61v1h-.56Zm1.28,1.43c.36,0,.58-.18.58-.46v0c0-.29-.22-.46-.58-.46h-.73v.93Z"/></g></g></svg>