<svg width="200" height="31" viewBox="0 0 200 31" fill="none" xmlns="http://www.w3.org/2000/svg">
<g clip-path="url(#clip0_352_148)">
<path d="M85.8356 17.9103H90.3856V25.5563C87.9656 26.2183 85.4156 26.6963 82.8356 26.6963C75.0286 26.6963 70.0916 22.4633 70.0916 17.0113C70.0916 11.9613 74.9966 7.54328 82.9646 7.54328C85.4486 7.54328 87.9346 8.17828 89.4146 8.97128L87.9646 11.1673C86.7396 10.6393 84.8346 10.1873 83.0946 10.1873C78.2546 10.1873 74.9316 12.8603 74.9316 17.0673C74.9316 21.4573 78.7386 24.0513 82.6416 24.0513C83.8676 24.0513 84.8696 23.9443 85.8356 23.6013V17.9103ZM63.9936 7.86028L72.4776 26.3783H67.3796L65.2826 21.3233H57.2826L54.9596 26.3783H51.0236L60.2186 7.85828H63.9926L63.9936 7.86028ZM64.6066 19.0503C63.6386 16.6153 62.6706 14.3653 61.6066 11.5103H61.5426C60.6066 14.3653 59.5426 16.6153 58.4776 19.0503H64.6066ZM96.3166 7.86028H91.7696V26.3783H105.29V23.8923H96.3196V7.86028H96.3166ZM40.0736 16.4283H48.7936V13.5053H40.0736V7.53728H48.9836V4.61428H34.7266V26.3763H50.6146V23.4543H40.0746L40.0736 16.4283ZM129.776 26.3783H120.978V4.61328H130.572C135.048 4.61328 138.192 6.29328 138.192 9.24628C138.192 12.7283 134.744 14.1583 132.884 14.5613V14.6233C136.182 14.7493 139.862 16.6133 139.862 19.9383C139.862 23.7023 136.032 26.3753 129.776 26.3753V26.3783ZM126.326 13.6923H127.994C131.064 13.6923 133.151 12.0753 133.151 10.0523C133.151 8.12628 131.408 7.28728 129.095 7.28728H126.325V13.6923H126.326ZM134.25 20.0023C134.25 17.4523 131.938 16.3653 129.018 16.3653H126.328V23.7033H129.056C132.016 23.7033 134.25 22.4273 134.25 20.0023ZM176.354 21.0593H176.288C172.03 16.2973 167.738 12.0913 163.418 7.85928H160.094V26.3773H163.74V13.0963H163.802C168.062 17.8863 172.385 22.1163 176.708 26.3763H179.998V7.86028H176.353V21.0603L176.354 21.0593ZM190.838 16.1363L198.451 8.67628L194.841 7.59428L186.741 15.8723H186.677V7.86028H182.127V26.3783H186.677V17.0133H186.741L195.354 26.6433L200 25.6343L190.838 16.1363ZM110.798 17.9103H118.218V15.4253H110.798V10.3473H118.381V7.86028H106.251V26.3763H119.769V23.8923H110.799V17.9123L110.798 17.9103ZM151.156 7.86028L159.64 26.3783H154.542L152.445 21.3233H144.445L142.122 26.3783H138.186L147.38 7.85828H151.156V7.86028ZM151.77 19.0503C150.802 16.6153 149.832 14.3653 148.77 11.5103H148.705C147.77 14.3653 146.705 16.6153 145.641 19.0503H151.77Z" fill="#192168"/>
<path d="M31 2.182V28.772C31 30.034 30.078 31 28.814 31H20.512C20.512 31 9.236 16.924 22.157 13.19C22.157 13.19 28.047 13.074 27.09 16.434C27.09 16.434 31.908 11.508 27.702 8.722C27.702 8.722 26.707 7.652 23.036 7.499L21.01 3.68C21.01 3.68 13.094 1.046 4.34 5.59L6.67 5.475C6.67 5.475 5.37 5.743 2.656 7.461L4.53 7.31C4.53 7.31 3.306 7.577 0.59 9.295L2.464 9.141C2.464 9.141 1.32 9.79 0 10.918V2.182C0 0.99 1.036 0 2.185 0H28.815C30.124 0 31 0.99 31 2.182ZM19.025 6.584L15.131 5.744L17.613 7.844L19.025 6.584Z" fill="#FDBC18"/>
</g>
<defs>
<clipPath id="clip0_352_148">
<rect width="200" height="31" fill="white"/>
</clipPath>
</defs>
</svg>
