<svg width="573" height="120" viewBox="0 0 573 120" fill="none" xmlns="http://www.w3.org/2000/svg">
<g clip-path="url(#clip0_629_352)">
<path d="M448.065 92.5898H463.725C471.729 92.5898 473.643 96.2498 473.643 98.6897C473.643 102.175 471.033 103.047 469.641 103.57C473.643 104.615 474.687 107.055 474.687 109.321C474.687 111.238 473.643 112.981 471.903 114.201C469.989 115.595 468.249 116.292 461.637 116.292H447.891V92.5898H448.065ZM454.503 101.827H462.507C465.117 101.827 467.205 101.13 467.205 99.2126C467.205 97.2955 465.291 96.5984 462.159 96.5984H454.329V101.827H454.503ZM454.503 112.11H462.855C466.161 112.11 468.075 111.064 468.075 108.624C468.075 106.532 465.639 105.661 463.203 105.661H454.503V112.11Z" fill="#892C41"/>
<path d="M484.259 116.292H477.125L488.609 92.5898H496.44L507.924 116.292H500.616L498.528 111.412H486.521L484.259 116.292ZM488.261 107.23H496.44L492.437 97.8183L488.261 107.23Z" fill="#892C41"/>
<path d="M531.065 92.5898H537.329V116.292H530.717L517.493 99.3869H517.319V116.292H511.055V92.5898H518.189L531.065 109.147V92.5898Z" fill="#892C41"/>
<path d="M550.208 116.292H543.422V92.5898H550.208V102.175L562.562 92.5898H571.263L558.038 102.35L571.959 116.292H563.259L553.166 105.835L550.034 108.275V116.292H550.208Z" fill="#892C41"/>
<path d="M156.429 16.9531H145.641V74.815H156.429V16.9531Z" fill="black"/>
<path d="M183.573 32.1133C179.571 32.1133 176.091 34.379 172.785 36.6446V32.8104H163.562V74.8126H173.481V45.0102C174.351 43.9645 177.135 41.0017 181.137 41.0017C183.573 41.0017 185.139 42.0474 185.139 47.6244V74.8126H195.057V46.4045C195.057 37.3418 190.881 32.1133 183.573 32.1133Z" fill="black"/>
<path d="M224.643 35.7757C222.381 33.51 218.727 32.1157 216.117 32.1157C206.199 32.1157 200.805 42.747 200.805 52.8554C200.805 66.9723 206.721 75.6864 216.117 75.6864C219.597 75.6864 222.555 74.4664 225.687 71.1551L226.035 74.815H234.562V16.9531H224.643V35.7757ZM218.379 41.0041C221.163 41.0041 223.251 42.747 224.643 44.1412V63.3123C224.295 63.4866 224.121 63.8352 223.773 64.1837C222.381 65.4037 221.163 66.6237 218.379 66.6237C213.507 66.6237 210.723 62.0924 210.723 53.9011C210.723 45.5355 213.507 41.0041 218.379 41.0041Z" fill="black"/>
<path d="M296.327 32.1133C293.021 32.1133 290.237 33.3333 287.453 35.9475V32.9847H277.883V89.9752H287.801V71.8498C289.889 73.9411 293.369 75.5097 296.327 75.5097C306.246 75.5097 311.64 64.8784 311.64 54.77C311.64 40.8274 305.724 32.1133 296.327 32.1133ZM301.722 53.8986C301.722 62.0899 298.937 66.6213 294.065 66.6213C291.281 66.6213 289.193 64.8784 287.801 63.4842V44.3131C288.149 44.1388 288.323 43.7902 288.671 43.4417C290.063 42.2217 291.281 41.0017 294.065 41.0017C298.937 41.0017 301.722 45.5331 301.722 53.8986Z" fill="black"/>
<path d="M332.869 32.1133C322.602 32.1133 316.164 40.4789 316.164 53.8986C316.164 66.9698 322.95 75.684 333.043 75.684C340.525 75.684 345.745 69.9326 346.789 65.7498V65.4013L339.307 61.2185L339.133 61.9156C338.263 64.1813 336.697 66.7955 333.043 66.7955C328.692 66.7955 326.256 62.9613 325.908 56.1643H348.007V51.6329C348.355 41.8731 342.961 32.1133 332.869 32.1133ZM339.133 48.3216H326.256C326.604 43.4417 328.866 40.4789 332.695 40.4789C336.349 40.4789 338.785 43.4417 339.133 48.3216Z" fill="black"/>
<path d="M447.189 32.1172C436.923 32.1172 430.484 40.4828 430.484 53.9025C430.484 66.9737 437.271 75.6879 447.363 75.6879C454.845 75.6879 460.065 69.9365 461.109 65.7538L461.283 65.4052L453.801 61.2224L453.627 61.9195C452.931 63.6624 451.365 66.7994 447.537 66.7994C443.187 66.7994 440.751 62.9652 440.403 56.1682H462.501V51.6369C462.675 41.877 457.281 32.1172 447.189 32.1172ZM453.453 48.3255H440.577C440.925 43.4456 443.187 40.4828 447.015 40.4828C450.669 40.4828 453.105 43.4456 453.453 48.3255Z" fill="black"/>
<path d="M557.658 32.1172C547.391 32.1172 540.953 40.4828 540.953 53.9025C540.953 66.9737 547.739 75.6879 557.832 75.6879C565.314 75.6879 570.534 69.9365 571.578 65.7538L571.752 65.4052L564.27 61.2224L564.096 61.9195C563.4 63.6624 561.834 66.7994 558.006 66.7994C553.656 66.7994 551.219 62.9652 550.871 56.1682H572.97V51.6369C573.144 41.877 567.75 32.1172 557.658 32.1172ZM563.922 48.3255H551.045C551.393 43.4456 553.656 40.4828 557.484 40.4828C561.138 40.4828 563.574 43.4456 563.922 48.3255Z" fill="black"/>
<path d="M256.306 32.1133C246.04 32.1133 239.602 40.4789 239.602 53.8986C239.602 66.9698 246.388 75.684 256.48 75.684C263.962 75.684 269.183 69.9326 270.227 65.7498L270.401 65.4013L262.918 61.2185L262.744 61.9156C262.048 63.6585 260.482 66.7955 256.654 66.7955C252.304 66.7955 249.868 62.9613 249.52 56.1643H271.619V51.6329C271.793 41.8731 266.398 32.1133 256.306 32.1133ZM262.57 48.3216H249.694C250.042 43.4417 252.304 40.4789 256.132 40.4789C259.786 40.4789 262.222 43.4417 262.57 48.3216Z" fill="black"/>
<path d="M374.456 32.1133C370.454 32.1133 366.974 34.379 363.668 36.6446V32.8104H354.445V74.8126H364.364V45.0102C365.234 43.9645 368.018 41.0017 372.02 41.0017C374.456 41.0017 376.022 42.0474 376.022 47.6244V74.8126H385.94V46.4045C385.94 37.3418 381.764 32.1133 374.456 32.1133Z" fill="black"/>
<path d="M415.347 35.7757C413.084 33.51 409.43 32.1157 406.82 32.1157C396.902 32.1157 391.508 42.747 391.508 52.8554C391.508 66.9723 397.424 75.6864 406.82 75.6864C410.3 75.6864 413.258 74.4664 416.391 71.1551L416.739 74.815H425.265V16.9531H415.347V35.7757ZM409.256 41.0041C412.04 41.0041 414.129 42.747 415.521 44.1412V63.3123C415.173 63.4866 414.999 63.8352 414.651 64.1837C413.258 65.4037 412.04 66.6237 409.256 66.6237C404.384 66.6237 401.6 62.0924 401.6 53.9011C401.6 45.5355 404.21 41.0041 409.256 41.0041Z" fill="black"/>
<path d="M488.776 32.1133C484.774 32.1133 481.294 34.379 477.988 36.6446V32.8104H468.766V74.8126H478.684V45.0102C479.554 43.9645 482.338 41.0017 486.34 41.0017C488.776 41.0017 490.342 42.0474 490.342 47.6244V74.8126H500.261V46.4045C500.261 37.3418 496.084 32.1133 488.776 32.1133Z" fill="black"/>
<path d="M529.499 60.5244C527.933 63.6615 526.019 66.7985 522.191 66.7985C517.319 66.7985 515.231 62.79 515.231 54.0759C515.231 42.5732 519.059 41.3533 521.843 41.3533C525.845 41.3533 527.237 43.9675 528.455 47.2789L528.629 47.8017L536.982 44.3161L536.807 43.7932C534.719 36.8219 528.977 32.4648 521.843 32.4648C511.577 32.4648 505.312 40.8304 505.312 54.2502C505.312 67.67 511.577 76.0355 521.843 76.0355H522.191C529.151 76.0355 533.501 72.8984 537.156 65.4043L537.329 64.8814L529.673 60.1758L529.499 60.5244Z" fill="black"/>
<path d="M274.057 82.6562H145.641V84.7476H274.057V82.6562Z" fill="#A7A9AC"/>
<path d="M572.307 82.6562H291.984V84.7476H572.307V82.6562Z" fill="#A7A9AC"/>
<path fill-rule="evenodd" clip-rule="evenodd" d="M59.5099 0.046875C26.6228 0.046875 0 26.8864 0 60.0001C0 93.1139 26.6228 119.953 59.5099 119.953C92.3969 119.953 119.02 93.1139 119.02 60.0001C119.02 26.8864 92.3969 0.046875 59.5099 0.046875ZM59.5099 114.551C29.5809 114.551 5.39417 90.1511 5.39417 60.0001C5.39417 29.8492 29.5809 5.44964 59.5099 5.44964C89.4388 5.44964 113.626 29.8492 113.626 60.0001C113.626 90.1511 89.4388 114.551 59.5099 114.551Z" fill="#389AD4"/>
<path fill-rule="evenodd" clip-rule="evenodd" d="M59.5149 10.6797C86.6597 10.6797 108.584 32.8136 108.584 60.0017C108.584 87.3641 86.6597 109.324 59.5149 109.324C32.544 109.498 10.4453 87.3641 10.4453 60.0017C10.4453 32.8136 32.544 10.6797 59.5149 10.6797ZM64.735 97.821C72.5653 97.821 79.8735 91.3726 82.8316 83.5299C85.7897 75.6871 83.3536 69.2387 75.5234 69.2387H60.2109L49.5965 97.821H64.735ZM62.2989 63.4874H75.3494C83.1796 63.4874 90.4878 57.0389 93.4459 49.1962C96.404 41.3534 93.9679 34.905 86.1377 34.905H67.5191L65.7791 39.7849C67.8671 39.7849 70.8252 40.482 70.1292 42.7477L62.2989 63.4874ZM40.7223 25.1452C42.8103 25.1452 45.7684 25.8423 45.0724 28.108L25.5838 80.2185C24.1917 84.0527 26.4538 85.447 28.8899 85.447H49.9446L51.6846 80.5671C49.5966 80.5671 46.6385 79.8699 47.3345 77.6043L65.7791 28.108C66.4751 26.5394 67.1711 25.1452 72.3913 25.1452L74.3053 20.2652H42.4623L40.7223 25.1452Z" fill="#892C41"/>
<path d="M62.2962 63.4847H75.3466C83.1768 63.4847 90.485 57.0362 93.4431 49.1935C96.4012 41.3508 93.9652 34.9023 86.1349 34.9023H67.5163L65.7763 39.7823C67.8643 39.7823 70.8224 40.4794 70.1264 42.7451L62.2962 63.4847Z" fill="#389AD4"/>
<path d="M64.7322 97.8184C72.5625 97.8184 79.8707 91.3699 82.8288 83.5272C85.7869 75.6845 83.3508 69.236 75.5206 69.236H60.2081L49.5938 97.8184H64.7322Z" fill="#389AD4"/>
<path fill-rule="evenodd" clip-rule="evenodd" d="M80.9091 73.418C79.865 71.8495 77.951 71.1523 75.5149 71.1523H61.7685L60.8984 73.0695H73.7748C76.3849 73.0695 78.125 73.7666 79.169 75.3351C80.5611 77.4265 79.865 80.7379 78.473 84.5721C77.255 88.0578 74.9929 91.0206 72.3828 93.2863C76.0369 91.0206 78.995 87.3606 80.7351 82.655C82.3011 78.8208 82.3011 75.5094 80.9091 73.418Z" fill="#236891"/>
<path fill-rule="evenodd" clip-rule="evenodd" d="M91.5291 39.086C90.4851 37.5174 88.571 36.8203 86.1349 36.8203H69.0824L68.7344 37.866C69.4304 38.0403 69.9524 38.3889 70.6484 38.7374H84.5689C87.1789 38.7374 88.919 39.4346 89.963 41.0031C91.3551 43.0945 90.6591 46.4059 89.267 50.2401C88.049 53.7257 85.7869 56.6885 83.1768 58.9542C86.8309 56.6885 89.789 53.0286 91.5291 48.323C92.9211 44.4888 92.9211 41.1774 91.5291 39.086Z" fill="#236891"/>
<path fill-rule="evenodd" clip-rule="evenodd" d="M60.9052 29.1497L43.1567 76.9032C42.1126 79.3431 43.5047 81.086 44.2007 81.9574C44.5487 82.4802 45.4187 82.8288 46.2888 83.1774H48.2028L48.5508 82.1317C47.3328 81.7831 46.2888 81.2602 45.5927 80.2145C44.8967 79.1688 44.7227 78.1231 45.0707 76.9032L63.5153 27.4069C63.6893 26.7098 64.0373 26.1869 64.3853 25.6641C62.4713 26.1869 61.6012 27.4069 60.9052 29.1497Z" fill="#A7A9AC"/>
<path d="M43.5 23.3988C44.196 23.573 44.718 23.9216 45.2401 24.2702H66.1207C67.1647 23.7473 68.7308 23.2245 70.8189 23.2245L71.1669 22.5273H44.022H43.8729L43.5 23.3988Z" fill="#A7A9AC"/>
</g>
<defs>
<clipPath id="clip0_629_352">
<rect width="573" height="120" fill="white"/>
</clipPath>
</defs>
</svg>
