<svg width="148" height="60" viewBox="0 0 148 60" fill="none" xmlns="http://www.w3.org/2000/svg">
<g clip-path="url(#clip0_629_318)">
<path d="M23.2755 34.522C20.9615 35.597 18.5975 36.133 16.2905 36.133C13.7775 36.133 11.3295 35.497 9.07547 34.228C4.21147 31.49 0.775466 26.048 0.105466 20.023C-0.584534 13.822 2.14747 7.619 7.23547 3.839C11.9415 0.338 17.8675 -0.424 23.0815 1.8L23.1685 1.837L23.7815 10.798L23.5055 10.563C21.3855 8.747 17.4865 8.324 14.4345 9.584C11.2695 10.89 9.35947 13.721 9.05447 17.556C8.78747 20.919 10.1875 23.724 12.9975 25.456C16.2455 27.458 20.9575 27.709 23.7305 26.029L23.9815 25.876L23.3575 34.487L23.2765 34.524L23.2755 34.522ZM34.3475 7.241V0.18L25.3775 0.22L25.4155 7.315L34.3475 7.24V7.241ZM25.4065 35.786L34.3265 35.711L34.3645 10.415L25.4425 10.49L25.4065 35.786ZM50.5705 35.891L50.6605 35.88L53.5005 28.49L53.2145 28.564C51.7395 28.942 49.1405 28.619 47.7685 27.554C47.2055 27.116 46.9205 26.602 46.9225 26.027L46.9345 18.033H51.5325L51.5725 10.541L46.9405 10.503L46.9755 2.11L38.5395 7.58V10.538L35.4365 10.541V17.927L38.3275 18L38.1115 26.74C38.0225 30.318 38.7885 32.792 40.4545 34.302C42.0445 35.742 44.3175 36.172 46.7185 36.172C47.9945 36.172 49.3065 36.05 50.5705 35.894V35.891ZM63.0985 10.2L54.6105 10.239L54.5745 35.983H63.0615L63.0985 10.2ZM63.1725 0H54.6085V6.915H63.1335L63.1725 0ZM99.4125 45.27L99.5105 45.26L99.5425 45.166C99.9955 43.8 100.576 41.732 100.982 40.238C101.812 37.193 101.804 37.188 101.729 37.108L101.665 37.044L101.578 37.07C96.6085 38.506 92.6155 36.822 88.3875 35.04C84.4195 33.369 79.9285 31.475 73.9905 31.918L74.9905 29.693L78.0735 22.713L83.8245 10.247L64.9265 10.211L64.8875 18.399L70.5575 18.467L64.1875 32.349L64.1455 32.439L72.0765 41.353L72.1855 41.285C75.7135 39.09 81.9365 40.767 86.1945 42.87C89.3465 44.428 92.2975 45.425 96.4485 45.425C97.3725 45.425 98.3555 45.375 99.4135 45.273L99.4115 45.269L99.4125 45.27ZM84.5675 14.315C87.7545 10.059 92.7065 8.536 98.1525 10.136C101.146 11.016 103.936 13.536 106.45 17.621L106.438 10.783L115.645 10.733L115.642 12.741C117.473 11.023 119.315 10.658 121.352 10.395H121.372C123.85 10.395 125.918 11.201 127.355 12.731C128.712 14.179 129.43 16.166 129.428 18.479V35.432H121.157V21.356C121.157 20.076 120.134 18.216 118.529 18.216C116.924 18.216 115.678 20.092 115.678 21.356V35.433H106.491V35.281L106.458 18.467L92.7435 27.526C93.2975 28.452 94.3065 29.041 95.6695 29.234C98.5125 29.636 102.494 28.261 104.549 26.168C104.573 26.1429 104.602 26.1233 104.634 26.1103C104.666 26.0974 104.701 26.0915 104.735 26.093C104.878 26.103 104.976 26.229 105.078 26.365C105.117 26.4192 105.161 26.4695 105.209 26.515L105.297 26.585L105.257 26.69L101.86 35.44L101.781 35.457C99.4845 35.957 97.4515 36.17 95.6545 36.17C88.5365 36.17 85.1385 32.805 83.6385 30.466C80.6535 25.818 81.0465 19.026 84.5745 14.316H84.5675V14.315ZM89.8065 22.628L97.0465 17.798C96.0865 17.099 95.1585 16.638 94.1425 16.638C93.3965 16.638 92.6025 16.886 91.7085 17.468C89.4815 18.925 89.2825 21.114 89.8065 22.626V22.628ZM141.503 19.685C139.909 19.223 139.009 18.92 139.083 18.099C139.204 16.729 139.96 16.491 140.938 16.321C142.475 16.052 144.249 16.363 145.932 17.191L146.149 17.298L146.187 11.35L146.112 11.306C144.429 10.314 142.523 9.811 140.449 9.811C139.09 9.811 136.495 10.022 134.373 11.433C132.226 12.862 131.137 15.108 131.137 18.108C131.137 23.89 134.23 24.481 136.489 24.913C137.817 25.166 138.57 25.352 138.57 26.201C138.57 27.113 138.258 27.363 136.979 27.471C134.783 27.659 132.714 27.106 131.443 25.993L131.192 25.773V34.745L131.329 34.758C132.299 34.852 133.998 35.015 135.947 35.015C139.303 35.015 143.399 34.529 145.785 32.361C147.192 31.083 147.905 29.334 147.905 27.159C147.905 21.544 144.051 20.424 141.502 19.682L141.503 19.685ZM27.7605 52.906C28.8225 53.283 29.4195 54.251 29.4195 55.636C29.4195 58.343 27.2745 59.774 23.2135 59.774H19.3525L22.1105 46.586H26.0545C28.6645 46.586 30.1015 47.734 30.1015 49.821C30.1015 51.213 29.1255 52.458 27.7595 52.905L27.7605 52.906ZM24.4255 48.922L23.8085 51.793H24.6345C25.8125 51.793 27.2145 51.493 27.2145 50.063C27.2145 49.011 26.2655 48.923 25.2075 48.923L24.4255 48.922ZM23.3385 54.018L22.6255 57.443H23.3255C25.2505 57.443 26.5325 57.098 26.5325 55.417C26.5325 54.424 25.8125 54.019 24.0455 54.019L23.3385 54.018ZM40.2935 52.831C40.2935 53.579 39.9775 55.147 39.6705 56.663C39.4505 57.757 39.2225 58.889 39.1285 59.642L39.1125 59.776H36.7115L36.9135 58.641C36.0485 59.6 35.1925 59.998 34.0495 59.998C32.1455 59.998 30.9625 58.9 30.9625 57.133C30.9625 53.603 35.3105 53.603 36.9465 53.603H37.6945C37.7365 53.395 37.7365 53.175 37.7365 52.943C37.7365 51.937 36.3965 51.858 35.9875 51.858C34.9795 51.858 33.9505 52.102 32.9335 52.581L32.6665 52.706L33.0835 50.356L33.1685 50.326C34.2205 49.9462 35.33 49.75 36.4485 49.746C39.7935 49.746 40.2935 51.679 40.2935 52.833V52.831ZM33.6295 57.04C33.6295 57.62 34.2005 57.885 34.7335 57.885C36.3165 57.885 36.9245 56.934 37.3415 55.383H36.6715C35.2845 55.383 33.6295 55.672 33.6295 57.04ZM48.6505 49.746C47.7855 49.746 46.9055 50.079 46.1355 50.689L46.2655 49.969H43.5335L43.5165 50.101C43.4494 50.5541 43.3697 51.0053 43.2775 51.454L41.4855 59.777H44.2695L45.3115 54.877C45.7485 52.893 46.5475 51.969 47.8205 51.969C48.5345 51.969 49.0165 52.443 49.0165 53.146C49.0165 53.76 48.8985 54.342 48.7825 54.906L47.7825 59.776H50.5645L51.5875 55.044L51.6265 54.871C51.7505 54.311 51.9055 53.611 51.9055 52.944C51.9055 51.001 50.6285 49.746 48.6525 49.746H48.6505ZM63.7135 49.966H60.4395L57.2595 53.148L58.8435 45.628H56.0595L53.0595 59.775H55.7895L56.8045 54.994L59.1345 59.775H62.2735L59.3435 54.483L63.8175 50.228L63.7135 49.966ZM79.5155 52.478H82.0875L82.0655 52.648C81.8295 54.533 81.0605 56.238 79.8935 57.464L81.4835 59.779H78.3425L77.9195 59.103C77.0795 59.636 75.6895 60.001 74.4575 60.001C72.3175 60.001 69.8195 59.004 69.8195 56.193C69.8195 54.318 71.0725 52.838 73.2675 52.106C72.8205 51.493 72.4585 50.907 72.4585 49.786C72.4585 48.084 73.6985 46.369 76.4685 46.369C77.9045 46.369 80.1825 47.206 80.1825 49.456C80.1825 51.568 78.4725 52.534 76.9075 53.13L78.5315 55.462C79.1505 54.5 79.4785 53.547 79.5085 52.626L79.5135 52.479L79.5155 52.478ZM72.5965 56.063C72.5965 57.553 73.9115 57.775 74.6965 57.775C75.4255 57.775 76.1485 57.576 76.6645 57.24L74.5245 53.995C73.5315 54.381 72.5945 54.875 72.5945 56.061L72.5965 56.063ZM75.7195 51.309C77.0595 50.92 77.7375 50.297 77.7375 49.454C77.7375 48.611 77.0235 48.481 76.5975 48.481C75.7025 48.481 75.1235 49.023 75.1235 49.861C75.1235 50.257 75.3235 50.744 75.7175 51.309H75.7195ZM100.025 46.589H89.7665L89.2575 48.923H92.8945L90.5515 59.777H93.5555L95.8995 48.922H99.5365L100.025 46.589ZM104.269 49.746C103.281 49.746 102.302 50.415 101.714 51.19L101.942 49.967H99.2685L99.2465 50.093C99.1725 50.534 99.0995 50.959 99.0265 51.363L97.2905 59.775H100.072L100.983 55.389C101.514 52.797 102.945 52.409 103.751 52.409C104.049 52.409 104.381 52.461 104.644 52.549L104.806 52.602L105.388 49.875L105.245 49.84C104.924 49.7678 104.596 49.7352 104.266 49.743L104.269 49.746ZM112.002 54.867C111.563 56.851 110.766 57.775 109.493 57.775C108.779 57.775 108.297 57.301 108.297 56.597C108.297 55.984 108.417 55.4 108.531 54.834L109.532 49.967H106.749L105.726 54.7L105.687 54.87C105.562 55.433 105.408 56.13 105.408 56.8C105.408 58.743 106.685 59.997 108.661 59.997C109.526 59.997 110.406 59.665 111.176 59.055L111.045 59.775H113.778L113.795 59.643C113.833 59.333 113.936 58.783 114.034 58.289L115.826 49.967H113.042L112 54.867H112.002ZM121.603 49.747C119.634 49.747 117.334 50.578 117.334 52.926C117.334 54.331 118.365 54.99 119.274 55.573C119.957 56.01 120.547 56.388 120.547 56.987C120.547 57.65 119.748 57.887 119 57.887C118.087 57.887 117.422 57.562 116.712 57.167L116.543 57.073L115.924 59.358L116.039 59.411C116.881 59.806 117.849 59.997 119.002 59.997C121.82 59.997 123.436 58.772 123.436 56.634C123.436 55.198 122.29 54.444 121.37 53.839C120.754 53.435 120.224 53.084 120.224 52.665C120.224 51.915 121.379 51.857 121.733 51.857C122.448 51.857 123.133 52.075 123.712 52.29L123.866 52.347L124.49 50.174L124.338 50.136C123.304 49.871 122.409 49.743 121.605 49.743L121.603 49.746V49.747ZM131.073 47.068L128.081 48.045L127.664 49.967H125.873L125.422 52.079H127.211L126.549 55.106C126.375 55.898 126.232 56.612 126.232 57.354C126.232 59.084 127.273 59.997 129.244 59.997C129.613 59.997 130.004 59.907 130.383 59.823C130.458 59.806 130.532 59.788 130.605 59.773L130.7 59.753L131.209 57.455L130.941 57.565C130.622 57.698 130.195 57.775 129.799 57.775C129.312 57.775 129.009 57.479 129.009 57.003C129.009 56.603 129.075 56.276 129.115 56.113L129.993 52.079H132.208L132.66 49.967H130.445L131.07 47.068H131.073Z" fill="#003E2D"/>
</g>
<defs>
<clipPath id="clip0_629_318">
<rect width="148" height="60" fill="white"/>
</clipPath>
</defs>
</svg>
