<svg version="1.1" id="Layer_1" xmlns="http://www.w3.org/2000/svg" xmlns:xlink="http://www.w3.org/1999/xlink" x="0px" y="0px" viewBox="-768.2 68.9 1374.8 177.9" style="enable-background:new -768.2 68.9 1374.8 177.9;" xml:space="preserve">
 <style type="text/css">
  .st0{fill:#116E53;}
 </style>
 <g>
  <path class="st0" d="M-499.2,162.6l3.5-0.4c5.2,18.6,22.5,47.9,44.9,47.9c19.9,0,33.2-13,33.2-33.7c0-35-74.7-22-74.7-67.4
		c0-23.7,22.5-36.7,44-36.7c7.8,0,15.5,1.3,22.9,1.3c4.7,0,9.5-0.4,14.2-1.3c0.4,11.2,2.6,27.2,4.3,38.4l-2.6,0.9
		c-7.8-15.5-19-36.7-39.3-36.7c-15.1,0-26.3,9.1-26.3,22.5c0,36.7,74.3,19,74.3,69.1c0,31.5-26.8,46.2-55.7,46.2
		c-15.5,0-28.5-2.6-38-5.6C-494.5,207.1-499.2,162.6-499.2,162.6z M-370.1,152.7h22.5v2.6h-22.5V152.7z M-390.8,159.1
		c0-3-0.9-4.7-4.3-4.7h-4.7v-2.6c9.9-3,23.7-22.9,28.9-30.7l9.9-15.5l2.6,1.7l-9.9,14.7c-2.2,3.5-3.9,6-3.9,11.2v63
		c0,6,2.2,9.9,8.6,9.9s13.8-8.2,17.3-14.2l1.7,1.3c-4.7,9.1-13.4,19.9-25.9,19.9c-12.5,0-20.3-7.8-20.3-21.2
		C-390.8,192-390.8,159.1-390.8,159.1z">
  </path>
  <path class="st0" d="M-298.4,181.6c0-13.8-3.9-28.1-14.2-28.1c-11.2,0-14.7,12.1-14.7,28.1s3,28.1,14.7,28.1
		C-301.9,209.7-298.4,195.4-298.4,181.6 M-278.6,181.6c0,17.7-14.2,30.7-34.5,30.7c-19.9,0-34.5-13-34.5-30.7s14.7-30.7,34.5-30.7
		S-278.6,163.9-278.6,181.6 M-209.5,173.4l-2.6,0.4c-5.6-9.1-16.4-20.3-28.1-20.3c-11.2,0-14.7,12.1-14.7,28.1s3,28.1,14.7,28.1
		c12.5,0,25.5-6.9,29.4-21.2l2.2,0.4c-4.7,16.8-18.6,23.3-32,23.3c-19.9,0-34.5-13-34.5-30.7c0-18.6,14.7-30.7,32.4-30.7
		c3.9,0,6.9,0.4,9.9,0.9c2.6,0.4,5.2,1.3,6.9,0.9c3,0,6.5-0.4,9.5-1.3C-216.4,151.4-209.5,173.4-209.5,173.4z">
  </path>
  <path class="st0" d="M-164.6,211v-2.6h3.5c2.6,0,5.6-0.9,5.6-3.9c0-2.6-1.3-4.3-3-6.5l-13-17.7l-9.5,8.2v12.1
		c0,4.3,1.3,7.8,7.8,7.8h3.5v2.6h-44v-2.6h6.5c2.6,0,6.5-2.2,6.5-8.6V89.6c0-6-3.5-8.2-13.4-8.2v-3h13c6.5,0,15.5-0.9,19.9-2.2
		v109.2l22.9-19.4c2.2-1.7,4.7-3.9,4.7-6.9c0-2.6-1.3-3.9-4.3-3.9h-7.8v-2.6h38.9v2.6h-9.9c-4.7,0-7.3,1.3-10.4,3.9l-7.8,6.9
		c-0.9,0.9-1.7,2.2-1.7,3c0,1.3,0.9,2.2,1.7,3.5l21.6,28.5c2.6,3.5,5.2,6.9,11.2,7.3v2.6L-164.6,211L-164.6,211z">
  </path>
  <path class="st0" d="M-29,211v-2.6c4.3,0,9.1-0.9,9.1-6.9v-31.5c0-9.9-3-13.4-9.5-13.4c-3,0-5.2,0.9-18.6,15.1v26.8
		c0,6,2.2,9.9,7.3,9.9h4.7v2.6h-40.6v-2.6c4.3,0,9.5-0.9,9.5-6.9v-31.5c0-9.9-3-13.4-9.5-13.4c-3,0-5.2,0.9-18.6,15.1v26.8
		c0,6,2.2,9.9,7.3,9.9h4.7v2.6h-42.7v-2.6h3.5c6,0,8.6-4.7,8.6-9.5v-37.1c0-3.5-3-6.5-6.9-6.5h-4.3v-2.6h6.5
		c7.8,0,17.3-0.4,23.3-1.7v17.7c13.8-14.7,16.8-17.3,25-17.7c10.8,0,19,9.1,21.6,17.7c13.8-14.7,16.8-17.3,25-17.7
		c15.5,0,22.9,13.8,22.9,25.9v21.6c0,6,2.2,9.9,7.3,9.9h7.3v2.6L-29,211L-29,211z">
  </path>
  <path class="st0" d="M39.2,207.5c5.6,0,9.9-3,13-7.8v-22.9c-11.2,0-25,3.5-25,16.8C27.6,200.6,32.3,207.5,39.2,207.5 M71.6,199.7
		c0,4.7,1.3,6,4.3,6c4.7,0,7.8-6.5,9.1-10.4l2.6,1.3c-3.9,9.5-9.9,16-19.9,16c-6.5,0-12.5-3-14.2-8.2c-5.6,4.7-13.4,8.2-22.5,8.2
		c-13,0-20.7-6.5-20.7-16.4c0-25,41.9-18.1,41.9-23.7v-12.1c0-4.3-2.6-6.9-6.5-6.9c-5.6,0-7.8,3.9-7.8,9.1c0,4.7,3,6,3.9,7.3v1.3
		c0,0.4,0,2.2-1.3,2.2c-0.9,0-2.2-0.4-3-0.9l-13.4-6c1.3-5.6,9.1-15.1,22.9-15.1c15.1,0,23.7,9.9,24.6,24.6L71.6,199.7L71.6,199.7z">
  </path>
  <path class="st0" d="M83.7,211v-2.6h3.9c6,0,8.2-4.7,8.2-9.5v-37.1c0-3.5-3-6.5-6.9-6.5h-4.7v-2.6h6.5c7.3,0,16.4-0.9,22.5-1.7
		v16.8l6-6c5.6-5.6,9.9-10.8,19-10.8c14.2,0,21.6,13.8,21.6,25.9V201c0,4.3,3.5,6.9,6.9,6.9h6v2.6h-41v-2.6c5.2,0,9.9-1.7,9.9-7.8
		v-31.5c0-6-2.2-13.4-9.5-13.4c-3.9,0-7.3,3-9.9,5.6l-9.1,9.1v29.8c0,4.7,3,7.8,7.8,7.8h3v2.6H83.7L83.7,211z M256.9,194.1
		c0,12.5,8.6,15.1,19.9,15.1h9.1c15.5,0,27.2-17.3,27.2-33.2c0-16.4-11.7-37.6-32.4-37.6h-24.2v55.7H256.9z M256.9,135.4
		c1.7,0.4,3.9,0.4,6,0.4h11.2c16.8,0,24.6-11.7,24.6-27.2c0-18.1-13-32.4-28.5-32.4c-5.2,0-13.4,6.9-13.4,9.9L256.9,135.4
		L256.9,135.4z M285.8,73.7c15.1,0,37.6,15.5,37.6,35.8c0,16.4-13,25-23.7,27.2v0.4c19,3,38,16,38,35c0,25.9-17.7,39.7-44,39.7
		c-11.2,0-22-1.3-32-1.3H215v-2.6c1.7,0,3.5-0.4,4.7-0.9c3.9-1.3,12.5-8.6,12.5-10.8V85.7c-1.7-1.7-7.3-8.6-9.9-8.6l-7.3-0.4v-3
		H285.8L285.8,73.7z M368.7,207.5c5.6,0,9.9-3,13-7.8v-22.9c-11.2,0-24.6,3.5-24.6,16.8C356.6,200.6,361.4,207.5,368.7,207.5
		 M400.6,199.7c0,4.7,1.3,6,4.3,6c4.7,0,7.8-6.5,9.1-10.4l2.6,1.3c-3.9,9.5-9.9,16-19.9,16c-6.5,0-12.5-3-14.2-8.2
		c-5.6,4.7-13.4,8.2-22.5,8.2c-13,0-20.7-6.5-20.7-16.4c0-25,42.3-18.1,41.9-23.7v-12.1c0-4.3-2.6-6.9-6.5-6.9
		c-5.6,0-7.8,3.9-7.8,9.1c0,4.7,3,6,3.9,7.3v1.3c0,0.4,0,2.2-1.3,2.2c-0.9,0-2.2-0.4-3-0.9l-13.4-6c1.3-5.6,9.1-15.1,22.9-15.1
		c15.1,0,23.7,9.9,24.6,24.6L400.6,199.7L400.6,199.7z">
  </path>
  <path class="st0" d="M408.9,211v-2.6h3.9c6,0,8.2-4.7,8.2-9.5v-37.1c0-3.5-3-6.5-6.9-6.5h-4.7v-2.6h6.5c7.3,0,16.4-0.9,22.5-1.7
		v16.8l6-6c5.6-5.6,9.9-10.8,19-10.8c14.2,0,21.6,13.8,21.6,25.9V201c0,4.3,3.5,6.9,6.9,6.9h6v2.6h-41v-2.6c5.2,0,9.9-1.7,9.9-7.8
		v-31.5c0-6-2.2-13.4-9.5-13.4c-3.9,0-7.3,3-9.9,5.6l-9.1,9.1v29.8c0,4.7,3,7.8,7.8,7.8h3v2.6h-40.2L408.9,211z">
  </path>
  <path class="st0" d="M543.6,211v-2.6h3.5c2.6,0,5.6-0.9,5.6-3.9c0-2.6-1.3-4.3-3-6.5l-13-17.7l-9.5,8.2v12.1c0,4.3,1.3,7.8,7.8,7.8
		h3.5v2.6h-44v-2.6h6.5c2.6,0,6.5-2.2,6.5-8.6V89.6c0-6-3.5-8.2-13.4-8.2v-3h13c6.5,0,15.5-0.9,19.9-2.2v109.2l22.9-19.4
		c2.2-1.7,4.7-3.9,4.7-6.9c0-2.6-1.3-3.9-4.3-3.9h-7.8v-2.6h38.9v2.6h-9.9c-4.7,0-7.3,1.3-10.4,3.9l-7.8,6.9c-0.9,0.9-1.7,2.2-1.7,3
		c0,1.3,0.9,2.2,1.7,3.5l21.6,28.5c2.6,3.5,5.2,6.9,11.2,7.3v2.6L543.6,211L543.6,211z M-508.3,229.1H595.8v3.5H-508.3V229.1z
		 M-519.1,239.9H606.6v6.9H-519.1V239.9z">
  </path>
  <g>
   <path class="st0" d="M-745.3,165.6h32.8l0.4,1.3c9.5,19.4,40.6,47.1,79.4,49.2c22.9,1.3,37.1-1.7,44-8.6c3.9-3.9,5.6-9.1,5.2-15.5
			c-0.4-10.4-25-16.4-51.4-22.9c-37.6-9.1-80.3-19.4-78.2-48.4c1.3-23.7,46.2-34.5,87.2-32.4c7.3,0.4,14.7,0.9,22,1.7
			c6.9,0.4,14.2,1.3,21.2,1.3c9.5,0.4,17.7,0.4,26.8,0h2.2v2.2c0.4,6,3,14.7,6,22.5c0.9,3,2.2,5.6,3,8.2h27.2V69.3l-130-0.4
			c-102.8-0.4-98,73.8-98,73.8S-745.3,165.6-745.3,165.6z">
   </path>
   <path class="st0" d="M-542.8,133.2h-13.8l-0.4-0.9c-12.5-14.2-32-35.8-69.5-37.6c-26.3-1.3-42.7,5.2-43.6,17.3
			c-0.9,14.2,27.2,20.7,56.6,27.6c35.8,8.2,76.4,17.3,74.7,44.9c-1.7,28.9-44.9,47.5-105.4,44.5c-24.6-1.3-44.9-5.6-61.3-9.1
			l-9.1-1.7l-1.3-0.4v-2.2l-7.3-41.5h-22v70.8l133.9,0.4c0,0,92.8,6,93.3-57v-55.7C-518.2,132.8-542.8,133.2-542.8,133.2z
			 M-761.3,236.4h1.3c1.3,0,2.6-0.4,2.6-1.7c0-0.9-0.4-1.7-2.6-1.7h-1.3C-761.3,233-761.3,236.4-761.3,236.4z M-761.3,242.1h-1.3
			v-9.9c0.9,0,1.7-0.4,2.6-0.4c1.3,0,2.6,0.4,3,0.9c0.4,0.4,0.9,1.3,0.9,2.2c0,1.3-0.9,2.2-1.7,2.6c0.9,0,1.3,0.9,1.7,2.6
			c0.4,1.7,0.4,2.2,0.4,2.6h-1.7c-0.4-0.4-0.4-1.3-0.9-2.6c-0.4-1.3-0.9-1.7-2.2-1.7h-0.9C-761.3,238.2-761.3,242.1-761.3,242.1z
			 M-759.6,229.5c-3.9,0-6.9,3.5-6.9,7.3c0,4.3,3,7.3,6.9,7.3c3.9,0,6.9-3.5,6.9-7.3C-752.2,233-755.7,229.5-759.6,229.5z
			 M-759.6,228.2c4.7,0,8.6,3.9,8.6,8.6s-3.9,8.6-8.6,8.6c-4.7,0-8.6-3.9-8.6-8.6S-764.3,228.2-759.6,228.2z">
   </path>
  </g>
 </g>
</svg>