<svg width="341" height="61" viewBox="0 0 341 61" fill="none" xmlns="http://www.w3.org/2000/svg">
<g clip-path="url(#clip0_629_382)">
<mask id="mask0_629_382" style="mask-type:luminance" maskUnits="userSpaceOnUse" x="0" y="0" width="363" height="62">
<path d="M362.586 0H0V61.463H362.586V0Z" fill="white"/>
</mask>
<g mask="url(#mask0_629_382)">
<path d="M72.161 55.3H55.101C54.709 55.3 54.3331 55.1443 54.0559 54.8671C53.7787 54.5899 53.623 54.214 53.623 53.822V23.812C53.6109 23.1243 53.8538 22.4565 54.3049 21.9372C54.756 21.418 55.3834 21.0841 56.066 21C56.4417 20.9632 56.821 21.0054 57.1795 21.1239C57.5379 21.2424 57.8676 21.4346 58.1473 21.6881C58.427 21.9417 58.6506 22.2509 58.8037 22.596C58.9567 22.9412 59.0359 23.3145 59.036 23.692V49.888H72.161C73.1129 49.874 74.03 49.5278 74.7535 48.9091C75.477 48.2904 75.9615 47.4382 76.123 46.5C76.235 43.515 75.839 42.544 73.783 40.587L68.735 35.787C65.781 33.515 65.535 29.801 68.429 27.477C68.429 27.477 72.798 24.263 72.471 19.732C72.339 17.901 70.1 16.648 68.092 16.627H49.565L38.801 51.964C38.5158 52.9161 37.9284 53.7494 37.1275 54.338C36.3266 54.9265 35.3558 55.2382 34.362 55.226H34.354C33.3581 55.223 32.3904 54.8954 31.5975 54.2928C30.8046 53.6903 30.2297 52.8457 29.96 51.887L16.933 6.48C16.8444 6.17156 16.6579 5.90033 16.4015 5.7073C16.1451 5.51426 15.8329 5.40991 15.512 5.41H2.82101C2.13439 5.42139 1.4678 5.17852 0.949438 4.72809C0.431078 4.27767 0.0975547 3.65149 0.0130124 2.97C-0.0239447 2.59458 0.0180318 2.21558 0.136245 1.85734C0.254459 1.4991 0.446296 1.16955 0.699434 0.889858C0.952572 0.610164 1.26141 0.386509 1.60612 0.23326C1.95083 0.0800106 2.32378 0.000556139 2.70101 0L19.588 0C19.9089 0.000186095 20.221 0.104785 20.4771 0.297997C20.7333 0.491209 20.9197 0.762539 21.008 1.071L34.408 47.801L45.239 12.262C45.3312 11.9591 45.5183 11.6938 45.7727 11.5053C46.0271 11.3168 46.3354 11.215 46.652 11.215H68.12C72.64 11.262 77.72 14.304 77.865 19.341C78.05 25.811 73.643 29.456 72.186 30.875C71.954 31.131 72.061 31.52 72.462 31.864L77.51 36.664C80.452 39.464 81.959 41.951 81.5 47.081C81.3 49.344 78.631 55.296 72.16 55.296" fill="#1F120E"/>
<path d="M110.87 31.9094L122.088 10.5254H117.965L110.441 26.0684L102.653 10.5254H96.9766L107.636 31.9094H110.87ZM142.154 31.9094L132.554 13.7924H128.063L118.361 31.9094H122.088L124.167 27.7514H134.333L136.511 31.9094H142.154ZM133.013 25.2764H125.388L129.117 17.9174L133.013 25.2764ZM161.36 31.9094V29.1374H150.932V13.7924H146.015V31.9094H161.36ZM180.599 31.9094V29.1374H170.171V13.7924H165.254V31.9094H180.599ZM201.95 31.9094V29.1374H189.41V23.8574H196.868V21.1184H189.41V16.5644H201.188V13.7924H184.488V31.9094H201.95ZM217.757 31.9094V24.7484L227.03 13.7924H222.905L216.47 21.9434L210.035 13.7924H203.798L212.84 24.7484V31.9094H217.757ZM242.738 31.9094H256.038C259.899 31.9094 262.275 31.0184 263.694 29.5664C264.618 28.612 265.128 27.3311 265.113 26.0024C265.113 22.3024 261.313 20.8544 258.876 20.6894V20.4894C261.285 20.2254 264.09 18.7074 264.09 15.9024C264.119 14.784 263.717 13.697 262.968 12.8664C261.582 11.2824 259.173 10.5234 254.454 10.5234H242.738V31.9094ZM247.688 29.0094V22.2094H254.519C258.119 22.2094 259.469 23.5954 259.469 25.7404C259.469 28.6774 257.126 29.0074 254.057 29.0074L247.688 29.0094ZM247.688 19.4094V13.4294H252.935C256.4 13.4294 258.644 13.7594 258.644 16.4984C258.644 18.4454 257.324 19.3984 253.991 19.3984L247.688 19.4094ZM290.388 31.9094L280.788 13.7924H276.3L266.597 31.9094H270.326L272.405 27.7514H282.569L284.747 31.9094H290.388ZM281.247 25.2764H273.624L277.353 17.9174L281.247 25.2764ZM312.863 31.9094V13.7924H309.629V25.3094L299.329 13.7924H294.188V31.9094H297.455V19.1384L309.035 31.9094H312.863ZM340.814 31.9094L332.498 19.6994L339.398 13.7924H334.478L324.644 23.0984V13.7924H319.727V31.9094H324.644V26.9594L328.835 23.0654L334.709 31.9094H340.814Z" fill="#1F120E"/>
</g>
<mask id="mask1_629_382" style="mask-type:luminance" maskUnits="userSpaceOnUse" x="0" y="0" width="363" height="62">
<path d="M362.586 0H0V61.463H362.586V0Z" fill="white"/>
</mask>
<g mask="url(#mask1_629_382)">
<path d="M101.222 53.1568C103.601 53.1568 105.538 51.5567 105.538 49.5687C105.538 47.5807 103.601 45.9688 101.222 45.9688C98.8433 45.9688 96.9062 47.5807 96.9062 49.5687C96.9062 51.5567 98.8563 53.1568 101.222 53.1568ZM101.222 52.4288C100.841 52.4508 100.459 52.392 100.102 52.2561C99.7452 52.1201 99.421 51.9102 99.1509 51.6401C98.8808 51.37 98.6709 51.0458 98.5349 50.6888C98.399 50.3318 98.3402 49.9501 98.3622 49.5687C98.3413 49.1877 98.4009 48.8064 98.5372 48.45C98.6735 48.0935 98.8835 47.7697 99.1534 47.4999C99.4232 47.23 99.747 47.02 100.103 46.8837C100.46 46.7474 100.841 46.6878 101.222 46.7087C101.601 46.6895 101.98 46.7506 102.333 46.888C102.687 47.0255 103.008 47.2362 103.274 47.5063C103.54 47.7764 103.747 48.0998 103.879 48.4552C104.012 48.8107 104.068 49.1902 104.043 49.5687C104.069 49.9476 104.013 50.3275 103.881 50.6834C103.749 51.0393 103.543 51.3631 103.276 51.6334C103.01 51.9037 102.689 52.1143 102.335 52.2514C101.98 52.3885 101.601 52.449 101.222 52.4288ZM107.839 52.9227H109.192V50.0367H112.065V49.2308H109.192V47.0227H113.898V46.2168H107.839V52.9227ZM120.176 52.9227H121.528V51.0118L123.101 49.5427L125.714 52.9227H127.365L124.065 48.6458L126.892 46.2147H125.48L121.528 49.9067V46.2147H120.176V52.9227ZM137.141 52.9227L133.449 46.2147H132.214L128.509 52.9227H129.592L130.502 51.1677H134.662L135.62 52.9227H137.141ZM134.268 50.4397H130.862L132.539 47.2547L134.268 50.4397ZM138.935 52.9227H144.356V52.1038H140.292V46.2147H138.935V52.9227ZM146.124 52.9227H147.476V46.2147H146.124V52.9227ZM153.482 53.1308C155.029 53.1308 156.966 52.5308 156.966 50.9078C156.966 49.2078 155.107 48.8408 153.638 48.8018C152.78 48.7498 151.246 48.7237 151.246 47.8787C151.246 46.9687 152.446 46.7867 153.287 46.7867C154.271 46.7852 155.237 47.0454 156.087 47.5408L156.568 46.8408C155.553 46.2603 154.396 45.9723 153.227 46.0087C151.732 46.0087 150.055 46.5677 150.055 48.1147C150.055 49.6227 151.955 49.9348 153.474 49.9608C154.462 49.9868 155.723 50.1428 155.723 51.0788C155.723 51.9888 154.67 52.3397 153.423 52.3397C152.253 52.3352 151.117 51.9489 150.186 51.2397L149.647 51.9227C150.765 52.7221 152.108 53.1452 153.482 53.1308ZM159.241 52.9227H160.592V50.1228H163.292C164.026 50.1729 164.755 49.9602 165.346 49.5227C165.543 49.3611 165.703 49.159 165.815 48.9303C165.927 48.7015 165.989 48.4514 165.996 48.1968C165.994 47.9607 165.945 47.7274 165.851 47.5108C165.758 47.2942 165.621 47.0986 165.45 46.9358C164.826 46.3637 164.202 46.2077 162.681 46.2077H159.241V52.9227ZM160.592 49.3607V47.0078H162.842C163.791 47.0078 164.597 47.2157 164.597 48.2077C164.597 48.9487 164.012 49.3647 163.197 49.3647L160.592 49.3607ZM167.808 52.9227H174.178V52.1038H169.16V49.8547H171.86V49.0617H169.16V47.0227H173.905V46.2168H167.805L167.808 52.9227ZM176.208 52.9227H181.629V52.1038H177.558V46.2147H176.206L176.208 52.9227ZM183.392 52.9227H188.813V52.1038H184.747V46.2147H183.392V52.9227Z" fill="#1F120E"/>
</g>
</g>
<defs>
<clipPath id="clip0_629_382">
<rect width="341" height="61" fill="white"/>
</clipPath>
</defs>
</svg>
