<?xml version="1.0" encoding="UTF-8" standalone="no"?>
<svg viewBox="0 0 266 75" version="1.1" xmlns="http://www.w3.org/2000/svg" xmlns:xlink="http://www.w3.org/1999/xlink">
    <title>Freedom Bank</title>
    <desc>530 9th St. West | PO Box 2076 | Columbia Falls, MT 59912</desc>
    <defs>
        <polygon id="path-1" points="131.955516 8.70931677 0 8.70931677 0 0.307729193 263.911033 0.307729193 263.911033 8.70931677 131.955516 8.70931677"></polygon>
        <polygon id="path-3" points="93.7511217 28.0484708 93.7511217 0.334844199 0.15000087 0.334844199 0.15000087 28.0484708"></polygon>
    </defs>
    <g id="Home" stroke="none" stroke-width="1" fill="none" fill-rule="evenodd">
        <g id="Home-Desktop" transform="translate(-139.000000, -2235.000000)">
            <g id="Group-20" transform="translate(0.000000, 2169.000000)">
                <g id="Page-1" transform="translate(139.000000, 66.000000)">
                    <path d="M190.670419,23.0969339 L187.598697,21.15824 L184.528132,23.0969339 L185.415763,19.564435 L182.630858,17.2309187 L186.249615,16.9864772 L187.598697,13.6061011 L188.948937,16.9864772 L192.56885,17.2309187 L189.782789,19.564435 L190.670419,23.0969339 Z M194.619363,6.73677265 C182.986489,-2.19840574 150.616023,0.220461839 142.525576,0.522965441 C146.465267,1.0304283 149.079584,2.96273538 149.617945,6.0260924 C152.524863,5.63765687 157.256771,5.29160668 157.449332,5.27767178 C160.348154,5.03729463 169.488723,4.65640718 171.850341,8.75385041 C172.643715,8.92223053 173.688632,9.21892793 174.772871,9.65903873 L175.562776,6.52310407 L173.056593,4.42299749 L176.311623,4.20352271 L177.527128,1.15990681 L178.742632,4.20352271 L182.000554,4.42299749 L179.492637,6.52310407 L180.290637,9.70142407 L177.527128,7.95723824 L174.807567,9.67297364 C177.450797,10.7511871 180.317815,12.6829135 180.368123,15.7137558 L180.368123,15.7346581 C180.368123,15.7712372 180.366967,15.8072358 180.362919,15.8438149 C180.049502,19.5853374 177.32358,23.1578991 177.20735,23.30828 C176.860971,23.7576807 176.26305,23.9498663 175.733363,23.7501326 C175.229119,23.5591083 174.895463,23.095192 174.895463,22.56044 C174.895463,22.5348926 174.897197,22.5087647 174.898354,22.4826367 C174.898354,22.4826367 174.907606,22.3374815 174.913967,22.2405177 C172.412989,22.2730325 168.486597,22.4570894 164.558471,22.7677217 L165.893676,26.1115187 L169.512432,26.3553796 L166.727528,28.6894765 L167.615158,32.2219754 L164.543437,30.2827008 L161.471715,32.2219754 L162.359345,28.6894765 L159.573284,26.3553796 L163.194354,26.1115187 L164.527823,22.7700442 C159.912145,23.1358355 155.300515,23.677555 153.001928,24.3563011 C153.001928,24.3563011 151.187345,25.1291078 151.050297,25.1877505 C146.918623,27.4411411 140.836476,31.0833774 137.612671,33.0331031 L185.019654,33.0331031 C195.679893,22.3165791 201.729658,12.1980949 194.619363,6.73677265 L194.619363,6.73677265 Z" id="Fill-1" fill="#00247D"></path>
                    <path d="M167.396402,11.6138159 C167.402763,11.5801398 166.383867,10.9995187 165.341841,11.0111311 C164.698237,10.7022407 163.489672,10.4374775 162.250459,10.8270742 C161.145402,11.1754469 151.883976,12.3738489 151.883976,12.3738489 C151.883976,12.3738489 159.085637,12.6711269 160.935493,12.848797 C160.926241,12.7802837 160.925085,12.7071254 160.940698,12.6304834 C161.014137,12.2490154 161.595867,11.8617411 161.985615,11.7972921 C162.19032,11.7630355 162.766846,11.7862603 163.213841,11.9290931 C163.663728,12.0719259 164.314272,12.6002911 164.183007,13.2093627 C164.017624,13.9839113 163.283233,14.6115627 162.511254,14.6115627 C161.77455,14.6115627 161.290546,14.0373284 161.379598,13.3121326 C161.255272,13.290069 161.151763,13.2314263 161.074276,13.1495587 C161.070228,13.1698804 160.93665,14.6522062 162.038237,14.8827127 C162.33315,15.3065662 163.283233,15.2775351 164.122867,14.8507786 C165.465011,14.1662263 165.796933,13.0409826 165.955376,12.2275324 C165.969833,12.1566966 165.977928,12.0887639 165.986024,12.0225731 C166.022454,11.9662529 166.772459,11.803679 167.396402,11.6138159" id="Fill-3" fill="#253374"></path>
                    <path d="M166.13244,19.828966 C165.1413,19.6698758 162.08924,19.6733595 162.08924,19.6733595 C162.08924,19.6733595 165.431009,18.3878644 168.101418,18.3478015 C175.114566,18.244451 176.728492,18.5185041 177.062727,18.9940328 C177.268587,19.2884077 177.228109,19.7494209 177.1379,20.2156597 C177.107253,20.3573312 178.722913,16.5995513 177.911035,15.2385754 C175.61534,11.3867349 171.709766,11.6137578 170.120705,11.3234472 C169.481148,10.2469757 171.358761,6.44622984 148.226013,7.81939878 C148.2104,7.52328201 157.556831,6.56874089 157.556831,6.56874089 C163.174635,6.10192152 170.003896,6.71041245 171.022792,9.91427978 C173.704187,10.323037 179.023031,12.3499854 179.077966,15.7350065 C178.792305,19.1386075 176.188396,22.5149193 176.188396,22.5149193 C176.2069,21.74908 176.374596,20.6580929 176.252583,19.8812219 C174.367453,19.7029712 170.010257,19.7180674 168.742709,19.8812219 L166.13244,19.828966 Z" id="Fill-5" fill="#00247D"></path>
                    <path d="M163.220607,12.4578067 C163.071416,12.4578067 162.925694,12.5118045 162.798477,12.5994783 C162.896781,12.6424442 162.950559,12.7486979 162.925694,12.8746927 C162.89389,13.0401697 162.741807,13.1737125 162.58452,13.1737125 C162.53479,13.1737125 162.495468,13.1562939 162.459037,13.1330691 C162.416824,13.4646037 162.635985,13.7282057 162.971377,13.7282057 C163.321803,13.7282057 163.659507,13.4437014 163.727742,13.0930062 C163.797133,12.7423111 163.569298,12.4578067 163.220607,12.4578067" id="Fill-7" fill="#00247D"></path>
                    <path d="M141.578731,5.83634542 C124.905736,6.08775436 92.7023878,16.1319191 65.6767878,33.0332192 L74.9335878,33.0332192 C102.082936,14.5050187 132.170427,9.17143312 142.151788,10.1596503 C131.716492,11.7290691 107.869014,18.878257 85.9957183,33.0332192 L93.6143052,33.0332192 C114.283662,18.23609 134.944923,14.6699151 140.552318,14.4661171 C132.002731,17.4052212 117.061627,22.2719874 101.927962,33.0332192 L106.027831,33.0332192 C122.272914,20.599218 138.262983,18.686652 138.280331,18.6808458 C135.221331,22.6604229 124.306079,31.4916701 121.862349,33.4489439 L122.760966,33.4251385 C142.838762,20.989976 146.801005,9.18710989 147.017275,7.71465473 C147.577031,3.92261821 142.309075,2.14533697 138.441088,1.87360629 C110.23757,-0.102828 70.6041487,13.0238542 40.2442965,33.0332192 L52.2461009,33.0332192 C88.7008226,8.52229871 134.931623,2.65105796 141.578731,5.83634542" id="Fill-9" fill="#B8122B"></path>
                    <g id="Group-13" transform="translate(0.000000, 66.180356)">
                        <mask id="mask-2" fill="white">
                            <use xlink:href="#path-1"></use>
                        </mask>
                        <g id="Clip-12"></g>
                        <path d="M263.911033,8.69422062 L261.957667,4.9765036 L78.98205,4.9765036 C79.5527935,3.37398932 80.1507152,1.81560224 80.7763935,0.307729193 L71.5149674,0.307729193 C70.6412152,1.81792472 69.79175,3.37689242 68.9619457,4.9765036 L60.8414283,4.9765036 C61.6712326,3.37863429 62.5235891,1.8202472 63.3979196,0.307729193 L52.0281543,0.307729193 C51.1110326,1.82895652 50.2482674,3.3873436 49.4311848,4.9765036 L39.5354065,4.9765036 C40.4259283,3.38385988 41.345363,1.82605342 42.2977587,0.307729193 L29.34645,0.307729193 C28.3587804,1.84114957 27.4491761,3.39895602 26.60665,4.9765036 L16.7976109,4.9765036 C17.6251022,3.3873436 18.49365,1.82895652 19.4061457,0.307729193 L4.70733261,0.307729193 C2.88812391,3.0767113 1.30368913,5.88053068 -0.000289130435,8.70931677 C5.05197609,8.70931677 263.911033,8.69422062 263.911033,8.69422062" id="Fill-11" fill="#B71F2C" mask="url(#mask-2)"></path>
                    </g>
                    <path d="M15.0429361,35.78037 L30.2986143,35.78037 L29.0634491,40.2267665 L18.8825883,40.2267665 L16.9870491,47.0502259 L26.4815143,47.0502259 L25.2024013,51.6493257 L15.7090926,51.6493257 L12.4303535,63.4562562 L7.35553609,63.4562562 L15.0429361,35.78037 Z M32.9615057,35.7426296 L42.0303709,35.7426296 C44.6603013,35.7043086 47.3110491,35.7043086 48.6774796,37.6209389 C49.7351187,39.1154577 49.7599839,41.147051 49.2603665,42.9481377 C47.82281,48.1232137 43.6847752,49.3500661 42.4311057,49.733276 C45.8937317,50.1159054 45.49531,52.4923876 44.921097,56.0963029 C44.375797,59.354168 44.1988491,60.6959834 44.1502752,61.4624033 C44.0704752,62.6892557 44.1820796,62.9958236 44.3156578,63.4562562 L38.7180926,63.4562562 C38.9152796,61.9228358 40.1435057,54.9083521 40.1134361,53.8347836 C40.0926187,52.2624616 38.8482013,52.2624616 37.9975796,52.2624616 L33.5449709,52.2624616 L30.4356622,63.4562562 L25.2631187,63.4562562 L32.9615057,35.7426296 Z M34.6055013,47.8543861 L38.6978535,47.8543861 C39.2871013,47.8543861 40.4661752,47.8543861 41.4966361,47.0885469 C41.9424752,46.7813983 43.1585578,45.8233734 43.7009665,43.8684221 C44.2225578,41.9901128 43.6818839,41.10873 43.3193143,40.763841 C42.7144535,40.1118035 41.7655274,40.1118035 40.16201,40.1118035 L36.75721,40.1118035 L34.6055013,47.8543861 Z M54.6006057,35.7426296 L70.4449535,35.7426296 L69.1889709,40.2656681 L58.4182839,40.2656681 L56.58751,46.8580403 L66.6706448,46.8580403 L65.4146622,51.3810788 L55.3309491,51.3810788 L53.2544143,58.8559951 L64.3853578,58.8559951 L63.1074013,63.4562562 L46.9022187,63.4562562 L54.6006057,35.7426296 Z M74.6038057,35.7426296 L90.4481535,35.7426296 L89.1921709,40.2656681 L78.4209057,40.2656681 L76.5901317,46.8580403 L86.67211,46.8580403 L85.4161274,51.3810788 L75.3324143,51.3810788 L73.2570361,58.8559951 L84.386823,58.8559951 L83.110023,63.4562562 L66.9048404,63.4562562 L74.6038057,35.7426296 Z M93.6343709,35.818691 L101.447832,35.857012 C102.757593,35.857012 106.741232,35.8953329 108.907975,38.3490378 C111.173601,40.9165444 111.007062,45.2868795 109.91068,49.2339419 C107.546171,57.7441056 102.415262,62.1916634 97.6642709,63.148527 C96.7280665,63.3407126 95.7132187,63.4562562 93.3232665,63.4562562 L85.9585361,63.4562562 L93.6343709,35.818691 Z M92.3650883,58.8937354 C92.9103883,58.932637 93.7506013,58.970958 94.3398491,58.970958 C96.5013883,58.970958 98.4200578,58.7787724 100.372845,57.0549083 C103.019545,54.7155859 104.300393,50.5769185 104.673371,49.2339419 C105.758767,45.3246199 105.61478,41.7218659 102.725788,40.6866184 C101.774549,40.3423101 100.484449,40.1501245 97.5289578,40.3034085 L92.3650883,58.8937354 Z M126.749058,35.1672341 C129.270275,35.1672341 132.547858,35.857012 134.020688,38.9238527 C135.603967,42.2966808 134.892127,46.6281143 134.136919,49.3500661 C133.018562,53.3743511 130.778958,57.6680442 128.14498,60.1978105 C124.56728,63.6472805 120.597519,64.1454534 118.634323,64.1454534 C115.523858,64.1454534 112.733749,62.9958236 111.307758,60.3510944 C109.615767,57.1303891 110.565849,52.5318698 111.269593,50.001523 C113.313167,42.6421503 118.237636,35.1672341 126.749058,35.1672341 L126.749058,35.1672341 Z M116.242058,57.5530813 C116.643371,58.7032917 117.556445,59.7751183 119.913436,59.7751183 C121.975514,59.7751183 123.618353,58.932637 125.04608,57.2076117 C126.215323,55.8280559 127.630327,53.6814997 128.854506,49.2728435 C129.226906,47.9316087 129.66118,46.015559 129.638627,44.3276934 C129.60451,40.9165444 128.02181,39.4220256 125.600053,39.4220256 C123.702201,39.4220256 121.939084,40.3423101 120.596362,41.7607675 C118.722797,43.6768172 117.49804,46.6670159 116.625445,49.809918 C115.890475,52.4546472 115.430758,55.4071056 116.242058,57.5530813 L116.242058,57.5530813 Z M139.32334,35.7426296 L147.606927,35.7426296 L147.015945,55.9052785 L158.017936,35.7426296 L166.070797,35.7426296 L158.373567,63.4562562 L153.331132,63.4562562 L159.932558,39.6902726 L146.881788,63.4562562 L142.69171,63.4562562 L142.975058,39.6902726 L136.372475,63.4562562 L131.62611,63.4562562 L139.32334,35.7426296 Z" id="Fill-14" fill="#00247D"></path>
                    <g id="Group-18" transform="translate(171.743478, 35.407437)">
                        <mask id="mask-4" fill="white">
                            <use xlink:href="#path-3"></use>
                        </mask>
                        <g id="Clip-17"></g>
                        <path d="M74.8063704,0.411486186 L79.8800313,0.411486186 L76.5694878,12.3322184 L87.8253357,0.334844199 L93.751353,0.334844199 L81.6252226,12.7543299 L86.8052835,28.0484708 L80.4860487,28.0484708 L76.1230704,13.9422807 L72.2036183,28.0484708 L67.1299574,28.0484708 L74.8063704,0.411486186 Z M7.83682261,0.373165193 L16.6761183,0.373165193 C18.0512226,0.373165193 20.7019704,0.373165193 22.1406835,1.6766596 C23.855227,3.28614134 23.6007922,5.96977215 23.1537965,7.57925389 C22.8669791,8.61450134 22.2008226,10.415588 20.6273748,11.7190825 C20.4006965,11.9490084 18.9151443,13.1758608 17.4220748,13.5973918 L17.4012574,13.6740338 C20.7887096,14.439873 21.3449965,17.5072944 20.5360096,20.4208512 C19.6298748,23.6787162 17.3868009,25.8624323 15.2559096,26.937162 C13.1122965,28.0484708 9.90526174,28.0484708 8.98929652,28.0484708 L0.15000087,28.0484708 L7.83682261,0.373165193 Z M6.23041391,23.600913 L9.66817478,23.600913 C11.991627,23.600913 14.6111487,23.600913 15.6439226,19.8843572 C16.7385704,15.935553 13.6946052,15.935553 11.2728487,15.935553 L8.35841391,15.935553 L6.23041391,23.600913 Z M9.55136609,11.6430211 L13.0874313,11.6430211 C14.5273009,11.6430211 17.1468226,11.6430211 18.1379617,8.07800743 C19.0949835,4.62795675 16.6073052,4.62795675 14.9372878,4.62795675 L11.499527,4.62795675 L9.55136609,11.6430211 Z M40.8798052,0.334844199 L41.3985052,28.0484708 L36.290727,28.0484708 L36.2502487,22.0686539 L26.887627,22.0686539 L23.4579617,28.0484708 L18.6121357,28.0484708 L34.85664,0.334844199 L40.8798052,0.334844199 Z M36.2190226,17.5839364 L36.2253835,5.77758656 L29.4418052,17.5839364 L36.2190226,17.5839364 Z M50.8305183,0.334844199 L58.1646009,0.334844199 L60.9784183,22.1458765 L67.0368574,0.334844199 L71.7502617,0.334844199 L64.0530313,28.0484708 L57.0792052,28.0484708 L54.30124,5.04890706 L47.9120357,28.0484708 L43.1332878,28.0484708 L50.8305183,0.334844199 Z" id="Fill-16" fill="#B8122B" mask="url(#mask-4)"></path>
                    </g>
                    <path d="M175.00192,20.9435263 C174.959707,20.875013 174.901881,20.832047 174.816877,20.8314664 C174.217799,20.8256602 162.887355,20.6032823 155.718655,21.4922132 C155.601847,21.5061481 155.483881,21.5206637 155.369964,21.5351792 C154.172964,21.7366547 153.129203,21.9578714 152.313855,22.1976679 C150.901742,22.6151345 147.974007,24.21881 144.753673,26.0872488 C140.656694,28.6112088 136.02656,31.6455347 133.619838,33.0285742 L134.808164,33.0285742 C138.729929,30.9255645 149.613955,24.0092058 152.587951,23.1301454 C157.222712,21.759299 169.92132,21.0027496 175.00192,20.9435263" id="Fill-19" fill="#00247D"></path>
                </g>
            </g>
        </g>
    </g>
</svg>
