<?xml version="1.0" encoding="UTF-8"?>
<!DOCTYPE svg PUBLIC "-//W3C//DTD SVG 1.1//EN" "http://www.w3.org/Graphics/SVG/1.1/DTD/svg11.dtd">
<svg version="1.1" xmlns="http://www.w3.org/2000/svg" xmlns:xlink="http://www.w3.org/1999/xlink" x="0" y="0" width="124" height="70.292" viewBox="0, 0, 124, 70.292">
  <defs>
    <clipPath id="Clip_1">
      <path d="M-0,0.575 L124,0.575 L124,70.867 L-0,70.867 z"/>
    </clipPath>
  </defs>
  <g id="Layer_1" transform="translate(0, -0.575)">
    <g clip-path="url(#Clip_1)">
      <path d="M17.583,0.575 L17.583,53.148 C16.481,52.106 15.418,50.983 14.431,49.85 L14.512,22.091 C14.09,21.468 13.442,20.587 12.882,20.29 L12.882,6.035 C12.88,5.82 13.306,5.489 13.512,5.242 C14.684,3.777 16.232,2.138 17.583,0.575 z M18.513,0.585 L23.44,0.585 L23.44,58.924 C22.352,57.969 21.127,56.76 19.894,55.54 L19.894,21.832 C19.572,21.326 19.009,20.733 18.513,20.287 L18.513,0.585 z M30.17,0.585 L35.182,0.585 L35.182,70.904 C33.879,69.822 32.804,68.944 31.636,67.52 L31.636,21.75 C31.38,21.484 30.165,20.312 30.17,20.02 L30.17,0.585 z M24.384,0.671 L29.25,0.671 L29.25,64.957 C28.059,63.917 26.834,62.623 25.763,61.573 L25.763,21.723 C25.761,21.507 24.879,20.733 24.384,20.287 L24.384,0.671 z M11.882,6.954 L11.882,20.384 L6.853,20.384 L6.853,12.668 C8.323,10.845 10.119,8.861 11.882,6.954 z M5.828,13.763 L5.828,20.379 L-0,20.379 L5.828,13.763" fill="#8D0B3D"/>
    </g>
    <path d="M43.229,9.929 C43.229,8.433 43.326,8 41.662,8 C41.421,8 41.034,7.975 41.034,7.662 C41.034,7.421 41.227,7.348 41.443,7.348 C42.216,7.348 42.94,7.445 43.712,7.445 C46.462,7.445 49.212,7.348 51.986,7.348 C52.468,7.348 52.372,7.831 52.372,8.193 L52.372,9.881 C52.372,10.074 52.492,10.822 52.13,10.822 C51.889,10.822 51.793,10.484 51.744,10.315 C51.093,8.023 49.646,8 47.499,8 C47.089,8 45.835,8 45.448,8.169 C45.087,8.337 45.135,9.013 45.135,9.326 L45.135,12.752 C45.135,13.886 45.352,13.886 46.341,13.886 C47.065,13.886 48.319,13.909 49.26,13.789 C49.863,13.716 49.983,12.824 50.104,12.124 C50.128,11.98 50.201,11.714 50.418,11.714 C50.538,11.714 50.682,11.763 50.682,11.955 C50.658,12.631 50.611,13.354 50.562,14.03 C50.611,14.802 50.658,15.526 50.682,16.297 C50.682,16.684 50.538,16.732 50.418,16.732 C50.201,16.732 50.128,16.466 50.104,16.322 C49.983,15.622 49.79,14.898 49.26,14.778 C48.319,14.561 47.065,14.561 46.341,14.561 C45.376,14.561 45.135,14.561 45.135,15.381 L45.135,19.868 C45.135,21.411 45.039,21.846 46.703,21.87 C46.92,21.87 47.33,21.846 47.33,22.159 C47.33,22.425 47.138,22.473 46.92,22.473 C46.003,22.473 45.135,22.377 44.218,22.377 C43.302,22.377 42.385,22.473 41.468,22.473 C41.252,22.473 41.059,22.425 41.059,22.159 C41.059,21.846 41.443,21.87 41.662,21.87 C43.35,21.87 43.229,21.388 43.229,19.868 L43.229,9.929" fill="#1A1919"/>
    <path d="M53.969,8.217 C53.969,7.589 54.403,7.011 55.054,7.011 C55.681,7.011 56.068,7.589 56.068,8.169 C56.068,8.819 55.706,9.374 55.006,9.374 C54.354,9.374 53.969,8.844 53.969,8.217 z M55.851,19.916 C55.851,20.953 55.634,21.773 56.935,21.894 C57.177,21.918 57.612,21.894 57.612,22.208 C57.612,22.4 57.49,22.473 57.322,22.473 C56.549,22.473 55.778,22.377 55.054,22.377 C54.283,22.377 53.511,22.473 52.763,22.473 C52.593,22.473 52.424,22.425 52.424,22.232 C52.424,21.87 52.835,21.918 53.101,21.894 C54.403,21.773 54.185,20.953 54.185,19.916 L54.185,15.381 C54.185,15.043 54.21,14.102 53.945,13.838 C53.8,13.668 53.438,13.645 53.246,13.645 L52.932,13.645 C52.787,13.645 52.642,13.596 52.642,13.451 C52.642,13.162 52.98,13.113 53.197,13.041 C53.776,12.872 54.813,12.245 55.198,11.787 C55.32,11.666 55.44,11.473 55.634,11.473 C55.875,11.473 55.851,11.69 55.851,11.859 L55.851,19.916" fill="#1A1919"/>
    <path d="M59.662,15.381 C59.662,15.043 59.685,14.102 59.42,13.838 C59.276,13.668 58.913,13.645 58.72,13.645 L58.406,13.645 C58.262,13.645 58.117,13.596 58.117,13.451 C58.117,13.162 58.455,13.113 58.672,13.041 C59.251,12.872 60.288,12.245 60.674,11.787 C60.795,11.666 60.915,11.473 61.109,11.473 C61.349,11.473 61.326,11.69 61.326,11.859 L61.326,13.041 C61.326,13.138 61.278,13.548 61.446,13.548 C61.688,13.548 62.628,11.618 64.293,11.618 C65.016,11.618 65.668,12.052 65.668,12.776 C65.668,13.378 65.234,13.741 64.655,13.741 C63.834,13.741 63.785,12.824 63.11,12.824 C62.581,12.824 62.171,13.331 61.881,13.693 C61.301,14.513 61.326,15.14 61.326,16.105 L61.326,19.916 C61.326,20.953 61.109,21.773 62.411,21.894 C62.652,21.918 63.086,21.894 63.086,22.208 C63.086,22.4 62.966,22.473 62.796,22.473 C62.026,22.473 61.253,22.377 60.53,22.377 C59.757,22.377 58.986,22.473 58.238,22.473 C58.069,22.473 57.9,22.425 57.9,22.232 C57.9,21.87 58.31,21.918 58.576,21.894 C59.878,21.773 59.662,20.953 59.662,19.916 L59.662,15.381" fill="#1A1919"/>
    <path d="M65.438,19.458 C65.461,19.264 65.486,18.927 65.751,18.927 C66.62,18.927 65.631,22.232 68.912,22.232 C70.334,22.232 71.855,21.411 71.855,19.868 C71.855,18.468 70.697,17.938 69.539,17.552 C68.044,17.07 65.847,16.466 65.847,14.513 C65.847,13.572 66.354,12.824 67.127,12.269 C67.97,11.666 68.959,11.473 69.973,11.473 C70.6,11.473 71.878,11.642 72.458,11.883 C72.868,12.077 72.723,12.607 72.723,12.969 C72.723,13.113 72.892,14.151 72.481,14.151 C71.878,14.151 72.144,11.883 69.539,11.883 C68.549,11.883 67.32,12.558 67.32,13.668 C67.32,16.491 73.35,15.212 73.35,19.144 C73.35,21.46 70.817,22.666 68.767,22.666 C67.924,22.666 66.498,22.352 65.703,21.942 C65.317,21.773 65.366,21.46 65.366,21.074 L65.438,19.458" fill="#1A1919"/>
    <path d="M76.895,18.927 C76.895,19.964 76.87,21.749 78.318,21.749 C79.211,21.749 79.863,20.905 80.054,20.905 C80.151,20.905 80.223,21.002 80.223,21.074 C80.223,21.314 79.909,21.628 79.74,21.749 C79.139,22.303 78.342,22.666 77.498,22.666 C76.846,22.666 76.172,22.425 75.762,21.918 C75.134,21.122 75.23,19.892 75.23,18.927 L75.23,12.728 C75.23,12.221 75.086,12.293 74.626,12.293 C74.506,12.293 73.879,12.39 73.879,12.101 C73.879,11.932 74.048,11.835 74.17,11.739 C75.206,11.063 75.906,10.46 76.461,9.302 C76.509,9.206 76.581,9.085 76.701,9.085 C76.87,9.085 76.895,9.23 76.895,9.374 L76.895,11.088 C76.895,11.401 76.944,11.546 77.281,11.569 L79.669,11.569 C79.887,11.569 79.887,11.714 79.887,11.907 C79.887,12.414 79.694,12.293 79.139,12.293 L77.787,12.293 C77.232,12.293 76.895,12.149 76.895,12.824 L76.895,18.927" fill="#1A1919"/>
    <path d="M50.104,39.34 L55.074,27.954 C55.218,27.641 55.46,27.641 55.725,27.641 L58.402,27.641 C58.668,27.641 59.102,27.519 59.102,27.906 C59.102,28.243 58.763,28.292 58.523,28.292 C58.209,28.292 57.679,28.219 57.461,28.485 C57.172,28.823 57.268,29.763 57.268,30.197 L57.268,40.16 C57.268,40.545 57.244,41.51 57.534,41.848 C57.775,42.137 58.136,42.161 58.474,42.161 C58.716,42.161 59.222,42.113 59.222,42.476 C59.222,42.741 58.957,42.765 58.763,42.765 C57.992,42.765 57.221,42.669 56.448,42.669 C55.484,42.669 54.518,42.765 53.577,42.765 C53.385,42.765 53.12,42.741 53.12,42.476 C53.12,42.113 53.626,42.161 53.867,42.161 C54.229,42.161 54.736,42.042 55.001,41.823 C55.411,41.486 55.363,40.594 55.363,40.16 L55.363,29.232 L55.194,29.232 L49.838,41.776 C49.767,41.945 49.694,42.21 49.477,42.21 C49.235,42.21 49.164,41.921 49.115,41.752 L44.362,29.522 L44.195,29.522 L43.495,39.46 C43.398,40.932 43.374,42.161 45.087,42.161 C45.329,42.161 45.835,42.137 45.835,42.476 C45.835,42.765 45.521,42.765 45.304,42.765 C44.58,42.765 43.857,42.669 43.133,42.669 C42.41,42.669 41.685,42.765 40.985,42.765 C40.769,42.765 40.6,42.716 40.6,42.476 C40.6,42.187 41.01,42.161 41.227,42.161 C42.578,42.161 42.65,41.535 42.723,40.354 L43.471,29.667 C43.568,28.437 43.471,28.292 42.168,28.292 C41.926,28.292 41.588,28.243 41.588,27.906 C41.588,27.519 42.022,27.641 42.288,27.641 L45.087,27.641 C45.545,27.641 45.569,27.954 45.713,28.34 L50.104,39.34" fill="#1A1919"/>
    <path d="M69.334,37.435 C69.334,34.998 67.959,32.224 65.162,32.224 C62.508,32.224 61.012,34.684 61.012,37.144 C61.012,39.532 62.532,42.5 65.259,42.5 C67.863,42.5 69.334,39.726 69.334,37.435 z M59.203,37.265 C59.203,35.818 59.807,34.37 60.844,33.381 C62.001,32.248 63.569,31.766 65.185,31.766 C66.681,31.766 68.128,32.176 69.285,33.165 C70.468,34.154 71.168,35.722 71.168,37.265 C71.168,40.57 68.418,42.958 65.185,42.958 C61.929,42.958 59.203,40.57 59.203,37.265" fill="#1A1919"/>
    <path d="M73.172,35.673 C73.172,35.335 73.196,34.394 72.931,34.129 C72.787,33.961 72.424,33.937 72.231,33.937 L71.918,33.937 C71.773,33.937 71.628,33.888 71.628,33.743 C71.628,33.454 71.966,33.405 72.184,33.333 C72.762,33.165 73.799,32.537 74.185,32.079 C74.306,31.958 74.426,31.766 74.62,31.766 C74.86,31.766 74.837,31.982 74.837,32.151 L74.837,33.743 C75.247,33.743 76.598,31.766 78.793,31.766 C79.999,31.766 80.963,32.2 81.639,33.068 C82.411,34.057 82.362,35.239 82.362,36.397 L82.362,40.208 C82.362,41.245 82.146,42.065 83.448,42.187 C83.69,42.21 84.124,42.187 84.124,42.5 C84.124,42.693 84.003,42.765 83.834,42.765 C83.062,42.765 82.29,42.669 81.567,42.669 C80.795,42.669 80.022,42.765 79.275,42.765 C79.107,42.765 78.938,42.716 78.938,42.524 C78.938,42.161 79.348,42.21 79.612,42.187 C80.915,42.065 80.699,41.245 80.699,40.208 L80.699,36.373 C80.699,35.601 80.699,34.637 80.265,33.985 C79.806,33.285 78.938,32.899 77.996,32.899 C77.08,32.899 76.235,33.285 75.609,33.937 C74.909,34.66 74.837,35.191 74.837,36.155 L74.837,40.208 C74.837,41.245 74.62,42.065 75.923,42.187 C76.163,42.21 76.598,42.187 76.598,42.5 C76.598,42.693 76.478,42.765 76.309,42.765 C75.537,42.765 74.764,42.669 74.04,42.669 C73.269,42.669 72.498,42.765 71.749,42.765 C71.58,42.765 71.411,42.716 71.411,42.524 C71.411,42.161 71.821,42.21 72.087,42.187 C73.39,42.065 73.172,41.245 73.172,40.208 L73.172,35.673" fill="#1A1919"/>
    <path d="M86.731,39.219 C86.731,40.257 86.707,42.042 88.154,42.042 C89.046,42.042 89.699,41.196 89.892,41.196 C89.989,41.196 90.06,41.294 90.06,41.366 C90.06,41.608 89.746,41.921 89.578,42.042 C88.974,42.596 88.179,42.958 87.335,42.958 C86.684,42.958 86.008,42.716 85.598,42.21 C84.971,41.414 85.067,40.183 85.067,39.219 L85.067,33.019 C85.067,32.513 84.921,32.585 84.463,32.585 C84.343,32.585 83.716,32.682 83.716,32.392 C83.716,32.224 83.885,32.127 84.007,32.03 C85.043,31.355 85.743,30.752 86.298,29.594 C86.345,29.497 86.418,29.377 86.538,29.377 C86.707,29.377 86.731,29.522 86.731,29.667 L86.731,31.379 C86.731,31.693 86.78,31.838 87.118,31.862 L89.506,31.862 C89.722,31.862 89.722,32.007 89.722,32.2 C89.722,32.706 89.53,32.585 88.974,32.585 L87.624,32.585 C87.07,32.585 86.731,32.441 86.731,33.116 L86.731,39.219" fill="#1A1919"/>
    <path d="M94.112,38.157 C93.172,38.641 92.231,39.268 92.231,40.426 C92.231,41.366 93.003,41.848 93.895,41.848 C94.739,41.848 95.559,41.463 96.139,40.883 C96.718,40.281 96.743,39.871 96.743,39.074 L96.743,37.627 C96.743,37.531 96.814,36.952 96.573,36.952 C96.5,36.952 96.38,37.024 96.307,37.049 L94.112,38.157 z M95.849,36.807 C96.718,36.397 96.743,36.373 96.743,35.455 L96.743,34.394 C96.743,33.213 96.694,32.224 95.198,32.224 C93.726,32.224 92.978,33.019 92.424,34.25 C92.255,34.612 92.135,34.95 91.748,35.118 C91.507,35.239 91.001,35.432 90.712,35.432 C90.518,35.432 90.398,35.384 90.398,35.143 C90.398,34.515 90.953,33.816 91.411,33.43 C92.544,32.416 94.185,31.766 95.729,31.766 C96.476,31.766 97.368,31.886 97.924,32.392 C98.503,32.875 98.406,33.502 98.406,34.154 L98.406,39.846 C98.406,40.377 98.382,41.776 99.249,41.776 C99.853,41.776 100.118,41.173 100.336,41.173 C100.432,41.173 100.505,41.269 100.505,41.366 C100.505,41.632 100.094,41.969 99.926,42.113 C99.443,42.451 98.84,42.813 98.213,42.813 C97.031,42.813 96.91,41.124 96.573,41.124 C96.356,41.124 94.788,42.958 92.688,42.958 C91.556,42.958 90.422,42.258 90.422,41.054 C90.422,39.34 92.665,38.327 93.992,37.676 L95.849,36.807" fill="#1A1919"/>
    <path d="M102.437,35.673 C102.437,35.335 102.462,34.394 102.196,34.129 C102.051,33.961 101.689,33.937 101.496,33.937 L101.182,33.937 C101.038,33.937 100.893,33.888 100.893,33.743 C100.893,33.454 101.231,33.405 101.448,33.333 C102.027,33.165 103.064,32.537 103.45,32.079 C103.57,31.958 103.691,31.766 103.884,31.766 C104.126,31.766 104.102,31.982 104.102,32.151 L104.102,33.743 C104.512,33.743 105.862,31.766 108.057,31.766 C109.264,31.766 110.229,32.2 110.904,33.068 C111.676,34.057 111.627,35.239 111.627,36.397 L111.627,40.208 C111.627,41.245 111.41,42.065 112.713,42.187 C112.954,42.21 113.387,42.187 113.387,42.5 C113.387,42.693 113.267,42.765 113.098,42.765 C112.327,42.765 111.556,42.669 110.832,42.669 C110.059,42.669 109.287,42.765 108.539,42.765 C108.371,42.765 108.201,42.716 108.201,42.524 C108.201,42.161 108.613,42.21 108.877,42.187 C110.179,42.065 109.964,41.245 109.964,40.208 L109.964,36.373 C109.964,35.601 109.964,34.637 109.529,33.985 C109.071,33.285 108.201,32.899 107.261,32.899 C106.345,32.899 105.5,33.285 104.873,33.937 C104.173,34.66 104.102,35.191 104.102,36.155 L104.102,40.208 C104.102,41.245 103.884,42.065 105.186,42.187 C105.428,42.21 105.862,42.187 105.862,42.5 C105.862,42.693 105.742,42.765 105.573,42.765 C104.801,42.765 104.028,42.669 103.305,42.669 C102.533,42.669 101.762,42.765 101.014,42.765 C100.845,42.765 100.676,42.716 100.676,42.524 C100.676,42.161 101.085,42.21 101.351,42.187 C102.654,42.065 102.437,41.245 102.437,40.208 L102.437,35.673" fill="#1A1919"/>
    <path d="M117.609,38.157 C116.667,38.641 115.727,39.268 115.727,40.426 C115.727,41.366 116.5,41.848 117.393,41.848 C118.236,41.848 119.056,41.463 119.635,40.883 C120.213,40.281 120.238,39.871 120.238,39.074 L120.238,37.627 C120.238,37.531 120.311,36.952 120.069,36.952 C119.998,36.952 119.877,37.024 119.804,37.049 L117.609,38.157 z M119.345,36.807 C120.213,36.397 120.238,36.373 120.238,35.455 L120.238,34.394 C120.238,33.213 120.191,32.224 118.695,32.224 C117.223,32.224 116.476,33.019 115.919,34.25 C115.752,34.612 115.629,34.95 115.245,35.118 C115.004,35.239 114.496,35.432 114.207,35.432 C114.015,35.432 113.893,35.384 113.893,35.143 C113.893,34.515 114.449,33.816 114.907,33.43 C116.042,32.416 117.682,31.766 119.224,31.766 C119.973,31.766 120.865,31.886 121.42,32.392 C121.999,32.875 121.903,33.502 121.903,34.154 L121.903,39.846 C121.903,40.377 121.879,41.776 122.746,41.776 C123.35,41.776 123.615,41.173 123.833,41.173 C123.929,41.173 124,41.269 124,41.366 C124,41.632 123.591,41.969 123.423,42.113 C122.94,42.451 122.337,42.813 121.709,42.813 C120.527,42.813 120.407,41.124 120.069,41.124 C119.852,41.124 118.284,42.958 116.186,42.958 C115.052,42.958 113.918,42.258 113.918,41.054 C113.918,39.34 116.162,38.327 117.488,37.676 L119.345,36.807" fill="#1A1919"/>
    <path d="M45.448,59.849 C45.448,60.621 45.399,61.732 46.147,62.19 C46.679,62.526 47.836,62.551 48.464,62.551 C49.623,62.551 50.682,62.406 51.575,61.585 C52.323,60.91 52.782,59.826 52.782,58.813 C52.782,57.412 52.155,56.23 50.924,55.556 C49.718,54.855 48.44,54.855 47.089,54.855 C45.665,54.855 45.448,54.639 45.448,55.966 L45.448,59.849 z M45.448,53.216 C45.448,54.325 45.569,54.373 46.63,54.373 L47.933,54.373 C48.97,54.373 50.057,54.276 50.876,53.506 C51.479,52.951 51.768,52.13 51.768,51.285 C51.768,48.873 49.767,48.004 47.668,48.004 C47.16,48.004 46.076,48.004 45.69,48.439 C45.399,48.753 45.448,49.404 45.448,49.815 L45.448,53.216 z M43.543,50.465 C43.543,49.501 43.712,48.439 42.457,48.439 C41.999,48.439 41.588,48.631 41.299,48.631 C41.154,48.631 41.034,48.559 41.034,48.415 C41.034,48.004 41.877,47.885 42.144,47.836 C43.495,47.595 45.521,47.546 46.92,47.546 C48.416,47.546 50.297,47.546 51.696,48.15 C52.926,48.68 53.964,49.741 53.964,51.165 C53.964,53.071 52.252,54.132 50.611,54.47 C52.782,54.735 54.929,56.304 54.929,58.739 C54.929,60.115 54.156,61.393 53.046,62.116 C51.841,62.961 50.587,63.057 49.164,63.057 C47.185,63.057 45.255,62.961 43.278,62.961 C42.795,62.961 42.265,63.057 41.758,63.057 C41.541,63.057 41.348,62.961 41.348,62.696 C41.348,62.382 41.733,62.455 41.951,62.455 C43.64,62.455 43.543,61.924 43.543,60.381 L43.543,50.465" fill="#1A1919"/>
    <path d="M59.442,58.45 C58.501,58.933 57.561,59.561 57.561,60.718 C57.561,61.658 58.332,62.141 59.225,62.141 C60.069,62.141 60.889,61.755 61.468,61.176 C62.047,60.574 62.071,60.162 62.071,59.367 L62.071,57.919 C62.071,57.823 62.143,57.243 61.902,57.243 C61.83,57.243 61.709,57.316 61.637,57.34 L59.442,58.45 z M61.178,57.099 C62.047,56.689 62.071,56.665 62.071,55.748 L62.071,54.687 C62.071,53.506 62.023,52.515 60.528,52.515 C59.055,52.515 58.309,53.312 57.752,54.542 C57.585,54.904 57.464,55.242 57.077,55.41 C56.837,55.532 56.33,55.725 56.04,55.725 C55.848,55.725 55.726,55.676 55.726,55.435 C55.726,54.808 56.282,54.108 56.74,53.722 C57.874,52.709 59.514,52.057 61.058,52.057 C61.806,52.057 62.699,52.179 63.253,52.684 C63.832,53.167 63.736,53.795 63.736,54.445 L63.736,60.139 C63.736,60.67 63.712,62.07 64.58,62.07 C65.184,62.07 65.448,61.465 65.665,61.465 C65.762,61.465 65.835,61.562 65.835,61.658 C65.835,61.924 65.424,62.261 65.255,62.406 C64.773,62.745 64.171,63.106 63.543,63.106 C62.36,63.106 62.24,61.418 61.902,61.418 C61.685,61.418 60.118,63.249 58.02,63.249 C56.885,63.249 55.751,62.551 55.751,61.345 C55.751,59.632 57.994,58.619 59.322,57.968 L61.178,57.099" fill="#1A1919"/>
    <path d="M67.384,55.966 C67.384,55.628 67.408,54.687 67.143,54.421 C66.998,54.253 66.636,54.229 66.442,54.229 L66.129,54.229 C65.985,54.229 65.84,54.18 65.84,54.035 C65.84,53.746 66.178,53.698 66.394,53.626 C66.974,53.457 68.012,52.83 68.396,52.371 C68.517,52.25 68.637,52.057 68.831,52.057 C69.073,52.057 69.048,52.274 69.048,52.444 L69.048,54.035 C69.459,54.035 70.81,52.057 73.004,52.057 C74.209,52.057 75.175,52.491 75.85,53.361 C76.623,54.349 76.574,55.532 76.574,56.689 L76.574,60.501 C76.574,61.538 76.357,62.359 77.66,62.479 C77.901,62.502 78.335,62.479 78.335,62.791 C78.335,62.985 78.215,63.057 78.045,63.057 C77.273,63.057 76.502,62.961 75.779,62.961 C75.006,62.961 74.234,63.057 73.486,63.057 C73.317,63.057 73.149,63.01 73.149,62.816 C73.149,62.455 73.559,62.502 73.824,62.479 C75.126,62.359 74.91,61.538 74.91,60.501 L74.91,56.665 C74.91,55.895 74.91,54.929 74.475,54.276 C74.017,53.577 73.149,53.191 72.208,53.191 C71.291,53.191 70.447,53.577 69.82,54.229 C69.121,54.953 69.048,55.482 69.048,56.448 L69.048,60.501 C69.048,61.538 68.831,62.359 70.134,62.479 C70.374,62.502 70.81,62.479 70.81,62.791 C70.81,62.985 70.688,63.057 70.518,63.057 C69.748,63.057 68.976,62.961 68.252,62.961 C67.48,62.961 66.708,63.057 65.96,63.057 C65.792,63.057 65.623,63.01 65.623,62.816 C65.623,62.455 66.032,62.502 66.298,62.479 C67.6,62.359 67.384,61.538 67.384,60.501 L67.384,55.966" fill="#1A1919"/>
    <path d="M81.927,60.501 C81.927,61.538 81.711,62.359 83.014,62.479 C83.254,62.502 83.689,62.479 83.689,62.791 C83.689,62.985 83.568,63.057 83.399,63.057 C82.627,63.057 81.856,62.961 81.132,62.961 C80.36,62.961 79.588,63.057 78.84,63.057 C78.671,63.057 78.503,63.01 78.503,62.816 C78.503,62.455 78.913,62.502 79.179,62.479 C80.481,62.359 80.263,61.538 80.263,60.501 L80.263,49.525 C80.263,48.631 80.481,47.571 79.323,47.571 C79.106,47.571 78.695,47.644 78.695,47.33 C78.695,47.161 78.889,47.088 79.034,47.064 C79.708,46.943 80.626,46.702 81.204,46.316 C81.324,46.22 81.543,46.051 81.711,46.051 C81.952,46.051 81.927,46.244 81.927,46.437 L81.927,56.931 C81.927,57.051 81.927,57.437 82.073,57.437 C82.146,57.437 82.29,57.316 82.339,57.268 L85.909,54.445 C86.173,54.229 86.897,53.675 86.897,53.312 C86.897,52.926 86.39,52.926 86.125,52.926 C85.859,52.902 85.209,52.998 85.209,52.588 C85.209,52.323 85.546,52.371 85.739,52.371 L89.984,52.371 C90.178,52.371 90.395,52.323 90.395,52.564 C90.395,52.83 90.129,52.853 89.913,52.853 C88.682,52.902 88.08,53.481 87.138,54.204 L85.305,55.652 C85.16,55.772 84.702,56.086 84.702,56.304 C84.702,56.448 84.775,56.52 84.871,56.616 L88.513,61.248 C89.045,61.901 89.381,62.479 90.274,62.479 C90.492,62.479 90.782,62.575 90.782,62.84 C90.782,63.08 90.564,63.057 90.395,63.057 C89.624,63.057 88.802,62.961 88.032,62.961 C87.307,62.961 86.536,63.057 85.788,63.057 C85.619,63.057 85.401,63.08 85.401,62.865 C85.401,62.624 85.619,62.479 85.812,62.479 C86.173,62.479 86.752,62.526 86.752,62.021 C86.752,61.732 86.343,61.225 86.173,61.007 L83.931,58.065 C83.809,57.896 83.472,57.389 83.23,57.389 C83.038,57.389 82.796,57.63 82.676,57.726 C81.952,58.281 81.927,58.209 81.927,59.126 L81.927,60.501" fill="#1A1919"/>
  </g>
</svg>
