<svg width="141" height="44" viewBox="0 0 141 44" fill="none" xmlns="http://www.w3.org/2000/svg">
<g clip-path="url(#clip0_2314_1061)">
<mask id="mask0_2314_1061" style="mask-type:luminance" maskUnits="userSpaceOnUse" x="21" y="0" width="212" height="24">
<path d="M233.001 0.509766H21.5723V23.4911H233.001V0.509766Z" fill="white"/>
</mask>
<g mask="url(#mask0_2314_1061)">
<path d="M93.0685 18.5969C92.7697 18.5969 92.6548 18.3211 92.6548 17.8844V12.7596C92.6548 10.3695 91.4825 9.4043 88.9545 9.4043C86.6334 9.4043 85.6222 10.6683 85.6222 11.6106C85.6222 12.4149 86.2197 12.9435 86.9781 12.9435C87.7135 12.9435 88.2421 12.3459 88.2421 11.6795C88.2421 11.105 87.7595 10.3925 86.9781 10.2547C87.3459 10.0019 87.8515 9.81799 88.5638 9.81799C89.7589 9.81799 90.3564 10.5764 90.3564 11.7254V13.2882C89.8967 13.3801 88.6098 13.6329 87.4148 13.9316C85.898 14.2994 85.1855 15.2416 85.1855 16.4366C85.1855 17.9534 85.99 19.1025 87.7595 19.1025C89.7819 19.1025 90.3334 17.5397 90.3334 17.5397H90.4253C90.6322 18.7807 91.2526 19.1025 92.3786 19.1025C92.9762 19.1025 93.3441 18.9645 93.7803 18.7578L93.6655 18.482C93.5048 18.5279 93.275 18.5969 93.0685 18.5969ZM90.3794 16.0689C90.3794 17.3099 89.6439 18.1372 88.9086 18.1372C88.2191 18.1372 87.5526 17.6547 87.5526 16.2298C87.5526 15.1956 87.8284 14.5292 88.8855 14.0925C89.3682 13.8857 90.0576 13.7019 90.3794 13.6099V16.0689Z" fill="#19588E"/>
<path d="M115.382 18.367C113.888 18.367 112.647 17.0801 112.647 14.0695H118.185C118.461 11.4726 117.312 9.4043 114.278 9.4043C111.728 9.4043 110.211 11.6106 110.211 14.1614C110.211 17.2869 112.003 19.1025 114.669 19.1025C116.301 19.1025 117.496 18.367 118.254 16.7354L117.956 16.5745C117.312 17.8385 116.416 18.367 115.382 18.367ZM114.44 9.70305C115.473 9.70305 115.956 10.8981 115.772 13.6329H112.624C112.692 10.8522 113.428 9.70305 114.44 9.70305Z" fill="#19588E"/>
<path d="M83.4618 18.5965C83.1631 18.5965 83.0482 18.3207 83.0482 17.8841C83.0482 17.5624 83.0482 4.76172 83.0482 4.76172H82.8643L79.6699 5.1524V5.42818L80.1296 5.45116C80.5892 5.47414 80.773 5.61203 80.773 5.97973C80.773 5.97973 80.773 16.5512 80.773 17.1716C80.773 18.5505 81.5314 19.1021 82.8184 19.1021C83.4159 19.1021 83.7836 18.9642 84.2202 18.7574L84.1053 18.4816C83.8985 18.5275 83.6687 18.5965 83.4618 18.5965Z" fill="#19588E"/>
<path d="M72.9584 18.0453V9.4043H72.7745L69.5801 9.79502V10.0708L70.0397 10.0938C70.4993 10.1167 70.6832 10.2547 70.6832 10.6223V18.0453C70.6832 18.367 70.3614 18.6198 69.672 18.6198H69.5801V18.8956H73.9695V18.6198C73.2801 18.6198 72.9584 18.367 72.9584 18.0453Z" fill="#19588E"/>
<path d="M71.7637 8.18552C72.5252 8.18552 73.1426 7.56815 73.1426 6.80662C73.1426 6.04508 72.5252 5.42773 71.7637 5.42773C71.0021 5.42773 70.3848 6.04508 70.3848 6.80662C70.3848 7.56815 71.0021 8.18552 71.7637 8.18552Z" fill="#19588E"/>
<path d="M129.837 18.0453C129.216 18.0453 128.872 17.6316 128.872 16.5745V10.1627H131.17V9.58819H128.872V6.94531H128.297L127.309 8.46205C126.849 9.1745 126.068 9.58819 125.241 9.58819H122.69V6.94531H122.115L121.127 8.46205C120.668 9.1745 119.886 9.58819 119.059 9.58819V10.1627H120.391V16.5056C120.391 18.2291 121.058 19.0795 122.551 19.0795C123.517 19.0795 124.528 18.528 125.172 17.264L124.942 17.1031C124.528 17.7006 124.069 18.0224 123.655 18.0224C123.034 18.0224 122.69 17.6087 122.69 16.5515V10.1397H126.573V16.4826C126.573 18.2062 127.24 19.0565 128.734 19.0565C129.699 19.0565 130.71 18.5049 131.354 17.241L131.123 17.0801C130.71 17.7235 130.273 18.0453 129.837 18.0453Z" fill="#19588E"/>
<path d="M78.4053 18.5965C78.1065 18.5965 77.9916 18.3207 77.9916 17.8841C77.9916 17.5624 77.9916 4.76172 77.9916 4.76172H77.8077L74.6133 5.1524V5.42818L75.0729 5.45116C75.5326 5.47414 75.7164 5.61203 75.7164 5.97973C75.7164 5.97973 75.7164 16.5512 75.7164 17.1716C75.7164 18.5505 76.4748 19.1021 77.7617 19.1021C78.3593 19.1021 78.727 18.9642 79.1636 18.7574L79.0487 18.4816C78.8189 18.5275 78.6121 18.5965 78.4053 18.5965Z" fill="#19588E"/>
<path d="M137.006 18.367C135.513 18.367 134.272 17.0801 134.272 14.0695H139.81C140.086 11.4726 138.937 9.4043 135.903 9.4043C133.353 9.4043 131.836 11.6106 131.836 14.1614C131.836 17.2869 133.628 19.1025 136.294 19.1025C137.926 19.1025 139.12 18.367 139.879 16.7354L139.581 16.5745C138.937 17.8385 138.063 18.367 137.006 18.367ZM136.087 9.70305C137.122 9.70305 137.604 10.8981 137.42 13.6329H134.272C134.341 10.8522 135.076 9.70305 136.087 9.70305Z" fill="#19588E"/>
<path d="M108.328 18.0453V12.4608C108.328 10.3695 107.477 9.4043 105.96 9.4043C105.041 9.4043 104.03 9.81799 103.019 11.2428C102.743 10.0019 101.962 9.4043 100.79 9.4043C99.8473 9.4043 98.9051 9.84097 97.9861 11.105V9.58817H97.8021L94.6074 9.97882V10.2547L95.0676 10.2776C95.5271 10.3006 95.7111 10.4385 95.7111 10.8062V18.0453C95.7111 18.367 95.5271 18.6198 94.8604 18.6198H94.6307V18.8956H98.6986V18.6198C98.17 18.6198 98.0319 18.367 98.0319 18.0453V11.6795C98.4914 11.082 99.1581 10.7372 99.7557 10.7372C100.445 10.7372 100.859 11.3118 100.904 12.277V18.0453C100.904 18.367 100.675 18.6198 100.146 18.6198V18.8956H103.869V18.6198C103.363 18.6198 103.203 18.367 103.203 18.0453V11.6565C103.662 11.059 104.329 10.7142 104.927 10.7142C105.662 10.7142 106.075 11.3348 106.075 12.3919V18.0453C106.075 18.367 105.846 18.6198 105.317 18.6198V18.8956H109.385V18.6198C108.649 18.6198 108.328 18.367 108.328 18.0453Z" fill="#19588E"/>
<path d="M70.1553 5.12891H66.1336V5.40468C67.9032 5.56555 68.041 5.84133 67.2826 8.16242L64.5938 16.3897H64.5019L62.2268 8.13944C61.7212 6.14008 61.8821 5.61151 63.5137 5.42766V5.15189H57.033V5.42766C58.3889 5.58853 58.7566 6.0022 59.6299 8.69099L56.9181 16.4128H56.8262L54.2752 7.9326C53.6777 5.88729 53.9075 5.56555 55.1715 5.42766V5.15189H49.1504V5.42766C50.5063 5.58853 50.805 5.79536 51.6783 8.46117L55.0566 19.1016C55.8609 19.1016 56.6423 18.8947 56.941 17.9755L59.8137 9.54136H59.9056L62.7094 19.1246C63.5137 19.1246 64.2951 18.9177 64.5938 17.9985L67.7423 8.34629C68.5696 5.79536 68.8224 5.58853 70.1324 5.45064V5.12891H70.1553Z" fill="#19588E"/>
</g>
</g>
<g clip-path="url(#clip1_2314_1061)">
<mask id="mask1_2314_1061" style="mask-type:luminance" maskUnits="userSpaceOnUse" x="-71" y="20" width="212" height="24">
<path d="M141.001 20.5098H-70.4277V43.4911H141.001V20.5098Z" fill="white"/>
</mask>
<g mask="url(#mask1_2314_1061)">
<path d="M119.605 38.5969C119.306 38.5969 119.191 38.3211 119.191 37.8844V32.7596C119.191 30.3695 118.019 29.4043 115.491 29.4043C113.17 29.4043 112.159 30.6683 112.159 31.6106C112.159 32.4149 112.757 32.9435 113.515 32.9435C114.251 32.9435 114.779 32.3459 114.779 31.6795C114.779 31.105 114.296 30.3925 113.515 30.2547C113.883 30.0019 114.388 29.818 115.101 29.818C116.296 29.818 116.893 30.5764 116.893 31.7254V33.2882C116.433 33.3801 115.146 33.6329 113.952 33.9316C112.434 34.2994 111.723 35.2416 111.723 36.4366C111.723 37.9534 112.527 39.1025 114.296 39.1025C116.318 39.1025 116.87 37.5397 116.87 37.5397H116.962C117.169 38.7807 117.789 39.1025 118.915 39.1025C119.513 39.1025 119.881 38.9645 120.317 38.7578L120.202 38.482C120.018 38.5279 119.812 38.5969 119.605 38.5969ZM116.916 36.0689C116.916 37.3099 116.181 38.1372 115.445 38.1372C114.756 38.1372 114.089 37.6547 114.089 36.2298C114.089 35.1956 114.366 34.5292 115.423 34.0925C115.905 33.8857 116.595 33.7019 116.916 33.6099V36.0689Z" fill="#19588E"/>
<path d="M106.162 31.4713V31.3564C108.828 31.1266 109.77 30.2073 109.77 28.2999C109.77 26.5303 108.919 25.1055 105.817 25.1055H100.324V25.3812C100.968 25.3812 101.68 25.6111 101.68 26.2545V37.6763C101.68 38.3198 100.968 38.5496 100.324 38.5496V38.8254H106.575C109.448 38.8254 110.459 37.1936 110.459 35.1483C110.483 33.1719 109.563 31.6321 106.162 31.4713ZM104.277 25.4272H105.036C106.828 25.4502 106.989 26.7601 106.989 28.3918C106.989 30.0235 106.898 31.3564 104.622 31.3564H104.277V25.4272ZM105.449 38.6185C104.806 38.6185 104.277 38.3657 104.277 37.7453V31.6552H105.013C107.426 31.6552 107.747 33.3558 107.747 35.2862C107.747 37.2167 107.15 38.6185 105.449 38.6185Z" fill="#19588E"/>
<path d="M129.671 38.0453V32.4608C129.671 30.3695 128.82 29.4043 127.303 29.4043C126.361 29.4043 125.419 29.841 124.5 31.105V29.5882H124.316L121.121 29.9788V30.2547L121.581 30.2776C122.041 30.3006 122.225 30.4385 122.225 30.8062V38.0453C122.225 38.367 122.041 38.6198 121.374 38.6198H121.144V38.8956H125.212V38.6198C124.684 38.6198 124.546 38.367 124.546 38.0453V31.6795C125.005 31.082 125.672 30.7372 126.269 30.7372C127.004 30.7372 127.418 31.3578 127.418 32.4149V38.0683C127.418 38.39 127.188 38.6428 126.66 38.6428V38.9186H130.659V38.6428C129.992 38.6198 129.671 38.367 129.671 38.0453Z" fill="#19588E"/>
<path d="M140.885 38.4816C140.678 38.5505 140.563 38.5965 140.379 38.5965C140.127 38.5965 139.805 38.3897 139.621 37.999L136.702 32.5064C138.426 30.3921 139.116 29.8866 140.242 29.8866V29.6107H136.794V29.8866C137.967 29.8866 137.967 30.2083 136.496 32.0928L134.772 34.23V24.7617H134.588L131.348 25.1294V25.4052L131.807 25.4282C132.267 25.4512 132.451 25.589 132.451 25.9567V38.0219C132.451 38.3437 132.129 38.5965 131.44 38.5965H131.348V38.8723H135.416V38.5965C134.887 38.5965 134.749 38.3437 134.749 38.0219V34.9195L135.37 34.1381L137.025 37.7232C137.484 38.7344 138.15 39.0791 139.345 39.0791C140.08 39.0791 140.586 38.9642 141 38.7574L140.885 38.4816Z" fill="#19588E"/>
<path d="M78.192 38.5965C77.8939 38.5965 77.7783 38.3207 77.7783 37.8841C77.7783 37.5624 77.7783 24.7617 77.7783 24.7617H77.5951L74.4004 25.1524V25.4282L74.8599 25.4512C75.3194 25.4741 75.5033 25.612 75.5033 25.9797C75.5033 25.9797 75.5033 36.5512 75.5033 37.1716C75.5033 38.5505 76.2617 39.1021 77.5486 39.1021C78.1462 39.1021 78.5141 38.9642 78.951 38.7574L78.8355 38.4816C78.6057 38.5275 78.3992 38.5965 78.192 38.5965Z" fill="#19588E"/>
<path d="M73.1354 38.5965C72.8365 38.5965 72.7217 38.3207 72.7217 37.8841C72.7217 37.5624 72.7217 24.7617 72.7217 24.7617H72.5384L69.3438 25.1524V25.4282L69.8032 25.4512C70.2628 25.4741 70.4467 25.612 70.4467 25.9797C70.4467 25.9797 70.4467 36.5512 70.4467 37.1716C70.4467 38.5505 71.205 39.1021 72.4919 39.1021C73.0896 39.1021 73.4574 38.9642 73.8937 38.7574L73.7788 38.4816C73.5491 38.5275 73.3426 38.5965 73.1354 38.5965Z" fill="#19588E"/>
<path d="M68.2187 38.5969C67.9199 38.5969 67.805 38.3211 67.805 37.8844V32.7596C67.805 30.3695 66.633 29.4043 64.105 29.4043C61.7842 29.4043 60.7729 30.6683 60.7729 31.6106C60.7729 32.4149 61.3705 32.9435 62.1289 32.9435C62.8639 32.9435 63.3925 32.3459 63.3925 31.6795C63.3925 31.105 62.9104 30.3925 62.1289 30.2547C62.4967 30.0019 63.0021 29.818 63.7146 29.818C64.9098 29.818 65.5068 30.5764 65.5068 31.7254V33.2882C65.0473 33.3801 63.7604 33.6329 62.5658 33.9316C61.0485 34.2994 60.3359 35.2416 60.3359 36.4366C60.3359 37.9534 61.1408 39.1025 62.9104 39.1025C64.9324 39.1025 65.4842 37.5397 65.4842 37.5397H65.5758C65.783 38.7807 66.4032 39.1025 67.5294 39.1025C68.1271 39.1025 68.495 38.9645 68.9312 38.7578L68.8163 38.482C68.6324 38.5279 68.4026 38.5969 68.2187 38.5969ZM65.5068 36.0689C65.5068 37.3099 64.7717 38.1372 64.0359 38.1372C63.3467 38.1372 62.6807 37.6547 62.6807 36.2298C62.6807 35.1956 62.9562 34.5292 64.0134 34.0925C64.4961 33.8857 65.1854 33.7019 65.5068 33.6099V36.0689Z" fill="#19588E"/>
<path d="M62.1051 25.4047V25.1289H58.0837V25.4047C59.8534 25.5655 59.9908 25.8413 59.2325 28.1624L56.7278 36.3897H56.6354L54.3372 27.9096C53.7628 25.9103 53.9242 25.5885 55.5783 25.4047V25.1289H49.2129V25.4047C50.5689 25.5655 50.8677 25.7724 51.7409 28.4382L54.8658 39.0786C55.6706 39.0786 56.4515 38.8718 56.7503 37.9525L59.7152 28.3003C60.5652 25.7494 60.8182 25.5196 62.1051 25.4047Z" fill="#19588E"/>
<path d="M94.1655 29.8851C95.4524 30 95.6137 30.2758 94.7864 32.6429L93.4529 36.3659L92.0977 32.3901C91.4077 30.3218 91.5917 30.023 93.0167 29.8851V29.6094H87.4089V29.8851C88.6958 30.023 88.9946 30.2758 89.9369 32.9187L92.0744 38.8938L92.3274 39.6063L92.0977 40.2957C91.4077 42.2491 90.5345 43.0075 89.4548 42.9845C89.3167 42.9845 89.2018 42.9615 89.087 42.9385C89.087 42.9385 89.9143 42.5709 89.9143 41.5826C89.9143 40.9162 89.4083 40.3647 88.6042 40.3647C87.8917 40.3647 87.2715 40.9162 87.2715 41.6746C87.2715 42.6628 87.984 43.4901 89.5006 43.4901C90.5578 43.4901 91.7298 42.7777 92.4881 40.6175L93.0858 38.9168L95.2691 32.7808C96.1881 30.1839 96.4411 30 97.6357 29.8851V29.6094H94.1655V29.8851Z" fill="#19588E"/>
<path d="M87.4302 36.5745C86.7867 37.8385 85.8903 38.367 84.8564 38.367C83.3623 38.367 82.1219 37.0801 82.1219 34.0695H87.6599C87.9362 31.4726 86.7867 29.4043 83.7534 29.4043C81.2022 29.4043 79.6855 31.6106 79.6855 34.1614C79.6855 37.2869 81.4778 39.1025 84.1439 39.1025C85.7754 39.1025 86.9707 38.367 87.729 36.7354L87.4302 36.5745ZM83.9141 29.703C84.948 29.703 85.4308 30.8981 85.2468 33.6329H82.0986C82.1677 30.8522 82.9028 29.703 83.9141 29.703Z" fill="#19588E"/>
</g>
</g>
<g clip-path="url(#clip2_2314_1061)">
<mask id="mask2_2314_1061" style="mask-type:luminance" maskUnits="userSpaceOnUse" x="0" y="1" width="370" height="42">
<path d="M370 1.89062H0V42.108H370V1.89062Z" fill="white"/>
</mask>
<g mask="url(#mask2_2314_1061)">
<path d="M26.054 2H13.9061C6.23377 2 0 8.24 0 15.92V28.12C0 35.7599 6.23377 42 13.9061 42H26.0939C33.7662 42 40 35.7599 40 28.08V15.92C39.9601 8.24 33.7262 2 26.054 2ZM38.002 26.44C21.3787 26.44 16.8232 26.5999 16.8232 28.08C16.8232 29.56 21.0989 30.84 21.0989 32.9999C21.0989 35.4 13.1469 37.36 6.5934 37.5999C4.91509 36.2801 3.5964 34.52 2.7972 32.52C11.2288 32.0799 13.7862 31.12 13.7862 29.76C13.7862 27.72 8.87113 25.92 8.87113 24.56C8.87113 23.48 9.9101 23 19.98 23C27.9321 23 35.2847 23.32 38.002 23.44V26.44ZM38.002 16.0401C31.4086 15.8 30.969 13.24 29.3307 13.24C28.3717 13.24 27.7322 14.28 26.5735 14.28C25.2548 14.28 22.7372 9.52 18.941 9.52C15.9441 9.52 13.4665 12.28 9.03098 14.52C6.03396 16.0401 3.35664 16.6 1.91809 16.84V15.92C1.91809 9.32 7.27272 3.96 13.8661 3.96H26.054C32.6474 3.96 38.002 9.32 38.002 15.92V16.0401Z" fill="#169C53"/>
<path fill-rule="evenodd" clip-rule="evenodd" d="M26.054 2H13.9061C6.23377 2 0 8.24 0 15.92V28.12C0 29.6564 0.252097 31.1362 0.717294 32.52H2.7972C11.2288 32.0799 13.7862 31.12 13.7862 29.76C13.7862 27.72 8.87113 25.92 8.87113 24.56C8.87113 23.48 9.9101 23 19.98 23C27.9321 23 35.2847 23.32 38.002 23.44V26.44H40V15.92C39.9601 8.24 33.7262 2 26.054 2ZM29.3307 13.24C30.969 13.24 31.4086 15.8 38.002 16.0401V15.92C38.002 9.32 32.6474 3.96 26.054 3.96H13.8661C7.27272 3.96 1.91809 9.32 1.91809 15.92V16.84C3.35664 16.6 6.03396 16.0401 9.03098 14.52C13.4665 12.28 15.9441 9.52 18.941 9.52C22.7372 9.52 25.2548 14.28 26.5735 14.28C27.7322 14.28 28.3717 13.24 29.3307 13.24Z" fill="#19588E"/>
</g>
<path d="M26 40V42H14V40H26ZM38 28V16C38 9.37258 32.6274 4 26 4H14C7.37258 4 2 9.37258 2 16V28C2 34.6274 7.37258 40 14 40V42C6.26801 42 0 35.732 0 28V16C5.07386e-07 8.38882 6.07368 2.19654 13.6387 2.00488L14 2H26L26.3613 2.00488C33.9263 2.19654 40 8.38882 40 16V28L39.9951 28.3613C39.8035 35.9263 33.6112 42 26 42V40C32.6274 40 38 34.6274 38 28Z" fill="#19588E"/>
</g>
<defs>
<clipPath id="clip0_2314_1061">
<rect width="92" height="24" fill="white" transform="translate(49)"/>
</clipPath>
<clipPath id="clip1_2314_1061">
<rect width="92" height="24" fill="white" transform="translate(49 20)"/>
</clipPath>
<clipPath id="clip2_2314_1061">
<rect width="41" height="42" fill="white" transform="translate(0 1)"/>
</clipPath>
</defs>
</svg>
