<svg width="144" height="32" viewBox="0 0 144 32" fill="none" xmlns="http://www.w3.org/2000/svg">
<g clip-path="url(#clip0_4303_468)">
<path d="M14.1448 4.36259C17.8078 5.50859 18.5678 8.04659 14.5818 9.65259C10.4928 11.3006 9.6568 13.5556 14.7048 20.4076C15.9728 21.8196 19.8968 28.1856 20.9308 29.8756C21.0198 30.0216 21.1788 30.1066 21.3498 30.1066C23.1988 30.1016 24.7468 30.0976 25.5788 30.0956C25.8608 30.0956 26.0248 29.7786 25.8658 29.5476C23.6268 26.2756 21.3888 23.0016 19.1398 19.7116C19.0408 19.5676 19.1008 19.3716 19.2618 19.3026C20.1058 18.9416 20.8768 18.5066 21.5708 17.9396C23.8638 16.0636 25.1168 13.6206 25.4028 10.6956C25.7618 7.02059 24.2008 3.43359 20.6838 1.53259C18.6778 0.449594 16.5008 0.0695937 14.2508 0.0605938C14.0148 0.0605938 13.7548 0.0605938 13.4758 0.0585938C12.8158 0.0585938 12.1508 0.175594 11.5648 0.477594C10.0278 1.26959 9.4958 2.90659 14.1428 4.36159L14.1448 4.36259Z" fill="#71ABB7"/>
<path d="M2.726 16.442C1.778 13.72 1.59 10.957 8.065 7.981C12.163 5.944 6.57 4.419 6.467 4.381C6.2 4.271 5.911 4.159 5.602 4.043C3.075 2.605 5.501 0.573 7.372 0.08C7.419 0.068 7.408 0 7.358 0C5.056 0.007 2.813 0.02 1.422 0.026C0.636 0.031 0.007 0.663 0.007 1.449C0.007 6.156 0.007 21.445 0 29.684C0 30.01 0.087 30.082 0.404 30.081C0.849 30.078 1.293 30.076 1.738 30.076L3.018 30.073C4.272 30.073 5.536 30.073 6.813 30.073C6.923 30.073 7.002 29.972 6.971 29.867C6.391 27.985 3.632 19.044 2.726 16.442Z" fill="#395679"/>
<path d="M47.4688 1.96802C47.4688 0.816016 48.2917 0.0410156 49.3967 0.0410156C50.5717 0.0410156 51.3247 0.840016 51.3247 1.96802C51.3247 3.09602 50.5257 3.89502 49.3967 3.89502C48.2687 3.89502 47.4688 3.12002 47.4688 1.96802ZM47.8697 17.773V6.03102C47.8697 5.95602 47.9317 5.89602 48.0047 5.89602C48.9407 6.05202 49.8767 6.05202 50.8127 5.89602C50.8877 5.89602 50.9478 5.95802 50.9478 6.03102V17.773C50.9478 17.848 50.8857 17.908 50.8127 17.908H48.0047C47.9297 17.908 47.8697 17.846 47.8697 17.773Z" fill="#395679"/>
<path d="M57.8739 17.6716L52.4269 6.08658C52.3849 5.99658 52.4509 5.89258 52.5499 5.89258H55.5849C55.6389 5.89258 55.6889 5.92558 55.7099 5.97558L58.2139 11.8186C58.4019 12.2186 58.7079 12.9946 58.8249 13.4166H58.8489C58.9659 12.9686 59.2489 12.2646 59.4359 11.8186L61.8939 5.97758C61.9149 5.92658 61.9649 5.89458 62.0189 5.89458H65.0309C65.1299 5.89458 65.1959 5.99658 65.1539 6.08658L59.8209 17.6656C59.6869 17.9566 59.3959 18.1436 59.0759 18.1436H58.6179C58.2989 18.1436 58.0109 17.9606 57.8759 17.6716H57.8739Z" fill="#395679"/>
<path d="M77.3617 16.6841C77.3857 16.7401 77.3727 16.8041 77.3237 16.8421C76.6267 17.3891 74.8317 18.2601 72.2517 18.2601C68.2777 18.2601 65.5977 15.7921 65.5977 11.9351C65.5977 8.07806 68.2777 5.53906 72.0157 5.53906C75.7537 5.53906 77.8467 8.50206 77.8467 11.8861V12.9261C77.8467 13.0011 77.7847 13.0611 77.7117 13.0611H68.8657C68.7797 13.0611 68.7127 13.1421 68.7287 13.2261C69.1317 15.3201 71.0997 15.8121 72.9327 15.8121C74.6077 15.8121 75.8327 15.1841 76.3717 14.7531C76.4407 14.6971 76.5447 14.7271 76.5777 14.8101L77.3587 16.6821L77.3617 16.6841ZM74.6237 10.7601C74.7017 10.7601 74.7677 10.6921 74.7637 10.6141C74.6797 9.14906 73.6577 7.93806 72.0417 7.93806C70.3367 7.93806 69.1357 8.92806 68.7407 10.5901C68.7197 10.6761 68.7887 10.7611 68.8757 10.7611L74.6237 10.7601Z" fill="#395679"/>
<path d="M104.408 17.9081C104.333 17.9081 104.273 17.8461 104.273 17.7731V10.3381C104.273 8.95106 103.732 8.24506 102.604 8.24506C101.476 8.24506 100.513 8.93906 100.006 9.47506C99.9817 9.50106 99.9697 9.53406 99.9697 9.57006V17.7731C99.9697 17.8481 99.9077 17.9081 99.8347 17.9081H97.0267C96.9517 17.9081 96.8917 17.8461 96.8917 17.7731V10.2211C96.8917 8.83406 96.2097 8.24506 95.0577 8.24506C94.0717 8.24506 93.0207 9.02606 92.6197 9.50106C92.5987 9.52706 92.5897 9.55706 92.5897 9.59006V17.7731C92.5897 17.8481 92.5277 17.9081 92.4547 17.9081H89.6467C89.5717 17.9081 89.5117 17.8461 89.5117 17.7731V6.02906C89.5117 5.95406 89.5737 5.89406 89.6467 5.89406H92.4547C92.5297 5.89406 92.5897 5.95606 92.5897 6.02906V6.83406C92.5897 6.95006 92.7237 7.01406 92.8117 6.93806C93.4437 6.39606 94.7137 5.53906 96.3287 5.53906C98.1177 5.53906 98.8347 6.55206 99.1727 7.20506C99.2117 7.27906 99.3017 7.30406 99.3697 7.25506C100.338 6.53106 101.79 5.53906 103.524 5.53906C105.992 5.53906 107.356 6.87906 107.356 9.81806V17.7701C107.356 17.8451 107.294 17.9051 107.221 17.9051H104.413L104.409 17.9081H104.408Z" fill="#395679"/>
<path d="M120.214 16.212C120.214 16.597 120.011 16.951 119.679 17.146C118.675 17.741 117.066 18.262 114.759 18.262C111.068 18.262 109.375 16.216 109.375 13.889C109.375 11.138 112.009 10.105 114.265 10.105C115.015 10.105 116.332 10.339 117.076 10.772C117.165 10.823 117.274 10.754 117.274 10.652V9.67997C117.274 8.69297 116.545 8.01097 114.899 8.01097C113.469 8.01097 112.238 8.42997 111.687 8.66197C111.616 8.69197 111.537 8.65897 111.508 8.58797L110.718 6.67397C110.689 6.60597 110.718 6.52797 110.784 6.49797C111.855 6.00097 113.299 5.54297 115.159 5.54297C119.155 5.54297 120.214 7.44797 120.214 10.409V16.212ZM117.274 13.227C117.274 13.185 117.257 13.146 117.224 13.12C116.715 12.71 115.737 12.291 114.781 12.291C113.605 12.291 112.547 12.878 112.547 13.938C112.547 15.183 113.487 15.983 114.991 15.983C115.891 15.983 116.662 15.812 117.199 15.529C117.244 15.505 117.271 15.457 117.271 15.406V13.229L117.272 13.227H117.274Z" fill="#395679"/>
<path d="M122.986 17.8064V5.99841C122.986 5.94141 123.033 5.89641 123.088 5.89641H125.939C125.996 5.89641 126.041 5.94341 126.041 5.99841V7.37741C126.041 7.48241 126.179 7.52141 126.23 7.43041C126.642 6.70141 127.492 5.56641 128.673 5.56641C129.701 5.56641 130.282 5.84241 130.761 6.11141C130.805 6.13541 130.824 6.18941 130.806 6.23641L129.823 8.92241C129.8 8.98541 129.725 9.00941 129.67 8.97241C129.305 8.72641 128.815 8.43441 128.132 8.43441C126.768 8.43441 126.039 10.0794 126.039 11.2794V17.8074C126.039 17.8644 125.992 17.9094 125.937 17.9094H123.086C123.029 17.9094 122.984 17.8624 122.984 17.8074L122.986 17.8064Z" fill="#395679"/>
<path d="M80.0918 17.8064V5.99841C80.0918 5.94141 80.1388 5.89641 80.1938 5.89641H83.0448C83.1018 5.89641 83.1468 5.94341 83.1468 5.99841V7.37741C83.1468 7.48241 83.2848 7.52141 83.3358 7.43041C83.7478 6.70141 84.5978 5.56641 85.7788 5.56641C86.8068 5.56641 87.3878 5.84241 87.8668 6.11141C87.9108 6.13541 87.9298 6.18941 87.9118 6.23641L86.9288 8.92241C86.9058 8.98541 86.8308 9.00941 86.7758 8.97241C86.4108 8.72641 85.9208 8.43441 85.2378 8.43441C83.8738 8.43441 83.1448 10.0794 83.1448 11.2794V17.8074C83.1448 17.8644 83.0978 17.9094 83.0428 17.9094H80.1918C80.1348 17.9094 80.0898 17.8624 80.0898 17.8074L80.0918 17.8064Z" fill="#395679"/>
<path d="M139.851 17.8599L135.736 12.9309C135.655 12.8329 135.496 12.8899 135.496 13.0179V17.7729C135.496 17.8479 135.434 17.9079 135.361 17.9079H132.553C132.478 17.9079 132.418 17.8459 132.418 17.7729V0.140859C132.418 0.0658594 132.48 0.00585938 132.553 0.00585938H135.361C135.436 0.00585938 135.496 0.0678594 135.496 0.140859V10.2249C135.496 10.3539 135.66 10.4109 135.739 10.3089L139.146 5.94586C139.172 5.91286 139.211 5.89286 139.253 5.89286H142.699C142.815 5.89286 142.878 6.02986 142.801 6.11786L138.276 11.3519C138.232 11.4029 138.232 11.4799 138.276 11.5309L143.623 17.6829C143.7 17.7719 143.637 17.9079 143.521 17.9079H139.956C139.915 17.9079 139.877 17.8899 139.851 17.8599Z" fill="#395679"/>
<path d="M46.6468 17.6823L41.1688 11.4493C44.1558 10.7113 45.5688 8.65533 45.5688 5.84733C45.5688 1.45133 42.3238 0.111328 37.8568 0.111328H34.1758C34.0148 0.111328 33.8828 0.242328 33.8828 0.404328V17.7743C33.8828 17.8493 33.9448 17.9093 34.0178 17.9093H37.0838C37.1588 17.9093 37.2188 17.8493 37.2188 17.7743V11.8863C37.2188 11.8263 37.2578 11.7783 37.3108 11.7583L42.6758 17.8633C42.7018 17.8933 42.7388 17.9103 42.7778 17.9103H46.5408C46.6578 17.9103 46.7198 17.7723 46.6428 17.6853L46.6448 17.6823H46.6468ZM37.2208 3.27933C37.2208 3.20433 37.2828 3.14433 37.3578 3.14433H38.7728C41.0068 3.14433 42.0408 4.22633 42.0408 5.84833C42.0408 7.61233 40.8418 8.71633 38.3958 8.71633H37.3558C37.2808 8.71633 37.2188 8.65633 37.2188 8.58133V3.28133L37.2208 3.27933Z" fill="#395679"/>
<path d="M33.8828 27.4118C33.8828 25.9468 35.0558 24.8848 36.5108 24.8848C37.1418 24.8848 37.7248 25.0348 38.0358 25.2968V26.3908C37.6348 26.0798 37.1538 25.8698 36.5818 25.8698C35.6898 25.8698 35.0178 26.5028 35.0178 27.3838C35.0178 28.2648 35.6898 28.9278 36.5918 28.9278C37.1638 28.9278 37.6148 28.7278 38.0358 28.4168V29.4398C37.6148 29.7508 37.0528 29.9008 36.5108 29.9008C35.0368 29.9008 33.8828 28.8578 33.8828 27.4148V27.4118Z" fill="#717372"/>
<path d="M41.3805 24.8848C42.8135 24.8848 43.9075 25.9278 43.9075 27.3708C43.9075 28.8138 42.7445 29.8978 41.3395 29.8978C39.9345 29.8978 38.8125 28.8548 38.8125 27.4118C38.8125 25.9688 39.9755 24.8848 41.3805 24.8848ZM41.3595 25.8568C40.5675 25.8568 39.9545 26.4898 39.9545 27.3908C39.9545 28.2918 40.5655 28.9248 41.3595 28.9248C42.1525 28.9248 42.7645 28.2918 42.7645 27.3908C42.7645 26.4898 42.1425 25.8568 41.3595 25.8568Z" fill="#717372"/>
<path d="M46.1743 26.419V29.799H45.0312V24.985H46.1553V25.557C46.4863 25.136 47.0072 24.875 47.6502 24.875C48.3922 24.875 48.9243 25.197 49.2243 25.737C49.5553 25.216 50.1663 24.875 50.9103 24.875C52.0943 24.875 52.7553 25.667 52.7553 26.821V29.8H51.6123V26.952C51.6123 26.33 51.2412 25.879 50.6082 25.879C50.0762 25.879 49.6863 26.11 49.4453 26.451C49.4563 26.571 49.4653 26.691 49.4653 26.822V29.801H48.3223V26.953C48.3223 26.331 47.9513 25.88 47.3183 25.88C46.7973 25.88 46.4153 26.101 46.1753 26.421V26.418L46.1743 26.419Z" fill="#717372"/>
<path d="M55.3071 26.419V29.799H54.1641V24.985H55.2881V25.557C55.6191 25.136 56.1401 24.875 56.7831 24.875C57.5251 24.875 58.0571 25.197 58.3571 25.737C58.6881 25.216 59.2991 24.875 60.0431 24.875C61.2271 24.875 61.8881 25.667 61.8881 26.821V29.8H60.7451V26.952C60.7451 26.33 60.3741 25.879 59.7411 25.879C59.2091 25.879 58.8191 26.11 58.5781 26.451C58.5891 26.571 58.5981 26.691 58.5981 26.822V29.801H57.4551V26.953C57.4551 26.331 57.0841 25.88 56.4511 25.88C55.9301 25.88 55.5481 26.101 55.3081 26.421V26.418L55.3071 26.419Z" fill="#717372"/>
<path d="M66.6129 29.2674C66.2719 29.6584 65.7399 29.9094 65.0989 29.9094C63.9149 29.9094 63.2539 29.1174 63.2539 27.9634V24.9844H64.3969V27.8324C64.3969 28.4544 64.7679 28.9054 65.4099 28.9054C65.9509 28.9054 66.3429 28.6844 66.5939 28.3544V24.9844H67.7369V29.7984H66.6129V29.2674Z" fill="#717372"/>
<path d="M70.2993 26.429V29.799H69.1562V24.985H70.2803V25.517C70.6213 25.126 71.1533 24.875 71.7943 24.875C72.9783 24.875 73.6393 25.667 73.6393 26.821V29.8H72.4963V26.952C72.4963 26.33 72.1253 25.879 71.4833 25.879C70.9423 25.879 70.5503 26.099 70.2993 26.429Z" fill="#717372"/>
<path d="M74.9023 23.2289C74.9023 22.8469 75.2133 22.5469 75.5953 22.5469C75.9773 22.5469 76.2883 22.8469 76.2883 23.2289C76.2883 23.6109 75.9773 23.9109 75.5953 23.9109C75.2133 23.9109 74.9023 23.6109 74.9023 23.2289ZM75.0213 24.9839H76.1643V29.7979H75.0213V24.9839Z" fill="#717372"/>
<path d="M79.4555 29.8482C78.4325 29.8482 77.9115 29.3272 77.9115 28.3642V25.8872H77.0195V24.9842H77.9115V23.8902L79.0355 23.7402V24.9842H80.7005V25.8872H79.0355V28.1442C79.0355 28.6162 79.2365 28.8762 79.7375 28.8762C80.0985 28.8762 80.4495 28.7752 80.7205 28.6662V29.5882C80.3495 29.7592 79.9185 29.8492 79.4575 29.8492L79.4555 29.8482Z" fill="#717372"/>
<path d="M81.9962 31.9944C81.6052 31.9944 81.3142 31.9234 81.0742 31.8144V30.7804C81.2652 30.8904 81.6062 31.0114 81.9262 31.0114C82.3682 31.0114 82.8382 30.8114 83.2002 29.8984L81.2442 24.9844H82.4672L83.7802 28.4744L85.1142 24.9844H86.2772L84.1602 30.1994C83.6792 31.3924 83.0172 31.9944 81.9942 31.9944H81.9962Z" fill="#717372"/>
<path d="M88.9648 27.4118C88.9648 25.9468 90.1378 24.8848 91.5928 24.8848C92.2248 24.8848 92.8068 25.0348 93.1178 25.2968V26.3908C92.7168 26.0798 92.2348 25.8698 91.6638 25.8698C90.7718 25.8698 90.0998 26.5028 90.0998 27.3838C90.0998 28.2648 90.7718 28.9278 91.6738 28.9278C92.2448 28.9278 92.6968 28.7278 93.1178 28.4168V29.4398C92.6968 29.7508 92.1348 29.9008 91.5928 29.9008C90.1188 29.9008 88.9648 28.8578 88.9648 27.4148V27.4118Z" fill="#717372"/>
<path d="M95.4516 29.7988H94.3086V24.9848H95.4326V25.8068C95.8036 25.1848 96.4046 24.8848 97.0866 24.8848C97.2566 24.8848 97.4276 24.9048 97.6076 24.9348V26.1078C97.4276 26.0478 97.2256 25.9978 96.9556 25.9978C96.2736 25.9978 95.6816 26.3288 95.4516 26.8798V29.7988Z" fill="#717372"/>
<path d="M100.846 29.8988C99.2724 29.8988 98.1484 28.8858 98.1484 27.3918C98.1484 25.8978 99.2704 24.8848 100.525 24.8848C101.999 24.8848 102.842 25.9378 102.842 27.4118V27.6518H99.2814C99.3914 28.4438 99.9534 28.9558 100.926 28.9558C101.557 28.9558 102.28 28.7048 102.711 28.3638V29.3468C102.299 29.6578 101.587 29.8978 100.845 29.8978L100.846 29.8988ZM99.3214 26.8098H101.708C101.568 26.2288 101.157 25.8058 100.524 25.8058C99.9434 25.8058 99.4814 26.1668 99.3214 26.8098Z" fill="#717372"/>
<path d="M107.639 29.2455C107.248 29.6765 106.696 29.8975 106.065 29.8975C104.761 29.8975 103.699 28.8845 103.699 27.4115C103.699 25.9385 104.782 24.8845 106.116 24.8845C106.708 24.8845 107.229 25.0545 107.62 25.4165V22.6285L108.763 22.4785V29.7995H107.639V29.2455ZM106.346 28.9455C106.908 28.9455 107.35 28.7055 107.62 28.3235V26.4985C107.359 26.0975 106.908 25.8375 106.326 25.8375C105.453 25.8375 104.842 26.4895 104.842 27.3925C104.842 28.2955 105.483 28.9475 106.346 28.9475V28.9455Z" fill="#717372"/>
<path d="M110.074 23.2289C110.074 22.8469 110.385 22.5469 110.767 22.5469C111.149 22.5469 111.46 22.8469 111.46 23.2289C111.46 23.6109 111.149 23.9109 110.767 23.9109C110.385 23.9109 110.074 23.6109 110.074 23.2289ZM110.194 24.9839H111.337V29.7979H110.194V24.9839Z" fill="#717372"/>
<path d="M114.627 29.8482C113.604 29.8482 113.083 29.3272 113.083 28.3642V25.8872H112.191V24.9842H113.083V23.8902L114.207 23.7402V24.9842H115.872V25.8872H114.207V28.1442C114.207 28.6162 114.407 28.8762 114.909 28.8762C115.27 28.8762 115.621 28.7752 115.892 28.6662V29.5882C115.521 29.7592 115.09 29.8492 114.629 29.8492L114.627 29.8482Z" fill="#717372"/>
<path d="M122.32 29.2674C121.979 29.6584 121.447 29.9094 120.806 29.9094C119.622 29.9094 118.961 29.1174 118.961 27.9634V24.9844H120.104V27.8324C120.104 28.4544 120.475 28.9054 121.117 28.9054C121.659 28.9054 122.05 28.6844 122.301 28.3544V24.9844H123.444V29.7984H122.32V29.2674Z" fill="#717372"/>
<path d="M126.006 26.429V29.799H124.863V24.985H125.987V25.517C126.328 25.126 126.86 24.875 127.501 24.875C128.685 24.875 129.346 25.667 129.346 26.821V29.8H128.203V26.952C128.203 26.33 127.832 25.879 127.19 25.879C126.649 25.879 126.257 26.099 126.006 26.429Z" fill="#717372"/>
<path d="M130.609 23.2289C130.609 22.8469 130.92 22.5469 131.302 22.5469C131.684 22.5469 131.995 22.8469 131.995 23.2289C131.995 23.6109 131.684 23.9109 131.302 23.9109C130.92 23.9109 130.609 23.6109 130.609 23.2289ZM130.729 24.9839H131.872V29.7979H130.729V24.9839Z" fill="#717372"/>
<path d="M135.52 24.8848C136.955 24.8848 138.047 25.9278 138.047 27.3708C138.047 28.8138 136.884 29.8978 135.48 29.8978C134.075 29.8978 132.953 28.8548 132.953 27.4118C132.953 25.9688 134.116 24.8848 135.52 24.8848ZM135.501 25.8568C134.709 25.8568 134.096 26.4898 134.096 27.3908C134.096 28.2918 134.707 28.9248 135.501 28.9248C136.294 28.9248 136.904 28.2918 136.904 27.3908C136.904 26.4898 136.282 25.8568 135.501 25.8568Z" fill="#717372"/>
<path d="M140.315 26.429V29.799H139.172V24.985H140.296V25.517C140.637 25.126 141.169 24.875 141.81 24.875C142.994 24.875 143.655 25.667 143.655 26.821V29.8H142.512V26.952C142.512 26.33 142.141 25.879 141.499 25.879C140.958 25.879 140.566 26.099 140.315 26.429Z" fill="#717372"/>
</g>
<defs>
<clipPath id="clip0_4303_468">
<rect width="144" height="32" fill="white"/>
</clipPath>
</defs>
</svg>
