<svg xmlns:xlink="http://www.w3.org/1999/xlink" xmlns="http://www.w3.org/2000/svg" enable-background="new 0 0 162 72" height="72" viewBox="0 0 162 72" width="162"><g fill="#475115"><path d="m28 17.4 5.5 11.3 11.1 1.7v-16.8h-32.3v16.8l10.3-1.6z"/><path d="m36.9 39.4 2.1 12.4-10.9-5.8-10.8 5.9 2-12.5-7-7v26h32.3v-26.8z"/><path d="m54.1 68.4h-9.5v-1.3c0-1.3-1.1-2.3-2.3-2.3s-2.3 1-2.3 2.3v1.3h-9.1v-1.3c0-1.3-1.1-2.3-2.3-2.3-1.3 0-2.3 1.1-2.3 2.3v1.3h-9.2v-1.3c0-1.3-1.1-2.3-2.3-2.3s-2.3 1.1-2.3 2.3v1.3h-10v-8.9h1.3c1.3 0 2.3-1.1 2.3-2.3 0-1.3-1.1-2.3-2.3-2.3h-1.3v-9.2h1.3c1.3 0 2.3-1.1 2.3-2.3 0-1.3-1.1-2.3-2.3-2.3h-1.3v-9.2h1.3c1.3 0 2.3-1.1 2.3-2.3 0-1.3-1.1-2.3-2.3-2.3h-1.3v-9.1h1.3c1.3 0 2.3-1.1 2.3-2.3 0-1.3-1.1-2.3-2.3-2.3h-1.3v-9.9h9.7v1.3c0 1.3 1.1 2.3 2.3 2.3s2.3-1.1 2.3-2.3v-1.3h9.2v1.3c0 1.3 1.1 2.3 2.3 2.3 1.3 0 2.3-1.1 2.3-2.3v-1.3h9.4v1.3c0 1.3 1.1 2.3 2.3 2.3s2.3-1.1 2.3-2.3v-1.3h9.5v9.5h-1.3c-1.3 0-2.3 1.1-2.3 2.3 0 1.3 1.1 2.3 2.3 2.3h1.3v9.2h-1.3c-1.3 0-2.3 1.1-2.3 2.3 0 1.3 1.1 2.3 2.3 2.3h1.3v9.2h-1.3c-1.3 0-2.3 1.1-2.3 2.3 0 1.3 1.1 2.3 2.3 2.3h1.3v9.2h-1.3c-1.3 0-2.3 1.1-2.3 2.3 0 1.3 1.1 2.3 2.3 2.3h1.3zm-7-2.6h4.3v-3.8c-2.1-.6-3.7-2.5-3.7-4.8s1.6-4.2 3.7-4.8v-4.3c-2.1-.6-3.7-2.5-3.7-4.8s1.6-4.2 3.7-4.8v-4.3c-2.1-.6-3.7-2.5-3.7-4.8s1.6-4.2 3.7-4.8v-4.2c-2.1-.6-3.7-2.5-3.7-4.8s1.6-4.2 3.7-4.8v-4.5h-4.3c-.6 2.1-2.5 3.7-4.8 3.7s-4.2-1.6-4.8-3.7h-4.2c-.6 2.1-2.5 3.7-4.8 3.7s-4.2-1.6-4.8-3.7h-4.3c-.6 2.1-2.5 3.7-4.8 3.7s-4.2-1.6-4.8-3.7h-4.6v4.4c2.1.6 3.7 2.5 3.7 4.8s-1.6 4.2-3.7 4.8v4.2c2.1.6 3.7 2.5 3.7 4.8s-1.6 4.2-3.7 4.8v4.3c2.1.6 3.7 2.5 3.7 4.8s-1.6 4.2-3.7 4.8v4.3c2.1.6 3.7 2.5 3.7 4.8s-1.6 4.2-3.7 4.8v3.8h4.6c.6-2.1 2.5-3.7 4.8-3.7s4.2 1.6 4.8 3.7h4.3c.6-2.1 2.5-3.7 4.8-3.7s4.2 1.6 4.8 3.7h4.2c.6-2.1 2.5-3.7 4.8-3.7 2.3.1 4.3 1.7 4.8 3.8z"/><path d="m127.5 33.8c-6.6-2.7-11.9-3.9-16.9-3.9-5.5 0-10.3 1.5-15.6 3.6-4.3 1.7-9.4 2.8-14.6 2.8-6.1 0-12.5-1.4-18.3-4.9v6.4c5.9 3 12.3 4.3 18.3 4.3 5.9 0 11.5-1.2 16.3-3.1 5.1-2 9.2-3.3 13.9-3.3 4.2 0 8.8 1 15.1 3.6 4.6 1.9 9.3 2.7 13.8 2.7 7.8 0 14.8-2.2 19.6-5v-6.7c-3.3 2.8-11.2 6-19.6 6-3.9-.2-8.1-.9-12-2.5z"/><path d="m127.5 46.1c-6.6-2.7-11.9-3.9-16.9-3.9-5.5 0-10.3 1.5-15.6 3.6-4.3 1.7-9.4 2.8-14.6 2.8-6.1 0-12.5-1.4-18.3-4.9v6.3c5.9 3 12.3 4.3 18.3 4.3 5.9 0 11.5-1.2 16.3-3.1 5.1-2 9.2-3.3 13.9-3.3 4.2 0 8.8 1 15.1 3.6 4.6 1.9 9.3 2.7 13.8 2.7 7.8 0 14.8-2.2 19.6-5v-6.7c-3.3 2.8-11.2 6.1-19.6 6-3.9-.1-8.1-.8-12-2.4z"/><path d="m139.5 60.7c-4 0-8.1-.7-12.1-2.3-6.6-2.7-11.9-3.9-16.9-3.9-5.5 0-10.3 1.5-15.6 3.6-4.3 1.7-9.4 2.8-14.6 2.8-6.1 0-12.5-1.4-18.3-4.9v6.4c5.9 3 12.3 4.3 18.3 4.3 5.9 0 11.5-1.2 16.3-3.1 5.1-2 9.2-3.3 13.9-3.3 4.2 0 8.8 1 15.1 3.6 4.6 1.9 9.3 2.7 13.8 2.7 7.8 0 14.8-2.2 19.6-5v-6.7c-3.2 2.6-11 5.9-19.5 5.8z"/><path d="m62.4 3.8h1.9l4.5 5.9v-5.9h2.1v9.5h-1.8l-4.6-6.1v6.1h-2.1z"/><path d="m72.4 3.8h2.3l2 6.5 2.1-6.5h1.8l2.1 6.5 2-6.5h2.2l-3.3 9.6h-1.8l-2.2-6.2-2.2 6.2h-1.8z"/><path d="m92.5 3.8h3.9c2.3 0 3.7 1.4 3.7 3.3 0 2.2-1.7 3.4-3.9 3.4h-1.6v2.9h-2.1zm3.8 4.9c1.1 0 1.7-.7 1.7-1.5 0-.9-.7-1.4-1.7-1.4h-1.6v2.9z"/><path d="m101.7 3.8h4.4c1.2 0 2.2.3 2.8 1 .5.5.8 1.3.8 2.2 0 1.5-.8 2.5-2 3l2.3 3.4h-2.5l-2-3.1h-1.7v3.1h-2.1zm4.2 4.7c1 0 1.6-.5 1.6-1.4 0-.9-.6-1.4-1.7-1.4h-2.1v2.7h2.2z"/><path d="m111.6 3.8h2.1v9.5h-2.1z"/><path d="m115.7 8.6c0-2.7 2.1-5 5.1-5 2.9 0 5.1 2.2 5.1 4.9 0 2.7-2.1 4.9-5.1 4.9s-5.1-2-5.1-4.8zm7.9 0c0-1.7-1.2-3-2.9-3s-2.9 1.3-2.9 3c0 1.6 1.2 3 2.9 3s2.9-1.3 2.9-3z"/><path d="m127.7 3.8h4.4c1.2 0 2.2.3 2.8 1 .5.5.8 1.3.8 2.2 0 1.5-.8 2.5-2 3l2.3 3.4h-2.5l-2-3.1h-1.7v3.1h-2.1zm4.2 4.7c1 0 1.6-.5 1.6-1.4 0-.9-.6-1.4-1.7-1.4h-2.1v2.7h2.2z"/><path d="m137.6 3.8h2.1v9.5h-2.1z"/><path d="m144.4 5.8h-2.9v-2h7.9v1.9h-2.9v7.6h-2.1z"/><path d="m153.7 9.6-3.7-5.8h2.5l2.3 3.8 2.3-3.8h2.4l-3.7 5.7v3.8h-2.1z"/><path d="m61.9 21c0-2.6 1.9-4.6 4.6-4.6 1.7 0 2.7.6 3.5 1.4l-1.2 1.4c-.7-.6-1.4-1-2.3-1-1.5 0-2.6 1.2-2.6 2.8 0 1.5 1.1 2.8 2.6 2.8 1 0 1.6-.4 2.3-1l1.2 1.3c-.9 1-1.9 1.6-3.6 1.6-2.5-.2-4.5-2.2-4.5-4.7z"/><path d="m71.7 16.5h4.1c1.1 0 2 .3 2.6.9.5.5.8 1.2.8 2 0 1.4-.8 2.3-1.9 2.8l2.2 3.2h-2.3l-1.9-2.8h-1.5v2.8h-2zm3.9 4.3c1 0 1.5-.5 1.5-1.3 0-.8-.6-1.3-1.5-1.3h-1.9v2.6z"/><path d="m80.9 16.5h6.7v1.7h-4.8v1.8h4.2v1.7h-4.2v1.9h4.8v1.7h-6.8z"/><path d="m89.4 16.5h3.5c2.8 0 4.7 1.9 4.7 4.4 0 2.5-1.9 4.4-4.7 4.4h-3.5zm1.9 1.8v5.4h1.5c1.6 0 2.7-1.1 2.7-2.7 0-1.6-1.1-2.7-2.7-2.7z"/><path d="m99.4 16.5h2v8.9h-2z"/><path d="m105.7 18.3h-2.7v-1.8h7.4v1.8h-2.7v7.1h-2z"/><path d="m115.5 21.6v-5.1h2v5c0 1.4.7 2.2 1.9 2.2s1.9-.7 1.9-2.1v-5.1h2v5c0 2.7-1.5 4-3.9 4s-3.9-1.3-3.9-3.9z"/><path d="m125.3 16.5h1.8l4.2 5.5v-5.5h1.9v8.9h-1.7l-4.3-5.7v5.7h-1.9z"/><path d="m135.4 16.5h2v8.9h-2z"/><path d="m139.2 21c0-2.6 2-4.6 4.7-4.6s4.7 2 4.7 4.6c0 2.5-2 4.6-4.7 4.6-2.8-.1-4.7-2.1-4.7-4.6zm7.4 0c0-1.6-1.1-2.8-2.7-2.8s-2.7 1.2-2.7 2.8c0 1.5 1.1 2.8 2.7 2.8s2.7-1.3 2.7-2.8z"/><path d="m150.4 16.5h1.8l4.2 5.5v-5.5h1.9v8.9h-1.7l-4.3-5.7v5.7h-1.9z"/></g></svg>