<svg width="160" height="138" viewBox="0 0 160 138" fill="none" xmlns="http://www.w3.org/2000/svg">
<path d="M122.856 72.4764C135.536 52.1199 129.304 25.3402 108.928 12.6698C88.5561 -0.000607967 61.7601 6.23067 49.0761 26.5872C36.3961 46.9438 42.6281 73.7235 63.0041 86.3939C83.3801 99.0683 110.176 92.837 122.856 72.4764Z" fill="url(#paint0_linear_4303_404)"/>
<path d="M87.8109 137.108V61.9373C87.8109 56.2176 84.9629 50.8737 80.2109 47.6841L114.407 40.0898V51.8369C118.323 43.7711 124.735 40.0898 133.283 40.0898C149.667 40.0898 159.999 55.0385 159.999 73.3087C159.999 91.5788 149.667 106.527 133.283 106.527C124.735 106.527 118.323 102.61 114.407 94.7804V115.657L87.8109 137.104V137.108ZM133.403 73.3087C133.403 54.9186 127.587 48.1557 122.719 48.6314C119.155 48.9871 116.071 52.5484 114.407 57.2928V89.3245C116.071 94.0689 119.155 97.6302 122.719 97.9859C127.587 98.4616 133.403 92.1703 133.403 73.3087Z" fill="#004939"/>
<path d="M21.3258 71.6818V79.0322H17.2578V60.3184H26.6218C30.9018 60.3184 33.0978 62.2169 33.0978 65.9061C33.0978 69.5954 30.7698 71.6818 26.1938 71.6818H21.3258ZM21.3258 68.5801H26.3818C27.5338 68.5801 28.9498 67.7527 28.9498 65.8262C28.9498 64.1435 27.9338 63.42 26.2458 63.42H21.3218V68.5801H21.3258ZM37.6218 72.8289C37.7298 75.1032 39.1458 76.4102 41.2618 76.4102C42.8418 76.4102 44.0698 75.6628 44.4178 74.5676H48.1378C47.8178 77.5333 45.0618 79.5398 41.1298 79.5398C36.3138 79.5398 33.4258 76.5461 33.4258 72.1614C33.4258 67.7767 36.3698 64.5951 41.1298 64.5951C45.5698 64.5951 48.2458 67.377 48.2978 71.5739C48.2978 71.6258 48.2978 72.2174 48.2698 72.8289H37.6218ZM44.2538 70.2109C44.0658 68.712 42.8898 67.7248 41.1778 67.7248C39.4658 67.7248 38.3418 68.6601 37.8618 70.2109H44.2538ZM63.3298 69.5674V76.626C63.3298 77.6413 63.5178 78.3647 63.6258 79.0322H59.6138C59.3978 78.3367 59.3178 77.6173 59.2938 76.9458H59.0538C58.1698 78.4446 56.1898 79.4039 54.0498 79.4039C51.2418 79.4039 49.4218 77.6652 49.4218 75.339C49.4218 69.5634 58.9738 71.6498 59.3218 69.9111V69.6153C59.3218 68.76 58.1178 68.0645 56.5658 68.0645C55.0938 68.0645 53.9698 68.68 53.7578 69.5874H49.9338C50.0658 66.7255 52.8218 64.6151 56.5938 64.6151C60.3658 64.6151 63.3338 66.7535 63.3338 69.5594L63.3298 69.5674ZM59.2898 72.5891C57.4178 73.5524 53.5658 73.0447 53.5658 74.8873C53.5658 75.6348 54.3138 76.1983 55.4658 76.1983C57.3938 76.1983 59.2898 74.5396 59.2898 73.0687V72.5891ZM75.5578 79.0322L69.5098 71.9735V79.0322H65.4698V58.9834H69.5098V70.6905L75.3698 64.9948H80.6418L73.7138 71.2781L80.9898 79.0322H75.5578Z" fill="#004939"/>
<path d="M0 93.3212C0 87.1459 3.772 83.6446 9.576 83.6446C14.792 83.6446 18.192 86.7742 18.352 91.075H14.552C14.256 88.5609 12.332 87.01 9.736 87.01C6.284 87.01 4.2 89.2843 4.2 93.3452C4.2 97.4061 6.34 99.7883 9.82 99.7883C12.308 99.7883 14.18 98.2895 14.528 95.6994H18.328C18.14 99.7084 14.824 103.13 9.528 103.13C3.696 103.13 0.004 99.4926 0.004 93.3173L0 93.3212ZM29.964 92.302C29.564 92.2221 28.948 92.1701 28.492 92.1701C26.136 92.1701 24.264 93.7729 24.264 95.8593V102.622H20.224V88.5888H24.264V90.1676H24.372C25.2 89.0165 26.832 88.2171 28.544 88.2171C29.104 88.2171 29.668 88.2971 29.96 88.349V92.306L29.964 92.302ZM34.54 96.4189C34.648 98.6932 36.064 100 38.18 100C39.76 100 40.988 99.2527 41.336 98.1576H45.056C44.736 101.123 41.98 103.13 38.048 103.13C33.232 103.13 30.344 100.136 30.344 95.7514C30.344 91.3667 33.288 88.1851 38.048 88.1851C42.488 88.1851 45.164 90.967 45.216 95.1638C45.216 95.2158 45.216 95.8074 45.188 96.4189H34.54ZM41.176 93.8009C40.988 92.302 39.812 91.3148 38.1 91.3148C36.388 91.3148 35.264 92.2501 34.784 93.8009H41.176ZM57.632 82.7333H61.7V102.622H57.632V100.911H57.552C56.508 102.222 55.036 102.89 53.164 102.89C49.284 102.89 46.584 100.216 46.584 95.6715C46.584 91.1269 49.232 88.1052 53.14 88.1052C55.012 88.1052 56.484 88.8287 57.5 89.9238H57.632V82.7333ZM50.756 95.4596C50.756 97.7339 52.068 99.5485 54.208 99.5485C56.348 99.5485 57.632 97.7579 57.632 95.4836C57.632 93.2093 56.32 91.5546 54.208 91.5546C52.096 91.5546 50.756 93.1853 50.756 95.4556V95.4596ZM66.352 82.4375C67.796 82.4375 68.76 83.4008 68.76 84.8437C68.76 86.2866 67.796 87.2499 66.352 87.2499C64.908 87.2499 63.916 86.2866 63.916 84.8437C63.916 83.4008 64.88 82.4375 66.352 82.4375ZM68.388 102.622H64.32V88.5888H68.388V102.622ZM73.204 88.5888V84.1522H77.244V88.5888H80.588V91.9303H77.244V102.622H73.204V91.9303H69.968V88.5888H73.204ZM14.744 107.498V119.074C14.744 121.4 15.92 123.031 18.596 123.031C20.816 123.031 22.18 121.856 22.18 119.154V107.498H26.22V119.661C26.22 123.91 23.356 126.48 18.54 126.48C13.724 126.48 10.676 123.834 10.676 119.501V107.498H14.744ZM42.004 116.747V126.212H37.964V117.951C37.964 116.132 36.788 115.225 35.396 115.225C34.004 115.225 32.48 116.212 32.48 117.951V126.212H28.44V112.179H32.48V114.237H32.72C33.604 112.766 35.424 111.803 37.268 111.803C39.944 111.803 42.004 113.862 42.004 116.747ZM46.472 106.028C47.916 106.028 48.88 106.991 48.88 108.434C48.88 109.877 47.916 110.84 46.472 110.84C45.028 110.84 44.036 109.877 44.036 108.434C44.036 106.991 45 106.028 46.472 106.028ZM48.508 126.212H44.44V112.179H48.508V126.212ZM50.084 119.05C50.084 114.853 52.812 111.803 57.52 111.803C62.228 111.803 65.144 114.849 65.144 119.05C65.144 123.251 62.228 126.588 57.52 126.588C52.812 126.588 50.084 123.326 50.084 119.05ZM60.976 119.154C60.976 116.907 59.664 115.253 57.604 115.253C55.544 115.253 54.288 116.911 54.288 119.154C54.288 121.396 55.492 123.139 57.604 123.139C59.716 123.139 60.976 121.4 60.976 119.154ZM80.292 116.747V126.212H76.252V117.951C76.252 116.132 75.076 115.225 73.684 115.225C72.292 115.225 70.768 116.212 70.768 117.951V126.212H66.728V112.179H70.768V114.237H71.008C71.892 112.766 73.712 111.803 75.556 111.803C78.232 111.803 80.292 113.862 80.292 116.747Z" fill="#004939"/>
<defs>
<linearGradient id="paint0_linear_4303_404" x1="63.0987" y1="86.3021" x2="109.024" y2="12.5755" gradientUnits="userSpaceOnUse">
<stop stop-color="#7ECEB5"/>
<stop offset="1" stop-color="#F0B551"/>
</linearGradient>
</defs>
</svg>
