<svg xmlns:xlink="http://www.w3.org/1999/xlink" xmlns="http://www.w3.org/2000/svg" width="277" height="63" viewBox="0 0 277 63">
    <defs>
        <linearGradient id="a" x1="17.805%" x2="82.578%" y1="15.497%" y2="81.736%">
            <stop offset="0%" stop-color="#6B1F8D"/>
            <stop offset="100%" stop-color="#A04BAE"/>
        </linearGradient>
        <linearGradient id="b" x1="76.38%" x2="14.667%" y1="10.305%" y2="76.261%">
            <stop offset="0%" stop-color="#5F41A8"/>
            <stop offset="100%" stop-color="#452674"/>
        </linearGradient>
        <linearGradient id="c" x1="79.446%" x2="18.3%" y1="18.328%" y2="84.346%">
            <stop offset="0%" stop-color="#A4179D"/>
            <stop offset="100%" stop-color="#A34DAF"/>
        </linearGradient>
        <linearGradient id="d" x1="17.805%" x2="82.578%" y1="15.497%" y2="81.737%">
            <stop offset="0%" stop-color="#DE3BAA"/>
            <stop offset="100%" stop-color="#CA24A1"/>
        </linearGradient>
    </defs>
    <g fill="none" fill-rule="evenodd">
        <path fill="#442673" d="M171.203 3.55v47.09h-.627V3.55h.627zm-45.296.002H131.607l.256-.001c.193-.003.207.08.207.278v12.198c4.613-2.774 9.01-3.579 13.672-3.131 4.362.505 8.531 2.684 12.137 6.442 2.902 3.131 4.398 7.518 4.398 12.973 0 5.456-2.2 9.842-5.684 13.153-3.903 3.668-9.052 5.175-13.678 5.175-2.474 0-6.848-.254-10.845-2.491l.005 1.042v.659c0 .191-.002.339-.005.399-.011.253-.01.328-.323.36-.136.013-1.646.02-3.33.023h-1.797c-1.562-.003-2.906-.01-3.032-.022-.163-.016-.347.039-.351-.37v-.156-.105l-.002-2.685V38.86v-.61l.001-11.34v-.692l.001-10.623V4.458 3.79c-.005-.14.02-.238.19-.238H125.907zm-19.99 9.208c2.591 0 5.217.546 7.877 1.637 2.498 1.026 4.822 2.576 6.743 4.532.273.278.16.448-.017.68-.152.2-4.508 6.027-4.671 6.214-.155.179-.311.337-.544.06-1.081-1.285-2.44-2.246-3.992-2.962-1.676-.772-3.341-1.159-4.994-1.159-2.637 0-4.905.876-6.803 2.625-1.9 1.75-2.85 4.184-2.85 7.298s.95 5.535 2.85 7.263c1.898 1.727 4.288 2.633 6.835 2.668 5.726.078 8.882-1.856 11.697-4.563 1.768-1.7 2.727-2.898 3.212-3.583.323-.458.435-.515.435-.118v10.283c0 .764-.267 1.132-.404 1.302-3.968 4.9-9.947 5.672-15.173 5.672-5.408 0-9.978-1.74-13.708-5.218-3.732-3.477-5.598-8.023-5.598-13.638S88.7 21.57 92.476 18.045c3.776-3.523 8.256-5.285 13.441-5.285zM80.228 3.59c.326 0 .375.074.375.4v8.728h.129c.47.003 2.136.01 3.502.012h.468c.75 0 1.334-.004 1.448-.012.367-.027.516.042.52.442v8.093c0 .26-.192.434-.417.434h-5.65l.001 12.578c.004 1.367.032 3.151.232 4.669.175 1.341 1.11 2.616 2.462 3.013.687.202 1.962.549 3.824-1.02.044-.037.156-.04.216.102.174.424.67 1.458 1.852 3.004 1.331 1.739 2.333 2.642 2.681 2.934.088.074.022.212-.035.262-2.762 2.478-5.598 3.38-8.089 3.38-3.464 0-6.404-.946-8.795-3.266-2.39-2.318-3.165-5.84-3.165-9.841l-.084-15.815h-5.74c-.308 0-.34-.19-.342-.438v-8.053c0-.346 0-.478.324-.478h5.758V3.953c0-.313.069-.362.354-.362h.788L76.3 3.59h.302l3.625-.001zM210.563 36.54v4.23l3.479-4.23h2.446l-3.79 4.632 4.2 5.525h-2.39l-3.423-4.619-.522.533v4.086h-2.065V36.541h2.065zm-10.922 0l4.737 6.848V36.54h1.881v10.157h-1.753l-4.696-6.848v6.848h-1.88V36.541h1.71zm-6.58 0l3.267 9.309.283.848h-1.952l-1.089-3.122h-2.955l-1.09 3.122h-2.036l.269-.848 3.365-9.31h1.938zm-10.88 0c2.292 0 4.06.474 4.06 2.574 0 1.022-.538 1.627-1.273 2.073 1.06.46 1.597 1.309 1.597 2.532 0 2.158-1.654 2.978-3.988 2.978h-3.79V36.541h3.394zm.255 5.438h-1.584v3.295h1.457c1.415 0 2.22-.346 2.22-1.626 0-1.28-.665-1.67-2.093-1.67zm9.663-3.122l-1.046 3.439h2.036l-.99-3.44zm-49.875-17.104c-2.369 0-5.28 1.374-6.91 3.35-1.633 1.979-2.446 3.987-2.446 6.492 0 2.978.813 5.11 2.446 6.997 1.63 1.886 4.41 3.114 6.734 3.114 3.166 0 5.733-.67 7.476-2.556 1.798-1.828 2.902-3.797 2.902-7.376 0-3.4-1.055-5.547-2.638-7.158-2.199-2.326-5.196-2.863-7.564-2.863zm39.768 16.226h-1.14v2.605h1.57c1.146 0 1.825-.26 1.825-1.18 0-1.257-.848-1.414-2.255-1.425zm1.434-16.193c1.004 0 2.136.187 3.027.992l-.538 1.483c-.58-.49-1.187-.82-2.376-.82-1.753 0-2.998 1.38-2.998 3.596 0 2.418 1.245 3.655 2.984 3.655.877 0 1.74-.23 2.433-.763l.51 1.497c-1.048.762-2.066.892-3.056.892-2.687 0-4.964-1.914-4.964-5.295 0-3.223 2.164-5.237 4.978-5.237zm9.409 0c2.87 0 5.02 1.942 5.02 5.28 0 3.31-2.164 5.252-5.02 5.252-2.857 0-5.008-1.943-5.008-5.252 0-3.338 2.15-5.28 5.008-5.28zm11.571 0c2.872 0 5.02 1.942 5.02 5.28 0 3.31-2.163 5.252-5.02 5.252-2.857 0-5.006-1.943-5.006-5.252 0-3.338 2.15-5.28 5.006-5.28zm38.384.23l3.266 9.31.283.848h-1.952l-1.088-3.122h-2.956l-1.089 3.122h-2.037l.27-.849 3.365-9.309h1.938zm18.577 0l2.673 7.64 2.545-7.64h1.995l-3.649 10.158h-1.825l-3.79-10.158h2.05zm15.037 0l-.17 1.54h-4.271v2.518h4.115v1.525h-4.115v3.036l4.639.057-.085 1.482h-6.62V22.016h6.507zm-18.503 0v10.158h-2.066V22.016h2.066zm-3.37 0v1.54h-2.927v8.618h-2.051v-8.618h-2.914v-1.54h7.891zm-22.126 0c2.333 0 3.805.533 3.805 2.892 0 1.425-.637 2.26-1.783 2.69.424.504.651.993.962 1.64l1.414 2.936h-2.164l-1.088-2.417c-.255-.547-.877-1.756-.877-1.756-.227-.021-1.306-.026-1.801-.028h-.25v4.2h-2.065V22.017h3.847zm-17.755 0c2.404 0 3.96.95 3.96 3.165 0 1.828-.849 3.31-3.79 3.31-.424 0-.934 0-1.443-.043v3.726h-2.065V22.016h3.338zm12.052 0l-.17 1.54h-4.27v2.518h4.114v1.525h-4.115v3.036l4.639.057-.085 1.482h-6.619V22.016h6.506zm-22.281 1.425c-1.967 0-2.928 1.51-2.928 3.654 0 2.143.976 3.597 2.928 3.597 1.966 0 2.956-1.454 2.956-3.597 0-2.144-.976-3.654-2.956-3.654zm-11.572 0c-1.966 0-2.928 1.51-2.928 3.654 0 2.143.976 3.597 2.928 3.597 1.966 0 2.956-1.454 2.956-3.597 0-2.144-.976-3.654-2.956-3.654zm48.979.892l-1.047 3.439h2.037l-.99-3.44zm-27.164-.792h-1.287v3.453c.132.012.504.014.842.015h.276c1.81 0 2.12-.863 2.12-1.727v-.029c0-1.108-.706-1.712-1.951-1.712zm17.84 0h-1.88v2.95h1.838c1.286 0 1.838-.446 1.838-1.554 0-.978-.623-1.396-1.796-1.396zM185.66 7.492v1.54h-2.927v8.618h-2.05V9.032h-2.914v-1.54h7.891zm3.285 0v4.158h4.384V7.492h2.065V17.65h-2.065v-4.532h-4.384v4.532h-2.065V7.492h2.065zm15.178 0l-.17 1.54h-4.27v2.518h4.115v1.525h-4.115v3.035l4.639.058-.085 1.482h-6.62V7.492h6.506z"/>
        <path fill="url(#a)" d="M20.258 31.377l21.288 21.661-8.282 8.427-.289.294c-1.377 1.401-2.68 1.492-4.433-.292L9.614 42.207l10.644-10.83z"/>
        <path fill="url(#b)" d="M60.707 29.295c-.863-.88-8.57-8.721-8.57-8.721L30.85 42.234l10.644 10.83 18.928-19.258c1.753-1.784 1.664-3.11.286-4.511"/>
        <path fill="url(#c)" d="M20.246 9.724l10.644 10.83L9.602 42.215l-8.57-8.721c-1.377-1.401-1.467-2.727.286-4.51l18.44-18.764.488-.496z"/>
        <path fill="url(#d)" d="M28.776 1.05c1.377-1.402 2.68-1.492 4.433.291l18.928 19.26-10.644 10.83-21.288-21.66 8.43-8.578.14-.144z"/>
    </g>
</svg>