<svg xmlns="http://www.w3.org/2000/svg" xmlns:xlink="http://www.w3.org/1999/xlink" width="151" height="30" viewBox="0 0 151 30" version="1.1">
    <title>element/logo-black</title>
    <defs>
        <polygon id="path-1" points="0.218819578 0.0688840168 43.6862418 0.0688840168 43.6862418 29.3238018 0.218819578 29.3238018"/>
    </defs>
    <g id="✔︎-1.-Homepage" stroke="none" stroke-width="1" fill="none" fill-rule="evenodd">
        <g id="✔︎-lbcu-001_website_sticky-nav_1" transform="translate(-180.000000, -15.000000)">
            <g id="Group-11">
                <g id="element/logo-color" transform="translate(180.000000, 15.329384)">
                    <path d="M106.405729,20.1969355 C107.263038,20.1969355 107.945871,20.4601351 108.454808,20.9859532 C108.962875,21.5120618 109.217344,22.2185755 109.217344,23.1052036 C109.217344,24.0121672 108.962875,24.7276866 108.454808,25.2511807 C107.945871,25.7743842 107.250286,26.0361312 106.368052,26.0361312 C105.526104,26.0361312 104.852255,25.7711886 104.347666,25.2395604 C103.843077,24.7088036 103.590637,24.0008375 103.590637,23.1165334 C103.590637,22.2220616 103.844236,21.5120618 104.351724,20.9859532 C104.858342,20.4601351 105.543203,20.1969355 106.405729,20.1969355 Z M56.1366411,20.1969355 C56.7418004,20.1969355 57.3429021,20.2678193 57.9402361,20.4110394 L57.9402361,21.316841 C57.26262,21.078625 56.695428,20.9598076 56.2383704,20.9598076 C55.6532092,20.9598076 55.2019482,21.1457322 54.8845873,21.517291 C54.5672265,21.8897213 54.408691,22.4172824 54.408691,23.1017175 C54.408691,23.7727893 54.5793992,24.2962833 54.9208157,24.6721997 C55.2613628,25.0475351 55.7360998,25.2354933 56.3427083,25.2354933 C56.8875835,25.2354933 57.4379655,25.0977928 57.9921152,24.8221014 L57.9921152,25.6759023 C57.4553551,25.9161518 56.8139674,26.0361312 56.069691,26.0361312 C55.1599232,26.0361312 54.4510058,25.7799039 53.9435182,25.2659965 C53.4360307,24.7523797 53.1830115,24.0356983 53.1830115,23.1165334 C53.1830115,22.179938 53.4386392,21.4591895 53.9496046,20.9537069 C54.4602802,20.4490958 55.1897754,20.1969355 56.1366411,20.1969355 Z M89.4844549,20.335798 L89.4844549,23.7437385 C89.4844549,24.28292 89.5728522,24.6721997 89.7502265,24.9107062 C89.9276008,25.1503746 90.2139501,25.2697731 90.6089846,25.2697731 C90.9860499,25.2697731 91.2590672,25.1558943 91.4277466,24.9278461 C91.5964261,24.7000884 91.6807658,24.3331777 91.6807658,23.8262426 L91.6807658,20.335798 L92.6855969,20.335798 L92.6855969,23.7512917 C92.6855969,24.2651991 92.636906,24.6565123 92.5398138,24.9258125 C92.4418522,25.1951128 92.2644779,25.4286806 92.0068215,25.6268065 C91.6546814,25.8998833 91.1808138,26.0361312 90.5863781,26.0361312 C89.949048,26.0361312 89.4366334,25.8911681 89.0491344,25.6006609 C88.781334,25.3999204 88.5946852,25.1622854 88.4888983,24.8880466 C88.3825317,24.6140983 88.3294933,24.2312097 88.3294933,23.7402525 L88.3294933,20.335798 L89.4844549,20.335798 Z M111.777388,20.335798 L114.348735,24.1350518 L114.348735,20.335798 L115.274443,20.335798 L115.274443,25.8969783 L114.24034,25.8969783 L111.686962,22.0977245 L111.686962,25.8969783 L110.761253,25.8969783 L110.761253,20.335798 L111.777388,20.335798 Z M84.5014549,20.335798 L84.5014549,21.0989605 L82.5146891,21.0989605 L82.5146891,25.8969783 L81.3556699,25.8969783 L81.3556699,21.0989605 L79.368904,21.0989605 L79.368904,20.335798 L84.5014549,20.335798 Z M78.0768541,20.335798 L78.0768541,25.8972688 L76.9218925,25.8972688 L76.9218925,20.335798 L78.0768541,20.335798 Z M102.031946,20.335798 L102.031946,25.8972688 L100.877274,25.8972688 L100.877274,20.335798 L102.031946,20.335798 Z M72.7017179,20.335798 C73.5613455,20.335798 74.2201228,20.5647177 74.6771804,21.0216856 C75.1351075,21.478363 75.3626219,22.138105 75.3626219,22.9997495 C75.3626219,23.9168809 75.1203263,24.6289141 74.6363148,25.1361398 C74.151144,25.6433654 73.4729482,25.8969783 72.5999885,25.8969783 L70.3132514,25.8969783 L70.3132514,20.335798 L72.7017179,20.335798 Z M68.7342726,20.335798 L68.7342726,21.0989605 L66.4208714,21.0989605 L66.4208714,22.6508503 L68.3180806,22.6508503 L68.3180806,23.3942583 L66.4208714,23.3942583 L66.4208714,25.1082511 L68.9099079,25.1082511 L68.9099079,25.8969783 L65.2664894,25.8969783 L65.2664894,20.335798 L68.7342726,20.335798 Z M61.5338042,20.335798 C62.6603628,20.335798 63.2240768,20.7953805 63.2240768,21.7148359 C63.2240768,22.0582155 63.1284338,22.3702203 62.936858,22.6520123 C62.7461516,22.9340948 62.4829885,23.1499417 62.148238,23.3004245 L63.9625566,25.8969783 L62.5566046,25.8969783 L61.1807946,23.623759 L60.5437543,23.623759 L60.5437543,25.8969783 L59.4566123,25.8969783 L59.4566123,20.335798 L61.5338042,20.335798 Z M95.5256142,20.335798 L98.0969616,24.1350518 L98.0969616,20.335798 L99.0226699,20.335798 L99.0226699,25.8969783 L97.9885662,25.8969783 L95.4351881,22.0977245 L95.4351881,25.8969783 L94.50919,25.8969783 L94.50919,20.335798 L95.5256142,20.335798 Z M106.405729,20.9598076 C105.923457,20.9598076 105.537987,21.1550284 105.249608,21.5457607 C104.96094,21.9367834 104.816317,22.458825 104.816317,23.1124663 C104.816317,23.7614595 104.960361,24.283501 105.24758,24.6780099 C105.534509,25.0728092 105.913603,25.2697731 106.383413,25.2697731 C106.878148,25.2697731 107.269994,25.0751333 107.558372,24.685563 C107.84762,24.2962833 107.991664,23.7678506 107.991664,23.1017175 C107.991664,22.4550484 107.84675,21.9367834 107.556923,21.5457607 C107.266516,21.1550284 106.882785,20.9598076 106.405729,20.9598076 Z M72.1655374,21.0989605 L71.4685029,21.0989605 L71.4685029,25.1082511 L72.330739,25.1082511 C72.9373474,25.1082511 73.3906372,24.9397569 73.689739,24.6027685 C73.988261,24.2657801 74.1369424,23.7539063 74.1369424,23.0674377 C74.1369424,22.5366809 74.0178234,22.0945289 73.7775566,21.7409816 C73.6120653,21.4981175 73.4138234,21.3304948 73.1810921,21.2375325 C72.9492303,21.1451512 72.6107121,21.0989605 72.1655374,21.0989605 Z M60.9445854,21.0989605 L60.5437543,21.0989605 L60.5437543,22.860887 L60.8095259,22.860887 C61.6468369,22.860887 62.0653474,22.521284 62.0653474,21.8429496 C62.0653474,21.3461822 61.6917601,21.0989605 60.9445854,21.0989605 Z M69.8712649,3.3739512 C71.1160729,3.3739512 72.0707639,3.61013359 72.735048,4.08220787 C73.3996219,4.55428215 73.7317639,5.23435963 73.7317639,6.12214978 C73.7317639,7.63453052 72.879382,8.71056938 71.174618,9.35142837 C73.2103647,9.97543794 74.2279482,11.1023156 74.2279482,12.7320612 C74.2279482,13.7436075 73.8914587,14.5166473 73.2187697,15.0505996 C72.5457908,15.5845519 71.575739,15.8515281 70.3083244,15.8515281 L66.6414299,15.8515281 L66.6414299,3.3739512 L69.8712649,3.3739512 Z M103.974369,3.3739512 L103.974369,4.69750223 L99.5588503,4.69750223 L99.5588503,15.8515281 L97.7923532,15.8515281 L97.7923532,4.69750223 L93.3765451,4.69750223 L93.3765451,3.3739512 L103.974369,3.3739512 Z M106.864526,3.3739512 L110.094361,9.00572474 L113.576925,3.3739512 L115.216768,3.3739512 L110.76734,10.6075817 L110.76734,15.8515281 L109.000553,15.8515281 L109.000553,10.6415711 L104.845879,3.3739512 L106.864526,3.3739512 Z M125.123353,3.3739512 C126.368161,3.3739512 127.322562,3.61013359 127.987426,4.08220787 C128.652,4.55428215 128.984432,5.23435963 128.984432,6.12214978 C128.984432,7.63453052 128.13176,8.71056938 126.426996,9.35142837 C128.462163,9.97543794 129.480906,11.1023156 129.480906,12.7320612 C129.480906,13.7436075 129.143837,14.5166473 128.471148,15.0505996 C127.798459,15.5845519 126.828117,15.8515281 125.560992,15.8515281 L121.893808,15.8515281 L121.893808,3.3739512 L125.123353,3.3739512 Z M137.00772,3.3739512 L141.869282,15.8515281 L139.9599,15.8515281 L138.605827,12.3947823 L133.33242,12.3947823 L131.960958,15.8515281 L130.320825,15.8515281 L135.258322,3.3739512 L137.00772,3.3739512 Z M142.570954,3.3739512 L145.800789,9.00572474 L149.282774,3.3739512 L150.923196,3.3739512 L146.473768,10.6075817 L146.473768,15.8515281 L144.707271,15.8515281 L144.707271,10.6415711 L140.552307,3.3739512 L142.570954,3.3739512 Z M63.8498138,3.3739512 L63.8498138,15.8515281 L62.0836065,15.8515281 L62.0836065,3.3739512 L63.8498138,3.3739512 Z M54.9492188,3.3739512 L54.9492188,14.5279771 L60.551,14.5279771 L60.551,15.8515281 L53.1830115,15.8515281 L53.1830115,3.3739512 L54.9492188,3.3739512 Z M88.9992841,3.3739512 C90.1936622,3.3739512 91.1089367,3.6383128 91.7453973,4.16645498 C92.381858,4.69488766 92.7000883,5.46211731 92.7000883,6.46785341 C92.7000883,8.13187894 91.861618,9.31220989 90.1852572,10.0091368 L94.3402207,15.8515281 L92.1702841,15.8515281 L88.6291747,10.5738829 L86.9803474,10.5738829 L86.9803474,15.8515281 L85.2312399,15.8515281 L85.2312399,3.3739512 L88.9992841,3.3739512 Z M83.2470825,3.3739512 L83.2470825,4.69750223 L78.0574357,4.69750223 L78.0574357,8.70214467 L82.4060038,8.70214467 L82.4060038,10.0091368 L78.0574357,10.0091368 L78.0574357,14.5279771 L83.6084971,14.5279771 L83.6084971,15.8515281 L76.2912284,15.8515281 L76.2912284,3.3739512 L83.2470825,3.3739512 Z M68.8870115,9.97543794 L68.3905374,9.97543794 L68.3905374,14.5279771 L68.7525317,14.5279771 C70.0477697,14.5279771 70.8859501,14.4463445 71.2673628,14.2833699 C71.9962783,13.9742702 72.360881,13.4010994 72.360881,12.5632765 C72.360881,11.8216115 72.0298983,11.2048646 71.3682226,10.7127453 C70.706547,10.2212071 69.8796699,9.97543794 68.8870115,9.97543794 Z M124.139679,9.97543794 L123.643495,9.97543794 L123.643495,14.5279771 L124.0052,14.5279771 C125.299858,14.5279771 126.138328,14.4463445 126.519741,14.2833699 C127.248656,13.9742702 127.612969,13.4010994 127.612969,12.5632765 C127.612969,11.8216115 127.282566,11.2048646 126.620311,10.7127453 C125.959215,10.2212071 125.131468,9.97543794 124.139679,9.97543794 Z M135.973326,5.70091427 L133.845125,11.079656 L138.092543,11.079656 L135.973326,5.70091427 Z M88.0906756,4.69750223 L86.9803474,4.69750223 L86.9803474,9.25004134 L87.5527562,9.25004134 C89.7731228,9.25004134 90.8834511,8.37648604 90.8834511,6.62821341 C90.8834511,5.34126629 89.9525259,4.69750223 88.0906756,4.69750223 Z M69.0806161,4.69750223 L68.3905374,4.69750223 L68.3905374,8.85407996 L68.9542514,8.85407996 C69.8964798,8.85407996 70.6268445,8.65188691 71.1453455,8.24691981 C71.6638464,7.84224321 71.9235317,7.27197748 71.9235317,6.53525109 C71.9235317,5.31018202 70.9757965,4.69750223 69.0806161,4.69750223 Z M124.333284,4.69750223 L123.643495,4.69750223 L123.643495,8.85407996 L124.20663,8.85407996 C125.148568,8.85407996 125.879223,8.65188691 126.397724,8.24691981 C126.916225,7.84224321 127.17562,7.27197748 127.17562,6.53525109 C127.17562,5.31018202 126.228464,4.69750223 124.333284,4.69750223 Z" id="Combined-Shape" fill="#121B2B"/>
                    <g id="Group" stroke-width="1">
                        <path d="M24.3063628,0.167622683 C10.8818541,0.167622683 8.23738603e-15,6.66859392 8.23738603e-15,14.6886276 C8.23738603e-15,22.7080802 10.8818541,29.2090514 24.3063628,29.2090514 C37.7305816,29.2090514 48.6121459,22.7080802 48.6121459,14.6886276 C48.6121459,6.66859392 37.7305816,0.167622683 24.3063628,0.167622683" id="Fill-22" fill="#4A80B5"/>
                        <path d="M18.985714,9.33283591 C19.3604607,8.26522176 20.4194894,5.31395861 22.1309194,4.61412665 C22.1309194,4.61412665 22.9766353,4.25651222 24.268975,4.25709253 C25.5813129,4.25796476 26.4305067,4.62632795 26.4305067,4.62632795 C27.7929846,5.25876224 29.174881,8.26986988 29.5226737,9.33806504 C28.3529309,9.12047511 26.4281881,8.72538525 24.2585413,8.72451373 C22.0894741,8.7233517 20.1609635,9.11640801 18.985714,9.33283591" id="Fill-23" fill="#121B2C"/>
                        <path d="M17.7388772,10.1671727 C17.8000307,9.68986932 20.7252572,9.05540148 24.272453,9.05540148 C27.8196488,9.05540148 30.7364702,9.68986932 30.7860307,10.1671727 C30.83762,10.6523198 27.9121036,11.0520578 24.2515854,11.0520578 C20.591357,11.0520578 17.6756948,10.6523198 17.7388772,10.1671727" id="Fill-24" fill="#121B2C"/>
                        <path d="M17.7388772,10.1671727 C17.8000307,9.68986932 20.7252572,9.05540148 24.272453,9.05540148 C27.8196488,9.05540148 30.7364702,9.68986932 30.7860307,10.1671727 C30.83762,10.6523198 27.9121036,11.0520578 24.2515854,11.0520578 C20.591357,11.0520578 17.6756948,10.6523198 17.7388772,10.1671727 Z" id="Stroke-25" stroke="#121B2C" stroke-width="0.919"/>
                        <path d="M19.1193244,10.69822 C19.1494664,10.4068412 20.702071,9.67447243 24.2652073,9.67447243 C27.9961536,9.67447243 29.3623992,10.4068412 29.3855854,10.69822 L30.7393685,20.8956055 C30.7037198,20.4883143 27.753858,20.1623652 24.1504357,20.1623652 C20.5467236,20.1623652 17.5893263,20.4883143 17.5438234,20.8956055 L19.1193244,10.69822" id="Fill-26" fill="#F7C34A"/>
                        <path d="M16.0929482,20.8040957 C16.1856929,20.1594601 19.4161075,19.6194071 24.1565221,19.6194071 C28.8972265,19.6194071 32.1140192,20.1594601 32.1916929,20.8040957 C32.2322687,21.1445702 31.9076622,21.5849792 30.2156507,21.8243571 L30.1397159,21.376976 C30.1107332,21.0039647 27.4263532,20.7041612 24.1437697,20.7041612 C20.861476,20.7041612 18.1701401,21.0039647 18.1324626,21.376976 L18.0458042,21.8243571 C16.3590096,21.5849792 16.0442572,21.1445702 16.0929482,20.8040957 Z" id="Stroke-27" stroke="#002344" stroke-width="1.01"/>
                        <path d="M18.0878292,21.9620576 C18.1260864,21.5838171 20.8345221,21.2799466 24.1371036,21.2799466 C27.439975,21.2799466 30.1408752,21.5838171 30.1704376,21.9620576 L31.2433781,28.3015068 C29.1977774,28.6448863 27.039144,28.8284869 24.8092131,28.8284869 C22.0425221,28.8284869 19.3871248,28.5458234 16.9189559,28.0261059 L18.0878292,21.9620576" id="Fill-28" fill="#121B2C"/>
                        <path d="M25.003977,13.1991969 C25.6016008,13.4824415 26.0279367,14.1177808 26.042428,14.8742617 C26.0572092,15.6496255 25.6352207,16.3334796 25.0100633,16.6475179 C25.5476929,16.3116916 25.9053397,15.6356812 25.8922975,14.8742617 C25.8804146,14.1311442 25.5178407,13.5019054 25.003977,13.1991969 Z M22.5108829,14.8742617 C22.5407351,14.1177808 22.9806929,13.4824415 23.5838234,13.1991969 C23.0632937,13.5019054 22.6882572,14.1311442 22.6607236,14.8742617 C22.6326104,15.6356812 22.9763455,16.3116916 23.5064395,16.6475179 C22.8879482,16.3334796 22.4798714,15.6496255 22.5108829,14.8742617 L22.5108829,14.8742617 Z" id="Fill-29" fill="#FFFFFE"/>
                        <path d="M25.294094,12.8075931 C26.1351727,13.1544588 26.7429405,13.9376663 26.7716334,14.8742617 C26.8017754,15.8410698 26.2105278,16.6980662 25.3239463,17.0928656 C26.0853225,16.6701775 26.5858541,15.8236394 26.5594798,14.8742617 C26.5342649,13.9542252 26.0186622,13.1794424 25.294094,12.8075931 Z M21.7813877,14.8742617 C21.8297889,13.9376663 22.4534971,13.1544588 23.3015317,12.8075931 C22.5697179,13.1794424 22.0381747,13.9542252 21.9938311,14.8742617 C21.9480384,15.8236394 22.4311804,16.6701775 23.1838618,17.0928656 C22.3056852,16.6980662 21.7318273,15.8410698 21.7813877,14.8742617 L21.7813877,14.8742617 Z" id="Fill-30" fill="#FFFFFE"/>
                        <path d="M25.5795739,12.3337758 C26.6609194,12.7573354 27.4504088,13.7183333 27.5005489,14.8742617 C27.5527179,16.0763807 26.7942399,17.1512575 25.6430461,17.6488964 C26.631357,17.1161061 27.2724549,16.0551737 27.2263724,14.8742617 C27.1823186,13.7377973 26.5110787,12.7872576 25.5795739,12.3337758 Z M21.052762,14.8742617 C21.1266679,13.7183333 21.9358656,12.7573354 23.025906,12.3337758 C22.0851267,12.7872576 21.3941785,13.7377973 21.3269386,14.8742617 C21.2568004,16.0551737 21.8755816,17.1158156 22.8534587,17.6488964 C21.712119,17.1506765 20.9762476,16.0763807 21.052762,14.8742617 L21.052762,14.8742617 Z" id="Fill-31" fill="#FFFFFE"/>
                        <path d="M25.9337428,11.5781664 C27.3144798,12.121415 28.3401785,13.3633335 28.4294453,14.8742617 C28.5224798,16.4653699 27.5573551,17.9036713 26.0615566,18.5753241 C27.3446219,17.8566091 28.158167,16.4363192 28.0761459,14.8742617 C27.9976027,13.3891886 27.1240633,12.1600525 25.9337428,11.5781664 Z M20.1241555,14.8742617 C20.2438541,13.3633335 21.2953474,12.121415 22.6873877,11.5781664 C21.4848944,12.160343 20.5864299,13.3894791 20.4771651,14.8742617 C20.3629731,16.4363192 21.1472457,17.8566091 22.4161094,18.5753241 C20.9333532,17.9036713 19.9983704,16.4653699 20.1241555,14.8742617 L20.1241555,14.8742617 Z" id="Fill-32" fill="#FFFFFE"/>
                        <path d="M26.3102284,11.0506053 C28.0129635,11.6760674 29.2937102,13.1126257 29.4261612,14.8742617 C29.5673071,16.7451284 28.3830729,18.4518585 26.5160058,19.253368 C28.1167217,18.3960811 29.112858,16.7117201 28.9882322,14.8742617 C28.8702726,13.142548 27.7790729,11.721096 26.3102284,11.0506053 Z M19.1268599,14.8742617 C19.2955393,13.1126257 20.6061382,11.6760674 22.3219155,11.0506053 C20.8391593,11.721096 19.7181075,13.1428385 19.5647889,14.8742617 C19.4024856,16.7117201 20.3644223,18.3960811 21.9474587,19.253368 C20.0966219,18.4518585 18.9477466,16.7451284 19.1268599,14.8742617 L19.1268599,14.8742617 Z" id="Fill-33" fill="#FFFFFE"/>
                        <path d="M32.1916929,20.8040957 C32.1641593,20.5760475 31.7421708,20.3610721 30.9999232,20.1786336 L29.5516564,10.2244027 L29.1595202,10.2244027 L30.4770749,20.0653357 C29.0638772,19.795164 26.8585816,19.6194071 24.1565221,19.6194071 C21.4547524,19.6194071 19.2448196,19.795164 17.8255355,20.0653357 L19.3636488,10.2244027 L18.9720921,10.2244027 L17.3003685,20.1786336 C16.5531939,20.3610721 16.1256987,20.5760475 16.0929482,20.8040957 C16.0442572,21.1445702 16.3590096,21.5849792 18.0458042,21.8243571 L18.1324626,21.376976 C18.1701401,21.0039647 20.861476,20.7041612 24.1437697,20.7041612 C27.4263532,20.7041612 30.1107332,21.0039647 30.1397159,21.376976 L30.2156507,21.8243571 C31.9076622,21.5849792 32.2322687,21.1445702 32.1916929,20.8040957 Z M26.5058618,19.6316084 L26.0769175,9.41359692 L25.6873896,9.41359692 L26.002142,19.6316084 L26.5058618,19.6316084 L26.5058618,19.6316084 Z" id="Fill-34" fill="#121B2C"/>
                        <path d="M23.5328138,14.8434679 C23.5438273,14.3737177 23.9356737,13.9980918 24.4086718,13.9980918 C24.8819597,13.9980918 25.2674299,14.3737177 25.2700384,14.8434679 C25.2703282,14.8716471 25.2691689,14.8992453 25.2668503,14.927134 C25.159904,14.7935007 24.9952821,14.707801 24.8106622,14.707801 C24.492142,14.707801 24.2307179,14.9634474 24.2269501,15.2812624 C24.2252111,15.4517901 24.2973781,15.6060495 24.4141785,15.7132466 C23.9069808,15.7132466 23.5218004,15.3210618 23.5328138,14.8434679" id="Fill-35" fill="#FFFFFE"/>
                        <path d="M22.6172495,4.22310389 C22.7302821,3.89395918 23.1632841,3.07008062 23.5910691,2.50010539 C23.5910691,2.50010539 24.0017543,2.39145568 24.2704242,2.38942213 C24.5530058,2.38767909 24.9848484,2.50010539 24.9848484,2.50010539 C25.40162,3.07008062 25.8114357,3.89657374 25.9169328,4.22571846 C25.5517505,4.15861128 24.94862,4.03340266 24.2683954,4.03340266 C23.5884607,4.03340266 22.9844607,4.15599672 22.6172495,4.22310389" id="Fill-36" fill="#121B2C"/>
                        <path d="M24.1994165,4.59321013 C24.0716027,4.74398339 23.7997447,5.13965426 23.5348426,5.99142152 C23.6878714,5.16957651 23.915096,4.77361513 24.0266795,4.61848426 L24.1994165,4.59321013 Z M22.6294223,6.67527559 C22.8334607,5.55478912 23.331094,4.90637694 23.4983244,4.71377063 L23.6899002,4.67687621 C23.530785,4.85437614 23.0430058,5.46386035 22.6294223,6.67527559 Z M21.7240019,7.35912965 C21.9648484,6.01814819 22.7192687,5.09462564 22.9476526,4.83926977 L23.1548791,4.78930252 C22.953739,5.01589817 22.2662687,5.86011224 21.7240019,7.35912965 Z M20.8180019,8.04298372 C21.0820345,6.55645812 22.0219443,5.38861898 22.3555355,5.01241209 L22.5859482,4.94007578 C22.3039463,5.26805847 21.4605489,6.33567261 20.8180019,8.04298372 Z M21.9633992,5.15563216 C21.5663359,5.63613115 20.623238,6.89054146 19.9125816,8.72683778 C20.1858887,7.17523856 21.205501,5.83541913 21.6837159,5.27677368 C21.7747217,5.23406912 21.8683359,5.19397912 21.9633992,5.15563216 L21.9633992,5.15563216 Z" id="Fill-37" fill="#4F84B8"/>
                        <g id="Group-42" transform="translate(2.318618, 0.000000)">
                            <mask id="mask-2" fill="white">
                                <use xlink:href="#path-1"/>
                            </mask>
                            <g id="Clip-39"/>
                            <path d="M17.2577639,22.4361654 L17.5200576,22.4036286 L16.4413205,28.3648374 L16.277858,28.3392727 L17.2577639,22.4361654 Z M16.3190134,22.6055311 C16.4097294,22.5825811 16.5102994,22.5605025 16.6207236,22.5387145 L15.4501113,28.1957621 L15.2657812,28.1609013 L16.3190134,22.6055311 Z M20.9130653,22.198821 L21.0347927,22.1964969 L20.4945547,28.7791007 L20.4191996,28.7753241 L20.9130653,22.198821 Z M20.0047466,22.2243856 L20.1615432,22.2185755 L19.4720441,28.7151891 L19.3752418,28.7076359 L20.0047466,22.2243856 Z M19.0941094,22.2685427 L19.2856852,22.2575034 L18.453881,28.6248413 L18.3353417,28.6123495 L19.0941094,22.2685427 Z M18.1794146,22.3359404 L18.4060595,22.3164764 L17.4429635,28.5074764 L17.3023973,28.489465 L18.1794146,22.3359404 L18.1794146,22.3359404 Z" id="Fill-38" fill="#4F84B8" mask="url(#mask-2)"/>
                            <path d="M0.218819578,21.1515423 C1.87547217,23.199328 4.24046257,24.9423715 7.24771017,26.3327391 C10.9757582,28.0563187 15.2382476,29.0504345 19.9172188,29.2869074 C24.4628695,29.5166986 28.8111478,29.0167356 32.8403263,27.8000913 C35.0285221,27.1394778 37.0320979,26.2853865 38.7954069,25.2613484 C40.8305739,24.0792744 42.4765029,22.7226056 43.6862418,21.2285268 L42.8950134,20.5847627 C41.7635278,21.9815216 40.2123724,23.2577199 38.2844415,24.3773349 C36.5898215,25.3618639 34.6592821,26.1845805 32.5464415,26.8222439 C28.6294261,28.0043179 24.3973685,28.4903365 19.9685182,28.2666459 C15.4202591,28.0368547 11.2838445,27.0738231 7.67462572,25.404859 C4.81026296,24.0807269 2.56815931,22.4329698 1.01033781,20.5080688 L0.218819578,21.1515423" id="Fill-40" fill="#121B2C" mask="url(#mask-2)"/>
                            <path d="M13.0813532,1.09201675 C8.48266411,2.18577655 4.69578119,4.02236338 1.82533205,6.55035747 L2.49831094,7.31787762 C5.24210557,4.90114781 8.88175624,3.14096438 13.3166929,2.08584205 C17.3835489,1.1178719 21.6524146,0.854091314 26.0044607,1.30205349 C30.5866296,1.77325625 34.6285605,2.97857083 38.0172207,4.88487941 C39.2536238,5.58035376 40.3877179,6.38041073 41.3873321,7.26239074 L42.0608906,6.49574211 C41.0073685,5.56611891 39.8147294,4.72480991 38.5157236,3.99389367 C35.0047562,2.01931589 30.8303743,0.771587255 26.1085086,0.285859134 C21.6422706,-0.173723335 17.2595029,0.0976104359 13.0813532,1.09201675" id="Fill-41" fill="#121B2B" mask="url(#mask-2)"/>
                        </g>
                        <polyline id="Fill-43" fill="#FFFFFE" points="33.006977 2.82460199 33.5675029 4.55341063 35.3803724 4.55341063 33.912977 5.62131528 34.4735029 7.35041443 33.006977 6.28163826 31.5395816 7.35041443 32.1003973 5.62131528 30.6330019 4.55341063 32.4458714 4.55341063 33.006977 2.82460199"/>
                        <path d="M17.6487409,13.425502 L4.21119002,6.50097124 C4.00860077,6.6799237 3.81296737,6.86178124 3.62371017,7.04654385 L3.62950672,7.04944892 L13.7928791,12.0133463 L3.20693858,7.46574581 C3.01449328,7.66793886 2.82987332,7.87332748 2.65307869,8.08133067 L13.9789482,12.6463616 L2.23862572,8.59581901 C2.06414971,8.82299568 1.89460077,9.0522059 1.73925336,9.28490221 L14.2615298,13.2738573 L1.35552207,9.897582 C1.20915931,10.1488708 1.07380998,10.4024836 0.950053743,10.659292 L14.1342956,13.7619094 L0.647763916,11.3626101 C0.541107486,11.6342343 0.446913628,11.9084732 0.365761996,12.1853266 L14.5467198,14.3371138 L0.175635317,12.961562 C0.118539347,13.2465496 0.0753550864,13.5344423 0.0460825336,13.8243685 L14.4380345,14.826909 L0.00144913628,14.6363363 C0.00115930902,14.6604484 1.02967325e-15,14.6839794 1.02967325e-15,14.707801 C1.02967325e-15,14.9771013 0.0133320537,15.2452395 0.0376775432,15.5110536 L14.5412131,15.3228049 L0.150420345,16.3177922 C0.20374856,16.6053944 0.271278311,16.889801 0.352429942,17.172174 L14.4258618,15.8300305 L0.605738964,17.9312695 C0.709497121,18.2028938 0.826297505,18.471613 0.955560461,18.7374271 L14.5574434,16.309658 L1.31668522,19.4172141 C1.46072937,19.6664693 1.6163666,19.9131099 1.78243762,20.155974 L14.2131286,16.9072314 L2.20529559,20.7387315 C2.37832246,20.9630031 2.56091363,21.1846602 2.75219962,21.4025406 L17.0940115,16.4363192 L17.6487409,13.425502" id="Fill-44" fill="#FFFFFE"/>
                        <path d="M48.6130154,14.6360458 L34.1399117,14.826909 L48.5672226,13.8217539 C48.5379501,13.5315372 48.494476,13.2436445 48.4368004,12.9577854 L34.0309367,14.3371138 L48.2446449,12.180388 C48.1626238,11.9032441 48.0675605,11.6292957 47.9600345,11.3573809 L34.443071,13.7619094 L47.6493397,10.6529008 C47.524714,10.3963829 47.3879155,10.1424796 47.2406833,9.89148135 L34.3164165,13.2738573 L46.8552131,9.27909207 C46.6987063,9.04639576 46.5320557,8.81660452 46.3564203,8.59000887 L34.5989981,12.6463616 L45.9387793,8.07552053 C45.761405,7.86780785 45.5756257,7.66300023 45.3823109,7.4610977 L34.7850672,12.0133463 L44.9481497,7.04944892 L44.9635106,7.04189573 C44.773094,6.85771414 44.576881,6.6758566 44.3734223,6.49748515 L30.9292054,13.425502 L31.4836449,16.4363192 L45.8538599,21.4121274 C46.0454357,21.1939564 46.2283167,20.9725899 46.4019232,20.7486088 L34.3645278,16.9072314 L46.8262303,20.1641082 C46.9925912,19.9206631 47.1488081,19.674313 47.293142,19.4244767 L34.0199232,16.309658 L47.6557159,18.7432372 C47.7852687,18.4774231 47.9026488,18.2084134 48.0064069,17.9364986 L34.1520845,15.8300305 L48.2608752,17.1753696 C48.3423167,16.8932871 48.4098464,16.608009 48.4634645,16.3204068 L34.0367332,15.3228049 L48.5764971,15.5116346 C48.6008426,15.24553 48.6141747,14.9776823 48.6141747,14.707801 C48.6141747,14.6836889 48.6130154,14.6598673 48.6130154,14.6360458" id="Fill-45" fill="#FFFFFE"/>
                    </g>
                </g>
            </g>
        </g>
    </g>
</svg>