<svg width="227" height="177" viewBox="0 0 227 177" fill="none" xmlns="http://www.w3.org/2000/svg">
<g clip-path="url(#clip0_723_966)">
<path d="M42.4264 90.9516H28.2514V89.8176C30.4614 89.5476 32.0014 89.3656 32.0014 86.6016V76.1786H21.9574V86.6016C21.9574 89.3656 23.4994 89.5476 25.7074 89.8176V90.9516H11.6594V89.8176C13.8694 89.5016 15.2024 89.2756 15.2024 86.6016V64.6686C15.2024 61.7226 13.4094 61.6336 11.6594 61.4526V60.3186H25.7084V61.4526C23.8744 61.5886 21.9574 61.6796 21.9574 64.6686V74.0506H32.0024V64.6686C32.0024 61.6786 30.0854 61.5886 28.2514 61.4526V60.3186H42.4264V61.4526C40.6334 61.5886 38.7564 61.7226 38.7564 64.6686V86.6016C38.7564 89.3206 40.2164 89.5016 42.4264 89.8176V90.9516ZM58.6424 90.9516H44.0514V89.8176C46.3014 89.5916 47.9284 89.4106 47.9284 86.6016V64.6686C47.9284 61.6786 45.9684 61.5886 44.0514 61.4526V60.3186H58.6414V61.4526C56.6834 61.5426 54.6814 61.5886 54.6814 64.6686V86.6016C54.6814 89.5016 56.3494 89.6376 58.6414 89.8176L58.6424 90.9516ZM60.1004 89.8176C62.6024 89.5016 63.7704 89.1836 63.7704 86.1936V64.7136C61.4354 61.5886 60.7684 61.4536 60.2264 61.4536V60.3186H69.0224L83.4884 79.6686H83.5724V65.9386C83.5724 63.2186 83.0724 61.7226 79.6954 61.4526V60.3186H88.6584V61.4526C85.6564 61.8596 85.4064 62.9026 85.4064 65.0776V91.7676H84.2384L65.6874 67.2076H65.6054V85.3316C65.6054 88.5946 66.4794 89.4566 69.5644 89.8176V90.9516H60.1004V89.8176ZM117.672 79.0796C115.087 79.3966 114.087 79.5326 114.087 83.2486V89.0036C112.085 90.5436 106.457 91.8116 102.831 91.8116C92.4084 91.8116 87.7384 83.7916 87.7384 75.9066C87.7384 66.9796 93.4934 59.6406 102.497 59.6406C106.25 59.6406 109.46 61.8596 110.543 61.8596C111.668 61.8596 112.043 60.9086 112.461 59.7756H113.587V70.3786H112.545C111.085 66.4366 107.584 61.1346 102.831 61.1346C96.7864 61.1346 95.1194 68.0226 95.1194 75.8166C95.1194 79.0326 95.3694 90.3166 103.248 90.3166C106.916 90.3166 107.584 88.9586 107.584 87.0096V82.2516C107.584 79.3506 106.25 79.2606 103.372 79.0796V77.9466H117.672V79.0796ZM147.772 90.9516H133.598V89.8176C135.808 89.5476 137.348 89.3656 137.348 86.6016V76.1786H127.301V86.6016C127.301 89.3656 128.844 89.5476 131.052 89.8176V90.9516H117.003V89.8176C119.215 89.5016 120.549 89.2756 120.549 86.6016V64.6686C120.549 61.7226 118.755 61.6336 117.003 61.4526V60.3186H131.053V61.4526C129.22 61.5886 127.302 61.6796 127.302 64.6686V74.0506H137.347V64.6686C137.347 61.6786 135.431 61.5886 133.598 61.4526V60.3186H147.771V61.4526C145.981 61.5886 144.101 61.7226 144.101 64.6686V86.6016C144.101 89.3206 145.563 89.5016 147.771 89.8176V90.9516H147.772ZM178.122 89.8176V90.9516H164.614V89.8176C167.196 89.5906 167.948 89.5476 167.948 88.0506C167.948 86.8276 166.614 83.4756 166.031 82.0246H156.651C155.484 85.2876 154.817 87.1446 154.817 87.8706C154.817 89.5906 156.817 89.7276 158.233 89.8176V90.9516H149.773V89.8176C152.024 89.4576 152.607 87.9156 153.857 84.5156L163.112 59.6856H164.278L173.576 83.5196C175.454 88.3696 176.122 89.9096 178.122 89.8176ZM157.276 80.2556H165.406L161.196 69.2466L157.276 80.2556ZM216.224 90.9516H202.384V89.8176C204.884 89.5476 206.093 89.4106 206.093 86.4196V63.5816H206.009L195.588 90.9516H194.463L184.04 64.2616H183.956V85.3316C183.956 88.5046 184.708 89.5916 188.166 89.8176V90.9516H178.411V89.8176C181.663 89.5016 182.207 88.8206 182.207 86.1936V64.6686C182.207 62.3126 181.455 61.6786 178.495 61.4526V60.3186H189.042L197.379 81.7066L205.719 60.3186H216.224V61.4526C213.888 61.6326 212.554 61.7226 212.554 65.6206V85.6486C212.554 89.2756 213.472 89.4106 216.224 89.8176V90.9516ZM33.3564 135.647C32.4224 132.153 29.3064 126.412 23.1774 126.412C20.4774 126.412 17.6224 127.909 17.6224 131.154C17.6224 133.852 18.6084 134.947 22.9694 137.044L30.6044 140.689C32.3694 141.539 36.3154 144.432 36.3154 149.876C36.3154 154.269 32.9934 160.309 23.4374 160.309C18.5044 160.309 16.1674 158.611 14.5584 158.611C13.4684 158.611 13.2064 159.511 12.9994 160.309H11.4934V147.977H12.9994C14.0394 153.021 17.0504 158.661 23.6444 158.661C29.8774 158.661 30.1364 153.718 30.1364 153.071C30.1364 149.725 27.6964 148.528 24.3204 146.981L20.8404 145.381C11.9604 141.289 11.9604 136.996 11.9604 134.698C11.9604 131.655 13.5714 124.865 23.4374 124.865C27.5914 124.865 30.0324 126.511 31.5404 126.511C32.7344 126.511 32.9934 125.761 33.2524 124.814H34.8104V135.647H33.3564ZM70.1764 158.113V159.361H53.3504V158.113C56.5704 157.861 57.5044 157.811 57.5044 156.165C57.5044 154.817 55.8434 151.124 55.1164 149.526H43.4324C41.9774 153.119 41.1474 155.168 41.1474 155.965C41.1474 157.861 43.6404 158.013 45.4054 158.113V159.361H34.8624V158.113C37.6664 157.714 38.3944 156.015 39.9514 152.271L51.4804 124.915H52.9344L64.5144 151.173C66.8524 156.513 67.6834 158.212 70.1744 158.113H70.1764ZM44.2114 147.578H54.3374L49.0924 135.448L44.2114 147.578ZM97.6474 126.86C94.7904 127.211 94.1174 128.16 92.9724 130.955L81.1324 160.259H79.7304L66.4364 130.355C65.0864 127.361 64.3074 127.211 62.0734 126.86V125.615H79.5224V126.86C76.2524 127.06 75.0574 127.06 75.0574 128.957C75.0574 129.907 76.0954 132.002 76.6174 133.252L83.4184 149.026L90.0144 132.601C90.4814 131.455 91.0514 130.155 91.0514 129.159C91.0514 127.211 89.5464 127.011 86.5854 126.86V125.615H97.6484V126.86H97.6474ZM116.913 159.361H98.7374V158.113C101.54 157.861 103.567 157.662 103.567 154.568V130.404C103.567 127.109 101.127 127.011 98.7374 126.86V125.615H116.913V126.86C114.473 126.962 111.979 127.011 111.979 130.404V154.568C111.979 157.763 114.056 157.913 116.913 158.113V159.361ZM118.729 158.113C121.846 157.763 123.299 157.413 123.299 154.118V130.454C120.39 127.011 119.56 126.86 118.886 126.86V125.615H129.843L147.865 146.93H147.966V131.801C147.966 128.807 147.345 127.161 143.138 126.86V125.615H154.304V126.86C150.564 127.308 150.252 128.459 150.252 130.853V160.259H148.799L125.691 133.199H125.584V153.169C125.584 156.765 126.676 157.714 130.518 158.113V159.361H118.728L118.729 158.113ZM191.484 146.281C188.264 146.63 187.021 146.779 187.021 150.875V157.213C184.525 158.912 177.516 160.309 172.997 160.309C160.015 160.309 154.198 151.471 154.198 142.784C154.198 132.95 161.364 124.865 172.581 124.865C177.255 124.865 181.255 127.308 182.605 127.308C184.006 127.308 184.475 126.262 184.995 125.014H186.396V136.693H185.097C183.282 132.352 178.918 126.511 172.997 126.511C165.467 126.511 163.39 134.098 163.39 142.686C163.39 146.231 163.702 158.661 173.516 158.661C178.088 158.661 178.918 157.164 178.918 155.016V149.776C178.918 146.58 177.255 146.48 173.672 146.281V145.033H191.484V146.281ZM215.322 135.647C214.386 132.153 211.273 126.412 205.142 126.412C202.442 126.412 199.585 127.909 199.585 131.154C199.585 133.852 200.573 134.947 204.936 137.044L212.568 140.689C214.335 141.539 218.282 144.432 218.282 149.876C218.282 154.269 214.959 160.309 205.402 160.309C200.468 160.309 198.133 158.611 196.523 158.611C195.431 158.611 195.174 159.511 194.966 160.309H193.458V147.977H194.966C196.004 153.021 199.014 158.661 205.61 158.661C211.843 158.661 212.1 153.718 212.1 153.071C212.1 149.725 209.661 148.528 206.286 146.981L202.806 145.381C193.926 141.289 193.926 136.996 193.926 134.698C193.926 131.655 195.536 124.865 205.402 124.865C209.557 124.865 211.999 126.511 213.505 126.511C214.699 126.511 214.959 125.761 215.218 124.814H216.776V135.647H215.322ZM19.2084 115.137H10.6094V114.657C11.9374 114.561 12.8954 114.485 12.8954 113.294V104C12.8954 102.733 11.7404 102.695 10.6094 102.637V102.158H19.2084V102.638C18.0544 102.676 16.8744 102.695 16.8744 104V113.294C16.8744 114.521 17.8564 114.578 19.2084 114.657V115.137ZM19.5764 114.657C21.0494 114.521 21.7384 114.387 21.7384 113.121V104.018C20.3624 102.695 19.9694 102.637 19.6494 102.637V102.157H24.8324L33.3564 110.356H33.4064V104.538C33.4064 103.386 33.1104 102.753 31.1214 102.637V102.157H36.4014V102.637C34.6344 102.81 34.4864 103.253 34.4864 104.175V115.483H33.7994L22.8694 105.077H22.8194V112.756C22.8194 114.139 23.3344 114.503 25.1514 114.656V115.136H19.5764V114.657ZM47.1364 106.017C46.6944 104.673 45.2214 102.464 42.3224 102.464C41.0444 102.464 39.6924 103.04 39.6924 104.288C39.6924 105.326 40.1604 105.748 42.2224 106.553L45.8354 107.955C46.6694 108.282 48.5354 109.395 48.5354 111.49C48.5354 113.177 46.9654 115.5 42.4454 115.5C40.1114 115.5 39.0054 114.848 38.2444 114.848C37.7294 114.848 37.6074 115.195 37.5074 115.5H36.7954V110.758H37.5074C37.9974 112.699 39.4244 114.868 42.5424 114.868C45.4914 114.868 45.6144 112.968 45.6144 112.718C45.6144 111.43 44.4594 110.97 42.8624 110.375L41.2164 109.76C37.0164 108.186 37.0164 106.535 37.0164 105.652C37.0164 104.48 37.7784 101.87 42.4464 101.87C44.4094 101.87 45.5644 102.503 46.2764 102.503C46.8414 102.503 46.9654 102.215 47.0864 101.85H47.8244V106.016H47.1374L47.1364 106.017ZM60.2294 115.137H51.4594V114.657C53.2534 114.541 53.8424 114.502 53.8424 112.89V102.772C52.1234 102.848 49.5924 102.945 49.1004 106.016H48.3884L48.4634 102.158H63.2024L63.2494 106.016H62.5394C62.0444 102.946 59.5154 102.848 57.8214 102.772V112.89C57.8214 114.521 58.4114 114.561 60.2284 114.657L60.2294 115.137ZM72.1164 115.137H63.5204V114.657C64.8454 114.561 65.8044 114.485 65.8044 113.294V104C65.8044 102.733 64.6494 102.695 63.5204 102.637V102.158H72.1164V102.638C70.9624 102.676 69.7834 102.695 69.7834 104V113.294C69.7834 114.521 70.7664 114.578 72.1164 114.657V115.137ZM84.2024 115.137H75.4324V114.657C77.2264 114.541 77.8154 114.502 77.8154 112.89V102.772C76.0974 102.848 73.5664 102.945 73.0764 106.016H72.3624L72.4354 102.158H87.1754L87.2234 106.016H86.5134C86.0204 102.946 83.4894 102.848 81.7954 102.772V112.89C81.7954 114.521 82.3854 114.561 84.2024 114.657V115.137ZM104.221 102.637C102.87 102.79 102.305 103.003 102.305 104.269V110.395C102.305 111.527 101.961 113.237 100.93 114.099C99.7004 115.137 97.5664 115.5 96.0904 115.5C95.0104 115.5 92.7004 115.386 91.1054 114.292C90.0494 113.563 89.4094 112.89 89.4094 110.817V104.405C89.4094 102.79 88.7724 102.752 87.3954 102.637V102.158H95.6994V102.638C94.0764 102.695 93.3154 102.714 93.3154 104.405V110.817C93.3154 111.91 93.3154 114.561 96.8524 114.561C101.175 114.561 101.225 111.623 101.225 110.395V104.537C101.225 103.367 100.93 102.714 98.8184 102.637V102.158H104.221V102.637ZM116.356 115.137H107.586V114.657C109.378 114.541 109.968 114.502 109.968 112.89V102.772C108.251 102.848 105.718 102.945 105.228 106.016H104.515L104.59 102.158H119.328L119.377 106.016H118.665C118.172 102.946 115.643 102.848 113.949 102.772V112.89C113.949 114.521 114.539 114.561 116.355 114.657L116.356 115.137ZM128.244 115.137H119.645V114.657C120.973 114.561 121.932 114.485 121.932 113.294V104C121.932 102.733 120.776 102.695 119.645 102.637V102.158H128.245V102.638C127.09 102.676 125.909 102.695 125.909 104V113.294C125.909 114.521 126.892 114.578 128.244 114.657V115.137ZM136.792 101.87C141.534 101.87 145.487 104.5 145.487 108.685C145.487 112.718 141.829 115.501 136.792 115.501C131.757 115.501 128.096 112.718 128.096 108.685C128.096 104.501 132.051 101.87 136.792 101.87ZM136.792 102.504C133.351 102.504 132.445 105.883 132.445 108.684C132.445 110.356 132.591 114.868 136.792 114.868C140.993 114.868 141.14 110.356 141.14 108.685C141.14 105.883 140.23 102.504 136.792 102.504ZM144.775 114.657C146.248 114.521 146.935 114.387 146.935 113.121V104.018C145.562 102.695 145.167 102.637 144.848 102.637V102.157H150.031L158.554 110.356H158.604V104.538C158.604 103.386 158.309 102.753 156.32 102.637V102.157H161.601V102.637C159.833 102.81 159.685 103.253 159.685 104.175V115.483H158.997L148.065 105.077H148.016V112.756C148.016 114.139 148.534 114.503 150.352 114.656V115.136H144.775V114.657ZM170.124 102.157H184.053V106.016H183.462C182.922 104.018 182.259 102.81 178.034 102.81C176.706 102.81 176.266 102.887 176.266 103.713V108.168C179.311 108.206 179.679 106.842 180.025 105.307H180.639V111.797H180.025C179.752 110.222 179.36 108.82 176.266 108.82V113.295C176.266 114.561 177.247 114.599 178.966 114.657V115.137H170.124V114.657C171.523 114.542 172.286 114.485 172.286 113.295V104.001C172.286 102.733 171.278 102.695 170.124 102.637V102.157ZM192.331 101.87C197.072 101.87 201.025 104.5 201.025 108.685C201.025 112.718 197.364 115.501 192.331 115.501C187.294 115.501 183.634 112.718 183.634 108.685C183.634 104.501 187.589 101.87 192.331 101.87ZM192.331 102.504C188.891 102.504 187.98 105.883 187.98 108.684C187.98 110.356 188.13 114.868 192.331 114.868C196.529 114.868 196.678 110.356 196.678 108.685C196.678 105.883 195.767 102.504 192.331 102.504ZM216.993 115.137H211.956L206.871 109.127H206.211V112.89C206.211 114.426 206.747 114.485 208.371 114.657V115.137H200.068V114.657C201.738 114.502 202.228 114.447 202.228 112.89V104.405C202.228 102.752 201.468 102.715 200.068 102.637V102.158H207.978C209.696 102.158 214.902 102.31 214.902 105.536C214.902 107.898 212.374 108.494 211.049 108.82L215.983 114.292C216.33 114.637 216.699 114.657 216.993 114.657V115.137ZM206.21 108.512C209.425 108.494 210.704 108.072 210.704 105.575C210.704 103.635 209.696 102.81 207.731 102.81C206.379 102.81 206.331 103.021 206.211 103.616V108.512H206.21Z" fill="#094536"/>
<path d="M113.487 0L226.975 36.414L221.569 41.882H5.404L0 36.414L113.487 0ZM7.805 51.179V45.391H219.171V51.179H7.805ZM5.417 176.735V170.248H221.561V176.735H5.417ZM7.805 97.78V95.727H219.171V97.78H7.805ZM7.805 120.25V117.654H219.171V120.25H7.805ZM7.805 166.118V163.375H219.171V166.118H7.805ZM190.459 35.813L212.944 35.807L113.487 3.896L14.032 35.806L36.517 35.813L113.487 11.116L190.459 35.813ZM177.954 37.361L188.438 37.345L113.487 13.295L38.537 37.345L49.02 37.361L113.487 16.676L177.954 37.361ZM113.471 37.61C117.997 37.61 121.667 33.939 121.667 29.412C121.667 24.885 117.997 21.214 113.471 21.214C108.941 21.214 105.271 24.884 105.271 29.412C105.271 33.939 108.941 37.61 113.471 37.61Z" fill="#50101E"/>
</g>
<defs>
<clipPath id="clip0_723_966">
<rect width="227" height="177" fill="white"/>
</clipPath>
</defs>
</svg>
