<svg width="309" height="120" viewBox="0 0 309 120" fill="none" xmlns="http://www.w3.org/2000/svg">
<g clip-path="url(#clip0_722_73)">
<path d="M214.847 2.66363C214.847 4.21918 214.847 5.66363 214.735 7.10807C214.735 8.44141 214.735 9.99696 214.735 11.5525C214.735 13.1081 214.847 14.997 215.18 17.1081C215.291 19.2192 215.625 21.6636 216.18 24.5525C215.513 24.5525 214.847 24.5525 214.068 24.6636C213.402 24.6636 212.512 25.1081 211.29 25.6636C211.179 25.2192 211.067 24.4414 210.845 23.3303C210.623 22.1081 210.289 20.8859 209.734 19.4414C207.955 14.7747 205.065 11.2192 201.175 8.55252C197.285 5.88585 192.95 4.66363 187.948 4.66363C187.17 4.66363 185.725 4.77474 183.947 4.88585C182.168 4.99696 180.279 5.66363 178.167 6.66363C176.944 7.21918 175.721 7.88585 174.276 8.88585C172.943 9.88585 171.609 11.1081 170.275 12.5525C169.052 14.1081 167.607 15.997 166.385 18.2192C165.162 20.4414 164.162 22.997 163.384 25.8859C163.161 26.997 162.828 28.2192 162.606 29.5525C162.383 30.8859 162.05 32.6636 161.827 35.3303C161.716 36.8859 161.605 38.4414 161.383 40.1081C161.272 41.7747 161.272 43.2192 161.272 45.1081C161.272 49.7747 161.716 53.997 162.383 57.7747C163.05 61.4414 164.05 64.6636 165.273 67.4414C166.496 70.2192 167.941 72.5525 169.719 74.4414C171.386 76.3303 173.054 77.8858 174.943 79.1081C177.722 80.8858 180.279 81.997 182.613 82.5525C184.947 82.997 186.836 83.2192 188.17 83.2192C189.504 83.2192 191.283 83.1081 193.95 82.5525C196.618 82.1081 199.174 80.997 202.175 79.4414C203.509 78.6636 204.954 77.6636 206.288 76.6636C207.511 75.5525 208.622 74.5525 209.734 73.5525C210.734 72.5525 211.512 71.6636 212.401 70.8859C213.068 70.2192 213.513 69.6636 213.735 69.3303C214.291 69.8859 214.735 70.3303 215.291 70.6636C215.736 71.1081 216.514 71.6636 217.625 72.2192C217.07 72.8859 216.514 73.4414 216.069 73.997C215.625 74.5525 215.069 75.2192 214.513 75.7747C212.624 77.8858 210.623 79.6636 208.956 80.997C207.177 82.3303 205.51 83.4414 203.731 84.4414C202.064 85.4414 200.619 85.997 199.063 86.5525C197.729 86.997 196.284 87.3303 195.062 87.7747C194.395 87.8859 193.283 88.2192 191.949 88.4414C190.393 88.6636 188.837 88.8859 186.725 88.8859C185.614 88.8859 184.058 88.7747 182.279 88.6636C180.501 88.5525 178.389 87.997 176.277 87.4414C174.054 86.8858 171.72 85.7747 169.275 84.5525C166.94 83.3303 164.495 81.6636 162.161 79.4414C160.605 78.2192 159.271 76.5525 157.715 74.4414C156.159 72.3303 154.825 69.997 153.491 67.3303C152.157 64.5525 151.157 61.3303 150.379 57.6636C149.601 53.997 149.156 49.997 149.156 45.1081C149.156 40.997 149.379 37.4414 150.157 34.2192C150.824 31.1081 151.713 28.2192 152.491 25.5525C153.491 23.1081 154.603 20.8859 155.603 18.997C156.826 17.1081 157.826 15.5525 158.715 14.3303C160.494 11.997 162.161 10.1081 163.828 8.77474C165.384 7.44141 166.607 6.44141 167.718 5.77474C169.052 4.99696 170.608 4.10807 172.387 3.44141C174.054 2.77474 175.721 2.10807 177.389 1.66363C179.723 0.996962 181.835 0.663629 183.613 0.552518C185.391 0.441407 186.725 0.441406 187.726 0.441406C188.948 0.441406 190.504 0.552518 192.394 0.663629C194.284 0.77474 196.84 1.3303 199.508 1.88585C201.397 2.44141 203.176 2.99696 204.843 3.44141C206.51 3.88585 208.289 4.10807 210.512 4.10807C211.734 4.10807 212.735 3.99696 213.624 3.88585C214.068 2.88585 214.624 2.66363 214.847 2.66363Z" fill="#030F3B"/>
<path d="M305.326 6.66493C304.548 6.66493 303.77 6.66493 302.992 6.77604C302.214 6.88715 301.436 6.99826 300.769 7.22049C300.102 7.44271 299.547 7.88715 298.991 8.3316C298.546 8.88715 298.213 9.55382 297.99 10.5538C297.879 10.9983 297.879 11.776 297.879 13.2205C297.879 14.4427 297.768 15.8872 297.768 17.2205V57.6649C297.879 60.1094 297.879 62.6649 297.768 64.776C297.657 65.5538 297.657 66.8871 297.323 68.4427C297.212 70.1094 296.657 71.8872 295.767 73.6649C295.1 75.5538 293.989 77.5538 292.433 79.4427C290.877 81.3316 288.987 82.9983 286.653 84.4427C284.763 85.5538 282.207 86.5538 279.095 87.3316C275.982 88.1094 271.981 88.5538 266.868 88.5538C266.423 88.5538 265.312 88.5538 263.756 88.4427C261.977 88.4427 259.866 88.2205 257.531 87.776C255.197 87.3316 252.53 86.776 250.084 85.9983C247.417 85.2205 245.082 84.1094 243.193 82.4427C242.193 81.6649 241.414 80.6649 240.525 79.776C239.747 78.9983 239.191 77.8871 238.636 76.776C237.413 74.4427 236.857 72.2205 236.524 70.2205C236.413 68.1094 236.302 65.776 236.302 63.3316V16.1094C236.302 14.2205 236.302 12.6649 236.19 11.6649C236.19 10.5538 235.746 9.55382 235.19 8.88715C234.523 8.10938 233.634 7.55382 232.522 7.22049C231.411 6.88715 229.855 6.77604 227.854 6.77604H225.742C225.853 6.10938 225.853 5.55382 225.853 4.99826C225.853 4.44271 225.853 3.66493 225.742 2.3316C228.41 2.44271 231.077 2.55382 233.745 2.77604C236.413 2.88715 239.08 2.99826 241.859 2.99826C244.527 2.99826 247.083 2.88715 249.751 2.77604C252.418 2.66493 254.975 2.55382 257.754 2.3316C257.643 3.3316 257.531 3.99826 257.531 4.44271C257.531 4.88715 257.643 5.66493 257.754 6.55382H255.642C254.419 6.55382 253.308 6.55382 252.085 6.66493C250.862 6.77604 249.862 7.3316 248.973 8.44271C248.306 9.10938 247.972 10.1094 247.861 11.2205C247.75 12.3316 247.75 13.8872 247.75 15.776V60.1094C247.75 61.3316 247.75 62.776 247.861 63.9983C247.972 65.3316 248.084 66.6649 248.306 68.1094C248.528 69.4427 248.862 70.776 249.417 71.9983C249.862 73.2205 250.529 74.3316 251.529 75.4427C252.863 77.2205 254.975 78.776 257.976 80.4427C260.866 81.9983 264.867 82.6649 269.98 82.6649C270.536 82.6649 271.759 82.5538 273.871 82.5538C275.982 82.4427 277.983 81.9983 280.317 81.2205C282.652 80.4427 284.986 79.1094 287.098 77.5538C289.209 75.8872 290.766 73.4427 291.766 70.2205C292.322 68.4427 292.544 66.3316 292.766 63.9983C292.877 61.6649 292.877 59.5538 292.766 57.776V17.776C292.766 17.1094 292.766 16.1094 292.766 14.9983C292.766 13.8872 292.655 12.8872 292.544 12.2205C292.099 9.77604 291.21 8.22049 289.654 7.55382C288.098 6.88715 286.32 6.55382 284.097 6.44271H281.651C281.762 5.77604 281.762 5.22049 281.762 4.77604C281.762 4.3316 281.762 3.44271 281.651 2.10938C283.874 2.22049 286.097 2.3316 288.209 2.55382C290.432 2.66493 292.655 2.66493 295.1 2.66493C297.323 2.66493 299.546 2.66493 301.547 2.55382C303.659 2.44271 305.771 2.44271 307.994 2.10938C307.883 2.77604 307.772 3.3316 307.772 3.88715C307.772 4.44271 307.883 5.22049 307.994 6.55382H305.66H305.326V6.66493Z" fill="#030F3B"/>
<path d="M2.43644 84.1094C3.6591 83.9983 4.65947 83.9983 5.32637 83.9983C5.99328 83.9983 6.66018 83.8872 7.10479 83.776C8.10515 83.5538 8.8832 83.2205 9.43896 82.6649C9.99472 82.2205 10.4393 81.5538 10.5505 80.8872C10.7728 80.2205 10.9951 79.5538 10.9951 78.6649C11.1062 77.9983 11.1062 77.1094 11.1062 76.4427V15.9983C10.9951 14.6649 10.9951 13.5538 10.9951 12.5538C10.9951 11.5538 10.8839 10.776 10.7728 10.2205C10.5505 9.22049 10.1059 8.55382 9.55011 7.99827C8.99436 7.55382 8.32745 7.22049 7.43824 6.88715C6.66018 6.77604 5.77097 6.44271 4.99292 6.44271C3.99256 6.44271 3.32565 6.3316 2.65875 6.3316H0.880327C0.991479 5.66493 0.991479 5.10938 0.991479 4.44271C0.991479 3.77604 0.991479 2.88715 0.991479 2.10938C4.43716 2.3316 7.7717 2.55382 10.9951 2.77604C14.3296 2.99826 17.553 2.99826 20.9987 2.99826C22.7771 2.99826 24.6667 2.99826 26.5562 2.88715C28.3346 2.88715 30.1131 2.77604 32.1138 2.77604C33.2253 2.77604 34.448 2.77604 35.5595 2.66493C36.7821 2.66493 37.8936 2.55382 39.0051 2.55382C44.8962 2.55382 49.4534 3.22049 52.6767 4.66493C55.789 5.99826 58.4566 7.77604 60.235 9.99826C61.2354 11.2205 62.0134 12.3316 62.5692 13.6649C63.1249 14.8872 63.5695 15.9983 63.7918 17.2205C64.0141 18.3316 64.2365 19.3316 64.2365 20.2205C64.2365 21.1094 64.3476 21.8872 64.3476 22.3316C64.3476 24.6649 64.1253 26.8872 63.5695 28.6649C63.0138 30.4427 62.3469 32.1094 61.4577 33.4427C60.6796 34.776 59.7904 35.8872 58.79 36.8872C57.7897 37.8872 57.0116 38.5538 56.1224 39.1094C55.0109 39.776 54.0106 40.3316 53.0102 40.776C52.0098 41.2205 50.8983 41.4427 49.898 41.8872C54.5663 42.9983 57.9008 44.5538 60.235 46.3316C62.5692 48.1094 64.3476 49.8872 65.4591 51.6649C66.126 52.6649 66.7929 54.1094 67.6821 56.1094C68.5713 58.1094 68.9048 60.3316 68.9048 63.4427C68.9048 64.4427 68.7936 65.5538 68.6825 66.8872C68.5713 68.4427 68.1267 69.8872 67.571 71.8872C66.9041 73.6649 66.0149 75.4427 64.9034 77.4427C63.6807 79.3316 62.1246 81.1094 60.235 82.9983C59.0124 83.9983 57.7897 84.776 56.3447 85.6649C55.1221 86.3316 53.5659 86.8872 51.7875 87.4427C50.0091 87.8872 47.8972 88.2205 45.7854 88.4427C43.4512 88.5538 40.7836 88.6649 37.8936 88.6649C35.7818 88.6649 33.6699 88.6649 31.4469 88.6649C29.2239 88.6649 27.0008 88.5538 24.889 88.4427C23.1105 88.3316 20.9987 88.3316 19.1091 88.3316C17.2195 88.3316 15.2188 88.2205 13.3292 88.2205C9.10551 88.2205 4.77062 88.3316 0.546875 88.6649C0.658026 87.6649 0.769176 86.9983 0.769176 86.5538C0.769176 86.1094 0.658026 85.3316 0.546875 84.4427H2.43644V84.1094ZM22.7771 40.776H32.4472C33.1141 40.776 33.6699 40.776 34.3368 40.776C35.0037 40.776 35.5595 40.776 36.2264 40.6649C36.7821 40.6649 37.7825 40.5538 38.894 40.4427C40.1167 40.3316 41.2282 39.9983 42.7843 39.4427C44.1181 38.9983 45.5631 38.2205 46.8969 37.2205C48.2307 36.2205 49.5645 34.8872 50.4537 33.1094C51.5652 31.2205 52.2321 29.2205 52.5656 27.5538C52.7879 25.776 53.0102 24.5538 53.0102 23.6649C53.0102 21.8872 52.5656 19.776 52.0098 17.776C51.3429 15.6649 50.2314 13.776 48.5641 12.1094C46.8969 10.4427 44.6739 9.10938 42.1174 7.99827C39.4498 6.99827 36.1152 6.44271 31.8915 6.44271C31.6692 6.44271 31.1134 6.44271 30.3354 6.44271C29.6685 6.44271 28.7792 6.55382 28.0012 6.66493C25.8893 7.10938 24.5555 7.66493 23.9998 8.77604C23.444 9.88715 22.9994 11.2205 22.9994 13.2205C22.7771 13.2205 22.7771 40.776 22.7771 40.776ZM22.8882 73.8872C22.8882 75.4427 22.8882 76.8872 22.8882 78.1094C22.8882 79.3316 22.9994 80.3316 23.3328 80.9983C23.7775 81.6649 24.3332 82.2205 25.0001 82.6649C25.667 83.1094 26.7785 83.4427 28.4458 83.776C30.0019 84.2205 31.8915 84.3316 34.2257 84.3316C35.0037 84.3316 36.1152 84.3316 37.6713 84.2205C39.2275 84.1094 40.7836 83.776 42.8954 83.1094C45.8965 82.1094 48.453 80.8872 50.2314 79.1094C52.0098 77.3316 53.3436 75.6649 54.344 73.5538C55.3444 71.6649 55.9001 69.8872 56.1224 67.9983C56.3447 66.2205 56.567 64.8872 56.567 63.776C56.567 63.3316 56.567 62.5538 56.4559 61.5538C56.3447 60.5538 56.2336 59.4427 55.789 58.2205C55.5667 56.9983 55.0109 55.776 54.2329 54.3316C53.5659 53.1094 52.6767 51.8872 51.4541 50.776C49.898 49.2205 48.0084 48.1094 45.8965 47.2205C43.7847 46.4427 41.7839 45.6649 39.8944 45.4427C38.0048 44.9983 36.3375 44.8872 34.6703 44.776C33.1141 44.6649 32.3361 44.6649 31.7803 44.6649H22.8882V73.8872Z" fill="#030F3B"/>
<path d="M100.253 40.776H115.369C118.481 40.776 121.038 40.6649 122.816 40.3316C124.595 40.1094 125.928 39.3316 127.262 38.2205C128.04 37.5538 128.596 36.6649 128.93 35.5538C129.152 34.4427 129.485 33.2205 129.596 31.1094V29.5538C130.263 29.6649 130.819 29.776 131.375 29.776C131.819 29.776 132.598 29.776 133.82 29.6649C133.709 31.776 133.598 33.8872 133.376 35.9983C133.264 38.1094 133.264 40.2205 133.264 42.3316C133.264 44.4427 133.376 46.4427 133.376 48.6649C133.487 50.776 133.598 52.776 133.82 54.9983C133.153 54.8871 132.598 54.8871 132.042 54.8871C131.597 54.8871 130.819 54.8871 129.374 54.9983V53.1094C129.374 52.9983 129.374 52.4427 129.374 51.8872C129.374 51.2205 129.263 50.3316 128.93 49.5538C128.707 48.776 128.263 47.8872 127.707 47.1094C127.04 46.3316 126.151 45.776 125.039 45.4427C124.039 45.2205 122.816 44.9983 121.149 44.9983C119.482 44.9983 117.703 44.9983 115.258 44.9983H100.141V75.5538C100.03 76.2205 100.03 77.1094 100.03 78.2205C100.03 79.2205 100.141 79.9983 100.253 80.8871C100.475 81.8871 100.919 82.6649 101.475 83.2205C102.142 83.776 102.809 84.2205 103.698 84.3316C104.476 84.5538 105.477 84.776 106.366 84.776C107.366 84.776 108.144 84.776 109.034 84.776H110.59C110.478 85.8871 110.367 86.6649 110.367 87.1094C110.367 87.5538 110.367 88.1094 110.478 88.776C107.811 88.6649 105.143 88.5538 102.476 88.3316C99.808 88.2205 97.1403 88.2205 94.4727 88.2205C91.8051 88.2205 89.2486 88.3316 86.581 88.3316C83.9134 88.4427 81.3569 88.5538 78.5781 88.776C78.6893 88.1094 78.8004 87.5538 78.8004 87.1094C78.8004 86.6649 78.6893 85.8871 78.5781 84.4427H80.4677C81.6904 84.3316 82.8019 84.3316 83.4688 84.2205C84.1357 84.1094 84.8026 83.9983 85.3583 83.6649C86.9145 82.6649 87.6925 81.5538 88.026 79.776C88.1371 78.2205 88.2483 76.6649 88.2483 75.2205V15.3316C88.3594 14.3316 88.3594 13.5538 88.3594 12.6649C88.3594 11.8872 88.2483 10.9983 87.8037 9.99826C87.1368 8.22049 86.1364 7.10938 84.8026 6.88715C83.4688 6.66493 81.9127 6.44271 80.2454 6.3316H78.5781C78.6893 5.66493 78.6893 5.10938 78.6893 4.55382C78.6893 4.10938 78.6893 3.3316 78.5781 2.10938C79.9119 2.22049 81.2457 2.3316 82.5796 2.55382C83.8022 2.66493 85.2472 2.66493 86.581 2.77604C89.2486 2.88715 91.9162 2.99826 94.5839 2.99826C97.2515 2.99826 99.808 2.99826 102.587 2.99826C106.032 2.99826 109.367 2.99826 112.479 2.88715C115.591 2.88715 118.926 2.77604 122.261 2.77604C123.817 2.77604 125.15 2.77604 126.707 2.77604C128.263 2.77604 129.596 2.77604 130.93 2.66493C132.486 2.55382 134.043 2.55382 135.932 2.55382C137.599 2.55382 139.044 2.44271 140.934 2.44271C141.045 3.66493 141.045 5.10938 141.156 6.3316C141.267 7.55382 141.267 8.77604 141.378 10.2205C141.49 11.4427 141.601 13.1094 142.045 14.776C142.268 16.4427 142.712 18.6649 143.157 20.9983C142.49 21.1094 141.934 21.1094 141.49 21.1094C141.045 21.1094 140.156 21.5538 138.822 22.1094C138.377 20.8872 138.155 19.4427 137.599 17.9983C137.044 16.4427 136.488 15.1094 135.821 13.9983C134.821 12.4427 133.598 11.3316 132.264 10.5538C130.708 9.77604 129.374 8.99826 127.596 8.66493C125.928 8.22049 124.261 7.99826 122.483 7.66493C120.704 7.55382 119.037 7.44271 117.481 7.44271C115.147 7.44271 113.035 7.55382 111.59 7.55382C110.034 7.66493 108.811 7.77604 107.7 7.99826C106.032 8.10938 104.81 8.44271 103.809 8.77604C102.809 9.10937 102.142 9.55382 101.586 10.1094C101.142 10.5538 100.919 11.2205 100.586 11.8872C100.364 12.5538 100.141 13.2205 100.141 13.9983C100.03 14.6649 100.03 15.5538 100.03 16.2205C100.03 16.8872 100.141 17.5538 100.141 18.1094V40.8872L100.253 40.776Z" fill="#030F3B"/>
<path d="M0.767399 96.8867H6.76956C10.8821 96.8867 11.9937 98.6645 11.9937 101.109C11.9937 103.553 10.4375 104.776 8.54797 105.22V105.331C11.4379 105.776 12.6606 107.22 12.6606 109.776C12.6606 113.22 9.99294 114.442 6.2138 114.442H0.65625C0.767401 114.442 0.767399 96.8867 0.767399 96.8867ZM9.77064 101.442C9.77064 99.3312 8.54798 98.6645 6.2138 98.6645H3.10157V104.442H5.54689C7.54761 104.442 9.77064 103.887 9.77064 101.442ZM10.4375 109.331C10.4375 106.998 8.65913 106.22 6.43611 106.22H2.99042V112.22H5.88035C8.43683 112.442 10.4375 111.998 10.4375 109.331Z" fill="#030F3B"/>
<path d="M25.1123 113C25.2234 113 25.5569 112.888 25.7792 112.888L25.8903 114.222C25.4457 114.444 24.7788 114.666 24.2231 114.666C23.0004 114.666 22.4446 114 22.3335 113.111C21.3331 114.111 20.1105 114.666 18.332 114.666C15.2198 114.666 14.6641 112.555 14.6641 111.333C14.6641 108 17.554 107.111 20.9997 107.111C21.4443 107.111 21.6666 107.111 22.1112 107.222V106C22.1112 104.444 21.6666 103.555 19.6659 103.555C17.9986 103.555 17.3317 104.222 16.9982 105.666L15.1087 105.222C15.5533 102.888 16.8871 101.777 19.777 101.777C22.7781 101.777 24.2231 103 24.2231 106V112C24.3342 112.555 24.4454 113 25.1123 113ZM20.9997 108.555C19.3324 108.555 16.9982 108.666 16.9982 110.888C16.9982 111.888 17.4428 112.777 19.1101 112.777C20.3328 112.777 21.5554 112.111 22.2223 111.444V108.666C21.8889 108.666 21.4443 108.555 20.9997 108.555Z" fill="#030F3B"/>
<path d="M36.4422 114.331V106.331C36.4422 104.664 35.7752 103.665 34.108 103.665C32.7742 103.665 31.2181 104.664 30.5511 105.22V114.442H28.3281V102.109H30.44L30.5511 103.665C31.7738 102.665 33.3299 101.887 34.9972 101.887C37.6648 101.887 38.8875 103.442 38.8875 106.109V114.553C38.6652 114.331 36.4422 114.331 36.4422 114.331Z" fill="#030F3B"/>
<path d="M49.8942 102H52.3395L48.1158 106.445L52.7841 114.445H50.3388L46.4485 108.112L44.559 109.889V114.445H42.3359V96.2227H44.559V107.334L49.8942 102Z" fill="#030F3B"/>
<path d="M56.2358 99.4431C55.2354 99.4431 54.6797 98.8876 54.6797 97.8876C54.6797 96.8876 55.2354 96.332 56.2358 96.332C57.2362 96.332 57.7919 96.8876 57.7919 97.8876C57.7919 98.8876 57.2362 99.4431 56.2358 99.4431ZM55.1243 114.332V101.999H57.3473V114.332H55.1243Z" fill="#030F3B"/>
<path d="M69.1218 114.331V106.331C69.1218 104.664 68.4549 103.665 66.7877 103.665C65.4539 103.665 63.8977 104.664 63.2308 105.22V114.442H61.0078V102.109H62.8974L63.0085 103.665C64.2312 102.665 65.7873 101.887 67.4546 101.887C70.1222 101.887 71.3449 103.442 71.3449 106.109V114.553C71.2337 114.331 69.1218 114.331 69.1218 114.331Z" fill="#030F3B"/>
<path d="M83.2412 102.778C83.6858 101.778 84.2415 101.223 85.1307 101.223C85.5753 101.223 85.7976 101.334 86.2422 101.334V102.889C85.5753 102.778 84.4638 103 83.9081 103.112C84.575 103.778 84.9084 104.889 84.9084 105.889C84.9084 108.667 82.6854 110.334 79.7955 110.334C79.0174 110.334 78.1282 110.223 77.4613 110.112C77.0167 110.334 76.7944 110.778 76.7944 111.334C76.7944 111.778 77.0167 112.112 78.3505 112.334L81.7962 112.556C84.4638 112.667 85.9088 113.334 85.9088 115.667C85.9088 118.667 82.7966 119.667 79.5732 119.667C74.9048 119.667 74.0156 118.112 74.0156 116.667C74.0156 115.334 75.016 114.334 76.1275 113.778C75.3494 113.334 74.7937 112.778 74.7937 112C74.7937 111 75.4606 110.334 76.461 109.667C75.3494 109.112 74.6825 107.889 74.6825 106.223C74.6825 103.556 76.7944 101.667 79.9066 101.667C81.0181 101.667 82.352 102 83.2412 102.778ZM81.4628 114.445L77.3502 114.223C76.3498 114.889 76.0163 115.445 76.0163 116.334C76.0163 117.334 76.7944 118.112 79.6843 118.112C82.352 118.112 83.5746 117.445 83.5746 116.223C83.4635 115.112 83.2412 114.556 81.4628 114.445ZM79.5732 103.334C77.9059 103.334 76.461 104.112 76.461 106C76.461 107.556 77.4613 108.667 79.5732 108.667C81.3516 108.667 82.5743 107.667 82.5743 106C82.5743 104.334 81.5739 103.334 79.5732 103.334Z" fill="#030F3B"/>
<path d="M93.9112 103.555H92.1328V101.777H93.9112V99.6658C93.9112 96.9991 95.1339 95.5547 97.5792 95.5547C98.5796 95.5547 99.3576 95.6658 99.8022 95.9991L99.6911 97.6658C99.2465 97.5547 98.5796 97.4436 97.9127 97.4436C96.8012 97.4436 96.0231 97.888 96.0231 99.6658V101.777H99.4688V103.555H96.0231V114.11H93.8001L93.9112 103.555Z" fill="#030F3B"/>
<path d="M100.133 108.109C100.133 104.109 102.245 101.664 106.135 101.664C110.025 101.664 111.693 104.109 111.693 107.886C111.693 111.997 110.025 114.664 105.913 114.664C101.578 114.553 100.133 111.664 100.133 108.109ZM109.358 107.997C109.358 104.553 108.136 103.442 106.024 103.442C103.801 103.442 102.356 104.664 102.356 108.109C102.356 111.22 103.467 112.775 105.802 112.775C108.136 112.775 109.358 111.442 109.358 107.997Z" fill="#030F3B"/>
<path d="M117.036 105.223V114.112H114.812V101.779H116.591L116.702 103.556C117.814 102.001 119.036 101.445 120.815 101.445C120.926 101.445 121.037 101.445 121.259 101.445V103.668C119.814 103.779 118.036 104.334 117.036 105.223Z" fill="#030F3B"/>
<path d="M129.258 114.331V96.8867H139.484V98.7756H131.481V104.776H138.928V106.665H131.481V114.109C131.481 114.331 129.258 114.331 129.258 114.331Z" fill="#030F3B"/>
<path d="M143.041 99.4431C142.04 99.4431 141.484 98.8876 141.484 97.8876C141.484 96.8876 142.04 96.332 143.041 96.332C144.041 96.332 144.597 96.8876 144.597 97.8876C144.597 98.8876 144.152 99.4431 143.041 99.4431ZM141.929 114.332V101.999H144.152V114.332H141.929Z" fill="#030F3B"/>
<path d="M150.043 105.223V114.112H147.82V101.779H149.599L149.71 103.556C150.821 102.001 152.044 101.445 153.822 101.445C153.934 101.445 154.045 101.445 154.267 101.445V103.668C152.933 103.779 151.155 104.334 150.043 105.223Z" fill="#030F3B"/>
<path d="M164.932 105.222L163.043 105.667C162.82 104.333 162.376 103.333 160.375 103.333C158.374 103.333 158.041 104.111 158.041 105.111C158.041 106.333 159.041 106.778 160.82 107.222C163.043 107.667 165.266 108.222 165.266 110.889C165.266 113.222 163.487 114.778 160.486 114.778C157.596 114.778 155.929 113.667 155.484 111.222L157.374 110.667C157.819 111.889 158.374 113 160.375 113C161.931 113 163.043 112.556 163.043 111.222C163.043 109.889 162.042 109.667 160.375 109.333C158.263 108.889 155.929 108.556 155.929 105.667C155.929 103.222 158.041 102 160.486 102C163.376 101.667 164.599 103 164.932 105.222Z" fill="#030F3B"/>
<path d="M171.835 114.555C169.501 114.555 168.39 113.555 168.39 111.111V103.555H166.5V101.777H168.39V98.2218L170.613 97.7773V101.666H174.058V103.444H170.613V110.444C170.613 111.666 170.835 112.555 172.391 112.555C173.058 112.555 174.058 112.333 174.503 112L174.947 113.555C174.169 114 172.947 114.555 171.835 114.555Z" fill="#030F3B"/>
<path d="M192.732 114.331L188.73 107.22H184.84V114.331H182.617V96.8867H188.508C192.954 96.8867 194.177 99.2201 194.177 101.553C194.177 104.22 192.843 105.665 190.842 106.553L195.066 114.442L192.732 114.331ZM191.954 101.665C191.954 99.3312 190.398 98.7756 187.841 98.7756H184.84V105.22H187.952C190.398 105.109 191.954 104.442 191.954 101.665Z" fill="#030F3B"/>
<path d="M196.609 108.109C196.609 103.553 199.277 101.664 202.389 101.664C205.835 101.664 207.391 103.997 207.391 106.997C207.391 107.442 207.391 107.997 207.28 108.553H199.055C199.166 111.664 200.611 112.664 202.5 112.664C204.279 112.664 205.168 111.886 205.39 110.442L207.28 110.886C206.835 113.22 204.946 114.442 202.278 114.442C197.832 114.553 196.609 111.442 196.609 108.109ZM202.167 103.331C200.5 103.331 199.055 104.331 198.832 106.775H204.835C204.946 104.664 204.168 103.331 202.167 103.331Z" fill="#030F3B"/>
<path d="M218.838 105.222L216.949 105.667C216.727 104.333 216.282 103.333 214.281 103.333C212.281 103.333 211.947 104.111 211.947 105.111C211.947 106.333 212.947 106.778 214.726 107.222C216.949 107.667 219.172 108.222 219.172 110.889C219.172 113.222 217.394 114.778 214.392 114.778C211.502 114.778 209.835 113.667 209.391 111.222L211.28 110.667C211.725 111.889 212.281 113 214.281 113C215.837 113 216.949 112.556 216.949 111.222C216.949 109.889 215.949 109.667 214.281 109.333C212.169 108.889 209.835 108.556 209.835 105.667C209.835 103.222 211.947 102 214.392 102C217.394 101.667 218.394 103 218.838 105.222Z" fill="#030F3B"/>
<path d="M223.96 101.997L224.071 103.331C225.183 102.331 226.516 101.664 228.295 101.664C230.962 101.664 232.852 103.22 232.852 107.886C232.852 112.664 230.518 114.664 227.628 114.664C226.072 114.664 224.96 114.109 224.182 113.442V119.442H222.07V101.997H223.96ZM227.406 112.664C229.74 112.664 230.518 110.775 230.518 107.664C230.518 104.553 229.517 103.22 227.628 103.22C226.294 103.22 224.849 103.997 224.182 104.775V111.22C224.738 111.886 226.072 112.664 227.406 112.664Z" fill="#030F3B"/>
<path d="M235.297 108.109C235.297 104.109 237.409 101.664 241.299 101.664C245.189 101.664 246.857 104.109 246.857 107.886C246.857 111.997 245.189 114.664 241.077 114.664C236.631 114.553 235.297 111.664 235.297 108.109ZM244.411 107.997C244.411 104.553 243.189 103.442 241.077 103.442C238.854 103.442 237.409 104.664 237.409 108.109C237.409 111.22 238.52 112.775 240.854 112.775C243.189 112.775 244.411 111.442 244.411 107.997Z" fill="#030F3B"/>
<path d="M257.973 114.331V106.331C257.973 104.664 257.307 103.665 255.639 103.665C254.305 103.665 252.749 104.664 252.082 105.22V114.442H249.859V102.109H251.749L251.86 103.665C253.083 102.665 254.639 101.887 256.306 101.887C258.974 101.887 260.196 103.442 260.196 106.109V114.553C259.974 114.331 257.973 114.331 257.973 114.331Z" fill="#030F3B"/>
<path d="M272.087 114.334L271.976 113.112C270.976 114.112 269.642 114.779 267.864 114.779C265.085 114.779 263.195 113.001 263.195 108.445C263.195 103.445 265.641 101.89 268.419 101.89C269.753 101.89 271.087 102.334 271.865 103.001V96.4453H273.977V114.445H272.199V114.334H272.087ZM268.642 103.445C266.308 103.445 265.529 105.334 265.529 108.112C265.529 111.001 266.53 112.556 268.642 112.556C269.864 112.556 271.087 111.89 271.976 111.001V104.445C271.198 104.112 270.087 103.445 268.642 103.445Z" fill="#030F3B"/>
<path d="M276.977 108.109C276.977 103.553 279.644 101.664 282.756 101.664C286.202 101.664 287.758 103.997 287.758 106.997C287.758 107.442 287.758 107.997 287.647 108.553H279.422C279.533 111.664 280.978 112.664 282.868 112.664C284.646 112.664 285.535 111.886 285.758 110.442L287.647 110.886C287.202 113.22 285.313 114.442 282.645 114.442C278.31 114.553 276.977 111.442 276.977 108.109ZM282.534 103.331C280.867 103.331 279.422 104.331 279.2 106.775H285.202C285.313 104.664 284.535 103.331 282.534 103.331Z" fill="#030F3B"/>
<path d="M292.981 105.223V114.112H290.758V101.779H292.536L292.647 103.556C293.759 102.001 294.982 101.445 296.76 101.445C296.871 101.445 296.982 101.445 297.205 101.445V103.668C295.76 103.779 293.981 104.334 292.981 105.223Z" fill="#030F3B"/>
<path d="M307.878 105.222L305.988 105.667C305.766 104.333 305.321 103.333 303.32 103.333C301.542 103.333 300.986 104.111 300.986 105.111C300.986 106.333 301.987 106.778 303.765 107.222C305.988 107.667 308.211 108.222 308.211 110.889C308.211 113.222 306.433 114.778 303.431 114.778C300.542 114.778 298.874 113.667 298.43 111.222L300.319 110.667C300.764 111.889 301.32 113 303.32 113C304.876 113 305.988 112.556 305.988 111.222C305.988 109.889 304.988 109.667 303.32 109.333C301.208 108.889 298.874 108.556 298.874 105.667C298.874 103.222 300.986 102 303.431 102C306.21 101.667 307.433 103 307.878 105.222Z" fill="#030F3B"/>
</g>
<defs>
<clipPath id="clip0_722_73">
<rect width="309" height="120" fill="white"/>
</clipPath>
</defs>
</svg>
