<?xml version="1.0" encoding="utf-8"?>
<!-- Generator: Adobe Illustrator 25.4.6, SVG Export Plug-In . SVG Version: 6.00 Build 0)  -->
<svg version="1.1" id="Layer_1" xmlns="http://www.w3.org/2000/svg" xmlns:xlink="http://www.w3.org/1999/xlink" x="0px" y="0px"
	 viewBox="0 0 435.1 122.2" style="enable-background:new 0 0 435.1 122.2;" xml:space="preserve">
<style type="text/css">
	.st0{fill:none;}
	.st1{fill:#006A51;}
	.st2{fill:#FFC425;}
</style>
<path d="M10.8,15.3c-0.1-7.8-9.3-5.6-9.3-8c0-1,0.9-1.2,1.7-1.2c3.9,0,7.8,0.4,11.7,0.4c3.3,0,6.6-0.4,9.9-0.4c1.8,0,2,0.6,2,1.1
	c0,2.1-7.7,0.1-7.7,8.1v23c0,1.5,0,1.9,1.6,1.9h38.9c1.1,0,0.9-2.7,0.9-3.1V15.3c0-7.3-8-5.5-8-8c0-0.6,0.2-1.2,1.8-1.2
	c3.5,0,9,0.4,11.1,0.4c3.9,0,5.5-0.4,7.7-0.4c2.8,0,3,1.1,3,1.7c0,1.9-7.1,0.1-7.1,7.4v56.4c0,7.8,9.7,5.9,9.7,8.5
	c0,0.3-0.4,1.3-1.2,1.3c-2.9,0-6.2-0.4-10-0.4c-6.8,0-9.8,0.4-11.8,0.4c-1,0-2.6,0.3-2.6-1.4c0-2.6,7.4-1.1,7.4-7.8V46.8
	c0-1.7,0.4-2.7-0.9-2.7H20.5c-1.3,0-1.3,0.6-1.3,1.8v26.5c0,7.2,10.1,4.9,10.1,8.2c0,0.5-0.7,0.9-1.7,0.9c-1.4,0-9.2-0.4-14.8-0.4
	c-7.6,0-8.7,0.4-9.2,0.4c-0.9,0-1.2-0.5-1.2-1.6c0-3.1,8.3,0.4,8.3-10.1"/>
<path d="M161.2,72.9c0,7.3,8.2,4.3,8.2,7.1c0,1.3-0.7,1.5-1.8,1.5c-1.4,0-4.9-0.4-9.4-0.4c-4.4,0-6.6,0.4-7.9,0.4
	c-0.9,0-1.3-0.5-1.3-1.4c0-1.6,4.4-1.3,4.4-5.9V46.9c0-6.4-6.7-3.6-6.7-5.9c0-0.6,0.4-1.1,1-1.2c7.7-1.9,9.8-5.3,12.2-5.3
	c0.6,0,1.3,0.6,1.3,1.7v6.2c3.2-3.6,7.6-7,12.7-7c6.5,0,10.4,2.1,13.7,7.8c3.3-4.9,7.6-7.8,14.8-7.8c15.7,0,15.2,15.7,15.2,19.5v18
	c0,7.3,8.2,4.3,8.2,7.1c0,1.3-0.7,1.5-1.8,1.5c-1.4,0-4.9-0.4-9.4-0.4c-4.4,0-6.6,0.4-7.9,0.4c-0.9,0-1.3-0.5-1.3-1.4
	c0-1.6,4.4-1.3,4.4-5.9V53.6c0-6.5-2.4-14.3-11.1-14.3c-5,0-9.4,4.4-9.4,6v27.6c0,7.3,8.2,4.3,8.2,7.1c0,1.3-0.7,1.5-1.8,1.5
	c-1.4,0-4.9-0.4-9.4-0.4c-4.4,0-6.6,0.4-7.9,0.4c-0.9,0-1.3-0.5-1.3-1.4c0-1.6,4.4-1.3,4.4-5.9V51.8c0-8.4-5-12.4-10.3-12.4
	c-3,0-10.1,1.9-10.1,9.4"/>
<path d="M233.5,54.2c0,17.6,10.6,22.8,17.1,22.8c9.2,0,12.7-5.5,15-5.5c0.4,0,0.4,0.4,0.4,0.7c0,2.4-9.3,10.1-18.8,10.1
	c-16,0-21.5-14.8-21.5-21.8c0-13.6,7.6-25,20.9-25c13.1,0,18.8,12.7,18.8,16.9c0,1.9-1.2,1.8-3.6,1.8 M254.5,51.3
	c1.5,0,2.1-0.5,2.1-2.1c0-6-6-11.3-11.8-11.3c-6.6,0-11.3,7.6-11.3,13.4H254.5z"/>
<path d="M273.4,36.8c0-7.9,2-15.6,6.3-22.5C282.2,10.5,289.4,3,297,3c1.4,0,4.4,0.4,4.4,2.2c0,2-0.4,7.6-1.6,7.6
	c-1.5,0-0.5-4.5-7.2-4.5c-5.6,0-9.5,6.1-10.4,11c-1.1,5.6-0.9,11.8-0.9,17.6h8.2c2.7,0,3.8-1.8,4.2-1.8c0.5,0,0.7,0.5,0.7,0.9
	c0,0.4-0.3,1-0.6,1.5l-2.1,3.8h-10.3v32.3c0,6.8,7.6,4.3,7.6,6.6c0,1.3-1.4,1-2.2,1H270c-0.5,0-1.7,0.2-1.7-0.6c0-2.2,5.1-1,5.1-6.1
	V41.2h-7.2l0.6-4.4"/>
<path d="M303,46.9c0-6.4-5.9-3.6-5.9-5.9c0-0.6,0.4-1.1,1-1.2c6.8-1.9,8.9-5.3,11.4-5.3c0.6,0,1.3,0.6,1.3,1.7v38.2
	c0,5.4,8.4,3.1,8.4,5.9c0,0.9-0.6,1.2-2,1.2c-2.2,0-5.5-0.4-9.9-0.4c-3.4,0-6.2,0.4-7.3,0.4c-0.9,0-1.5-0.1-1.6-1.2
	c0-2.7,4.7,1.4,4.7-8.3 M311.3,19.1c0,1.3-3.1,5.5-4.5,5.5c-1.3,0-4.5-4.4-4.5-5.5c0-1.2,3.2-5.6,4.5-5.6
	C308.2,13.5,311.3,17.9,311.3,19.1z"/>
<path d="M327.5,54.2c0,17.6,10.6,22.8,17.1,22.8c9.2,0,12.7-5.5,15-5.5c0.4,0,0.4,0.4,0.4,0.7c0,2.4-9.3,10.1-18.8,10.1
	c-16,0-21.5-14.8-21.5-21.8c0-13.6,7.6-25,20.9-25c13.1,0,18.8,12.7,18.8,16.9c0,1.9-1.2,1.8-3.6,1.8 M348.4,51.3
	c1.5,0,2.1-0.5,2.1-2.1c0-6-6-11.3-11.8-11.3c-6.6,0-11.3,7.6-11.3,13.4H348.4z"/>
<path d="M375,72.9c0,7.3,8.8,4.3,8.8,7.1c0,1.3-0.9,1.5-2.4,1.5c-1.5,0-4.8-0.4-9.8-0.4c-5.2,0-7.2,0.4-8.3,0.4
	c-0.9,0-1.3-0.4-1.3-1.4c0-1.6,5.2-1.3,5.2-5.9V14.1c0-6.4-7.2-3.6-7.2-5.9c0-0.6,0.4-1.1,1-1.2c8.2-1.9,10.3-5.3,12.8-5.3
	c0.6,0,1.3,0.6,1.3,1.7"/>
<path d="M418.6,14.1c0-6.4-8.4-3.6-8.4-5.9c0-0.6,0.4-1.1,1-1.2c8.2-1.9,11.5-5.3,13.9-5.3c0.6,0,1.3,0.6,1.3,1.7v72.8
	c0,1.3,2.1,2.1,5.6,2.7c0.7,0.1,1.2,0.1,1.2,1c0,0.7-2.8,1.5-6.7,1.5c-2.8,0-5.7,0.9-6.7,0.9c-0.9,0-1.2-0.9-1.2-1.6v-5.9h-0.2
	c-3.6,4.6-9.5,7.4-15.6,7.4c-11.7,0-18.8-10.7-18.8-21.7c0-12.6,8.8-25.1,22.2-25.1c4.5,0,8.8,1.3,12.4,3.7 M418.6,50.2
	c0-7.9-6.4-12.3-14-12.3c-10,0-14.5,9.4-14.5,18.2c0,8.8,6.4,21.6,16.5,21.6c8.8,0,12-5.4,12-9.3V50.2z"/>
<path d="M199.7,100.2c-1.7-0.7-3.5-1-4.9-1c-5.1,0-7.9,4.3-7.9,8.8c0,4.2,2.4,8.8,8.2,8.8c1.5,0,3.5-0.5,4.9-1.3l0.3,3.9
	c-1.9,0.8-4.1,1-5.7,1c-7.4,0-12.5-5.6-12.5-12.3c0-7.1,5-12.3,12.5-12.3c1.8,0,4.2,0.4,5.5,0.9"/>
<path d="M205.5,96.3h4.2v3.6h0.1c1.2-2.4,3.8-4.2,6.4-4.2c1.4,0,2,0.1,3,0.3v3.9c-0.8-0.3-1.7-0.4-2.5-0.4c-4.1,0-6.7,3.7-6.7,9.6
	v10.7h-4.5"/>
<path d="M241.4,118.7c-1.7,0.6-3.7,1.5-7.8,1.5c-8.7,0-12.7-5.1-12.7-12.7c0-6.9,4.6-11.9,11.5-11.9c8.2,0,10.9,5.7,10.9,13.2h-17.6
	c0,4.6,3.8,7.8,8.1,7.8c3,0,6.5-1.5,7.6-2.3 M238.4,105.7c0-3.6-2.2-6.5-6.1-6.5c-4.4,0-6.3,3.5-6.6,6.5H238.4z"/>
<path d="M265.1,116.4L265.1,116.4c-1.3,1.7-4.1,3.9-8.5,3.9c-7.4,0-10.6-6.3-10.6-12.7c0-6.3,3.5-11.9,10.6-11.9
	c4.3,0,6.8,1.6,8.2,3.8h0.1V85.2h4.5v34.5h-4.3 M257.6,116.8c5.1,0,7.2-4.8,7.2-8.7c0-4.4-2.4-8.8-7.3-8.8c-4.9,0-6.9,4.4-6.8,8.7
	C250.7,111.6,252.8,116.8,257.6,116.8z"/>
<path d="M280,91h-5.1v-4.9h5.1 M275.2,96.3h4.5v23.4h-4.5V96.3z"/>
<path d="M300.2,99.7h-6.5v12.8c0,2.7,1.7,4.2,3.8,4.2c1.4,0,2.4-0.4,3.1-0.8v3.7c-1,0.3-2.4,0.6-3.9,0.6c-4.7,0-7.6-2.1-7.6-6.8
	V99.7h-5.6v-3.5h5.6v-5.4l4.5-1.4v6.8h6.5"/>
<path d="M341.1,119.7h-4.4V116h-0.1c-1.4,2.7-4.6,4.3-8.1,4.3c-6.4,0-9.2-3.8-9.2-10.1V96.3h4.5v12.1c0,5.5,1.3,8.1,5.2,8.4
	c5.2,0,7.5-4,7.5-9.7V96.3h4.5"/>
<path d="M347.1,96.3h4.4v3.7h0.1c1.4-2.7,4.6-4.3,8.1-4.3c6.4,0,9.2,3.8,9.2,10.1v13.9h-4.5v-12.1c0-5.5-1.3-8.1-5.2-8.4
	c-5.2,0-7.5,4-7.5,9.7v10.8h-4.5"/>
<path d="M378.6,91h-5.1v-4.9h5.1 M373.8,96.3h4.5v23.4h-4.5V96.3z"/>
<path d="M395,95.7c7.5,0,12.5,5.1,12.5,12.3c0,6.7-5.1,12.3-12.5,12.3c-7.4,0-12.5-5.6-12.5-12.3C382.4,100.8,387.5,95.7,395,95.7
	 M395,116.8c5.3,0,7.7-4.6,7.7-8.8c0-4.5-2.8-8.8-7.7-8.8c-4.9,0-7.7,4.3-7.7,8.8C387.3,112.2,389.6,116.8,395,116.8z"/>
<path d="M411,96.3h4.4v3.7h0.1c1.4-2.7,4.6-4.3,8.1-4.3c6.4,0,9.2,3.8,9.2,10.1v13.9h-4.5v-12.1c0-5.5-1.3-8.1-5.2-8.4
	c-5.2,0-7.5,4-7.5,9.7v10.8H411"/>
<rect x="1.6" y="1.8" class="st0" width="431.5" height="388.2"/>
<path class="st1" d="M41.1,97.9c0,0,15.7-11.6,52.1-10.4c36.3,1.2,49.9,13.5,49.9,13.5s-17.4-7.4-49.4-8.4
	C60.4,91.6,41.1,97.9,41.1,97.9"/>
<path class="st2" d="M159.3,59.7L159.3,59.7c0.1,0-14-4.1-15.5-8c-1.1-2.8,6.6-7.7,6.6-7.7s-7.3,1.4-10.9-2.1
	c-2.1-2.1,7-16.7,6.5-16.4c-6.8,4.4-14.2,6.3-16.4,6.3c-2.1,0-1.1-10.8-1.1-10.8s-5.3,7.1-9.5,6.4c-4.3-0.6-7.3-17.3-7.3-17.3
	s-3,16.7-6.8,18.2c-2.8,1.1-7.7-6.6-7.7-6.6s1.3,8.5-2.1,10.9c-2.5,1.7-16.9-7.3-16.4-6.6c4.4,6.8,6.2,14.3,6.2,16.4
	c0,2.1-10.9,1.1-10.9,1.1s7,5.3,6.4,9.6c-0.6,4.3-14.9,6.6-14.9,6.6s15,4.5,15.2,8.6c0.1,2.3-3.4,6.7-5.1,8.3c7.5-1,19.9,1.2,28.8,2
	c15.8,1.4,30,4.2,39.6,9c-3.7-3.4-4.4-9.2-4.4-10.2c0-2.1,11.6-1.9,11.6-1.9s-7.1-5.2-6.5-9.5C145.3,61.5,159.3,59.7,159.3,59.7z
	 M127.5,80c-7-2.2-15.1-3.8-24.1-4.6C99,75.1,94.9,75,90.9,75c-3.2-4.3-5.1-9.7-5.1-15.5c0-14.3,11.6-25.9,25.9-25.9
	s25.9,11.6,25.9,25.9C137.5,67.9,133.6,75.3,127.5,80z"/>
<path class="st1" d="M141.5,85.6c-4.1-2.1-8.8-4-14-5.6c-7-2.2-15.1-3.8-24.1-4.6C99,75.1,94.9,75,90.9,75c-4.3,0.1-8.4,0.4-12.3,1
	C51.7,79.6,35,91.7,35,91.7s19.2-8.6,50.7-9.6c4.3-0.1,8.8-0.1,13.6,0.1c0.4,0,0.8,0,1.1,0.1c5.7,0.3,11.6,1.2,17.2,2.3
	c11.4,2.4,22,6.2,29,10.3c22.1,13.1,29.6,25.5,29.6,25.5S168.6,99.5,141.5,85.6z"/>
</svg>
