<svg xmlns="http://www.w3.org/2000/svg" xmlns:xlink="http://www.w3.org/1999/xlink" id="header_logo" width="446.393" height="56.881" viewBox="0 0 446.393 56.881">
  <defs>
    <style>
      .cls-1, .cls-5 {
        fill: none;
      }

      .cls-2 {
        clip-path: url(#clip-path);
      }

      .cls-3 {
        fill: #00789b;
      }

      .cls-4 {
        fill: #003d74;
      }

      .cls-5 {
        stroke: #003d74;
        stroke-miterlimit: 10;
        stroke-width: 0.3px;
      }

      .cls-6 {
        fill: #fff;
      }

      .cls-7 {
        fill: #45abad;
      }
    </style>
    <clipPath id="clip-path">
      <rect id="Rectangle_1082" data-name="Rectangle 1082" class="cls-1" width="446.393" height="56.881"/>
    </clipPath>
  </defs>
  <g id="Group_3089" data-name="Group 3089" class="cls-2">
    <path id="Path_1154" data-name="Path 1154" class="cls-3" d="M36.274,36.743a2.689,2.689,0,0,0-.433-.967,3.233,3.233,0,0,0-.794-.783,3.9,3.9,0,0,0-1.094-.523,4.513,4.513,0,0,0-1.327-.19,4.86,4.86,0,0,0-1.824.328,3.682,3.682,0,0,0-1.4.967,4.363,4.363,0,0,0-.889,1.6,7.184,7.184,0,0,0-.312,2.226,7.288,7.288,0,0,0,.312,2.236,4.515,4.515,0,0,0,.889,1.623,3.738,3.738,0,0,0,1.385.994,4.617,4.617,0,0,0,1.8.338,4.262,4.262,0,0,0,2.475-.671,2.892,2.892,0,0,0,1.205-1.961h.877a4,4,0,0,1-.517,1.475,3.8,3.8,0,0,1-.984,1.095,4.342,4.342,0,0,1-1.363.676,5.765,5.765,0,0,1-1.671.233,5.45,5.45,0,0,1-2.205-.428A4.7,4.7,0,0,1,28.746,43.8a5.411,5.411,0,0,1-1.057-1.9,7.918,7.918,0,0,1-.369-2.5,7.739,7.739,0,0,1,.369-2.475,5.346,5.346,0,0,1,1.063-1.877,4.663,4.663,0,0,1,1.67-1.195,5.545,5.545,0,0,1,2.194-.417,5.157,5.157,0,0,1,1.592.243,4.782,4.782,0,0,1,1.358.682,4.216,4.216,0,0,1,1.015,1.047,3.792,3.792,0,0,1,.57,1.338Z" transform="translate(5.545 6.786)"/>
    <path id="Path_1155" data-name="Path 1155" class="cls-3" d="M40.731,36.247a3.8,3.8,0,0,1,1.512.291,3.116,3.116,0,0,1,1.152.846,3.8,3.8,0,0,1,.729,1.353,6.563,6.563,0,0,1,0,3.632,3.893,3.893,0,0,1-.735,1.358,3.116,3.116,0,0,1-1.152.846,3.747,3.747,0,0,1-1.5.291,3.793,3.793,0,0,1-1.5-.285,3.063,3.063,0,0,1-1.146-.841,3.973,3.973,0,0,1-.741-1.358,6.522,6.522,0,0,1,0-3.653,3.857,3.857,0,0,1,.735-1.349,3.154,3.154,0,0,1,1.152-.84,3.768,3.768,0,0,1,1.5-.291m0,7.771a2.893,2.893,0,0,0,1.137-.217,2.331,2.331,0,0,0,.883-.656,3.155,3.155,0,0,0,.576-1.089,5.661,5.661,0,0,0,0-3.024,3.054,3.054,0,0,0-.576-1.079,2.38,2.38,0,0,0-.883-.645,2.893,2.893,0,0,0-1.137-.217,2.926,2.926,0,0,0-1.148.217,2.376,2.376,0,0,0-.882.645,2.954,2.954,0,0,0-.571,1.079,5.791,5.791,0,0,0,0,3.024,3.05,3.05,0,0,0,.571,1.089,2.327,2.327,0,0,0,.882.656,2.926,2.926,0,0,0,1.148.217" transform="translate(7.527 7.357)"/>
    <path id="Path_1156" data-name="Path 1156" class="cls-3" d="M48.2,36.247a3.8,3.8,0,0,1,1.512.291,3.116,3.116,0,0,1,1.152.846,3.8,3.8,0,0,1,.729,1.353,6.563,6.563,0,0,1,0,3.632,3.893,3.893,0,0,1-.735,1.358,3.116,3.116,0,0,1-1.152.846,3.747,3.747,0,0,1-1.5.291,3.793,3.793,0,0,1-1.5-.285,3.063,3.063,0,0,1-1.146-.841,3.973,3.973,0,0,1-.741-1.358,6.522,6.522,0,0,1,0-3.653,3.857,3.857,0,0,1,.735-1.349,3.154,3.154,0,0,1,1.152-.84,3.768,3.768,0,0,1,1.5-.291m0,7.771a2.893,2.893,0,0,0,1.137-.217,2.331,2.331,0,0,0,.883-.656,3.155,3.155,0,0,0,.576-1.089,5.661,5.661,0,0,0,0-3.024,3.054,3.054,0,0,0-.576-1.079,2.38,2.38,0,0,0-.883-.645,2.893,2.893,0,0,0-1.137-.217,2.926,2.926,0,0,0-1.148.217,2.376,2.376,0,0,0-.882.645,2.954,2.954,0,0,0-.571,1.079,5.791,5.791,0,0,0,0,3.024,3.05,3.05,0,0,0,.571,1.089,2.327,2.327,0,0,0,.882.656,2.926,2.926,0,0,0,1.148.217" transform="translate(9.044 7.357)"/>
    <path id="Path_1157" data-name="Path 1157" class="cls-3" d="M53.267,37.677a4.819,4.819,0,0,1,.777-.772,3.432,3.432,0,0,1,.724-.433,2.58,2.58,0,0,1,.671-.191,4.931,4.931,0,0,1,.628-.042,2.892,2.892,0,0,1,1.353.307,2.8,2.8,0,0,1,.994.861,4.07,4.07,0,0,1,.615,1.338,6.654,6.654,0,0,1,.212,1.735,6.11,6.11,0,0,1-.25,1.813,4.284,4.284,0,0,1-.686,1.38,3.13,3.13,0,0,1-1.036.883,2.758,2.758,0,0,1-1.3.312c-.2,0-.4-.008-.614-.026a3.048,3.048,0,0,1-.656-.132,3.5,3.5,0,0,1-.7-.312,4.184,4.184,0,0,1-.74-.555v3.827h-.846V36.461h.846Zm0,5.138a3.519,3.519,0,0,0,2.622,1.205,2.292,2.292,0,0,0,1.03-.227,2.148,2.148,0,0,0,.787-.671,3.229,3.229,0,0,0,.508-1.106,5.809,5.809,0,0,0,.182-1.537,4.194,4.194,0,0,0-.641-2.527,2.117,2.117,0,0,0-1.8-.857,3.3,3.3,0,0,0-2.684,1.638Z" transform="translate(10.64 7.356)"/>
    <path id="Path_1158" data-name="Path 1158" class="cls-3" d="M63.3,44.864a4,4,0,0,1-1.554-.291,3.308,3.308,0,0,1-1.2-.846,3.861,3.861,0,0,1-.777-1.358,6.208,6.208,0,0,1-.011-3.622,3.9,3.9,0,0,1,.751-1.353,3.309,3.309,0,0,1,1.152-.851,3.609,3.609,0,0,1,1.481-.3,3.735,3.735,0,0,1,1.512.3,3.182,3.182,0,0,1,1.152.851,3.864,3.864,0,0,1,.729,1.353,5.931,5.931,0,0,1,.254,1.8v.19H60.342a4.976,4.976,0,0,0,.306,1.448,3.093,3.093,0,0,0,.635,1.02,2.521,2.521,0,0,0,.9.609,3.044,3.044,0,0,0,1.116.2,3.635,3.635,0,0,0,.846-.1,2.782,2.782,0,0,0,.766-.3,2.042,2.042,0,0,0,.576-.5,1.3,1.3,0,0,0,.274-.677H66.6a2.839,2.839,0,0,1-1.143,1.792,3.164,3.164,0,0,1-.983.47,4.212,4.212,0,0,1-1.173.159m2.632-4.97a3.5,3.5,0,0,0-.956-2.1,2.583,2.583,0,0,0-1.835-.7,2.911,2.911,0,0,0-1,.17,2.341,2.341,0,0,0-.83.517,2.934,2.934,0,0,0-.614.878,4.4,4.4,0,0,0-.354,1.237Z" transform="translate(12.076 7.357)"/>
    <path id="Path_1159" data-name="Path 1159" class="cls-3" d="M71.163,37.114a1.387,1.387,0,0,0-.254-.022H70.6a1.727,1.727,0,0,0-.7.148,3.043,3.043,0,0,0-.645.386,4.163,4.163,0,0,0-.571.54,4.353,4.353,0,0,0-.455.618v5.868h-.846V36.459h.846v1.132a4.447,4.447,0,0,1,.715-.688,3.619,3.619,0,0,1,.687-.413,2.527,2.527,0,0,1,.64-.195,3.589,3.589,0,0,1,.561-.048c.055,0,.108,0,.158.006s.106.008.17.016Z" transform="translate(13.678 7.357)"/>
    <path id="Path_1160" data-name="Path 1160" class="cls-3" d="M77.3,43.595a5.988,5.988,0,0,1-.846.629,4.588,4.588,0,0,1-.808.391,3.911,3.911,0,0,1-.788.2,5.983,5.983,0,0,1-.793.053,2.992,2.992,0,0,1-1-.165,2.357,2.357,0,0,1-.8-.464,2.154,2.154,0,0,1-.534-.73,2.236,2.236,0,0,1-.2-.946,2.474,2.474,0,0,1,1.2-2.189,6.669,6.669,0,0,1,3.6-.782H77.3a7.239,7.239,0,0,0-.064-.994,1.778,1.778,0,0,0-.3-.788,1.523,1.523,0,0,0-.687-.523,3.265,3.265,0,0,0-1.237-.19,3.32,3.32,0,0,0-1.729.358,1.458,1.458,0,0,0-.682,1.09h-.836a2.326,2.326,0,0,1,.909-1.729,3.956,3.956,0,0,1,2.327-.565,4.389,4.389,0,0,1,1.453.211,2.424,2.424,0,0,1,.973.609,2.341,2.341,0,0,1,.544.961,4.44,4.44,0,0,1,.17,1.275v5.35H77.3Zm0-3.161H76.022a5.578,5.578,0,0,0-2.744.528,1.664,1.664,0,0,0-.9,1.512,1.314,1.314,0,0,0,.571,1.137,2.648,2.648,0,0,0,1.565.407,2.705,2.705,0,0,0,.84-.131,3.941,3.941,0,0,0,.768-.344,4.592,4.592,0,0,0,.66-.47,6.073,6.073,0,0,0,.523-.5Z" transform="translate(14.519 7.357)"/>
    <path id="Path_1161" data-name="Path 1161" class="cls-3" d="M82.136,45.053c-.12.014-.239.025-.36.031s-.239.011-.36.011a2.14,2.14,0,0,1-.883-.153,1.091,1.091,0,0,1-.506-.461,1.991,1.991,0,0,1-.227-.766,9.327,9.327,0,0,1-.053-1.073V37.631H78.7v-.846h1.047V34.639h.846v2.146h1.343v.846H80.592v5.086a3.529,3.529,0,0,0,.073.808,1.065,1.065,0,0,0,.223.466.669.669,0,0,0,.365.211,2.251,2.251,0,0,0,.492.048h.2a1.887,1.887,0,0,0,.19-.011Z" transform="translate(15.975 7.031)"/>
    <path id="Path_1162" data-name="Path 1162" class="cls-3" d="M83.993,45.187h-.846V36.993h.846ZM84,34.932h-.846V33.61H84Z" transform="translate(16.877 6.822)"/>
    <path id="Path_1163" data-name="Path 1163" class="cls-3" d="M92.437,36.423l-3.109,8.195h-.761l-3.109-8.195h.857l2.633,7.031,2.643-7.031Z" transform="translate(17.346 7.393)"/>
    <path id="Path_1164" data-name="Path 1164" class="cls-3" d="M96.226,44.864a4,4,0,0,1-1.554-.291,3.308,3.308,0,0,1-1.2-.846,3.861,3.861,0,0,1-.777-1.358,6.208,6.208,0,0,1-.011-3.622,3.9,3.9,0,0,1,.751-1.353,3.309,3.309,0,0,1,1.152-.851,3.609,3.609,0,0,1,1.481-.3,3.735,3.735,0,0,1,1.512.3,3.182,3.182,0,0,1,1.152.851,3.864,3.864,0,0,1,.729,1.353,5.931,5.931,0,0,1,.254,1.8v.19H93.266a4.975,4.975,0,0,0,.306,1.448,3.093,3.093,0,0,0,.635,1.02,2.521,2.521,0,0,0,.9.609,3.044,3.044,0,0,0,1.116.2,3.635,3.635,0,0,0,.846-.1,2.782,2.782,0,0,0,.766-.3,2.042,2.042,0,0,0,.576-.5,1.3,1.3,0,0,0,.274-.677h.836a2.839,2.839,0,0,1-1.143,1.792,3.164,3.164,0,0,1-.983.47,4.212,4.212,0,0,1-1.173.159m2.632-4.97a3.5,3.5,0,0,0-.956-2.1,2.583,2.583,0,0,0-1.835-.7,2.911,2.911,0,0,0-1,.17,2.341,2.341,0,0,0-.83.517,2.934,2.934,0,0,0-.614.878,4.4,4.4,0,0,0-.354,1.237Z" transform="translate(18.759 7.357)"/>
    <path id="Path_1165" data-name="Path 1165" class="cls-3" d="M113.242,41.942a2.884,2.884,0,0,1-1.062,2.411,4.979,4.979,0,0,1-3.124.835h-4.208V33.61h4.186a4.564,4.564,0,0,1,2.671.66,2.418,2.418,0,0,1,.925,2.11,4.564,4.564,0,0,1-.079.83,2.529,2.529,0,0,1-.291.8,2.278,2.278,0,0,1-.581.662,2.317,2.317,0,0,1-.952.417,3.237,3.237,0,0,1,1.305.354,2.232,2.232,0,0,1,.761.682,2.351,2.351,0,0,1,.36.883,5.18,5.18,0,0,1,.089.936M105.694,38.7H108.8a4.111,4.111,0,0,0,2.274-.5,1.876,1.876,0,0,0,.729-1.671,1.843,1.843,0,0,0-.676-1.57,3.623,3.623,0,0,0-2.168-.514l-3.267.011Zm0,5.646h3.352q3.279,0,3.278-2.4a3.088,3.088,0,0,0-.17-1.079,1.57,1.57,0,0,0-.576-.745,2.887,2.887,0,0,0-1.078-.434,8.328,8.328,0,0,0-1.687-.142h-3.119Z" transform="translate(21.282 6.822)"/>
    <path id="Path_1166" data-name="Path 1166" class="cls-3" d="M119.26,43.595a5.987,5.987,0,0,1-.846.629,4.588,4.588,0,0,1-.808.391,3.911,3.911,0,0,1-.788.2,5.983,5.983,0,0,1-.793.053,2.992,2.992,0,0,1-1-.165,2.357,2.357,0,0,1-.8-.464,2.153,2.153,0,0,1-.534-.73,2.236,2.236,0,0,1-.2-.946,2.474,2.474,0,0,1,1.2-2.189,6.669,6.669,0,0,1,3.6-.782h.973a7.239,7.239,0,0,0-.064-.994,1.778,1.778,0,0,0-.3-.788,1.523,1.523,0,0,0-.687-.523,3.265,3.265,0,0,0-1.237-.19,3.32,3.32,0,0,0-1.729.358,1.458,1.458,0,0,0-.682,1.09h-.836a2.326,2.326,0,0,1,.909-1.729,3.956,3.956,0,0,1,2.327-.565,4.389,4.389,0,0,1,1.453.211,2.424,2.424,0,0,1,.973.609,2.341,2.341,0,0,1,.544.961,4.44,4.44,0,0,1,.17,1.275v5.35h-.846Zm0-3.161h-1.279a5.578,5.578,0,0,0-2.744.528,1.664,1.664,0,0,0-.9,1.512,1.314,1.314,0,0,0,.571,1.137,2.648,2.648,0,0,0,1.565.407,2.705,2.705,0,0,0,.84-.131,3.942,3.942,0,0,0,.768-.344,4.592,4.592,0,0,0,.66-.47,6.072,6.072,0,0,0,.523-.5Z" transform="translate(23.036 7.357)"/>
    <path id="Path_1167" data-name="Path 1167" class="cls-3" d="M122.112,37.674a4.716,4.716,0,0,1,.808-.772,3.6,3.6,0,0,1,.772-.433,2.807,2.807,0,0,1,.713-.185,6.041,6.041,0,0,1,.635-.037q2.526,0,2.526,2.982v5.424h-.846V39.3a4.312,4.312,0,0,0-.1-.989,1.653,1.653,0,0,0-.328-.688,1.377,1.377,0,0,0-.592-.4,2.65,2.65,0,0,0-.894-.131,2.59,2.59,0,0,0-1.369.411,5.9,5.9,0,0,0-1.327,1.163v5.985h-.846V36.458h.846Z" transform="translate(24.615 7.357)"/>
    <path id="Path_1168" data-name="Path 1168" class="cls-3" d="M135.017,45.188h-1.057l-2.981-4.621-1.344,1.311v3.309h-.846V33.61h.846v7.2l3.934-3.838h1.1L131.559,40Z" transform="translate(26.142 6.822)"/>
    <path id="Path_1169" data-name="Path 1169" class="cls-3" d="M317.512,36.721l-.5,1.529h-.645l1.64-4.862h.752L320.4,38.25h-.665l-.515-1.529Zm1.582-.491-.472-1.4c-.108-.318-.179-.606-.251-.888h-.014c-.071.289-.149.585-.243.881l-.473,1.406Zm3.1-2.778a8.841,8.841,0,0,1,1.324-.1,2.746,2.746,0,0,1,1.954.606,2.25,2.25,0,0,1,.681,1.746,2.584,2.584,0,0,1-.694,1.89,2.958,2.958,0,0,1-2.134.7,9.968,9.968,0,0,1-1.131-.058Zm.623,4.3a3.894,3.894,0,0,0,.629.036,1.862,1.862,0,0,0,2.055-2.063,1.727,1.727,0,0,0-1.954-1.875,3.509,3.509,0,0,0-.73.065Zm4.607-3.975a.39.39,0,0,1-.781,0,.386.386,0,0,1,.395-.4.375.375,0,0,1,.386.4m-.7.982h.63V38.25h-.63Zm1.7,0,.681,1.962a9.247,9.247,0,0,1,.279.894h.022c.078-.289.178-.576.294-.894l.672-1.962h.658l-1.359,3.491h-.6l-1.317-3.491Zm3.684-.982a.39.39,0,0,1-.781,0,.385.385,0,0,1,.393-.4.376.376,0,0,1,.387.4m-.7.982h.63V38.25h-.63ZM332.77,37.6a1.645,1.645,0,0,0,.831.253c.458,0,.673-.231.673-.52s-.179-.468-.644-.641c-.623-.224-.917-.57-.917-.989a1.071,1.071,0,0,1,1.2-1.024,1.721,1.721,0,0,1,.852.217l-.158.461a1.339,1.339,0,0,0-.709-.2c-.373,0-.58.217-.58.476,0,.289.207.419.658.592.6.231.909.534.909,1.053,0,.614-.473,1.047-1.3,1.047a1.958,1.958,0,0,1-.973-.238Zm3.4-3.823a.39.39,0,1,1-.78,0,.385.385,0,0,1,.393-.4.375.375,0,0,1,.386.4m-.7.982h.63V38.25h-.63Zm4.591,1.717a1.7,1.7,0,0,1-1.725,1.854,1.655,1.655,0,0,1-1.661-1.8,1.7,1.7,0,0,1,1.718-1.854,1.648,1.648,0,0,1,1.669,1.8m-2.749.036c0,.764.437,1.341,1.053,1.341.6,0,1.051-.569,1.051-1.356,0-.592-.294-1.343-1.038-1.343s-1.066.693-1.066,1.357m3.325-.808c0-.361-.007-.656-.029-.944h.558l.036.576h.014a1.274,1.274,0,0,1,1.145-.656c.48,0,1.225.289,1.225,1.486V38.25h-.63V36.237c0-.563-.207-1.032-.8-1.032a.9.9,0,0,0-.846.65.951.951,0,0,0-.042.3v2.1h-.63Zm8.188.772a1.7,1.7,0,0,1-1.725,1.854,1.655,1.655,0,0,1-1.661-1.8,1.7,1.7,0,0,1,1.719-1.854,1.647,1.647,0,0,1,1.667,1.8m-2.749.036c0,.764.437,1.341,1.053,1.341s1.053-.569,1.053-1.356c0-.592-.294-1.343-1.038-1.343s-1.067.693-1.067,1.357m3.39,1.738V35.241h-.487v-.482h.487v-.166a1.655,1.655,0,0,1,.4-1.22,1.2,1.2,0,0,1,.844-.325,1.452,1.452,0,0,1,.538.1l-.087.491a.93.93,0,0,0-.4-.079c-.537,0-.672.476-.672,1.011v.188h.837v.482h-.837V38.25Zm6.8-.217a4.461,4.461,0,0,1-1.482.267,2.465,2.465,0,0,1-1.8-.642,2.512,2.512,0,0,1-.674-1.81,2.43,2.43,0,0,1,2.613-2.511,2.957,2.957,0,0,1,1.2.224l-.15.512a2.481,2.481,0,0,0-1.066-.209,1.812,1.812,0,0,0-1.94,1.955,1.775,1.775,0,0,0,1.861,1.962,2.015,2.015,0,0,0,.83-.13V36.2h-.98V35.7h1.589Zm.713-2.186c0-.411-.007-.764-.029-1.089h.551l.022.684h.029a1.041,1.041,0,0,1,.96-.764.668.668,0,0,1,.178.022v.6a.932.932,0,0,0-.214-.022.886.886,0,0,0-.844.816,1.788,1.788,0,0,0-.029.3V38.25h-.623Zm2.472.772a1.114,1.114,0,0,0,1.189,1.211,2.257,2.257,0,0,0,.959-.18l.107.455a2.78,2.78,0,0,1-1.152.217,1.616,1.616,0,0,1-1.7-1.76,1.69,1.69,0,0,1,1.625-1.883,1.475,1.475,0,0,1,1.432,1.644,2.392,2.392,0,0,1-.022.3Zm1.847-.455a.9.9,0,0,0-.873-1.032,1.05,1.05,0,0,0-.966,1.032Zm1.522.455a1.114,1.114,0,0,0,1.189,1.211,2.258,2.258,0,0,0,.959-.18l.107.455a2.785,2.785,0,0,1-1.152.217,1.615,1.615,0,0,1-1.7-1.76,1.69,1.69,0,0,1,1.625-1.883,1.475,1.475,0,0,1,1.432,1.644,2.393,2.393,0,0,1-.022.3Zm1.847-.455a.9.9,0,0,0-.873-1.032,1.048,1.048,0,0,0-.966,1.032Zm1.171-.462c0-.361-.007-.656-.029-.944h.558l.036.576h.014a1.274,1.274,0,0,1,1.145-.656c.48,0,1.225.289,1.225,1.486V38.25h-.63V36.237c0-.563-.207-1.032-.8-1.032a.9.9,0,0,0-.846.65.949.949,0,0,0-.042.3v2.1h-.63Zm3.819,2.547V35.241h-.487v-.482h.487v-.188a1.394,1.394,0,0,1,1.511-1.523,1.727,1.727,0,0,1,.881.231l-.179.484a1.316,1.316,0,0,0-.73-.2c-.666,0-.859.469-.859,1.025v.173h2.011V38.25h-.623V35.241h-1.388V38.25Zm3.812-1.63a1.114,1.114,0,0,0,1.189,1.211,2.257,2.257,0,0,0,.959-.18l.107.455a2.785,2.785,0,0,1-1.152.217,1.616,1.616,0,0,1-1.7-1.76,1.69,1.69,0,0,1,1.625-1.883,1.475,1.475,0,0,1,1.432,1.644,2.4,2.4,0,0,1-.022.3Zm1.847-.455a.9.9,0,0,0-.873-1.032,1.048,1.048,0,0,0-.966,1.032Zm1.171-3.038h.63V38.25h-.63Zm4.462,0v4.22c0,.31.007.664.028.9h-.565l-.028-.606h-.014a1.281,1.281,0,0,1-1.181.686,1.587,1.587,0,0,1-1.482-1.774,1.665,1.665,0,0,1,1.553-1.875,1.157,1.157,0,0,1,1.045.533h.014V33.127Zm-.63,3.052a1.122,1.122,0,0,0-.029-.267.928.928,0,0,0-.909-.736c-.651,0-1.037.577-1.037,1.35,0,.707.343,1.291,1.024,1.291a.948.948,0,0,0,.923-.757,1.1,1.1,0,0,0,.029-.274Z" transform="translate(64.217 6.708)"/>
    <path id="Path_1170" data-name="Path 1170" class="cls-3" d="M320.09,44.047a3.066,3.066,0,0,1-1.274.231,2.265,2.265,0,0,1-2.384-2.46,2.412,2.412,0,0,1,2.52-2.554,2.567,2.567,0,0,1,1.145.217l-.15.512a2.251,2.251,0,0,0-.973-.2,1.8,1.8,0,0,0-1.883,2.005,1.761,1.761,0,0,0,1.854,1.955,2.486,2.486,0,0,0,1.018-.2Z" transform="translate(64.23 7.97)"/>
    <path id="Path_1171" data-name="Path 1171" class="cls-3" d="M323.035,42.2a1.7,1.7,0,0,1-1.725,1.854,1.653,1.653,0,0,1-1.66-1.8,1.7,1.7,0,0,1,1.717-1.854,1.648,1.648,0,0,1,1.669,1.8m-2.749.036c0,.765.437,1.343,1.053,1.343s1.051-.57,1.051-1.357c0-.591-.292-1.341-1.037-1.341s-1.067.692-1.067,1.356" transform="translate(64.883 8.201)"/>
    <path id="Path_1172" data-name="Path 1172" class="cls-3" d="M326.115,42.2a1.7,1.7,0,0,1-1.725,1.854,1.653,1.653,0,0,1-1.66-1.8,1.7,1.7,0,0,1,1.717-1.854,1.648,1.648,0,0,1,1.669,1.8m-2.749.036c0,.765.437,1.343,1.053,1.343s1.051-.57,1.051-1.357c0-.591-.292-1.341-1.037-1.341s-1.067.692-1.067,1.356" transform="translate(65.508 8.201)"/>
    <path id="Path_1173" data-name="Path 1173" class="cls-3" d="M326.021,41.623c0-.448-.013-.807-.029-1.139h.567l.028.6h.014a1.363,1.363,0,0,1,1.232-.677,1.577,1.577,0,0,1,1.468,1.774c0,1.255-.759,1.875-1.576,1.875a1.214,1.214,0,0,1-1.066-.547h-.014v1.9h-.623Zm.623.931a1.546,1.546,0,0,0,.028.26.975.975,0,0,0,.947.742c.664,0,1.053-.549,1.053-1.349,0-.7-.366-1.3-1.032-1.3a1.008,1.008,0,0,0-.952.787,1.029,1.029,0,0,0-.043.26Z" transform="translate(66.17 8.201)"/>
    <path id="Path_1174" data-name="Path 1174" class="cls-3" d="M329.614,42.343a1.116,1.116,0,0,0,1.189,1.213,2.268,2.268,0,0,0,.96-.18l.107.455a2.789,2.789,0,0,1-1.152.217,1.615,1.615,0,0,1-1.7-1.76,1.69,1.69,0,0,1,1.624-1.883,1.476,1.476,0,0,1,1.433,1.644,2.319,2.319,0,0,1-.023.295Zm1.848-.454a.9.9,0,0,0-.875-1.031,1.047,1.047,0,0,0-.965,1.031Z" transform="translate(66.784 8.201)"/>
    <path id="Path_1175" data-name="Path 1175" class="cls-3" d="M332.027,41.572c0-.411-.007-.764-.029-1.089h.552l.02.686h.029a1.038,1.038,0,0,1,.959-.765.671.671,0,0,1,.179.022v.6a.943.943,0,0,0-.215-.022.888.888,0,0,0-.845.816,1.8,1.8,0,0,0-.028.3v1.861h-.623Z" transform="translate(67.389 8.201)"/>
    <path id="Path_1176" data-name="Path 1176" class="cls-3" d="M335.749,43.974l-.051-.44h-.02a1.289,1.289,0,0,1-1.06.52.991.991,0,0,1-1.06-1c0-.843.745-1.305,2.084-1.3V41.68a.718.718,0,0,0-.788-.808,1.718,1.718,0,0,0-.9.26l-.142-.417a2.132,2.132,0,0,1,1.137-.31c1.06,0,1.318.728,1.318,1.428v1.305a5.056,5.056,0,0,0,.057.837Zm-.093-1.782c-.687-.014-1.468.108-1.468.786a.559.559,0,0,0,.593.606A.863.863,0,0,0,335.62,43a.657.657,0,0,0,.036-.2Z" transform="translate(67.706 8.201)"/>
    <path id="Path_1177" data-name="Path 1177" class="cls-3" d="M337.29,39.636v1h.9v.484h-.9V43c0,.433.121.678.473.678a1.388,1.388,0,0,0,.364-.043l.029.476a1.531,1.531,0,0,1-.558.087.871.871,0,0,1-.681-.267,1.306,1.306,0,0,1-.243-.909v-1.9h-.537v-.484h.537V39.8Z" transform="translate(68.23 8.045)"/>
    <path id="Path_1178" data-name="Path 1178" class="cls-3" d="M338.961,39.721a.39.39,0,1,1-.78,0,.385.385,0,0,1,.393-.4.375.375,0,0,1,.386.4m-.7.982h.629v3.491h-.629Z" transform="translate(68.644 7.982)"/>
    <path id="Path_1179" data-name="Path 1179" class="cls-3" d="M339.771,40.47l.68,1.962a9.287,9.287,0,0,1,.28.9h.02c.079-.289.179-.577.295-.9l.672-1.962h.658l-1.361,3.491h-.6L339.1,40.47Z" transform="translate(68.83 8.215)"/>
    <path id="Path_1180" data-name="Path 1180" class="cls-3" d="M342.528,42.343a1.115,1.115,0,0,0,1.189,1.213,2.268,2.268,0,0,0,.96-.18l.107.455a2.789,2.789,0,0,1-1.152.217,1.615,1.615,0,0,1-1.7-1.76,1.69,1.69,0,0,1,1.624-1.883,1.476,1.476,0,0,1,1.433,1.644,2.306,2.306,0,0,1-.023.295Zm1.848-.454a.9.9,0,0,0-.875-1.031,1.047,1.047,0,0,0-.965,1.031Z" transform="translate(69.405 8.201)"/>
    <path id="Path_1181" data-name="Path 1181" class="cls-3" d="M346.031,39.4a6,6,0,0,1,1.139-.1,1.981,1.981,0,0,1,1.323.354,1.021,1.021,0,0,1,.4.859,1.153,1.153,0,0,1-.816,1.067v.014a1.252,1.252,0,0,1,.995,1.22,1.317,1.317,0,0,1-.408.973,2.413,2.413,0,0,1-1.669.455,7.243,7.243,0,0,1-.967-.058Zm.623,1.991h.567c.658,0,1.044-.346,1.044-.814,0-.57-.429-.794-1.059-.794a2.668,2.668,0,0,0-.552.043Zm0,2.33a3.315,3.315,0,0,0,.523.029c.645,0,1.238-.238,1.238-.944,0-.664-.565-.938-1.245-.938h-.516Z" transform="translate(70.238 7.977)"/>
    <path id="Path_1182" data-name="Path 1182" class="cls-3" d="M351.022,43.974l-.051-.44h-.02a1.289,1.289,0,0,1-1.06.52.991.991,0,0,1-1.06-1c0-.843.745-1.305,2.084-1.3V41.68a.718.718,0,0,0-.788-.808,1.718,1.718,0,0,0-.9.26l-.142-.417a2.132,2.132,0,0,1,1.137-.31c1.06,0,1.318.728,1.318,1.428v1.305a5.056,5.056,0,0,0,.057.837Zm-.093-1.782c-.687-.014-1.468.108-1.468.786a.559.559,0,0,0,.593.606.863.863,0,0,0,.839-.585.658.658,0,0,0,.036-.2Z" transform="translate(70.806 8.201)"/>
    <path id="Path_1183" data-name="Path 1183" class="cls-3" d="M351.743,41.428c0-.361-.007-.657-.029-.946h.558l.036.577h.013a1.276,1.276,0,0,1,1.146-.657c.48,0,1.223.289,1.223,1.487v2.085h-.629V41.962c0-.563-.207-1.032-.8-1.032a.894.894,0,0,0-.844.65.88.88,0,0,0-.045.3v2.1h-.629Z" transform="translate(71.391 8.201)"/>
    <path id="Path_1184" data-name="Path 1184" class="cls-3" d="M355.4,42.346h.014c.085-.123.208-.274.308-.4l1.017-1.2h.758l-1.338,1.435,1.524,2.056h-.765l-1.2-1.673-.322.361v1.312h-.623V39.114h.623Z" transform="translate(72.013 7.939)"/>
    <path id="Path_1185" data-name="Path 1185" class="cls-3" d="M214.266,36.411a2.689,2.689,0,0,0-.433-.967,3.234,3.234,0,0,0-.794-.783,3.894,3.894,0,0,0-1.095-.523,4.493,4.493,0,0,0-1.326-.19,4.866,4.866,0,0,0-1.825.328,3.682,3.682,0,0,0-1.4.967,4.379,4.379,0,0,0-.888,1.6,7.183,7.183,0,0,0-.312,2.226,7.288,7.288,0,0,0,.312,2.236,4.532,4.532,0,0,0,.888,1.623,3.732,3.732,0,0,0,1.386.994,4.617,4.617,0,0,0,1.8.338,4.262,4.262,0,0,0,2.475-.671,2.892,2.892,0,0,0,1.205-1.961h.877a4,4,0,0,1-.517,1.475,3.8,3.8,0,0,1-.984,1.095,4.341,4.341,0,0,1-1.363.676,5.765,5.765,0,0,1-1.671.233,5.44,5.44,0,0,1-2.2-.428,4.69,4.69,0,0,1-1.666-1.211,5.411,5.411,0,0,1-1.057-1.9,7.918,7.918,0,0,1-.369-2.5,7.739,7.739,0,0,1,.369-2.475,5.343,5.343,0,0,1,1.062-1.877,4.678,4.678,0,0,1,1.671-1.195,5.545,5.545,0,0,1,2.194-.417,5.15,5.15,0,0,1,1.59.243,4.789,4.789,0,0,1,1.359.682,4.216,4.216,0,0,1,1.015,1.047,3.791,3.791,0,0,1,.57,1.338Z" transform="translate(41.674 6.719)"/>
    <path id="Path_1186" data-name="Path 1186" class="cls-3" d="M218.722,35.915a3.8,3.8,0,0,1,1.512.291,3.116,3.116,0,0,1,1.152.846,3.805,3.805,0,0,1,.729,1.353,6.562,6.562,0,0,1,0,3.632,3.893,3.893,0,0,1-.735,1.358,3.116,3.116,0,0,1-1.152.846,4.04,4.04,0,0,1-3,.006,3.057,3.057,0,0,1-1.148-.841,3.973,3.973,0,0,1-.741-1.358,6.522,6.522,0,0,1,0-3.653,3.838,3.838,0,0,1,.735-1.349,3.154,3.154,0,0,1,1.152-.84,3.767,3.767,0,0,1,1.5-.291m0,7.771a2.887,2.887,0,0,0,1.136-.217,2.325,2.325,0,0,0,.884-.656,3.114,3.114,0,0,0,.575-1.089,5.629,5.629,0,0,0,0-3.024,3.015,3.015,0,0,0-.575-1.079,2.374,2.374,0,0,0-.884-.645,2.887,2.887,0,0,0-1.136-.217,2.922,2.922,0,0,0-1.148.217,2.376,2.376,0,0,0-.882.645,2.954,2.954,0,0,0-.571,1.079,5.791,5.791,0,0,0,0,3.024,3.05,3.05,0,0,0,.571,1.089,2.327,2.327,0,0,0,.882.656,2.922,2.922,0,0,0,1.148.217" transform="translate(43.656 7.29)"/>
    <path id="Path_1187" data-name="Path 1187" class="cls-3" d="M226.193,35.915a3.8,3.8,0,0,1,1.512.291,3.115,3.115,0,0,1,1.152.846,3.8,3.8,0,0,1,.729,1.353,6.563,6.563,0,0,1,0,3.632,3.893,3.893,0,0,1-.735,1.358,3.115,3.115,0,0,1-1.152.846,4.04,4.04,0,0,1-3,.006,3.057,3.057,0,0,1-1.148-.841,3.974,3.974,0,0,1-.741-1.358,6.522,6.522,0,0,1,0-3.653,3.839,3.839,0,0,1,.735-1.349,3.155,3.155,0,0,1,1.152-.84,3.768,3.768,0,0,1,1.5-.291m0,7.771a2.887,2.887,0,0,0,1.136-.217,2.325,2.325,0,0,0,.884-.656,3.114,3.114,0,0,0,.575-1.089,5.629,5.629,0,0,0,0-3.024,3.015,3.015,0,0,0-.575-1.079,2.374,2.374,0,0,0-.884-.645,2.887,2.887,0,0,0-1.136-.217,2.922,2.922,0,0,0-1.148.217,2.376,2.376,0,0,0-.882.645,2.954,2.954,0,0,0-.571,1.079,5.791,5.791,0,0,0,0,3.024,3.05,3.05,0,0,0,.571,1.089,2.327,2.327,0,0,0,.882.656,2.922,2.922,0,0,0,1.148.217" transform="translate(45.173 7.29)"/>
    <path id="Path_1188" data-name="Path 1188" class="cls-3" d="M231.258,37.345a4.77,4.77,0,0,1,.777-.772,3.431,3.431,0,0,1,.724-.433,2.606,2.606,0,0,1,.671-.191,4.918,4.918,0,0,1,.629-.042,2.9,2.9,0,0,1,1.353.307,2.809,2.809,0,0,1,.994.861,4.069,4.069,0,0,1,.613,1.338,6.652,6.652,0,0,1,.212,1.735,6.19,6.19,0,0,1-.249,1.813,4.335,4.335,0,0,1-.687,1.38,3.154,3.154,0,0,1-1.036.883,2.758,2.758,0,0,1-1.3.312c-.2,0-.4-.008-.614-.026a3.048,3.048,0,0,1-.656-.132,3.5,3.5,0,0,1-.7-.312,4.23,4.23,0,0,1-.74-.555v3.827h-.846V36.129h.846Zm0,5.138a3.519,3.519,0,0,0,2.622,1.205,2.288,2.288,0,0,0,1.03-.227,2.152,2.152,0,0,0,.788-.671,3.275,3.275,0,0,0,.508-1.106,5.861,5.861,0,0,0,.18-1.537,4.194,4.194,0,0,0-.64-2.527,2.119,2.119,0,0,0-1.8-.857,3.3,3.3,0,0,0-2.685,1.638Z" transform="translate(46.769 7.288)"/>
    <path id="Path_1189" data-name="Path 1189" class="cls-3" d="M241.294,44.532a4,4,0,0,1-1.554-.291,3.307,3.307,0,0,1-1.2-.846,3.841,3.841,0,0,1-.777-1.358,6.208,6.208,0,0,1-.011-3.622,3.9,3.9,0,0,1,.751-1.353,3.31,3.31,0,0,1,1.152-.851,3.61,3.61,0,0,1,1.481-.3,3.735,3.735,0,0,1,1.512.3,3.182,3.182,0,0,1,1.152.851,3.864,3.864,0,0,1,.729,1.353,5.931,5.931,0,0,1,.254,1.8v.19h-6.449a4.975,4.975,0,0,0,.306,1.448,3.093,3.093,0,0,0,.635,1.02,2.521,2.521,0,0,0,.9.609,3.044,3.044,0,0,0,1.116.2,3.635,3.635,0,0,0,.846-.1,2.759,2.759,0,0,0,.765-.3,2.031,2.031,0,0,0,.577-.5,1.3,1.3,0,0,0,.274-.677h.836A2.839,2.839,0,0,1,243.45,43.9a3.164,3.164,0,0,1-.983.47,4.213,4.213,0,0,1-1.173.159m2.632-4.97a3.493,3.493,0,0,0-.958-2.1,2.578,2.578,0,0,0-1.833-.7,2.911,2.911,0,0,0-1,.17,2.33,2.33,0,0,0-.83.517,2.868,2.868,0,0,0-.612.878,4.362,4.362,0,0,0-.355,1.237Z" transform="translate(48.205 7.29)"/>
    <path id="Path_1190" data-name="Path 1190" class="cls-3" d="M249.155,36.782a1.386,1.386,0,0,0-.254-.022h-.307a1.727,1.727,0,0,0-.7.148,3.043,3.043,0,0,0-.645.386,4.165,4.165,0,0,0-.571.54,4.352,4.352,0,0,0-.455.618v5.868h-.846V36.127h.846v1.132a4.447,4.447,0,0,1,.715-.688,3.65,3.65,0,0,1,.686-.413,2.55,2.55,0,0,1,.641-.195,3.589,3.589,0,0,1,.561-.048c.055,0,.108,0,.158.006s.106.008.17.016Z" transform="translate(49.807 7.29)"/>
    <path id="Path_1191" data-name="Path 1191" class="cls-3" d="M255.292,43.263a5.986,5.986,0,0,1-.846.629,4.588,4.588,0,0,1-.808.391,3.93,3.93,0,0,1-.788.2,5.983,5.983,0,0,1-.793.053,2.992,2.992,0,0,1-1-.165,2.358,2.358,0,0,1-.8-.464,2.172,2.172,0,0,1-.535-.73,2.253,2.253,0,0,1-.195-.946,2.472,2.472,0,0,1,1.2-2.189,6.666,6.666,0,0,1,3.6-.782h.973a7.241,7.241,0,0,0-.064-.994,1.778,1.778,0,0,0-.3-.788,1.523,1.523,0,0,0-.687-.523,3.265,3.265,0,0,0-1.237-.19,3.325,3.325,0,0,0-1.73.358,1.46,1.46,0,0,0-.681,1.09h-.836a2.326,2.326,0,0,1,.909-1.729A3.956,3.956,0,0,1,253,35.915a4.389,4.389,0,0,1,1.453.211,2.42,2.42,0,0,1,.972.609,2.343,2.343,0,0,1,.545.961,4.441,4.441,0,0,1,.17,1.275v5.35h-.846Zm0-3.161h-1.279a5.575,5.575,0,0,0-2.744.528,1.662,1.662,0,0,0-.9,1.512,1.314,1.314,0,0,0,.571,1.137,2.648,2.648,0,0,0,1.565.407,2.724,2.724,0,0,0,.841-.131,3.964,3.964,0,0,0,.766-.344,4.514,4.514,0,0,0,.659-.47,5.922,5.922,0,0,0,.524-.5Z" transform="translate(50.648 7.29)"/>
    <path id="Path_1192" data-name="Path 1192" class="cls-3" d="M260.128,44.721c-.12.014-.239.025-.36.031s-.239.011-.36.011a2.13,2.13,0,0,1-.882-.153,1.083,1.083,0,0,1-.508-.461,1.971,1.971,0,0,1-.227-.766,9.324,9.324,0,0,1-.053-1.073V37.3h-1.047v-.846h1.047V34.307h.846v2.146h1.343V37.3h-1.343v5.086a3.529,3.529,0,0,0,.073.808,1.065,1.065,0,0,0,.223.466.668.668,0,0,0,.366.211,2.232,2.232,0,0,0,.491.048h.2a1.887,1.887,0,0,0,.19-.011Z" transform="translate(52.104 6.964)"/>
    <path id="Path_1193" data-name="Path 1193" class="cls-3" d="M261.985,44.855h-.846V36.661h.846ZM262,34.6h-.846V33.278H262Z" transform="translate(53.006 6.755)"/>
    <path id="Path_1194" data-name="Path 1194" class="cls-3" d="M270.428,36.091l-3.109,8.195h-.761l-3.108-8.195h.857l2.633,7.031,2.643-7.031Z" transform="translate(53.475 7.326)"/>
    <path id="Path_1195" data-name="Path 1195" class="cls-3" d="M274.218,44.532a4,4,0,0,1-1.554-.291,3.307,3.307,0,0,1-1.2-.846,3.841,3.841,0,0,1-.777-1.358,6.208,6.208,0,0,1-.011-3.622,3.9,3.9,0,0,1,.751-1.353,3.309,3.309,0,0,1,1.152-.851,3.609,3.609,0,0,1,1.481-.3,3.735,3.735,0,0,1,1.512.3,3.182,3.182,0,0,1,1.152.851,3.864,3.864,0,0,1,.729,1.353,5.931,5.931,0,0,1,.254,1.8v.19h-6.449a4.975,4.975,0,0,0,.306,1.448,3.093,3.093,0,0,0,.635,1.02,2.521,2.521,0,0,0,.9.609,3.044,3.044,0,0,0,1.116.2,3.635,3.635,0,0,0,.846-.1,2.759,2.759,0,0,0,.765-.3,2.031,2.031,0,0,0,.577-.5,1.3,1.3,0,0,0,.274-.677h.836a2.839,2.839,0,0,1-1.143,1.792,3.164,3.164,0,0,1-.983.47,4.212,4.212,0,0,1-1.173.159m2.632-4.97a3.493,3.493,0,0,0-.958-2.1,2.578,2.578,0,0,0-1.833-.7,2.911,2.911,0,0,0-1,.17,2.33,2.33,0,0,0-.83.517,2.868,2.868,0,0,0-.612.878,4.363,4.363,0,0,0-.355,1.237Z" transform="translate(54.888 7.29)"/>
    <path id="Path_1196" data-name="Path 1196" class="cls-3" d="M291.233,41.61a2.89,2.89,0,0,1-1.061,2.411,4.985,4.985,0,0,1-3.125.835h-4.208V33.278h4.186a4.56,4.56,0,0,1,2.669.66,2.415,2.415,0,0,1,.926,2.11,4.461,4.461,0,0,1-.081.83,2.5,2.5,0,0,1-.29.8,2.278,2.278,0,0,1-.581.662,2.316,2.316,0,0,1-.952.417,3.255,3.255,0,0,1,1.306.354,2.251,2.251,0,0,1,.76.682,2.371,2.371,0,0,1,.36.883,5.182,5.182,0,0,1,.089.936m-7.549-3.246h3.109a4.111,4.111,0,0,0,2.274-.5A1.876,1.876,0,0,0,289.8,36.2a1.843,1.843,0,0,0-.676-1.57,3.623,3.623,0,0,0-2.168-.514l-3.267.011Zm0,5.646h3.352q3.279,0,3.278-2.4a3.088,3.088,0,0,0-.17-1.079,1.578,1.578,0,0,0-.576-.745,2.9,2.9,0,0,0-1.079-.434,8.316,8.316,0,0,0-1.685-.142h-3.119Z" transform="translate(57.411 6.755)"/>
    <path id="Path_1197" data-name="Path 1197" class="cls-3" d="M297.251,43.263a5.991,5.991,0,0,1-.846.629,4.588,4.588,0,0,1-.808.391,3.931,3.931,0,0,1-.788.2,5.984,5.984,0,0,1-.793.053,2.992,2.992,0,0,1-1-.165,2.357,2.357,0,0,1-.8-.464,2.172,2.172,0,0,1-.535-.73,2.254,2.254,0,0,1-.195-.946,2.472,2.472,0,0,1,1.2-2.189,6.666,6.666,0,0,1,3.6-.782h.973a7.236,7.236,0,0,0-.064-.994,1.778,1.778,0,0,0-.3-.788,1.523,1.523,0,0,0-.687-.523,3.265,3.265,0,0,0-1.237-.19,3.325,3.325,0,0,0-1.73.358,1.461,1.461,0,0,0-.681,1.09h-.836a2.326,2.326,0,0,1,.909-1.729,3.956,3.956,0,0,1,2.327-.565,4.389,4.389,0,0,1,1.453.211,2.42,2.42,0,0,1,.972.609,2.343,2.343,0,0,1,.545.961,4.439,4.439,0,0,1,.17,1.275v5.35h-.846Zm0-3.161h-1.279a5.575,5.575,0,0,0-2.744.528,1.662,1.662,0,0,0-.9,1.512,1.314,1.314,0,0,0,.571,1.137,2.648,2.648,0,0,0,1.565.407,2.724,2.724,0,0,0,.841-.131,3.963,3.963,0,0,0,.766-.344,4.514,4.514,0,0,0,.659-.47,5.931,5.931,0,0,0,.525-.5Z" transform="translate(59.165 7.29)"/>
    <path id="Path_1198" data-name="Path 1198" class="cls-3" d="M300.1,37.342a4.635,4.635,0,0,1,.81-.772,3.558,3.558,0,0,1,.77-.433,2.814,2.814,0,0,1,.715-.185,6.039,6.039,0,0,1,.635-.037q2.526,0,2.526,2.982V44.32h-.846v-5.35a4.312,4.312,0,0,0-.1-.989,1.668,1.668,0,0,0-.328-.688,1.366,1.366,0,0,0-.593-.4,2.637,2.637,0,0,0-.893-.131,2.59,2.59,0,0,0-1.369.411,5.875,5.875,0,0,0-1.327,1.163V44.32h-.846V36.126h.846Z" transform="translate(60.743 7.29)"/>
    <path id="Path_1199" data-name="Path 1199" class="cls-3" d="M313.008,44.856H311.95l-2.981-4.621-1.344,1.311v3.309h-.846V33.278h.846v7.2l3.934-3.838h1.1l-3.108,3.024Z" transform="translate(62.271 6.755)"/>
    <path id="Path_1200" data-name="Path 1200" class="cls-4" d="M218.08,32.564h-2.091l-13.3-17.621V32.564h-1.593v-19.3h2.191l13.2,17.586V13.268h1.593Z" transform="translate(40.818 2.693)"/>
    <path id="Path_1201" data-name="Path 1201" class="cls-4" d="M227.745,16.242a9.385,9.385,0,0,1,3.3.563,7.525,7.525,0,0,1,2.6,1.607,7.377,7.377,0,0,1,1.7,2.509,8.4,8.4,0,0,1,.614,3.271,8.574,8.574,0,0,1-.605,3.271,7.469,7.469,0,0,1-1.7,2.544,7.629,7.629,0,0,1-2.6,1.649,9.751,9.751,0,0,1-6.651,0,7.658,7.658,0,0,1-2.6-1.642,7.392,7.392,0,0,1-1.7-2.537,8.6,8.6,0,0,1-.605-3.285,8.427,8.427,0,0,1,.614-3.284,7.2,7.2,0,0,1,1.713-2.5,7.646,7.646,0,0,1,2.6-1.6,9.364,9.364,0,0,1,3.3-.563m-.016,14.872a8.062,8.062,0,0,0,2.763-.458,5.964,5.964,0,0,0,3.625-3.525,7.931,7.931,0,0,0,.509-2.939,7.734,7.734,0,0,0-.516-2.932,5.917,5.917,0,0,0-3.6-3.448,8.126,8.126,0,0,0-2.733-.444A8.231,8.231,0,0,0,225,17.82a6.187,6.187,0,0,0-2.191,1.318,5.961,5.961,0,0,0-1.441,2.135,7.675,7.675,0,0,0-.518,2.918,7.93,7.93,0,0,0,.51,2.939,5.938,5.938,0,0,0,3.608,3.525,8.069,8.069,0,0,0,2.764.458" transform="translate(44.556 3.297)"/>
    <path id="Path_1202" data-name="Path 1202" class="cls-4" d="M251.136,31.914h-1.4L248,27.81a9.536,9.536,0,0,0-.565-1.113,4.119,4.119,0,0,0-.725-.909,3.054,3.054,0,0,0-2.2-.84h-6.1v6.965h-1.274V16.477h7.854a12.517,12.517,0,0,1,2.126.176,5.685,5.685,0,0,1,1.832.628,3.412,3.412,0,0,1,1.282,1.247,3.9,3.9,0,0,1,.479,2.037,4.7,4.7,0,0,1-.215,1.445,3.583,3.583,0,0,1-.653,1.2,3.824,3.824,0,0,1-1.116.9,5.228,5.228,0,0,1-1.584.543,6.414,6.414,0,0,1,.813.648,4.113,4.113,0,0,1,.55.663,5.082,5.082,0,0,1,.413.776l.422.972Zm-12.729-8.092h6.053a12.462,12.462,0,0,0,2.215-.17,4.136,4.136,0,0,0,1.522-.557,2.369,2.369,0,0,0,.884-1.007,3.638,3.638,0,0,0,.286-1.523,2.446,2.446,0,0,0-1.139-2.277,6.73,6.73,0,0,0-3.4-.683h-6.42Z" transform="translate(48.134 3.344)"/>
    <path id="Path_1203" data-name="Path 1203" class="cls-4" d="M265.134,17.6h-6.1V31.914h-1.275V17.6h-6.037V16.477h13.413Z" transform="translate(51.095 3.344)"/>
    <path id="Path_1204" data-name="Path 1204" class="cls-4" d="M279.691,31.913H278.4V24.23H267.648v7.683h-1.274V16.476h1.274V23.1H278.4V16.476h1.29Z" transform="translate(54.069 3.344)"/>
    <path id="Path_1205" data-name="Path 1205" class="cls-4" d="M296.235,31.915H294.7l-2.134-4.962h-8.587q-.462,1.171-1,2.475t-1.035,2.488h-1.355q.859-2,1.7-3.919t1.665-3.812q.828-1.9,1.664-3.813t1.7-3.9h1.8Zm-4.031-5.85-4.046-8.586-3.84,8.586Z" transform="translate(56.955 3.342)"/>
    <path id="Path_1206" data-name="Path 1206" class="cls-4" d="M312.992,31.913h-1.275V18.323l-6.276,13.59H304.1l-6.26-13.59v13.59h-1.274V16.476h1.848L304.772,30.5l6.4-14.027h1.816Z" transform="translate(60.198 3.344)"/>
    <path id="Path_1207" data-name="Path 1207" class="cls-4" d="M314.756,16.477H321.1a15.886,15.886,0,0,1,2.453.183,6.406,6.406,0,0,1,2.08.67,3.606,3.606,0,0,1,1.966,3.432,4.012,4.012,0,0,1-1.616,3.454,7.938,7.938,0,0,1-4.723,1.184h-5.226v6.514h-1.275Zm1.275,7.8H321.3a9.89,9.89,0,0,0,2.277-.225,4.27,4.27,0,0,0,1.539-.663,2.547,2.547,0,0,0,.867-1.079,3.8,3.8,0,0,0,.271-1.487,3.048,3.048,0,0,0-.405-1.664,2.725,2.725,0,0,0-1.1-.979,4.9,4.9,0,0,0-1.6-.458,15.382,15.382,0,0,0-1.912-.113h-5.209Z" transform="translate(63.889 3.344)"/>
    <path id="Path_1208" data-name="Path 1208" class="cls-4" d="M341.619,17.6h-6.1V31.914h-1.275V17.6h-6.037V16.477h13.413Z" transform="translate(66.619 3.344)"/>
    <path id="Path_1209" data-name="Path 1209" class="cls-4" d="M350.38,16.242a9.385,9.385,0,0,1,3.3.563,7.525,7.525,0,0,1,2.6,1.607,7.377,7.377,0,0,1,1.7,2.509,8.4,8.4,0,0,1,.614,3.271,8.575,8.575,0,0,1-.605,3.271,7.468,7.468,0,0,1-1.7,2.544,7.629,7.629,0,0,1-2.6,1.649,9.751,9.751,0,0,1-6.651,0,7.658,7.658,0,0,1-2.6-1.642,7.393,7.393,0,0,1-1.7-2.537,8.6,8.6,0,0,1-.605-3.285,8.428,8.428,0,0,1,.613-3.284,7.2,7.2,0,0,1,1.713-2.5,7.646,7.646,0,0,1,2.6-1.6,9.364,9.364,0,0,1,3.3-.563m-.016,14.872a8.062,8.062,0,0,0,2.763-.458,5.964,5.964,0,0,0,3.625-3.525,7.931,7.931,0,0,0,.509-2.939,7.735,7.735,0,0,0-.516-2.932,5.917,5.917,0,0,0-3.6-3.448,8.126,8.126,0,0,0-2.733-.444,8.231,8.231,0,0,0-2.779.451,6.187,6.187,0,0,0-2.191,1.318A5.96,5.96,0,0,0,344,21.274a7.675,7.675,0,0,0-.518,2.918,7.93,7.93,0,0,0,.51,2.939,5.938,5.938,0,0,0,3.608,3.525,8.069,8.069,0,0,0,2.764.458" transform="translate(69.449 3.297)"/>
    <path id="Path_1210" data-name="Path 1210" class="cls-4" d="M373.307,31.913h-1.673l-10.64-14.1v14.1h-1.275V16.476h1.753l10.561,14.069V16.476h1.275Z" transform="translate(73.016 3.344)"/>
    <path id="Path_1211" data-name="Path 1211" class="cls-5" d="M227.745,16.242a9.385,9.385,0,0,1,3.3.563,7.525,7.525,0,0,1,2.6,1.607,7.377,7.377,0,0,1,1.7,2.509,8.4,8.4,0,0,1,.614,3.271,8.574,8.574,0,0,1-.605,3.271,7.469,7.469,0,0,1-1.7,2.544,7.629,7.629,0,0,1-2.6,1.649,9.751,9.751,0,0,1-6.651,0,7.658,7.658,0,0,1-2.6-1.642,7.392,7.392,0,0,1-1.7-2.537,8.6,8.6,0,0,1-.605-3.285,8.427,8.427,0,0,1,.614-3.284,7.2,7.2,0,0,1,1.713-2.5,7.646,7.646,0,0,1,2.6-1.6A9.364,9.364,0,0,1,227.745,16.242Zm-.016,14.872a8.062,8.062,0,0,0,2.763-.458,5.964,5.964,0,0,0,3.625-3.525,7.931,7.931,0,0,0,.509-2.939,7.734,7.734,0,0,0-.516-2.932,5.917,5.917,0,0,0-3.6-3.448,8.126,8.126,0,0,0-2.733-.444A8.231,8.231,0,0,0,225,17.82a6.187,6.187,0,0,0-2.191,1.318,5.961,5.961,0,0,0-1.441,2.135,7.675,7.675,0,0,0-.518,2.918,7.93,7.93,0,0,0,.51,2.939,5.938,5.938,0,0,0,3.608,3.525A8.069,8.069,0,0,0,227.729,31.114Z" transform="translate(44.556 3.297)"/>
    <path id="Path_1212" data-name="Path 1212" class="cls-5" d="M251.131,31.914h-1.4l-1.735-4.1a9.73,9.73,0,0,0-.567-1.113,4.115,4.115,0,0,0-.724-.909,3.06,3.06,0,0,0-2.2-.84h-6.1v6.965h-1.275V16.477h7.855a12.5,12.5,0,0,1,2.124.176,5.675,5.675,0,0,1,1.832.628,3.425,3.425,0,0,1,1.284,1.247,3.905,3.905,0,0,1,.478,2.037,4.667,4.667,0,0,1-.215,1.445,3.562,3.562,0,0,1-.653,1.2,3.818,3.818,0,0,1-1.115.9,5.239,5.239,0,0,1-1.584.543,6.482,6.482,0,0,1,.812.648,3.99,3.99,0,0,1,.55.663,4.986,4.986,0,0,1,.414.776c.123.281.262.606.421.972ZM238.4,23.821h6.052a12.486,12.486,0,0,0,2.216-.17,4.144,4.144,0,0,0,1.522-.557,2.377,2.377,0,0,0,.884-1.007,3.638,3.638,0,0,0,.285-1.523,2.447,2.447,0,0,0-1.138-2.277,6.73,6.73,0,0,0-3.4-.683H238.4Z" transform="translate(48.132 3.344)"/>
    <path id="Path_1213" data-name="Path 1213" class="cls-5" d="M265.129,17.6h-6.1V31.914h-1.275V17.6h-6.037V16.477h13.413Z" transform="translate(51.094 3.344)"/>
    <path id="Path_1214" data-name="Path 1214" class="cls-5" d="M279.687,31.913H278.4V24.23H267.643v7.683H266.37V16.476h1.274V23.1H278.4V16.476h1.29Z" transform="translate(54.068 3.344)"/>
    <path id="Path_1215" data-name="Path 1215" class="cls-5" d="M296.23,31.915H294.7l-2.134-4.962h-8.587q-.462,1.171-1,2.475t-1.035,2.488h-1.355q.859-2,1.7-3.919t1.665-3.812q.828-1.9,1.664-3.813t1.7-3.9h1.8Zm-4.031-5.85-4.046-8.586-3.84,8.586Z" transform="translate(56.954 3.342)"/>
    <path id="Path_1216" data-name="Path 1216" class="cls-5" d="M312.987,31.913h-1.275V18.323l-6.276,13.59H304.1l-6.26-13.59v13.59h-1.274V16.476h1.848L304.767,30.5l6.4-14.027h1.817Z" transform="translate(60.197 3.344)"/>
    <path id="Path_1217" data-name="Path 1217" class="cls-5" d="M314.751,16.477h6.341a15.875,15.875,0,0,1,2.453.183,6.406,6.406,0,0,1,2.08.67,3.6,3.6,0,0,1,1.966,3.432,4.012,4.012,0,0,1-1.616,3.454,7.938,7.938,0,0,1-4.723,1.184h-5.226v6.514h-1.275Zm1.275,7.8H321.3a9.883,9.883,0,0,0,2.277-.225,4.27,4.27,0,0,0,1.539-.663,2.538,2.538,0,0,0,.867-1.079,3.8,3.8,0,0,0,.272-1.487,3.037,3.037,0,0,0-.407-1.664,2.725,2.725,0,0,0-1.1-.979,4.9,4.9,0,0,0-1.6-.458,15.383,15.383,0,0,0-1.912-.113h-5.209Z" transform="translate(63.888 3.344)"/>
    <path id="Path_1218" data-name="Path 1218" class="cls-5" d="M341.586,17.6h-6.1V31.914H334.21V17.6h-6.037V16.477h13.413Z" transform="translate(66.613 3.344)"/>
    <path id="Path_1219" data-name="Path 1219" class="cls-5" d="M350.348,16.242a9.386,9.386,0,0,1,3.3.563,7.525,7.525,0,0,1,2.6,1.607,7.378,7.378,0,0,1,1.7,2.509,8.4,8.4,0,0,1,.613,3.271,8.575,8.575,0,0,1-.605,3.271,7.468,7.468,0,0,1-1.7,2.544,7.628,7.628,0,0,1-2.6,1.649,9.751,9.751,0,0,1-6.651,0,7.659,7.659,0,0,1-2.6-1.642,7.393,7.393,0,0,1-1.7-2.537,8.6,8.6,0,0,1-.605-3.285,8.427,8.427,0,0,1,.614-3.284,7.2,7.2,0,0,1,1.713-2.5,7.646,7.646,0,0,1,2.6-1.6A9.364,9.364,0,0,1,350.348,16.242Zm-.016,14.872a8.062,8.062,0,0,0,2.763-.458,5.965,5.965,0,0,0,3.625-3.525,7.931,7.931,0,0,0,.509-2.939,7.734,7.734,0,0,0-.516-2.932,5.917,5.917,0,0,0-3.6-3.448,8.126,8.126,0,0,0-2.733-.444,8.23,8.23,0,0,0-2.779.451,6.186,6.186,0,0,0-2.191,1.318,5.961,5.961,0,0,0-1.441,2.135,7.676,7.676,0,0,0-.518,2.918,7.93,7.93,0,0,0,.51,2.939,5.938,5.938,0,0,0,3.608,3.525A8.069,8.069,0,0,0,350.332,31.114Z" transform="translate(69.442 3.297)"/>
    <path id="Path_1220" data-name="Path 1220" class="cls-5" d="M373.215,31.913h-1.673l-10.64-14.1v14.1h-1.275V16.476h1.753L371.94,30.545V16.476h1.275Z" transform="translate(72.997 3.344)"/>
    <path id="Path_1221" data-name="Path 1221" class="cls-4" d="M10.414,32.31a11.98,11.98,0,0,1-4.251-.723,9.582,9.582,0,0,1-3.295-2.034A8.93,8.93,0,0,1,.746,26.38,11.012,11.012,0,0,1,0,22.248a10.7,10.7,0,0,1,.757-4.124A8.968,8.968,0,0,1,2.878,15a9.329,9.329,0,0,1,3.255-1.991,12.021,12.021,0,0,1,4.182-.7,13.481,13.481,0,0,1,3.345.4,10.224,10.224,0,0,1,2.768,1.127,7.24,7.24,0,0,1,2.01,1.754,5.858,5.858,0,0,1,1.1,2.272H17.822a3.571,3.571,0,0,0-.768-1.594,5.638,5.638,0,0,0-1.583-1.314,9.065,9.065,0,0,0-2.27-.9,11.387,11.387,0,0,0-2.847-.334,10.738,10.738,0,0,0-3.5.546,7.23,7.23,0,0,0-4.521,4.309,9.845,9.845,0,0,0-.636,3.674,9.943,9.943,0,0,0,.636,3.674,7.642,7.642,0,0,0,1.783,2.722,7.532,7.532,0,0,0,2.748,1.683,10.457,10.457,0,0,0,3.534.573,11.155,11.155,0,0,0,4.7-.917,9.614,9.614,0,0,0,3.365-2.537V23.974H12.445v-1.41h7.606v9.393h-.915l-.7-2.573a7.809,7.809,0,0,1-1.672,1.367,9.772,9.772,0,0,1-1.94.9,12.154,12.154,0,0,1-2.141.5,16.083,16.083,0,0,1-2.27.159" transform="translate(0 2.498)"/>
    <path id="Path_1222" data-name="Path 1222" class="cls-4" d="M36.132,31.248h-1.4l-1.736-4.1a9.736,9.736,0,0,0-.568-1.113,4.109,4.109,0,0,0-.723-.909,3.054,3.054,0,0,0-2.2-.84H23.4v6.965H22.128V15.811h7.853a12.531,12.531,0,0,1,2.127.176,5.722,5.722,0,0,1,1.833.628,3.43,3.43,0,0,1,1.282,1.247A3.917,3.917,0,0,1,35.7,19.9a4.667,4.667,0,0,1-.215,1.445,3.562,3.562,0,0,1-.653,1.2,3.829,3.829,0,0,1-1.114.9,5.224,5.224,0,0,1-1.586.543,6.226,6.226,0,0,1,.812.648,3.991,3.991,0,0,1,.55.663,4.984,4.984,0,0,1,.414.776c.121.281.263.606.422.972ZM23.4,23.155h6.052a12.486,12.486,0,0,0,2.216-.17,4.154,4.154,0,0,0,1.521-.557,2.369,2.369,0,0,0,.884-1.007,3.637,3.637,0,0,0,.286-1.523,2.444,2.444,0,0,0-1.139-2.277,6.733,6.733,0,0,0-3.4-.683H23.4Z" transform="translate(4.492 3.209)"/>
    <path id="Path_1223" data-name="Path 1223" class="cls-4" d="M50.508,31.247h-12.6V15.81H50.079v1.127h-10.9v5.711H49.393v1.127H39.182V30.12H50.508Z" transform="translate(7.694 3.209)"/>
    <path id="Path_1224" data-name="Path 1224" class="cls-4" d="M65.135,31.247h-12.6V15.81H64.706v1.127h-10.9v5.711H64.02v1.127H53.809V30.12H65.135Z" transform="translate(10.663 3.209)"/>
    <path id="Path_1225" data-name="Path 1225" class="cls-4" d="M80.59,31.247H78.918l-10.642-14.1v14.1H67V15.81h1.752L79.316,29.879V15.81H80.59Z" transform="translate(13.6 3.209)"/>
    <path id="Path_1226" data-name="Path 1226" class="cls-4" d="M94.194,16.938H84.175v5.794h8.714V23.86H84.175v7.388H82.9V15.811H94.194Z" transform="translate(16.827 3.209)"/>
    <rect id="Rectangle_1080" data-name="Rectangle 1080" class="cls-4" width="1.275" height="15.437" transform="translate(116.446 19.019)"/>
    <path id="Path_1227" data-name="Path 1227" class="cls-4" d="M115.551,31.247h-12.6V15.81h12.172v1.127h-10.9v5.711h10.211v1.127H104.225V30.12h11.326Z" transform="translate(20.897 3.209)"/>
    <path id="Path_1228" data-name="Path 1228" class="cls-4" d="M127.879,31.247H117.6V15.81h1.274V30.12h9Z" transform="translate(23.871 3.209)"/>
    <path id="Path_1229" data-name="Path 1229" class="cls-4" d="M144.039,23.407q0,7.839-8.808,7.839h-5.274V15.822h5.274q4.412,0,6.61,1.883t2.2,5.7m-1.353,0a9.9,9.9,0,0,0-.343-2.721,4.529,4.529,0,0,0-1.2-2.037,5.53,5.53,0,0,0-2.3-1.276,12.78,12.78,0,0,0-3.64-.437h-3.966V30.117H135.2a12.337,12.337,0,0,0,3.625-.451,5.471,5.471,0,0,0,2.3-1.318,4.767,4.767,0,0,0,1.21-2.108,10.4,10.4,0,0,0,.351-2.833" transform="translate(26.379 3.211)"/>
    <path id="Path_1230" data-name="Path 1230" class="cls-5" d="M36.132,31.248h-1.4l-1.736-4.1a9.736,9.736,0,0,0-.568-1.113,4.109,4.109,0,0,0-.723-.909,3.054,3.054,0,0,0-2.2-.84H23.4v6.965H22.128V15.811h7.853a12.531,12.531,0,0,1,2.127.176,5.722,5.722,0,0,1,1.833.628,3.43,3.43,0,0,1,1.282,1.247A3.917,3.917,0,0,1,35.7,19.9a4.667,4.667,0,0,1-.215,1.445,3.562,3.562,0,0,1-.653,1.2,3.829,3.829,0,0,1-1.114.9,5.224,5.224,0,0,1-1.586.543,6.226,6.226,0,0,1,.812.648,3.991,3.991,0,0,1,.55.663,4.984,4.984,0,0,1,.414.776c.121.281.263.606.422.972ZM23.4,23.155h6.052a12.486,12.486,0,0,0,2.216-.17,4.154,4.154,0,0,0,1.521-.557,2.369,2.369,0,0,0,.884-1.007,3.637,3.637,0,0,0,.286-1.523,2.444,2.444,0,0,0-1.139-2.277,6.733,6.733,0,0,0-3.4-.683H23.4Z" transform="translate(4.492 3.209)"/>
    <path id="Path_1231" data-name="Path 1231" class="cls-5" d="M50.508,31.247h-12.6V15.81H50.079v1.127h-10.9v5.711H49.393v1.127H39.182V30.12H50.508Z" transform="translate(7.694 3.209)"/>
    <path id="Path_1232" data-name="Path 1232" class="cls-5" d="M65.135,31.247h-12.6V15.81H64.706v1.127h-10.9v5.711H64.02v1.127H53.809V30.12H65.135Z" transform="translate(10.663 3.209)"/>
    <path id="Path_1233" data-name="Path 1233" class="cls-5" d="M80.59,31.247H78.918l-10.642-14.1v14.1H67V15.81h1.752L79.316,29.879V15.81H80.59Z" transform="translate(13.6 3.209)"/>
    <path id="Path_1234" data-name="Path 1234" class="cls-5" d="M94.194,16.938H84.175v5.794h8.714V23.86H84.175v7.388H82.9V15.811H94.194Z" transform="translate(16.827 3.209)"/>
    <rect id="Rectangle_1081" data-name="Rectangle 1081" class="cls-5" width="1.275" height="15.437" transform="translate(116.446 19.019)"/>
    <path id="Path_1235" data-name="Path 1235" class="cls-5" d="M115.551,31.247h-12.6V15.81h12.172v1.127h-10.9v5.711h10.211v1.127H104.225V30.12h11.326Z" transform="translate(20.897 3.209)"/>
    <path id="Path_1236" data-name="Path 1236" class="cls-5" d="M127.879,31.247H117.6V15.81h1.274V30.12h9Z" transform="translate(23.871 3.209)"/>
    <path id="Path_1237" data-name="Path 1237" class="cls-5" d="M143.982,23.407q0,7.839-8.808,7.839H129.9V15.822h5.274q4.412,0,6.61,1.883T143.982,23.407Zm-1.353,0a9.9,9.9,0,0,0-.343-2.721,4.529,4.529,0,0,0-1.2-2.037,5.53,5.53,0,0,0-2.3-1.276,12.78,12.78,0,0,0-3.64-.437h-3.966V30.117h3.966a12.337,12.337,0,0,0,3.625-.451,5.472,5.472,0,0,0,2.3-1.318,4.767,4.767,0,0,0,1.21-2.108A10.4,10.4,0,0,0,142.629,23.407Z" transform="translate(26.367 3.211)"/>
    <path id="Path_1238" data-name="Path 1238" class="cls-6" d="M201.949,28.079a26.25,26.25,0,0,1-52.5,0,26.25,26.25,0,0,1,52.5,0" transform="translate(30.336 0.428)"/>
    <path id="Path_1239" data-name="Path 1239" class="cls-7" d="M176.108,56.858a28.548,28.548,0,0,1-28.656-28.374,28.656,28.656,0,0,1,57.309,0,28.547,28.547,0,0,1-28.653,28.374m0-51.938a23.732,23.732,0,0,0-23.844,23.564,23.844,23.844,0,0,0,47.685,0A23.73,23.73,0,0,0,176.108,4.921" transform="translate(29.93 0.022)"/>
    <path id="Path_1240" data-name="Path 1240" class="cls-4" d="M165.081,27.365l22.594,2.013-.221,9.032L187,38.84l-1.434,1.024-1.055.752-1.131.752-1.115.589-.919.355-.812.339-1.044.408-1.211.514-1.577.451-1.919.23-1.516.075-1.839-.01-2.086-.23-2.3-.546-1.17-.343-.8-.245Z" transform="translate(33.507 5.554)"/>
    <path id="Path_1241" data-name="Path 1241" class="cls-4" d="M173.378,44.917l-1.866-.008-2.139-.233-2.364-.556-2.351-.706.008-16.5,23.6,2.1-.237,9.7-.6.573-3.688,2.583-1.158.615-4.024,1.634-1.635.472-2,.245Zm-7.723-2.239,1.61.478,2.278.54,2.026.219,1.788.007,1.488-.075,1.885-.226,1.5-.435,3.943-1.6,1.062-.564,3.563-2.493.248-.241.2-8.363L165.662,28Z" transform="translate(33.423 5.463)"/>
    <path id="Path_1242" data-name="Path 1242" class="cls-4" d="M154.78,31.273c-.266-.612-.128-.544-.494-1.411a6.789,6.789,0,0,1-.345-1.084,6.278,6.278,0,0,1-.231-1.2l12.043-.8V42.9l-.765-.36-1.029-.646-.947-.6-.976-.742-1.27-1.047-1.487-1.469-.926-1.074-.777-.9-.826-1.148s-.386-.476-.828-1.154a13.117,13.117,0,0,1-.658-1.411c-.045-.108-.2-.437-.484-1.078" transform="translate(31.2 5.436)"/>
    <path id="Path_1243" data-name="Path 1243" class="cls-6" d="M178.476,33.257c.01-1.548,1-2.793,2.2-2.785s2.18,1.269,2.17,2.816-1,2.8-2.206,2.791-2.177-1.275-2.167-2.822" transform="translate(36.227 6.185)"/>
    <path id="Path_1244" data-name="Path 1244" class="cls-4" d="M180.749,36.74h-.016a2.509,2.509,0,0,1-1.982-1.054,3.8,3.8,0,0,1-.743-2.336h0a3.784,3.784,0,0,1,.777-2.323A2.517,2.517,0,0,1,180.762,30h.016a2.465,2.465,0,0,1,1.738.765,3.688,3.688,0,0,1,.991,2.618c-.012,1.853-1.247,3.353-2.758,3.353m.014-5.608a1.417,1.417,0,0,0-1.1.6,2.649,2.649,0,0,0-.532,1.629h0a2.66,2.66,0,0,0,.511,1.64,1.415,1.415,0,0,0,1.1.615h.007c.891,0,1.622-1,1.631-2.232a2.6,2.6,0,0,0-.666-1.818,1.352,1.352,0,0,0-.943-.431h-.007" transform="translate(36.132 6.09)"/>
    <path id="Path_1245" data-name="Path 1245" class="cls-4" d="M178.393,33.182c.01-1.3.642-2.341,1.418-2.335s1.393,1.06,1.383,2.355-.642,2.34-1.415,2.334-1.4-1.061-1.387-2.354" transform="translate(36.21 6.261)"/>
    <path id="Path_1246" data-name="Path 1246" class="cls-4" d="M179.811,35.712H179.8a1.163,1.163,0,0,1-.82-.378,3.05,3.05,0,0,1-.716-2.128,3.433,3.433,0,0,1,.444-1.732,1.351,1.351,0,0,1,1.119-.752h.007a1.159,1.159,0,0,1,.819.379,3.046,3.046,0,0,1,.713,2.128,3.429,3.429,0,0,1-.443,1.731,1.351,1.351,0,0,1-1.116.752m-1.243-2.5a2.791,2.791,0,0,0,.628,1.914.874.874,0,0,0,.609.289h.006a1.066,1.066,0,0,0,.859-.606,3.126,3.126,0,0,0,.4-1.578,2.79,2.79,0,0,0-.626-1.914.888.888,0,0,0-.614-.29,1.065,1.065,0,0,0-.861.608,3.119,3.119,0,0,0-.4,1.578" transform="translate(36.185 6.236)"/>
    <path id="Path_1247" data-name="Path 1247" class="cls-6" d="M172.824,32.882c.012-1.634,1.055-2.95,2.328-2.939s2.3,1.338,2.287,2.97-1.054,2.951-2.327,2.944-2.3-1.34-2.288-2.975" transform="translate(35.08 6.078)"/>
    <path id="Path_1248" data-name="Path 1248" class="cls-4" d="M175.222,36.553h-.013c-1.6-.013-2.893-1.617-2.88-3.575a3.893,3.893,0,0,1,1.084-2.746,2.828,2.828,0,0,1,1.843-.783,2.6,2.6,0,0,1,1.832.807,3.894,3.894,0,0,1,1.047,2.762c-.013,1.952-1.318,3.536-2.912,3.536m-1.7-3.567c-.008,1.3.752,2.367,1.7,2.376h.007c.938,0,1.709-1.054,1.719-2.353a2.738,2.738,0,0,0-.7-1.916,1.416,1.416,0,0,0-.992-.454,1.539,1.539,0,0,0-1,.441,2.731,2.731,0,0,0-.729,1.906" transform="translate(34.98 5.977)"/>
    <path id="Path_1249" data-name="Path 1249" class="cls-4" d="M172.384,32.651c.01-1.367.722-2.472,1.592-2.466s1.563,1.124,1.554,2.489-.719,2.475-1.589,2.467-1.565-1.122-1.557-2.49" transform="translate(34.991 6.127)"/>
    <path id="Path_1250" data-name="Path 1250" class="cls-4" d="M173.974,35.317h-.01c-.949-.006-1.714-1.19-1.706-2.642s.788-2.615,1.736-2.615H174c.948.007,1.713,1.191,1.7,2.641a3.157,3.157,0,0,1-.79,2.2,1.335,1.335,0,0,1-.941.42m-1.415-2.639c-.007,1.285.624,2.334,1.407,2.339h.007a1.04,1.04,0,0,0,.729-.333,2.854,2.854,0,0,0,.7-1.985c.008-1.284-.622-2.331-1.405-2.337h-.006c-.782,0-1.424,1.038-1.434,2.317" transform="translate(34.965 6.101)"/>
    <path id="Path_1251" data-name="Path 1251" class="cls-6" d="M166.659,32.744c.012-1.808,1.16-3.264,2.568-3.254s2.543,1.482,2.531,3.29-1.166,3.26-2.577,3.25-2.536-1.482-2.523-3.287" transform="translate(33.829 5.986)"/>
    <path id="Path_1252" data-name="Path 1252" class="cls-4" d="M169.306,36.8h-.018c-1.768-.013-3.193-1.785-3.176-3.949a4.427,4.427,0,0,1,.9-2.713,2.927,2.927,0,0,1,2.329-1.2c1.772.017,3.2,1.791,3.186,3.954s-1.46,3.9-3.222,3.9m.017-6.541a1.646,1.646,0,0,0-1.275.7,3.108,3.108,0,0,0-.62,1.9h0c-.01,1.438.828,2.614,1.869,2.622h.01c1.039,0,1.892-1.162,1.9-2.6s-.832-2.618-1.879-2.627Z" transform="translate(33.718 5.875)"/>
    <path id="Path_1253" data-name="Path 1253" class="cls-4" d="M166.3,32.654c.008-1.511.814-2.737,1.795-2.727s1.77,1.243,1.761,2.751-.818,2.731-1.8,2.725-1.768-1.24-1.758-2.749" transform="translate(33.755 6.074)"/>
    <path id="Path_1254" data-name="Path 1254" class="cls-4" d="M168.084,35.579h-.007c-1.063-.01-1.919-1.31-1.907-2.9a3.432,3.432,0,0,1,.873-2.4A1.506,1.506,0,0,1,168.1,29.8h.012c1.062.007,1.919,1.31,1.91,2.9s-.882,2.874-1.943,2.874m.02-5.476a1.215,1.215,0,0,0-.851.387,3.137,3.137,0,0,0-.783,2.191c-.011,1.424.711,2.589,1.608,2.6h.006c.9,0,1.63-1.152,1.641-2.576s-.716-2.594-1.612-2.6Z" transform="translate(33.729 6.049)"/>
    <path id="Path_1255" data-name="Path 1255" class="cls-4" d="M178.127,16.309l11.4,13.509-23.918-2.536Z" transform="translate(33.615 3.31)"/>
    <path id="Path_1256" data-name="Path 1256" class="cls-4" d="M190.9,30.564,164.62,27.777,178.38,15.72Zm-23.913-3.537,21.554,2.284-10.27-12.174Z" transform="translate(33.415 3.191)"/>
    <path id="Path_1257" data-name="Path 1257" class="cls-4" d="M163.649,12.97l3.928-.7,3.742.593-.029,4.188-3.906-.493-3.842.823Z" transform="translate(33.196 2.491)"/>
    <path id="Path_1258" data-name="Path 1258" class="cls-4" d="M166.734,11.371l4.9.935-4.889-2.811Z" transform="translate(33.844 1.927)"/>
    <path id="Path_1259" data-name="Path 1259" class="cls-4" d="M162.591,12.084l5.061-.753-.02-1.837Z" transform="translate(33.003 1.927)"/>
    <path id="Path_1260" data-name="Path 1260" class="cls-4" d="M163.79,17.237l3.733-.78,3.108.362-3.161,2-4.094.648Z" transform="translate(33.162 3.34)"/>
    <path id="Path_1261" data-name="Path 1261" class="cls-4" d="M162.767,20.284l.638-3.443,4.215-.881,4.862.567-4.8,2.977Zm1.655-2.448-.19,1.02,3.148-.5,1.648-1.043-1.355-.156Z" transform="translate(33.039 3.239)"/>
    <path id="Path_1262" data-name="Path 1262" class="cls-6" d="M171.618,14.416l.006-.761-4.025-.461-4.244.675,0,.729,4.209-.636Z" transform="translate(33.157 2.678)"/>
    <path id="Path_1263" data-name="Path 1263" class="cls-6" d="M171.8,15.914l.007-.94-4.182-.555-4.408.834-.006.9,4.372-.793Z" transform="translate(33.129 2.927)"/>
    <path id="Path_1264" data-name="Path 1264" class="cls-4" d="M163.654,13.437l3.928-.7,3.742.6.091-1.786-3.948-.826-3.953.7Z" transform="translate(33.19 2.177)"/>
    <path id="Path_1265" data-name="Path 1265" class="cls-6" d="M172.471,17.341l-.1-.865-4.8-.6-4.482.774-.006.831,4.445-.734,4.28.517" transform="translate(33.104 3.222)"/>
    <path id="Path_1266" data-name="Path 1266" class="cls-6" d="M170.064,23.589,183.5,24.861l-.65-.739L170.723,23Z" transform="translate(34.52 4.669)"/>
    <path id="Path_1267" data-name="Path 1267" class="cls-6" d="M171.542,22.186l9.908.977-.556-.678-8.754-.828Z" transform="translate(34.82 4.396)"/>
    <path id="Path_1268" data-name="Path 1268" class="cls-6" d="M172.737,20.864l6.841.651-.383-.571-5.875-.608Z" transform="translate(35.062 4.128)"/>
    <path id="Path_1269" data-name="Path 1269" class="cls-6" d="M169.75,0h3.619l2.151,2.3-2.157,2.862L170.3,5.113,172.238,2.3Z" transform="translate(34.456 0)"/>
  </g>
</svg>