<svg width="331" height="72" viewBox="0 0 331 72" fill="none" xmlns="http://www.w3.org/2000/svg">
<g clip-path="url(#clip0_723_755)">
<path d="M88.4922 47.7902V25.4102H103.682V29.6702H93.0222V34.2702H103.222V38.4002H93.0222V43.5302H103.682V47.7902H88.4922Z" fill="#231F20"/>
<path d="M91.8994 35.3891H102.099V37.2691H91.8994V44.6491H102.549V46.6691H89.6094V26.5391H102.549V28.5491H91.8994V35.3891Z" fill="#231F20"/>
<path d="M117.822 39.3902L115.002 31.6702L112.172 39.3902H117.822ZM120.882 47.7902L119.302 43.5202H110.692L109.142 47.7902H104.352L112.502 25.4102H117.292L125.652 47.7902H120.882Z" fill="#231F20"/>
<path d="M115 28.4108L110.57 40.5208H119.48L115 28.4108ZM110 42.4108L108.44 46.6808H106L113.33 26.5508H116.55L124 46.6708H121.64L120.06 42.4008L110 42.4108Z" fill="#231F20"/>
<path d="M133.582 48.0005C130.742 48.0005 128.062 47.8605 126.472 46.1505C125.332 44.9305 124.902 43.0905 125.102 40.3505L125.182 39.3505H129.642V40.4005C129.642 41.4605 129.642 42.9105 130.052 43.3105C130.462 43.7105 131.822 43.6905 133.592 43.6905C137.942 43.6905 137.942 43.6905 137.942 40.8705C137.942 38.7105 137.782 38.7105 135.222 38.5905C134.722 38.5905 134.172 38.5905 133.582 38.5005L132.272 38.4105C128.942 38.2205 125.162 38.0005 125.162 32.2305C125.162 25.7505 128.712 25.2305 133.722 25.2305C136.202 25.2305 139.012 25.2305 140.672 26.9605C141.732 28.0705 142.202 29.7405 142.092 32.0705V33.1405H137.642V32.0505C137.572 29.4905 137.572 29.4905 133.722 29.4905C129.872 29.4905 129.772 29.7005 129.772 31.7205C129.772 34.1305 130.182 34.1405 133.332 34.2005H134.272H134.942C139.192 34.4305 142.552 34.6105 142.552 40.8705C142.552 47.8705 138.442 47.8705 133.672 47.8705L133.582 48.0005Z" fill="#231F20"/>
<path d="M126.282 32.2311C126.282 26.8611 128.752 26.3711 133.712 26.3711C138.062 26.3711 141.202 26.5611 140.962 32.0411H138.682C138.572 28.5211 137.902 28.3911 133.632 28.3911C129.182 28.3911 128.562 28.9511 128.562 31.7411C128.562 35.5811 130.382 35.2611 134.142 35.3711C138.922 35.6311 141.342 35.5011 141.342 40.9511C141.342 46.6411 138.652 46.8311 133.582 46.8311C128.512 46.8311 125.802 46.2111 126.222 40.3911H128.512C128.452 44.8211 129.312 44.8211 133.582 44.8211C137.852 44.8211 139.052 44.8211 139.052 40.8211C139.052 36.8211 137.342 37.6211 133.662 37.3311C129.662 37.0111 126.282 37.4911 126.282 32.1811V32.2311Z" fill="#231F20"/>
<path d="M149.114 47.7902V29.6702H142.594V25.4102H160.164V29.6702H153.644V47.7902H149.114Z" fill="#231F20"/>
<path d="M152.511 46.6691H150.231V28.5491H143.711V26.5391H159.041V28.5491H152.511V46.6691Z" fill="#231F20"/>
<path d="M167.891 48C163.591 48 160.891 45.14 160.891 40.54V32.71C160.891 25.83 165.811 25.25 170.421 25.25H172.301C176.951 25.25 178.931 27.32 178.931 32.17V33.94H174.401V32.25C174.401 29.85 174.101 29.51 171.981 29.51H170.691C165.911 29.51 165.431 30.1 165.431 32.63V38.16C165.431 43.07 165.751 43.69 168.301 43.69H171.001C174.651 43.69 174.651 43.21 174.651 41.43V38.7H179.191V41.7C179.191 47.95 174.111 47.95 171.081 47.95L167.891 48Z" fill="#005295"/>
<path d="M167.889 46.8311C164.209 46.8311 162.039 44.5211 162.039 40.4911V32.7111C162.039 27.0211 165.559 26.3711 170.439 26.3711H172.319C176.539 26.3711 177.819 28.2011 177.819 32.1711V32.8211H175.539V32.2511C175.539 29.4311 174.949 28.3911 171.999 28.3911H170.709C165.989 28.3911 164.319 28.9511 164.319 32.6311V38.1611C164.319 42.7511 164.509 44.8211 168.319 44.8211H170.999C174.649 44.8211 175.779 44.3111 175.779 41.4311V39.8211H178.059V41.7011C178.059 46.3211 175.059 46.8311 171.059 46.8311H167.889Z" fill="#005295"/>
<path d="M192.999 39.3902L190.139 31.6702L187.319 39.3902H192.999ZM196.059 47.7902L194.479 43.5202H185.879L184.319 47.7902H179.539L187.689 25.4102H192.479L200.829 47.7902H196.059Z" fill="#005295"/>
<path d="M190.092 28.4091L185.662 40.5191H194.572L190.092 28.4091ZM185.002 42.3991L183.442 46.6691H181.102L188.422 26.5391H191.642L199.162 46.6691H196.802L195.212 42.3991H185.002Z" fill="#005295"/>
<path d="M221.347 47.7902V33.8002L215.567 47.7902H211.807L206.007 33.7802V47.7902H201.477V25.4102H207.307L213.667 40.8202L220.057 25.4102H225.877V47.7902H221.347Z" fill="#005295"/>
<path d="M214.819 46.6691H212.569L204.939 28.2491H204.889V46.6691H202.609V26.5391H206.549L213.669 43.7691L220.809 26.5391H224.749V46.6691H222.469V28.2491H222.419L214.819 46.6691Z" fill="#005295"/>
<path d="M238.313 34.1902C240.513 34.1902 240.863 34.0102 240.863 31.5602C240.863 29.8002 240.713 29.6702 238.553 29.6702H232.803V34.1902H238.313ZM238.903 43.5302C241.053 43.5302 241.453 43.4602 241.453 41.2702C241.453 38.8202 241.173 38.4502 239.333 38.4502H232.803V43.5302H238.903ZM228.273 47.7902V25.4102H239.603C244.703 25.4102 245.393 28.6702 245.393 31.8502C245.522 33.3208 245.074 34.7838 244.143 35.9302C245.983 37.3102 245.983 39.7302 245.983 41.0602C245.983 45.5302 243.983 47.7902 240.113 47.7902H228.273Z" fill="#005295"/>
<path d="M231.678 44.6491H238.898C241.368 44.6491 242.568 44.3591 242.568 41.2691C242.568 38.6091 242.168 37.2691 239.168 37.3291H231.678V44.6491ZM231.678 35.3091H238.308C241.048 35.3091 241.988 34.6991 241.988 31.5591C241.988 28.8391 240.938 28.5591 238.548 28.5591H231.678V35.3191V35.3091ZM229.398 46.6691V26.5391H239.598C243.378 26.5391 244.268 28.3291 244.268 31.8491C244.268 33.9691 243.838 35.3891 241.738 36.0891C244.428 36.5791 244.858 38.5091 244.858 41.0091C244.858 44.6291 243.508 46.6191 240.108 46.6191L229.398 46.6691Z" fill="#005295"/>
<path d="M257.841 35.4802C260.551 35.3902 260.661 35.0202 260.661 32.0902C260.661 30.0002 260.661 29.6702 257.841 29.6702H251.931V35.4802H257.841ZM260.391 47.7902V42.4002C260.391 40.1902 260.011 39.7402 258.131 39.7402H251.931V47.7402H247.391V25.4102H257.811C261.641 25.4102 265.191 26.2502 265.191 32.3302C265.191 33.9102 265.191 36.2602 263.511 37.6602C263.998 38.1326 264.377 38.7057 264.621 39.3395C264.864 39.9734 264.967 40.6527 264.921 41.3302V47.7902H260.391Z" fill="#005295"/>
<path d="M257.842 36.5991C261.352 36.4891 261.783 35.4191 261.783 32.0891C261.783 29.5191 261.432 28.5491 257.842 28.5491H250.842V36.5991H257.842ZM250.842 46.6691H248.562V26.5391H257.853C262.203 26.5391 264.103 27.7391 264.103 32.3291C264.103 35.1491 263.782 37.2491 260.592 37.6491V37.6991C262.842 37.8591 263.832 39.1491 263.832 41.3291V46.6691H261.552V42.3991C261.552 39.8491 260.933 38.6091 258.173 38.6091H250.803V46.6691H250.842Z" fill="#005295"/>
<path d="M267.422 47.7902V25.4102H271.952V47.7902H267.422Z" fill="#005295"/>
<path d="M270.819 46.6691H268.539V26.5391H270.819V46.6691Z" fill="#005295"/>
<path d="M285.373 43.5302C288.123 43.5302 288.803 42.5302 288.863 38.6802V33.4102C288.863 32.5302 288.643 29.6702 285.753 29.6702H279.003V43.5302H285.373ZM274.453 47.7902V25.4102H285.373C287.373 25.4102 293.373 25.4102 293.373 34.2902V39.1002C293.373 44.6202 290.653 47.7902 285.893 47.7902H274.453Z" fill="#005295"/>
<path d="M285.37 44.6491C289.37 44.6491 289.93 42.2891 289.99 38.6491V33.4091C289.99 32.2791 289.59 28.5491 285.75 28.5491H277.86V44.6491H285.37ZM275.57 26.5391H285.37C287.81 26.5391 292.27 26.8591 292.27 34.2891V39.0991C292.27 41.0991 291.95 46.6691 285.91 46.6691H275.57V26.5391Z" fill="#005295"/>
<path d="M303.602 48C297.852 48 294.742 46.67 294.742 39.66V33.38C294.742 27.98 297.102 25.25 301.742 25.25H307.032C311.092 25.25 313.522 27.35 313.522 30.86V33.54H309.002V31.26C309.002 29.92 309.002 29.51 305.942 29.51H303.122C299.502 29.51 299.252 29.78 299.252 33.65V40.12C299.252 43.12 299.842 43.69 303.172 43.69H305.322C309.052 43.69 309.052 43.4 309.052 41.11V39.74H302.642V35.48H313.592V41C313.592 46.79 310.462 48 305.782 48H303.602Z" fill="#005295"/>
<path d="M312.477 36.5989V40.9989C312.477 45.7189 310.357 46.8489 305.797 46.8489H303.597C298.227 46.8489 295.867 45.8489 295.867 39.6289V33.3789C295.867 27.9289 298.327 26.3789 301.767 26.3789H307.057C310.057 26.3789 312.427 27.6189 312.427 30.8689V32.4189H310.137V31.2589C310.137 28.9489 309.227 28.3889 305.957 28.3889H303.137C298.787 28.3889 298.137 29.2489 298.137 33.6489V40.1189C298.137 43.9589 299.427 44.8189 303.137 44.8189H305.287C309.287 44.8189 310.147 44.3289 310.147 41.1089V38.6089H303.727V36.6089L312.477 36.5989Z" fill="#005295"/>
<path d="M315.031 47.7902V25.4102H330.221V29.6702H319.561V34.2702H329.761V38.4002H319.561V43.5302H330.221V47.7902H315.031Z" fill="#005295"/>
<path d="M318.438 35.3891H328.638V37.2691H318.438V44.6491H329.088V46.6691H316.148V26.5391H329.088V28.5491H318.438V35.3891Z" fill="#005295"/>
<path d="M53.1878 33.83H80.0478L60.4378 0.75H41.7578V71.04H60.4378L80.0478 37.09H53.1878V33.83Z" fill="#005295"/>
<path d="M0.25 37.0898L19.86 71.0398H38.54V37.0898H0.25Z" fill="#949CA1"/>
<path d="M38.54 0.75H19.86L0.25 33.83H38.54V0.75Z" fill="#949CA1"/>
<path d="M161.119 57C161.119 52.4 163.229 52 167.479 52C171.199 52 173.889 52.16 173.679 56.85H171.679C171.589 53.85 171.009 53.72 167.359 53.72C163.549 53.72 163.019 54.2 163.019 56.59C163.019 59.88 164.579 59.59 167.799 59.69C171.879 59.92 173.949 59.81 173.949 64.47C173.949 69.34 171.649 69.47 167.309 69.47C162.969 69.47 160.709 69 161.069 64H163.069C163.069 67.79 163.759 67.79 167.409 67.79C171.059 67.79 172.099 67.79 172.099 64.41C172.099 61.03 170.629 61.68 167.479 61.41C164.079 61.13 161.169 61.54 161.169 57H161.119Z" fill="#231F20"/>
<path d="M182.556 53.7419L178.766 64.1019H186.396L182.556 53.7419ZM178.236 65.7419L176.906 69.3919H174.906L181.176 52.1719H183.926L190.356 69.3919H188.356L186.996 65.7119L178.236 65.7419Z" fill="#231F20"/>
<path d="M203.853 52.1406L197.743 69.3606H194.963L188.812 52.1406H190.902L196.312 67.8706H196.383L201.762 52.1406H203.853Z" fill="#231F20"/>
<path d="M207.309 69.3606H205.359V52.1406H207.309V69.3606Z" fill="#231F20"/>
<path d="M225.36 69.3606H222.17L212.5 53.7406H212.45V69.3606H210.5V52.1406H213.72L223.36 67.8706H223.41V52.1406H225.36V69.3606Z" fill="#231F20"/>
<path d="M242.14 60.75V64.49C242.14 68.49 240.33 69.49 236.42 69.49H234.54C229.94 69.49 227.93 68.64 227.93 63.31V58C227.93 53.34 230.04 52 232.93 52H237.45C240.05 52 242.04 53 242.04 55.83V57.17H240.04V56.17C240.04 54.17 239.26 53.71 236.46 53.71H234.05C230.33 53.71 229.78 54.45 229.78 58.21V63.75C229.78 67.03 230.88 67.75 234.09 67.75H236C239.42 67.75 240.16 67.33 240.16 64.58V62.47H234.7V60.75H242.14Z" fill="#231F20"/>
<path d="M243.719 57C243.719 52.4 245.829 52 250.079 52C253.799 52 256.489 52.16 256.279 56.85H254.329C254.239 53.85 253.659 53.72 250.009 53.72C246.199 53.72 245.669 54.2 245.669 56.59C245.669 59.88 247.229 59.59 250.449 59.69C254.539 59.92 256.599 59.81 256.599 64.47C256.599 69.34 254.309 69.47 249.969 69.47C245.629 69.47 243.309 68.94 243.669 63.96H245.669C245.669 67.75 246.349 67.75 250.009 67.75C253.669 67.75 254.689 67.75 254.689 64.37C254.689 60.99 253.219 61.64 250.069 61.37C246.679 61.09 243.759 61.5 243.759 56.96L243.719 57Z" fill="#231F20"/>
<path d="M268.609 67.6406H274.779C276.899 67.6406 277.929 67.3906 277.929 64.7406C277.929 62.4706 277.589 61.3206 275.009 61.3706H268.609V67.6406ZM268.609 59.6406H274.279C276.619 59.6406 277.419 59.1106 277.419 56.4206C277.419 54.1006 276.529 53.8506 274.489 53.8506H268.609V59.6406ZM266.609 69.3506V52.1406H275.339C278.579 52.1406 279.339 53.6806 279.339 56.6806C279.339 58.5006 278.969 59.6806 277.179 60.3106C279.469 60.7206 279.839 62.3806 279.839 64.5106C279.839 67.6106 278.689 69.3106 275.779 69.3106L266.609 69.3506Z" fill="#231F20"/>
<path d="M288.997 53.7419L285.227 64.1019H292.847L288.997 53.7419ZM284.677 65.7419L283.347 69.3919H281.297L287.567 52.1719H290.327L296.757 69.3919H294.757L293.397 65.7419H284.677Z" fill="#231F20"/>
<path d="M313.329 69.3606H310.139L300.469 53.7406H300.429V69.3606H298.469V52.1406H301.689L311.329 67.8706H311.379V52.1406H313.329V69.3606Z" fill="#231F20"/>
<path d="M318.489 59.6706H320.189L327.219 52.1406H329.769L321.889 60.4806L330.709 69.3606H328.069L320.189 61.3906H318.489V69.3606H316.539V52.1406H318.489V59.6706Z" fill="#231F20"/>
</g>
<defs>
<clipPath id="clip0_723_755">
<rect width="331" height="72" fill="white"/>
</clipPath>
</defs>
</svg>
