<svg xmlns="http://www.w3.org/2000/svg" xmlns:xlink="http://www.w3.org/1999/xlink" id="Layer_1" data-name="Layer 1" viewBox="0 0 208.27 92.22" width="208.27"  height="92.22" ><defs><style>.cls-1{fill:#362267;}.cls-2{fill:#231f20;}.cls-3{fill:url(#leftgrad);}.cls-4{fill:url(#linear-gradient);}.cls-5,.cls-6{fill-rule:evenodd;}.cls-5{fill:url(#linear-gradient-2);}.cls-6{fill:url(#linear-gradient-3);}</style><linearGradient id="leftgrad" x1="357.08" y1="248.74" x2="393.76" y2="248.74" gradientUnits="userSpaceOnUse"><stop offset="0" stop-color="#412d6e"/><stop offset="1" stop-color="#55437d"/></linearGradient><linearGradient id="linear-gradient" x1="387.85" y1="238.65" x2="414.02" y2="270.58" gradientUnits="userSpaceOnUse"><stop offset="0" stop-color="#1e0832"/><stop offset="1" stop-color="#362267"/></linearGradient><linearGradient id="linear-gradient-2" x1="356.98" y1="275.5" x2="391.27" y2="275.5" gradientUnits="userSpaceOnUse"><stop offset="0" stop-color="#64548a"/><stop offset="1" stop-color="#8477a2"/></linearGradient><linearGradient id="linear-gradient-3" x1="381.57" y1="305.14" x2="401.49" y2="269.8" xlink:href="#linear-gradient"/></defs><path class="cls-1" d="M226.5,289.7c-3.21,6.35-6.29,12.82-9.37,19.3h-4.61c7.37-14.17,14.68-28.08,21.8-42.77h5.26c4.87,14.43,10.25,28.54,15.32,42.77h-4.49c-2-6.54-4.29-12.95-6.67-19.3Zm16.35-3.08-6.22-17.37-8.79,17.37Z" transform="translate(-212.52 -236.53)"/><path class="cls-1" d="M263.1,282.78l.13-.13c2-4,5.07-6,9.94-6a9.05,9.05,0,0,1,2.56.39l.13,3.33a14.57,14.57,0,0,0-3.72-.64c-4.42,0-8.39,3.52-9,10.26-.51,5.38-.57,11-.57,16.48V309h-4c.45-9.3,1.09-19.24,1.09-31.67h3.72Z" transform="translate(-212.52 -236.53)"/><path class="cls-1" d="M284.2,282.78l.13-.13c2-4,5.06-6,9.93-6a9.12,9.12,0,0,1,2.57.39l.13,3.33a14.65,14.65,0,0,0-3.72-.64c-4.43,0-8.4,3.52-9,10.26-.52,5.38-.58,11-.58,16.48V309h-4c.44-9.3,1.09-19.24,1.09-31.67h3.71Z" transform="translate(-212.52 -236.53)"/><path class="cls-1" d="M306.32,266.23c-.26,5.07-.65,10.13-.9,17.7l.13-.13c2.37-5.19,7.11-7.18,13.2-7.18,6.67,0,12,2.44,12,9.94,0,5-.84,15-.9,22.44h-4c.57-6.92,1.09-17.31,1.09-22.83,0-3.59-3.4-6.47-9.81-6.47s-10.52,4.36-11.42,11.09c-.83,6-.64,12.18-.89,18.21h-4c.64-6.35,1.28-28.21,1.6-42.77Z" transform="translate(-212.52 -236.53)"/><path class="cls-1" d="M357.22,309c.58-5.45.71-13.27,1.16-19.49l-.13-.13c-4.42,4.81-19.75,3.59-19.75,12.12,0,4.42,4.23,5.71,7.89,5.71a21.37,21.37,0,0,0,7.24-1.35l-.7,3.08a30.35,30.35,0,0,1-6.73.77c-3.34,0-11.54-.13-11.54-8,0-13.59,23.72-8.33,23.72-17.5,0-4.23-4.87-5.07-8.14-5.07a27.5,27.5,0,0,0-11.35,2.37l.45-3.27a42.26,42.26,0,0,1,10.32-1.6c8.78,0,12.57,2.44,12.57,8,0,5.38-1,14.1-1,24.36Z" transform="translate(-212.52 -236.53)"/><path class="cls-2" d="M272.65,317.89a3.76,3.76,0,0,0-.93-1,4.23,4.23,0,0,0-1.21-.63,4.52,4.52,0,0,0-1.38-.21,4.85,4.85,0,0,0-2.27.5,4.55,4.55,0,0,0-1.55,1.33,5.72,5.72,0,0,0-.89,1.86,8.12,8.12,0,0,0-.29,2.14,8,8,0,0,0,.29,2.12,5.72,5.72,0,0,0,.89,1.88,4.55,4.55,0,0,0,1.55,1.33,4.85,4.85,0,0,0,2.27.5,3.93,3.93,0,0,0,1.67-.34,3.88,3.88,0,0,0,1.28-.91,4.55,4.55,0,0,0,.87-1.34,5.72,5.72,0,0,0,.43-1.66h1.26a7.4,7.4,0,0,1-.57,2.2,5.52,5.52,0,0,1-1.16,1.68,4.84,4.84,0,0,1-1.66,1.05,5.72,5.72,0,0,1-2.12.37,6.24,6.24,0,0,1-2.74-.56,5.6,5.6,0,0,1-2-1.52,6.41,6.41,0,0,1-1.17-2.19,9,9,0,0,1,0-5.23,6.55,6.55,0,0,1,1.17-2.2,5.6,5.6,0,0,1,2-1.52,6.24,6.24,0,0,1,2.74-.57,6.36,6.36,0,0,1,1.84.28,5.39,5.39,0,0,1,1.64.83,4.75,4.75,0,0,1,1.22,1.34,4.62,4.62,0,0,1,.63,1.84h-1.27A4.21,4.21,0,0,0,272.65,317.89Z" transform="translate(-212.52 -236.53)"/><path class="cls-2" d="M277.42,318.92v2.24h0a3.71,3.71,0,0,1,1.38-1.8,3.62,3.62,0,0,1,2.24-.57V320a3.43,3.43,0,0,0-1.45.21,3.34,3.34,0,0,0-1.12.71,3.25,3.25,0,0,0-.73,1.11,3.53,3.53,0,0,0-.26,1.4v5.1h-1.17v-9.57Z" transform="translate(-212.52 -236.53)"/><path class="cls-2" d="M282.72,325.33a3.55,3.55,0,0,0,.57,1.21,3.38,3.38,0,0,0,1,.9,3.24,3.24,0,0,0,3.44-.32,3.59,3.59,0,0,0,1-1.78h1.17a4.61,4.61,0,0,1-1.37,2.52,4,4,0,0,1-2.81.89,4.35,4.35,0,0,1-1.95-.4,3.54,3.54,0,0,1-1.35-1.09,4.68,4.68,0,0,1-.77-1.62,7.14,7.14,0,0,1-.25-1.93,6.84,6.84,0,0,1,.25-1.86,5,5,0,0,1,.77-1.63,4,4,0,0,1,1.35-1.15,4.1,4.1,0,0,1,1.95-.43,3.91,3.91,0,0,1,2,.46,4,4,0,0,1,1.33,1.22,5,5,0,0,1,.73,1.72,7.74,7.74,0,0,1,.19,2h-7.37A5.54,5.54,0,0,0,282.72,325.33Zm5.79-3.57a3.5,3.5,0,0,0-.6-1.09,2.83,2.83,0,0,0-1-.76,2.72,2.72,0,0,0-1.26-.29,2.77,2.77,0,0,0-1.28.29,2.89,2.89,0,0,0-.94.76,4,4,0,0,0-.63,1.1,5.47,5.47,0,0,0-.3,1.27h6.2A4.15,4.15,0,0,0,288.51,321.76Z" transform="translate(-212.52 -236.53)"/><path class="cls-2" d="M298.84,328.49v-1.82h0a2.93,2.93,0,0,1-.55.86,3.55,3.55,0,0,1-.83.66,4.34,4.34,0,0,1-1,.42,4.44,4.44,0,0,1-2.95-.26,3.79,3.79,0,0,1-1.35-1.09,4.71,4.71,0,0,1-.79-1.62,7.33,7.33,0,0,1,0-3.87,4.71,4.71,0,0,1,.79-1.62,3.92,3.92,0,0,1,1.35-1.1,4.5,4.5,0,0,1,2.95-.28,3.37,3.37,0,0,1,1,.4,3.56,3.56,0,0,1,.79.66,2.81,2.81,0,0,1,.52.91h0v-5.5h1.17v13.25Zm-6.41-3.31a4.18,4.18,0,0,0,.56,1.31,3.11,3.11,0,0,0,1,.94,2.74,2.74,0,0,0,1.43.36,3,3,0,0,0,2.61-1.3,3.8,3.8,0,0,0,.58-1.31,6.48,6.48,0,0,0,0-2.95,3.8,3.8,0,0,0-.58-1.31,3,3,0,0,0-2.61-1.3A2.74,2.74,0,0,0,294,320a3.11,3.11,0,0,0-1,.94,4.18,4.18,0,0,0-.56,1.31,6.48,6.48,0,0,0,0,2.95Z" transform="translate(-212.52 -236.53)"/><path class="cls-2" d="M303.34,315.24v1.88h-1.17v-1.88Zm0,3.68v9.57h-1.17v-9.57Z" transform="translate(-212.52 -236.53)"/><path class="cls-2" d="M309.39,318.92v1h-1.95v6.46a2,2,0,0,0,.16.9c.1.22.36.34.79.36s.66,0,1-.05v1l-.52,0-.52,0a2.3,2.3,0,0,1-1.64-.46,2.34,2.34,0,0,1-.44-1.68V319.9H304.6v-1h1.67V316h1.17v2.88Z" transform="translate(-212.52 -236.53)"/><path class="cls-2" d="M317.59,315.24v8.21a6.48,6.48,0,0,0,.26,1.95,3.28,3.28,0,0,0,.76,1.32,3,3,0,0,0,1.23.74,5.13,5.13,0,0,0,1.63.24,5.21,5.21,0,0,0,1.65-.24,2.9,2.9,0,0,0,1.23-.74,3.28,3.28,0,0,0,.76-1.32,6.48,6.48,0,0,0,.26-1.95v-8.21h1.26v8.48a6.2,6.2,0,0,1-.29,1.94,4.14,4.14,0,0,1-2.5,2.69,7.16,7.16,0,0,1-4.72,0,4.14,4.14,0,0,1-2.5-2.69,6.2,6.2,0,0,1-.29-1.94v-8.48Z" transform="translate(-212.52 -236.53)"/><path class="cls-2" d="M330.1,318.92v1.65h0a2.78,2.78,0,0,1,1.19-1.4,3.42,3.42,0,0,1,1.87-.53,4.56,4.56,0,0,1,1.68.26,2.69,2.69,0,0,1,1.09.73,2.75,2.75,0,0,1,.57,1.16,6.6,6.6,0,0,1,.17,1.54v6.16h-1.17v-6a5.8,5.8,0,0,0-.11-1.14,2.25,2.25,0,0,0-.39-.92,2,2,0,0,0-.75-.62,2.92,2.92,0,0,0-1.18-.22,3.06,3.06,0,0,0-1.25.25,2.69,2.69,0,0,0-.93.69,3.22,3.22,0,0,0-.6,1,4.23,4.23,0,0,0-.23,1.31v5.58h-1.17v-9.57Z" transform="translate(-212.52 -236.53)"/><path class="cls-2" d="M340.11,315.24v1.88h-1.17v-1.88Zm0,3.68v9.57h-1.17v-9.57Z" transform="translate(-212.52 -236.53)"/><path class="cls-2" d="M348.34,319.05a4.15,4.15,0,0,1,1.42,1.09,4.8,4.8,0,0,1,.87,1.61,6.52,6.52,0,0,1,0,3.91,4.8,4.8,0,0,1-.87,1.61,4,4,0,0,1-1.42,1.08,4.9,4.9,0,0,1-3.88,0,4,4,0,0,1-1.42-1.08,4.8,4.8,0,0,1-.87-1.61,6.52,6.52,0,0,1,0-3.91,4.8,4.8,0,0,1,.87-1.61,4.15,4.15,0,0,1,1.42-1.09,4.79,4.79,0,0,1,3.88,0Zm-3.41.92a3.36,3.36,0,0,0-1.05.93,4.68,4.68,0,0,0-.63,1.31,5.43,5.43,0,0,0,0,3,4.68,4.68,0,0,0,.63,1.31,3.36,3.36,0,0,0,1.05.93,3.26,3.26,0,0,0,2.94,0,3.21,3.21,0,0,0,1-.93,4.44,4.44,0,0,0,.64-1.31,5.43,5.43,0,0,0,0-3,4.44,4.44,0,0,0-.64-1.31,3.21,3.21,0,0,0-1-.93,3.26,3.26,0,0,0-2.94,0Z" transform="translate(-212.52 -236.53)"/><path class="cls-2" d="M353.82,318.92v1.65h0a2.78,2.78,0,0,1,1.19-1.4,3.42,3.42,0,0,1,1.87-.53,4.56,4.56,0,0,1,1.68.26,2.62,2.62,0,0,1,1.09.73,2.75,2.75,0,0,1,.57,1.16,6.1,6.1,0,0,1,.17,1.54v6.16h-1.17v-6a5.13,5.13,0,0,0-.11-1.14,2.25,2.25,0,0,0-.39-.92,1.85,1.85,0,0,0-.75-.62,2.92,2.92,0,0,0-1.18-.22,3.06,3.06,0,0,0-1.25.25,2.69,2.69,0,0,0-.93.69,3.2,3.2,0,0,0-.59,1,4.23,4.23,0,0,0-.24,1.31v5.58h-1.17v-9.57Z" transform="translate(-212.52 -236.53)"/><path class="cls-3" d="M393,241l-10.22,6.84-4.87-.76,15.88-10.55L393,241m-9.66,8.2-2.86,2-1.79,1.2-8,5.41,20.57-5.58.07,0,1.51-9.22-.32.12-1.52,1-7.63,5.14m-15.91,8.95L378,251l-4.39-1.11-16.57,11.07,10.32-2.79" transform="translate(-212.52 -236.53)"/><path class="cls-4" d="M393,241l.79-4.47,11.68,15.05-4.92-.84L393,241m6.72,10.87-6.91-8.94-1.51,9.22L409,264l-5.9-7.68-1.28-1.69-2.13-2.77m4.26,3.37,7.88,10.15,9,6-12.25-15.84-4.59-.28" transform="translate(-212.52 -236.53)"/><path class="cls-5" d="M370.63,257.76l20.64-5.61L386.73,280c-.13,0-.38-.31-.75-.88l-5.18-7.2-1.43-2-2-2.7-3.91-5.44-2.68-3.68-.17-.36m-3.23.39-10.32,2.79c-.16,0-.13.15.08.34l11.29,16,6.37-8.83-7.42-10.31M386,284l-7.71-10.75-6.83,8.35,12.15,17.27L386,284" transform="translate(-212.52 -236.53)"/><path class="cls-6" d="M391.27,252.15,409,264l-.05.13-9.37,6.71-2.7,1.91-2,1.46L386.73,280l4.54-27.86h0m20.56,13.24h-.1l-10.25,7.43,3.19,10.32,0,.14.07,0L407.9,281l12.68-9.35.21-.26-9-6M386,284l-2.39,14.87,17-12.49-3.82-10.12L386,284" transform="translate(-212.52 -236.53)"/><path class="cls-1" d="M365.22,278.27a1.69,1.69,0,1,1-1.68-1.64A1.65,1.65,0,0,1,365.22,278.27Zm-3,0a1.27,1.27,0,0,0,1.28,1.31,1.26,1.26,0,0,0,1.25-1.3,1.27,1.27,0,1,0-2.53,0Zm1,.86h-.38v-1.64a3.32,3.32,0,0,1,.63-.05,1,1,0,0,1,.57.12.45.45,0,0,1,.16.36.42.42,0,0,1-.34.38v0a.48.48,0,0,1,.3.4,1.25,1.25,0,0,0,.12.41h-.41a1.4,1.4,0,0,1-.13-.4c0-.18-.13-.26-.34-.26h-.18Zm0-.93h.18c.21,0,.38-.07.38-.24s-.11-.25-.35-.25l-.21,0Z" transform="translate(-212.52 -236.53)"/></svg>