<svg width="517" height="154" viewBox="0 0 517 154" fill="none" xmlns="http://www.w3.org/2000/svg">
<g clip-path="url(#clip0_723_1061)">
<path d="M122.102 52.1016C122.102 34.3016 133.002 19.6016 152.302 19.6016C171.602 19.6016 182.602 34.3016 182.602 52.1016C182.602 70.0016 171.602 84.7016 152.302 84.7016C133.002 84.7016 122.102 70.0016 122.102 52.1016ZM174.202 52.1016C174.202 35.6016 164.602 26.5016 152.402 26.5016C140.302 26.5016 130.602 35.6016 130.602 52.1016C130.602 68.7016 140.302 77.8016 152.402 77.8016C164.602 77.7016 174.202 68.7016 174.202 52.1016ZM221.902 83.0016L222.002 75.5016V56.8016C222.002 49.0016 219.202 45.1016 213.302 45.1016C207.202 45.1016 201.402 49.2016 198.202 54.9016V75.5016L198.302 83.0016H190.702L190.802 75.5016V47.5016L190.702 39.9016H198.002V47.3016H198.202C201.402 43.0016 206.402 38.7016 214.402 38.7016C223.702 38.7016 229.502 44.8016 229.502 56.2016V75.6016L229.602 83.1016H221.902V83.0016ZM276.302 76.0016C274.802 77.8016 268.202 84.2016 257.302 84.2016C244.502 84.2016 235.302 76.5016 235.302 62.4016C235.302 47.6016 244.502 38.6016 256.602 38.6016C271.802 38.6016 277.502 50.1016 276.902 62.7016H242.902C243.002 71.8016 248.902 77.8016 257.902 77.8016C264.602 77.8016 270.302 73.5016 271.902 71.6016L276.302 76.0016ZM243.302 57.1016H268.802C268.802 49.7016 264.002 44.8016 256.802 44.8016C250.002 44.8016 244.802 48.4016 243.302 57.1016Z" fill="#1F2041"/>
<path d="M285.8 83.0008L285.9 74.9008V29.3008L285.8 21.2008L306.9 29.3008V68.0008H322L334.8 83.0008H285.8ZM331.4 60.5008C331.4 47.0008 341.1 36.2008 357.8 36.2008C374.6 36.2008 384.2 47.0008 384.2 60.5008C384.2 73.8008 374.6 84.5008 357.8 84.5008C341.1 84.6008 331.4 73.8008 331.4 60.5008ZM363.5 60.4008C363.5 50.8008 361.6 48.1008 357.7 48.1008C353.8 48.1008 351.9 50.8008 351.9 60.4008C351.9 70.0008 353.8 72.6008 357.7 72.6008C361.6 72.6008 363.5 70.0008 363.5 60.4008ZM438.2 67.2008C436.6 73.6008 431.8 84.6008 413.7 84.6008C398.4 84.6008 387.7 75.7008 387.7 61.0008C387.7 46.7008 397.5 36.3008 413.6 36.3008C425.4 36.3008 435.9 42.0008 437.5 54.3008L419.8 55.7008C419.3 51.0008 417.4 48.4008 414 48.4008C410.5 48.4008 408 51.2008 408 59.5008C408 70.0008 410.9 72.6008 414.4 72.6008C418 72.6008 420.1 70.1008 420.8 64.7008L438.2 67.2008ZM442.8 49.7008C446.2 38.6008 456.4 36.2008 466.7 36.2008C480.4 36.2008 489.4 40.2008 489.4 53.7008V74.5008C489.4 77.3008 489.8 80.8008 490.2 82.9008H472.4C472.1 81.3008 471.9 79.4008 471.7 78.0008H471.5C467.3 82.3008 462.6 84.2008 456.6 84.2008C444.8 84.2008 440.1 77.8008 440.1 70.5008C440.1 61.9008 447.9 54.5008 469.7 54.5008H470.8V52.6008C470.8 49.2008 469.5 47.0008 465.7 47.0008C462.5 47.0008 461.2 48.7008 459.9 51.8008L442.8 49.7008ZM470.8 70.5008V62.6008H470.5C464.8 62.6008 459.7 64.2008 459.7 68.7008C459.7 71.7008 461.8 73.2008 465.1 73.2008C467.7 73.2008 469.7 71.9008 470.8 70.5008ZM516.4 74.5008L516.5 83.0008H496.7L496.8 74.5008V29.6008L496.7 21.2008L516.5 30.6008L516.4 39.0008V74.5008ZM119.1 82.8008H64.2V41.6008C64.2 29.0008 53.9 18.7008 41.3 18.7008C28.7 18.7008 18.4 29.0008 18.4 41.6008C18.4 54.2008 28.4 66.0008 45.9 65.0008C45.9 65.2008 60.1 82.4008 60.1 82.4008C16.7 87.0008 0.5 62.4008 0.5 41.6008C0.5 19.1008 18.8 0.800781 41.3 0.800781C63.8 0.800781 82.1 19.1008 82.1 41.6008V64.8008H103.8L119.1 82.8008Z" fill="#3A3B97"/>
<path d="M41.1031 56.8C49.3322 56.8 56.0031 50.129 56.0031 41.9C56.0031 33.671 49.3322 27 41.1031 27C32.8741 27 26.2031 33.671 26.2031 41.9C26.2031 50.129 32.8741 56.8 41.1031 56.8Z" fill="#B7B533"/>
<path d="M237.398 146L241.498 121.5H256.798L256.398 123.9H243.998L242.698 131.9H253.198L252.798 134.3H242.298L240.798 143.3H253.998L253.598 145.9H237.398V146ZM264.398 146H261.798L258.098 127.8H261.098L263.898 142L270.998 127.8H273.498L264.398 146ZM288.898 141.7C286.998 144.9 284.398 146.5 280.998 146.5C278.698 146.5 276.898 145.8 275.398 144.3C273.898 142.8 273.198 140.8 273.198 138.2C273.198 135.1 274.098 132.5 275.898 130.4C277.698 128.3 279.898 127.3 282.598 127.3C283.898 127.3 285.098 127.6 286.198 128.1C287.298 128.7 288.198 129.5 288.798 130.7C289.398 131.9 289.698 133.3 289.698 135C289.698 135.6 289.598 136.3 289.498 137.1H276.098C275.998 137.7 275.998 138.1 275.998 138.5C275.998 140.2 276.398 141.5 277.298 142.5C278.198 143.5 279.398 144.1 280.798 144.1C281.798 144.1 282.798 143.9 283.598 143.4C284.398 142.9 285.298 142 286.298 140.6L288.898 141.7ZM276.698 135.1H286.998V134.2C286.998 132.7 286.598 131.6 285.698 130.7C284.898 129.8 283.798 129.4 282.398 129.4C280.898 129.4 279.598 130 278.498 131.1C277.598 132.2 276.898 133.6 276.698 135.1ZM295.198 146H292.398L295.398 127.8H298.198L297.298 132.6C298.298 130.7 299.298 129.4 300.298 128.6C301.398 127.8 302.598 127.4 304.098 127.4H304.698L304.198 130.3H303.498C302.398 130.3 301.498 130.5 300.798 130.9C300.098 131.3 299.498 131.9 298.898 132.7C298.298 133.5 297.798 134.4 297.298 135.6C296.798 136.8 296.298 138.9 295.798 142.1L295.198 146ZM321.598 127.8L311.698 147C310.498 149.4 309.298 150.9 308.198 151.5C307.098 152.1 305.998 152.4 304.798 152.4C304.298 152.4 303.698 152.4 302.998 152.3L303.398 149.9C303.998 150 304.498 150.1 304.898 150.1C306.798 150.1 308.298 149 309.398 146.9L309.998 145.7L306.198 128H309.098L311.998 141.8L319.098 128H321.598V127.8ZM335.698 146H333.098L333.798 142.4C332.198 145.1 330.098 146.5 327.498 146.5C325.598 146.5 324.098 145.8 322.998 144.3C321.998 142.9 321.398 141 321.398 138.8C321.398 136 322.198 133.4 323.798 131C325.398 128.6 327.498 127.3 330.098 127.3C332.598 127.3 334.298 128.4 335.398 130.7L336.998 121.5H339.698L335.698 146ZM328.398 144.3C330.198 144.3 331.698 143.3 332.898 141.4C334.098 139.4 334.698 137.2 334.698 134.6C334.698 133.1 334.298 131.8 333.398 131C332.498 130.1 331.498 129.7 330.398 129.7C328.598 129.7 327.198 130.7 326.098 132.7C325.098 134.7 324.498 136.9 324.498 139.3C324.498 140.9 324.898 142.2 325.598 143C326.298 143.8 327.198 144.3 328.398 144.3ZM355.798 146H352.898V145.1C352.898 144.2 352.998 143.3 353.198 142.5C351.398 145.2 349.098 146.6 346.398 146.6C344.698 146.6 343.298 146.1 342.198 145C341.098 144 340.598 142.7 340.598 141.1C340.598 139.3 341.398 137.8 342.898 136.6C344.498 135.4 347.398 134.7 351.598 134.7C351.998 134.7 352.898 134.7 354.298 134.8C354.398 134 354.498 133.4 354.498 132.9C354.498 130.6 353.098 129.5 350.298 129.5C347.798 129.5 346.098 130.5 344.998 132.6L342.298 131.5C343.698 128.8 346.298 127.4 349.998 127.4C352.098 127.4 353.798 127.9 355.198 128.8C356.598 129.7 357.298 131 357.298 132.6C357.298 133.3 356.798 136.4 355.898 142C355.698 143.5 355.498 144.6 355.498 145.4C355.698 145.4 355.698 145.6 355.798 146ZM353.998 136.9C353.098 136.8 352.298 136.8 351.498 136.8C346.298 136.8 343.698 138.3 343.698 141.2C343.698 142.1 343.998 142.8 344.498 143.4C345.098 143.9 345.898 144.2 346.898 144.2C348.498 144.2 349.998 143.5 351.398 142.1C352.798 140.7 353.698 139 353.998 136.9ZM375.798 127.8L365.898 147C364.698 149.4 363.498 150.9 362.398 151.5C361.298 152.1 360.198 152.4 358.998 152.4C358.498 152.4 357.898 152.4 357.198 152.3L357.598 149.9C358.198 150 358.698 150.1 359.098 150.1C360.998 150.1 362.498 149 363.598 146.9L364.198 145.7L360.398 128H363.298L366.198 141.8L373.298 128H375.798V127.8ZM385.198 146L389.298 121.5H396.998C398.898 121.5 400.398 121.6 401.398 121.9C402.398 122.2 403.298 122.8 403.998 123.8C404.698 124.8 405.098 125.9 405.098 127.3C405.098 130.3 403.498 132.2 400.298 133.2C401.498 133.6 402.398 134.3 403.098 135.3C403.798 136.3 404.198 137.5 404.198 138.8C404.198 140 403.898 141.2 403.398 142.2C402.898 143.2 402.198 144 401.398 144.6C400.598 145.2 399.798 145.5 398.998 145.7C398.198 145.9 396.798 146 394.698 146H385.198ZM388.598 143.6H393.898C395.998 143.6 397.498 143.5 398.298 143.2C399.098 142.9 399.798 142.4 400.398 141.6C400.998 140.8 401.198 139.7 401.198 138.5C401.198 137.4 400.998 136.6 400.498 136C399.998 135.4 399.398 134.9 398.698 134.7C397.998 134.5 396.798 134.4 394.998 134.4H390.098L388.598 143.6ZM390.598 132.1H395.198C396.998 132.1 398.398 132 399.298 131.7C400.198 131.4 400.898 130.9 401.398 130.2C401.898 129.5 402.198 128.5 402.198 127.5C402.198 126.6 401.998 125.9 401.498 125.3C400.998 124.7 400.498 124.3 399.798 124.2C399.098 124 398.098 124 396.598 124H391.898L390.598 132.1ZM421.898 146H418.998V145.1C418.998 144.2 419.098 143.3 419.298 142.5C417.498 145.2 415.198 146.6 412.498 146.6C410.798 146.6 409.398 146.1 408.298 145C407.198 144 406.698 142.7 406.698 141.1C406.698 139.3 407.498 137.8 408.998 136.6C410.598 135.4 413.498 134.7 417.698 134.7C418.098 134.7 418.998 134.7 420.398 134.8C420.498 134 420.598 133.4 420.598 132.9C420.598 130.6 419.198 129.5 416.398 129.5C413.898 129.5 412.198 130.5 411.098 132.6L408.398 131.5C409.798 128.8 412.398 127.4 416.098 127.4C418.198 127.4 419.898 127.9 421.298 128.8C422.698 129.7 423.398 131 423.398 132.6C423.398 133.3 422.898 136.4 421.998 142C421.798 143.5 421.598 144.6 421.598 145.4C421.798 145.4 421.798 145.6 421.898 146ZM420.098 136.9C419.198 136.8 418.398 136.8 417.598 136.8C412.398 136.8 409.798 138.3 409.798 141.2C409.798 142.1 410.098 142.8 410.598 143.4C411.198 143.9 411.998 144.2 412.998 144.2C414.598 144.2 416.098 143.5 417.498 142.1C418.898 140.7 419.698 139 420.098 136.9ZM441.598 146H438.898L440.698 135.5C440.898 134.3 440.998 133.4 440.998 132.9C440.998 132 440.698 131.2 440.098 130.5C439.498 129.8 438.698 129.5 437.598 129.5C436.198 129.5 434.998 130.2 433.698 131.5C432.498 132.8 431.498 135.5 430.798 139.5L429.698 146H427.098L430.098 127.8H432.498L431.798 131.8C433.398 128.8 435.498 127.2 438.198 127.2C439.798 127.2 441.098 127.7 442.098 128.7C443.098 129.7 443.598 130.9 443.598 132.5C443.598 133.2 443.498 134.2 443.298 135.4L441.598 146ZM449.998 146H447.198L451.298 121.5H454.098L451.498 136.9L461.198 127.8H464.498L457.498 134.3L461.998 146H458.998L455.198 136.2L450.898 140.5L449.998 146ZM467.998 146H465.198L468.198 127.8H470.998L467.998 146ZM471.998 124.9H468.398L468.998 121.6H472.598L471.998 124.9ZM488.098 146H485.398L487.198 135.5C487.398 134.3 487.498 133.4 487.498 132.9C487.498 132 487.198 131.2 486.598 130.5C485.998 129.8 485.198 129.5 484.098 129.5C482.698 129.5 481.498 130.2 480.198 131.5C478.998 132.8 477.998 135.5 477.298 139.5L476.198 146H473.598L476.598 127.8H478.998L478.298 131.8C479.898 128.8 481.998 127.2 484.698 127.2C486.298 127.2 487.598 127.7 488.598 128.7C489.598 129.7 490.098 130.9 490.098 132.5C490.098 133.2 489.998 134.2 489.798 135.4L488.098 146ZM511.398 126.7H509.898C508.198 126.7 507.198 127.5 506.798 129C508.398 130.2 509.198 131.7 509.198 133.5C509.198 135.3 508.498 136.9 507.198 138.2C505.898 139.5 504.098 140.1 501.998 140.1C500.798 140.1 499.598 139.8 498.498 139.3C496.898 140 496.198 140.8 496.198 141.7C496.198 142.2 496.398 142.5 496.898 142.7C497.398 142.9 498.398 142.9 500.098 143C502.598 143 504.398 143.1 505.498 143.3C506.598 143.5 507.398 143.9 508.098 144.7C508.798 145.4 509.098 146.4 509.098 147.5C509.098 149.2 508.398 150.6 506.998 151.6C505.598 152.6 503.398 153.1 500.498 153.1C494.498 153.1 491.498 151.7 491.498 148.8C491.498 147 492.598 145.7 494.898 144.9C493.998 144.4 493.498 143.6 493.498 142.6C493.498 140.9 494.698 139.5 497.198 138.6C495.798 137.6 495.198 136.2 495.198 134.4C495.198 132.6 495.898 131.1 497.198 129.8C498.498 128.5 500.298 128 502.398 128C503.198 128 504.198 128.2 505.298 128.5C505.798 126.9 506.498 125.8 507.298 125.3C508.098 124.8 509.098 124.5 510.198 124.5C510.598 124.5 511.098 124.6 511.698 124.7L511.398 126.7ZM496.598 145.5C494.998 146 494.298 146.8 494.298 148C494.298 149 494.898 149.7 496.198 150.2C497.498 150.7 499.098 150.9 501.098 150.9C504.698 150.9 506.498 149.9 506.498 147.9C506.498 147.3 506.298 146.8 505.798 146.4C505.298 146 503.898 145.8 501.598 145.7C499.498 145.8 497.798 145.7 496.598 145.5ZM501.898 138C503.198 138 504.298 137.6 505.098 136.8C505.898 136 506.298 134.9 506.298 133.6C506.298 132.5 505.898 131.6 505.198 130.9C504.398 130.2 503.498 129.9 502.298 129.9C500.998 129.9 499.998 130.3 499.198 131.1C498.398 131.9 497.998 132.9 497.998 134.2C497.998 135.3 498.298 136.3 498.998 137C499.698 137.7 500.698 138 501.898 138ZM515.998 146H511.998L512.698 141.9H516.798L515.998 146Z" fill="#1F2041"/>
</g>
<defs>
<clipPath id="clip0_723_1061">
<rect width="517" height="154" fill="white"/>
</clipPath>
</defs>
</svg>
