<svg width="79" height="56" viewBox="0 0 79 56" fill="none" xmlns="http://www.w3.org/2000/svg">
<g clip-path="url(#clip0_723_1053)">
<path fill-rule="evenodd" clip-rule="evenodd" d="M48.384 23.9183V35.9023V38.1672L42.9085 55.2534C33.936 51.9681 34.5831 34.3343 34.5831 34.3343L34.496 23.9183C34.496 20.7699 33.5502 13.2036 24.4036 13.2036C22.996 13.1681 21.5961 13.4226 20.2911 13.9511C18.986 14.4796 17.8036 15.2709 16.8174 16.2758C15.8311 17.2807 15.0621 18.4778 14.5582 19.7925C14.0542 21.1073 13.8261 22.5116 13.888 23.9183V55.5894H0V1.4187H13.2533V6.6703C14.9359 4.5812 17.0665 2.8971 19.4876 1.7426C21.9088 0.588 24.5585 -0.00749986 27.2409 0.000100136C39.9716 0.000100136 48.384 9.6196 48.384 23.9183ZM65.384 1.5935C66.8042 0.5581 68.5163 0.0001 70.2738 0H78.524L60.6916 55.5396H46.368L62.3716 5.7618C62.9091 4.0885 63.9639 2.629 65.384 1.5935Z" fill="#A50064"/>
</g>
<defs>
<clipPath id="clip0_723_1053">
<rect width="79" height="56" fill="white"/>
</clipPath>
</defs>
</svg>
