<svg xmlns="http://www.w3.org/2000/svg" xmlns:xlink="http://www.w3.org/1999/xlink" id="Layer_1" viewBox="0 0 335 54" width="335"  height="54" ><style>.st0,.st1{fill:#4b3048}.st1,.st2{clip-path:url(#SVGID_2_)}.st2,.st3{fill:#94278f}</style><path class="st0" d="M161 17.1c0 4.5-4.9 5.2-7.7 5.2h-6.1V12.2h6.7c2.7 0 7.1.6 7.1 4.8v.1zm-13.9 15.1h12.1c5.7 0 8.6 1.7 8.6 5.1v.1c0 4.3-4.3 5.3-8 5.3h-12.7V32.2zm21-6.2c3.2-2.7 4-5.9 4-10.3v-.1c0-3.5-1.2-6.5-3.6-9-3-3-7.7-4.6-13.5-4.6h-17.6c-.7 0-1.4.6-1.4 1.4v48.3c0 .7.6 1.4 1.4 1.4h22.3c12 0 19.2-5.5 19.2-14.6v-.1c.1-7.1-5.3-12.4-10.8-12.4zm43.5 5.1h-12.5l6.2-14.5 6.3 14.5zm-1-28.7c-.2-.5-.7-.8-1.2-.8h-7.9c-.5 0-1 .3-1.2.8L179 51c-.2.4-.1.9.1 1.3s.7.6 1.1.6h8.7c.5 0 1-.3 1.2-.8l4.6-10.8h21l4.5 10.8c.2.5.7.8 1.3.8h9c.5 0 .9-.2 1.1-.6.3-.4.3-.9.1-1.3L210.6 2.4z"/><defs><path id="SVGID_1_" d="M.9 1.4H334v52.2H.9z"/></defs><clipPath id="SVGID_2_"><use xlink:href="#SVGID_1_" overflow="visible"/></clipPath><path class="st1" d="M279.2 2h-8.3c-.7 0-1.4.6-1.4 1.4v29.4L246.1 2.5c-.3-.3-.7-.5-1.1-.5h-7.9c-.7 0-1.4.6-1.4 1.4v48.3c0 .7.6 1.4 1.4 1.4h8.3c.8 0 1.4-.6 1.4-1.4V21.2L271 52.4c.3.3.7.5 1.1.5h7.1c.7 0 1.4-.6 1.4-1.4V3.3c0-.7-.6-1.3-1.4-1.3zm54.6 48.8l-20.3-26.6 19.3-19.9c.4-.4.5-1 .3-1.5s-.7-.8-1.2-.8h-10.5c-.4 0-.7.2-1 .4l-20.6 21.8V3.3c0-.7-.6-1.4-1.4-1.4h-8.5c-.7 0-1.4.6-1.4 1.4v48.3c0 .7.6 1.4 1.4 1.4h8.5c.7 0 1.4-.6 1.4-1.4V38.1l6-6.2 15.5 20.5c.3.3.7.5 1.1.5h10.3c.5 0 1-.3 1.2-.8.3-.4.2-.9-.1-1.3z"/><path class="st2" d="M28.3 29.4c0 4.1-1 5.9-3.4 5.9-2.5 0-3.4-1.7-3.4-6.2v-25c0-1.5-1.2-2.7-2.7-2.7h-15c-1.5 0-2.7 1.2-2.7 2.7v25.2c0 15.2 8.9 24.3 23.8 24.3C40 53.6 49 44.4 49 29V4.1c0-1.5-1.2-2.7-2.7-2.7h-15c-1.6 0-2.8 1.3-2.8 2.8v25.2h-.2zm55.6-6.3L73.8 2.6c-.5-.9-1.5-1.2-2.5-1.2H57.5c-1.5 0-2.7 1.2-2.7 2.7v46.1c0 1.5 1.2 2.7 2.7 2.7h14c1.5 0 2.7-1.2 2.7-2.7V33L84 51.7c.4.8 1.3 1.2 2.4 1.2h13.7c1.5 0 2.7-1.2 2.7-2.7V4.1c0-1.5-1.2-2.7-2.7-2.7H86.6c-1.5 0-2.7 1.2-2.7 2.7v19z"/><path class="st3" d="M109.3 4.2v46.1c0 1.5 1.2 2.7 2.7 2.7h14.1c1.5 0 2.7-1.2 2.7-2.7V4.2c0-1.5-1.2-2.7-2.7-2.7H112c-1.5 0-2.7 1.2-2.7 2.7z"/></svg>