<svg width="277" height="43" viewBox="0 0 277 43" fill="none" xmlns="http://www.w3.org/2000/svg">
<g clip-path="url(#clip0_723_1106)">
<mask id="mask0_723_1106" style="mask-type:luminance" maskUnits="userSpaceOnUse" x="0" y="0" width="277" height="43">
<path d="M0 0H277V43H0V0Z" fill="white"/>
</mask>
<g mask="url(#mask0_723_1106)">
<path d="M35.678 19.5811C37.465 18.4851 41.077 16.9131 44.768 16.9131C49.278 16.9131 50.302 19.6441 49.738 22.8121L47.968 32.8871H43.53L45.237 23.1771C45.435 21.9701 45.285 20.5571 43.498 20.5571C42.244 20.5571 40.585 21.2321 39.751 21.6691L37.782 32.8951H33.344L35.678 19.5811ZM61.195 32.8951L60.965 31.2911C59.869 32.1881 58.162 33.2121 56.042 33.2121C52.477 33.2121 50.509 30.5291 51.437 25.2811C52.477 19.4301 56.987 16.9131 60.345 16.9131C62.02 16.9131 62.632 17.1911 63.306 17.4291L64.323 11.6261H68.808L65.085 32.8861H61.21L61.195 32.8951ZM58.281 29.6471C59.258 29.6471 60.369 29.3461 61.361 28.6871L62.719 20.9701C62.306 20.7081 61.409 20.4861 60.449 20.4861C58.051 20.4861 56.344 22.1291 55.812 25.1381C55.248 28.3531 56.471 29.6471 58.281 29.6471ZM103.653 16.9131C106.122 16.9131 108.393 17.6911 109.877 18.4691L107.345 32.8951H103.454L103.224 31.2911C102.113 32.1161 100.541 33.2121 98.357 33.2121C94.682 33.2121 92.808 30.3941 93.705 25.3441C94.729 19.6601 98.461 16.9141 103.645 16.9141L103.653 16.9131ZM100.525 29.6471C101.652 29.6471 102.907 29.1711 103.669 28.5831L105.026 20.9301C104.741 20.7951 103.835 20.5021 102.66 20.5021C100.422 20.5021 98.604 22.0101 98.072 25.1381C97.508 28.3531 98.699 29.6471 100.525 29.6471ZM112.759 19.3501C116.665 16.9841 120.523 16.3901 123.794 17.4931L122.572 20.8351C120.849 20.5171 118.793 20.5171 116.76 21.7641L114.807 32.8941H110.369L112.751 19.3581L112.759 19.3501ZM132.21 32.8951L131.98 31.2911C130.884 32.1881 129.177 33.2121 127.057 33.2121C123.493 33.2121 121.524 30.5291 122.453 25.2811C123.493 19.4301 128.002 16.9131 131.36 16.9131C133.036 16.9131 133.647 17.1911 134.322 17.4291L135.354 11.6261H139.839L136.092 32.8861H132.218L132.21 32.8951ZM129.304 29.6471C130.281 29.6471 131.392 29.3461 132.384 28.6871L133.742 20.9701C133.329 20.7081 132.432 20.4861 131.471 20.4861C129.074 20.4861 127.367 22.1291 126.835 25.1381C126.271 28.3531 127.494 29.6471 129.304 29.6471ZM143.745 32.8951L147.485 11.6251H155.106C159.449 11.6251 162.093 13.4991 161.434 17.1591C160.989 19.5811 159.219 21.0651 157.345 21.6691L157.329 21.8191C159.568 22.4791 160.854 24.2571 160.394 26.9091C159.711 30.7991 156.885 32.8861 152.01 32.8861H143.745V32.8951ZM151.946 29.5281C154.312 29.5281 155.71 28.5991 156.075 26.5281C156.424 24.6851 155.408 23.5821 153.074 23.5821H150.009L148.953 29.5281H151.946ZM150.597 20.3431H153.344C155.479 20.3431 156.956 19.2631 157.274 17.4931C157.591 15.6671 156.376 14.8411 154.241 14.8411H151.557L150.597 20.3431ZM172.072 16.9131C174.541 16.9131 176.812 17.6911 178.296 18.4691L175.764 32.8951H171.874L171.643 31.2911C170.532 32.1161 168.96 33.2121 166.777 33.2121C163.101 33.2121 161.227 30.3941 162.124 25.3441C163.148 19.6601 166.88 16.9141 172.064 16.9141L172.072 16.9131ZM168.944 29.6471C170.071 29.6471 171.326 29.1711 172.088 28.5831L173.445 20.9301C173.16 20.7951 172.255 20.5021 171.08 20.5021C168.841 20.5021 167.023 22.0101 166.491 25.1381C165.927 28.3531 167.118 29.6471 168.944 29.6471ZM181.131 19.5811C182.917 18.4851 186.529 16.9131 190.221 16.9131C194.73 16.9131 195.754 19.6441 195.191 22.8121L193.42 32.8871H188.982L190.689 23.1771C190.888 21.9701 190.737 20.5571 188.951 20.5571C187.696 20.5571 186.037 21.2321 185.203 21.6691L183.234 32.8951H178.796L181.131 19.5811ZM207.655 24.0981C208.385 26.7811 210.473 30.1481 212.014 31.9661L208.457 34.0541C206.782 32.6961 204.614 29.0361 203.852 26.4641C203.138 26.8141 202.447 27.1231 201.796 27.3451L200.819 32.8951H196.382L200.145 11.6341H204.583L202.526 23.2011C205.377 21.9781 207.361 19.8191 208.901 17.3501H213.522C211.934 20.2161 209.862 22.4151 207.655 24.1061V24.0981ZM25.778 32.8951H30.216L32.939 17.3421H28.509L25.778 32.8951ZM31.209 16.2781C31.8007 16.2781 32.3682 16.0431 32.7866 15.6247C33.2049 15.2063 33.44 14.6388 33.44 14.0471C33.44 13.4554 33.2049 12.888 32.7866 12.4696C32.3682 12.0512 31.8007 11.8161 31.209 11.8161C30.6173 11.8161 30.0498 12.0512 29.6314 12.4696C29.2131 12.888 28.978 13.4554 28.978 14.0471C28.978 14.6388 29.2131 15.2063 29.6314 15.6247C30.0498 16.0431 30.6173 16.2781 31.209 16.2781ZM16.227 11.6261C16.751 15.7781 17.331 22.2641 17.506 27.5761H17.688C19.641 23.6861 22.341 15.1261 23.254 11.6341H28.16C26.572 17.7711 22.38 27.8931 19.633 32.8941H13.695C13.751 28.2261 13.258 22.5581 12.853 19.8581H12.774C11.551 23.3521 8.797 29.2181 6.724 32.8951H0.254C0.961 25.2011 0.881 18.1751 0 11.6251H4.954C5.279 15.0711 5.526 22.0251 4.834 27.5751H5.034C7.105 24.0181 10.591 14.9841 11.75 11.6251H16.235H16.227V11.6261ZM84.17 17.3421C84.734 20.4861 85.4 24.7021 85.528 28.1551H85.695C87.155 25.6061 88.862 20.9151 89.863 17.3421H94.483C92.784 22.5891 89.759 29.2501 87.521 32.8951H81.931C81.876 28.6871 81.423 25.1221 80.979 22.9791H80.907C79.613 26.0031 77.454 29.6471 75.374 32.8951H69.269C69.809 27.3531 69.864 22.2011 69.419 17.3421H74.048C74.183 20.5421 74.048 24.6621 73.588 28.1551H73.77C75.191 25.8601 77.843 20.9781 79.312 17.3421H84.17ZM276.574 0.836125H220.73C226.216 19.3261 220.421 39.4281 220.421 39.4281L224.359 38.4121C245.905 22.7161 248.541 3.67113 248.541 3.67113C256.972 12.7611 258.933 27.8611 256.758 36.5541L257.711 37.9601C276.114 23.6061 276.574 0.828125 276.574 0.828125V0.836125Z" fill="#022A31"/>
<path d="M251.256 32.0391L220.191 40.3271L220 40.9151C226.399 40.2321 243.277 37.8661 250.732 42.9391C253.178 41.5421 255.242 40.0891 256.988 38.5651C254.694 34.6031 251.264 32.0391 251.264 32.0391H251.256Z" fill="#022A31"/>
</g>
</g>
<defs>
<clipPath id="clip0_723_1106">
<rect width="277" height="43" fill="white"/>
</clipPath>
</defs>
</svg>
