<svg xmlns:xlink="http://www.w3.org/1999/xlink" xmlns="http://www.w3.org/2000/svg" id="Layer_1" data-name="Layer 1" viewBox="0 0 299.03 71.15" width="299.03"  height="71.15" ><defs><style>.cls-1{fill:#231f20;}.cls-2{fill:#fff;}.cls-3{fill:#608373;}.cls-4{fill:#386351;}</style></defs><rect class="cls-1" width="84.59" height="67.79"/><path class="cls-2" d="M19.47,5,35.39,39.71,48,5l2,4.18L31.22,62.81,4.15,5Z"/><path class="cls-3" d="M51.19,11.42,64,39.71,76.65,5h3.79L59.86,62.81,44.56,29.93Z"/><path class="cls-1" d="M102.2,7.7c-.45-1.26-1.17-1.62-1.89-1.62H99.05c-.18,0-.27-.13-.27-.31V4.6c0-.23.14-.32.36-.32s1.71.14,5.76.14c3.24,0,5.13-.14,5.58-.14.27,0,.36.09.36.32V5.72c0,.23-.09.36-.4.36h-.86a1.08,1.08,0,0,0-1.08,1.58l6.62,20.78.09,0c.36-.94,6.34-17.5,6.43-19.21a4.36,4.36,0,0,0-.81-2.39,1.88,1.88,0,0,0-1.53-.81h-.94a.29.29,0,0,1-.32-.31V4.64a.31.31,0,0,1,.36-.36c.36,0,2,.14,5.85.14s5.49-.14,5.9-.14.31.14.31.41v1c0,.23-.09.36-.31.36h-1.58c-.9,0-1.21,1-1,1.76l6.48,20.79h.18c1.35-4,6.48-18.81,6.48-21.29,0-.63-.45-1.26-1.53-1.26H138c-.27,0-.32-.13-.32-.36V4.64a.31.31,0,0,1,.36-.36c.45,0,2,.14,4.77.14,2.52,0,3.87-.14,4.23-.14.18,0,.27.09.27.23V5.72c0,.23,0,.36-.31.36H146a2.22,2.22,0,0,0-2,1.49c-.45,1-9.63,26.18-10.53,28.43-.18.45-.54,1.17-1.17,1.17s-.94-.45-1.12-1l-8.15-23.66h-.18c-.4,1.26-8.37,23.3-8.55,23.8a1.32,1.32,0,0,1-1.17.85.91.91,0,0,1-.9-.72Z"/><path class="cls-1" d="M147.56,24.71c0-2.07-.36-2.79-1.71-3.51l-.81-.45c-.27-.09-.36-.18-.36-.36v-.27c0-.18.09-.27.36-.41l5.45-2.56a2.12,2.12,0,0,1,.72-.18c.27,0,.36.27.4.54l.41,3.24h.18c1.53-2.52,3.42-4.05,5.4-4.05A2.2,2.2,0,0,1,159.94,19a2.61,2.61,0,0,1-2.43,2.43A3.48,3.48,0,0,1,156,21a2.07,2.07,0,0,0-1.26-.36,2.35,2.35,0,0,0-1.89,1.3,5.16,5.16,0,0,0-.54,2.21v8.68c0,1.45.36,1.89,1.26,1.89h2c.27,0,.36.09.36.32v1c0,.23-.09.32-.32.32s-2.29-.14-5.58-.14-4.9.14-5.26.14-.32-.09-.32-.32v-1c0-.27.09-.36.41-.36h1.57a1.06,1.06,0,0,0,1.17-1.21Z"/><path class="cls-1" d="M165.7,26.29c0,4.59,3.28,7.28,5.85,7.28A6.09,6.09,0,0,0,177,31c.18-.31.36-.31.54-.22l.68.4c.22.14.31.32,0,.91A8.94,8.94,0,0,1,170,36.81c-2.88,0-4.91-.63-6.48-2.43A10.17,10.17,0,0,1,161,27a9.33,9.33,0,0,1,2.2-6.66c1.89-2.43,3.92-3.33,7.83-3.33,5.13,0,6.8,5.36,6.8,7.2,0,.67-.45.72-1.26.72H165.7Zm5.58-3c.94,0,1.48-.27,1.48-.63,0-1.35-.45-4-2.79-4s-3.55,1.62-4.14,4.64Z"/><path class="cls-1" d="M186,17.33a2.34,2.34,0,0,1,.9-.36q.41,0,.54.54l.36,2.34h.27a7.63,7.63,0,0,1,2.25-1.8,7,7,0,0,1,3.6-1.08,6.24,6.24,0,0,1,4,1.08,5.09,5.09,0,0,1,2.48,4.63v6.49c0,1.43,0,3.42,0,4.31s.54,1.26,1.08,1.26h1.26c.41,0,.54.09.54.32v1c0,.23-.09.32-.36.32s-1.71-.14-4.86-.14c-2.7,0-4.14.14-4.41.14s-.36-.18-.36-.54V35.1c0-.27.09-.36.54-.36h.9c.36,0,.72-.27.81-1.08a35.45,35.45,0,0,0,.18-4.23V24.26c0-1.8-.09-3-1.17-3.87a3.45,3.45,0,0,0-2.7-.81,4.16,4.16,0,0,0-2.88,1.17,4.6,4.6,0,0,0-.94,3.2v9.26c0,1,.22,1.53.85,1.53h.81c.36,0,.45.09.45.41V36c0,.27-.09.45-.36.45s-1.53-.14-4.23-.14-4.23.14-4.5.14-.27-.18-.27-.45V35.1c0-.27.09-.36.45-.36h.9c.54,0,1.17-.18,1.17-.9V23.72a2.82,2.82,0,0,0-1.89-2.61l-.36-.18a.46.46,0,0,1-.36-.45v-.36c0-.18.18-.36.45-.45Z"/><path class="cls-1" d="M205.16,20a.57.57,0,0,1-.63-.63c0-.36.27-.63.86-.86a19,19,0,0,0,6.16-5.67.74.74,0,0,1,.72-.45c.36,0,.54.27.54.63l-.18,4.45h5.94a.29.29,0,0,1,.32.37l-.46,1.88c0,.19-.17.28-.44.28h-5.45c-.09,1.89-.13,4.05-.13,6v4c0,3.51,1.48,4.24,2.38,4.24a6.16,6.16,0,0,0,2.61-.55c.32-.13.45-.13.54.09l.27.54A.56.56,0,0,1,218,35a9.36,9.36,0,0,1-5.67,1.8c-2.7,0-4.72-2.16-4.72-4.05,0-1.62.13-5.21.13-6.92V20Z"/><path class="cls-1" d="M235.13,26.42c0-2.34,0-4.86-1.17-6a3.27,3.27,0,0,0-2.52-1.08,4.89,4.89,0,0,0-3.33,1.62,3.91,3.91,0,0,0-.81,2.2v9.72c0,1.45.18,1.89.81,1.89h1.08c.27,0,.45.09.45.41V36c0,.27-.09.45-.36.45s-2.34-.14-4.68-.14c-2.79,0-4.5.14-4.86.14a.31.31,0,0,1-.36-.36v-1c0-.23.18-.32.41-.32h1.12c.72,0,1.35-.18,1.48-.72a42.57,42.57,0,0,0,.23-5.58l-.09-16.06c0-2.52-.54-3.42-2.07-4.05l-.81-.27c-.27-.09-.36-.18-.36-.36V7.25c0-.18.09-.27.63-.54a46.85,46.85,0,0,0,5.85-2.61A3.86,3.86,0,0,1,227,3.74c.36,0,.45.36.36,1.08s-.09,9.9-.09,12.1v2.79h.27a7.42,7.42,0,0,1,5.8-2.74,6.18,6.18,0,0,1,4.5,1.8c2.07,1.8,2,4.05,2,6.61V34c0,.63.81.72,1.53.72h.81c.36,0,.45.09.45.32v1a.31.31,0,0,1-.36.36c-.27,0-1.71-.14-4.45-.14s-4.32.14-4.77.14c-.27,0-.36-.09-.36-.32V35c0-.18.09-.27.32-.27h.76c.54,0,1.17-.18,1.26-.9s.09-3,.09-4.41Z"/><path class="cls-1" d="M255.11,34.07a8.76,8.76,0,0,1-3.91,2.43,9.57,9.57,0,0,1-2.88.31c-1.67,0-3.11-1.35-3.11-3.87,0-2.06.9-4.09,4.14-5.53a47.21,47.21,0,0,0,5.49-2.79V22.28a4.39,4.39,0,0,0-.72-2.52,3,3,0,0,0-2.25-.67,4.69,4.69,0,0,0-2.61.81c-.63.44-.18,1.12-.18,2.2,0,1.62-.81,2.61-2.7,2.61a1.46,1.46,0,0,1-1.53-1.53,4.78,4.78,0,0,1,2.07-3.69A11.86,11.86,0,0,1,254.21,17c2.52,0,3.33.54,4.14,1.26a4.23,4.23,0,0,1,1.08,3.38l.09,7.1v2.17c0,2.42.36,3.14,1.17,3.14a1.73,1.73,0,0,0,1.44-.72c.18-.27.27-.27.45-.17l.54.35c.18.09.27.27.09.72a4.52,4.52,0,0,1-4.14,2.61,3.72,3.72,0,0,1-3.78-2.74Zm-.27-7.78c-2,1.26-5,2-5,5.3,0,1.85,1,2.75,2.07,2.75,1.26-.09,2.88-1.35,2.88-2.16Z"/><path class="cls-1" d="M270,17.24a2,2,0,0,1,.9-.27c.27,0,.49.18.54.63l.27,2.61h.18A8.59,8.59,0,0,1,278.33,17a5.63,5.63,0,0,1,5.31,3.33h.27a8.19,8.19,0,0,1,6.3-3.33,4.9,4.9,0,0,1,4.14,1.53c1.21,1.26,2.07,1.89,2.07,5.8v5.13c0,1.26-.09,3.42-.09,4,0,1,.54,1.35,1.17,1.35h1.17c.27,0,.36.09.36.32V36c0,.27-.09.41-.36.41s-1.53-.14-4.32-.14c-2.52,0-4.14.14-4.41.14a.31.31,0,0,1-.36-.36V35.1c0-.27.09-.36.36-.36h.72a.85.85,0,0,0,.9-.9c.09-1,.18-2.61.18-4V24.62c0-2.16-.18-3.33-1-4.05a3.47,3.47,0,0,0-2.7-1,4.44,4.44,0,0,0-3.2,1.84,6.15,6.15,0,0,0-.67,3.51V33.3c0,1,.27,1.44.81,1.44h1.17c.36,0,.45.09.45.32v1c0,.22-.05.36-.27.36s-1.53-.14-4.41-.14-4.28.14-4.54.14-.32-.14-.32-.36v-.86c0-.36.09-.45.36-.45h1c.63,0,1.08-.44,1.08-2.07V25c0-3.24-.54-4.23-1.17-4.77a4.07,4.07,0,0,0-2.43-.63,3.93,3.93,0,0,0-3.24,1.89,5.2,5.2,0,0,0-.72,3.2v8c0,1.63.36,2.07.9,2.07h1c.36,0,.45.09.45.27v1a.31.31,0,0,1-.36.36c-.36,0-1.62-.14-4.5-.14-2.7,0-4.14.14-4.5.14s-.36-.09-.36-.41v-.94c0-.23.18-.32.54-.32h1.35c.45,0,.72-.36.81-1.17V24.26c0-1.44-.27-2.25-1.35-2.88l-.94-.5c-.23-.13-.32-.22-.32-.4V20c0-.18.14-.27.32-.36Z"/><path class="cls-4" d="M124.61,60.2a.2.2,0,0,1,0,.25,9,9,0,0,1-7.45,4.2,8.85,8.85,0,0,1-6.55-2.35,9.52,9.52,0,0,1-2.7-6.75,9.7,9.7,0,0,1,2.55-6.7A8.64,8.64,0,0,1,117,46.2a10.89,10.89,0,0,1,5,1.2c.35.2.45.2.5,0l.2-.65c0-.15.1-.15.4-.15s.35,0,.35.4.5,4.45.6,5.2c0,.15,0,.23-.1.25l-.48.15c-.12,0-.2-.05-.27-.25a8.86,8.86,0,0,0-2-3.25A6,6,0,0,0,117,47.25c-4,0-5.65,3.6-5.65,7.2a10.12,10.12,0,0,0,2.3,6.5,5.39,5.39,0,0,0,4.3,1.95,7.27,7.27,0,0,0,6-2.9c.13-.17.23-.25.3-.17Z"/><path class="cls-4" d="M135.63,55A5.36,5.36,0,0,1,137.36,59a5.71,5.71,0,0,1-1.55,3.79,5.56,5.56,0,0,1-4.2,1.8,4.9,4.9,0,0,1-4.05-1.8,5.23,5.23,0,0,1-1.35-3.87,5.58,5.58,0,0,1,2.1-4.15,5.41,5.41,0,0,1,3.55-1.2A5.27,5.27,0,0,1,135.63,55Zm-1.32,3.87c0-2.75-1.45-4.35-2.6-4.35a2,2,0,0,0-1.58.68A5.15,5.15,0,0,0,129.06,59a5.84,5.84,0,0,0,.77,3.47,2.1,2.1,0,0,0,2,1.07C133.46,63.52,134.31,61.45,134.31,58.9Z"/><path class="cls-4" d="M148.38,55A5.36,5.36,0,0,1,150.11,59a5.71,5.71,0,0,1-1.55,3.79,5.56,5.56,0,0,1-4.2,1.8,4.9,4.9,0,0,1-4.05-1.8A5.23,5.23,0,0,1,139,58.9a5.58,5.58,0,0,1,2.1-4.15,5.41,5.41,0,0,1,3.55-1.2A5.27,5.27,0,0,1,148.38,55Zm-1.32,3.87c0-2.75-1.45-4.35-2.6-4.35a2,2,0,0,0-1.58.68A5.15,5.15,0,0,0,141.81,59a5.84,5.84,0,0,0,.77,3.47,2.1,2.1,0,0,0,2,1.07C146.21,63.52,147.06,61.45,147.06,58.9Z"/><path class="cls-4" d="M155.58,68.67c0,1.45.21,1.55.7,1.55h.9a.18.18,0,0,1,.2.2V71c0,.15,0,.2-.25.2s-.95-.08-2.89-.08c-1.65,0-2.55.08-2.75.08s-.2-.05-.2-.2V70.4c0-.1.05-.18.15-.18h.9c.35,0,.5-.25.55-.65s.05-1.55.05-3.45V57.5a1.35,1.35,0,0,0-.85-1.5l-.55-.3c-.15-.1-.2-.15-.2-.25V55.2c0-.1,0-.15.2-.2l2.85-1.25a2,2,0,0,1,.69-.2c.13,0,.21.15.23.33l.17,1.22h.06a4.52,4.52,0,0,1,3.39-1.55,3.89,3.89,0,0,1,2.9,1.25,4.55,4.55,0,0,1,1.35,3.58c0,3.59-2.4,6.19-5.45,6.19a5.49,5.49,0,0,1-2.19-.45Zm0-7a1.51,1.51,0,0,0,.64,1.39,3,3,0,0,0,1.95.58c1.2,0,2.43-1,2.48-3.62,0-2.33-.8-5-2.93-5a2.67,2.67,0,0,0-2.14,1.1Z"/><path class="cls-4" d="M167.51,58.73c0,2.55,1.82,4,3.25,4a3.37,3.37,0,0,0,3-1.44c.1-.18.2-.18.3-.13l.38.22c.12.08.17.18,0,.5a4.94,4.94,0,0,1-4.55,2.65,4.34,4.34,0,0,1-3.6-1.35,5.64,5.64,0,0,1-1.4-4.12,5.19,5.19,0,0,1,1.22-3.7c1.05-1.35,2.18-1.85,4.35-1.85,2.85,0,3.78,3,3.78,4,0,.38-.25.4-.7.4h-6.05Zm3.1-1.68c.52,0,.82-.15.82-.35,0-.75-.25-2.22-1.55-2.22s-2,.9-2.3,2.57Z"/><path class="cls-4" d="M177.23,57.85c0-1.15-.2-1.55-.95-2l-.45-.25c-.15,0-.2-.1-.2-.2V55.3c0-.1.05-.15.2-.22l3-1.43a1.18,1.18,0,0,1,.4-.1c.15,0,.2.15.22.3l.23,1.8h.1c.85-1.4,1.9-2.25,3-2.25a1.22,1.22,0,0,1,1.29,1.25A1.44,1.44,0,0,1,182.76,56a1.93,1.93,0,0,1-.85-.2,1.15,1.15,0,0,0-.7-.2,1.3,1.3,0,0,0-1.05.73,2.84,2.84,0,0,0-.3,1.22v4.83c0,.79.2,1,.7,1h1.1c.15,0,.2,0,.2.18v.57c0,.13-.05.18-.18.18s-1.27-.08-3.1-.08-2.72.08-2.92.08-.18,0-.18-.18v-.54c0-.16.05-.21.23-.21h.87a.59.59,0,0,0,.65-.67Z"/><path class="cls-4" d="M190.63,63.05a4.87,4.87,0,0,1-2.18,1.35,5.36,5.36,0,0,1-1.6.17c-.92,0-1.72-.75-1.72-2.15,0-1.14.5-2.27,2.3-3.07a26.23,26.23,0,0,0,3-1.55V56.5a2.44,2.44,0,0,0-.4-1.4,1.69,1.69,0,0,0-1.25-.37,2.61,2.61,0,0,0-1.45.45c-.35.25-.1.62-.1,1.22a1.31,1.31,0,0,1-1.5,1.45.81.81,0,0,1-.85-.85,2.66,2.66,0,0,1,1.15-2,6.59,6.59,0,0,1,4-1.4,2.88,2.88,0,0,1,2.3.7,2.35,2.35,0,0,1,.6,1.88l.05,3.95v1.2c0,1.35.2,1.74.65,1.74a1,1,0,0,0,.8-.39c.1-.16.15-.16.25-.11l.3.2c.1.05.15.16,0,.41a2.52,2.52,0,0,1-2.3,1.44,2.06,2.06,0,0,1-2.1-1.52Zm-.15-4.32c-1.1.7-2.75,1.12-2.75,2.94,0,1,.55,1.53,1.15,1.53s1.6-.75,1.6-1.2Z"/><path class="cls-4" d="M195.85,55.23a.32.32,0,0,1-.35-.35c0-.2.15-.35.48-.48a10.52,10.52,0,0,0,3.42-3.15.41.41,0,0,1,.4-.25c.2,0,.3.15.3.35l-.1,2.48h3.3a.16.16,0,0,1,.18.2l-.25,1c0,.1-.1.15-.25.15h-3c0,1.05-.07,2.25-.07,3.35v2.25c0,1.94.82,2.34,1.32,2.34a3.55,3.55,0,0,0,1.45-.29c.18-.08.25-.08.3,0l.15.3a.3.3,0,0,1-.1.35,5.2,5.2,0,0,1-3.15,1,2.55,2.55,0,0,1-2.62-2.24c0-.91.07-2.9.07-3.85V55.23Z"/><path class="cls-4" d="M205.73,57.15c0-.75-.16-1.25-1.3-1.55-.23-.05-.25-.12-.25-.22V55.1c0-.1,0-.15.17-.2.35-.15,2.82-1,3.25-1.2a1.73,1.73,0,0,1,.6-.15c.15,0,.22.1.2.3-.05.4-.05,2-.05,4.08v2.7c0,.95,0,1.84.05,2.14s.15.65.4.65h1c.2,0,.25,0,.25.18v.5c0,.15-.05.25-.2.25s-1.35-.08-3-.08c-1.44,0-2.39.08-2.69.08-.13,0-.2,0-.2-.25v-.47c0-.16.09-.21.25-.21h1.09c.25,0,.41-.1.41-.5,0-.75,0-1.54,0-2.24Zm.64-6.87a1.61,1.61,0,0,1-1.69-1.55,1.7,1.7,0,0,1,1.84-1.55,1.53,1.53,0,0,1,1.65,1.45A1.64,1.64,0,0,1,206.37,50.28Z"/><path class="cls-4" d="M215.1,64.07c-.15-.25-1.95-4.47-2.2-5.09s-1.15-3-1.35-3.38c-.4-.7-.6-.9-1.05-.9H210c-.13,0-.18-.05-.18-.2V54c0-.15.05-.2.25-.2s.7.07,2.75.07c1.55,0,2.2-.07,2.5-.07s.25,0,.25.2v.47c0,.15,0,.25-.2.25H215c-.3,0-.55.15-.55.43a21.17,21.17,0,0,0,.85,2.9c.07.2,1.15,3,1.25,3.25h.15c.3-.7,1.8-4.3,2.15-5.48.2-.65-.1-1.1-.55-1.1h-.4c-.1,0-.15-.07-.15-.2V54c0-.12.05-.17.2-.17.3,0,.85.07,2.2.07,1.15,0,1.75-.07,1.95-.07s.25,0,.25.17v.55c0,.13,0,.2-.18.2h-.42a1.44,1.44,0,0,0-.95.28,27.89,27.89,0,0,0-2.1,4c-.33.67-2.2,5-2.33,5.19s-.32.53-.62.53S215.3,64.45,215.1,64.07Z"/><path class="cls-4" d="M225.12,58.73c0,2.55,1.83,4,3.25,4a3.4,3.4,0,0,0,3-1.44c.1-.18.2-.18.3-.13l.37.22c.13.08.18.18,0,.5a4.93,4.93,0,0,1-4.55,2.65,4.35,4.35,0,0,1-3.6-1.35,5.64,5.64,0,0,1-1.4-4.12,5.16,5.16,0,0,1,1.23-3.7c1.05-1.35,2.17-1.85,4.35-1.85,2.85,0,3.77,3,3.77,4,0,.38-.25.4-.7.4h-6Zm3.1-1.68c.53,0,.83-.15.83-.35,0-.75-.25-2.22-1.55-2.22s-2,.9-2.3,2.57Z"/><path class="cls-4" d="M241.07,53.38c0-.9,0-4-.07-4.38-.08-1.45-.48-1.5-1.43-1.5h-.8c-.15,0-.2,0-.2-.2v-.57c0-.15.05-.23.2-.23.35,0,1.55.1,3.65.08.8,0,2.3-.08,3.65-.08a10.1,10.1,0,0,1,4.4.68,3.48,3.48,0,0,1,1.9,3.4c0,2-1.05,3.2-3.4,4.07v.13c2.85.75,4.5,2.25,4.5,4.9a4.61,4.61,0,0,1-1.95,3.79c-1.05.6-2.65.88-5.45.88-1,0-2.65-.08-3.65-.08-1.95,0-3,.08-3.52.08a.18.18,0,0,1-.18-.2v-.63a.16.16,0,0,1,.18-.17H240c.75,0,.93-.3,1-1.07.05-.61.1-3.9.1-6Zm3.05,1c.4,0,.75,0,1.15,0a4.4,4.4,0,0,0,2.65-.72,3.62,3.62,0,0,0,1.3-2.95,3.11,3.11,0,0,0-1.1-2.55,5.21,5.21,0,0,0-2.85-.88,3.54,3.54,0,0,0-.75,0,.48.48,0,0,0-.32.4c0,.48-.08,2.63-.08,4.73Zm0,5.8c0,2.35.55,3.32,2.15,3.32,1.95,0,3.75-.92,3.75-4a3.88,3.88,0,0,0-2.4-3.9,7.37,7.37,0,0,0-2.85-.45h-.65v5Z"/><path class="cls-4" d="M261.37,63.05a4.89,4.89,0,0,1-2.17,1.35,5.39,5.39,0,0,1-1.6.17c-.93,0-1.73-.75-1.73-2.15,0-1.14.5-2.27,2.3-3.07a26.23,26.23,0,0,0,3.05-1.55V56.5a2.44,2.44,0,0,0-.4-1.4,1.69,1.69,0,0,0-1.25-.37,2.61,2.61,0,0,0-1.45.45c-.35.25-.1.62-.1,1.22a1.31,1.31,0,0,1-1.5,1.45.81.81,0,0,1-.85-.85,2.66,2.66,0,0,1,1.15-2,6.59,6.59,0,0,1,4.05-1.4,2.88,2.88,0,0,1,2.3.7,2.35,2.35,0,0,1,.6,1.88l.05,3.95v1.2c0,1.35.2,1.74.65,1.74a1,1,0,0,0,.8-.39c.1-.16.15-.16.25-.11l.3.2c.1.05.15.16.05.41a2.52,2.52,0,0,1-2.3,1.44,2.06,2.06,0,0,1-2.1-1.52Zm-.15-4.32c-1.1.7-2.75,1.12-2.75,2.94,0,1,.55,1.53,1.15,1.53s1.6-.75,1.6-1.2Z"/><path class="cls-4" d="M269.67,53.75a1.3,1.3,0,0,1,.5-.2q.22,0,.3.3l.2,1.3h.15a4.24,4.24,0,0,1,1.25-1,3.91,3.91,0,0,1,2-.6,3.46,3.46,0,0,1,2.2.6,2.82,2.82,0,0,1,1.37,2.58v3.6c0,.8,0,1.89,0,2.39s.3.7.6.7h.7c.22,0,.3,0,.3.18v.57c0,.13-.05.18-.2.18s-.95-.08-2.7-.08c-1.5,0-2.3.08-2.45.08s-.2-.1-.2-.3v-.42c0-.16.05-.21.3-.21h.5c.2,0,.4-.15.45-.59a19.43,19.43,0,0,0,.1-2.35V57.6c0-1,0-1.65-.65-2.15a1.92,1.92,0,0,0-1.5-.45,2.31,2.31,0,0,0-1.6.65,2.56,2.56,0,0,0-.52,1.78v5.15c0,.55.12.84.47.84h.45c.2,0,.25,0,.25.23v.45c0,.15-.05.25-.2.25s-.85-.08-2.35-.08-2.35.08-2.5.08-.15-.1-.15-.25v-.47c0-.16,0-.21.25-.21h.5c.3,0,.65-.1.65-.5V57.3a1.57,1.57,0,0,0-1.05-1.45l-.2-.1a.26.26,0,0,1-.2-.25v-.2c0-.1.1-.2.25-.25Z"/><path class="cls-4" d="M284.3,62.83c0,.39.2.59.5.59h.55c.2,0,.25,0,.25.23v.5a.18.18,0,0,1-.2.2c-.15,0-1-.08-2.4-.08-1.6,0-2.45.08-2.58.08s-.17-.1-.17-.25v-.47c0-.16.05-.21.25-.21h.65c.35,0,.5-.29.5-.59.05-.5.07-2.7.07-3.7l-.05-9c0-1-.07-1.45-1.32-1.8-.25-.1-.35-.15-.35-.2v-.35c0-.1.1-.2.35-.25.7-.15,2.8-1,3.15-1a2.52,2.52,0,0,1,.75-.25c.2,0,.22.1.2.4-.1,1.2-.15,4.9-.15,7.88v3.8a1.8,1.8,0,0,0,1-.3,25.06,25.06,0,0,0,2.3-2.5.94.94,0,0,0,.17-.45c0-.15-.17-.33-.47-.33h-.23c-.12,0-.17-.05-.17-.2V54a.18.18,0,0,1,.2-.2c.15,0,1,.07,2.5.07s2-.07,2.17-.07.17.1.17.27v.45c0,.15-.05.2-.2.2h-.25a3.65,3.65,0,0,0-1.55.43,35.36,35.36,0,0,0-3.24,2.75c.75.85,4.29,4.79,4.9,5.19a2.76,2.76,0,0,0,1.29.35c.15,0,.2,0,.2.23v.5c0,.15,0,.2-.25.2s-.9-.08-2.54-.08c-1.45,0-2.5.08-2.7.08s-.2,0-.2-.25v-.43c0-.15.05-.2.2-.2h.2a.25.25,0,0,0,.25-.34c-.05-.25-2.4-3.05-2.95-3.7a1.15,1.15,0,0,0-.8-.3Z"/></svg>