<?xml version="1.0" encoding="utf-8"?>
<!-- Generator: Adobe Illustrator 15.1.0, SVG Export Plug-In  -->
<!DOCTYPE svg PUBLIC "-//W3C//DTD SVG 1.1//EN" "http://www.w3.org/Graphics/SVG/1.1/DTD/svg11.dtd" [
	<!ENTITY ns_flows "http://ns.adobe.com/Flows/1.0/">
]>
<svg version="1.1"
	 xmlns="http://www.w3.org/2000/svg" xmlns:xlink="http://www.w3.org/1999/xlink" xmlns:a="http://ns.adobe.com/AdobeSVGViewerExtensions/3.0/"
	 x="0px" y="0px" width="173px" height="64px" viewBox="0 0 173 64" overflow="visible" enable-background="new 0 0 173 64"
	 xml:space="preserve">
<defs>
</defs>
<path fill="#A3A3A3" d="M0.006,13.711c0,0,18.294-5.208,22.292-6.057c3.998-0.848,16.113-2.907,16.113-2.907v22.774H0.006V13.711z"
	/>
<path fill="#A3A3A3" d="M45.56,27.521V3.898c0,0,23.14-4.24,40.949-3.876c17.81,0.363,41.798,3.876,41.798,3.876v23.622H45.56z"/>
<path fill="#A3A3A3" d="M134.85,27.399V4.383c0,0,10.056,1.575,18.172,3.634c8.117,2.059,19.506,5.451,19.506,5.451v14.052
	L134.85,27.399z"/>
<rect x="0.249" y="53.686" fill="#444E53" width="172.643" height="10.781"/>
<path fill="#FFFFFF" d="M15.883,59.942c-0.114,0.383-0.253,0.827-0.802,1.334c-0.497,0.453-1.316,0.967-2.886,0.967
	c-2.188,0-3.705-1.143-3.705-3.295c0-2.318,1.848-3.261,3.792-3.261c0.707,0,2.729,0.157,3.531,1.918l-1.691,0.21
	c-0.166-0.263-0.645-0.994-1.84-0.994c-1.395,0-2.188,0.967-2.188,2.145c0,1.342,1.055,2.145,2.223,2.145
	c1.334,0,1.744-0.785,1.944-1.16L15.883,59.942z"/>
<path fill="#FFFFFF" d="M22.909,55.879h4.237c0.697,0,1.333,0.061,1.848,0.654c0.314,0.365,0.401,0.827,0.401,1.186
	c0,0.47-0.157,1.027-0.593,1.359c-0.331,0.252-0.758,0.34-1.002,0.383l1.866,2.572h-1.813l-1.647-2.477h-1.753v2.477h-1.542V55.879z
	 M24.452,58.468h2.459c0.331,0,0.924-0.044,0.924-0.733c0-0.121-0.018-0.33-0.122-0.479c-0.114-0.148-0.262-0.297-0.872-0.297
	h-2.389V58.468z"/>
<path fill="#FFFFFF" d="M36.822,55.879h5.737v1.106h-4.193v1.386h4.054v1.09h-4.054v1.475h4.368v1.098h-5.911V55.879z"/>
<path fill="#FFFFFF" d="M50.203,55.879h3.365c0.227,0.009,0.454,0.009,0.68,0.035c1.796,0.165,2.686,1.42,2.686,3.008
	c0,0.705-0.174,1.402-0.602,1.969c-0.863,1.125-2.022,1.134-2.956,1.143h-3.173V55.879z M51.737,56.969v3.975h1.7
	c0.549-0.008,1.177-0.018,1.586-0.602c0.183-0.253,0.375-0.68,0.375-1.456c0-0.583-0.131-0.984-0.305-1.264
	c-0.401-0.637-1.046-0.646-1.578-0.653H51.737z"/>
<path fill="#FFFFFF" d="M64.317,55.879h1.543v6.154h-1.543V55.879z"/>
<path fill="#FFFFFF" d="M72.752,55.879h6.111v1.125H76.58v5.029h-1.543v-5.029h-2.284V55.879z"/>
<path fill="#FFFFFF" d="M97.5,55.879h1.535v3.617c0,0.549,0.113,1.012,0.697,1.291c0.497,0.234,0.941,0.217,1.395,0.199
	c0.584-0.051,0.959-0.209,1.203-0.487c0.148-0.175,0.279-0.376,0.262-0.994v-3.626h1.535v3.574
	c-0.009,0.653-0.009,1.272-0.532,1.848c-0.637,0.706-1.822,0.941-2.755,0.941c-0.436,0-0.872-0.044-1.3-0.148
	c-0.296-0.069-0.68-0.191-1.063-0.444c-0.968-0.653-0.977-1.465-0.977-2.196V55.879z"/>
<path fill="#FFFFFF" d="M113.209,55.879h1.534l3.017,3.426c0.366,0.428,0.437,0.514,0.82,0.994
	c-0.053-0.585-0.053-0.742-0.062-1.273v-3.146h1.474v6.154h-1.525l-3.052-3.47c-0.322-0.375-0.453-0.532-0.793-0.968
	c0.044,0.471,0.044,0.575,0.053,1.047v3.391h-1.465V55.879z"/>
<path fill="#FFFFFF" d="M129.094,55.879h1.543v6.154h-1.543V55.879z"/>
<path fill="#FFFFFF" d="M146.109,56.881c0.253,0.306,0.663,0.985,0.663,2.014c0,1.961-1.273,3.338-3.758,3.338
	s-3.802-1.35-3.802-3.268c0-2.118,1.517-3.191,3.54-3.278C143.964,55.635,145.341,55.95,146.109,56.881z M140.799,59
	c0,0.749,0.279,1.142,0.393,1.29c0.148,0.21,0.602,0.846,1.795,0.846c1.439,0,2.207-0.976,2.207-2.162
	c0-1.377-1.037-2.223-2.268-2.179C141.898,56.829,140.799,57.509,140.799,59z"/>
<path fill="#FFFFFF" d="M155.368,55.879h1.534l3.017,3.426c0.365,0.428,0.436,0.514,0.82,0.994
	c-0.054-0.585-0.054-0.742-0.062-1.273v-3.146h1.474v6.154h-1.525l-3.052-3.47c-0.322-0.375-0.453-0.532-0.793-0.968
	c0.044,0.471,0.044,0.575,0.053,1.047v3.391h-1.465V55.879z"/>
<path fill="#055C45" d="M0,31.435h13.605c1.126,0.026,2.666,0.051,3.792,0.944c1.172,0.944,1.378,2.474,1.378,3.291
	c0,2.244-1.149,3.494-3.125,4.03c0.965,0.152,2.138,0.357,3.034,1.402c0.689,0.816,0.92,1.734,0.92,3.01
	c0,2.5-1.311,3.98-2.919,4.669c-1.356,0.561-2.941,0.663-4.206,0.663H0V31.435z M5.814,45.336h5.883
	c0.574,0,0.988-0.025,1.241-0.152c0.758-0.307,0.896-0.943,0.896-1.557c0-0.688-0.299-1.147-0.781-1.301
	C12.686,42.2,12.295,42.2,11.583,42.2H5.814V45.336z M5.837,38.297h5.447c0.873,0,1.057-0.077,1.218-0.154
	c0.437-0.178,0.712-0.611,0.712-1.301c0-0.51-0.207-0.918-0.735-1.173c-0.23-0.128-0.62-0.153-1.172-0.153h-5.47V38.297z"/>
<path fill="#055C45" d="M26.037,38.067c0.414-0.715,0.988-1.301,1.678-1.709c1.011-0.612,1.838-0.663,2.528-0.688V41
	c-0.414-0.051-0.827-0.102-1.287-0.102c-1.448,0-2.022,0.356-2.367,0.713c-0.528,0.537-0.551,1.174-0.574,1.787v6.045h-5.401v-13.52
	h5.424V38.067z"/>
<path fill="#055C45" d="M47.903,42.659c0,4.77-3.976,7.143-9.009,7.143c-4.275,0-9.009-1.785-9.009-7.092
	c0-5.076,4.297-7.065,8.618-7.143C45.65,35.465,47.903,39.241,47.903,42.659z M35.492,42.608c0,2.729,1.907,3.545,3.516,3.545
	c1.103,0,3.31-0.611,3.31-3.545c0-2.22-1.379-3.572-3.654-3.495C36.228,39.19,35.492,41.102,35.492,42.608z"/>
<path fill="#055C45" d="M54.449,36.486h1.977v3.494h-1.954v4.438c0.046,1.199,0.575,1.199,1.977,1.199v3.826h-3.471
	c-1.77-0.051-2.712-0.179-3.425-0.944c-0.528-0.739-0.505-1.428-0.528-2.116l0.023-0.918l0.069-5.485h-1.7v-3.494h1.747l0.046-4.566
	h5.24V36.486z"/>
<path fill="#055C45" d="M62.876,31.435v6.173c0.804-0.791,2.091-2.117,5.01-2.117c2.207,0,4.114,0.918,4.987,2.092
	c0.919,1.275,0.919,3.01,0.919,4.336v7.525h-5.401v-6.556c0-0.688,0-1.429-0.253-2.015c-0.275-0.613-1.034-1.378-2.344-1.378
	c-0.575,0-1.149,0.076-1.632,0.383c-1.264,0.765-1.31,2.193-1.355,3.417v6.148h-5.355V31.435H62.876z"/>
<path fill="#055C45" d="M80.183,43.526c0.437,2.373,2.344,2.883,3.378,2.883c0.644,0,1.218-0.179,1.609-0.357
	c0.575-0.256,0.804-0.51,1.125-0.867l5.654,0.307c-0.299,0.611-0.896,1.887-2.574,2.908c-2.115,1.273-5.01,1.428-6.067,1.428
	c-1.609,0-3.218-0.229-4.712-0.893c-2.344-1.047-4.022-3.139-4.022-6.301c0-1.786,0.575-3.189,1.218-4.082
	c2.068-2.934,5.723-3.01,7.538-3.01c2.459,0,5.24,0.383,7.125,2.525c1.701,1.913,1.77,3.953,1.816,5.459H80.183z M86.572,41.178
	c-0.184-0.51-0.299-0.893-0.874-1.428c-0.735-0.663-1.654-0.766-2.229-0.766c-2.298,0-2.873,1.582-3.103,2.193H86.572z"/>
<path fill="#055C45" d="M98.344,38.067c0.414-0.715,0.989-1.301,1.678-1.709c1.011-0.612,1.838-0.663,2.528-0.688V41
	c-0.414-0.051-0.827-0.102-1.287-0.102c-1.448,0-2.022,0.356-2.367,0.713c-0.529,0.537-0.552,1.174-0.575,1.787v6.045h-5.4v-13.52
	h5.423V38.067z"/>
<path fill="#055C45" d="M108.305,31.435v6.173c0.805-0.791,2.092-2.117,5.01-2.117c2.207,0,4.115,0.918,4.988,2.092
	c0.919,1.275,0.919,3.01,0.919,4.336v7.525h-5.401v-6.556c0-0.688,0-1.429-0.252-2.015c-0.275-0.613-1.035-1.378-2.345-1.378
	c-0.574,0-1.148,0.076-1.632,0.383c-1.264,0.765-1.311,2.193-1.355,3.417v6.148h-5.355V31.435H108.305z"/>
<path fill="#055C45" d="M138.01,42.659c0,4.77-3.975,7.143-9.009,7.143c-4.274,0-9.009-1.785-9.009-7.092
	c0-5.076,4.297-7.065,8.619-7.143C135.758,35.465,138.01,39.241,138.01,42.659z M125.6,42.608c0,2.729,1.908,3.545,3.517,3.545
	c1.103,0,3.31-0.611,3.31-3.545c0-2.22-1.379-3.572-3.654-3.495C126.336,39.19,125.6,41.102,125.6,42.608z"/>
<path fill="#055C45" d="M156.122,42.659c0,4.77-3.976,7.143-9.01,7.143c-4.273,0-9.009-1.785-9.009-7.092
	c0-5.076,4.298-7.065,8.618-7.143C153.87,35.465,156.122,39.241,156.122,42.659z M143.711,42.608c0,2.729,1.906,3.545,3.516,3.545
	c1.104,0,3.309-0.611,3.309-3.545c0-2.22-1.378-3.572-3.652-3.495C144.446,39.19,143.711,41.102,143.711,42.608z"/>
<path fill="#055C45" d="M172.752,31.409v18.035h-5.4v-1.326c-0.461,0.382-0.875,0.715-1.794,1.071
	c-0.873,0.356-1.815,0.561-2.804,0.561c-3.838,0-6.458-2.882-6.458-7.015c0-3.775,2.274-7.244,6.527-7.244
	c2.459,0,3.677,1.046,4.528,1.785v-5.867H172.752z M161.698,42.608c0,2.168,1.379,3.162,2.803,3.162
	c1.725,0,2.852-1.377,2.852-3.162c0-1.557-0.852-3.036-2.805-3.036C162.824,39.572,161.698,40.694,161.698,42.608z"/>
</svg>
