<svg width="235" height="57" viewBox="0 0 235 57" fill="none" xmlns="http://www.w3.org/2000/svg">
<path d="M41.822 43.5303C41.7432 43.1824 41.596 42.8537 41.389 42.5633C41.1717 42.2583 40.903 41.9933 40.595 41.7803C40.2598 41.55 39.8907 41.3735 39.501 41.2573C39.0706 41.1282 38.6233 41.0642 38.174 41.0673C37.5506 41.0586 36.9313 41.17 36.35 41.3953C35.8142 41.6039 35.3348 41.9351 34.95 42.3623C34.5439 42.8268 34.2409 43.3721 34.061 43.9623C33.8408 44.6833 33.7355 45.4345 33.749 46.1883C33.7362 46.9453 33.8415 47.6997 34.061 48.4243C34.2421 49.0209 34.5448 49.5735 34.95 50.0473C35.3289 50.4809 35.8029 50.821 36.335 51.0413C36.9064 51.273 37.5184 51.3879 38.135 51.3793C39.0093 51.415 39.8734 51.1807 40.61 50.7083C40.9344 50.4813 41.2087 50.1901 41.416 49.8528C41.6233 49.5155 41.7591 49.1392 41.815 48.7473H42.692C42.6183 49.2682 42.4426 49.7694 42.175 50.2223C41.9215 50.6479 41.5872 51.0199 41.191 51.3173C40.78 51.6211 40.3186 51.8499 39.828 51.9933C39.2854 52.1525 38.7224 52.231 38.157 52.2263C37.4002 52.2383 36.6493 52.0925 35.952 51.7983C35.3168 51.5217 34.7507 51.1082 34.294 50.5873C33.8167 50.032 33.4571 49.3856 33.237 48.6873C32.9809 47.8791 32.8564 47.035 32.868 46.1873C32.8559 45.3477 32.9805 44.5118 33.237 43.7123C33.4601 43.0209 33.8218 42.3822 34.3 41.8353C34.7609 41.3178 35.3314 40.9096 35.97 40.6403C36.6655 40.3539 37.4119 40.212 38.164 40.2233C38.7041 40.2204 39.2413 40.3024 39.756 40.4663C40.2421 40.6198 40.7006 40.85 41.114 41.1483C41.5106 41.4357 41.854 41.79 42.129 42.1953C42.4035 42.6003 42.5971 43.0547 42.699 43.5333L41.822 43.5303Z" fill="#00789B"/>
<path d="M48.2592 43.6058C48.7777 43.5986 49.2923 43.6977 49.7712 43.8968C50.2155 44.0858 50.6099 44.3754 50.9232 44.7428C51.2558 45.1395 51.5039 45.5999 51.6522 46.0958C51.9938 47.2824 51.9938 48.5413 51.6522 49.7278C51.5003 50.225 51.2504 50.6868 50.9172 51.0858C50.6039 51.4533 50.2095 51.7429 49.7652 51.9318C49.2905 52.1308 48.7798 52.2299 48.2652 52.2228C47.751 52.2305 47.2407 52.1335 46.7652 51.9378C46.3225 51.7512 45.9299 51.4632 45.6192 51.0968C45.2856 50.6971 45.0338 50.2357 44.8782 49.7388C44.5302 48.546 44.5302 47.2786 44.8782 46.0858C45.0302 45.5914 45.2802 45.1327 45.6132 44.7368C45.928 44.3726 46.3221 44.0852 46.7652 43.8968C47.24 43.6984 47.7505 43.5994 48.2652 43.6058M48.2652 51.3768C48.6549 51.3818 49.0417 51.308 49.4022 51.1598C49.7446 51.0147 50.0474 50.7898 50.2852 50.5038C50.5469 50.1822 50.7426 49.8122 50.8612 49.4148C51.1354 48.4255 51.1354 47.3802 50.8612 46.3908C50.7439 45.996 50.548 45.629 50.2852 45.3118C50.0449 45.0312 49.7426 44.8104 49.4022 44.6668C49.0417 44.5186 48.6549 44.4448 48.2652 44.4498C47.8718 44.4443 47.4814 44.5181 47.1172 44.6668C46.7771 44.8104 46.4751 45.0312 46.2352 45.3118C45.9718 45.6278 45.7773 45.9953 45.6642 46.3908C45.3963 47.381 45.3963 48.4246 45.6642 49.4148C45.7786 49.8128 45.9729 50.1834 46.2352 50.5038C46.4726 50.7898 46.775 51.0147 47.1172 51.1598C47.4814 51.3086 47.8718 51.3824 48.2652 51.3768Z" fill="#00789B"/>
<path d="M57.2435 43.6058C57.7621 43.5986 58.2767 43.6977 58.7555 43.8968C59.1999 44.0858 59.5943 44.3754 59.9075 44.7428C60.2402 45.1395 60.4882 45.5999 60.6365 46.0958C60.9782 47.2824 60.9782 48.5413 60.6365 49.7278C60.4847 50.225 60.2348 50.6868 59.9015 51.0858C59.5883 51.4533 59.1939 51.7429 58.7495 51.9318C58.2748 52.1308 57.7642 52.2299 57.2495 52.2228C56.7354 52.2305 56.2251 52.1335 55.7495 51.9378C55.3069 51.7512 54.9143 51.4632 54.6035 51.0968C54.2699 50.6971 54.0182 50.2357 53.8625 49.7388C53.5146 48.546 53.5146 47.2786 53.8625 46.0858C54.0146 45.5914 54.2646 45.1327 54.5975 44.7368C54.9124 44.3726 55.3065 44.0852 55.7495 43.8968C56.2244 43.6984 56.7349 43.5994 57.2495 43.6058M57.2495 51.3768C57.6393 51.3818 58.026 51.308 58.3865 51.1598C58.729 51.0147 59.0318 50.7898 59.2695 50.5038C59.5312 50.1822 59.727 49.8122 59.8455 49.4148C60.1197 48.4255 60.1197 47.3802 59.8455 46.3908C59.7283 45.996 59.5323 45.629 59.2695 45.3118C59.0293 45.0312 58.7269 44.8104 58.3865 44.6668C58.026 44.5186 57.6393 44.4448 57.2495 44.4498C56.8562 44.4443 56.4657 44.5181 56.1015 44.6668C55.7614 44.8104 55.4594 45.0312 55.2195 45.3118C54.9562 45.6278 54.7617 45.9953 54.6485 46.3908C54.3807 47.381 54.3807 48.4246 54.6485 49.4148C54.763 49.8128 54.9572 50.1834 55.2195 50.5038C55.4569 50.7898 55.7594 51.0147 56.1015 51.1598C56.4657 51.3086 56.8562 51.3824 57.2495 51.3768Z" fill="#00789B"/>
<path d="M63.9087 45.0323C64.1375 44.7463 64.3982 44.4872 64.6857 44.2603C64.9083 44.0867 65.1515 43.9413 65.4097 43.8273C65.6237 43.7335 65.8494 43.6693 66.0807 43.6363C66.2889 43.6089 66.4987 43.5949 66.7087 43.5943C67.1779 43.5853 67.6423 43.6907 68.0617 43.9013C68.4567 44.1053 68.7974 44.4004 69.0557 44.7623C69.3403 45.1672 69.5487 45.6206 69.6707 46.1003C69.8173 46.6668 69.8886 47.2501 69.8827 47.8353C69.8909 48.4487 69.8066 49.0599 69.6327 49.6483C69.4893 50.146 69.2569 50.6135 68.9467 51.0283C68.6703 51.3951 68.3166 51.6965 67.9107 51.9113C67.5095 52.1203 67.0631 52.2275 66.6107 52.2233C66.4107 52.2233 66.2107 52.2153 65.9967 52.1973C65.7738 52.1775 65.5539 52.1332 65.3407 52.0653C65.0966 51.9872 64.8619 51.8826 64.6407 51.7533C64.3743 51.5962 64.1261 51.4101 63.9007 51.1983V55.0253H63.0547V43.8163H63.9007L63.9087 45.0323ZM63.9087 50.1703C64.2357 50.545 64.6385 50.8462 65.0905 51.0539C65.5425 51.2616 66.0333 51.3711 66.5307 51.3753C66.887 51.3807 67.2397 51.303 67.5607 51.1483C67.8738 50.992 68.1439 50.7617 68.3477 50.4773C68.5856 50.1441 68.758 49.7688 68.8557 49.3713C68.9846 48.8694 69.0459 48.3524 69.0377 47.8343C69.0979 46.9452 68.8734 46.0601 68.3967 45.3073C68.1901 45.0276 67.9178 44.8031 67.6039 44.6536C67.2899 44.5042 66.944 44.4343 66.5967 44.4503C66.0484 44.4785 65.5157 44.643 65.0471 44.9291C64.5784 45.2151 64.1885 45.6135 63.9127 46.0883L63.9087 50.1703Z" fill="#00789B"/>
<path d="M75.3769 52.2228C74.8447 52.2302 74.3163 52.1313 73.8229 51.9318C73.3645 51.7433 72.9544 51.4542 72.6229 51.0858C72.2739 50.6909 72.0095 50.2288 71.8459 49.7278C71.4822 48.5484 71.4784 47.2874 71.8349 46.1058C71.9923 45.6092 72.2477 45.1491 72.5859 44.7528C72.9031 44.3885 73.2963 44.098 73.7379 43.9018C74.2048 43.6984 74.7096 43.5962 75.2189 43.6018C75.7382 43.5956 76.2532 43.6978 76.7309 43.9018C77.1745 44.0943 77.5685 44.3853 77.8829 44.7528C78.214 45.1505 78.4619 45.6106 78.6119 46.1058C78.7885 46.6892 78.8742 47.2963 78.8659 47.9058V48.0958H72.4189C72.4481 48.5911 72.5513 49.0791 72.7249 49.5438C72.8678 49.9221 73.0836 50.2686 73.3599 50.5638C73.612 50.8298 73.9192 51.0377 74.2599 51.1728C74.6161 51.3088 74.9946 51.3766 75.3759 51.3728C75.6608 51.3728 75.9448 51.3392 76.2219 51.2728C76.4907 51.2113 76.7488 51.1102 76.9879 50.9728C77.2096 50.8438 77.405 50.6742 77.5639 50.4728C77.718 50.278 77.8131 50.043 77.8379 49.7958H78.6769C78.5423 50.5186 78.1325 51.161 77.5339 51.5878C77.2358 51.8002 76.9032 51.9592 76.5509 52.0578C76.1693 52.1658 75.7744 52.2193 75.3779 52.2168M78.0099 47.2468C77.9377 46.4589 77.6007 45.7186 77.0539 45.1468C76.5582 44.681 75.8988 44.4295 75.2189 44.4468C74.8782 44.4445 74.5397 44.5021 74.2189 44.6168C73.9089 44.7288 73.6261 44.905 73.3889 45.1338C73.132 45.3863 72.9239 45.684 72.7749 46.0118C72.5969 46.4046 72.4776 46.8214 72.4209 47.2488L78.0099 47.2468Z" fill="#00789B"/>
<path d="M84.8425 44.4725C84.7587 44.4573 84.6737 44.45 84.5885 44.4505H84.2795C84.0384 44.4504 83.7999 44.5008 83.5795 44.5985C83.3494 44.7 83.1327 44.8296 82.9345 44.9845C82.7276 45.1461 82.5364 45.3269 82.3635 45.5245C82.1939 45.7167 82.0417 45.9235 81.9085 46.1425V52.0105H81.0625V43.8175H81.9085V44.9495C82.1204 44.6942 82.3602 44.4634 82.6235 44.2615C82.8365 44.0988 83.0669 43.9603 83.3105 43.8485C83.5142 43.7554 83.7295 43.6898 83.9505 43.6535C84.136 43.6228 84.3235 43.6068 84.5115 43.6055C84.5665 43.6055 84.6195 43.6055 84.6695 43.6115C84.7195 43.6175 84.7755 43.6195 84.8395 43.6275L84.8425 44.4725Z" fill="#00789B"/>
<path d="M91.8168 50.9512C91.5538 51.1853 91.2707 51.3958 90.9708 51.5801C90.7149 51.7366 90.4443 51.8675 90.1628 51.9712C89.9078 52.065 89.6437 52.132 89.3748 52.1711C89.1119 52.2064 88.847 52.2241 88.5818 52.2242C88.2415 52.2264 87.9033 52.1706 87.5818 52.0591C87.2871 51.9588 87.0152 51.8011 86.7818 51.5951C86.5541 51.3924 86.3721 51.1435 86.2478 50.8651C86.1129 50.5682 86.0447 50.2453 86.0478 49.9192C86.0358 49.4807 86.1406 49.0469 86.3515 48.6622C86.5623 48.2775 86.8717 47.9559 87.2478 47.7302C88.3506 47.1366 89.5982 46.8656 90.8478 46.9481H91.8168C91.8183 46.6157 91.7969 46.2836 91.7528 45.9542C91.7174 45.6712 91.6145 45.401 91.4528 45.1662C91.279 44.9292 91.0405 44.7476 90.7658 44.6431C90.3696 44.5006 89.9495 44.4361 89.5288 44.4532C88.9307 44.4142 88.3333 44.5379 87.7998 44.8112C87.6104 44.9286 87.4504 45.088 87.3322 45.2769C87.2139 45.4659 87.1406 45.6794 87.1178 45.9011H86.2818C86.2989 45.5643 86.389 45.2352 86.546 44.9366C86.703 44.638 86.923 44.3772 87.1908 44.1722C87.8895 43.7479 88.7024 43.5506 89.5178 43.6072C90.0105 43.5954 90.5018 43.6667 90.9708 43.8182C91.3392 43.9403 91.6729 44.1492 91.9438 44.4271C92.1992 44.6995 92.3857 45.029 92.4878 45.3882C92.6061 45.8026 92.6633 46.2322 92.6578 46.6631V52.0132H91.8168V50.9512ZM91.8168 47.7901H90.5388C89.5942 47.7305 88.6499 47.9122 87.7948 48.3182C87.5185 48.4609 87.2877 48.6782 87.1286 48.9455C86.9695 49.2127 86.8885 49.5192 86.8948 49.8301C86.8859 50.0525 86.9336 50.2735 87.0335 50.4724C87.1334 50.6712 87.2821 50.8415 87.4658 50.9672C87.9323 51.2627 88.4795 51.405 89.0308 51.3742C89.316 51.375 89.5995 51.3308 89.8708 51.2432C90.1383 51.1562 90.3958 51.0409 90.6388 50.8991C90.8722 50.7622 91.0931 50.605 91.2988 50.4292C91.4829 50.273 91.6576 50.1061 91.8218 49.9292L91.8168 47.7901Z" fill="#00789B"/>
<path d="M98.1157 52.0859C97.9957 52.0999 97.8767 52.1109 97.7557 52.1169C97.6347 52.1229 97.5167 52.1279 97.3957 52.1279C97.0939 52.1398 96.7929 52.0876 96.5127 51.9749C96.2989 51.8795 96.1215 51.7178 96.0067 51.5139C95.88 51.2765 95.8028 51.0159 95.7797 50.7479C95.7414 50.3915 95.7237 50.0333 95.7267 49.6749V44.6639H94.6797V43.8179H95.7267V41.6719H96.5727V43.8179H97.9157V44.6639H96.5717V49.7499C96.5649 50.0211 96.5894 50.2922 96.6447 50.5579C96.6797 50.7292 96.7562 50.8892 96.8677 51.0239C96.9634 51.1317 97.0915 51.2057 97.2327 51.2349C97.3944 51.2689 97.5594 51.285 97.7247 51.2829H97.9247C97.9882 51.2824 98.0516 51.2787 98.1147 51.2719L98.1157 52.0859Z" fill="#00789B"/>
<path d="M100.869 52.0106H100.023V43.8166H100.869V52.0106ZM100.876 41.7556H100.03V40.4336H100.876V41.7556Z" fill="#00789B"/>
<path d="M109.784 43.8164L106.675 52.0114H105.914L102.805 43.8164H103.662L106.295 50.8474L108.938 43.8164H109.784Z" fill="#00789B"/>
<path d="M114.986 52.2228C114.454 52.2302 113.926 52.1313 113.432 51.9318C112.974 51.7433 112.564 51.4542 112.232 51.0858C111.883 50.6909 111.619 50.2288 111.455 49.7278C111.092 48.5484 111.088 47.2874 111.444 46.1058C111.602 45.6092 111.857 45.1491 112.195 44.7528C112.513 44.3885 112.906 44.098 113.347 43.9018C113.814 43.6984 114.319 43.5962 114.828 43.6018C115.348 43.5956 115.863 43.6978 116.34 43.9018C116.784 44.0943 117.178 44.3853 117.492 44.7528C117.823 45.1505 118.071 45.6106 118.221 46.1058C118.398 46.6892 118.484 47.2963 118.475 47.9058V48.0958H112.026C112.055 48.5911 112.159 49.0791 112.332 49.5438C112.475 49.9221 112.691 50.2686 112.967 50.5638C113.219 50.8298 113.527 51.0377 113.867 51.1728C114.223 51.3088 114.602 51.3766 114.983 51.3728C115.268 51.3728 115.552 51.3392 115.829 51.2728C116.098 51.2113 116.356 51.1102 116.595 50.9728C116.817 50.8438 117.012 50.6742 117.171 50.4728C117.325 50.278 117.42 50.043 117.445 49.7958H118.281C118.147 50.5186 117.737 51.161 117.138 51.5878C116.84 51.8002 116.508 51.9592 116.155 52.0578C115.774 52.1658 115.379 52.2193 114.982 52.2168M117.614 47.2468C117.542 46.4589 117.205 45.7186 116.658 45.1468C116.163 44.681 115.503 44.4295 114.823 44.4468C114.483 44.4445 114.144 44.5021 113.823 44.6168C113.513 44.7288 113.23 44.905 112.993 45.1338C112.736 45.3863 112.528 45.684 112.379 46.0118C112.201 46.4046 112.082 46.8214 112.025 47.2488L117.614 47.2468Z" fill="#00789B"/>
<path d="M134.527 48.7632C134.554 49.2205 134.472 49.6778 134.287 50.0971C134.103 50.5163 133.821 50.8856 133.465 51.1742C132.545 51.7924 131.446 52.0862 130.341 52.0092H126.133V40.4312H130.319C131.256 40.3712 132.189 40.6017 132.99 41.0912C133.307 41.3382 133.558 41.6605 133.72 42.029C133.881 42.3974 133.948 42.8003 133.915 43.2012C133.914 43.4797 133.887 43.7575 133.836 44.0312C133.785 44.3124 133.686 44.5829 133.545 44.8312C133.396 45.0876 133.199 45.3124 132.964 45.4932C132.682 45.7025 132.357 45.8451 132.012 45.9102C132.467 45.935 132.912 46.0557 133.317 46.2642C133.62 46.4296 133.88 46.6631 134.078 46.9462C134.257 47.2129 134.379 47.5134 134.438 47.8292C134.496 48.1379 134.526 48.4511 134.527 48.7652M126.979 45.5212H130.085C130.875 45.5772 131.665 45.4035 132.359 45.0212C132.612 44.8276 132.812 44.5726 132.94 44.2802C133.068 43.9878 133.118 43.6677 133.088 43.3502C133.11 43.0534 133.061 42.7555 132.943 42.4821C132.825 42.2087 132.643 41.9678 132.412 41.7802C131.761 41.3854 131.003 41.2055 130.244 41.2662L126.977 41.2772L126.979 45.5212ZM126.979 51.1672H130.331C132.517 51.1672 133.609 50.3672 133.609 48.7672C133.617 48.4003 133.559 48.0349 133.439 47.6882C133.328 47.3868 133.127 47.1267 132.863 46.9432C132.537 46.727 132.17 46.5793 131.785 46.5092C131.229 46.4047 130.664 46.3571 130.098 46.3672H126.979V51.1672Z" fill="#00789B"/>
<path d="M142.301 50.9512C142.038 51.1853 141.755 51.3958 141.455 51.5801C141.199 51.7366 140.929 51.8675 140.647 51.9712C140.392 52.065 140.128 52.132 139.859 52.1711C139.596 52.2064 139.331 52.2241 139.066 52.2242C138.726 52.2264 138.388 52.1706 138.066 52.0591C137.771 51.9588 137.5 51.8011 137.266 51.5951C137.038 51.3924 136.856 51.1435 136.732 50.8651C136.597 50.5682 136.529 50.2453 136.532 49.9192C136.52 49.4807 136.625 49.0469 136.836 48.6622C137.047 48.2775 137.356 47.9559 137.732 47.7302C138.835 47.1366 140.083 46.8656 141.332 46.9481H142.305C142.307 46.6157 142.285 46.2836 142.241 45.9542C142.206 45.6712 142.103 45.401 141.941 45.1662C141.767 44.9292 141.529 44.7476 141.254 44.6431C140.858 44.5006 140.438 44.4361 140.017 44.4532C139.419 44.4142 138.822 44.5379 138.288 44.8112C138.099 44.9286 137.939 45.088 137.821 45.2769C137.702 45.4659 137.629 45.6794 137.606 45.9011H136.77C136.787 45.5643 136.877 45.2352 137.034 44.9366C137.191 44.638 137.411 44.3772 137.679 44.1722C138.378 43.7479 139.191 43.5506 140.006 43.6072C140.499 43.5954 140.99 43.6667 141.459 43.8182C141.828 43.9403 142.161 44.1492 142.432 44.4271C142.688 44.6995 142.874 45.029 142.976 45.3882C143.094 45.8026 143.152 46.2322 143.146 46.6631V52.0132H142.3L142.301 50.9512ZM142.301 47.7901H141.022C140.078 47.7305 139.133 47.9122 138.278 48.3182C138.002 48.4609 137.771 48.6782 137.612 48.9455C137.453 49.2127 137.372 49.5192 137.378 49.8301C137.369 50.0525 137.417 50.2735 137.517 50.4724C137.617 50.6712 137.766 50.8415 137.949 50.9672C138.416 51.2627 138.963 51.405 139.514 51.3742C139.799 51.375 140.083 51.3308 140.354 51.2432C140.622 51.1562 140.879 51.0409 141.122 50.8991C141.356 50.7622 141.576 50.605 141.782 50.4292C141.966 50.273 142.141 50.1061 142.305 49.9292L142.301 47.7901Z" fill="#00789B"/>
<path d="M146.731 45.0325C146.969 44.744 147.24 44.4849 147.539 44.2605C147.777 44.0849 148.037 43.9395 148.311 43.8275C148.539 43.7348 148.779 43.6725 149.024 43.6425C149.235 43.619 149.447 43.6066 149.659 43.6055C151.343 43.6055 152.185 44.5995 152.185 46.5875V52.0115H151.339V46.6585C151.344 46.326 151.31 45.9942 151.239 45.6695C151.185 45.4177 151.072 45.1821 150.911 44.9815C150.752 44.7984 150.548 44.6604 150.319 44.5815C150.031 44.4869 149.728 44.4426 149.425 44.4505C148.939 44.4563 148.465 44.5988 148.056 44.8615C147.558 45.1804 147.11 45.5725 146.729 46.0245V52.0095H145.883V43.8165H146.729L146.731 45.0325Z" fill="#00789B"/>
<path d="M161.158 52.0116H160.101L157.12 47.3906L155.776 48.7016V52.0106H154.93V40.4336H155.776V47.6336L159.71 43.7956H160.81L157.7 46.8236L161.158 52.0116Z" fill="#00789B"/>
<path d="M10.4153 34.8065C8.96625 34.8246 7.52592 34.5796 6.16431 34.0835C4.939 33.6368 3.81778 32.9446 2.86931 32.0495C1.94155 31.1571 1.21768 30.0747 0.747313 28.8765C0.235934 27.5597 -0.017336 26.1569 0.00131325 24.7445C-0.0207969 23.3333 0.236475 21.9318 0.758313 20.6205C1.23559 19.4404 1.95861 18.3755 2.87931 17.4965C3.81555 16.6156 4.92373 15.9378 6.13431 15.5055C7.47582 15.0262 8.89185 14.7892 10.3163 14.8055C11.4437 14.7984 12.5674 14.9328 13.6613 15.2055C14.6342 15.4435 15.5668 15.8233 16.4293 16.3325C17.2022 16.7876 17.8837 17.3824 18.4393 18.0865C18.9667 18.7549 19.3421 19.5302 19.5393 20.3585H17.8233C17.7051 19.7711 17.441 19.223 17.0553 18.7645C16.6127 18.2331 16.0761 17.7877 15.4723 17.4505C14.7597 17.0495 13.9961 16.7467 13.2023 16.5505C12.2712 16.3197 11.3146 16.2074 10.3553 16.2165C9.16646 16.2035 7.98371 16.388 6.85531 16.7625C5.82757 17.0971 4.88793 17.6579 4.10553 18.4036C3.32313 19.1493 2.71788 20.061 2.33431 21.0715C1.89022 22.2444 1.67435 23.4915 1.69831 24.7455C1.67674 25.9993 1.89253 27.2459 2.33431 28.4195C2.72634 29.4443 3.33446 30.3727 4.11731 31.1415C4.90118 31.8941 5.83863 32.4683 6.86531 32.8245C8.00161 33.2172 9.19713 33.411 10.3993 33.3975C12.0139 33.4356 13.6175 33.1228 15.0993 32.4805C16.3948 31.8941 17.5441 31.0276 18.4643 29.9435V26.4705H12.4463V25.0605H20.0523V34.4535H19.1373L18.4373 31.8805C17.946 32.4114 17.3833 32.8714 16.7653 33.2475C16.1535 33.6175 15.503 33.9194 14.8253 34.1475C14.1282 34.3785 13.4116 34.5458 12.6843 34.6475C11.9323 34.754 11.1748 34.8071 10.4153 34.8065Z" fill="#003D74"/>
<path d="M40.629 34.4566H39.229L37.493 30.3566C37.3277 29.9738 37.138 29.602 36.925 29.2436C36.7283 28.9079 36.4848 28.6018 36.202 28.3346C35.9091 28.0559 35.5639 27.8382 35.1862 27.694C34.8086 27.5498 34.406 27.482 34.002 27.4946H27.897V34.4596H26.625V19.0196H34.478C35.1907 19.0176 35.9023 19.0765 36.605 19.1956C37.2473 19.2992 37.8671 19.5116 38.438 19.8236C38.9681 20.1186 39.4105 20.5489 39.72 21.0706C40.0609 21.6941 40.2258 22.3986 40.197 23.1086C40.2016 23.5985 40.1291 24.0862 39.982 24.5536C39.8438 24.992 39.6221 25.3995 39.329 25.7536C39.0176 26.121 38.6396 26.4263 38.215 26.6536C37.719 26.9188 37.1835 27.1021 36.629 27.1966C36.9172 27.3896 37.1889 27.6063 37.441 27.8446C37.6477 28.0451 37.8321 28.2674 37.991 28.5076C38.1516 28.7535 38.2901 29.0132 38.405 29.2836C38.526 29.5646 38.668 29.8896 38.827 30.2556L40.629 34.4566ZM27.897 26.3636H33.949C34.6913 26.3729 35.4329 26.316 36.165 26.1936C36.7036 26.1095 37.2205 25.9203 37.686 25.6366C38.0714 25.393 38.3784 25.0433 38.57 24.6296C38.7736 24.1483 38.8712 23.6289 38.856 23.1066C38.8937 22.659 38.8073 22.2097 38.6064 21.808C38.4055 21.4064 38.0977 21.0678 37.717 20.8296C36.6627 20.3089 35.4905 20.0735 34.317 20.1466H27.897V26.3636Z" fill="#003D74"/>
<path d="M58.2016 34.4565H45.6016V19.0195H57.7726V20.1465H46.8726V25.8575H57.0866V26.9845H46.8756V33.3295H58.2016V34.4565Z" fill="#003D74"/>
<path d="M75.8031 34.4565H63.2031V19.0195H75.3741V20.1465H64.4741V25.8575H74.6881V26.9845H64.4771V33.3295H75.8031V34.4565Z" fill="#003D74"/>
<path d="M94.1916 34.4565H92.5196L81.8776 20.3565V34.4565H80.6016V19.0195H82.3536L92.9176 33.0885V19.0195H94.1916V34.4565Z" fill="#003D74"/>
<path d="M111.021 20.1465H101.002V25.9405H109.716V27.0685H101.002V34.4565H99.7266V19.0195H111.021V20.1465Z" fill="#003D74"/>
<path d="M117.72 19.0195H116.445V34.4565H117.72V19.0195Z" fill="#003D74"/>
<path d="M136.452 34.4565H123.852V19.0195H136.024V20.1465H125.124V25.8575H135.335V26.9845H125.126V33.3295H136.452V34.4565Z" fill="#003D74"/>
<path d="M151.748 34.4565H141.469V19.0195H142.743V33.3295H151.743L151.748 34.4565Z" fill="#003D74"/>
<path d="M170.418 26.6163C170.418 31.8422 167.482 34.4553 161.61 34.4553H156.336V19.0312H161.61C164.551 19.0312 166.755 19.6589 168.22 20.9143C169.685 22.1696 170.419 24.0696 170.42 26.6143M169.067 26.6143C169.079 25.6957 168.964 24.7799 168.724 23.8933C168.511 23.12 168.097 22.417 167.524 21.8562C166.871 21.2521 166.082 20.8144 165.224 20.5803C164.038 20.2604 162.812 20.1132 161.584 20.1433H157.618V33.3263H161.579C162.803 33.3566 164.025 33.2046 165.204 32.8753C166.067 32.6311 166.857 32.1785 167.504 31.5573C168.083 30.9709 168.5 30.2447 168.714 29.4493C168.961 28.5255 169.079 27.5722 169.065 26.6163" fill="#003D74"/>
<path d="M40.629 34.4566H39.229L37.493 30.3566C37.3277 29.9738 37.138 29.602 36.925 29.2436C36.7283 28.9079 36.4848 28.6018 36.202 28.3346C35.9091 28.0559 35.5639 27.8382 35.1862 27.694C34.8086 27.5498 34.406 27.482 34.002 27.4946H27.897V34.4596H26.625V19.0196H34.478C35.1907 19.0176 35.9023 19.0765 36.605 19.1956C37.2473 19.2992 37.8671 19.5116 38.438 19.8236C38.9681 20.1186 39.4105 20.5489 39.72 21.0706C40.0609 21.6941 40.2258 22.3986 40.197 23.1086C40.2016 23.5985 40.1291 24.0862 39.982 24.5536C39.8438 24.992 39.6221 25.3995 39.329 25.7536C39.0176 26.121 38.6396 26.4263 38.215 26.6536C37.719 26.9188 37.1835 27.1021 36.629 27.1966C36.9172 27.3896 37.1889 27.6063 37.441 27.8446C37.6477 28.0451 37.8321 28.2674 37.991 28.5076C38.1516 28.7535 38.2901 29.0132 38.405 29.2836C38.526 29.5646 38.668 29.8896 38.827 30.2556L40.629 34.4566ZM27.897 26.3636H33.949C34.6913 26.3729 35.4329 26.316 36.165 26.1936C36.7036 26.1095 37.2205 25.9203 37.686 25.6366C38.0714 25.393 38.3784 25.0433 38.57 24.6296C38.7736 24.1483 38.8712 23.6289 38.856 23.1066C38.8937 22.659 38.8073 22.2097 38.6064 21.808C38.4055 21.4064 38.0977 21.0678 37.717 20.8296C36.6627 20.3089 35.4905 20.0735 34.317 20.1466H27.897V26.3636Z" stroke="#003D74" stroke-width="0.3" stroke-miterlimit="10"/>
<path d="M58.2016 34.4565H45.6016V19.0195H57.7726V20.1465H46.8726V25.8575H57.0866V26.9845H46.8756V33.3295H58.2016V34.4565Z" stroke="#003D74" stroke-width="0.3" stroke-miterlimit="10"/>
<path d="M75.8031 34.4565H63.2031V19.0195H75.3741V20.1465H64.4741V25.8575H74.6881V26.9845H64.4771V33.3295H75.8031V34.4565Z" stroke="#003D74" stroke-width="0.3" stroke-miterlimit="10"/>
<path d="M94.1916 34.4565H92.5196L81.8776 20.3565V34.4565H80.6016V19.0195H82.3536L92.9176 33.0885V19.0195H94.1916V34.4565Z" stroke="#003D74" stroke-width="0.3" stroke-miterlimit="10"/>
<path d="M111.021 20.1465H101.002V25.9405H109.716V27.0685H101.002V34.4565H99.7266V19.0195H111.021V20.1465Z" stroke="#003D74" stroke-width="0.3" stroke-miterlimit="10"/>
<path d="M117.72 19.0195H116.445V34.4565H117.72V19.0195Z" stroke="#003D74" stroke-width="0.3" stroke-miterlimit="10"/>
<path d="M136.452 34.4565H123.852V19.0195H136.024V20.1465H125.124V25.8575H135.335V26.9845H125.126V33.3295H136.452V34.4565Z" stroke="#003D74" stroke-width="0.3" stroke-miterlimit="10"/>
<path d="M151.748 34.4565H141.469V19.0195H142.743V33.3295H151.743L151.748 34.4565Z" stroke="#003D74" stroke-width="0.3" stroke-miterlimit="10"/>
<path d="M170.348 26.6163C170.348 31.8422 167.412 34.4553 161.54 34.4553H156.266V19.0312H161.54C164.481 19.0312 166.684 19.6589 168.15 20.9143C169.615 22.1696 170.348 24.0703 170.348 26.6163ZM168.995 26.6163C169.007 25.6977 168.892 24.7819 168.652 23.8953C168.439 23.122 168.025 22.419 167.452 21.8583C166.799 21.2541 166.01 20.8164 165.152 20.5822C163.966 20.2624 162.74 20.1152 161.512 20.1453H157.546V33.3263H161.512C162.736 33.3566 163.957 33.2046 165.137 32.8753C166 32.6311 166.79 32.1785 167.437 31.5573C168.015 30.9709 168.432 30.2447 168.647 29.4493C168.892 28.5254 169.009 27.5721 168.995 26.6163Z" stroke="#003D74" stroke-width="0.3" stroke-miterlimit="10"/>
<path d="M232.289 28.5078C232.289 35.4697 229.523 42.1465 224.601 47.0694C219.678 51.9922 213.001 54.7578 206.039 54.7578C199.077 54.7578 192.4 51.9922 187.478 47.0694C182.555 42.1465 179.789 35.4697 179.789 28.5078C179.789 21.5459 182.555 14.8691 187.478 9.94626C192.4 5.02343 199.077 2.25781 206.039 2.25781C213.001 2.25781 219.678 5.02343 224.601 9.94626C229.523 14.8691 232.289 21.5459 232.289 28.5078Z" fill="white"/>
<path d="M206.039 56.8813C198.479 56.9101 191.216 53.9389 185.844 48.6196C180.472 43.3003 177.429 36.0673 177.383 28.5073C177.46 20.9585 180.513 13.745 185.878 8.43428C191.244 3.12353 198.488 0.144531 206.037 0.144531C213.587 0.144531 220.831 3.12353 226.196 8.43428C231.562 13.745 234.615 20.9585 234.692 28.5073C234.646 36.0668 231.604 43.2996 226.232 48.6188C220.861 53.9381 213.598 56.9095 206.039 56.8813ZM206.039 4.94333C199.754 4.91352 193.715 7.37765 189.245 11.7952C184.775 16.2127 182.239 22.2229 182.195 28.5073C182.265 34.7844 184.808 40.7805 189.272 45.1944C193.736 49.6083 199.76 52.0839 206.037 52.0839C212.315 52.0839 218.339 49.6083 222.803 45.1944C227.266 40.7805 229.809 34.7844 229.88 28.5073C229.836 22.2235 227.301 16.2137 222.831 11.7963C218.362 7.37896 212.323 4.91378 206.039 4.94333Z" fill="#45ABAD"/>
<path d="M198.587 32.918L221.181 34.931L220.96 43.963L220.506 44.393L219.072 45.417L218.017 46.169L216.886 46.921L215.771 47.51L214.852 47.865L214.04 48.204L212.996 48.612L211.785 49.126L210.208 49.577L208.289 49.807L206.773 49.882L204.934 49.872L202.848 49.642L200.548 49.096L199.378 48.753L198.578 48.508L198.587 32.918Z" fill="#003D74"/>
<path d="M206.806 50.3819L204.94 50.3739L202.801 50.1409L200.437 49.5849L198.086 48.8789L198.094 32.3789L221.694 34.4789L221.457 44.1789L220.857 44.7519L217.169 47.3349L216.011 47.9499L211.987 49.5839L210.352 50.0559L208.352 50.3009L206.806 50.3819ZM199.083 48.1429L200.693 48.6209L202.971 49.1609L204.997 49.3799L206.785 49.3869L208.273 49.3119L210.158 49.0859L211.658 48.6509L215.601 47.0509L216.663 46.4869L220.226 43.9939L220.474 43.7529L220.674 35.3899L199.09 33.4649L199.083 48.1429Z" fill="#003D74"/>
<path d="M185.984 36.7098C185.718 36.0978 185.856 36.1658 185.49 35.2988C185.345 34.9478 185.23 34.5852 185.145 34.2148C185.029 33.8233 184.952 33.4214 184.914 33.0148L196.957 32.2148V48.3368L196.192 47.9768L195.163 47.3308L194.216 46.7308L193.24 45.9888L191.97 44.9418L190.483 43.4728L189.557 42.3988L188.78 41.4988L187.954 40.3508C187.954 40.3508 187.568 39.8748 187.126 39.1968C186.879 38.74 186.659 38.2688 186.468 37.7858C186.423 37.6778 186.268 37.3488 185.984 36.7078" fill="#003D74"/>
<path d="M214.706 39.4413C214.716 37.8933 215.706 36.6483 216.906 36.6563C218.106 36.6643 219.086 37.9253 219.076 39.4723C219.066 41.0193 218.076 42.2723 216.87 42.2633C215.664 42.2543 214.693 40.9883 214.703 39.4413" fill="white"/>
<path d="M216.882 42.8298H216.866C216.477 42.8201 216.095 42.7198 215.751 42.5369C215.407 42.3539 215.11 42.0934 214.884 41.7758C214.386 41.1006 214.124 40.2792 214.141 39.4398C214.136 38.6008 214.409 37.7836 214.918 37.1168C215.147 36.8054 215.444 36.5508 215.787 36.3727C216.13 36.1946 216.509 36.0978 216.895 36.0898H216.911C217.237 36.0961 217.559 36.167 217.857 36.2983C218.155 36.4296 218.425 36.6188 218.649 36.8548C219.311 37.5634 219.667 38.5039 219.64 39.4728C219.628 41.3258 218.393 42.8258 216.882 42.8258M216.896 37.2178C216.679 37.2268 216.467 37.2856 216.277 37.3897C216.086 37.4937 215.922 37.6402 215.796 37.8178C215.443 38.2869 215.256 38.8599 215.264 39.4468C215.249 40.035 215.428 40.6117 215.775 41.0868C215.899 41.2674 216.062 41.4169 216.253 41.5236C216.444 41.6303 216.657 41.6913 216.875 41.7018H216.882C217.773 41.7018 218.504 40.7018 218.513 39.4698C218.534 38.8007 218.295 38.1495 217.847 37.6518C217.726 37.5215 217.581 37.4163 217.419 37.3424C217.257 37.2684 217.082 37.2271 216.904 37.2208H216.897" fill="#003D74"/>
<path d="M214.603 39.4444C214.613 38.1444 215.245 37.1034 216.021 37.1094C216.797 37.1154 217.414 38.1694 217.404 39.4644C217.394 40.7594 216.762 41.8044 215.989 41.7984C215.216 41.7924 214.589 40.7374 214.602 39.4444" fill="#003D74"/>
<path d="M215.996 41.947H215.985C215.831 41.9419 215.678 41.9058 215.537 41.8409C215.396 41.7759 215.27 41.6835 215.165 41.569C214.665 40.9765 214.409 40.2156 214.449 39.441C214.442 38.8346 214.595 38.237 214.893 37.709C214.998 37.4967 215.156 37.3154 215.352 37.1835C215.549 37.0515 215.776 36.9734 216.012 36.957H216.019C216.174 36.9622 216.327 36.9984 216.467 37.0635C216.608 37.1286 216.734 37.2213 216.838 37.336C217.338 37.9288 217.593 38.6898 217.551 39.464C217.559 40.07 217.407 40.6673 217.108 41.195C217.004 41.407 216.847 41.5879 216.651 41.7199C216.455 41.8518 216.228 41.9301 215.992 41.947M214.749 39.447C214.713 40.141 214.937 40.8235 215.377 41.361C215.455 41.4471 215.548 41.517 215.653 41.5666C215.758 41.6162 215.871 41.6446 215.986 41.65H215.992C216.176 41.6319 216.351 41.5665 216.502 41.4603C216.652 41.3541 216.773 41.2107 216.851 41.044C217.122 40.5626 217.26 40.0181 217.251 39.466C217.288 38.7723 217.065 38.0899 216.625 37.552C216.467 37.3778 216.246 37.2735 216.011 37.262C215.828 37.28 215.651 37.3454 215.5 37.452C215.35 37.5586 215.229 37.7027 215.15 37.87C214.88 38.3513 214.742 38.8959 214.75 39.448" fill="#003D74"/>
<path d="M207.906 38.9586C207.918 37.3246 208.961 36.0086 210.234 36.0196C211.507 36.0306 212.534 37.3576 212.521 38.9896C212.508 40.6216 211.467 41.9406 210.194 41.9336C208.921 41.9266 207.894 40.5936 207.906 38.9586Z" fill="white"/>
<path d="M210.206 42.5298H210.193C208.593 42.5168 207.3 40.9128 207.313 38.9548C207.3 37.9326 207.689 36.9463 208.397 36.2088C208.895 35.7317 209.551 35.4533 210.24 35.4258C210.583 35.4326 210.922 35.5074 211.237 35.6459C211.551 35.7844 211.835 35.9839 212.072 36.2328C212.77 36.9802 213.146 37.9723 213.119 38.9948C213.106 40.9468 211.801 42.5308 210.207 42.5308M208.507 38.9638C208.499 40.2638 209.259 41.3308 210.207 41.3398H210.214C211.152 41.3398 211.923 40.2858 211.933 38.9868C211.955 38.2818 211.704 37.5954 211.233 37.0708C211.106 36.9333 210.953 36.8223 210.782 36.7444C210.612 36.6665 210.428 36.6231 210.241 36.6168C209.865 36.6365 209.509 36.7934 209.241 37.0578C208.761 37.575 208.499 38.2581 208.512 38.9638" fill="#003D74"/>
<path d="M207.375 38.7785C207.385 37.4115 208.097 36.3065 208.967 36.3125C209.837 36.3185 210.53 37.4365 210.521 38.8015C210.512 40.1665 209.802 41.2765 208.932 41.2685C208.062 41.2605 207.367 40.1465 207.375 38.7785Z" fill="#003D74"/>
<path d="M208.943 41.4172H208.933C207.984 41.4112 207.219 40.2272 207.227 38.7752C207.235 37.3232 208.015 36.1602 208.963 36.1602H208.969C209.917 36.1672 210.682 37.3512 210.669 38.8012C210.696 39.6086 210.414 40.3959 209.879 41.0012C209.757 41.13 209.612 41.2335 209.45 41.3056C209.289 41.3777 209.114 41.417 208.938 41.4212M207.523 38.7822C207.516 40.0672 208.147 41.1162 208.93 41.1212H208.937C209.074 41.1166 209.209 41.0849 209.334 41.0277C209.46 40.9705 209.572 40.8891 209.666 40.7882C210.143 40.2398 210.394 39.5298 210.366 38.8032C210.374 37.5192 209.744 36.4722 208.961 36.4662H208.955C208.173 36.4662 207.531 37.5042 207.521 38.7832" fill="#003D74"/>
<path d="M200.485 38.7306C200.497 36.9226 201.645 35.4666 203.053 35.4766C204.461 35.4866 205.596 36.9586 205.584 38.7666C205.572 40.5746 204.418 42.0266 203.007 42.0166C201.596 42.0066 200.471 40.5346 200.484 38.7296" fill="white"/>
<path d="M203.022 42.6745H203.004C201.236 42.6615 199.811 40.8895 199.828 38.7255C199.82 37.7465 200.137 36.7924 200.728 36.0125C200.997 35.6453 201.347 35.3457 201.751 35.1374C202.155 34.9291 202.603 34.8178 203.057 34.8125C204.829 34.8295 206.257 36.6035 206.243 38.7665C206.229 40.9295 204.783 42.6665 203.021 42.6665M203.038 36.1255C202.786 36.1367 202.54 36.2057 202.319 36.327C202.098 36.4484 201.908 36.6189 201.763 36.8255C201.353 37.3733 201.135 38.0412 201.143 38.7255C201.133 40.1635 201.971 41.3395 203.012 41.3475H203.022C204.061 41.3475 204.914 40.1855 204.922 38.7475C204.93 37.3095 204.09 36.1295 203.043 36.1205L203.038 36.1255Z" fill="#003D74"/>
<path d="M200.057 38.7271C200.065 37.2161 200.871 35.9901 201.852 36.0001C202.833 36.0101 203.622 37.2431 203.613 38.7511C203.604 40.2591 202.795 41.4821 201.813 41.4761C200.831 41.4701 200.045 40.2361 200.055 38.7271" fill="#003D74"/>
<path d="M201.814 41.6267H201.807C200.744 41.6167 199.888 40.3167 199.9 38.7267C199.872 37.8441 200.184 36.9846 200.773 36.3267C200.909 36.1809 201.072 36.0635 201.254 35.9813C201.435 35.899 201.631 35.8536 201.83 35.8477H201.842C202.904 35.8547 203.761 37.1577 203.752 38.7477C203.743 40.3377 202.87 41.6217 201.809 41.6217M201.829 36.1457C201.669 36.1508 201.511 36.1876 201.365 36.254C201.219 36.3205 201.088 36.4152 200.978 36.5327C200.446 37.1356 200.166 37.92 200.195 38.7237C200.184 40.1477 200.906 41.3127 201.803 41.3237H201.809C202.709 41.3237 203.439 40.1717 203.45 38.7477C203.461 37.3237 202.734 36.1537 201.838 36.1477L201.829 36.1457Z" fill="#003D74"/>
<path d="M211.745 19.6172L223.145 33.1262L199.227 30.5902L211.745 19.6172Z" fill="#003D74"/>
<path d="M224.319 33.7542L198.039 30.9672L211.799 18.9102L224.319 33.7542ZM200.406 30.2172L221.96 32.5012L211.69 20.3272L200.406 30.2172Z" fill="#003D74"/>
<path d="M196.849 15.4617L200.777 14.7617L204.519 15.3547L204.49 19.5427L200.584 19.0497L196.742 19.8727L196.849 15.4617Z" fill="#003D74"/>
<path d="M200.578 13.2979L205.478 14.2329L200.589 11.4219L200.578 13.2979Z" fill="#003D74"/>
<path d="M195.594 14.0119L200.655 13.2589L200.635 11.4219L195.594 14.0119Z" fill="#003D74"/>
<path d="M196.953 20.5769L200.686 19.7969L203.794 20.1589L200.633 22.1589L196.539 22.8069L196.953 20.5769Z" fill="#003D74"/>
<path d="M195.805 23.5232L196.443 20.0802L200.658 19.1992L205.52 19.7662L200.72 22.7432L195.805 23.5232ZM197.46 21.0752L197.27 22.0952L200.418 21.5952L202.066 20.5522L200.711 20.3962L197.46 21.0752Z" fill="#003D74"/>
<path d="M204.779 17.0931L204.785 16.3321L200.76 15.8711L196.516 16.5461V17.2751L200.725 16.6391L204.779 17.0931Z" fill="white"/>
<path d="M204.933 18.8427L204.94 17.9027L200.758 17.3477L196.35 18.1817L196.344 19.0817L200.716 18.2887L204.933 18.8427Z" fill="white"/>
<path d="M196.843 15.6143L200.771 14.9143L204.513 15.5143L204.604 13.7283L200.656 12.9023L196.703 13.6023L196.843 15.6143Z" fill="#003D74"/>
<path d="M205.576 20.5627L205.476 19.6977L200.676 19.0977L196.194 19.8717L196.188 20.7027L200.633 19.9687L204.913 20.4857" fill="white"/>
<path d="M204.586 28.257L218.022 29.529L217.372 28.79L205.245 27.668L204.586 28.257Z" fill="white"/>
<path d="M206.367 26.5837L216.275 27.5607L215.719 26.8827L206.965 26.0547L206.367 26.5837Z" fill="white"/>
<path d="M207.797 24.9928L214.638 25.6438L214.255 25.0728L208.38 24.4648L207.797 24.9928Z" fill="white"/>
<path d="M204.211 0H207.83L209.981 2.3L207.824 5.162L204.761 5.113L206.699 2.3L204.211 0Z" fill="white"/>
</svg>
