<svg xmlns="http://www.w3.org/2000/svg" xmlns:xlink="http://www.w3.org/1999/xlink" version="1.1" id="Layer_1" x="0px" y="0px" viewBox="0 0 311 62" style="enable-background:new 0 0 311 62;" xml:space="preserve" width="311"  height="62" >
<style type="text/css">
	.st0{fill:#00461C;}
	.st1{fill:#F0EDD2;}
	.st2{fill-rule:evenodd;clip-rule:evenodd;fill:#00461C;}
	.st3{fill:#0D4621;}
</style>
<g>
	<g>
		<g>
			<path class="st0" d="M254.4,58.5h-0.9v-7.7h1.6l2,6.5l0,0l2-6.5h1.6v7.7h-1v-6.9l0,0l-2.2,6.9h-0.9l-2.1-6.9l0,0v6.9H254.4z"/>
		</g>
		<g>
			<path class="st0" d="M263,56.1c0,1.5,0.4,1.8,1.1,1.8c0.6,0,0.9-0.5,0.9-1h1c0,1.2-0.7,1.7-1.9,1.7c-1.2,0-2.1-0.3-2.1-2.7     c0-1.6,0.2-2.9,2.1-2.9c1.5,0,1.9,0.8,1.9,2.6v0.5C266,56.1,263,56.1,263,56.1z M265.1,55.4c0-1.6-0.4-1.8-1.1-1.8     c-0.6,0-1,0.3-1,1.8H265.1z"/>
		</g>
		<g>
			<path class="st0" d="M270.1,58.5v-3.8c0-0.5-0.2-1.1-0.9-1.1c-0.3,0-0.6,0.2-0.8,0.4c-0.2,0.3-0.2,0.6-0.2,0.8v3.6h-0.9v-4.3     c0-0.4,0-0.8-0.1-1.1h0.9v0.7l0,0c0.3-0.6,0.7-0.8,1.4-0.8c0.5,0,1.1,0.2,1.3,0.7c0.3-0.6,0.8-0.7,1.3-0.7c0.6,0,1.5,0.1,1.5,1.4     v4.1h-0.9v-3.8c0-0.5-0.1-1.1-0.9-1.1c-0.3,0-0.4,0-0.7,0.2c-0.3,0.2-0.3,0.8-0.3,1v3.6h-0.7V58.5z"/>
		</g>
		<g>
			<path class="st0" d="M276.1,58.5h-0.9v-7.7h0.9v2.9l0,0c0.3-0.4,0.7-0.7,1.2-0.7c1.8,0,1.8,1.6,1.8,2.9c0,2.4-0.9,2.7-1.7,2.7     c-0.6,0-0.9-0.2-1.2-0.8l0,0L276.1,58.5L276.1,58.5z M277.1,57.9c1.1,0,1.1-1.2,1.1-2c0-1.4-0.1-2.2-1.1-2.2s-1,1.2-1,1.9     C276.1,56.4,276,57.9,277.1,57.9z"/>
		</g>
		<g>
			<path class="st0" d="M281.3,56.1c0,1.5,0.4,1.8,1.1,1.8c0.6,0,0.9-0.5,0.9-1h1c0,1.2-0.7,1.7-1.9,1.7c-1.1,0-2.1-0.3-2.1-2.7     c0-1.6,0.2-2.9,2.1-2.9c1.5,0,1.9,0.8,1.9,2.6v0.5C284.3,56.1,281.3,56.1,281.3,56.1z M283.4,55.4c0-1.6-0.4-1.8-1.1-1.8     c-0.6,0-1,0.3-1,1.8H283.4z"/>
		</g>
		<g>
			<path class="st0" d="M286.7,53.9L286.7,53.9c0.4-0.8,0.8-0.9,1.7-0.9v0.9c-0.2,0-0.3-0.1-0.5-0.1c-1,0-1.2,0.7-1.2,1.5v3.2h-0.9     v-5.4h0.9V53.9z"/>
		</g>
		<g>
			<path class="st0" d="M291.8,58.5v-7.7h3.8v0.9h-2.9v2.5h2.7V55h-2.7v3.5H291.8z"/>
		</g>
		<g>
			<path class="st0" d="M296.8,50.8h2.4c1,0,1.7,0.4,2.1,1.2c0.3,0.7,0.3,2.2,0.3,2.4c0,1.7-0.2,2.6-0.5,3.1c-0.4,0.7-1.2,1-2.6,1     h-1.8v-7.7H296.8z M297.7,57.7h0.9c1.4,0,1.9-0.5,1.9-2.3v-1.6c0-1.6-0.5-2.1-1.5-2.1h-1.3V57.7z"/>
		</g>
		<g>
			<path class="st0" d="M303.8,58.5h-1v-7.7h1V58.5z"/>
		</g>
		<g>
			<path class="st0" d="M308.7,52.9c0-0.4,0-0.9-0.2-1.1c-0.2-0.2-0.7-0.3-0.9-0.3c-0.8,0-1.1,0.5-1.2,0.6c0,0.1-0.2,0.3-0.2,1.6     v2.1c0,1.9,0.6,2.1,1.4,2.1c0.3,0,1.2-0.1,1.2-1.6h1c0,2.4-1.7,2.4-2.2,2.4c-1,0-2.4-0.1-2.4-3.1v-2.2c0-2.2,1-2.8,2.5-2.8     s2.1,0.8,2,2.3H308.7z"/>
		</g>
	</g>
	<g>
		<path class="st0" d="M48,3.7l5.9,2.9c-14.2-0.7-22.8,3.6-26.7,12.7c0.9,0.5,1.4,0.6,1.4,0.6S34,9.5,44.7,13.5    c9.6,3.5,9.2,12.2,7.9,14.3c-3.8,5.4-7.6,0.3-9.6,2.1c-2.6,2.1,6.3,7.9,0.4,12.2c-5,3.5-8-3.7-10.6-1.5c-2.5,2.2,1.8,9.9-2.8,11.2    c-4.5,1.3-5.3-4.3-8.3-2.6c-2.5,1.5,0.3,8.2-6.2,8.4c-3.8,0-5.2-3.6-5.7-7c-0.4-2.7-0.2-5.4-1.4-6c-2.8-1.4-7,0-7.5-4.5    c-0.6-7.9,9.4-7.8,9.1-12c-0.3-3.3-6.1-3.1-5.6-8.5c0.8-7.4,13.2-5.6,13.9-7.9c0.4-1.8-5.2-3.7-2.6-7.9c2.7-4.4,9.3-2.4,10.2-2.1    c2.2,0.7,5.7,2.8,7.6,5.7C38.6,4,44,3.3,48,3.7z"/>
	</g>
	<g>
		<path class="st1" d="M34.4,23.2c-0.6-1.9-1.6-3.3-3.2-4.7c-1.8-1.6-4.3-2.4-6.7-2.3c-1.7,0.1-3.8,0.8-5.2,1.9    c-1.1,1-2.2,2.3-2.4,3.7c0,0.1,0.1,0.2,0.1,0.3c5.3,1.4,9.4,2.9,14.5,6.7l-0.2,0.4c-6-4-11.4-5.6-14.8-5.9c-1.7,3.5-3,11-1.8,13.1    c1.2,2.1,2.6,3.8,2.5,4.5c0,0.7-0.4,1.8,0.2,1.1c0.2-0.3,0.6-1,2-1.5c0.3-0.1,1.8-0.2,2.3-0.3c2.4-0.5,8.5-4.1,10.4-10    c0.2-0.2,0.2-0.6,0.5-0.7c0.1,0,0.1,0,0.2,0c0.4-0.1,0.5-0.5,0.7-0.8C34.7,27,34.9,24.9,34.4,23.2z"/>
	</g>
	<g>
		<g>
			<g>
				<path class="st2" d="M19.3,18.9c-0.5,0.6-1.3,2.1-1.2,2.6l0,0l0.4,0.1l1.6-1.3l0,0C19.9,19.8,19.6,19.4,19.3,18.9L19.3,18.9z"/>
			</g>
			<g>
				<path class="st2" d="M32.7,28.4l-0.8-0.7l0,0c0.2-0.3,0.6-0.5,1-0.6c0.2,0.3,0,0.8,0,1.2C32.8,28.4,32.7,28.4,32.7,28.4      L32.7,28.4L32.7,28.4z"/>
			</g>
			<g>
				<path class="st2" d="M19.6,21.9c0,0-0.1,0-0.1-0.1c0-0.4,0.3-0.9,0.6-1.2c0.4,0.4,0.3,1.1,0.5,1.6l0,0L19.6,21.9L19.6,21.9z"/>
			</g>
			<g>
				<path class="st2" d="M21,22.4l-0.2-0.1l0,0c0-0.1,0.1-0.3,0.1-0.4c0.2-0.8,0.5-1.5,1-2.1c0.1,0,0-0.1,0.1,0      c0.3,0.7,0.4,1.4,0.5,2.2l0,0l-0.8,0.6L21,22.4L21,22.4z"/>
			</g>
			<g>
				<path class="st2" d="M30.4,26.7L29.2,26l0,0c0.1-0.5,0.6-0.9,1-1.2c0.1,0,0.2-0.1,0.3-0.1l0.1,0.1l0,0v1.8l0,0      C30.5,26.7,30.4,26.7,30.4,26.7L30.4,26.7z"/>
			</g>
			<g>
				<path class="st2" d="M22.3,22.7L22,22.6l0.3-0.3l0,0c0,0,0,0,0.1,0c0,0,0,0,0.1,0.1l0,0v0.4l0,0C22.4,22.8,22.4,22.8,22.3,22.7      L22.3,22.7L22.3,22.7z"/>
			</g>
			<g>
				<path class="st2" d="M27.2,25l-0.9-0.5l0,0c0.1-0.6,0.8-1.2,1.2-1.4h0.1c0.2,0.3,0.1,0.8,0.2,1.2c0,0.2,0,0.4,0,0.6      C27.7,24.9,27.4,25,27.2,25L27.2,25z"/>
			</g>
			<g>
				<path class="st2" d="M30.8,26.7L30.8,26.7c-0.1-0.5,0.4-0.8,0.6-1.1c0.4-0.4,0.8-0.7,1.4-0.7c0.2,0.6,0.1,1.2,0.1,1.9v0.1l0,0      L30.8,26.7L30.8,26.7L30.8,26.7L30.8,26.7z"/>
			</g>
			<g>
				<path class="st2" d="M24,23.4l-0.5-0.3l0,0c0-0.6,0.5-1,0.8-1.5c0.2-0.2,0.4-0.4,0.5-0.5c0.1,0,0.1,0,0.2,0.1      c0.2,0.7,0.2,1.4,0.2,2.2l0,0l-0.4,0.2L24,23.4L24,23.4z"/>
			</g>
			<g>
				<path class="st2" d="M28.2,24.9C28.2,24.9,28.2,24.8,28.2,24.9c0-0.9,0.8-1.7,1.5-2.1c0.1-0.1,0.3-0.1,0.4-0.1      c0.3,0.5,0.3,1.2,0.4,1.8c0,0.1,0,0.1,0,0.1l0,0L28.2,24.9L28.2,24.9L28.2,24.9L28.2,24.9z"/>
			</g>
			<g>
				<path class="st2" d="M25.4,23.3L25.4,23.3c0.1-1,0.8-2.1,1.6-2.7h0.1c0.2,0.6,0.4,1.2,0.5,1.8l0,0L25.4,23.3L25.4,23.3      L25.4,23.3L25.4,23.3z"/>
			</g>
			<g>
				<path class="st2" d="M22.7,21.8C22.7,21.8,22.6,21.8,22.7,21.8c-0.1-1.1,0.5-2.1,1.2-2.9c0.1-0.1,0.1-0.1,0.2-0.1      c0.4,0.5,0.7,1.3,0.8,2l0,0L22.7,21.8L22.7,21.8L22.7,21.8L22.7,21.8z"/>
			</g>
			<g>
				<path class="st2" d="M33.3,26.8L33.3,26.8c0-0.5,0.2-0.9,0.5-1.3l0,0l-0.2,1.3H33.3L33.3,26.8z"/>
			</g>
			<g>
				<path class="st2" d="M20.3,20.2l-0.1-0.1c0-0.7,0.2-1.6,0.7-2.2H21c0.3,0.4,0.6,0.9,0.8,1.4l0,0L20.3,20.2L20.3,20.2L20.3,20.2      L20.3,20.2z"/>
			</g>
			<g>
				<path class="st2" d="M30.8,24.5L30.8,24.5c0-0.8,0.7-1.5,1.3-1.8c0.1,0,0.2,0,0.3-0.1l0,0l0.2,0.6l0.3,1.1l0,0H33l0,0l0.5-0.9      l0.2,1.2l-0.8-0.2l-0.2,0.1L30.8,24.5L30.8,24.5z"/>
			</g>
			<g>
				<path class="st2" d="M27.9,22.4L27.9,22.4c-0.1-0.7,0.3-1.5,0.9-2c0.1-0.1,0.3-0.2,0.5-0.2c0.5,0.5,0.5,1.1,0.8,1.9l0,0      L27.9,22.4L27.9,22.4L27.9,22.4L27.9,22.4z"/>
			</g>
			<g>
				<path class="st2" d="M25,20.7c0.1-0.8,0.5-1.7,1.1-2.2c0.4,0.4,0.6,1,0.8,1.6c0,0.1,0,0.1,0,0.1l0,0L25,20.7L25,20.7L25,20.7      L25,20.7z"/>
			</g>
			<g>
				<path class="st2" d="M22.1,19.2c0-0.7,0.5-1.5,1-1.9c0.4,0.3,0.6,0.7,0.8,1.2l0,0L22.1,19.2L22.1,19.2L22.1,19.2L22.1,19.2z"/>
			</g>
			<g>
				<path class="st2" d="M30.5,22.2c-0.1-0.6,0.3-1.2,0.7-1.6c0.1-0.1,0.3-0.2,0.4-0.2c0.4,0.4,0.5,1.2,0.7,1.8c0,0,0,0.1-0.1,0.1      l0,0L30.5,22.2L30.5,22.2L30.5,22.2L30.5,22.2z"/>
			</g>
			<g>
				<path class="st2" d="M27.3,20.2L27.3,20.2c0-0.8,0.2-1.7,0.8-2.2h0.1c0.4,0.6,0.9,1.3,1,2l0,0L27.3,20.2L27.3,20.2L27.3,20.2      L27.3,20.2z"/>
			</g>
			<g>
				<path class="st2" d="M24.3,18.4C24.3,18.4,24.2,18.4,24.3,18.4c0-0.5,0.3-1,0.6-1.4l0,0l0.5,0.1l0.6,0.8l0,0      c0,0.1,0,0.1-0.1,0.1l0,0L24.3,18.4L24.3,18.4L24.3,18.4L24.3,18.4z"/>
			</g>
			<g>
				<path class="st2" d="M32.6,22.4C32.5,22.4,32.5,22.3,32.6,22.4L32.6,22.4l0.2-0.5l0,0c0.1,0.2,0.2,0.3,0.3,0.5l0,0H32.6      L32.6,22.4z"/>
			</g>
			<g>
				<path class="st2" d="M29.5,20C29.5,19.9,29.4,19.9,29.5,20L29.5,20l0.8-1l0,0c0.5,0.2,0.9,0.6,1.2,1.1l0,0L29.5,20L29.5,20z"/>
			</g>
			<g>
				<path class="st2" d="M26.3,17.9c0,0-0.1-0.1,0-0.1l0,0l0.4-0.5l0,0c0.5,0,0.9,0.3,1.3,0.4l0,0L26.3,17.9L26.3,17.9z"/>
			</g>
		</g>
		<g>
			<path class="st0" d="M31.6,28.8c-5-3.8-9.2-5.3-14.5-6.7c0.1,0.1,0.1,0.2,0,0.3c-0.2,0.2-0.3,0.5-0.5,0.9l0,0     c3.3,0.3,8.8,1.9,14.8,5.9L31.6,28.8z"/>
		</g>
	</g>
	<g>
		<g>
			<g>
				<path class="st0" d="M62.1,18.9c0-2.3,0-5-1.1-6.7h6.9c-1.1,1.7-1.1,4.4-1.1,6.7v24h3.9c2.9,0,5.5-0.4,8.1-2.9l-1,4.8      c-1,0.1-2.1,0.2-3.1,0.2H60.3c1.5-2,1.7-9.3,1.7-11.7L62.1,18.9L62.1,18.9z"/>
				<path class="st0" d="M74.6,45.1H60l0.2-0.3c1.7-2.2,1.7-10.6,1.7-11.6V18.9c0-2.3,0-4.9-1.1-6.6L60.6,12h7.6L68,12.2      c-1.1,1.7-1.1,4.3-1.1,6.6v23.8h3.7c3,0,5.5-0.5,7.9-2.9l0.4-0.4l-1.1,5.5h-0.1C76.7,45.1,75.6,45.1,74.6,45.1z M60.7,44.7h13.9      c1,0,2,0,3-0.1l0.8-4.1C76,42.6,73.5,43,70.6,43h-4.1V18.9c0-2.2,0-4.8,1-6.6h-6.2c1,1.8,1,4.3,1,6.6v14.4      C62.2,34.2,62.2,42.1,60.7,44.7z"/>
			</g>
			<g>
				<path class="st0" d="M85.7,43.3h5c2.7,0,5.5-0.6,7.5-2.5l-0.8,4c-1.2,0.1-2.6,0.2-4.2,0.2H80.7c1-1.5,1.1-3.7,1.1-5.7V23.1      c0-1.9,0-4.2-1-5.7H96l0.2,3.3c-1.5-1.3-3.9-1.6-6.4-1.6h-4v10.3c3.3,0,6.8,0,10.2-0.3c-1.5,2.5-6.4,2.5-9.1,2.5h-1.1L85.7,43.3      L85.7,43.3z"/>
				<path class="st0" d="M93.3,45.2H80.4l0.2-0.3c0.9-1.4,1.1-3.6,1.1-5.6V23.1c0-1.9,0-4.1-0.9-5.6l-0.2-0.3h15.6l0.2,3.9L96,20.9      c-1.6-1.4-4.2-1.6-6.3-1.6h-3.8v10c3.3,0,6.7,0,10-0.3h0.4l-0.2,0.3c-1.6,2.6-6.6,2.6-9.2,2.6H86v11.3h4.8      c2.1,0,5.1-0.4,7.4-2.4l0.4-0.4l-1,4.6H97C95.8,45.1,94.6,45.2,93.3,45.2z M81.1,44.8h12.2c1.3,0,2.6-0.1,3.6-0.2h0.4l0.7-3.3      c-2.3,1.8-5.1,2.2-7.2,2.2h-5.2v-12h1.3c2.5,0,7,0,8.7-2.1c-3.2,0.3-6.6,0.3-9.8,0.3h-0.2V19h4.2c2,0,4.5,0.2,6.2,1.4l-0.1-2.8      H81.2c0.8,1.5,0.8,3.6,0.8,5.5v16.3C82,41.2,81.9,43.3,81.1,44.8z"/>
			</g>
			<g>
				<path class="st0" d="M123.7,21.9c-2.9-2.4-5.4-3.2-8.7-3.2c-6.7,0-10.6,5.7-10.6,12c0,8,3.8,13.2,12.2,13.2      c1.1,0,2.1-0.1,3.2-0.3c0.4-1.5,0.4-3,0.4-4.5V37c0-1.9,0-4.2-1-5.7h5.8c-1,1.5-1,3.7-1,5.7v4.3c0,1.1,0.1,2.7,0.3,3.8      c-2.6,0.4-6.2,0.7-9.2,0.7c-9.1,0-15.3-4-15.3-13.8c0-10.5,7.6-15.2,17.3-15.2c2.2,0,4.3,0.3,6.5,0.5L123.7,21.9L123.7,21.9z"/>
				<path class="st0" d="M115.2,45.9c-10.1,0-15.5-4.8-15.5-13.9c0-9.7,6.5-15.4,17.5-15.4c1.5,0,3.1,0.1,4.5,0.3      c0.7,0.1,1.3,0.1,2,0.2h0.2v5.2l-0.3-0.2c-2.9-2.3-5.3-3.2-8.6-3.2c-6.8,0-10.4,5.9-10.4,11.8c0,8.4,4.3,13,12,13      c1,0,2-0.1,3.1-0.3c0.4-1.4,0.4-2.9,0.4-4.3V37c0-1.9,0-4.1-0.9-5.6l-0.2-0.3h6.5l-0.2,0.3c-0.9,1.4-0.9,3.6-0.9,5.6v4.3      c0,1.1,0.1,2.6,0.3,3.7v0.2h-0.2C121.8,45.6,118.3,45.9,115.2,45.9z M117.2,16.9c-10.7,0-17.1,5.6-17.1,15.1      c0,11.2,8.2,13.6,15.1,13.6c3,0,6.4-0.3,9-0.7c-0.2-1.1-0.3-2.6-0.3-3.6V37c0-1.9,0-4,0.8-5.5h-5.2c0.8,1.5,0.8,3.6,0.8,5.5v2.1      c0,1.5,0,3-0.4,4.5v0.1h-0.1c-1.1,0.2-2.1,0.3-3.2,0.3c-8,0-12.3-4.8-12.3-13.4c0-6,3.7-12.2,10.8-12.2c3.3,0,5.8,0.9,8.6,3.1      v-4.1c-0.6-0.1-1.2-0.1-1.8-0.2C120.2,17,118.7,16.9,117.2,16.9z"/>
			</g>
			<g>
				<path class="st0" d="M149.7,45L145,32.9h-9.7c-1.9,3.8-3.8,8-3.8,10.5c0,0.6,0,1.1,0.1,1.6h-5.4l1-1.2      c2.5-3.1,11.4-21.7,11.4-25.2v-1.2h5.1c2.8,8.6,5.5,18,9.9,26l0.9,1.6C154.5,45,149.7,45,149.7,45z M141.2,21.9      c-0.1-0.3-0.3-1-0.7-1s-0.6,0.8-0.7,1l-3.8,9.3h8.3L141.2,21.9z"/>
				<path class="st0" d="M154.6,45.2h-5.1v-0.1l-4.7-12h-9.5c-1.9,3.8-3.7,7.9-3.7,10.3c0,0.5,0,1,0.1,1.6v0.2h-6l1.2-1.5      c2.5-3.1,11.3-21.7,11.3-25.1v-1.3h5.4v0.1c0.3,0.9,0.6,1.9,0.9,2.9c2.5,7.9,5.1,16,8.9,23.1L154.6,45.2z M149.8,44.8h4.2      l-0.7-1.3c-3.9-7.1-6.5-15.3-9-23.2c-0.3-0.9-0.6-1.8-0.9-2.7h-4.8v1c0,2.3-3.7,10.4-4.8,12.9c-2.7,5.7-5.5,11-6.6,12.5      l-0.7,0.9h4.8c-0.1-0.5-0.1-1-0.1-1.5c0-2.5,1.8-6.5,3.8-10.6v-0.1h10L149.8,44.8z M144.5,31.4h-8.8l3.9-9.6      c0.1-0.4,0.4-1.1,0.9-1.1s0.8,0.8,0.9,1.2L144.5,31.4z M136.2,31h7.7l-3-9c-0.2-0.5-0.4-0.9-0.6-0.9c-0.1,0-0.3,0.1-0.5,0.8V22      L136.2,31z"/>
			</g>
			<g>
				<path class="st0" d="M174.1,22.5H174c-1-1.9-2.5-3.9-7-3.9c-6.8,0-9.5,5.6-9.5,11.7c0,6.8,3.5,12.1,10.6,12.1      c3.7,0,6.2-1.6,7.5-3v0.3c0,1.9-3.1,6-9.9,6c-7.9,0-12.7-6.2-12.7-14.2c0-8.9,5.2-14.8,14-14.8c2.5,0,4.3,0.3,7.2,0.3      L174.1,22.5z"/>
				<path class="st0" d="M165.7,45.9c-3.5,0-6.6-1.2-8.9-3.5c-2.6-2.6-4-6.5-4-10.8c0-9.1,5.6-15,14.2-15c1.2,0,2.3,0.1,3.4,0.2      c1.2,0.1,2.4,0.2,3.9,0.2h0.2l-0.2,5.8h-0.4l-0.1-0.1c-1-1.8-2.5-3.8-6.8-3.8c-5.8,0-9.3,4.3-9.3,11.6s4,11.9,10.4,11.9      c4.4,0,6.7-2.2,7.4-2.9l0.3-0.3v0.7C175.7,41.9,172.4,45.9,165.7,45.9z M167,16.9c-8.5,0-13.8,5.6-13.8,14.7      c0,4.3,1.4,8,3.9,10.6c2.2,2.2,5.2,3.4,8.6,3.4c6.5,0,9.5-3.9,9.7-5.6c-1,1-3.4,2.7-7.3,2.7c-6.6,0-10.7-4.7-10.7-12.3      c0-7.5,3.6-11.9,9.7-11.9c4.3,0,5.9,1.8,6.9,3.6l0.2-4.8c-1.4,0-2.6-0.1-3.7-0.2C169.3,17,168.2,16.9,167,16.9z"/>
			</g>
			<g>
				<path class="st0" d="M184.2,45c1-1.5,1-3.7,1-5.7v-3.9c0-3-1.3-5.9-3-9.5s-3.9-6.9-5.7-8.5h3.7c1.6,0,1.9,0.4,2.6,1.6      c1.7,2.7,3.7,7.6,4.5,10.7c0.2,0.6,0.3,1.3,0.7,1.3c0.3,0,0.6-0.7,1-1.5l2.9-5.2c1-1.7,1.9-3.9,1.9-5.2c0-0.6-0.2-1.2-0.6-1.7      h5.5l-4.9,7.7c-3,4.6-4.7,6.8-4.7,12.5v1.8c0,1.9,0,4.2,1,5.7L184.2,45L184.2,45z"/>
				<path class="st0" d="M190.3,45.2h-6.5l0.2-0.3c0.9-1.4,0.9-3.6,0.9-5.6v-3.9c0-3-1.3-5.9-3-9.4c-1.8-3.7-4-6.9-5.7-8.5l-0.3-0.3      h4.2c1.6,0,2,0.4,2.8,1.7c1.8,2.8,3.7,7.8,4.5,10.7c0.1,0.5,0.3,1.2,0.5,1.2c0.1,0,0.4-0.5,0.5-0.9c0.1-0.2,0.2-0.4,0.3-0.6      l2.9-5.2c1.2-2.1,1.9-4,1.9-5.1c0-0.7-0.2-1.2-0.6-1.6l-0.3-0.3h6.2l-5.7,8.8c-2.6,4-4.1,6.2-4.1,11.5v1.8c0,1.9,0,4.1,0.9,5.6      L190.3,45.2z M184.5,44.8h5.2c-0.8-1.5-0.8-3.6-0.8-5.5v-1.8c0-5.4,1.5-7.7,4.2-11.7l0.6-0.8l4.8-7.4h-4.7      c0.3,0.4,0.5,0.9,0.5,1.5c0,1.6-1.4,4.2-2,5.2l-2.9,5.2c-0.1,0.2-0.2,0.4-0.3,0.5c-0.3,0.7-0.6,1.1-0.9,1.1      c-0.5,0-0.7-0.7-0.9-1.4c-0.8-3-2.8-8-4.5-10.7c-0.8-1.2-1-1.6-2.5-1.6H177c1.7,1.7,3.7,4.8,5.4,8.3s3.1,6.5,3.1,9.6v3.9      C185.3,41.2,185.3,43.3,184.5,44.8z"/>
			</g>
		</g>
		<g>
			<g>
				<path class="st0" d="M212.4,23.1c0-1.9,0-4.2-1-5.7c3.8,0,7.7-0.4,11.5-0.4c3.4,0,6.4,1.5,6.4,5.2c0,3.8-3,5.6-6.1,6.9v0.1      c4,0.9,7.5,2.5,7.5,7.2c0,6.8-5.2,8.8-11.1,8.8c-2.9,0-5.8-0.2-8.8-0.2c1.4-3.1,1.4-7.5,1.4-10.9v-11H212.4z M216.3,29h1.2      c3.8,0,7.7-1.2,7.7-5.8c0-3.9-2.6-4.5-6.2-4.5c-0.8,0-1.7,0.1-2.7,0.2V29z M216.3,37.4c0,5,0,6.1,2.9,6.1c4.4,0,7.1-1.7,7.1-6.4      c0-5.9-4.3-6.6-9.3-6.6h-0.7V37.4z"/>
				<path class="st0" d="M219.8,45.4c-1.5,0-3,0-4.4-0.1c-1.4,0-2.9-0.1-4.4-0.1h-0.3l0.1-0.3c1.4-3,1.4-7.5,1.4-10.8v-11      c0-1.9,0-4.1-0.9-5.6l-0.2-0.3h0.3c1.9,0,3.9-0.1,5.7-0.2c1.9-0.1,3.9-0.2,5.8-0.2c4.2,0,6.6,2,6.6,5.4c0,3.8-2.9,5.6-5.8,6.9      c3.6,0.9,7.2,2.5,7.2,7.3C231.1,42.3,227.2,45.4,219.8,45.4z M211.3,44.8c1.4,0,2.8,0,4.1,0.1c1.4,0,2.9,0.1,4.4,0.1      c7.2,0,10.9-2.9,10.9-8.7c0-4.7-3.7-6.2-7.3-7h-0.1V29h0.1c2.9-1.2,6-3,6-6.7c0-4.7-4.8-5.1-6.3-5.1c-1.9,0-3.9,0.1-5.7,0.2      s-3.6,0.2-5.5,0.2c0.8,1.5,0.8,3.6,0.8,5.5v11.1C212.6,37.4,212.6,41.7,211.3,44.8z M219.2,43.6c-3.1,0-3.1-1.3-3.1-6.3v-7h0.9      c4.8,0,9.5,0.5,9.5,6.8C226.6,41.5,224.2,43.6,219.2,43.6z M216.5,30.7v6.7c0,5,0,5.9,2.7,5.9c4.7,0,7-2,7-6.2      c0-5.9-4.5-6.4-9.1-6.4C217.1,30.7,216.5,30.7,216.5,30.7z M217.5,29.1h-1.3V18.7h0.3c0.9-0.1,1.8-0.2,2.5-0.2      c3.2,0,6.4,0.4,6.4,4.6C225.4,27,222.6,29.1,217.5,29.1z M216.5,28.8h1c3.4,0,7.5-1,7.5-5.6c0-3.6-2.2-4.3-6-4.3      c-0.8,0-1.6,0.1-2.5,0.2V28.8z"/>
			</g>
			<g>
				<path class="st0" d="M253.7,45L249,32.9h-9.7c-1.9,3.8-3.8,8-3.8,10.5c0,0.6,0,1.1,0.1,1.6h-5.4l1-1.2      c2.5-3.1,11.4-21.7,11.4-25.2v-1.2h5.1c2.8,8.6,5.5,18,9.9,26l0.9,1.6C258.5,45,253.7,45,253.7,45z M245.2,21.9      c-0.1-0.3-0.3-1-0.7-1s-0.6,0.8-0.7,1l-3.8,9.3h8.3L245.2,21.9z"/>
				<path class="st0" d="M258.7,45.2h-5.1v-0.1l-4.7-12h-9.5c-1.9,3.8-3.7,7.9-3.7,10.3c0,0.5,0,1,0.1,1.6v0.2h-6l1.2-1.5      c2.5-3.1,11.3-21.7,11.3-25.1l0.1-1.3h5.4v0.1c0.3,0.9,0.6,1.9,0.9,2.9c2.5,7.9,5.1,16,8.9,23.1L258.7,45.2z M253.9,44.8h4.2      l-0.7-1.3c-3.9-7.1-6.5-15.3-9-23.2c-0.3-0.9-0.6-1.8-0.9-2.7h-4.8v1c0,2.3-3.7,10.4-4.8,12.9c-2.7,5.7-5.5,11-6.6,12.5      l-0.7,0.9h4.8c-0.1-0.5-0.1-1-0.1-1.5c0-2.5,1.8-6.5,3.8-10.6l0.1-0.1h10v0.1L253.9,44.8z M248.5,31.4h-8.8l3.9-9.6      c0.1-0.3,0.4-1.1,0.9-1.1s0.8,0.7,0.9,1.2L248.5,31.4z M240.3,31h7.7l-3-9c-0.2-0.5-0.4-0.9-0.6-0.9c-0.1,0-0.3,0.1-0.5,0.8V22      L240.3,31z"/>
			</g>
			<g>
				<path class="st0" d="M260,45c1.5-3.6,1.5-8.8,1.5-12.6v-9.2c0-2.1-0.1-4.5-1.4-5.8h4.4c0.8,0,1.2,0,1.7,0.7      c0.9,1.2,3.7,5.8,5,7.7l8.6,12.2c0.3,0.4,0.7,1,0.9,1c0.3,0,0.3-0.4,0.3-0.8V22.9c0-2.9-0.4-4.4-1-5.5h4.5c-1,2-1.3,4.2-1.3,6.4      v17.3c0,1.4,0,2.7,0.1,4h-3.1l-15.8-22.6c-0.2-0.3-0.3-0.5-0.5-0.5s-0.3,0.3-0.3,0.6v11.1c0,3.5-0.1,7.8,1.3,11.1H260V45z"/>
				<path class="st0" d="M283.6,45.4h-3.4l-0.1-0.1l-15.9-22.6c-0.1-0.1-0.2-0.3-0.3-0.3c0,0-0.1,0.1-0.1,0.5v11.7      c0,3.3,0,7.4,1.3,10.4l0.1,0.3h-5.5l0.1-0.3c1.5-3.5,1.5-8.7,1.5-12.6v-9.2c0-2.2-0.1-4.4-1.3-5.6l-0.3-0.3h4.8      c0.8,0,1.3,0,1.9,0.8c0.5,0.6,1.4,2.1,2.4,3.6c1,1.6,2,3.2,2.7,4.1l8.6,12.2c0.1,0.1,0.1,0.2,0.2,0.2c0.2,0.2,0.5,0.7,0.6,0.7      s0.1-0.4,0.1-0.6V22.9c0-3.1-0.5-4.5-1-5.5l-0.1-0.3h5.1l-0.1,0.3c-0.9,1.7-1.3,3.7-1.3,6.4v17.3c0,1.3,0,2.6,0.1,3.8      L283.6,45.4z M280.4,45h2.8v-0.1c0-1.2-0.1-2.4-0.1-3.8V23.9c0-2.6,0.4-4.6,1.2-6.3h-3.9c0.5,1,0.9,2.4,0.9,5.4v15.3      c0,0.4,0,1-0.5,1c-0.3,0-0.6-0.4-0.9-0.9c-0.1-0.1-0.1-0.2-0.2-0.2L271.1,26c-0.7-1-1.7-2.6-2.7-4.1c-1-1.6-1.9-3-2.4-3.6      s-0.8-0.6-1.6-0.6h-4c1.1,1.4,1.2,3.5,1.2,5.6v9.2c0,3.8,0,8.9-1.4,12.5h4.4c-1.2-3.1-1.2-7.1-1.2-10.3V23      c0-0.7,0.3-0.8,0.4-0.8c0.3,0,0.4,0.2,0.6,0.5v0.1L280.4,45z"/>
			</g>
			<g>
				<path class="st0" d="M289.5,23.1c0-1.9,0-4.2-1-5.7h5.8c-1,1.5-1,3.7-1,5.7v6.8c2-0.4,4.6-3.5,6.8-6.1c2.3-2.7,3.9-4.5,3.9-5.5      c0-0.3,0-0.6,0-0.8h5.4c-2,1.8-3.7,3.1-5.6,5.2l-6.7,7.3l7.2,10.3c1.2,1.7,2.6,3.4,3.9,4.9h-4.5c-0.8,0-1.2-0.5-1.6-1.2      l-7.8-11.8c-0.2-0.3-0.5-0.7-0.7-0.7s-0.2,0.2-0.2,0.4v7.6c0,1.9,0,4.2,1,5.7h-5.8c1-1.5,1-3.7,1-5.7L289.5,23.1L289.5,23.1z"/>
				<path class="st0" d="M308.5,45.2h-4.9c-0.9,0-1.3-0.5-1.8-1.2L294,32.2c-0.2-0.3-0.4-0.6-0.5-0.6c0,0,0,0.1,0,0.2v7.6      c0,1.9,0,4.1,0.9,5.6l0.2,0.3h-6.5l0.2-0.3c0.9-1.4,0.9-3.6,0.9-5.6V23.1c0-1.9,0-4.1-0.9-5.6l-0.2-0.3h6.5l-0.2,0.3      c-0.9,1.4-0.9,3.6-0.9,5.6v6.5c1.9-0.5,4.3-3.4,6.3-5.8l0.2-0.2c2.2-2.6,3.8-4.4,3.8-5.4c0-0.3,0-0.6,0-0.8l-0.1-0.2h6.1      l-0.4,0.3c-0.4,0.4-0.8,0.7-1.2,1c-1.5,1.3-2.9,2.5-4.4,4.1l-6.6,7.2l7.1,10.1c1.1,1.6,2.5,3.3,3.9,4.9L308.5,45.2z M293.5,31.2      c0.3,0,0.7,0.6,0.8,0.8l7.8,11.8c0.5,0.7,0.8,1.1,1.5,1.1h4.2c-1.3-1.6-2.6-3.1-3.7-4.7l-7.3-10.4l6.8-7.4      c1.5-1.7,2.9-2.8,4.4-4.1c0.3-0.2,0.5-0.5,0.8-0.7h-4.7c0,0.2,0,0.4,0,0.6c0,1.1-1.5,2.9-3.9,5.7l-0.2,0.2      c-2.2,2.6-4.7,5.5-6.7,5.9h-0.2v-7c0-1.9,0-4,0.8-5.5h-5.2c0.8,1.5,0.8,3.6,0.8,5.5v16.3c0,1.9,0,4-0.8,5.5h5.2      c-0.8-1.5-0.8-3.6-0.8-5.5v-7.6C293.2,31.6,293.2,31.2,293.5,31.2z"/>
			</g>
		</g>
	</g>
</g>
<g>
	<g>
		<path class="st3" d="M41.3,52.6c0,1.8-1.4,3.2-3.2,3.2c-1.8,0-3.2-1.4-3.2-3.2c0-1.8,1.4-3.2,3.2-3.2    C39.9,49.4,41.3,50.8,41.3,52.6z M35.4,52.6c0,1.5,1.2,2.7,2.7,2.7c1.5,0,2.7-1.2,2.7-2.7c0-1.5-1.2-2.7-2.7-2.7    C36.7,49.9,35.4,51.1,35.4,52.6z M37.6,54.4H37v-3.7h1.5c0.7,0,1,0.5,1,0.9c0,0.4-0.3,0.8-0.8,0.8v0c0.5,0.1,0.6,0.2,0.6,0.9    c0,0.2,0.1,0.7,0.1,1h-0.6c-0.1-0.3-0.1-0.7-0.2-1.2c0-0.4-0.4-0.4-0.5-0.4h-0.6V54.4z M37.6,52.3h0.8c0.4,0,0.5-0.3,0.5-0.6    c0-0.3-0.1-0.6-0.5-0.6h-0.8V52.3z"/>
	</g>
</g>
</svg>