<svg width="155" height="65" viewBox="0 0 155 65" fill="none" xmlns="http://www.w3.org/2000/svg">
<g clip-path="url(#clip0_718_40)">
<path fill-rule="evenodd" clip-rule="evenodd" d="M122.163 3.94499C121.594 4.96665 120.906 5.91672 120.112 6.77499C119.333 7.61799 118.389 8.42299 117.277 9.18999V9.64199H118.892V16.165C118.892 17.456 118.935 18.249 119.025 18.54C119.173 19.067 119.519 19.544 120.059 19.975C120.605 20.397 121.272 20.608 122.057 20.608C123.664 20.608 124.826 19.78 125.539 18.128L125.144 17.844C124.631 18.696 124.087 19.122 123.514 19.122C123.372 19.122 123.218 19.062 123.051 18.942C122.886 18.8163 122.762 18.6453 122.693 18.45C122.632 18.244 122.6 17.792 122.6 17.095V9.64199H125.539V8.362H122.599V3.94599H122.163V3.94499ZM115.592 8.027C115.381 8.328 115.224 8.51399 115.128 8.58199C115.011 8.64677 114.879 8.67792 114.745 8.67199C114.595 8.67199 114.399 8.60799 114.161 8.47899C113.56 8.16613 112.893 8.00187 112.216 7.99999C110.97 7.99999 110.017 8.37999 109.356 9.13599C108.701 9.88499 108.376 10.725 108.376 11.656C108.376 12.508 108.667 13.288 109.251 13.993C109.646 14.475 110.519 15.173 111.871 16.086C112.789 16.696 113.381 17.154 113.645 17.455C113.911 17.755 114.041 18.113 114.041 18.527C114.041 18.889 113.906 19.199 113.633 19.457C113.367 19.706 113.024 19.831 112.599 19.831C111.979 19.831 111.325 19.547 110.624 18.98C109.937 18.41 109.394 17.558 108.999 16.421H108.548L108.76 20.761H109.197C109.389 20.331 109.633 20.115 109.925 20.115C110.022 20.116 110.204 20.164 110.465 20.258C111.458 20.619 112.245 20.801 112.838 20.801C113.563 20.8088 114.279 20.6309 114.916 20.284C115.539 19.9445 116.046 19.4271 116.373 18.798C116.706 18.1924 116.883 17.5133 116.888 16.822C116.897 16.1058 116.679 15.4052 116.266 14.82C115.86 14.217 115.009 13.489 113.711 12.637C112.413 11.777 111.621 11.168 111.341 10.816C111.166 10.601 111.077 10.376 111.077 10.144C111.077 9.83399 111.205 9.564 111.46 9.331C111.583 9.21261 111.729 9.1197 111.888 9.05759C112.047 8.99547 112.217 8.96536 112.388 8.96899C112.961 8.96899 113.534 9.19299 114.11 9.64099C114.691 10.088 115.25 10.923 115.79 12.146H116.24L116.043 8.02599H115.592V8.027ZM97.566 8.36299V8.83999C97.991 8.88399 98.286 8.96099 98.453 9.07299C98.62 9.18499 98.75 9.36199 98.838 9.60299C98.906 9.79299 98.943 10.232 98.943 10.92V17.598C98.942 18.648 98.846 19.299 98.651 19.548C98.466 19.79 98.105 19.931 97.566 19.975V20.44H104.253V19.975C103.76 19.949 103.405 19.885 103.195 19.781C102.987 19.6652 102.823 19.4837 102.729 19.265C102.667 19.127 102.639 18.812 102.639 18.321L102.625 17.598V14.82C102.625 13.813 102.766 12.89 103.047 12.055C103.235 11.513 103.507 11.095 103.869 10.803C104.099 10.613 104.341 10.518 104.597 10.518C104.713 10.518 104.814 10.544 104.903 10.596C104.962 10.631 105.166 10.794 105.51 11.087C105.856 11.38 106.261 11.526 106.729 11.526C107.136 11.526 107.481 11.367 107.762 11.049C108.054 10.729 108.199 10.282 108.199 9.70499C108.199 9.16199 108.049 8.74499 107.749 8.45199C107.458 8.15099 107.065 7.99999 106.569 7.99999C105.996 7.99999 105.399 8.20599 104.784 8.61999C104.164 9.02499 103.444 9.85199 102.625 11.1V8.36299H97.566ZM95.225 8.36299V17.935C95.225 18.787 95.326 19.333 95.529 19.574C95.73 19.807 96.128 19.94 96.72 19.974V20.44H90.03V19.975C90.58 19.958 90.986 19.803 91.251 19.509C91.427 19.312 91.516 18.787 91.516 17.935V10.88C91.516 10.027 91.413 9.48499 91.211 9.25199C91.008 9.01199 90.615 8.87399 90.031 8.83899V8.362L95.225 8.36299ZM93.37 2.51199C93.943 2.51199 94.428 2.70899 94.827 3.10499C95.225 3.49299 95.422 3.96199 95.422 4.51399C95.422 5.06499 95.219 5.53399 94.813 5.92199C94.6237 6.11059 94.3984 6.25915 94.1505 6.35879C93.9026 6.45844 93.6371 6.50714 93.37 6.50199C93.1029 6.50697 92.8375 6.45819 92.5896 6.35855C92.3417 6.25892 92.1164 6.11045 91.927 5.92199C91.735 5.74174 91.5828 5.52341 91.48 5.28097C91.3772 5.03852 91.3261 4.7773 91.33 4.51399C91.33 3.96199 91.53 3.49399 91.927 3.10499C92.1144 2.91301 92.3391 2.76138 92.5872 2.6594C92.8354 2.55742 93.1018 2.50726 93.37 2.51199ZM83.78 3.93199C85.21 3.93199 86.19 3.99599 86.72 4.12599C87.682 4.35799 88.415 4.75799 88.918 5.32699C89.431 5.89699 89.748 6.76999 89.872 7.94999H90.415V2.92499H75.266V3.40199H75.861C76.364 3.40199 76.761 3.48899 77.054 3.66199C77.354 3.82399 77.552 4.01899 77.65 4.24199C77.746 4.46599 77.795 5.02599 77.795 5.92199V17.442C77.794 18.322 77.745 18.864 77.65 19.071C77.525 19.363 77.35 19.571 77.12 19.691C76.801 19.871 76.382 19.961 75.86 19.961H75.266V20.44H84.654V19.962H84.058C83.553 19.962 83.153 19.88 82.854 19.716C82.561 19.544 82.364 19.346 82.258 19.122C82.161 18.899 82.113 18.339 82.113 17.442V12.082H82.628C83.574 12.082 84.415 12.35 85.157 12.884C85.908 13.409 86.367 14.502 86.534 16.164H86.998V7.36899H86.534C86.429 8.30799 86.199 9.05199 85.846 9.60299C85.502 10.155 85.079 10.546 84.574 10.779C84.07 11.012 83.423 11.127 82.628 11.127H82.113V3.93199H83.78ZM150.854 29.705V30.182C151.402 30.2 151.782 30.304 151.994 30.492C152.214 30.682 152.324 30.936 152.324 31.254C152.324 31.764 152.063 32.667 151.544 33.967L150.1 37.623L147.98 32.895C147.54 31.931 147.319 31.285 147.319 30.958C147.319 30.8553 147.344 30.7541 147.389 30.6622C147.435 30.5704 147.501 30.4902 147.583 30.428C147.76 30.283 148.066 30.2 148.499 30.182V29.705H140.015V25.287H139.579C139.01 26.3087 138.321 27.2582 137.525 28.115C136.75 28.96 135.805 29.765 134.691 30.531V30.983H136.305V37.507C136.305 38.799 136.352 39.59 136.438 39.882C136.59 40.409 136.934 40.885 137.472 41.317C138.02 41.739 138.686 41.95 139.472 41.95C141.078 41.95 142.239 41.124 142.954 39.47L142.557 39.185C142.044 40.038 141.502 40.465 140.927 40.465C140.787 40.465 140.633 40.404 140.464 40.285C140.299 40.1594 140.175 39.9878 140.108 39.792C140.046 39.586 140.015 39.134 140.015 38.436V30.983H143.076C143.363 31.373 143.768 32.153 144.287 33.321L148.287 42.272L147.901 43.28C147.424 44.57 147.011 45.399 146.658 45.762C146.42 46.009 146.193 46.136 145.981 46.136C145.923 46.1386 145.865 46.1268 145.812 46.1017C145.759 46.0766 145.714 46.0389 145.679 45.992C145.607 45.898 145.567 45.688 145.559 45.36C145.549 44.784 145.409 44.357 145.134 44.082C144.869 43.806 144.516 43.667 144.076 43.667C143.616 43.667 143.226 43.832 142.911 44.159C142.601 44.487 142.446 44.899 142.446 45.399C142.446 45.976 142.671 46.466 143.122 46.871C143.581 47.284 144.177 47.491 144.909 47.491C145.828 47.491 146.591 47.129 147.199 46.406C147.633 45.89 148.296 44.51 149.187 42.272L152.723 33.321C153.323 31.797 153.75 30.906 154.006 30.648C154.264 30.38 154.596 30.226 155 30.182V29.705H150.854ZM133.269 29.705V39.275C133.269 40.129 133.371 40.675 133.575 40.916C133.778 41.149 134.174 41.283 134.766 41.316V41.781H128.077V41.317C128.625 41.299 129.031 41.144 129.297 40.851C129.472 40.655 129.562 40.129 129.562 39.276V32.223C129.562 31.371 129.459 30.828 129.257 30.596C129.054 30.355 128.661 30.218 128.077 30.182V29.705H133.269ZM131.416 23.854C131.992 23.854 132.474 24.051 132.872 24.448C133.269 24.835 133.468 25.305 133.468 25.856C133.468 26.407 133.265 26.876 132.858 27.264C132.669 27.4527 132.444 27.6013 132.196 27.7011C131.948 27.801 131.683 27.8499 131.416 27.845C131.149 27.8498 130.883 27.8009 130.635 27.7011C130.388 27.6013 130.162 27.4526 129.973 27.264C129.781 27.0836 129.629 26.8653 129.527 26.6228C129.424 26.3804 129.373 26.1192 129.377 25.856C129.377 25.305 129.575 24.836 129.973 24.448C130.16 24.2559 130.385 24.1042 130.633 24.002C130.881 23.8999 131.148 23.8495 131.416 23.854ZM120.552 24.266V24.744C121.133 24.779 121.527 24.917 121.729 25.158C121.932 25.391 122.034 25.929 122.034 26.772V39.276C122.034 40.129 121.946 40.656 121.769 40.851C121.503 41.144 121.099 41.299 120.552 41.317V41.781H127.238V41.317C126.646 41.283 126.25 41.149 126.046 40.917C125.844 40.675 125.742 40.129 125.742 39.276V24.266H120.552ZM117.178 34.446C117.178 33.059 117.098 32.107 116.939 31.591C116.789 31.074 116.549 30.682 116.225 30.415C116.04 30.26 115.79 30.182 115.482 30.182C115.022 30.182 114.649 30.402 114.357 30.842C113.836 31.608 113.575 32.658 113.575 33.994V34.446H117.178ZM120.434 35.309H113.642C113.722 36.912 114.158 38.178 114.952 39.107C115.562 39.822 116.295 40.179 117.152 40.179C117.679 40.179 118.16 40.038 118.595 39.754C119.026 39.461 119.49 38.94 119.985 38.19L120.435 38.476C119.764 39.81 119.021 40.756 118.21 41.316C117.398 41.868 116.458 42.143 115.39 42.143C113.555 42.143 112.164 41.455 111.218 40.077C110.46 38.965 110.078 37.59 110.078 35.943C110.078 33.928 110.635 32.326 111.748 31.138C112.868 29.942 114.181 29.343 115.682 29.343C116.933 29.343 118.02 29.846 118.939 30.854C119.865 31.854 120.364 33.339 120.434 35.309ZM105.158 32.456C104.505 31.233 103.706 30.622 102.762 30.621C102.434 30.621 102.166 30.708 101.953 30.881C101.627 31.148 101.359 31.617 101.146 32.289C100.943 32.959 100.842 33.989 100.842 35.375C100.842 36.9 100.957 38.028 101.187 38.759C101.415 39.492 101.728 40.021 102.126 40.349C102.328 40.512 102.607 40.594 102.961 40.594C103.737 40.594 104.47 39.999 105.158 38.81V32.456ZM108.866 24.266V38.166C108.866 39.104 108.892 39.66 108.946 39.832C109.016 40.115 109.149 40.328 109.343 40.465C109.546 40.603 109.895 40.689 110.39 40.723V41.149L105.158 42.143V40.232C104.531 40.972 103.972 41.477 103.476 41.742C102.991 42.012 102.44 42.142 101.822 42.142C100.242 42.142 98.992 41.455 98.072 40.077C97.332 38.959 96.962 37.584 96.962 35.957C96.962 34.656 97.192 33.495 97.651 32.469C98.11 31.436 98.736 30.657 99.531 30.132C100.333 29.606 101.195 29.343 102.112 29.343C102.704 29.343 103.229 29.455 103.689 29.679C104.148 29.903 104.637 30.295 105.158 30.854V27.212C105.158 26.291 105.118 25.735 105.038 25.546C104.946 25.3129 104.778 25.1173 104.562 24.99C104.352 24.87 103.953 24.81 103.372 24.81V24.266H108.866ZM95.442 29.705V39.275C95.442 40.129 95.544 40.675 95.747 40.916C95.95 41.149 96.347 41.283 96.937 41.316V41.781H90.252V41.317C90.799 41.299 91.205 41.144 91.469 40.851C91.646 40.655 91.735 40.129 91.735 39.276V32.223C91.735 31.371 91.632 30.828 91.429 30.596C91.228 30.355 90.834 30.218 90.252 30.182V29.705H95.442ZM93.587 23.854C94.162 23.854 94.647 24.051 95.045 24.448C95.442 24.835 95.641 25.305 95.641 25.856C95.641 26.407 95.437 26.876 95.031 27.264C94.8416 27.4528 94.6162 27.6015 94.3681 27.7014C94.12 27.8012 93.8544 27.85 93.587 27.845C93.3201 27.8497 93.055 27.8008 92.8075 27.7009C92.5599 27.6011 92.335 27.4525 92.146 27.264C91.9537 27.084 91.8011 26.8657 91.6981 26.6232C91.5951 26.3808 91.544 26.1194 91.548 25.856C91.548 25.305 91.748 24.836 92.146 24.448C92.3329 24.2562 92.5571 24.1045 92.8047 24.0024C93.0523 23.9002 93.3192 23.8497 93.587 23.854ZM83.779 25.274C85.21 25.274 86.19 25.339 86.719 25.468C87.682 25.701 88.415 26.102 88.918 26.669C89.431 27.238 89.748 28.112 89.872 29.292H90.415V24.266H75.266V24.744H75.861C76.364 24.744 76.761 24.83 77.054 25.002C77.354 25.167 77.552 25.361 77.65 25.584C77.746 25.809 77.795 26.368 77.795 27.264V38.784C77.794 39.664 77.745 40.207 77.65 40.412C77.525 40.706 77.35 40.912 77.12 41.032C76.801 41.213 76.382 41.304 75.86 41.304H75.266V41.781H84.654V41.304H84.058C83.553 41.304 83.153 41.222 82.854 41.059C82.561 40.885 82.364 40.689 82.258 40.465C82.161 40.24 82.113 39.68 82.113 38.785V33.425H82.628C83.574 33.425 84.415 33.692 85.157 34.225C85.908 34.751 86.367 35.844 86.534 37.507H86.998V28.71H86.534C86.429 29.65 86.199 30.394 85.846 30.945C85.502 31.495 85.079 31.887 84.574 32.12C84.07 32.352 83.423 32.469 82.628 32.469H82.113V25.274H83.779ZM117.489 45.829V46.308C118.034 46.375 118.392 46.522 118.56 46.747C118.737 46.97 118.825 47.539 118.825 48.452V60.72C118.825 61.642 118.75 62.198 118.6 62.387C118.378 62.663 118.008 62.826 117.489 62.879V63.343H123.883V62.879C123.336 62.82 122.974 62.676 122.797 62.452C122.62 62.219 122.534 61.642 122.534 60.72V58.552L123.328 57.789L125.778 61.289C126.148 61.825 126.335 62.189 126.335 62.387C126.335 62.51 126.268 62.62 126.135 62.721C126.011 62.826 125.807 62.879 125.526 62.879V63.343H131.921V62.879C131.463 62.844 131.083 62.681 130.783 62.387C130.563 62.18 129.865 61.234 128.691 59.547L125.778 55.387L127.128 54.094C128.284 52.994 129.061 52.334 129.458 52.118C129.856 51.895 130.321 51.77 130.848 51.743V51.266H125.3V51.743C125.865 51.813 126.246 51.926 126.44 52.081C126.531 52.148 126.604 52.2355 126.655 52.3362C126.705 52.437 126.731 52.5483 126.731 52.661C126.731 52.894 126.656 53.135 126.506 53.384C126.364 53.634 125.998 54.039 125.407 54.599L122.534 57.349V45.829H117.489ZM103.734 51.267V51.744C104.279 51.814 104.637 51.96 104.806 52.182C104.982 52.409 105.072 52.975 105.072 53.89V60.71C105.072 61.64 104.996 62.2 104.847 62.388C104.625 62.664 104.253 62.827 103.734 62.88V63.344H109.998V62.88C109.529 62.821 109.207 62.668 109.032 62.428C108.863 62.187 108.779 61.613 108.779 60.709V54.237C109.432 53.178 110.138 52.648 110.897 52.648C111.126 52.648 111.334 52.722 111.519 52.868C111.714 53.006 111.851 53.205 111.931 53.463C112.01 53.72 112.05 54.345 112.05 55.337V60.709C112.05 61.562 111.98 62.096 111.837 62.311C111.634 62.628 111.297 62.821 110.831 62.88V63.344H117.095V62.88C116.545 62.821 116.185 62.677 116.01 62.453C115.841 62.22 115.757 61.64 115.757 60.709V56.008C115.757 54.611 115.687 53.67 115.547 53.178C115.374 52.5404 115.002 51.9748 114.485 51.564C113.955 51.124 113.289 50.904 112.485 50.904C111.815 50.904 111.188 51.059 110.605 51.37C110.024 51.672 109.414 52.16 108.779 52.83V51.267H103.734ZM98.309 60.617V56.577C97.238 57.188 96.445 57.842 95.922 58.539C95.58 59.005 95.408 59.475 95.408 59.946C95.408 60.345 95.554 60.693 95.844 60.994C96.066 61.226 96.374 61.343 96.772 61.343C97.212 61.343 97.725 61.102 98.309 60.617ZM98.309 61.562C96.799 62.863 95.442 63.512 94.243 63.512C93.536 63.512 92.949 63.288 92.482 62.841C92.013 62.384 91.78 61.816 91.78 61.136C91.78 60.213 92.184 59.388 92.997 58.656C93.81 57.916 95.58 56.934 98.309 55.711V54.497C98.309 53.582 98.255 53.011 98.149 52.778C98.052 52.536 97.862 52.332 97.579 52.16C97.2949 51.9767 96.963 51.8814 96.625 51.886C96.053 51.886 95.58 52.011 95.208 52.26C94.979 52.415 94.864 52.597 94.864 52.804C94.864 52.986 94.989 53.208 95.235 53.474C95.571 53.845 95.737 54.204 95.737 54.547C95.737 54.968 95.575 55.331 95.249 55.633C94.93 55.927 94.512 56.072 93.991 56.072C93.434 56.072 92.968 55.908 92.586 55.581C92.217 55.254 92.031 54.871 92.031 54.433C92.031 53.812 92.281 53.222 92.785 52.663C93.288 52.093 93.991 51.659 94.89 51.356C95.79 51.056 96.728 50.904 97.699 50.904C98.872 50.904 99.8 51.151 100.479 51.641C101.169 52.124 101.615 52.648 101.818 53.219C101.941 53.579 102.003 54.409 102.003 55.711V60.399C102.003 60.951 102.023 61.299 102.07 61.446C102.112 61.583 102.18 61.688 102.267 61.755C102.353 61.8243 102.461 61.8608 102.571 61.858C102.801 61.858 103.033 61.698 103.273 61.38L103.669 61.69C103.229 62.328 102.77 62.793 102.293 63.087C101.809 63.3745 101.254 63.5217 100.691 63.512C99.985 63.512 99.434 63.353 99.036 63.033C98.639 62.708 98.395 62.215 98.309 61.562ZM81.675 54.716V60.334L81.662 60.981C81.662 61.446 81.781 61.799 82.02 62.038C82.265 62.271 82.626 62.388 83.105 62.388C83.7803 62.3955 84.4476 62.2412 85.051 61.938C85.6335 61.6432 86.1129 61.1788 86.426 60.606C86.746 60.021 86.905 59.37 86.905 58.656C86.905 57.836 86.71 57.107 86.322 56.46C85.932 55.806 85.4 55.35 84.72 55.09C84.041 54.833 83.025 54.708 81.675 54.716ZM81.675 53.707C82.927 53.707 83.851 53.57 84.441 53.294C85.041 53.019 85.5 52.631 85.819 52.132C86.137 51.632 86.296 50.996 86.296 50.22C86.296 49.446 86.136 48.813 85.819 48.321C85.508 47.822 85.065 47.444 84.481 47.185C83.899 46.927 82.962 46.803 81.675 46.811V53.707ZM86.493 54.059C88.197 54.444 89.393 54.915 90.083 55.465C91.073 56.248 91.566 57.266 91.566 58.514C91.566 59.831 91.022 60.921 89.936 61.782C88.604 62.824 86.665 63.344 84.123 63.344H75V62.866C75.83 62.866 76.39 62.793 76.682 62.649C76.982 62.491 77.189 62.294 77.304 62.052C77.427 61.812 77.489 61.217 77.489 60.271V48.903C77.489 47.956 77.427 47.362 77.304 47.121C77.189 46.871 76.982 46.673 76.682 46.528C76.382 46.38 75.822 46.308 75 46.308V45.828H83.607C85.664 45.828 87.121 46.009 87.977 46.371C88.833 46.726 89.507 47.259 90.004 47.974C90.497 48.679 90.744 49.432 90.744 50.234C90.744 51.077 90.433 51.832 89.804 52.494C89.177 53.148 88.074 53.67 86.494 54.059H86.493Z" fill="#1C325F"/>
<mask id="mask0_718_40" style="mask-type:luminance" maskUnits="userSpaceOnUse" x="0" y="0" width="68" height="65">
<path d="M0 0.511993H68V64.512H0V0.511993Z" fill="white"/>
</mask>
<g mask="url(#mask0_718_40)">
<path fill-rule="evenodd" clip-rule="evenodd" d="M65.41 0.511993H2.59C1.16 0.511993 0 1.62799 0 3.00299V62.022C0 63.397 1.16 64.512 2.59 64.512H65.41C66.84 64.512 68 63.397 68 62.022V3.00199C68 1.62799 66.84 0.511993 65.41 0.511993Z" fill="white"/>
</g>
<path fill-rule="evenodd" clip-rule="evenodd" d="M63.453 3.51199H4.547C3.141 3.51199 2 4.62299 2 5.99399V12.618C7.187 10.817 12.567 9.34599 18.181 9.42999C21.436 9.53799 24.767 10.18 26.475 13.023C27.945 15.492 25.502 17.463 25.921 19.958C26.275 21.596 26.799 22.432 28.324 23.037C29.412 23.42 30.568 23.512 32.231 23.512H66V5.99399C66 4.62399 64.86 3.51199 63.453 3.51199Z" fill="#1C325F"/>
<path fill-rule="evenodd" clip-rule="evenodd" d="M50.544 23.31H65.268L62.202 29.556L54.072 29.598L50.769 36.329L58.856 36.373L56.216 41.752H48.108L41.91 54.377H35.295L50.53 23.337L50.544 23.31H34.043H48.77L45.704 29.556L37.574 29.598L34.271 36.329L42.358 36.373L39.718 41.752H31.609L25.412 54.377H18.798L34.033 23.337L34.046 23.31H32.23C30.567 23.31 29.411 23.216 28.323 22.824C29.411 23.216 30.413 23.31 32.049 23.31L30.022 27.44C29.7235 28.0466 29.261 28.5574 28.6869 28.9145C28.1128 29.2715 27.4501 29.4605 26.774 29.46H26.768C26.6824 29.4638 26.5967 29.4655 26.511 29.465C26.2603 29.4677 26.0096 29.4567 25.76 29.432C24.415 29.285 23.167 28.696 22.256 27.635C20.232 24.499 25.061 22.611 23.592 19.366C23.054 17.976 21.799 17.257 20.443 16.859C19.5975 16.6193 18.7218 16.5025 17.843 16.512C12.149 16.519 7.25002 17.538 2.00002 19.696V26.003C2.00002 26.003 12.728 21.721 17.131 23.788C18.343 24.344 19.737 25.328 20.156 26.632C20.567 27.917 19.9 29.102 19.241 30.132C18.649 31.054 18.563 32.595 19.145 33.543C20.682 35.712 23.936 35.12 26.245 34.729L26.469 34.679L23.451 40.828C23.2596 41.2171 22.963 41.5448 22.5948 41.7738C22.2267 42.0029 21.8016 42.1242 21.368 42.124H19.502L19.504 42.116C18.378 42.076 17.314 41.811 16.492 40.983C14.125 38.805 17.522 36.78 16.53 34.336C15.786 32.668 13.867 32.212 12.178 31.966C8.49002 31.794 5.50002 32.19 2.00002 33.916V39.664C3.77902 39.044 5.47902 38.574 7.25902 38.337C8.31802 38.197 9.39102 38.167 10.452 38.287C11.708 38.431 12.944 38.773 13.455 39.77C13.608 40.068 13.662 40.407 13.652 40.741C13.601 42.406 12.728 43.805 13.142 45.532C14.03 47.872 17.511 47.812 19.997 47.867L18.04 51.85C17.6668 52.6086 17.0886 53.2474 16.3708 53.6941C15.653 54.1407 14.8244 54.3773 13.979 54.377H13.245L13.249 54.366C12.165 54.308 11.152 53.968 10.622 52.974C9.85702 50.987 10.745 48.797 10.392 46.711C10.249 46.089 9.68202 45.596 9.01802 45.444C6.47202 44.994 4.15102 46.102 1.99902 47.142V59.972C1.99902 61.375 3.13902 62.512 4.54602 62.512H63.452C63.7861 62.5127 64.1171 62.4475 64.426 62.3201C64.7349 62.1928 65.0157 62.0059 65.2524 61.77C65.489 61.5341 65.6768 61.2539 65.8051 60.9454C65.9334 60.6369 65.9996 60.3061 66 59.972V23.31H50.544Z" fill="#E92829"/>
</g>
<defs>
<clipPath id="clip0_718_40">
<rect width="155" height="65" fill="white"/>
</clipPath>
</defs>
</svg>
