<svg width="293" height="91" viewBox="0 0 293 91" fill="none" xmlns="http://www.w3.org/2000/svg">
<path d="M119.617 37.6405C119.257 37.3105 118.707 37.2005 118.267 36.9405C117.107 36.2405 116.257 36.8105 115.547 37.6605C114.777 38.5805 115.757 39.0105 116.217 39.5605C116.387 39.7605 116.577 39.9505 116.767 40.1105C121.347 43.9805 121.447 49.3005 120.517 54.3605C119.737 58.6205 117.607 62.6205 115.197 66.3805C111.927 71.4705 107.707 75.7105 103.257 79.6805C99.4665 83.0705 94.8765 84.9505 89.5965 84.7605C85.4165 84.6205 83.8865 83.0305 83.6265 78.9605C83.2465 72.9705 85.1065 67.4005 86.6065 61.7605C88.5065 54.6005 91.4965 47.8105 94.1965 40.9305C95.2465 38.2405 96.5765 35.6505 97.8965 33.0705C98.2565 32.3605 98.8865 31.5205 99.5865 31.2605C107.657 28.3605 115.097 24.3605 122.157 19.5105C124.507 17.8905 126.187 15.8705 127.557 13.6605C130.867 8.3105 126.757 1.4305 120.407 1.3605C118.607 1.3405 116.887 1.6505 115.097 2.0005C107.497 3.5005 100.757 6.9205 94.7165 11.4405C90.0665 14.9305 86.1065 19.3705 82.8765 24.3105C80.9965 27.1805 79.2365 30.1205 77.5465 33.1005C77.0265 34.0105 76.7165 34.8205 75.5165 35.1705C72.9865 35.9005 70.5365 36.8605 68.0465 37.7205C67.5965 37.8805 67.1365 38.0205 66.6765 38.1705C66.5765 37.5705 66.2765 36.9005 66.4365 36.3805C67.0965 34.2305 67.9365 32.1305 68.6265 29.9705C71.1265 22.0005 73.5565 14.0105 79.8365 7.9505C80.0765 7.7205 80.3165 7.3605 80.3165 7.0605C80.3165 6.5405 78.6365 5.5705 78.0265 5.6705C75.6465 6.0605 73.3465 6.9705 70.8965 6.7505C69.5165 6.6205 68.1665 6.1205 66.7965 6.0805C62.9365 5.9805 59.3665 4.6505 55.6665 3.8105C49.3665 2.3705 43.2365 -0.219497 36.3765 0.680503C29.0865 -0.409497 22.3865 2.4005 16.0865 5.6005C8.45652 9.4905 3.32652 16.0005 0.696518 24.2905C0.446518 25.1005 -0.503482 25.5005 0.346518 26.3305C1.08652 27.0405 2.78652 26.3505 3.36652 25.7605C3.86652 25.2405 4.13652 24.5405 4.44652 23.8905C7.59652 17.3305 16.5265 15.3105 23.1465 16.5005C25.2165 16.8705 27.2465 16.8705 29.2865 17.1105C31.4465 17.3605 33.6065 17.7505 35.7765 17.8305C42.9065 18.0805 49.9465 17.8905 56.8965 16.1105C60.6865 15.1405 64.5265 12.8105 68.3765 12.4905C68.6465 12.4705 66.6865 14.1505 66.5865 14.2205C65.5165 15.0005 64.3565 15.6605 63.2765 16.4305C61.1065 17.9805 59.0265 19.6605 57.0765 21.4905C53.2865 25.0505 49.8465 29.2605 48.0265 34.1805C46.8565 37.3605 44.7465 40.1105 44.1065 43.5405C43.7565 45.4205 43.1165 47.2105 40.6665 47.8805C38.6365 48.4305 36.9265 50.0305 34.9365 50.7905C25.5865 54.3805 17.3365 59.5405 10.3665 66.7805C6.95652 70.3305 5.27652 74.3405 5.40652 79.2505C5.51652 83.2305 7.51652 85.9205 10.7065 87.9905C15.7065 91.2505 20.9465 90.2805 26.2165 88.9105C30.2765 87.8605 33.9965 86.0405 37.5865 83.9105C42.7265 80.8705 47.2365 77.1805 50.8465 72.3405C52.9165 69.5605 54.5765 66.5905 56.3965 63.6805C59.9165 58.0305 61.9665 51.8405 63.9965 45.6205C64.4265 44.3205 64.7165 42.8505 66.1865 42.2305C68.7265 41.1705 71.2865 40.1605 73.8565 39.1405C74.0665 39.0505 74.3565 39.1405 74.6065 39.1605C74.5465 39.4505 74.5165 39.7405 74.4065 40.0005C71.5365 47.3505 68.5565 54.6605 65.8065 62.0505C64.0265 66.8405 62.6665 71.7905 63.1365 76.9805C63.4265 80.1705 64.1565 83.2005 66.7765 85.5405C70.0765 88.4905 74.1465 89.6305 78.2565 90.0005C81.9365 90.3205 85.6965 90.2905 89.4965 89.5305C94.3865 88.5605 99.0265 87.0605 103.457 84.9605C109.977 81.8705 115.577 77.5205 120.437 72.1405C124.477 67.6705 127.367 62.7205 128.447 56.8405C128.917 54.3205 128.817 51.7505 128.257 49.1705C127.117 43.9805 123.177 40.9405 119.597 37.6205L119.617 37.6405ZM102.607 24.8905C102.827 22.7505 104.377 21.2305 105.447 19.5905C108.337 15.1405 111.797 11.0905 115.747 7.4805C117.467 5.9105 119.327 5.0005 121.687 5.1805C123.157 5.2905 123.647 6.2605 123.387 7.9405C122.817 11.8005 119.867 13.9605 117.217 16.0705C113.447 19.0905 109.267 21.5905 105.207 24.2305C104.507 24.6805 103.537 24.7105 102.687 24.9405C102.517 25.1805 102.337 25.4105 102.167 25.6405C102.087 25.5505 102.017 25.4705 101.937 25.3905C102.157 25.2205 102.387 25.0405 102.607 24.8605V24.8905ZM40.9165 53.6005C38.5765 59.0205 36.3565 64.5005 33.8465 69.8305C31.9965 73.7605 29.4765 77.3805 26.4965 80.5005C23.7665 83.3605 20.5065 85.7805 16.0365 85.8005C14.8165 85.5005 13.4465 85.4405 12.4065 84.8305C10.8665 83.9405 10.5665 81.3905 11.3965 79.2305C12.4165 76.5505 14.2365 74.3505 16.1065 72.3005C20.3065 67.7405 25.0265 63.7905 30.1265 60.1705C33.4565 57.8005 36.8465 55.4705 40.1165 53.0105C40.3165 52.8605 40.6565 52.9105 40.9365 52.8605C40.9365 53.1105 41.0065 53.4005 40.9165 53.6005Z" fill="#053304"/>
<path d="M260.988 36.52H150.678C152.068 33.91 154.278 29.92 156.608 25.72C157.928 27.55 160.028 29.05 162.298 29.05C162.908 29.05 163.568 28.94 164.228 28.66C169.748 28.66 172.838 26.73 175.778 23.37C175.858 23.84 175.988 24.26 176.138 24.61C177.028 26.55 181.438 28.6 183.758 28.6C186.738 28.6 190.058 26.99 192.808 24.33C192.878 24.26 192.938 24.2 193.018 24.12C193.748 25.84 195.378 27.79 196.288 28.21C197.278 28.71 198.328 28.93 199.538 28.93C203.528 28.93 207.238 26.3 209.838 23.53C210.888 26.59 214.458 29.21 216.648 29.21C219.408 29.21 221.998 27.33 224.158 25.22C225.098 25.61 225.978 25.72 226.868 25.72C227.758 25.72 228.548 25.56 229.318 25.28C229.268 25.48 229.248 25.65 229.248 25.78C229.248 26.39 231.848 28.83 233.718 28.83C234.218 28.83 234.608 28.66 234.878 28.28C237.908 24.12 241.888 20.46 245.858 17.14C244.538 19.69 242.658 23.46 242.658 24.29C242.658 27.23 246.908 29.89 248.008 29.89C252.318 29.89 259.268 21.91 260.648 19.97C260.868 19.64 260.978 19.25 260.978 18.97C260.978 18.08 260.258 17.42 259.488 17.42C259.048 17.42 258.558 17.64 258.108 18.2C257.058 19.64 251.758 25.68 249.878 25.68C249.658 25.68 249.548 25.68 249.548 25.35C249.548 22.97 253.468 17.03 255.848 14.26C256.128 13.93 256.238 13.32 256.238 12.6C256.238 10.44 255.138 7.39 253.258 7.39C251.378 7.39 244.208 14.26 240.728 17.53C241.888 15.37 244.428 12.21 244.428 11.93C244.428 10.32 240.618 8.88 239.688 8.88C238.278 8.88 234.598 14.47 232.008 19.29C230.748 20.74 229.168 22.47 227.268 22.47C227.098 22.47 226.878 22.47 226.718 22.41C229.208 19.31 231.138 15.04 231.138 12.09C231.138 10.15 230.198 8.6 227.998 8.6C227.278 8.6 226.568 8.77 225.958 9.04C224.968 8.32 223.418 7.49 222.208 7.49C218.988 7.49 212.218 12.14 210.158 18.28C209.018 19.58 207.628 21.69 205.858 23.06C203.978 24.5 202.108 25.11 200.838 25.11C199.788 25.11 199.348 24.78 199.348 24.06C199.348 23.01 200.238 21.45 201.168 19.79C201.668 18.9 204.038 14.97 206.188 11.31C207.348 11.42 208.618 11.86 209.438 11.86C211.038 11.86 212.308 9.42 212.308 7.59C212.308 6.26 212.138 5.98 209.438 5.87C209.718 5.43 210.598 4.1 210.598 3.49C210.598 2.16 208.278 0 206.508 0C205.398 0 204.018 1.77 201.268 6.21C196.248 6.49 194.968 6.71 194.968 8.21C194.968 9.6 196.508 11.2 197.398 11.2H198.228C196.958 13.4 195.678 15.69 194.658 17.66C194.538 17.76 194.418 17.87 194.308 18.02C190.778 22.57 187.628 24.89 184.698 24.89C182.658 24.89 181.778 24.22 181.778 22.23C181.778 21.34 181.948 20.12 182.608 18.52C183.818 19.3 185.748 20.18 186.858 20.18C189.458 20.18 193.588 15.52 193.868 11.59C193.868 9.48 190.448 6.99 188.958 6.77C188.678 6.77 188.458 6.71 188.178 6.71C184.118 6.71 178.208 11.76 176.288 17.88C176.128 17.99 175.978 18.13 175.868 18.31C174.328 20.47 171.508 23.35 169.028 24.46C172.118 20.41 174.158 14.93 174.158 13.14C174.158 10.65 172.388 7.21 169.958 7.21C168.748 7.21 166.708 8.65 164.938 10.09C164.548 8.98 162.398 7.54 160.908 7.54C160.628 7.54 160.358 7.6 160.128 7.71C158.758 8.52 155.498 13.67 152.298 19.45C151.058 20.86 149.538 22.46 147.708 22.46C147.538 22.46 147.318 22.46 147.158 22.4C149.648 19.3 151.578 15.03 151.578 12.08C151.578 10.14 150.638 8.59 148.438 8.59C147.718 8.59 147.008 8.76 146.398 9.03C145.408 8.31 143.858 7.48 142.648 7.48C138.838 7.48 130.008 14.02 130.008 21.85C130.008 25.56 134.538 29.22 137.128 29.22C139.888 29.22 142.478 27.34 144.638 25.23C145.568 25.62 146.458 25.73 147.348 25.73C147.968 25.73 148.548 25.64 149.118 25.49C146.698 30.28 144.768 34.64 144.428 36.53H130.018V41.88H261.008V36.53H260.978L260.988 36.52ZM226.108 13.29C226.218 13.29 226.328 13.29 226.438 13.35C226.498 13.41 226.548 13.46 226.548 13.57C226.548 14.29 225.448 16.4 224.228 18.23C224.058 18.01 223.948 17.51 223.948 17.01C223.948 15.57 225.108 13.3 226.098 13.3L226.108 13.29ZM220.198 15.4C219.758 16.51 219.528 17.56 219.528 18.67C219.528 20 219.858 21.33 220.688 22.49C219.148 23.93 217.548 24.65 216.438 24.65C215.548 24.65 215.008 24.21 215.008 23.32C215.008 20.99 218.378 16.34 220.198 15.39V15.4ZM188.458 11.24C188.518 11.24 188.568 11.3 188.628 11.3C188.688 11.36 188.738 11.47 188.738 11.63C188.738 12.68 186.968 16.01 185.818 16.01C185.428 16.01 184.768 15.79 184.278 15.46C185.988 12.85 187.868 11.25 188.478 11.25L188.458 11.24ZM160.198 19.28C163.398 16.51 167.708 12.91 168.038 12.91C168.078 12.91 168.108 12.93 168.148 12.97V13.03C168.148 13.75 163.178 23.13 160.478 23.29C160.038 23.29 159.098 22.29 158.818 21.96L158.708 21.85L160.198 19.3V19.28ZM136.898 24.66C136.018 24.66 135.468 24.22 135.468 23.33C135.468 21 138.838 16.35 140.658 15.4C140.218 16.51 139.988 17.56 139.988 18.67C139.988 20 140.318 21.33 141.148 22.49C139.608 23.93 138.008 24.65 136.898 24.65V24.66ZM144.678 18.23C144.508 18.01 144.398 17.51 144.398 17.01C144.398 15.57 145.558 13.3 146.548 13.3C146.658 13.3 146.768 13.3 146.878 13.36C146.938 13.42 146.988 13.47 146.988 13.58C146.988 14.3 145.888 16.41 144.668 18.24L144.678 18.23Z" fill="#053304"/>
<path d="M292.59 62.1797H130V67.5297H292.59V62.1797Z" fill="#053304"/>
<path d="M131.066 53.9417V60.1617H135.196V59.0017C136.176 59.9517 137.486 60.4317 139.116 60.4317C142.146 60.4317 143.666 58.9617 143.666 56.0017C143.666 54.4117 143.336 53.2917 142.656 52.6617C141.986 52.0317 140.426 51.3217 137.956 50.5517C136.396 50.0717 135.616 49.5017 135.616 48.8617C135.616 48.2917 136.066 48.0017 136.966 48.0017C137.706 48.0017 138.126 48.3717 138.226 49.1217L138.296 49.5617H142.696V43.7917H138.566V44.9417C137.706 43.9917 136.556 43.5117 135.086 43.5117C132.136 43.5117 130.656 45.0017 130.656 47.9817C130.656 49.8617 131.866 51.2317 134.286 52.0517L136.706 52.8817C137.916 53.2917 138.516 53.8917 138.516 54.6717C138.516 55.4517 137.986 55.8117 136.916 55.8117C135.766 55.8117 135.196 55.2717 135.196 54.1917V53.9517H131.066V53.9417Z" fill="#053304"/>
<path d="M159.064 51.0308V43.8008H144.484V51.0308H147.294V47.9808H149.514V55.7908H147.704V60.1708H155.704V55.7908H154.134V47.9808H156.254V51.0308H159.064Z" fill="#053304"/>
<path d="M167.505 60.1691H175.515V55.7891H174.085L170.705 43.7891H164.615L161.325 55.7891H159.805V60.1691H166.485V55.7891H164.625L165.155 53.5691H168.735L169.245 55.7891H167.525V60.1691H167.505ZM165.545 51.8991L166.925 46.8591L168.255 51.8991H165.545Z" fill="#053304"/>
<path d="M190.807 51.0308V43.8008H176.227V51.0308H179.037V47.9808H181.257V55.7908H179.447V60.1708H187.447V55.7908H185.877V47.9808H188.007V51.0308H190.807Z" fill="#053304"/>
<path d="M192.133 55.7908V60.1708H205.713V53.4008H201.583V55.7908H198.343V52.6008H202.383V50.9208H198.343V47.9808H201.583V50.3508H205.413V43.8008H192.133V47.9808H193.733V55.7908H192.133Z" fill="#053304"/>
<path d="M222.455 55.7891V60.1691H229.175C232.135 60.1691 234.105 59.8591 235.085 59.2391C236.055 58.6191 236.555 57.3791 236.555 55.5091C236.555 54.0791 236.305 53.1591 235.805 52.7191C235.305 52.2791 234.105 51.9391 232.205 51.6691C233.865 51.5091 234.965 51.1991 235.485 50.7391C236.005 50.2791 236.265 49.3991 236.265 48.0991C236.265 46.3291 235.775 45.1691 234.795 44.6191C233.825 44.0691 231.785 43.7891 228.685 43.7891H222.445V47.9791H224.065V55.7891H222.445H222.455ZM228.695 47.9891H229.445C230.795 47.9891 231.475 48.4591 231.475 49.3891C231.475 50.3191 230.845 50.8291 229.565 50.8291H228.695V47.9891ZM228.695 52.6291H229.425C230.985 52.6291 231.765 53.1091 231.765 54.0691C231.765 55.2191 230.985 55.7991 229.445 55.7991H228.695V52.6291Z" fill="#053304"/>
<path d="M245.567 60.1691H253.577V55.7891H252.147L248.767 43.7891H242.677L239.387 55.7891H237.867V60.1691H244.547V55.7891H242.687L243.217 53.5691H246.797L247.307 55.7891H245.587V60.1691H245.567ZM243.607 51.8991L244.987 46.8591L246.317 51.8991H243.607Z" fill="#053304"/>
<path d="M262.198 43.8008H254.898V47.9808H256.538V55.7908H254.898V60.1708H261.568V55.7908H259.688V47.2308L265.248 60.1708H270.308V47.9808H271.918V43.8008H265.248V47.9808H267.158V55.2408L262.198 43.8008Z" fill="#053304"/>
<path d="M280.92 55.7908H279.78V53.6808L280.92 52.5308L283.4 55.7908H282.12V60.1708H289.28V55.7908H287.95L283.93 50.5608L287.03 47.9808H288.8V43.8008H282.12V47.9808H283.65L279.78 51.0008V47.9808H280.92V43.8008H273.57V47.9808H275.16V55.7908H273.57V60.1708H280.92V55.7908Z" fill="#053304"/>
</svg>
