<svg xmlns="http://www.w3.org/2000/svg" id="Layer_1" data-name="Layer 1" viewBox="0 0 432 81"><defs><style>.cls-2{stroke-width:0;fill:#063232}</style></defs><path d="m44.46 16.68-4.97-8.71-4.97 8.71c-1 1.76-1 3.91 0 5.66l4.97 8.71 4.97-8.71c1-1.76 1-3.91 0-5.66ZM39.5 73.03 70 19.51h-9.83a5.71 5.71 0 0 0-4.97 2.89L39.51 49.94 23.82 22.4a5.71 5.71 0 0 0-4.97-2.89H9.02l30.5 53.52Z" style="stroke-width:0;fill:#3eb75b"/><path d="m92.74 28.57-.53-.11v-.85h16.42v.85l-.8.11c-3.24.48-4.04 1.59-2.98 4.41L113.41 56l8.67-22.86c1.27-3.35-.16-4.09-2.92-4.57l-.64-.11v-.85h10.31v.85l-.53.11c-2.02.43-3.35 1.75-4.52 4.78l-12.17 31.57h-2.76L96.78 33.14c-1.12-3.03-1.97-4.15-4.04-4.57ZM136.38 61.79c-1.54 1.97-3.99 3.51-6.8 3.51-4.36 0-6.91-3.24-6.91-6.86 0-3.3 1.97-4.89 6.75-6.43l6.86-2.13v-4.36c0-4.31-1.01-5.85-2.98-5.85-1.7 0-2.13 1.33-2.98 4.52-.58 2.07-1.59 2.55-3.19 2.55-2.02 0-3.35-1.22-3.83-2.07.69-2.55 3.93-6.01 10.21-6.01 7.28 0 9.83 3.46 9.83 7.44v13.5c0 1.81.58 2.66 2.07 2.66.53 0 1.01-.16 1.38-.32v.69c-1.75 1.7-3.99 2.66-5.95 2.66-3.03 0-4.15-1.81-4.46-3.51Zm-2.76.27c1.12 0 2.02-.48 2.66-1.17V51l-3.78 1.33c-2.39.8-3.08 1.81-3.08 4.2 0 2.82 1.43 5.53 4.2 5.53ZM148.23 64.08l.69-.11c1.7-.32 2.39-.9 2.39-2.98V32.08c0-2.02-.64-2.98-3.08-3.24v-.69l9.89-2.29h.43v35.13c0 2.07.69 2.66 2.34 2.98l.69.11v.74h-13.34v-.74ZM163.28 64.08l.69-.11c1.7-.32 2.39-.9 2.39-2.98V32.08c0-2.02-.64-2.98-3.08-3.24v-.69l9.89-2.29h.43v35.13c0 2.07.69 2.66 2.34 2.98l.69.11v.74h-13.34v-.74ZM178.53 64.08l.69-.11c1.65-.32 2.39-.9 2.39-2.98V45.04c0-2.02-.64-2.98-3.08-3.24v-.69l9.89-2.28h.43v22.16c0 2.07.69 2.66 2.34 2.98l.69.11v.74h-13.34v-.74Zm6.59-34.98c2.13 0 3.77 1.75 3.77 3.67s-1.65 3.67-3.77 3.67-3.77-1.7-3.77-3.67 1.65-3.67 3.77-3.67ZM207.29 61.79c-1.54 1.97-3.99 3.51-6.8 3.51-4.36 0-6.91-3.24-6.91-6.86 0-3.3 1.97-4.89 6.75-6.43l6.86-2.13v-4.36c0-4.31-1.01-5.85-2.98-5.85-1.7 0-2.13 1.33-2.98 4.52-.58 2.07-1.59 2.55-3.19 2.55-2.02 0-3.35-1.22-3.83-2.07.69-2.55 3.93-6.01 10.21-6.01 7.28 0 9.83 3.46 9.83 7.44v13.5c0 1.81.58 2.66 2.07 2.66.53 0 1.01-.16 1.38-.32v.69c-1.75 1.7-3.99 2.66-5.95 2.66-3.03 0-4.15-1.81-4.46-3.51Zm-2.76.27c1.12 0 2.02-.48 2.66-1.17V51l-3.78 1.33c-2.39.8-3.08 1.81-3.08 4.2 0 2.82 1.43 5.53 4.2 5.53ZM234.4 64.08l.74-.11c1.54-.27 2.18-.9 2.18-2.98V47.22c0-3.14-1.22-5-4.04-5-1.7 0-3.29.74-4.36 1.91v16.85c0 2.07.74 2.71 2.34 2.98l.69.11v.74h-13.29v-.74l.69-.11c1.65-.32 2.34-.9 2.34-2.98V45.03c0-1.97-.64-2.92-3.14-3.24v-.69l9.89-2.28h.32v4.46c1.38-2.07 4.31-4.62 8.34-4.62 5.58 0 7.44 3.88 7.44 7.6v14.72c0 2.07.64 2.66 2.39 2.98l.69.11v.74h-13.23v-.74ZM248.22 52.65c0-8.24 5.58-13.98 12.12-13.98s8.77 3.56 9.3 5.37c-.85 1.7-2.29 2.5-3.72 2.5-1.27 0-2.44-.43-3.24-2.82-1.01-2.76-1.49-3.83-3.35-3.83-2.02 0-4.57 2.55-4.57 9.41s3.35 10.68 7.97 10.68c2.98 0 4.89-1.22 6.64-4.2l.69.32c-1.59 5.63-4.62 9.36-10.26 9.36-7.44 0-11.59-5.58-11.59-12.81ZM272.2 52.76c0-8.4 5.47-14.03 11.59-14.03 7.02 0 9.99 5.16 9.99 9.83 0 .27 0 .48-.05 1.12h-15.15c.05 7.28 3.67 10.36 8.08 10.36 3.14 0 5.1-1.22 6.96-4.04l.58.32c-1.97 6.43-5.79 9.19-10.47 9.19-6.75 0-11.53-5.26-11.53-12.76Zm15.3-4.31c-.21-5.05-1.54-8.56-4.09-8.56s-4.57 3.08-4.84 8.56h8.93ZM304.04 63.97l.85-.16c1.81-.37 3.19-.74 3.19-2.92V31.55c0-2.18-1.38-2.71-3.19-2.98l-.85-.11v-.85h17.27c6.38 0 11.91 2.6 11.91 8.5 0 5.26-4.15 7.92-8.08 8.66 5.21.37 10.15 3.46 10.15 9.67 0 6.7-5.63 10.36-12.7 10.36h-18.55v-.85Zm15.84-19.72c3.72 0 5.95-2.13 5.95-7.44 0-6.06-2.82-7.76-6.54-7.76h-3.51v15.2h4.09Zm-.85 19.14h2.02c4.62 0 6.32-3.14 6.32-8.66 0-6.64-2.98-9.04-7.34-9.04h-4.25v15.04c0 1.91 1.49 2.66 3.24 2.66ZM351.67 61.79c-1.54 1.97-3.99 3.51-6.8 3.51-4.36 0-6.91-3.24-6.91-6.86 0-3.3 1.97-4.89 6.75-6.43l6.86-2.13v-4.36c0-4.31-1.01-5.85-2.98-5.85-1.7 0-2.13 1.33-2.98 4.52-.59 2.07-1.59 2.55-3.19 2.55-2.02 0-3.35-1.22-3.83-2.07.69-2.55 3.93-6.01 10.21-6.01 7.28 0 9.83 3.46 9.83 7.44v13.5c0 1.81.59 2.66 2.07 2.66.53 0 1.01-.16 1.38-.32v.69c-1.75 1.7-3.99 2.66-5.95 2.66-3.03 0-4.15-1.81-4.46-3.51Zm-2.77.27c1.12 0 2.02-.48 2.66-1.17V51l-3.77 1.33c-2.39.8-3.08 1.81-3.08 4.2 0 2.82 1.43 5.53 4.2 5.53ZM378.77 64.08l.74-.11c1.54-.27 2.18-.9 2.18-2.98V47.22c0-3.14-1.22-5-4.04-5-1.7 0-3.29.74-4.36 1.91v16.85c0 2.07.74 2.71 2.34 2.98l.69.11v.74h-13.29v-.74l.69-.11c1.65-.32 2.34-.9 2.34-2.98V45.03c0-1.97-.64-2.92-3.14-3.24v-.69l9.89-2.28h.32v4.46c1.38-2.07 4.3-4.62 8.34-4.62 5.58 0 7.44 3.88 7.44 7.6v14.72c0 2.07.64 2.66 2.39 2.98l.69.11v.74h-13.23v-.74ZM393.66 64.08l.69-.11c1.7-.32 2.39-.9 2.39-2.98V32.08c0-2.02-.64-2.98-3.08-3.24v-.69l9.89-2.29h.43v25.62l6.01-5.79c3.24-3.03 3.51-4.68.58-5.37l-.64-.16v-.74h10.84v.8c-2.87.74-5.74 2.71-9.04 5.79l-1.86 1.75 7.34 10.9c2.34 3.51 3.13 4.89 5.16 5.26l.64.16v.74h-13.55v-.74l.85-.11c1.86-.27 1.59-1.12-.21-3.77l-5.16-7.81-.96.9V61c0 2.07.58 2.66 2.34 2.98l.69.11v.74h-13.34v-.74Z" class="cls-2"/></svg>