<svg width="66" height="28" viewBox="0 0 66 28" fill="none" xmlns="http://www.w3.org/2000/svg">
<g clip-path="url(#clip0_281_7316)">
<mask id="mask0_281_7316" style="mask-type:luminance" maskUnits="userSpaceOnUse" x="0" y="0" width="59" height="28">
<path d="M58.6055 0H0.605469V28H58.6055V0Z" fill="white"/>
</mask>
<g mask="url(#mask0_281_7316)">
<path d="M13.3965 12.328C13.5492 11.2901 13.1634 10.2396 12.5378 9.57535C11.903 8.8906 10.9677 8.42026 9.67357 8.42026H7.13193C6.61356 8.42026 5.89788 8.52694 5.37588 8.74766C4.8834 8.93106 4.38574 9.23271 3.99734 9.54855C3.55613 9.88803 3.16308 10.3915 2.9057 10.8355C2.64677 11.2696 2.44999 11.8466 2.38318 12.328C2.3314 12.6176 2.47588 13.163 3.19208 13.163H4.25316C4.98852 13.163 5.19515 12.1299 5.19515 12.1299C5.30027 11.8314 5.44372 11.4625 5.81036 11.1976C6.05893 11.0111 6.35722 10.8355 6.85436 10.8355H9.42656C9.94545 10.8355 10.1666 10.9969 10.3323 11.1603C10.5798 11.4215 10.6901 11.7053 10.6259 12.1299L10.0014 16.2357H4.86372C3.62449 16.2357 2.70891 16.6861 2.08956 17.3519C1.34488 18.1822 1.23509 18.9842 1.11081 20.0505L0.638004 24.0922C0.490415 25.2599 0.857057 26.1611 1.49247 26.8448C2.12788 27.5291 3.03568 27.9999 4.32256 27.9999H6.99884C7.3919 27.9999 7.95274 27.9311 8.54465 27.7172C9.03765 27.5333 9.61609 27.2237 10.0521 26.8638C10.4452 26.5432 10.8087 26.1238 11.0676 25.6898C11.3266 25.2557 11.5223 24.7617 11.6145 24.295L13.3965 12.328ZM9.67357 18.6048L8.83465 24.2898C8.83465 24.2898 8.77975 24.7712 8.26966 25.1811C7.9895 25.4002 7.65083 25.592 7.13193 25.592H4.5644C3.67006 25.592 3.30238 24.8726 3.39922 24.2893L3.91345 20.0499C3.97559 19.5333 4.01443 19.1707 4.25368 18.9138C4.45358 18.723 4.66745 18.6042 5.08484 18.6042L9.67357 18.6048ZM54.7328 27.168C54.6267 27.8764 54.1078 27.9989 53.7934 27.9989H52.7432C52.0188 27.9989 51.8691 27.4555 51.9214 27.1659L55.7898 0.832868C55.8452 0.494436 56.0441 0.00307863 56.7281 0.000976562L57.7784 0.00307863C58.1424 0.00307863 58.6551 0.181754 58.6017 0.832868L54.7328 27.168ZM39.0563 12.328C39.1997 11.1955 38.8367 10.2701 38.2018 9.58586C37.4535 8.75554 36.4344 8.42026 35.3562 8.42026H32.7886C32.1921 8.42026 31.5649 8.5322 31.088 8.72454C30.5966 8.90006 30.0264 9.22956 29.637 9.55643C29.2315 9.88488 28.84 10.3568 28.5836 10.7972C28.332 11.2071 28.1114 11.7967 28.0368 12.3285L26.289 24.0932C26.1435 25.2052 26.5386 26.2053 27.1709 26.8648C27.8405 27.5774 28.7846 28.001 30.0269 28.001H32.595C33.204 28.001 33.7684 27.8817 34.2614 27.6967C34.7539 27.5122 35.2785 27.2153 35.6679 26.8984C36.0563 26.5831 36.4333 26.1717 36.6928 25.7376C36.9605 25.3046 37.2251 24.727 37.3059 24.0927C37.3582 23.8032 37.2241 23.265 36.4856 23.265H35.4743C34.683 23.265 34.494 24.2903 34.494 24.2903C34.4204 24.6477 34.2241 24.9435 33.9321 25.1816C33.6799 25.3892 33.3215 25.5925 32.8285 25.5925H30.2615C30.0062 25.5925 29.6219 25.5563 29.3237 25.2278C29.0249 24.8973 29.0243 24.5746 29.0611 24.2903L30.8508 12.1315C30.8985 11.8771 31.0512 11.5345 31.4531 11.2055C31.7623 10.9858 32.0745 10.8361 32.5561 10.8361H35.1242C35.5747 10.8361 35.8238 10.9895 36.0082 11.1776C36.2091 11.3847 36.3577 11.7131 36.2816 12.1315C36.2816 12.1315 36.1169 13.1636 37.0817 13.1636H38.0931C38.4053 13.163 38.9568 13.0422 39.0563 12.328ZM25.2637 13.163H24.2528C23.288 13.163 23.4522 12.1309 23.4522 12.1309C23.5283 11.7121 23.3792 11.3842 23.1788 11.1771C22.9944 10.989 22.7453 10.8355 22.2943 10.8355H19.7267C19.2456 10.8355 18.9329 10.9853 18.6247 11.205C18.2218 11.5339 18.0701 11.8766 18.0219 12.1309L16.2312 24.2898C16.1944 24.5741 16.1955 24.8968 16.4943 25.2273C16.7915 25.5558 17.1763 25.592 17.4316 25.592H19.9991C20.4921 25.592 20.8505 25.3881 21.1022 25.1811C21.3937 24.943 21.5905 24.6466 21.664 24.2898C21.664 24.2898 21.8525 23.2645 22.6438 23.2645H23.6557C24.3947 23.2645 24.5278 23.8026 24.476 24.0922C24.3957 24.7265 24.1306 25.304 23.8623 25.7371C23.6034 26.1711 23.2269 26.5826 22.838 26.8979C22.4491 27.2148 21.924 27.5117 21.432 27.6962C20.9385 27.8817 20.3746 28.0005 19.7656 28.0005H17.198C15.9562 28.0005 15.0116 27.5769 14.3426 26.8643C13.7098 26.2042 13.3146 25.2047 13.4596 24.0927L15.2074 12.328C15.283 11.7962 15.5031 11.2071 15.7548 10.7966C16.0111 10.3563 16.4016 9.88435 16.8081 9.5559C17.1975 9.22903 17.7677 8.89953 18.2581 8.72401C18.7361 8.53167 19.3637 8.41974 19.9598 8.41974H22.5273C23.605 8.41974 24.6251 8.75607 25.3734 9.58533C26.0083 10.2706 26.3714 11.195 26.2269 12.3275C26.128 13.0422 25.5764 13.163 25.2637 13.163Z" fill="#455560"/>
</g>
<mask id="mask1_281_7316" style="mask-type:luminance" maskUnits="userSpaceOnUse" x="0" y="0" width="59" height="28">
<path d="M58.6055 0H0.605469V28H58.6055V0Z" fill="white"/>
</mask>
<g mask="url(#mask1_281_7316)">
<path d="M51.0243 9.57403C50.3883 8.89033 49.481 8.41895 48.1947 8.41895H45.5179C45.1253 8.41895 44.564 8.48831 43.9721 8.7022C43.4791 8.88613 42.9017 9.19671 42.4646 9.55564C42.0715 9.8762 41.708 10.2956 41.4496 10.7302C41.1891 11.1642 40.9954 11.6582 40.9022 12.1249L40.1731 17.0248H39.3652C39.0048 17.0248 38.4786 17.1346 37.9572 17.3175C37.5983 17.451 37.0028 17.7411 36.5118 18.1384C36.1224 18.4547 35.7112 18.923 35.4388 19.3922C35.1027 19.9714 34.9686 20.4433 34.8909 20.9278C34.8542 21.1154 34.9122 21.7597 35.7112 21.7597H36.704C37.4574 21.7597 37.5817 21.561 37.6268 21.1154C37.6268 21.1154 37.6413 20.2809 38.3254 19.7964C38.4952 19.6666 38.8577 19.3933 39.3652 19.3933H39.8199L39.1203 24.0909C38.9675 25.1282 39.3538 26.1798 39.9784 26.8435C40.6138 27.5277 41.549 27.9986 42.8437 27.9986H45.3843C45.9032 27.9986 46.6183 27.8919 47.1408 27.6717C47.6328 27.4873 48.131 27.1856 48.5194 26.8693C48.9611 26.5308 49.3536 26.0263 49.611 25.5833C49.87 25.1487 50.0667 24.5728 50.1325 24.0909C50.1848 23.8013 50.0408 23.2564 49.3241 23.2564H48.2625C47.5266 23.2564 47.3205 24.2885 47.3205 24.2885C47.2154 24.587 47.072 24.9553 46.7053 25.2213C46.4573 25.4078 46.1574 25.5828 45.6618 25.5828H43.0886C42.5697 25.5828 42.3481 25.4215 42.1829 25.258C41.9348 24.9969 41.8256 24.7131 41.8893 24.2879L42.6288 19.3928H47.7675C49.0072 19.3928 49.9223 18.9487 50.5411 18.2839C51.2863 17.4531 51.3956 16.6511 51.5204 15.5833L51.8782 12.3262C52.0268 11.159 51.6602 10.2583 51.0243 9.57403ZM49.1175 12.1296L48.7182 15.5844C48.6556 16.1009 48.6178 16.4651 48.378 16.7221C48.1781 16.9129 47.9648 17.0248 47.5474 17.0248H42.9586L43.6821 12.1296C43.6821 12.1296 43.7375 11.6488 44.2476 11.2383C44.5272 11.0197 44.8659 10.8263 45.3848 10.8263H47.9523C48.8472 10.8263 49.2143 11.5463 49.1175 12.1296Z" fill="#F26B21"/>
</g>
</g>
<path d="M62.9993 0C63.4097 0 63.8035 0.10312 64.1805 0.30938C64.5577 0.51354 64.8535 0.8073 65.0681 1.19062C65.2847 1.57396 65.3931 1.975 65.3931 2.39376C65.3931 2.81042 65.2869 3.20834 65.0743 3.5875C64.8639 3.96458 64.5691 4.25938 64.1899 4.47188C63.8129 4.6823 63.4159 4.7875 62.9993 4.7875C62.5827 4.7875 62.1847 4.6823 61.8055 4.47188C61.4285 4.25938 61.1337 3.96458 60.9213 3.5875C60.7107 3.20834 60.6055 2.81042 60.6055 2.39376C60.6055 1.975 60.7129 1.57396 60.9275 1.19062C61.1441 0.8073 61.4409 0.51354 61.8181 0.30938C62.1951 0.10312 62.5889 0 62.9993 0ZM63.0025 0.46876C62.6733 0.46876 62.3577 0.55104 62.0555 0.71562C61.7535 0.8802 61.5149 1.11666 61.3399 1.425C61.1671 1.73334 61.0805 2.05624 61.0805 2.39376C61.0805 2.72916 61.1649 3.04896 61.3337 3.35312C61.5045 3.6573 61.7421 3.8948 62.0461 4.06562C62.3503 4.23646 62.6691 4.32188 63.0025 4.32188C63.3379 4.32188 63.6567 4.23646 63.9587 4.06562C64.2629 3.8948 64.5003 3.6573 64.6713 3.35312C64.8421 3.04896 64.9275 2.72916 64.9275 2.39376C64.9275 2.05624 64.8399 1.73334 64.6649 1.425C64.4921 1.11666 64.2535 0.8802 63.9493 0.71562C63.6473 0.55104 63.3317 0.46876 63.0025 0.46876ZM61.9181 3.675V1.13438H62.4337C62.9171 1.13438 63.1879 1.13646 63.2461 1.14062C63.4171 1.1552 63.5493 1.18958 63.6431 1.24376C63.7389 1.29584 63.8181 1.37708 63.8805 1.4875C63.9451 1.59584 63.9775 1.71666 63.9775 1.85C63.9775 2.03334 63.9171 2.19062 63.7961 2.32188C63.6775 2.45104 63.5097 2.53124 63.2931 2.5625C63.3701 2.59166 63.4295 2.62396 63.4713 2.65938C63.5129 2.6927 63.5701 2.7573 63.6431 2.85312C63.6619 2.87812 63.7243 2.98124 63.8305 3.1625L64.1305 3.675H63.4931L63.2805 3.2625C63.1369 2.98542 63.0181 2.81146 62.9243 2.74062C62.8305 2.6677 62.7119 2.63124 62.5681 2.63124H62.4337V3.675H61.9181ZM62.4337 2.23124H62.6431C62.9409 2.23124 63.1253 2.2198 63.1961 2.19688C63.2691 2.17396 63.3265 2.13438 63.3681 2.07812C63.4097 2.0198 63.4305 1.95416 63.4305 1.88124C63.4305 1.81042 63.4097 1.74792 63.3681 1.69376C63.3285 1.6375 63.2713 1.59792 63.1961 1.575C63.1213 1.55 62.9369 1.5375 62.6431 1.5375H62.4337V2.23124Z" fill="#455560"/>
<defs>
<clipPath id="clip0_281_7316">
<rect width="58" height="28" fill="white" transform="translate(0.605469)"/>
</clipPath>
</defs>
</svg>
