<svg width="282" height="94" viewBox="0 0 282 94" fill="none" xmlns="http://www.w3.org/2000/svg">
<path d="M241.978 46.9992L237.266 21.3672H242.747L246.69 43.9752H243.901L256.74 21.3672H261.885L265.973 43.9752H263.184L275.878 21.3672H281.552L267.223 46.9992H261.308L257.413 26.9832H259.193L247.796 46.9992H241.978Z" fill="white"/>
<path d="M218.47 47.3341C215.969 47.3341 213.773 46.8701 211.882 45.9421C210.023 44.9821 208.58 43.6701 207.554 42.0061C206.529 40.3101 206.016 38.3261 206.016 36.0541C206.016 33.1741 206.673 30.6141 207.987 28.3741C209.302 26.1021 211.097 24.3261 213.373 23.0461C215.681 21.7341 218.309 21.0781 221.259 21.0781C223.791 21.0781 225.987 21.5421 227.846 22.4701C229.738 23.3661 231.196 24.6621 232.222 26.3581C233.248 28.0221 233.761 30.0061 233.761 32.3101C233.761 35.1581 233.104 37.7181 231.789 39.9901C230.475 42.2621 228.664 44.0541 226.356 45.3661C224.08 46.6781 221.451 47.3341 218.47 47.3341ZM218.854 42.1981C220.586 42.1981 222.108 41.7981 223.423 40.9981C224.737 40.1661 225.779 39.0301 226.548 37.5901C227.317 36.1501 227.702 34.4861 227.702 32.5981C227.702 30.6141 227.109 29.0461 225.923 27.8941C224.737 26.7421 223.07 26.1661 220.922 26.1661C219.223 26.1661 217.7 26.5821 216.354 27.4141C215.04 28.2141 213.998 29.3341 213.228 30.7741C212.459 32.2141 212.074 33.8781 212.074 35.7661C212.074 37.7821 212.667 39.3661 213.854 40.5181C215.04 41.6381 216.707 42.1981 218.854 42.1981Z" fill="white"/>
<path d="M167.422 46.9984L174.154 13.3984H179.299L194.638 39.4624L192.667 39.2224L197.812 13.3984H204.015L197.283 46.9984H192.138L176.847 20.9344L178.818 21.1744L173.625 46.9984H167.422Z" fill="white"/>
<path d="M139.716 56.6473C138.434 56.6473 137.184 56.4393 135.966 56.0233C134.715 55.6073 133.722 55.0633 132.984 54.3913L135.966 50.0233C136.511 50.5033 137.12 50.8873 137.793 51.1753C138.498 51.4953 139.3 51.6553 140.197 51.6553C141.191 51.6553 142.072 51.3833 142.842 50.8393C143.643 50.3273 144.445 49.4312 145.246 48.1512L147.506 44.6472L148.083 44.0232L162.22 21.3672H168.231L150.535 49.2552C149.349 51.1113 148.211 52.5833 147.121 53.6713C146.031 54.7593 144.893 55.5273 143.707 55.9753C142.553 56.4233 141.223 56.6473 139.716 56.6473ZM146.304 47.9112L140.005 21.3672H146.015L151.064 43.4952L146.304 47.9112Z" fill="white"/>
<path d="M117.62 47.3341C115.537 47.3341 113.629 46.8861 111.898 45.9901C110.199 45.0941 108.837 43.8141 107.811 42.1501C106.817 40.4541 106.32 38.4221 106.32 36.0541C106.32 33.8781 106.673 31.8781 107.378 30.0541C108.115 28.2301 109.141 26.6461 110.456 25.3021C111.77 23.9581 113.293 22.9181 115.024 22.1821C116.787 21.4461 118.71 21.0781 120.794 21.0781C122.942 21.0781 124.785 21.4621 126.324 22.2301C127.895 22.9981 129.081 24.1661 129.882 25.7341C130.683 27.2701 131.052 29.1901 130.988 31.4941C130.924 34.6621 130.347 37.4461 129.257 39.8461C128.167 42.2141 126.644 44.0541 124.689 45.3661C122.733 46.6781 120.377 47.3341 117.62 47.3341ZM119.159 42.1981C120.89 42.1981 122.413 41.7981 123.727 40.9981C125.042 40.1661 126.083 39.0301 126.853 37.5901C127.622 36.1501 128.007 34.4861 128.007 32.5981C128.007 30.6141 127.414 29.0461 126.228 27.8941C125.042 26.7421 123.375 26.1661 121.227 26.1661C119.528 26.1661 118.005 26.5821 116.659 27.4141C115.344 28.2141 114.302 29.3341 113.533 30.7741C112.764 32.2141 112.379 33.8781 112.379 35.7661C112.379 37.7501 112.972 39.3181 114.158 40.4701C115.344 41.6221 117.011 42.1981 119.159 42.1981ZM125.458 46.9981L126.612 41.1421L128.247 34.3261L129.065 27.4621L130.267 21.3661H136.277L131.18 46.9981H125.458Z" fill="white"/>
<path d="M72.3281 46.9984L79.06 13.3984H92.043C96.1143 13.3984 99.2558 14.2944 101.468 16.0864C103.712 17.8784 104.834 20.3584 104.834 23.5264C104.834 26.3744 104.177 28.8384 102.862 30.9184C101.58 32.9664 99.7367 34.5504 97.3324 35.6704C94.9281 36.7584 92.0751 37.3024 88.7732 37.3024H77.8098L81.1277 34.3264L78.5792 46.9984H72.3281ZM80.9834 35.0464L78.7715 32.0224H89.0137C92.027 32.0224 94.3671 31.3504 96.0341 30.0064C97.7011 28.6624 98.5345 26.6944 98.5345 24.1024C98.5345 22.2784 97.9094 20.9184 96.6592 20.0224C95.4411 19.1264 93.6779 18.6784 91.3698 18.6784H81.6085L84.8783 15.5584L80.9834 35.0464Z" fill="white"/>
<path fill-rule="evenodd" clip-rule="evenodd" d="M4.52789 42.6857L1.0625 60H12.2135L15.6919 42.6857H30.3982C36.2881 42.6857 41.3775 41.7143 45.6665 39.7714C49.9552 37.7714 53.2434 34.943 55.5309 31.2857C57.8756 27.5714 59.0477 23.1715 59.0477 18.0858C59.0477 12.4286 57.0461 8 53.0435 4.8C49.0975 1.6 43.4934 0 36.231 0H13.0712L11.1842 9.4286H17.6174H22.3379H35.0301C39.1474 9.4286 42.2926 10.2285 44.4656 11.8286C46.6957 13.4285 47.8108 15.8572 47.8108 19.1143C47.8108 23.7429 46.3241 27.2571 43.3504 29.6571C40.3769 32.0571 36.2024 33.2571 30.827 33.2571H17.5805H12.5566H6.41499L4.52789 42.6857Z" fill="white"/>
<path d="M30.5901 16.5703H31.8534H35.6914C37.2911 16.5703 38.5254 16.9237 39.3945 17.6305C40.2762 18.3373 40.717 19.3155 40.717 20.5651C40.717 21.6885 40.4589 22.6603 39.9425 23.4808C39.4386 24.2886 38.7144 24.9133 37.7696 25.3552C36.8249 25.7842 35.7039 25.9988 34.4065 25.9988H31.8534H31.1673H30.0988H28.7082H19H14.1491H7.83594L9.72304 16.5703H15.8646H20.8885H30.5901Z" fill="white"/>
<mask id="mask0_629_281" style="mask-type:luminance" maskUnits="userSpaceOnUse" x="55" y="70" width="227" height="24">
<path d="M282 70H55V94H282V70Z" fill="white"/>
</mask>
<g mask="url(#mask0_629_281)">
<path d="M159.687 91.5203C159.165 91.5203 158.644 91.4337 158.123 91.2603C157.602 91.087 157.168 90.847 156.82 90.5404L157.822 88.7004C158.077 88.927 158.364 89.107 158.684 89.2403C159.005 89.3737 159.333 89.4404 159.667 89.4404C160.121 89.4404 160.488 89.327 160.769 89.1003C161.05 88.8737 161.31 88.4937 161.551 87.9603L162.172 86.5603L162.372 86.2603L166.421 76.8203H168.827L163.816 88.3604C163.482 89.1604 163.108 89.7937 162.693 90.2603C162.292 90.727 161.838 91.0537 161.33 91.2403C160.836 91.427 160.288 91.5203 159.687 91.5203ZM161.891 87.8803L157.061 76.8203H159.667L163.595 86.0403L161.891 87.8803Z" fill="white" fill-opacity="0.6"/>
<path d="M152.097 87.6402C151.189 87.6402 150.38 87.4402 149.672 87.0402C148.964 86.6402 148.403 86.0402 147.988 85.2402C147.587 84.4269 147.387 83.4002 147.387 82.1602C147.387 80.9069 147.594 79.8802 148.008 79.0802C148.436 78.2802 149.004 77.6869 149.712 77.3002C150.434 76.9002 151.229 76.7002 152.097 76.7002C153.153 76.7002 154.082 76.9269 154.883 77.3802C155.699 77.8336 156.34 78.4669 156.808 79.2802C157.289 80.0936 157.529 81.0536 157.529 82.1602C157.529 83.2669 157.289 84.2269 156.808 85.0402C156.34 85.8536 155.699 86.4936 154.883 86.9602C154.082 87.4136 153.153 87.6402 152.097 87.6402ZM146.164 87.5002V72.6602H148.67V79.3002L148.469 82.1402L148.549 84.9802V87.5002H146.164ZM151.817 85.5002C152.418 85.5002 152.953 85.3669 153.42 85.1002C153.901 84.8336 154.282 84.4469 154.563 83.9402C154.843 83.4336 154.984 82.8402 154.984 82.1602C154.984 81.4669 154.843 80.8736 154.563 80.3802C154.282 79.8736 153.901 79.4869 153.42 79.2202C152.953 78.9536 152.418 78.8202 151.817 78.8202C151.215 78.8202 150.674 78.9536 150.193 79.2202C149.712 79.4869 149.331 79.8736 149.051 80.3802C148.77 80.8736 148.63 81.4669 148.63 82.1602C148.63 82.8402 148.77 83.4336 149.051 83.9402C149.331 84.4469 149.712 84.8336 150.193 85.1002C150.674 85.3669 151.215 85.5002 151.817 85.5002Z" fill="white" fill-opacity="0.6"/>
<path d="M132.998 87.6402C131.969 87.6402 131.04 87.4136 130.212 86.9602C129.397 86.4936 128.755 85.8536 128.288 85.0402C127.82 84.2269 127.586 83.2669 127.586 82.1602C127.586 81.0536 127.82 80.0936 128.288 79.2802C128.755 78.4669 129.397 77.8336 130.212 77.3802C131.04 76.9269 131.969 76.7002 132.998 76.7002C133.893 76.7002 134.695 76.9002 135.403 77.3002C136.111 77.6869 136.673 78.2802 137.087 79.0802C137.501 79.8802 137.708 80.9069 137.708 82.1602C137.708 83.4002 137.508 84.4269 137.107 85.2402C136.706 86.0402 136.151 86.6402 135.443 87.0402C134.735 87.4402 133.92 87.6402 132.998 87.6402ZM133.299 85.5002C133.9 85.5002 134.434 85.3669 134.902 85.1002C135.383 84.8336 135.764 84.4469 136.045 83.9402C136.338 83.4336 136.486 82.8402 136.486 82.1602C136.486 81.4669 136.338 80.8736 136.045 80.3802C135.764 79.8736 135.383 79.4869 134.902 79.2202C134.434 78.9536 133.9 78.8202 133.299 78.8202C132.697 78.8202 132.156 78.9536 131.675 79.2202C131.207 79.4869 130.826 79.8736 130.533 80.3802C130.252 80.8736 130.112 81.4669 130.112 82.1602C130.112 82.8402 130.252 83.4336 130.533 83.9402C130.826 84.4469 131.207 84.8336 131.675 85.1002C132.156 85.3669 132.697 85.5002 133.299 85.5002ZM136.546 87.5002V84.9802L136.646 82.1402L136.446 79.3002V72.6602H138.931V87.5002H136.546Z" fill="white" fill-opacity="0.6"/>
<path d="M121.827 87.6392C120.637 87.6392 119.595 87.4058 118.7 86.9392C117.818 86.4592 117.13 85.8058 116.636 84.9792C116.155 84.1525 115.914 83.2125 115.914 82.1592C115.914 81.0925 116.148 80.1525 116.616 79.3392C117.097 78.5125 117.751 77.8658 118.58 77.3992C119.422 76.9325 120.377 76.6992 121.446 76.6992C122.489 76.6992 123.417 76.9258 124.232 77.3792C125.047 77.8325 125.689 78.4725 126.157 79.2992C126.624 80.1258 126.858 81.0992 126.858 82.2192C126.858 82.3258 126.851 82.4458 126.838 82.5792C126.838 82.7125 126.831 82.8392 126.818 82.9592H117.898V81.2992H125.495L124.513 81.8192C124.526 81.2058 124.399 80.6658 124.132 80.1992C123.865 79.7325 123.497 79.3658 123.03 79.0992C122.575 78.8325 122.048 78.6992 121.446 78.6992C120.831 78.6992 120.29 78.8325 119.823 79.0992C119.368 79.3658 119.007 79.7392 118.74 80.2192C118.486 80.6858 118.359 81.2392 118.359 81.8792V82.2792C118.359 82.9192 118.506 83.4858 118.8 83.9792C119.094 84.4725 119.508 84.8525 120.043 85.1192C120.577 85.3858 121.192 85.5192 121.887 85.5192C122.489 85.5192 123.03 85.4258 123.511 85.2392C123.992 85.0525 124.419 84.7592 124.794 84.3592L126.137 85.8992C125.655 86.4592 125.047 86.8925 124.313 87.1992C123.591 87.4925 122.762 87.6392 121.827 87.6392Z" fill="white" fill-opacity="0.6"/>
<path d="M109.375 87.4992V76.8192H111.76V79.7592L111.48 78.8992C111.8 78.1792 112.301 77.6325 112.983 77.2592C113.677 76.8858 114.539 76.6992 115.569 76.6992V79.0792C115.461 79.0525 115.361 79.0392 115.268 79.0392C115.174 79.0258 115.081 79.0192 114.987 79.0192C114.038 79.0192 113.284 79.2992 112.722 79.8592C112.161 80.4058 111.88 81.2258 111.88 82.3192V87.4992H109.375Z" fill="white" fill-opacity="0.6"/>
<path d="M102.741 87.6392C101.552 87.6392 100.51 87.4058 99.6143 86.9392C98.7323 86.4592 98.0441 85.8058 97.5497 84.9792C97.0687 84.1525 96.8281 83.2125 96.8281 82.1592C96.8281 81.0925 97.0619 80.1525 97.5297 79.3392C98.0107 78.5125 98.6655 77.8658 99.494 77.3992C100.336 76.9325 101.291 76.6992 102.36 76.6992C103.403 76.6992 104.331 76.9258 105.147 77.3792C105.961 77.8325 106.603 78.4725 107.071 79.2992C107.538 80.1258 107.772 81.0992 107.772 82.2192C107.772 82.3258 107.765 82.4458 107.752 82.5792C107.752 82.7125 107.745 82.8392 107.732 82.9592H98.8125V81.2992H106.409L105.427 81.8192C105.44 81.2058 105.313 80.6658 105.046 80.1992C104.779 79.7325 104.411 79.3658 103.944 79.0992C103.489 78.8325 102.962 78.6992 102.36 78.6992C101.746 78.6992 101.204 78.8325 100.737 79.0992C100.282 79.3658 99.9216 79.7392 99.6543 80.2192C99.4004 80.6858 99.2735 81.2392 99.2735 81.8792V82.2792C99.2735 82.9192 99.4205 83.4858 99.7145 83.9792C100.008 84.4725 100.423 84.8525 100.957 85.1192C101.492 85.3858 102.106 85.5192 102.801 85.5192C103.403 85.5192 103.944 85.4258 104.425 85.2392C104.906 85.0525 105.334 84.7592 105.708 84.3592L107.051 85.8992C106.57 86.4592 105.961 86.8925 105.227 87.1992C104.505 87.4925 103.677 87.6392 102.741 87.6392Z" fill="white" fill-opacity="0.6"/>
<path d="M82.7489 87.5003L78.8203 76.8203H81.1855L84.5529 86.2403H83.4304L86.9582 76.8203H89.0628L92.4904 86.2403H91.3879L94.8556 76.8203H97.0805L93.1318 87.5003H90.7265L87.5996 79.1603H88.3412L85.1542 87.5003H82.7489Z" fill="white" fill-opacity="0.6"/>
<path d="M73.3722 87.6392C72.2764 87.6392 71.301 87.4058 70.4458 86.9392C69.5905 86.4592 68.9157 85.8058 68.4213 84.9792C67.9269 84.1525 67.6797 83.2125 67.6797 82.1592C67.6797 81.0925 67.9269 80.1525 68.4213 79.3392C68.9157 78.5125 69.5905 77.8658 70.4458 77.3992C71.301 76.9325 72.2764 76.6992 73.3722 76.6992C74.4813 76.6992 75.4635 76.9325 76.3187 77.3992C77.1873 77.8658 77.8621 78.5058 78.3432 79.3192C78.8376 80.1325 79.0848 81.0792 79.0848 82.1592C79.0848 83.2125 78.8376 84.1525 78.3432 84.9792C77.8621 85.8058 77.1873 86.4592 76.3187 86.9392C75.4635 87.4058 74.4813 87.6392 73.3722 87.6392ZM73.3722 85.4992C73.9869 85.4992 74.5348 85.3658 75.0158 85.0992C75.4969 84.8325 75.8711 84.4458 76.1383 83.9392C76.4189 83.4325 76.5592 82.8392 76.5592 82.1592C76.5592 81.4658 76.4189 80.8725 76.1383 80.3792C75.8711 79.8725 75.4969 79.4858 75.0158 79.2192C74.5348 78.9525 73.9936 78.8192 73.3922 78.8192C72.7775 78.8192 72.2297 78.9525 71.7486 79.2192C71.2809 79.4858 70.9068 79.8725 70.6262 80.3792C70.3455 80.8725 70.2052 81.4658 70.2052 82.1592C70.2052 82.8392 70.3455 83.4325 70.6262 83.9392C70.9068 84.4458 71.2809 84.8325 71.7486 85.0992C72.2297 85.3658 72.7709 85.4992 73.3722 85.4992Z" fill="white" fill-opacity="0.6"/>
<path d="M55.2969 87.5V73.5H61.0696C62.3123 73.5 63.3747 73.7 64.2566 74.1C65.1519 74.5 65.8401 75.0734 66.3212 75.82C66.8022 76.5667 67.0427 77.4533 67.0427 78.48C67.0427 79.5066 66.8022 80.3934 66.3212 81.14C65.8401 81.8867 65.1519 82.46 64.2566 82.86C63.3747 83.26 62.3123 83.46 61.0696 83.46H56.7401L57.9026 82.24V87.5H55.2969ZM57.9026 82.52L56.7401 81.26H60.9493C62.0986 81.26 62.9605 81.02 63.535 80.54C64.123 80.0466 64.417 79.36 64.417 78.48C64.417 77.5866 64.123 76.9 63.535 76.42C62.9605 75.94 62.0986 75.7 60.9493 75.7H56.7401L57.9026 74.42V82.52Z" fill="white" fill-opacity="0.6"/>
<mask id="mask1_629_281" style="mask-type:luminance" maskUnits="userSpaceOnUse" x="173" y="70" width="109" height="24">
<path d="M282.004 70H173.766V94H282.004V70Z" fill="white"/>
</mask>
<g mask="url(#mask1_629_281)">
<path d="M208.379 87.5416C207.256 87.5416 206.254 87.3082 205.372 86.8416C204.503 86.3616 203.822 85.7082 203.328 84.8816C202.833 84.0549 202.586 83.1149 202.586 82.0616C202.586 80.9949 202.833 80.0549 203.328 79.2416C203.822 78.4149 204.503 77.7682 205.372 77.3016C206.254 76.8349 207.256 76.6016 208.379 76.6016C209.421 76.6016 210.336 76.8149 211.125 77.2416C211.927 77.6549 212.534 78.2682 212.949 79.0816L211.025 80.2016C210.704 79.6949 210.309 79.3216 209.842 79.0816C209.387 78.8416 208.893 78.7216 208.359 78.7216C207.744 78.7216 207.189 78.8549 206.695 79.1216C206.2 79.3882 205.813 79.7749 205.532 80.2816C205.252 80.7749 205.112 81.3682 205.112 82.0616C205.112 82.7549 205.252 83.3549 205.532 83.8616C205.813 84.3549 206.2 84.7349 206.695 85.0016C207.189 85.2682 207.744 85.4016 208.359 85.4016C208.893 85.4016 209.387 85.2816 209.842 85.0416C210.309 84.8016 210.704 84.4282 211.025 83.9216L212.949 85.0416C212.534 85.8416 211.927 86.4616 211.125 86.9016C210.336 87.3282 209.421 87.5416 208.379 87.5416Z" fill="white" fill-opacity="0.6"/>
<path d="M272.865 87.5416C271.769 87.5416 270.793 87.3082 269.938 86.8416C269.083 86.3616 268.408 85.7082 267.914 84.8816C267.42 84.0549 267.172 83.1149 267.172 82.0616C267.172 80.9949 267.42 80.0549 267.914 79.2416C268.408 78.4149 269.083 77.7682 269.938 77.3016C270.793 76.8349 271.769 76.6016 272.865 76.6016C273.974 76.6016 274.956 76.8349 275.811 77.3016C276.68 77.7682 277.354 78.4082 277.835 79.2216C278.33 80.0349 278.577 80.9816 278.577 82.0616C278.577 83.1149 278.33 84.0549 277.835 84.8816C277.354 85.7082 276.68 86.3616 275.811 86.8416C274.956 87.3082 273.974 87.5416 272.865 87.5416ZM272.865 85.4016C273.479 85.4016 274.027 85.2682 274.508 85.0016C274.989 84.7349 275.364 84.3482 275.631 83.8416C275.911 83.3349 276.052 82.7416 276.052 82.0616C276.052 81.3682 275.911 80.7749 275.631 80.2816C275.364 79.7749 274.989 79.3882 274.508 79.1216C274.027 78.8549 273.486 78.7216 272.885 78.7216C272.27 78.7216 271.722 78.8549 271.241 79.1216C270.773 79.3882 270.399 79.7749 270.118 80.2816C269.838 80.7749 269.698 81.3682 269.698 82.0616C269.698 82.7416 269.838 83.3349 270.118 83.8416C270.399 84.3482 270.773 84.7349 271.241 85.0016C271.722 85.2682 272.263 85.4016 272.865 85.4016Z" fill="white" fill-opacity="0.6"/>
<path d="M260.633 87.4016V76.7216H263.018V79.6616L262.737 78.8016C263.058 78.0816 263.559 77.5349 264.241 77.1616C264.936 76.7882 265.798 76.6016 266.826 76.6016V78.9816C266.72 78.9549 266.62 78.9416 266.526 78.9416C266.433 78.9282 266.339 78.9216 266.245 78.9216C265.297 78.9216 264.541 79.2016 263.98 79.7616C263.419 80.3082 263.138 81.1282 263.138 82.2216V87.4016H260.633Z" fill="white" fill-opacity="0.6"/>
<path d="M252.321 87.5387C251.413 87.5387 250.611 87.372 249.916 87.0387C249.221 86.692 248.68 86.1721 248.292 85.4788C247.905 84.7721 247.711 83.8854 247.711 82.8187V76.7188H250.217V82.4788C250.217 83.4388 250.43 84.1587 250.858 84.6387C251.299 85.1054 251.92 85.3387 252.722 85.3387C253.31 85.3387 253.818 85.2188 254.245 84.9788C254.686 84.7388 255.027 84.3788 255.268 83.8988C255.522 83.4188 255.648 82.8255 255.648 82.1188V76.7188H258.154V87.3988H255.769V84.5187L256.19 85.3988C255.829 86.0921 255.301 86.6254 254.606 86.9987C253.912 87.3587 253.15 87.5387 252.321 87.5387Z" fill="white" fill-opacity="0.6"/>
<path d="M239.365 87.5385C238.336 87.5385 237.408 87.3119 236.579 86.8585C235.764 86.3919 235.123 85.7519 234.655 84.9385C234.187 84.1252 233.953 83.1652 233.953 82.0585C233.953 80.9519 234.187 79.9919 234.655 79.1785C235.123 78.3652 235.764 77.7319 236.579 77.2785C237.408 76.8252 238.336 76.5985 239.365 76.5985C240.261 76.5985 241.062 76.7985 241.77 77.1985C242.479 77.5852 243.04 78.1785 243.454 78.9785C243.869 79.7785 244.076 80.8052 244.076 82.0585C244.076 83.2985 243.875 84.3252 243.474 85.1385C243.073 85.9385 242.519 86.5385 241.811 86.9385C241.102 87.3385 240.287 87.5385 239.365 87.5385ZM239.666 85.3985C240.267 85.3985 240.802 85.2652 241.269 84.9985C241.75 84.7319 242.131 84.3452 242.412 83.8385C242.706 83.3319 242.853 82.7385 242.853 82.0585C242.853 81.3652 242.706 80.7719 242.412 80.2785C242.131 79.7719 241.75 79.3852 241.269 79.1185C240.802 78.8519 240.267 78.7185 239.666 78.7185C239.064 78.7185 238.523 78.8519 238.042 79.1185C237.575 79.3852 237.194 79.7719 236.9 80.2785C236.619 80.7719 236.479 81.3652 236.479 82.0585C236.479 82.7385 236.619 83.3319 236.9 83.8385C237.194 84.3452 237.575 84.7319 238.042 84.9985C238.523 85.2652 239.064 85.3985 239.666 85.3985ZM242.913 87.3985V84.8785L243.013 82.0385L242.813 79.1985V72.5586H245.298V87.3985H242.913Z" fill="white" fill-opacity="0.6"/>
<path d="M227.414 87.4016V76.7216H229.799V79.6616L229.519 78.8016C229.839 78.0816 230.341 77.5349 231.022 77.1616C231.717 76.7882 232.579 76.6016 233.608 76.6016V78.9816C233.501 78.9549 233.4 78.9416 233.307 78.9416C233.213 78.9282 233.12 78.9216 233.026 78.9216C232.077 78.9216 231.323 79.2016 230.762 79.7616C230.2 80.3082 229.92 81.1282 229.92 82.2216V87.4016H227.414Z" fill="white" fill-opacity="0.6"/>
<path d="M220.107 87.5416C219.011 87.5416 218.036 87.3082 217.18 86.8416C216.325 86.3616 215.65 85.7082 215.156 84.8816C214.661 84.0549 214.414 83.1149 214.414 82.0616C214.414 80.9949 214.661 80.0549 215.156 79.2416C215.65 78.4149 216.325 77.7682 217.18 77.3016C218.036 76.8349 219.011 76.6016 220.107 76.6016C221.216 76.6016 222.198 76.8349 223.053 77.3016C223.922 77.7682 224.597 78.4082 225.078 79.2216C225.572 80.0349 225.819 80.9816 225.819 82.0616C225.819 83.1149 225.572 84.0549 225.078 84.8816C224.597 85.7082 223.922 86.3616 223.053 86.8416C222.198 87.3082 221.216 87.5416 220.107 87.5416ZM220.107 85.4016C220.722 85.4016 221.269 85.2682 221.75 85.0016C222.231 84.7349 222.606 84.3482 222.873 83.8416C223.153 83.3349 223.294 82.7416 223.294 82.0616C223.294 81.3682 223.153 80.7749 222.873 80.2816C222.606 79.7749 222.231 79.3882 221.75 79.1216C221.269 78.8549 220.728 78.7216 220.127 78.7216C219.512 78.7216 218.964 78.8549 218.483 79.1216C218.016 79.3882 217.641 79.7749 217.361 80.2816C217.08 80.7749 216.94 81.3682 216.94 82.0616C216.94 82.7416 217.08 83.3349 217.361 83.8416C217.641 84.3482 218.016 84.7349 218.483 85.0016C218.964 85.2682 219.505 85.4016 220.107 85.4016Z" fill="white" fill-opacity="0.6"/>
<path d="M185.788 85C187.449 85 188.794 83.6568 188.794 82C188.794 80.3432 187.449 79 185.788 79C184.127 79 182.781 80.3432 182.781 82C182.781 83.6568 184.127 85 185.788 85Z" fill="white" fill-opacity="0.6"/>
<path fill-rule="evenodd" clip-rule="evenodd" d="M193.81 90.8738L190.415 87.4734C189.482 88.2722 188.358 88.8205 187.148 89.0616C185.753 89.3394 184.308 89.1969 182.995 88.652C182.294 88.3609 181.647 87.9622 181.075 87.4734C180.791 87.2298 180.525 86.9639 180.281 86.6779C180.098 86.463 179.927 86.2368 179.769 86.0001C178.979 84.8161 178.558 83.424 178.558 82C178.558 80.576 178.979 79.1839 179.769 77.9999C179.927 77.7632 180.098 77.537 180.281 77.3222C180.525 77.0361 180.791 76.7702 181.075 76.5266C181.647 76.0379 182.294 75.6391 182.995 75.3481C184.308 74.8031 185.753 74.6605 187.148 74.9383C188.358 75.1795 189.482 75.7278 190.415 76.5266L193.81 73.1263C192.202 71.6598 190.222 70.657 188.082 70.2306C185.759 69.7676 183.35 70.0052 181.161 70.9135C179.875 71.4469 178.699 72.1977 177.681 73.1263C177.404 73.3786 177.139 73.644 176.887 73.9218C176.486 74.3623 176.118 74.8338 175.785 75.3331C174.468 77.3066 173.766 79.6266 173.766 82C173.766 84.3734 174.468 86.6934 175.785 88.6668C176.118 89.1662 176.486 89.6377 176.887 90.0782C177.139 90.356 177.404 90.6214 177.681 90.8736C178.699 91.8024 179.875 92.553 181.161 93.0866C183.35 93.9948 185.759 94.2324 188.082 93.7694C190.222 93.343 192.202 92.3402 193.81 90.8738Z" fill="white" fill-opacity="0.6"/>
<path d="M191.203 77.3674C192.328 78.6539 192.953 80.2955 192.953 82C192.953 83.7045 192.328 85.3461 191.203 86.6326L194.649 90C196.683 87.8169 197.818 84.9656 197.818 82C197.818 79.0344 196.683 76.1831 194.649 74L191.203 77.3674Z" fill="white" fill-opacity="0.6"/>
<path d="M279.563 71.9258C279.974 71.9258 280.369 72.029 280.747 72.2352C281.125 72.4394 281.422 72.7331 281.636 73.1165C281.853 73.4998 281.962 73.9008 281.962 74.3196C281.962 74.7363 281.856 75.1342 281.643 75.5133C281.432 75.8904 281.136 76.1852 280.757 76.3977C280.379 76.6081 279.981 76.7133 279.563 76.7133C279.146 76.7133 278.747 76.6081 278.367 76.3977C277.989 76.1852 277.693 75.8904 277.48 75.5133C277.269 75.1342 277.164 74.7363 277.164 74.3196C277.164 73.9008 277.272 73.4998 277.487 73.1165C277.704 72.7331 278.001 72.4394 278.379 72.2352C278.757 72.029 279.152 71.9258 279.563 71.9258ZM279.566 72.3946C279.236 72.3946 278.92 72.4769 278.617 72.6415C278.315 72.806 278.076 73.0425 277.9 73.3508C277.727 73.6592 277.64 73.9821 277.64 74.3196C277.64 74.655 277.725 74.9748 277.894 75.2789C278.065 75.5831 278.303 75.8206 278.608 75.9914C278.912 76.1623 279.232 76.2477 279.566 76.2477C279.903 76.2477 280.222 76.1623 280.525 75.9914C280.83 75.8206 281.067 75.5831 281.239 75.2789C281.41 74.9748 281.496 74.655 281.496 74.3196C281.496 73.9821 281.408 73.6592 281.233 73.3508C281.059 73.0425 280.82 72.806 280.515 72.6415C280.212 72.4769 279.896 72.3946 279.566 72.3946ZM278.48 75.6008V73.0602H278.996C279.481 73.0602 279.752 73.0623 279.81 73.0665C279.982 73.081 280.114 73.1154 280.208 73.1696C280.305 73.2217 280.384 73.3029 280.446 73.4133C280.511 73.5217 280.544 73.6425 280.544 73.7758C280.544 73.9592 280.483 74.1165 280.362 74.2477C280.243 74.3769 280.075 74.4571 279.858 74.4883C279.935 74.5175 279.994 74.5498 280.036 74.5852C280.078 74.6185 280.135 74.6831 280.208 74.779C280.227 74.804 280.29 74.9071 280.396 75.0883L280.697 75.6008H280.058L279.845 75.1883C279.701 74.9113 279.582 74.7373 279.488 74.6665C279.394 74.5935 279.275 74.5571 279.131 74.5571H278.996V75.6008H278.48ZM278.996 74.1571H279.206C279.505 74.1571 279.689 74.1456 279.76 74.1227C279.834 74.0998 279.891 74.0602 279.933 74.004C279.974 73.9456 279.995 73.88 279.995 73.8071C279.995 73.7363 279.974 73.6738 279.933 73.6196C279.893 73.5633 279.836 73.5238 279.76 73.5008C279.685 73.4758 279.501 73.4633 279.206 73.4633H278.996V74.1571Z" fill="white" fill-opacity="0.6"/>
</g>
</g>
</svg>
