<svg width="56" height="56" viewBox="0 0 56 56" fill="none" xmlns="http://www.w3.org/2000/svg">
<g clip-path="url(#clip0_204_8982)">
<path fill-rule="evenodd" clip-rule="evenodd" d="M4.21691 39.84L0.988281 56H11.3774L14.6183 39.84H28.3197C33.8072 39.84 38.549 38.9333 42.5449 37.1199C46.5406 35.2533 49.6042 32.6134 51.7353 29.2C53.9196 25.7333 55.0118 21.6267 55.0118 16.88C55.0118 11.6 53.1472 7.46668 49.4177 4.48C45.7415 1.49333 40.5203 0 33.754 0H12.1766L10.4184 8.8H16.4122H20.8101H32.6352C36.4712 8.8 39.4015 9.54667 41.426 11.04C43.5038 12.5333 44.5428 14.8 44.5428 17.84C44.5428 22.16 43.1576 25.44 40.3871 27.68C37.6167 29.92 33.7274 31.04 28.7193 31.04H16.3777H11.6971H5.97506L4.21691 39.84Z" fill="#0094FF"/>
<path d="M28.5013 15.4668H29.6783H33.2541C34.7445 15.4668 35.8945 15.7966 36.7042 16.4564C37.5257 17.116 37.9363 18.029 37.9363 19.1953C37.9363 20.2438 37.6959 21.1508 37.2148 21.9165C36.7453 22.6706 36.0705 23.2536 35.1904 23.6661C34.3102 24.0665 33.2658 24.2667 32.057 24.2667H29.6783H29.0391H28.0436H26.748H17.703H13.1836H7.30176L9.05991 15.4668H14.7819H19.4626H28.5013Z" fill="#0094FF"/>
</g>
<defs>
<clipPath id="clip0_204_8982">
<rect width="56" height="56" fill="white"/>
</clipPath>
</defs>
</svg>
