<svg xmlns="http://www.w3.org/2000/svg" xmlns:xlink="http://www.w3.org/1999/xlink" version="1.1" id="Layer_1" x="0px" y="0px" viewBox="0 0 371 91" style="enable-background:new 0 0 371 91;" xml:space="preserve" width="371"  height="91" >
<style type="text/css">
	.st0{fill:none;}
	.st1{fill:#FFFFFF;}
	.st2{fill:#00529C;}
	.st3{fill:#619869;}
</style>
<symbol id="rogue_logo" viewBox="-185 -41.9 370 83.8">
	<path class="st0" d="M-7.1,34.6C-9.9,37-14.4,39-18,39c-3.7,0-7.5-2.3-9.4-4.2c-2.8-2.7-5.8-8.7-5.8-18.5   c0-12.7,7.8-26.5,19.9-26.5c4.6,0,7.4,2.3,8.4,3.4c3.5,3.5,6.4,10.5,6.4,19.4C1.5,19.2-1.1,29.1-7.1,34.6z"/>
	<path class="st0" d="M-9.8-20h-1.9v-18.1h1.9c2.6,0,4.5,0.8,5.7,2.5c1.2,1.7,1.8,3.9,1.8,6.6C-2.3-23.1-4.8-20-9.8-20z"/>
	<path class="st0" d="M-58.8-19.9h-3.5V-28h3.5c1.5,0,2.7,0.4,3.4,1.2c0.7,0.8,1.1,1.8,1.1,3C-54.4-21.2-55.8-19.9-58.8-19.9z"/>
	<path class="st0" d="M-75.9,15.5c4.2,0,8,1.2,8.9,1.8c2.2,1.7,4.6,4.6,4.6,9.2c0,2.1-0.7,5.9-3.6,8.7c-1.9,2-4.5,2.9-6.7,2.9   c-0.3,0-2.5-0.2-3.1-0.6c-0.4-0.2-0.9-1.3-1-1.7c-0.2-2.8-0.6-17.2-0.2-19.4C-76.9,16-76.3,15.5-75.9,15.5z"/>
	<path class="st0" d="M139.2-19.7c-1.9,0-3.2-0.8-3.9-2.5c-0.7-1.7-1.1-4-1.1-6.9c0-2.9,0.4-5.2,1.1-6.9c0.7-1.7,2.1-2.6,4-2.6   c1.8,0,3.1,0.8,3.9,2.5c0.8,1.7,1.1,4,1.1,7c0,2.9-0.4,5.2-1.1,6.9C142.4-20.5,141.1-19.7,139.2-19.7z"/>
	<path class="st1" d="M-133.9,31.8l-51-45.6v-10.6c19.3,1.7,28.8-11.4,44.7-16.9h37.9c-34,2.5-49,23.9-82.5,21.6l34.3,29.6l9.5-7.7   l14.8,17.5l24.1-14.9l0-46.1h0v82.1h0l0-25.2L-133.9,31.8z"/>
	<polygon class="st2" points="-185,-13.9 -185,-13.8 -133.9,31.8 -102.3,15.5 -102.3,40.7 -102.3,40.9 -185,40.9  "/>
	<path class="st3" d="M-185-24.5C-185-24.5-185-24.5-185-24.5l0-16.9c0,0,44.7,0,44.7,0c0,0,0,0,0,0   C-156.2-35.9-165.6-22.8-185-24.5z"/>
	<path class="st3" d="M-126.4,19.5l-14.8-17.5l-9.5,7.7l-34.3-29.6c33.5,2.4,48.6-19,82.5-21.6c0,0,0.1,0,0.1,0v0l0,46.1   L-126.4,19.5z"/>
	<path d="M-92-9.4c-1.1-0.3-2-0.8-2-1.3c0-0.7,0.6-1.3,2.6-1.3c0.9,0,5,0.3,7.9,0.3c4.1,0,7.7-0.5,10.6-0.5c1,0,2.6,0.3,2.6,1.2   c0,0.6-0.6,1.2-2,1.6c-3.8,1-4.4,1.8-4.6,5.4c-0.2,3.8-0.4,14.8-0.2,16.4c0.1,0.4,0.6,0.8,0.9,0.8c1.6,0,3.4-0.6,4-1.1   c0.7-0.4,1.9-2.2,2.6-3.5c3.5-5.9,7.7-12.7,10-15.8c1.7-2.4,5-5.4,12.5-5.4c1.1,0,4.2,0.2,5.5,0.7c0.6,0.2,1.3,0.7,1.3,1.2   c0,0.3-0.7,1-1.5,1.2c-2.5,0.5-4.9,1.5-7.1,4.1c-4.1,4.8-10.9,16.2-12.5,19.5c-0.2,0.3-0.2,1,0.2,1.2c1.2,0.6,2.9,1.5,3.2,1.7   c3.6,2.9,5.8,6.1,5.8,10.5c0,3.8-1.9,7.7-4.5,9.8c-4,3.3-10.6,3.6-14.4,3.6c-4.5,0-11.3-0.4-14.4-0.4h-6c-1.4,0-2.4-0.6-2.4-1.2   c0-0.7,0.9-1.2,2.1-1.6c3.9-0.9,4.6-2.1,4.8-4.1c0.2-2.2,0.4-9.2,0.4-18.1c0-7,0-13.9-0.5-20.3C-87.3-7.2-88.2-8.2-92-9.4z    M-76.7,35.9c0.1,0.4,0.6,1.5,1,1.7c0.7,0.3,2.8,0.6,3.1,0.6c2.2,0,4.8-0.9,6.7-2.9c2.8-2.9,3.6-6.6,3.6-8.7c0-4.6-2.4-7.6-4.6-9.2   c-0.9-0.6-4.7-1.8-8.9-1.8c-0.4,0-1,0.5-1.1,1C-77.3,18.7-77,33.1-76.7,35.9z"/>
	<path d="M-16,41.9c-7,0-13.9-3.1-17.6-5.9c-6.2-4.9-10.7-11.4-10.7-21.4c0-7.6,2.6-14.1,7.1-18.9c5.2-5.5,12.8-8.8,21.5-8.8   c6.4,0,13.4,2.3,18.1,5.9C8.2-2.6,12.9,4.4,12.9,15.2C12.9,28.4,2.3,41.9-16,41.9z M-4.9-6.7c-1.1-1.1-3.9-3.4-8.4-3.4   c-12.1,0-19.9,13.8-19.9,26.5c0,9.8,3,15.7,5.8,18.5c1.9,1.9,5.6,4.2,9.4,4.2c3.6,0,8.1-2,10.9-4.5c6-5.5,8.6-15.4,8.6-21.9   C1.5,3.8-1.4-3.3-4.9-6.7z"/>
	<path d="M48.8,39.2c6.6,0,11.4-3.5,13.2-5.6c1.2-1.6,2.6-4.2,3.1-5.8c0.5-1.2,1.2-2.1,1.6-2.1c0.9,0,1.4,1,1.4,2.1   c0,3.3-1.2,7.5-1.2,9.9c-0.1,1.2-0.7,1.9-1,1.9c-0.7,0.1-2.4,0.3-3.7,0.7c-3.2,0.8-7.9,1.7-13.5,1.7c-8.5,0-17-2.9-22.2-7.5   c-5.7-4.9-9.2-11.5-9.2-19.9C17.3,3.7,22-2.4,25.8-6c5-4.5,13.2-7.2,22.2-7.2c2.1,0,8.7,0.9,12.3,1.6c3.3,0.7,6.1,1.4,7.5,1.8   C68.4-9.5,69-8.9,69-8.5c0,0.6-0.2,0.9-0.9,1.4c-1,1-1.3,1.3-1.3,2.5c0,3.4,0.2,9.2,0.4,10.2c0.2,1.2,0.1,2.1,2.9,2.9   c1,0.3,1.9,1.1,1.9,1.6c0,0.7-0.7,1.2-2.2,1.2c-3.1,0-7.6-0.5-9.6-0.5c-2.2,0-6.9,0.3-9.9,0.3c-1.7,0-2.8-0.6-2.8-1.2   c0-0.7,1.2-1.5,2.4-1.6c5.5-0.5,6.1-2.1,6.6-4c0.2-1,0.3-4.5,0.3-7.3c0-2.8-0.7-5.1-1.7-5.8c-1.8-1.2-4.2-1.6-5.2-1.6   c-7.4,0-13.9,4.4-17.5,10.7c-2.4,4.1-3.5,9.1-3.5,14.8C28.9,28.1,36.3,39.2,48.8,39.2z"/>
	<path d="M132.1,39.6c0,0.7-0.7,1.2-2.1,1.2c-2.3,0-4.4-0.3-7.7-0.3c-2.6,0-5.6,0.3-7.6,0.3c-1.4,0-2.2-0.5-2.2-1   c0-0.7,1.4-1.4,2.2-1.6c3.8-0.9,5.2-2.2,5.5-4.7c0.2-0.9,0.4-2.6,0.4-8c0-11.4-0.6-18.3-1.6-22.7c-2.1-9-8.8-10.8-14.5-10.8   c-2.4,0-7.8,1.3-10.1,3.6c-2.7,2.8-4.6,5.7-4.6,15.2c0,11.6-0.1,19.5,0.3,22.3c0.5,3.2,1.5,4.2,4.5,4.8c1.6,0.3,2.5,1,2.5,1.6   c0,0.7-0.8,1.2-2.4,1.2c-1.8,0-6.5-0.3-9.5-0.3c-3,0-6.2,0.3-9.7,0.3c-1.4,0-2.5-0.5-2.5-1.2c0-0.7,1.3-1.3,2.2-1.6   c3.1-0.7,4-2.1,4.1-3.7c0.1-1,0.3-13.8,0.3-20c0-13.2,2-18.1,6.6-22.4c2.7-2.5,8.1-5,15.6-5c3.3,0,7.5,0.4,11.3,2.6   c5.9,3.4,10.1,9.1,10.7,23c0.2,4.3,0.7,14.1,0.7,18c0.1,5.2,1.3,6.8,5.4,7.7C131.1,38.4,132.1,39.1,132.1,39.6z"/>
	<path d="M141.6-3.1c-0.3-4.4-1.4-5.3-5.6-6.3c-1.4-0.3-2.5-0.9-2.5-1.6c0-0.8,1.2-1.1,2.8-1.1c3,0,3.9,0.4,9.4,0.4   c6.2,0,26.7-0.4,27.6-0.4c0.4,0,1.7,0.5,2,1.1c0.8,1.3,3.1,8.9,3.1,9.6c0.1,0.7,0.2,2.4-0.7,2.4c-0.7,0-1.4-0.7-2.6-2.9   c-1.8-3.2-4.1-5.2-6.5-6.1c-2.1-0.7-5.1-0.7-7.6-0.7c-2.8,0-5.4,0.2-6.7,0.5c-0.8,0.2-1.6,1.2-1.8,2c-0.3,1.7-0.2,4.8-0.3,6.8   c-0.1,2.7-0.2,9.2,0.2,11.5c0,0.2,0.7,1,1.1,1c2.6,0,5.6,0,8.3-0.2c3.2-0.2,4.3-0.8,5.4-4.5c0.2-0.8,0.9-1.8,1.6-1.8   c0.7,0,1.2,1,1.1,2.5c-0.2,2.1-0.3,3.4-0.3,5.6c0,1.9,0.2,3.4,0.3,5.7c0.1,0.9-0.2,2.3-0.8,2.3c-0.7,0-1.3-0.9-1.8-2.1   c-1.6-3.6-1.4-4-7.3-4h-6.6c-0.5,0-0.8,0.6-0.8,0.8c-0.1,4.5,0.2,16,0.3,18.1c0.1,2,0.7,2.3,1.1,2.3c6.4,0.1,9.9-0.2,11.5-0.5   c1.9-0.3,4.2-1.6,5.3-6.2c0.2-0.8,0.8-2.1,1.6-2.1c0.7,0,1.3,1.2,1.3,2.3c0,1.6,0,7.3-0.1,8.8c-0.1,0.6-0.7,1.2-1,1.1   c-1.2-0.2-4.6-0.5-7.3-0.5h-12.4c-4.3,0-11.1,0.2-15,0.2c-1.2,0-2.6-0.5-2.6-1.2c0-0.8,0.9-1.2,2.6-1.5c3.6-0.7,4.2-2.3,4.4-5.3   c0.2-2.4,0.1-6.2,0.1-15.9C142.3,6.6,141.9,0.4,141.6-3.1z"/>
	<path d="M-92-38.5c1.6-2.3,4.1-3.5,7.4-3.5c5.1,0,8.1,2.7,8.9,8.2l-4.2,0.5c-0.3-1.7-0.8-3.1-1.5-4c-0.7-0.9-1.7-1.4-3.1-1.4   c-3.5,0-5.2,3-5.2,9.1c0,6.5,1.7,9.8,5.2,9.8c2.6,0,4.1-1.9,4.6-5.6l4.2,0.6c-0.9,5.6-3.8,8.4-8.8,8.4c-3.2,0-5.7-1.1-7.4-3.3   c-1.7-2.2-2.6-5.4-2.6-9.6C-94.4-33.1-93.6-36.2-92-38.5z"/>
	<path d="M-49.9-23.8c0,2.3-0.7,4-2.1,5.2c-1.4,1.2-3.6,1.8-6.6,1.8h-8.2v-24.7h4.5v10.3h4.2l4.2-10.3h4.9l-5.2,11.2   C-51.3-29-49.9-26.9-49.9-23.8z M-55.5-26.8c-0.7-0.8-1.9-1.2-3.4-1.2h-3.5v8.1h3.5c3,0,4.5-1.3,4.5-3.9   C-54.4-25-54.7-26-55.5-26.8z"/>
	<polygon points="-24.5,-20 -24.5,-16.8 -40.1,-16.8 -40.1,-41.5 -24.3,-41.5 -24.3,-38.1 -35.6,-38.1 -35.6,-30.4 -26.9,-30.4    -26.9,-27.1 -35.6,-27.1 -35.6,-20  "/>
	<path d="M-2.9-18.2c-1.8,1-4.2,1.4-7.1,1.4h-6.1v-24.7h6.5c3.1,0,5.5,0.6,7.2,1.7c1.7,1.2,2.9,2.7,3.8,4.6c0.8,1.9,1.2,4,1.2,6.4   c0,2.3-0.5,4.4-1.4,6.3C0.2-20.6-1.1-19.1-2.9-18.2z M-4.1-35.7c-1.2-1.6-3.1-2.5-5.7-2.5h-1.9V-20h1.9c5,0,7.5-3,7.5-9.1   C-2.3-31.9-2.9-34.1-4.1-35.7z"/>
	<rect x="11.9" y="-41.5" width="4.5" height="24.7"/>
	<polygon points="34.1,-41.5 34.1,-20.2 40.2,-20.2 40.2,-16.8 23.5,-16.8 23.5,-20.2 29.6,-20.2 29.6,-41.5  "/>
	<path d="M59.8-16.8v-15.3c0-3.1,0.3-5.2,1-6.4c0.7-1.2,1.7-2.1,3-2.6c1.3-0.5,2.9-0.8,4.7-0.8c2.3,0,4.2,0.4,5.5,1.3   c1.4,0.9,2.3,1.9,2.6,3.2c0.4,1.3,0.6,3.2,0.6,5.6v15.1h-4.1V-32c0-2.1-0.1-3.5-0.4-4.3c-0.3-0.7-0.7-1.3-1.4-1.7   c-0.6-0.4-1.5-0.6-2.7-0.6c-1.2,0-2.2,0.2-2.9,0.7c-0.7,0.5-1.2,1.1-1.4,1.9c-0.2,0.8-0.3,2.1-0.3,3.8v15.3H59.8z"/>
	<polygon points="101.1,-41.5 105.3,-41.5 105.3,-16.8 101.5,-16.8 101.5,-34.6 92.6,-16.8 87.2,-16.8 87.2,-41.5 91,-41.5    91,-21.7  "/>
	<rect x="115.5" y="-41.5" width="4.5" height="24.7"/>
	<path d="M146.6-38.7c1.7,2.2,2.5,5.3,2.5,9.6c0,4.2-0.8,7.4-2.5,9.6c-1.7,2.2-4.1,3.2-7.3,3.2c-3.2,0-5.6-1.1-7.3-3.2   c-1.7-2.2-2.5-5.3-2.5-9.5c0-4.2,0.8-7.4,2.5-9.6c1.7-2.2,4.1-3.2,7.3-3.2C142.5-41.9,144.9-40.8,146.6-38.7z M143.2-36.1   c-0.8-1.7-2.1-2.5-3.9-2.5c-1.9,0-3.3,0.9-4,2.6c-0.7,1.7-1.1,4-1.1,6.9c0,2.9,0.4,5.2,1.1,6.9c0.7,1.7,2.1,2.5,3.9,2.5   c1.9,0,3.2-0.8,3.9-2.5c0.8-1.7,1.1-4,1.1-6.9C144.3-32.1,143.9-34.4,143.2-36.1z"/>
	<polygon points="162.1,-21.7 172.2,-41.5 176.4,-41.5 176.4,-16.8 172.6,-16.8 172.6,-34.6 163.7,-16.8 158.3,-16.8 158.3,-41.5    162.1,-41.5  "/>
	<polygon points="179.8,-41.5 179.8,-37.6 180.8,-37.6 180.8,-37 178,-37 178,-37.6 179,-37.6 179,-41.5  "/>
	<polygon points="183,-40.2 182.2,-37 181.1,-37 181.1,-41.5 181.7,-41.5 181.7,-37.7 182.7,-41.5 183.2,-41.5 184.3,-37.7    184.3,-41.5 185,-41.5 185,-37 183.9,-37  "/>
</symbol>
<use xlink:href="#rogue_logo" width="370" height="83.8" x="-185" y="-41.9" transform="matrix(0.9784 0 0 -0.9784 185.5 45.5)" style="overflow:visible;"/>
</svg>