<svg width="218" height="52" viewBox="0 0 218 52" fill="none" xmlns="http://www.w3.org/2000/svg">
<path d="M176.506 41L171.606 14.3H177.306L181.406 37.85H178.506L191.856 14.3H197.206L201.456 37.85H198.556L211.756 14.3H217.656L202.756 41H196.606L192.556 20.15H194.406L182.556 41H176.506Z" fill="#0094FF"/>
<path d="M152.062 41.35C149.462 41.35 147.179 40.8667 145.212 39.9C143.279 38.9 141.779 37.5333 140.712 35.8C139.645 34.0333 139.112 31.9667 139.112 29.6C139.112 26.6 139.795 23.9333 141.162 21.6C142.529 19.2333 144.395 17.3833 146.762 16.05C149.162 14.6833 151.895 14 154.962 14C157.595 14 159.879 14.4833 161.812 15.45C163.779 16.3833 165.295 17.7333 166.362 19.5C167.429 21.2333 167.962 23.3 167.962 25.7C167.962 28.6667 167.279 31.3333 165.912 33.7C164.545 36.0667 162.662 37.9333 160.262 39.3C157.895 40.6667 155.162 41.35 152.062 41.35ZM152.462 36C154.262 36 155.845 35.5833 157.212 34.75C158.579 33.8833 159.662 32.7 160.462 31.2C161.262 29.7 161.662 27.9667 161.662 26C161.662 23.9333 161.045 22.3 159.812 21.1C158.579 19.9 156.845 19.3 154.612 19.3C152.845 19.3 151.262 19.7333 149.862 20.6C148.495 21.4333 147.412 22.6 146.612 24.1C145.812 25.6 145.412 27.3333 145.412 29.3C145.412 31.4 146.029 33.05 147.262 34.25C148.495 35.4167 150.229 36 152.462 36Z" fill="#0094FF"/>
<path d="M98.9836 41L105.984 6H111.334L127.284 33.15L125.234 32.9L130.584 6H137.034L130.034 41H124.684L108.784 13.85L110.834 14.1L105.434 41H98.9836Z" fill="#0094FF"/>
<path d="M70.1773 51.05C68.844 51.05 67.544 50.8333 66.2773 50.4C64.9773 49.9667 63.944 49.4 63.1773 48.7L66.2773 44.15C66.844 44.65 67.4773 45.05 68.1773 45.35C68.9107 45.6833 69.744 45.85 70.6773 45.85C71.7107 45.85 72.6273 45.5667 73.4273 45C74.2607 44.4667 75.094 43.5333 75.9273 42.2L78.2773 38.55L78.8773 37.9L93.5773 14.3H99.8273L81.4273 43.35C80.194 45.2833 79.0107 46.8167 77.8773 47.95C76.744 49.0833 75.5607 49.8833 74.3273 50.35C73.1273 50.8167 71.744 51.05 70.1773 51.05ZM77.0273 41.95L70.4773 14.3H76.7273L81.9773 37.35L77.0273 41.95Z" fill="#0094FF"/>
<path d="M47.2 41.35C45.0333 41.35 43.05 40.8833 41.25 39.95C39.4833 39.0167 38.0667 37.6833 37 35.95C35.9667 34.1833 35.45 32.0667 35.45 29.6C35.45 27.3333 35.8167 25.25 36.55 23.35C37.3167 21.45 38.3833 19.8 39.75 18.4C41.1167 17 42.7 15.9167 44.5 15.15C46.3333 14.3833 48.3333 14 50.5 14C52.7333 14 54.65 14.4 56.25 15.2C57.8833 16 59.1167 17.2167 59.95 18.85C60.7833 20.45 61.1667 22.45 61.1 24.85C61.0333 28.15 60.4333 31.05 59.3 33.55C58.1667 36.0167 56.5833 37.9333 54.55 39.3C52.5167 40.6667 50.0667 41.35 47.2 41.35ZM48.8 36C50.6 36 52.1833 35.5833 53.55 34.75C54.9167 33.8833 56 32.7 56.8 31.2C57.6 29.7 58 27.9667 58 26C58 23.9333 57.3833 22.3 56.15 21.1C54.9167 19.9 53.1833 19.3 50.95 19.3C49.1833 19.3 47.6 19.7333 46.2 20.6C44.8333 21.4333 43.75 22.6 42.95 24.1C42.15 25.6 41.75 27.3333 41.75 29.3C41.75 31.3667 42.3667 33 43.6 34.2C44.8333 35.4 46.5667 36 48.8 36ZM55.35 41L56.55 34.9L58.25 27.8L59.1 20.65L60.35 14.3H66.6L61.3 41H55.35Z" fill="#0094FF"/>
<path fill-rule="evenodd" clip-rule="evenodd" d="M0 41H6.53846L8.57811 30.9H17.2012C20.6548 30.9 23.6391 30.3333 26.1538 29.2C28.6686 28.0333 30.5966 26.3833 31.9379 24.25C33.3126 22.0833 34 19.5167 34 16.55C34 13.25 32.8264 10.6667 30.4793 8.8C28.1657 6.93333 24.8797 6 20.6213 6H7.04142L5.93491 11.5H19.9172C22.3314 11.5 24.1755 11.9667 25.4497 12.9C26.7574 13.8333 27.4112 15.25 27.4112 17.15C27.4112 19.85 26.5394 21.9 24.7959 23.3C23.0523 24.7 20.6045 25.4 17.4527 25.4H3.13846L0 41Z" fill="#0094FF"/>
<path d="M17.3154 15.6667H18.0562H20.3066C21.2446 15.6667 21.9684 15.8728 22.478 16.2851C22.9949 16.6975 23.2534 17.2681 23.2534 17.997C23.2534 18.6523 23.102 19.2192 22.7992 19.6978C22.5038 20.169 22.0791 20.5335 21.5252 20.7912C20.9713 21.0415 20.314 21.1667 19.5533 21.1667H18.0562H17.6539H10.5195H3.97336L5.07987 15.6667H11.6268H17.3154Z" fill="#0094FF"/>
</svg>
