<svg width="108" height="25" viewBox="0 0 108 25" fill="none" xmlns="http://www.w3.org/2000/svg">
<g clip-path="url(#clip0_2338_2)">
<mask id="mask0_2338_2" style="mask-type:luminance" maskUnits="userSpaceOnUse" x="0" y="0" width="108" height="25">
<path d="M108 0.188477H0V24.1885H108V0.188477Z" fill="white"/>
</mask>
<g mask="url(#mask0_2338_2)">
<path d="M34.5398 17.7281C33.4198 17.7281 32.4198 17.4947 31.5398 17.0281C30.673 16.5481 29.993 15.8947 29.4998 15.0681C29.0064 14.2414 28.7598 13.3014 28.7598 12.2481C28.7598 11.1814 29.0064 10.2414 29.4998 9.42809C29.993 8.60143 30.673 7.95475 31.5398 7.48809C32.4198 7.02143 33.4198 6.78809 34.5398 6.78809C35.5798 6.78809 36.493 7.00143 37.2798 7.42809C38.0798 7.84143 38.6864 8.45475 39.0998 9.26809L37.1798 10.3881C36.8598 9.88143 36.4664 9.50809 35.9998 9.26809C35.5464 9.02809 35.053 8.90809 34.5198 8.90809C33.9064 8.90809 33.353 9.04143 32.8598 9.30809C32.3664 9.57475 31.9798 9.96143 31.6998 10.4681C31.4198 10.9614 31.2798 11.5547 31.2798 12.2481C31.2798 12.9414 31.4198 13.5414 31.6998 14.0481C31.9798 14.5414 32.3664 14.9214 32.8598 15.1881C33.353 15.4547 33.9064 15.5881 34.5198 15.5881C35.053 15.5881 35.5464 15.4681 35.9998 15.2281C36.4664 14.9881 36.8598 14.6147 37.1798 14.1081L39.0998 15.2281C38.6864 16.0281 38.0798 16.6481 37.2798 17.0881C36.493 17.5147 35.5798 17.7281 34.5398 17.7281Z" fill="#0094FF"/>
<path d="M98.8802 17.7281C97.7868 17.7281 96.8136 17.4947 95.9602 17.0281C95.1068 16.5481 94.4336 15.8947 93.9402 15.0681C93.4468 14.2414 93.2002 13.3014 93.2002 12.2481C93.2002 11.1814 93.4468 10.2414 93.9402 9.42809C94.4336 8.60143 95.1068 7.95475 95.9602 7.48809C96.8136 7.02143 97.7868 6.78809 98.8802 6.78809C99.9868 6.78809 100.967 7.02143 101.82 7.48809C102.687 7.95475 103.36 8.59475 103.84 9.40809C104.334 10.2214 104.58 11.1681 104.58 12.2481C104.58 13.3014 104.334 14.2414 103.84 15.0681C103.36 15.8947 102.687 16.5481 101.82 17.0281C100.967 17.4947 99.9868 17.7281 98.8802 17.7281ZM98.8802 15.5881C99.4936 15.5881 100.04 15.4547 100.52 15.1881C101 14.9214 101.374 14.5347 101.64 14.0281C101.92 13.5214 102.06 12.9281 102.06 12.2481C102.06 11.5547 101.92 10.9614 101.64 10.4681C101.374 9.96143 101 9.57475 100.52 9.30809C100.04 9.04143 99.5002 8.90809 98.9002 8.90809C98.2868 8.90809 97.7402 9.04143 97.2602 9.30809C96.7936 9.57475 96.4202 9.96143 96.1402 10.4681C95.8602 10.9614 95.7202 11.5547 95.7202 12.2481C95.7202 12.9281 95.8602 13.5214 96.1402 14.0281C96.4202 14.5347 96.7936 14.9214 97.2602 15.1881C97.7402 15.4547 98.2802 15.5881 98.8802 15.5881Z" fill="#999999" fill-opacity="0.8"/>
<path d="M86.6777 17.5881V6.90809H89.0577V9.84809L88.7777 8.98809C89.0977 8.26809 89.5977 7.72143 90.2777 7.34809C90.9709 6.97475 91.8309 6.78809 92.8577 6.78809V9.16809C92.7509 9.14143 92.6509 9.12809 92.5577 9.12809C92.4643 9.11475 92.3709 9.10809 92.2777 9.10809C91.3309 9.10809 90.5777 9.38809 90.0177 9.94809C89.4577 10.4947 89.1777 11.3147 89.1777 12.4081V17.5881H86.6777Z" fill="#999999" fill-opacity="0.8"/>
<path d="M78.3842 17.7282C77.4776 17.7282 76.6776 17.5615 75.9842 17.2282C75.2908 16.8815 74.7508 16.3615 74.3642 15.6682C73.9776 14.9615 73.7842 14.0749 73.7842 13.0082V6.9082H76.2842V12.6682C76.2842 13.6282 76.4976 14.3482 76.9242 14.8282C77.3642 15.2949 77.9842 15.5282 78.7842 15.5282C79.3708 15.5282 79.8776 15.4082 80.3042 15.1682C80.7442 14.9282 81.0842 14.5682 81.3242 14.0882C81.5776 13.6082 81.7042 13.0149 81.7042 12.3082V6.9082H84.2042V17.5882H81.8242V14.7082L82.2442 15.5882C81.8842 16.2815 81.3576 16.8149 80.6642 17.1882C79.9708 17.5482 79.2108 17.7282 78.3842 17.7282Z" fill="#999999" fill-opacity="0.8"/>
<path d="M65.4537 17.728C64.4269 17.728 63.5003 17.5014 62.6737 17.048C61.8603 16.5814 61.2203 15.9414 60.7537 15.128C60.2869 14.3147 60.0537 13.3547 60.0537 12.248C60.0537 11.1414 60.2869 10.1814 60.7537 9.36805C61.2203 8.55471 61.8603 7.92139 62.6737 7.46805C63.5003 7.01471 64.4269 6.78805 65.4537 6.78805C66.3469 6.78805 67.1469 6.98805 67.8537 7.38805C68.5603 7.77471 69.1203 8.36805 69.5337 9.16805C69.9469 9.96805 70.1537 10.9947 70.1537 12.248C70.1537 13.488 69.9537 14.5147 69.5537 15.328C69.1537 16.128 68.6003 16.728 67.8937 17.128C67.1869 17.528 66.3737 17.728 65.4537 17.728ZM65.7537 15.588C66.3537 15.588 66.8869 15.4547 67.3537 15.188C67.8337 14.9214 68.2137 14.5347 68.4937 14.028C68.7869 13.5214 68.9337 12.928 68.9337 12.248C68.9337 11.5547 68.7869 10.9614 68.4937 10.468C68.2137 9.96139 67.8337 9.57471 67.3537 9.30805C66.8869 9.04139 66.3537 8.90805 65.7537 8.90805C65.1537 8.90805 64.6137 9.04139 64.1337 9.30805C63.6669 9.57471 63.2869 9.96139 62.9937 10.468C62.7137 10.9614 62.5737 11.5547 62.5737 12.248C62.5737 12.928 62.7137 13.5214 62.9937 14.028C63.2869 14.5347 63.6669 14.9214 64.1337 15.188C64.6137 15.4547 65.1537 15.588 65.7537 15.588ZM68.9937 17.588V15.068L69.0937 12.228L68.8937 9.38805V2.74805H71.3737V17.588H68.9937Z" fill="#999999" fill-opacity="0.8"/>
<path d="M53.5303 17.5881V6.90809H55.9103V9.84809L55.6303 8.98809C55.9503 8.26809 56.4503 7.72143 57.1303 7.34809C57.8237 6.97475 58.6837 6.78809 59.7103 6.78809V9.16809C59.6037 9.14143 59.5037 9.12809 59.4103 9.12809C59.3171 9.11475 59.2237 9.10809 59.1303 9.10809C58.1837 9.10809 57.4303 9.38809 56.8703 9.94809C56.3103 10.4947 56.0303 11.3147 56.0303 12.4081V17.5881H53.5303Z" fill="#999999" fill-opacity="0.8"/>
<path d="M46.2396 17.7281C45.1462 17.7281 44.1728 17.4947 43.3196 17.0281C42.4662 16.5481 41.7928 15.8947 41.2996 15.0681C40.8062 14.2414 40.5596 13.3014 40.5596 12.2481C40.5596 11.1814 40.8062 10.2414 41.2996 9.42809C41.7928 8.60143 42.4662 7.95475 43.3196 7.48809C44.1728 7.02143 45.1462 6.78809 46.2396 6.78809C47.3462 6.78809 48.3262 7.02143 49.1796 7.48809C50.0462 7.95475 50.7196 8.59475 51.1996 9.40809C51.6928 10.2214 51.9396 11.1681 51.9396 12.2481C51.9396 13.3014 51.6928 14.2414 51.1996 15.0681C50.7196 15.8947 50.0462 16.5481 49.1796 17.0281C48.3262 17.4947 47.3462 17.7281 46.2396 17.7281ZM46.2396 15.5881C46.8528 15.5881 47.3996 15.4547 47.8796 15.1881C48.3596 14.9214 48.7328 14.5347 48.9996 14.0281C49.2796 13.5214 49.4196 12.9281 49.4196 12.2481C49.4196 11.5547 49.2796 10.9614 48.9996 10.4681C48.7328 9.96143 48.3596 9.57475 47.8796 9.30809C47.3996 9.04143 46.8596 8.90809 46.2596 8.90809C45.6462 8.90809 45.0996 9.04143 44.6196 9.30809C44.1528 9.57475 43.7796 9.96143 43.4996 10.4681C43.2196 10.9614 43.0796 11.5547 43.0796 12.2481C43.0796 12.9281 43.2196 13.5214 43.4996 14.0281C43.7796 14.5347 44.1528 14.9214 44.6196 15.1881C45.0996 15.4547 45.6396 15.5881 46.2396 15.5881Z" fill="#999999" fill-opacity="0.8"/>
<path d="M12 15.1885C13.6569 15.1885 15 13.8453 15 12.1885C15 10.5316 13.6569 9.18848 12 9.18848C10.3431 9.18848 9 10.5316 9 12.1885C9 13.8453 10.3431 15.1885 12 15.1885Z" fill="#999999" fill-opacity="0.8"/>
<path fill-rule="evenodd" clip-rule="evenodd" d="M20 21.0623L16.6129 17.6618C15.6818 18.4607 14.5598 19.009 13.3524 19.2501C11.9612 19.5279 10.5192 19.3854 9.20866 18.8404C8.50884 18.5494 7.86328 18.1506 7.29362 17.6618C7.00976 17.4183 6.74474 17.1524 6.50122 16.8663C6.3183 16.6515 6.14752 16.4253 5.99 16.1886C5.20194 15.0046 4.7813 13.6125 4.7813 12.1885C4.7813 10.7645 5.20194 9.37242 5.99 8.18838C6.14752 7.95172 6.3183 7.72548 6.50122 7.51062C6.74474 7.22458 7.00976 6.95868 7.29362 6.71512C7.86328 6.22636 8.50884 5.82756 9.20866 5.53656C10.5192 4.9916 11.9612 4.84902 13.3524 5.12682C14.5598 5.36792 15.6818 5.91626 16.6129 6.71512L20 3.31478C18.3954 1.84828 16.4204 0.845426 14.2852 0.419058C11.9665 -0.0439638 9.56312 0.193676 7.37894 1.10193C6.09604 1.6354 4.92262 2.38616 3.90652 3.31478C3.63044 3.56708 3.366 3.8325 3.11412 4.11028C2.71468 4.55076 2.34686 5.02226 2.01448 5.52164C0.701046 7.49504 -1.45604e-07 9.8151 0 12.1885C1.45604e-07 14.5619 0.701046 16.8819 2.01448 18.8553C2.34686 19.3547 2.71468 19.8262 3.11412 20.2667C3.366 20.5445 3.63044 20.8099 3.90652 21.0621C4.92262 21.9909 6.09604 22.7415 7.37894 23.2751C9.56312 24.1833 11.9665 24.4209 14.2852 23.9579C16.4204 23.5315 18.3954 22.5287 20 21.0623Z" fill="#0094FF"/>
<path d="M17.4004 7.5559C18.5232 8.8424 19.1464 10.484 19.1464 12.1885C19.1464 13.893 18.5232 15.5346 17.4004 16.8211L20.839 20.1885C22.8684 18.0054 24.0004 15.1541 24.0004 12.1885C24.0004 9.22288 22.8684 6.37156 20.839 4.18848L17.4004 7.5559Z" fill="#999999" fill-opacity="0.8"/>
<path d="M105.566 2.11328C105.976 2.11328 106.37 2.2164 106.747 2.42266C107.124 2.62682 107.42 2.92058 107.634 3.3039C107.851 3.68724 107.959 4.08828 107.959 4.50704C107.959 4.9237 107.853 5.32162 107.641 5.70078C107.43 6.07786 107.135 6.37266 106.756 6.58516C106.379 6.79558 105.982 6.90078 105.566 6.90078C105.149 6.90078 104.751 6.79558 104.372 6.58516C103.995 6.37266 103.7 6.07786 103.488 5.70078C103.277 5.32162 103.172 4.9237 103.172 4.50704C103.172 4.08828 103.279 3.68724 103.494 3.3039C103.71 2.92058 104.007 2.62682 104.384 2.42266C104.761 2.2164 105.155 2.11328 105.566 2.11328ZM105.569 2.58204C105.24 2.58204 104.924 2.66432 104.622 2.8289C104.32 2.99348 104.081 3.22994 103.906 3.53828C103.733 3.84662 103.647 4.16952 103.647 4.50704C103.647 4.84244 103.731 5.16224 103.9 5.4664C104.071 5.77058 104.308 6.00808 104.612 6.1789C104.917 6.34974 105.235 6.43516 105.569 6.43516C105.904 6.43516 106.223 6.34974 106.525 6.1789C106.829 6.00808 107.067 5.77058 107.238 5.4664C107.408 5.16224 107.494 4.84244 107.494 4.50704C107.494 4.16952 107.406 3.84662 107.231 3.53828C107.058 3.22994 106.82 2.99348 106.516 2.8289C106.214 2.66432 105.898 2.58204 105.569 2.58204ZM104.484 5.78828V3.24766H105C105.483 3.24766 105.754 3.24974 105.812 3.2539C105.983 3.26848 106.116 3.30286 106.209 3.35704C106.305 3.40912 106.384 3.49036 106.447 3.60078C106.511 3.70912 106.544 3.82994 106.544 3.96328C106.544 4.14662 106.483 4.3039 106.362 4.43516C106.244 4.56432 106.076 4.64452 105.859 4.67578C105.936 4.70494 105.996 4.73724 106.038 4.77266C106.079 4.80598 106.136 4.87058 106.209 4.9664C106.228 4.9914 106.291 5.09452 106.397 5.27578L106.697 5.78828H106.059L105.847 5.37578C105.703 5.0987 105.584 4.92474 105.491 4.8539C105.397 4.78098 105.278 4.74452 105.134 4.74452H105V5.78828H104.484ZM105 4.34452H105.209C105.507 4.34452 105.692 4.33308 105.762 4.31016C105.835 4.28724 105.893 4.24766 105.934 4.1914C105.976 4.13308 105.997 4.06744 105.997 3.99452C105.997 3.9237 105.976 3.8612 105.934 3.80704C105.895 3.75078 105.838 3.7112 105.762 3.68828C105.688 3.66328 105.503 3.65078 105.209 3.65078H105V4.34452Z" fill="#999999" fill-opacity="0.8"/>
</g>
</g>
<defs>
<clipPath id="clip0_2338_2">
<rect width="108" height="25" fill="white"/>
</clipPath>
</defs>
</svg>
