<svg width="126" height="28" viewBox="0 0 126 28" fill="none" xmlns="http://www.w3.org/2000/svg">
<path d="M108.117 20.9995L106.012 9.54688H108.461L110.222 19.6483H108.976L114.713 9.54688H117.012L118.838 19.6483H117.592L123.264 9.54688H125.799L119.397 20.9995H116.754L115.014 12.0562H115.809L110.717 20.9995H108.117Z" fill="#0094FF"/>
<path d="M97.6134 21.1494C96.4959 21.1494 95.5147 20.9421 94.6698 20.5274C93.8392 20.0985 93.1944 19.5123 92.736 18.7688C92.278 18.011 92.0488 17.1245 92.0488 16.1094C92.0488 14.8226 92.3424 13.6787 92.9295 12.6779C93.517 11.6627 94.3191 10.8692 95.336 10.2973C96.3672 9.71108 97.5414 9.41797 98.8595 9.41797C99.9908 9.41797 100.972 9.62529 101.803 10.0399C102.648 10.4403 103.299 11.0193 103.758 11.7771C104.216 12.5206 104.446 13.4071 104.446 14.4365C104.446 15.709 104.152 16.8529 103.564 17.868C102.977 18.8832 102.168 19.6838 101.137 20.2701C100.12 20.8563 98.9453 21.1494 97.6134 21.1494ZM97.785 18.8546C98.5588 18.8546 99.2389 18.6758 99.8264 18.3184C100.414 17.9467 100.879 17.4391 101.223 16.7957C101.566 16.1523 101.738 15.4088 101.738 14.5652C101.738 13.6787 101.473 12.9781 100.943 12.4634C100.414 11.9487 99.6687 11.6913 98.709 11.6913C97.9498 11.6913 97.2693 11.8772 96.6679 12.2489C96.0808 12.6064 95.6153 13.1068 95.2712 13.7502C94.9276 14.3936 94.7556 15.1371 94.7556 15.9807C94.7556 16.8815 95.0206 17.5892 95.5509 18.1039C96.0808 18.6044 96.8257 18.8546 97.785 18.8546Z" fill="#0094FF"/>
<path d="M74.8057 20.9991L77.8136 5.98633H80.1124L86.966 17.6319L86.0853 17.5247L88.3842 5.98633H91.1557L88.1478 20.9991H85.849L79.0168 9.35348L79.8975 9.46071L77.5772 20.9991H74.8057Z" fill="#0094FF"/>
<path d="M62.4269 25.3103C61.854 25.3103 61.2955 25.2174 60.7513 25.0315C60.1924 24.8456 59.7487 24.6026 59.4189 24.3023L60.7513 22.3507C60.9948 22.5651 61.2669 22.7367 61.5677 22.8654C61.8827 23.0084 62.241 23.0799 62.6418 23.0799C63.0859 23.0799 63.4795 22.9583 63.8236 22.7153C64.1815 22.4865 64.5398 22.0861 64.8977 21.5142L65.9075 19.9486L66.1653 19.6698L72.4818 9.54688H75.1676L67.2609 22.0075C66.731 22.8368 66.2225 23.4945 65.7355 23.9806C65.2485 24.4667 64.74 24.8099 64.2101 25.0101C63.6945 25.2102 63.1002 25.3103 62.4269 25.3103ZM65.3704 21.407L62.556 9.54688H65.2413L67.4972 19.4339L65.3704 21.407Z" fill="#0094FF"/>
<path d="M52.5528 21.1494C51.6221 21.1494 50.7696 20.9492 49.9962 20.5489C49.2371 20.1485 48.6285 19.5766 48.1701 18.8331C47.726 18.0753 47.5039 17.1674 47.5039 16.1094C47.5039 15.1371 47.6616 14.2435 47.9766 13.4285C48.3059 12.6135 48.7644 11.9058 49.3519 11.3053C49.939 10.7048 50.6195 10.2401 51.3929 9.91125C52.1807 9.58239 53.0399 9.41797 53.971 9.41797C54.9308 9.41797 55.7542 9.58954 56.4419 9.93269C57.1438 10.2758 57.6737 10.7977 58.0316 11.4983C58.3895 12.1846 58.5544 13.0425 58.5258 14.0719C58.4972 15.4874 58.2394 16.7313 57.7524 17.8037C57.2653 18.8617 56.5848 19.6838 55.7113 20.2701C54.8374 20.8563 53.7847 21.1494 52.5528 21.1494ZM53.2405 18.8546C54.0139 18.8546 54.6944 18.6758 55.2815 18.3184C55.8691 17.9467 56.3342 17.4391 56.6782 16.7957C57.0218 16.1523 57.1938 15.4088 57.1938 14.5652C57.1938 13.6787 56.9289 12.9781 56.399 12.4634C55.8691 11.9487 55.1242 11.6913 54.1645 11.6913C53.4054 11.6913 52.7249 11.8772 52.1235 12.2489C51.5359 12.6064 51.0703 13.1068 50.7267 13.7502C50.3831 14.3936 50.2111 15.1371 50.2111 15.9807C50.2111 16.8672 50.4761 17.5678 51.006 18.0825C51.5359 18.5972 52.2807 18.8546 53.2405 18.8546ZM56.0549 20.9992L56.5705 18.3827L57.3011 15.3373L57.6666 12.2704L58.2036 9.54665H60.8889L58.6116 20.9992H56.0549Z" fill="#0094FF"/>
<path d="M32.3174 20.9991L35.3253 5.98633H41.1262C42.9453 5.98633 44.3489 6.38667 45.3373 7.18735C46.34 7.98803 46.8413 9.09612 46.8413 10.5116C46.8413 11.7841 46.5477 12.8851 45.9602 13.8144C45.3874 14.7295 44.5638 15.4372 43.4895 15.9376C42.4153 16.4238 41.1405 16.6668 39.6652 16.6668H34.7667L36.2491 15.3371L35.1104 20.9991H32.3174ZM36.1846 15.6588L35.1963 14.3077H39.7727C41.119 14.3077 42.1646 14.0074 42.9094 13.4069C43.6543 12.8064 44.0266 11.9271 44.0266 10.769C44.0266 9.95399 43.7473 9.34633 43.1887 8.94599C42.6445 8.54565 41.8567 8.34548 40.8254 8.34548H36.4639L37.9249 6.95143L36.1846 15.6588Z" fill="#0094FF"/>
<path fill-rule="evenodd" clip-rule="evenodd" d="M2.02298 19.0723L0.474609 26.8085H5.45695L7.01117 19.0723H13.5821C16.2137 19.0723 18.4877 18.6383 20.4041 17.7702C22.3203 16.8766 23.7895 15.6128 24.8116 13.9787C25.8592 12.3191 26.3829 10.3532 26.3829 8.08089C26.3829 5.5532 25.4886 3.57447 23.7002 2.14468C21.9371 0.714894 19.4331 0 16.1882 0H5.84022L4.99705 4.21278H7.8715H9.98066H15.6516C17.4913 4.21278 18.8966 4.57018 19.8675 5.28512C20.8639 5.99997 21.3622 7.08513 21.3622 8.54043C21.3622 10.6085 20.6979 12.1787 19.3692 13.251C18.0406 14.3234 16.1754 14.8596 13.7737 14.8596H7.85497H5.61025H2.86615L2.02298 19.0723Z" fill="#0094FF"/>
<path d="M13.6677 7.4043H14.2322H15.947C16.6618 7.4043 17.2133 7.5622 17.6016 7.878C17.9956 8.19381 18.1925 8.63087 18.1925 9.18921C18.1925 9.69115 18.0772 10.1254 17.8465 10.492C17.6213 10.8529 17.2977 11.132 16.8756 11.3295C16.4535 11.5211 15.9526 11.617 15.3729 11.617H14.2322H13.9256H13.4482H12.8269H8.48919H6.32176H3.50098L4.34415 7.4043H7.08826H9.33298H13.6677Z" fill="#0094FF"/>
</svg>
