<svg width="24" height="24" viewBox="0 0 24 24" fill="none" xmlns="http://www.w3.org/2000/svg">
<path d="M12 15C13.6569 15 15 13.6568 15 12C15 10.3431 13.6569 9 12 9C10.3431 9 9 10.3431 9 12C9 13.6568 10.3431 15 12 15Z" fill="#999999" fill-opacity="0.8"/>
<path fill-rule="evenodd" clip-rule="evenodd" d="M20 20.8738L16.6129 17.4733C15.6818 18.2722 14.5598 18.8205 13.3524 19.0616C11.9612 19.3394 10.5192 19.1969 9.20866 18.6519C8.50884 18.3609 7.86328 17.9621 7.29362 17.4733C7.00976 17.2298 6.74474 16.9639 6.50122 16.6778C6.3183 16.463 6.14752 16.2368 5.99 16.0001C5.20194 14.8161 4.7813 13.424 4.7813 12C4.7813 10.576 5.20194 9.18394 5.99 7.9999C6.14752 7.76324 6.3183 7.537 6.50122 7.32214C6.74474 7.0361 7.00976 6.7702 7.29362 6.52664C7.86328 6.03788 8.50884 5.63908 9.20866 5.34808C10.5192 4.80312 11.9612 4.66054 13.3524 4.93834C14.5598 5.17944 15.6818 5.72778 16.6129 6.52664L20 3.1263C18.3954 1.6598 16.4204 0.656949 14.2852 0.230581C11.9665 -0.23244 9.56312 0.00519943 7.37894 0.913453C6.09604 1.44692 4.92262 2.19768 3.90652 3.1263C3.63044 3.3786 3.366 3.64402 3.11412 3.9218C2.71468 4.36228 2.34686 4.83378 2.01448 5.33316C0.701046 7.30656 -1.45604e-07 9.62662 0 12C1.45604e-07 14.3734 0.701046 16.6934 2.01448 18.6668C2.34686 19.1662 2.71468 19.6377 3.11412 20.0782C3.366 20.356 3.63044 20.6214 3.90652 20.8736C4.92262 21.8024 6.09604 22.553 7.37894 23.0866C9.56312 23.9948 11.9665 24.2324 14.2852 23.7694C16.4204 23.343 18.3954 22.3402 20 20.8738Z" fill="#0094FF"/>
<path d="M17.4004 7.36742C18.5232 8.65392 19.1464 10.2955 19.1464 12C19.1464 13.7045 18.5232 15.3461 17.4004 16.6326L20.839 20C22.8684 17.8169 24.0004 14.9656 24.0004 12C24.0004 9.0344 22.8684 6.18308 20.839 4L17.4004 7.36742Z" fill="#999999" fill-opacity="0.8"/>
</svg>
