<svg width="90" height="43" viewBox="0 0 90 43" fill="none" xmlns="http://www.w3.org/2000/svg">
<g clip-path="url(#clip0_247_4227)">
<mask id="mask0_247_4227" style="mask-type:luminance" maskUnits="userSpaceOnUse" x="0" y="0" width="90" height="43">
<path d="M89.6992 0.400391H0.199219V43.0004H89.6992V0.400391Z" fill="white"/>
</mask>
<g mask="url(#mask0_247_4227)">
<path d="M19.9993 19.1004C20.1993 17.5004 19.5993 15.9004 18.6993 14.9004C17.6993 13.9004 16.2993 13.1004 14.2993 13.1004H10.3993C9.59932 13.1004 8.49932 13.3004 7.69932 13.6004C6.89932 13.9004 6.19932 14.3004 5.59932 14.8004C4.89932 15.3004 4.29932 16.1004 3.89932 16.8004C3.49932 17.5004 3.19932 18.3004 3.09932 19.1004C2.99932 19.5004 3.19932 20.4004 4.29932 20.4004H5.89932C6.99932 20.4004 7.39932 18.8004 7.39932 18.8004C7.59932 18.3004 7.79932 17.8004 8.29932 17.4004C8.69932 17.1004 9.09932 16.8004 9.89932 16.8004H13.8993C14.6993 16.8004 14.9993 17.0004 15.2993 17.3004C15.6993 17.7004 15.8993 18.1004 15.7993 18.8004L14.7993 25.0004H6.89932C4.99932 25.0004 3.59932 25.7004 2.59932 26.7004C1.49932 28.0004 1.29932 29.2004 1.09932 30.8004L0.299318 37.0004C0.0993182 38.8004 0.599318 40.1004 1.59932 41.2004C2.59932 42.2004 3.99932 43.0004 5.99932 43.0004H10.0993C10.6993 43.0004 11.5993 42.9004 12.4993 42.6004C13.2993 42.3004 14.1993 41.8004 14.7993 41.3004C15.3993 40.8004 15.9993 40.2004 16.3993 39.5004C16.7993 38.8004 17.0993 38.1004 17.1993 37.4004L19.9993 19.1004ZM14.1993 28.6004L12.8993 37.2004C12.8993 37.2004 12.7993 37.9004 11.9993 38.6004C11.5993 38.9004 10.9993 39.2004 10.1993 39.2004H6.19932C4.79932 39.2004 4.29932 38.1004 4.39932 37.2004L5.19932 30.8004C5.29932 30.0004 5.39932 29.5004 5.69932 29.1004C5.99932 28.8004 6.29932 28.6004 6.99932 28.6004H14.1993ZM83.7993 41.7004C83.5993 42.8004 82.7993 43.0004 82.3993 43.0004H80.7993C79.6993 43.0004 79.4993 42.2004 79.4993 41.7004L85.4993 1.70039C85.5993 1.20039 85.8993 0.400391 86.8993 0.400391H88.4993C89.0993 0.400391 89.8993 0.70039 89.7993 1.70039L83.7993 41.7004ZM59.5993 19.1004C59.7993 17.4004 59.2993 16.0004 58.2993 14.9004C57.0993 13.6004 55.5993 13.1004 53.8993 13.1004H49.8993C48.9993 13.1004 47.9993 13.3004 47.2993 13.6004C46.4993 13.9004 45.6993 14.4004 45.0993 14.9004C44.4993 15.4004 43.8993 16.1004 43.4993 16.8004C43.0993 17.4004 42.7993 18.3004 42.6993 19.1004L39.8993 37.0004C39.6993 38.7004 40.2993 40.2004 41.2993 41.2004C42.2993 42.3004 43.7993 42.9004 45.6993 42.9004H49.6993C50.5993 42.9004 51.4993 42.7004 52.2993 42.4004C53.0993 42.1004 53.8993 41.7004 54.4993 41.2004C55.0993 40.7004 55.6993 40.1004 56.0993 39.4004C56.4993 38.7004 56.8993 37.9004 56.9993 36.9004C57.0993 36.5004 56.8993 35.6004 55.6993 35.6004H54.0993C52.8993 35.6004 52.5993 37.2004 52.5993 37.2004C52.4993 37.7004 52.1993 38.2004 51.6993 38.6004C51.2993 38.9004 50.7993 39.2004 49.9993 39.2004H45.9993C45.5993 39.2004 44.9993 39.1004 44.5993 38.6004C44.0993 38.1004 44.0993 37.6004 44.1993 37.2004L46.9993 18.7004C47.0993 18.3004 47.2993 17.8004 47.8993 17.3004C48.3993 17.0004 48.8993 16.7004 49.5993 16.7004H53.5993C54.2993 16.7004 54.6993 16.9004 54.9993 17.2004C55.2993 17.5004 55.4993 18.0004 55.3993 18.7004C55.3993 18.7004 55.0993 20.3004 56.5993 20.3004H58.1993C58.5993 20.4004 59.3993 20.2004 59.5993 19.1004ZM38.2993 20.4004H36.6993C35.1993 20.4004 35.4993 18.8004 35.4993 18.8004C35.5993 18.2004 35.3993 17.7004 35.0993 17.3004C34.7993 17.0004 34.3993 16.8004 33.6993 16.8004H29.6993C28.9993 16.8004 28.4993 17.0004 27.9993 17.4004C27.3993 17.9004 27.0993 18.4004 27.0993 18.8004L24.2993 37.3004C24.1993 37.7004 24.1993 38.2004 24.6993 38.7004C25.1993 39.2004 25.7993 39.3004 26.0993 39.3004H30.0993C30.8993 39.3004 31.3993 39.0004 31.7993 38.7004C32.1993 38.3004 32.5993 37.9004 32.6993 37.3004C32.6993 37.3004 32.9993 35.7004 34.1993 35.7004H35.7993C36.8993 35.7004 37.0993 36.5004 37.0993 37.0004C36.9993 38.0004 36.5993 38.8004 36.1993 39.5004C35.7993 40.2004 35.1993 40.8004 34.5993 41.3004C33.9993 41.8004 33.1993 42.2004 32.3993 42.5004C31.5993 42.8004 30.7993 43.0004 29.7993 43.0004H25.7993C23.8993 43.0004 22.3993 42.4004 21.3993 41.3004C20.3993 40.3004 19.7993 38.8004 19.9993 37.1004L22.6993 19.2004C22.7993 18.4004 23.1993 17.5004 23.4993 16.9004C23.8993 16.2004 24.4993 15.5004 25.0993 15.0004C25.6993 14.5004 26.5993 14.0004 27.2993 13.7004C27.9993 13.4004 28.9993 13.2004 29.8993 13.2004H33.8993C35.5993 13.2004 37.0993 13.7004 38.2993 15.0004C39.2993 16.0004 39.7993 17.4004 39.5993 19.2004C39.5993 20.2004 38.7993 20.4004 38.2993 20.4004Z" fill="#F26B21"/>
</g>
<mask id="mask1_247_4227" style="mask-type:luminance" maskUnits="userSpaceOnUse" x="0" y="0" width="90" height="43">
<path d="M89.6992 0.400391H0.199219V43.0004H89.6992V0.400391Z" fill="white"/>
</mask>
<g mask="url(#mask1_247_4227)">
<path d="M78.0983 14.9006C77.0983 13.9006 75.6983 13.1006 73.6983 13.1006H69.5983C68.9983 13.1006 68.0983 13.2006 67.1983 13.5006C66.3983 13.8006 65.4983 14.3006 64.8983 14.8006C64.2983 15.3006 63.6983 15.9006 63.2983 16.6006C62.8983 17.3006 62.5983 18.0006 62.4983 18.7006L61.3983 26.2006H60.1983C59.5983 26.2006 58.7983 26.4006 57.9983 26.6006C57.3983 26.8006 56.4983 27.2006 55.7983 27.8006C55.1983 28.3006 54.5983 29.0006 54.0983 29.7006C53.5983 30.6006 53.3983 31.3006 53.2983 32.0006C53.1983 32.3006 53.2983 33.3006 54.5983 33.3006H55.9983C57.1983 33.3006 57.3983 33.0006 57.3983 32.3006C57.3983 32.3006 57.3983 31.0006 58.4983 30.3006C58.7983 30.1006 59.2983 29.7006 60.0983 29.7006H60.7983L59.6983 37.0006C59.4983 38.6006 60.0983 40.2006 60.9983 41.2006C61.9983 42.2006 63.3983 43.0006 65.3983 43.0006H69.2983C70.0983 43.0006 71.1983 42.8006 71.9983 42.5006C72.7983 42.2006 73.4983 41.8006 74.0983 41.3006C74.7983 40.8006 75.3983 40.0006 75.7983 39.3006C76.1983 38.6006 76.4983 37.8006 76.5983 37.0006C76.6983 36.6006 76.4983 35.7006 75.3983 35.7006H73.7983C72.6983 35.7006 72.2983 37.3006 72.2983 37.3006C72.0983 37.8006 71.8983 38.3006 71.3983 38.7006C70.9983 39.0006 70.5983 39.2006 69.7983 39.2006H65.7983C64.9983 39.2006 64.6983 39.0006 64.3983 38.7006C63.9983 38.3006 63.7983 37.9006 63.8983 37.2006L64.9983 29.8006H72.9983C74.8983 29.8006 76.2983 29.1006 77.2983 28.1006C78.3983 26.8006 78.5983 25.6006 78.7983 24.0006L79.3983 19.0006C79.5983 17.3006 78.9983 16.0006 78.0983 14.9006ZM75.0983 18.8006L74.4983 24.1006C74.3983 24.9006 74.2983 25.4006 73.9983 25.8006C73.6983 26.1006 73.3983 26.3006 72.6983 26.3006H65.5983L66.6983 18.9006C66.6983 18.9006 66.7983 18.2006 67.5983 17.5006C67.9983 17.2006 68.5983 16.9006 69.3983 16.9006H73.3983C74.6983 16.8006 75.2983 17.9006 75.0983 18.8006Z" fill="#F26B21"/>
</g>
</g>
<defs>
<clipPath id="clip0_247_4227">
<rect width="90" height="43" fill="white"/>
</clipPath>
</defs>
</svg>
