<svg width="218" height="63" viewBox="0 0 218 63" fill="none" xmlns="http://www.w3.org/2000/svg">
<path d="M78.8091 14.5316C78.4131 14.0016 78.3141 13.8706 78.3141 13.7046C78.3141 13.4746 78.3801 13.4406 79.0071 12.7796L83.3611 8.25156C87.4511 4.02156 88.3421 3.95556 89.2001 3.95556C90.2231 3.95556 90.8161 3.92256 90.8161 3.26156C90.8161 2.96456 90.5861 2.63356 90.1241 2.63356C89.4311 2.63356 86.2311 2.79956 85.6041 2.79956C85.0101 2.79956 82.4041 2.63356 81.8771 2.63356C81.5141 2.63356 80.9201 2.63356 80.9201 3.29456C80.9201 3.82456 81.2501 3.98856 82.3051 3.98856C83.1631 3.98856 83.7901 3.98856 83.7901 4.78156C83.7901 6.10356 75.2461 15.0596 74.6851 15.0596C74.5861 15.0596 74.4871 14.8946 74.4871 14.6296V7.09656C74.4871 5.24656 74.4871 4.12156 76.3671 3.98956C77.1591 3.89056 77.6871 3.85756 77.6871 3.22956C77.6871 2.60156 77.1921 2.60156 76.8951 2.60156C76.2031 2.60156 73.1681 2.76756 72.5411 2.76756C71.9471 2.76756 71.0571 2.76756 68.7141 2.60156C67.4941 2.60156 67.3291 2.60156 67.3291 3.22956C67.3291 3.85756 67.8571 3.89056 68.6491 3.98956C70.5621 4.12156 70.5621 5.31156 70.5621 7.09656V25.7016C70.5621 27.5186 70.5621 28.6426 68.6481 28.8076C67.8571 28.8406 67.3281 28.9076 67.3281 29.5016C67.3281 30.1626 67.8241 30.1626 68.1211 30.1626C68.2201 30.1626 71.7821 29.9976 72.4751 29.9976C73.1681 29.9976 76.2691 30.1626 76.9281 30.1626C77.2251 30.1626 77.7201 30.1626 77.7201 29.5346C77.7201 28.8746 77.1921 28.8406 76.4001 28.7746C74.4871 28.6426 74.5201 27.4526 74.5201 25.6026V18.1326C74.5201 17.4726 74.5201 16.9106 74.9821 16.9106C75.2131 16.9106 75.7411 17.5716 76.0051 17.9356L82.8001 26.6266C83.3941 27.4196 83.5591 27.7166 83.5591 28.0476C83.5591 28.5436 82.9991 28.8076 82.6021 28.8406L81.4811 28.9406C81.3161 28.9736 80.9531 29.1056 80.9531 29.6006C80.9531 30.2286 81.3491 30.2286 81.8111 30.2286C82.4371 30.2286 83.3281 30.0636 87.1551 30.0636C89.9251 30.0636 90.1241 30.2286 91.0801 30.2286C92.1361 30.2286 92.4991 30.2286 92.4991 29.6006C92.4991 28.9406 91.9051 28.9406 91.2791 28.9406C90.4871 28.9406 89.8591 28.3126 87.7491 25.7006L78.8091 14.5316Z" fill="#003764"/>
<path d="M95.8346 15.5893C94.9766 15.5893 94.8116 15.5893 94.8116 15.0933C94.8116 14.3993 95.9666 10.7973 99.3316 10.7973C99.8916 10.7973 102.432 10.8973 102.432 13.4743C102.432 14.6313 101.509 15.5893 99.8916 15.5893H95.8346ZM105.269 16.9443C105.863 16.9443 106.292 16.9443 106.292 16.1513C106.292 14.6643 105.104 9.77334 99.4626 9.77334C94.3826 9.77334 90.2266 14.0033 90.2266 20.5133C90.2266 26.6273 93.9536 30.4613 98.8686 30.4613C103.62 30.4613 106.226 26.5943 106.226 25.9333C106.226 25.8013 106.16 25.5363 105.896 25.5363C105.665 25.5363 105.632 25.5703 105.071 26.2303C104.181 27.2553 102.663 27.9823 100.981 27.9823C97.1536 27.9823 94.3826 24.2143 94.3826 19.2903C94.3826 17.0103 94.7126 16.9773 95.3396 16.9773H105.269V16.9443ZM120.377 25.6683C120.377 28.1133 120.377 28.6093 118.761 28.8733C117.903 29.0063 117.639 29.1713 117.639 29.5683C117.639 30.1293 118.002 30.1293 118.266 30.1293C118.893 30.1293 121.631 29.9643 122.192 29.9643C122.786 29.9643 125.524 30.1293 126.084 30.1293C126.348 30.1293 126.711 30.1293 126.711 29.6013C126.711 29.2043 126.513 28.9733 125.59 28.8413C123.973 28.5763 123.973 28.0473 123.973 25.6013V15.4573C123.973 11.3593 121.301 9.77334 118.827 9.77334C116.749 9.77334 115.627 10.3353 113.351 12.8463C113.288 12.9271 113.208 12.9928 113.117 13.0387C113.025 13.0845 112.925 13.1094 112.823 13.1113C112.658 13.1113 112.658 12.9783 112.658 12.2183V10.0703C112.658 9.67434 112.592 9.27734 112.262 9.27734C111.998 9.27734 111.702 9.70734 111.438 10.0703C110.283 11.6573 107.908 12.8463 107.644 12.9123C107.248 13.0453 107.116 13.2103 107.116 13.4743C107.116 14.0363 107.512 14.0363 108.139 14.1023C109.26 14.2023 109.26 15.1923 109.26 17.2423V25.6693C109.26 28.1143 109.26 28.6103 107.644 28.8743C106.819 29.0073 106.522 29.1723 106.522 29.5693C106.522 30.1303 106.885 30.1303 107.182 30.1303C107.776 30.1303 110.481 29.9653 111.009 29.9653C111.702 29.9653 114.374 30.1303 114.934 30.1303C115.198 30.1303 115.561 30.1303 115.561 29.6023C115.561 29.2053 115.363 28.9743 114.44 28.8423C112.823 28.5773 112.823 28.0483 112.823 25.6023V16.3163C112.823 15.2593 112.988 14.4993 113.516 13.8713C114.374 12.8463 115.528 12.3843 116.65 12.3843C120.311 12.3843 120.311 15.6883 120.311 17.7373V25.6693L120.377 25.6683Z" fill="#003764"/>
<path d="M139.905 25.6677C139.905 28.1127 139.905 28.6087 138.289 28.8727C137.431 29.0057 137.167 29.1707 137.167 29.5677C137.167 30.1287 137.53 30.1287 137.794 30.1287C138.421 30.1287 141.159 29.9637 141.719 29.9637C142.313 29.9637 145.051 30.1287 145.612 30.1287C145.876 30.1287 146.239 30.1287 146.239 29.6007C146.239 29.2037 146.041 28.9727 145.117 28.8407C143.501 28.5757 143.501 28.0467 143.501 25.6007V15.4567C143.501 11.3587 140.829 9.77272 138.355 9.77272C136.276 9.77272 135.155 10.3347 132.879 12.8457C132.816 12.9265 132.736 12.9922 132.645 13.0381C132.553 13.0839 132.453 13.1087 132.351 13.1107C132.186 13.1107 132.186 12.9777 132.186 12.2177V10.0697C132.186 9.67372 132.12 9.27672 131.79 9.27672C131.526 9.27672 131.229 9.70672 130.965 10.0697C129.811 11.6567 127.436 12.8457 127.172 12.9117C126.776 13.0447 126.644 13.2097 126.644 13.4737C126.644 14.0357 127.04 14.0357 127.667 14.1017C128.788 14.2017 128.788 15.1597 128.788 17.2087V25.6357C128.788 28.0807 128.788 28.5767 127.172 28.8417C126.347 28.9737 126.05 29.1387 126.05 29.5357C126.05 30.0967 126.413 30.0967 126.71 30.0967C127.304 30.0967 129.976 29.9317 130.537 29.9317C131.229 29.9317 133.901 30.0967 134.462 30.0967C134.726 30.0967 135.089 30.0967 135.089 29.5687C135.089 29.1717 134.891 28.9407 133.967 28.8087C132.351 28.5437 132.351 28.0147 132.351 25.5687V16.3157C132.351 15.2587 132.516 14.4987 133.044 13.8707C133.901 12.8457 135.056 12.3837 136.177 12.3837C139.839 12.3837 139.839 15.6877 139.839 17.7367V25.6687L139.905 25.6677ZM151.945 15.5887C151.087 15.5887 150.922 15.5887 150.922 15.0927C150.922 14.3987 152.077 10.7967 155.441 10.7967C156.002 10.7967 158.542 10.8967 158.542 13.4737C158.542 14.6307 157.619 15.5887 156.002 15.5887H151.945ZM161.379 16.9437C161.973 16.9437 162.402 16.9437 162.402 16.1507C162.402 14.6637 161.214 9.77272 155.573 9.77272C150.493 9.77272 146.337 14.0027 146.337 20.5127C146.337 26.6267 150.064 30.4607 154.98 30.4607C159.73 30.4607 162.336 26.5937 162.336 25.9327C162.336 25.8007 162.27 25.5357 162.006 25.5357C161.775 25.5357 161.742 25.5697 161.181 26.2297C160.291 27.2547 158.773 27.9817 157.091 27.9817C153.264 27.9817 150.493 24.2137 150.493 19.2897C150.493 17.0097 150.823 16.9767 151.45 16.9767H161.379V16.9437ZM168.341 14.6967C168.341 13.9367 168.341 13.2097 168.835 12.8787C169.297 12.6147 170.386 12.1187 171.474 12.1187C174.608 12.1187 177.808 14.7957 177.808 20.9427C177.808 25.9987 175.532 29.3367 172.101 29.3367C171.079 29.3367 168.341 28.5437 168.341 24.4127V14.6967ZM164.877 26.1967C164.877 26.8587 164.58 30.3617 164.58 30.4267C164.58 30.8237 164.745 31.1867 165.108 31.1867C165.339 31.1867 165.504 31.0227 165.735 30.5267C166.493 28.6427 166.592 28.6427 166.823 28.6427C166.988 28.6427 167.153 28.7747 167.219 28.8077C168.341 29.4687 169.99 30.4277 172.464 30.4277C176.456 30.4277 181.734 27.1887 181.734 19.8187C181.734 13.9367 178.039 9.73872 174.08 9.73872C172.365 9.73872 171.408 10.2347 169.858 11.1937C169.66 11.2927 169.033 11.6887 168.703 11.6887C168.473 11.6887 168.407 11.4247 168.407 11.0287C168.407 10.8627 168.44 10.2347 168.44 9.40872V6.26872C168.44 3.75772 168.604 2.56872 168.604 1.47772C168.604 0.947723 168.506 0.683723 168.143 0.683723C167.968 0.680815 167.797 0.726899 167.648 0.816723C165.108 2.03872 164.151 2.36972 163.128 2.66672C162.799 2.76672 162.535 2.89872 162.535 3.29472C162.535 3.72472 162.865 3.82372 163.161 3.82372C164.613 3.92372 164.811 4.51772 164.811 6.73172V26.1977H164.877V26.1967ZM188.397 15.5887C187.539 15.5887 187.374 15.5887 187.374 15.0927C187.374 14.3987 188.529 10.7967 191.894 10.7967C192.455 10.7967 194.995 10.8967 194.995 13.4737C194.995 14.6307 194.071 15.5887 192.455 15.5887H188.397ZM197.832 16.9437C198.425 16.9437 198.854 16.9437 198.854 16.1507C198.854 14.6637 197.667 9.77272 192.026 9.77272C186.946 9.77272 182.789 14.0027 182.789 20.5127C182.789 26.6267 186.517 30.4607 191.432 30.4607C196.182 30.4607 198.788 26.5937 198.788 25.9327C198.788 25.8007 198.722 25.5357 198.458 25.5357C198.227 25.5357 198.194 25.5697 197.634 26.2297C196.743 27.2547 195.225 27.9817 193.543 27.9817C189.717 27.9817 186.946 24.2137 186.946 19.2897C186.946 17.0097 187.275 16.9767 187.902 16.9767H197.832V16.9437ZM203.901 19.7857C203.901 12.9457 207.695 10.7307 209.344 10.7307C210.4 10.7307 211.093 11.2927 212.247 13.1107C213.468 15.0607 213.93 15.7537 214.556 15.7537C215.48 15.7537 215.678 13.3087 215.678 12.6807C215.678 10.1357 210.532 9.77272 209.938 9.77272C205.32 9.77272 199.811 13.6057 199.811 20.6777C199.811 27.4857 204.858 30.4277 209.08 30.4277C213.072 30.4277 215.876 27.6177 215.876 26.7257C215.876 26.4617 215.678 26.2957 215.546 26.2957C215.381 26.2957 215.216 26.4617 215.15 26.5277C214.457 27.2217 212.775 28.1137 210.928 28.1137C207.398 28.1137 203.901 24.5777 203.901 19.7857ZM78.9757 48.2727C78.9757 44.3067 75.8417 42.5887 74.1927 41.7627C71.8167 40.6057 70.0687 39.7127 70.0687 37.2347C70.0687 35.8797 70.8607 33.8647 73.3017 33.8647C75.7757 33.8647 76.3037 35.8797 76.6667 37.2347C76.9637 38.3247 77.0957 38.5237 77.3917 38.5237C77.8217 38.5237 77.8217 38.2597 77.8217 37.4657C77.8217 34.3927 77.8217 34.0617 77.4577 33.8307C77.0297 33.5997 75.2807 33.0377 73.5657 33.0377C69.7717 33.0377 67.6937 35.8477 67.6937 39.0857C67.6937 42.8197 70.0357 44.1757 72.4437 45.4307C74.5887 46.5877 76.6007 47.9097 76.6007 50.6527C76.6007 53.4947 74.3247 54.5527 73.0707 54.5527C70.9597 54.5527 68.9467 52.3377 68.3537 49.2307C68.2877 48.9007 68.1887 48.6367 67.9237 48.6367C67.5617 48.6367 67.5287 49.1317 67.5287 49.2647C67.4297 50.5197 67.4297 52.2717 67.4297 52.4367C67.4297 53.3287 67.4627 53.7917 67.7927 54.0897C68.3207 54.5517 70.2007 55.4777 72.5427 55.4777C76.5347 55.4117 78.9757 52.1727 78.9757 48.2727ZM86.7937 49.4627C86.7937 51.9077 85.6387 53.1967 84.2867 53.1967C83.6267 53.1967 82.9337 52.5687 82.9337 50.8837C82.9337 50.1897 82.9337 48.8337 84.8137 47.8097C85.2767 47.5457 86.0347 47.0827 86.4637 47.0827C86.6287 47.0827 86.7937 47.1157 86.7937 47.4797V49.4627ZM86.7937 45.0007C86.7937 45.6287 86.7607 45.9267 86.0347 46.2567C81.4497 48.4047 79.8667 49.8927 79.8667 52.4697C79.8667 52.9987 80.0317 55.4107 82.1757 55.4107C83.5277 55.4107 85.1117 54.1227 86.3657 52.9327C86.3657 52.9327 86.5297 52.8007 86.5627 52.8007C86.6617 52.8007 86.7277 52.8007 86.9917 53.4607C87.3547 54.2877 87.9157 55.3447 89.0697 55.3447C90.3897 55.3447 92.2037 53.6927 92.2037 52.8667C92.2037 52.7667 92.1047 52.5367 91.9397 52.5367C91.7747 52.5367 91.7747 52.5687 91.4447 52.8997C91.2147 53.0977 90.9167 53.2627 90.5877 53.2627C89.7627 53.2627 89.6637 52.3707 89.6637 51.3127V41.5307C89.6637 40.0767 88.9707 38.9867 86.1667 38.9867C81.6467 38.9867 79.7667 42.5887 79.7667 43.7787C79.7667 44.2407 80.0967 44.4727 80.4267 44.4727C80.4597 44.4727 82.1757 44.3397 82.6697 42.7537C82.9007 41.9607 83.5607 39.8127 85.2757 39.8127C86.6617 39.8127 86.7607 41.4977 86.7607 42.7207V45.0007H86.7937ZM96.5257 42.5567C96.4927 42.4237 96.2957 41.8287 96.2957 41.3997C96.2957 40.5077 97.1197 40.4407 97.3177 40.4407C97.6807 40.4077 98.2737 40.3747 98.2737 39.8797C98.2737 39.4497 97.8117 39.4497 97.6477 39.4497C96.9547 39.4497 96.2617 39.5817 94.7777 39.5817C93.3587 39.5817 92.5017 39.4497 91.5777 39.4497C91.2477 39.4497 90.8187 39.4497 90.8187 39.8797C90.8187 40.3097 91.1157 40.3417 91.2807 40.3417C92.3037 40.4077 92.6327 40.5737 93.3917 42.7547L97.7467 55.1477C97.9107 55.5437 98.0097 55.7427 98.2737 55.7427C98.4387 55.7427 98.5707 55.5767 98.7357 55.0817L103.387 42.8207C104.212 40.6067 104.938 40.5077 105.367 40.4407C106.29 40.3087 106.389 40.3087 106.389 39.9127C106.389 39.4497 106.092 39.4497 105.928 39.4497C105.532 39.4497 104.839 39.5817 103.322 39.5817C102.2 39.5817 101.177 39.4497 100.88 39.4497C100.551 39.4497 100.122 39.4497 100.122 39.9457C100.122 40.3417 100.386 40.3757 101.177 40.4077C101.771 40.4407 102.497 40.6067 102.497 41.6637C102.497 42.3577 102.002 43.8447 101.804 44.3077L99.3627 50.7187L96.5257 42.5567Z" fill="#003764"/>
<path d="M110.386 35.0555C110.386 33.9655 109.66 33.1055 108.736 33.1055C107.747 33.1055 107.054 34.0635 107.054 35.0225C107.054 36.0465 107.78 36.9055 108.736 36.9055C109.726 36.9385 110.386 35.9805 110.386 35.0555ZM107.318 51.6785C107.318 53.5955 107.318 53.9915 106.031 54.1895C105.372 54.2895 105.141 54.4215 105.141 54.7515C105.141 55.2145 105.438 55.2145 105.636 55.2145C106.13 55.2145 107.516 55.0825 108.769 55.0825C110.155 55.0825 111.408 55.2145 111.87 55.2145C112.068 55.2145 112.365 55.2145 112.365 54.7845C112.365 54.4545 112.2 54.2895 111.474 54.1895C110.188 53.9915 110.188 53.5615 110.188 51.6125V40.3095C110.188 39.5495 110.188 39.0875 109.858 39.0875C109.627 39.0875 108.703 40.0455 108.473 40.2105C107.978 40.6405 107.285 41.1025 105.866 41.6645C105.504 41.7965 105.405 41.9945 105.405 42.2265C105.405 42.6565 105.866 42.6895 105.965 42.6895C107.021 42.7555 107.318 43.2505 107.318 45.0355V51.6785Z" fill="#003764"/>
<path d="M122.916 51.6417C122.916 53.5917 122.916 53.9877 121.629 54.2197C120.937 54.3187 120.739 54.4507 120.739 54.7817C120.739 55.2437 121.036 55.2437 121.233 55.2437C121.728 55.2437 123.905 55.1117 124.367 55.1117C124.829 55.1117 127.006 55.2437 127.468 55.2437C127.666 55.2437 127.963 55.2437 127.963 54.8137C127.963 54.4837 127.798 54.3187 127.072 54.2197C125.786 54.0217 125.786 53.5917 125.786 51.6087V43.4787C125.786 40.2067 123.642 38.9517 121.662 38.9517C119.98 38.9517 119.089 39.4137 117.275 41.3967C117.221 41.4576 117.155 41.5067 117.081 41.5408C117.007 41.5748 116.927 41.5932 116.846 41.5947C116.714 41.5947 116.714 41.4957 116.714 40.9007V39.1827C116.714 38.8527 116.648 38.5547 116.384 38.5547C116.186 38.5547 115.922 38.9187 115.724 39.1827C114.801 40.4387 112.887 41.3967 112.69 41.4627C112.36 41.5627 112.261 41.6947 112.261 41.9257C112.261 42.3887 112.591 42.3887 113.052 42.4217C113.943 42.4877 113.943 43.2477 113.943 44.8997V51.6417C113.943 53.5917 113.943 53.9877 112.657 54.2197C111.997 54.3187 111.766 54.4507 111.766 54.7817C111.766 55.2437 112.063 55.2437 112.294 55.2437C112.756 55.2437 114.9 55.1117 115.362 55.1117C115.922 55.1117 118.034 55.2437 118.495 55.2437C118.693 55.2437 118.99 55.2437 118.99 54.8137C118.99 54.4837 118.825 54.3187 118.1 54.2197C116.813 54.0217 116.813 53.5917 116.813 51.6087V44.1727C116.813 43.3467 116.945 42.7187 117.374 42.2227C118.067 41.4297 118.99 41.0327 119.881 41.0327C122.784 41.0327 122.784 43.6777 122.784 45.3297V51.6417H122.916Z" fill="#003764"/>
<path d="M135.224 54.9464C135.982 54.9464 139.182 54.9794 139.182 57.3264C139.182 60.2014 136.015 60.9284 134.465 60.9284C132.057 60.9284 130.374 59.4084 130.374 57.4914C130.374 55.8064 131.562 54.7814 132.024 54.7814C132.288 54.7814 133.442 54.9464 133.706 54.9464H135.224ZM136.873 44.1064C136.873 48.7664 134.597 48.7664 134.3 48.7664C132.947 48.7664 131.496 47.3784 131.496 44.2394C131.496 41.2654 132.816 39.6794 134.234 39.6794C136.378 39.7114 136.873 42.8184 136.873 44.1074V44.1064ZM138.654 40.1414C138.16 40.1414 138.16 40.1414 137.368 39.7444C136.246 39.1494 135.389 38.9184 134.201 38.9184C130.572 38.9184 128.296 41.6614 128.296 44.5034C128.296 47.2464 130.176 48.3704 131.364 49.0634C131.43 49.0974 131.529 49.1634 131.529 49.2634C131.529 49.3614 131.43 49.4274 131.1 49.5934L129.055 50.4194C128.692 50.5514 128.395 50.8494 128.395 51.4104C128.395 52.2034 129.781 53.5254 130.078 53.7574C130.77 54.3184 130.77 54.3844 130.77 54.4844C130.77 54.6494 130.176 55.0124 129.979 55.1444C128.857 55.8064 127.57 56.6324 127.57 58.3844C127.57 61.2594 131.067 61.9534 133.178 61.9534C138.061 61.9534 141.722 58.9454 141.722 55.6074C141.722 53.8894 140.469 51.8404 136.675 51.8734H133.013C132.848 51.8734 131.628 51.8404 131.628 50.7834C131.628 49.5934 133.541 49.5274 134.366 49.4934C138.522 49.3614 140.073 46.1894 140.073 44.3384C140.073 43.5124 139.809 42.6194 139.611 42.0914C139.544 41.9948 139.509 41.8791 139.512 41.7614C139.512 41.5614 139.677 41.5294 140.04 41.5294H141.095C141.524 41.5294 141.59 41.4964 141.59 41.0664C141.59 41.0004 141.557 40.1084 141.03 40.1084H138.654V40.1414ZM142.25 53.0964C142.25 53.9224 142.25 54.2204 142.613 54.4184C142.745 54.5184 144.592 55.4104 146.373 55.4104C150.299 55.4104 152.113 52.4024 152.113 49.7584C152.113 46.7514 149.606 45.5614 148.616 45.0324C145.615 43.5454 144.955 43.2484 144.955 41.8274C144.955 40.5714 146.043 39.7124 147.33 39.7124C149.309 39.7124 150.134 41.5624 150.299 42.2234C150.464 42.8844 150.629 42.9504 150.827 42.9504C151.124 42.9504 151.19 42.5204 151.19 42.3894L151.321 40.3074C151.321 39.7454 151.321 39.3484 150.563 39.2494C150.332 39.2494 148.122 38.8524 147.66 38.8524C143.701 38.8524 142.349 41.6624 142.349 43.6444C142.349 46.1564 144.46 47.1474 146.208 47.9744C148.254 48.9324 149.639 49.7254 149.639 51.5764C149.639 53.3944 148.089 54.4514 146.736 54.4514C144.328 54.4514 143.47 51.4114 143.305 50.7834C143.14 50.1224 143.009 49.7914 142.679 49.7914C142.283 49.7914 142.25 50.3214 142.25 50.4194V53.0964ZM162.373 45.0324C162.373 43.8094 162.406 43.6444 164.385 43.6444C165.276 43.6444 169.234 43.7104 169.234 49.1644C169.234 50.7174 168.773 52.8324 167.057 53.8564C166.266 54.3194 165.111 54.3194 164.88 54.3194C162.703 54.3194 162.34 52.9314 162.34 49.9574V45.0324H162.373ZM163.297 42.6864C162.373 42.6864 162.373 42.0914 162.373 41.5294V35.8454C162.373 34.9204 162.373 34.1274 164.22 34.1274C166.826 34.1274 168.245 35.6144 168.245 38.4564C168.245 39.7454 167.816 42.6864 164.418 42.6864H163.297ZM159.173 51.6094C159.173 53.0964 159.173 53.9894 157.689 54.1204C157.062 54.1544 156.6 54.1874 156.6 54.6824C156.6 55.2124 156.996 55.2124 157.227 55.2124C157.788 55.2124 160.888 55.0794 160.888 55.0794C161.746 55.0794 165.969 55.2114 166.298 55.2114C172.203 55.2114 172.698 49.9234 172.698 48.7014C172.698 47.5444 172.434 46.3214 171.709 45.2314C170.488 43.3804 168.806 43.2814 167.552 43.1814V43.1154C168.674 42.8854 171.61 42.1254 171.61 38.4894C171.61 33.2344 165.441 33.2344 163.956 33.2344C163.923 33.2344 159.536 33.3004 157.689 33.5644C157.062 33.6314 156.6 33.8294 156.6 34.2594C156.6 34.6554 156.996 34.6554 157.062 34.6554C157.128 34.6554 157.326 34.6554 157.656 34.6224C159.041 34.6224 159.173 34.9524 159.173 37.8614V51.6094ZM180.252 49.4614C180.252 51.9064 179.097 53.1954 177.745 53.1954C177.085 53.1954 176.392 52.5674 176.392 50.8824C176.392 50.1884 176.392 48.8324 178.273 47.8084C178.734 47.5444 179.493 47.0814 179.922 47.0814C180.087 47.0814 180.252 47.1144 180.252 47.4784V49.4614ZM180.252 44.9994C180.252 45.6274 180.219 45.9254 179.493 46.2554C174.908 48.4034 173.324 49.8914 173.324 52.4684C173.324 52.9974 173.489 55.4094 175.634 55.4094C176.986 55.4094 178.57 54.1214 179.823 52.9314C179.823 52.9314 179.988 52.7994 180.021 52.7994C180.12 52.7994 180.186 52.7994 180.45 53.4594C180.813 54.2864 181.374 55.3434 182.528 55.3434C183.848 55.3434 185.662 53.6914 185.662 52.8654C185.662 52.7654 185.563 52.5354 185.398 52.5354C185.233 52.5354 185.233 52.5674 184.903 52.8984C184.672 53.0964 184.375 53.2614 184.046 53.2614C183.221 53.2614 183.122 52.3694 183.122 51.3114V41.5294C183.122 40.0754 182.429 38.9854 179.625 38.9854C175.106 38.9854 173.226 42.5874 173.226 43.7774C173.226 44.2394 173.555 44.4714 173.885 44.4714C173.918 44.4714 175.634 44.3384 176.128 42.7524C176.359 41.9594 177.019 39.8114 178.734 39.8114C180.12 39.8114 180.219 41.4964 180.219 42.7194V44.9994H180.252Z" fill="#003764"/>
<path d="M196.087 51.6417C196.087 53.5917 196.087 53.9877 194.801 54.2197C194.108 54.3187 193.91 54.4507 193.91 54.7817C193.91 55.2437 194.207 55.2437 194.405 55.2437C194.9 55.2437 197.077 55.1117 197.539 55.1117C198 55.1117 200.178 55.2437 200.639 55.2437C200.837 55.2437 201.134 55.2437 201.134 54.8137C201.134 54.4837 200.969 54.3187 200.244 54.2197C198.957 54.0217 198.957 53.5917 198.957 51.6087V43.4787C198.957 40.2067 196.813 38.9517 194.834 38.9517C193.151 38.9517 192.261 39.4137 190.446 41.3967C190.393 41.4576 190.327 41.5067 190.253 41.5408C190.179 41.5748 190.099 41.5932 190.018 41.5947C189.886 41.5947 189.885 41.4957 189.885 40.9007V39.1827C189.885 38.8527 189.819 38.5547 189.556 38.5547C189.358 38.5547 189.094 38.9187 188.896 39.1827C187.972 40.4387 186.059 41.3967 185.861 41.4627C185.531 41.5627 185.432 41.6947 185.432 41.9257C185.432 42.3887 185.762 42.3887 186.224 42.4217C187.114 42.4877 187.114 43.2477 187.114 44.8997V51.6417C187.114 53.5917 187.114 53.9877 185.828 54.2197C185.168 54.3187 184.938 54.4507 184.938 54.7817C184.938 55.2437 185.234 55.2437 185.465 55.2437C185.927 55.2437 188.071 55.1117 188.533 55.1117C189.094 55.1117 191.205 55.2437 191.667 55.2437C191.865 55.2437 192.162 55.2437 192.162 54.8137C192.162 54.4837 191.997 54.3187 191.271 54.2197C189.984 54.0217 189.984 53.5917 189.984 51.6087V44.1727C189.984 43.3467 190.117 42.7187 190.546 42.2227C191.239 41.4297 192.162 41.0327 193.052 41.0327C195.955 41.0327 195.955 43.6777 195.955 45.3297V51.6417H196.087Z" fill="#003764"/>
<path d="M202.717 51.6438C202.717 53.5938 202.717 54.0238 201.497 54.2218C200.804 54.3208 200.606 54.4528 200.606 54.7838C200.606 55.2458 200.903 55.2458 201.101 55.2458C201.563 55.2458 203.179 55.1138 204.103 55.1138C205.158 55.1138 206.346 55.2458 206.907 55.2458C207.105 55.2458 207.501 55.2458 207.501 54.7838C207.501 54.3868 207.27 54.3538 206.61 54.2218C205.587 53.9898 205.587 53.3288 205.587 51.6108V48.0408C205.587 47.6448 205.587 47.4138 205.95 47.4138C206.247 47.4138 206.577 47.9428 206.94 48.5038L209.513 52.5688C209.777 52.9988 210.107 53.6268 210.107 53.7588C210.107 54.1888 209.579 54.2548 209.381 54.2548C208.787 54.2878 208.589 54.4528 208.589 54.7838C208.589 55.2458 209.018 55.2458 209.183 55.2458C209.579 55.2458 210.931 55.1138 211.822 55.1138C212.845 55.1138 214.362 55.2458 214.593 55.2458C215.484 55.2458 215.814 55.2458 215.814 54.8158C215.814 54.4858 215.55 54.3868 215.286 54.3208C214.461 54.1558 214.164 53.9908 212.911 52.1398L209.084 46.3898C208.622 45.7608 208.49 45.5628 208.49 45.3978C208.49 45.1668 208.556 45.0338 208.688 44.9018L209.084 44.5718L211.591 42.2578C212.02 41.8618 213.307 40.7378 214.131 40.5398C215.22 40.2758 215.352 40.2098 215.352 39.8788C215.352 39.5148 215.121 39.4488 214.923 39.4488C214.395 39.4488 214.032 39.5818 212.515 39.5818C210.272 39.5818 209.975 39.4488 209.447 39.4488C209.315 39.4488 208.886 39.4488 208.886 39.8788C208.886 40.2418 209.15 40.3748 209.843 40.4738C210.305 40.5398 210.7 40.7048 210.7 41.2008C210.7 41.6958 209.975 42.4568 209.513 42.9188L206.94 45.5628C206.709 45.7608 205.983 46.4558 205.851 46.4558C205.62 46.4558 205.62 46.0918 205.62 45.7278V35.3508C205.62 34.9208 205.719 32.6738 205.719 32.2108C205.719 31.9468 205.719 31.5508 205.422 31.5508C205.224 31.5508 204.664 32.0138 204.664 32.0458C204.07 32.5088 203.014 32.8398 202.256 33.0378C201.497 33.2028 201.2 33.2688 201.2 33.6978C201.2 34.1278 201.431 34.1618 201.992 34.1948C202.75 34.2608 202.75 35.2518 202.75 36.8048V51.6438H202.717ZM56.5149 53.1968C56.8779 52.8328 56.7459 52.2048 56.2849 51.9738C47.3119 47.4798 35.1719 44.8358 22.1089 44.6038C16.2039 44.5048 10.4309 44.9018 4.92188 45.7608C5.18587 46.2568 5.41687 46.7528 5.71387 47.2148C10.9589 46.3888 16.4339 46.0578 22.0759 46.1578C34.9079 46.3888 46.8159 48.9998 55.5589 53.3618C55.8889 53.5268 56.2509 53.4618 56.5149 53.1968Z" fill="#003764"/>
<path d="M53.5462 55.9403C53.9742 55.5763 53.9092 54.8823 53.4142 54.6503C45.2332 50.7183 34.2142 48.3723 22.4382 48.1733C17.0942 48.0743 11.8823 48.4053 6.93425 49.1983C7.26425 49.6943 7.59425 50.1563 7.95625 50.6183C12.6083 49.9583 17.4563 49.6603 22.4053 49.7273C33.9843 49.9253 44.7382 52.2053 52.7212 56.0723C52.8582 56.1247 53.0066 56.1401 53.1514 56.1169C53.2963 56.0937 53.4324 56.0328 53.5462 55.9403C53.5462 55.9733 53.5462 55.9733 53.5462 55.9403ZM62.6183 41.8943C64.0033 37.7963 64.3333 34.8883 64.3333 31.7153C64.3333 14.3653 50.3133 0.320312 32.9953 0.320312C15.6763 0.320312 1.65625 14.3653 1.65625 31.7153C1.65625 35.4833 2.31625 39.0853 3.53625 42.4233C3.56925 42.5553 3.63625 42.6873 3.66825 42.7863C3.70125 42.8193 3.70125 42.8863 3.73425 42.9183C3.80025 43.1173 3.89925 43.3153 3.96525 43.5133C3.96525 43.5133 3.96525 43.5463 3.99825 43.5463C4.03125 43.6463 4.09825 43.7783 4.13025 43.8763C10.1013 42.7863 16.4352 42.2903 22.9662 42.4233C36.4582 42.6543 49.1592 45.5633 58.1312 50.3213C58.4612 50.4863 58.8913 50.3873 59.1213 50.0903C59.3853 49.6933 59.2863 49.1643 58.8573 48.9333C52.5903 45.5953 44.5732 43.1833 35.7332 41.8933V32.5413L29.0033 25.8003L33.5552 22.2963L33.8193 22.0983V14.2663H32.2363L33.9183 12.8783L36.6562 5.37631L39.3942 12.8783L41.0773 14.2663H39.4933V20.1813L47.0472 28.0473V41.8603H48.4333V27.5183L44.4743 23.4203L49.1263 18.2313L58.3623 27.2213V41.8943H62.6183ZM7.69325 28.8073L15.7093 20.0493L22.0433 26.3943L16.2703 32.8723V41.0023C13.3673 41.1343 10.4973 41.3983 7.69325 41.7623V28.8073ZM34.3143 33.1693V41.7623C30.6193 41.2663 26.8262 41.0023 22.9662 40.9353C21.185 40.8967 19.4029 40.9077 17.6222 40.9683V33.3683L25.6052 24.4113L34.3143 33.1693ZM27.9802 24.8413L25.5732 22.4303L22.9673 25.3703L19.7343 22.1323L25.6392 15.6883L31.9072 21.9013L27.9823 24.8423L27.9802 24.8413Z" fill="#003764"/>
<path d="M62.6183 41.8943C64.0033 37.7963 64.3333 34.8883 64.3333 31.7153C64.3333 14.3653 50.3133 0.320312 32.9953 0.320312C15.6763 0.320312 1.65625 14.3653 1.65625 31.7153C1.65625 35.4833 2.31625 39.0853 3.53625 42.4233C3.56925 42.5553 3.63625 42.6873 3.66825 42.7863C3.70125 42.8193 3.70125 42.8863 3.73425 42.9183C3.80025 43.1173 3.89925 43.3153 3.96525 43.5133C3.96525 43.5133 3.96525 43.5463 3.99825 43.5463C4.03125 43.6463 4.09825 43.7783 4.13025 43.8763C10.1013 42.7863 16.4352 42.2903 22.9662 42.4233C36.4582 42.6543 49.1592 45.5633 58.1312 50.3213C58.4612 50.4863 58.8913 50.3873 59.1213 50.0903C59.3853 49.6933 59.2863 49.1643 58.8573 48.9333C52.5903 45.5953 44.5732 43.1833 35.7332 41.8933V32.5413L29.0033 25.8003L33.5552 22.2963L33.8193 22.0983V14.2663H32.2363L33.9183 12.8783L36.6562 5.37631L39.3942 12.8783L41.0773 14.2663H39.4933V20.1813L47.0472 28.0473V41.8603H48.4333V27.5183L44.4743 23.4203L49.1263 18.2313L58.3623 27.2213V41.8943H62.6183ZM7.69325 28.8073L15.7093 20.0493L22.0433 26.3943L16.2703 32.8723V41.0023C13.3673 41.1343 10.4973 41.3983 7.69325 41.7623V28.8073ZM34.3143 33.1693V41.7623C30.6193 41.2663 26.8262 41.0023 22.9662 40.9353C21.185 40.8967 19.4029 40.9077 17.6222 40.9683V33.3683L25.6052 24.4113L34.3143 33.1693ZM27.9802 24.8413L25.5732 22.4303L22.9673 25.3703L19.7343 22.1323L25.6392 15.6883L31.9072 21.9013L27.9823 24.8423L27.9802 24.8413Z" fill="#003764"/>
</svg>
