<?xml version="1.0" encoding="utf-8"?>
<!-- Generator: Adobe Illustrator 21.1.0, SVG Export Plug-In . SVG Version: 6.00 Build 0)  -->
<svg version="1.1" id="Layer_1" xmlns="http://www.w3.org/2000/svg" xmlns:xlink="http://www.w3.org/1999/xlink" x="0px" y="0px"
	 viewBox="0 0 314 170.9" style="enable-background:new 0 0 314 170.9;" xml:space="preserve">
<style type="text/css">
	.st0{fill:#003A5D;}
	.st1{fill:#B0C8F0;}
	.st2{fill:#3E8EDE;}
</style>
<g>
	<g>
		<g>
			<path class="st0" d="M23.6,119v-0.1c2.4-0.5,8.7-1.9,8.7-8.9c0-10.1-13.3-10.1-16.5-10.1c-0.1,0-9.5,0.1-13.5,0.6
				C1,100.6,0,101,0,101.8c0,0.7,0.8,0.7,1,0.7c0.1,0,0.6,0,1.3-0.1c3,0,3.3,0.6,3.3,6.2v26.5c0,2.8,0,4.6-3.2,4.9
				C1,140.1,0,140.2,0,141.1c0,1,0.8,1,1.3,1c1.2,0,7.9-0.3,7.9-0.3c1.9,0,11,0.3,11.7,0.3c12.7,0,13.8-10.2,13.8-12.5
				c0-2.2-0.6-4.6-2.1-6.7C29.9,119.3,26.3,119.1,23.6,119z M12.4,104.9c0-1.8,0-3.3,4-3.3c5.6,0,8.7,2.8,8.7,8.3
				c0,2.5-0.9,8.2-8.2,8.2h-2.4c-2,0-2-1.1-2-2.2V104.9z M22.5,139.5c-1.7,0.9-4.2,0.9-4.7,0.9c-4.7,0-5.4-2.7-5.4-8.4v-9.4
				c0-2.4,0.1-2.7,4.4-2.7c1.9,0,10.4,0.1,10.4,10.6C27.2,133.4,26.1,137.6,22.5,139.5z"/>
			<path class="st0" d="M63.6,137c-0.3,0-0.4,0.1-1.1,0.7c-0.5,0.4-1.2,0.7-1.9,0.7c-1.8,0-2-1.7-2-3.8v-18.8c0-2.8-1.5-4.9-7.5-4.9
				c-9.7,0-13.8,6.9-13.8,9.2c0,0.9,0.7,1.4,1.4,1.4c0.1,0,3.8-0.3,4.8-3.3c0.5-1.6,1.9-5.7,5.6-5.7c3,0,3.2,3.2,3.2,5.6v4.5
				c0,1.2-0.1,1.8-1.6,2.4c-9.9,4.1-13.3,7-13.3,11.9c0,1,0.3,5.7,5,5.7c2.9,0,6.3-2.5,9-4.8c0,0,0.3-0.3,0.4-0.3
				c0.2,0,0.3,0,0.9,1.3c0.8,1.6,2,3.6,4.5,3.6c2.8,0,6.7-3.2,6.7-4.8C64.1,137.4,63.9,137,63.6,137z M52.4,131.1
				c0,4.7-2.5,7.2-5.4,7.2c-1.4,0-2.9-1.2-2.9-4.5c0-1.3,0-3.9,4-5.9c1-0.5,2.6-1.4,3.5-1.4c0.3,0,0.7,0.1,0.7,0.7V131.1z"/>
			<path class="st0" d="M81.7,136.8c-0.2,0-0.5,0.1-0.7,0.3c-2.2,1.5-3.1,1.7-4.1,1.7c-3.3,0-3.7-3.1-3.7-6.1v-16.5
				c0-1.4,0.1-1.6,1.2-1.6c3.1,0,4.6,0.1,5.6,0.1c0.8,0,1-0.2,1.2-1.4c0.1-1.2-0.3-1.3-0.8-1.3c-0.6,0-1,0.1-1.9,0.1h-3.7
				c-1.3,0-1.6-0.3-1.6-1.6V106c0-1.1-0.6-1.1-0.8-1.1c-0.4,0-0.8,0.5-1.1,0.8c-2.1,3.4-4.1,5.3-5.6,6.1l-1.7,0.9
				c-0.3,0.1-1,0.5-1,1.2c0,0.7,0.8,0.7,1.1,0.7c0.5,0,1-0.1,1.5-0.1c1-0.1,1.5,0.3,1.5,1.2v19.4c0,5.1,3.1,7.4,6.5,7.4
				c4.7,0,8.8-4.1,8.8-5.1C82.3,137.2,82.1,136.8,81.7,136.8z"/>
			<path class="st0" d="M115.2,140.3c-2.8-0.4-2.8-1.2-2.8-5v-14.5c0-2.7,0-9.9-9.1-9.9c-2.9,0-5.6,0.9-9.5,4.9
				c-0.1,0.1-0.3,0.3-0.4,0.3c-0.4,0-0.4-0.5-0.4-1.1v-12.7c0-3.7,0.2-4,0.2-4.5c0-0.3,0-1-0.9-1c-0.4,0-1.1,0.4-1.9,0.9
				c-1.8,1-3.7,1.8-6.9,2.4c-0.4,0.1-0.9,0.3-0.9,0.9c0,0.7,0.4,0.9,0.9,0.9c3.1,0.5,3.3,1.1,3.3,5.9v27.5c0,3.8,0,4.5-2.8,4.9
				c-1.5,0.2-1.9,0.5-1.9,1.1c0,0.9,0.6,0.9,1.1,0.9c1,0,4-0.3,6.7-0.3c2.9,0,5.7,0.3,6.7,0.3c0.4,0,1.1,0,1.1-0.8
				c0-0.6-0.3-0.9-1.9-1.1c-2.8-0.4-2.8-1.1-2.8-4.9v-14.1c0-6.7,6.9-6.7,7.4-6.7c5.8,0,5.8,5.2,5.8,7.4v13.4c0,3.8,0,4.5-2.8,4.9
				c-1.5,0.2-1.9,0.5-1.9,1.1c0,0.9,0.6,0.9,1.1,0.9c1,0,3.9-0.3,6.7-0.3c4,0,4.9,0.3,5.8,0.3c1.9,0,2.1,0,2.1-0.8
				C117.2,140.8,116.8,140.5,115.2,140.3z"/>
			<path class="st0" d="M143.2,116.4c-5.1-2.2-8.8-3.9-8.8-8.7c0-2.6,1.7-6.5,7-6.5c5.3,0,6.5,3.8,7.2,6.5c0.6,2.1,0.9,2.5,1.5,2.5
				c0.9,0,0.9-0.5,0.9-2c0-5.9,0-6.5-0.8-7c-0.9-0.5-4.7-1.6-8.4-1.6c-8.1,0-12.6,5.4-12.6,11.6c0,7.1,5.1,9.8,10.3,12.2
				c4.6,2.2,9,4.8,9,10c0,5.5-4.9,7.5-7.6,7.5c-4.5,0-8.9-4.2-10.1-10.3c-0.1-0.6-0.3-1.1-0.9-1.1c-0.8,0-0.8,0.9-0.8,1.2
				c-0.2,2.4-0.2,5.8-0.2,6.1c0,1.7,0.1,2.6,0.8,3.2c1.2,0.9,5.2,2.7,10.2,2.7c8.5,0,13.8-6.3,13.8-13.8
				C153.6,121.4,146.8,118.1,143.2,116.4z"/>
			<path class="st0" d="M182.5,137.2c-0.3,0-0.4,0.1-1.1,0.7c-0.5,0.4-1.2,0.7-1.9,0.7c-1.8,0-2-1.7-2-3.8V116
				c0-2.8-1.5-4.9-7.5-4.9c-9.7,0-13.8,6.9-13.8,9.2c0,0.9,0.7,1.3,1.4,1.3c0.1,0,3.8-0.3,4.8-3.3c0.5-1.6,1.9-5.7,5.6-5.7
				c3,0,3.2,3.2,3.2,5.6v4.5c0,1.2-0.1,1.8-1.6,2.4c-9.9,4.1-13.3,7-13.3,11.9c0,1,0.3,5.7,5,5.7c2.9,0,6.3-2.5,9-4.8
				c0,0,0.3-0.3,0.4-0.3c0.2,0,0.3,0,0.9,1.3c0.8,1.6,2,3.6,4.5,3.6c2.8,0,6.7-3.2,6.7-4.8C183.1,137.6,182.9,137.2,182.5,137.2z
				 M171.4,131.3c0,4.7-2.5,7.2-5.4,7.2c-1.4,0-2.9-1.2-2.9-4.5c0-1.3,0-3.9,4-5.9c1-0.5,2.6-1.4,3.5-1.4c0.3,0,0.7,0.1,0.7,0.7
				V131.3z"/>
			<path class="st0" d="M213.2,112.9c0-0.9-0.6-0.9-1-0.9c-0.8,0-2.4,0.3-5.6,0.3c-2.4,0-4.6-0.3-5.3-0.3c-0.7,0-1.6,0-1.6,0.9
				c0,0.7,0.6,0.8,2.3,0.9c1.3,0.1,2.8,0.4,2.8,2.4c0,1.3-1.1,4.2-1.5,5.1l-5.3,12.3L192,118c-0.1-0.3-0.5-1.4-0.5-2.2
				c0-1.7,1.8-1.8,2.2-1.8c0.8-0.1,2.1-0.1,2.1-1.1c0-0.8-1-0.8-1.3-0.8c-1.5,0-2.9,0.3-6.2,0.3c-3.1,0-4.9-0.3-6.9-0.3
				c-0.7,0-1.7,0-1.7,0.8c0,0.8,0.6,0.9,1,0.9c2.2,0.1,2.9,0.5,4.5,4.7l9.4,23.8c0.3,0.7,0.6,1.1,1.2,1.1c0.4,0,0.6-0.3,1-1.3
				l10-23.5c1.8-4.2,3.3-4.5,4.2-4.6C213,113.7,213.2,113.7,213.2,112.9z"/>
			<path class="st0" d="M219.3,107.2c2.1,0,3.5-1.8,3.5-3.6c0-2.1-1.5-3.8-3.5-3.8c-2.1,0-3.6,1.8-3.6,3.7
				C215.7,105.5,217.2,107.2,219.3,107.2z"/>
			<path class="st0" d="M261.6,141.5c0-0.6-0.3-0.9-1.9-1.1c-2.8-0.4-2.8-1.2-2.8-5v-15.6c0-6.3-4.6-8.7-8.8-8.7
				c-3.6,0-5.5,0.9-9.4,4.7c-0.2,0.2-0.5,0.4-0.9,0.4c-0.3,0-0.3-0.2-0.3-1.3v-3.3c0-0.6-0.1-1.2-0.7-1.2c-0.4,0-1,0.7-1.4,1.2
				c-2,2.4-6.1,4.2-6.5,4.4c-0.7,0.2-0.9,0.5-0.9,0.9c0,0.9,0.7,0.9,1.7,0.9c1.9,0.1,1.9,1.6,1.9,4.8v13c0,3.8,0,4.5-2.8,4.9
				c-1.1,0.2-1.7,0.4-1.9,0.8c-0.2-0.4-0.6-0.6-1.9-0.8c-2.8-0.4-2.8-1.2-2.8-4.9v-21.8c0-1.5,0-2.4-0.7-2.4c-0.5,0-2.5,1.8-2.9,2.2
				c-1.1,0.8-2.6,1.7-5.6,2.8c-0.8,0.3-1,0.6-1,1.1c0,0.8,1,0.9,1.2,0.9c2.3,0.1,2.9,1.1,2.9,4.5v12.8c0,3.7,0,4.5-2.8,4.9
				c-1.4,0.2-1.9,0.5-1.9,1.1c0,0.9,0.6,0.9,1.1,0.9c1.1,0,4-0.3,6.7-0.3c2.9,0,5.7,0.3,6.7,0.3c0.4,0,0.9,0,1-0.5
				c0.2,0.5,0.7,0.5,1.1,0.5c1,0,5.6-0.3,6.6-0.3c1.2,0,5.8,0.3,6.7,0.3c0.4,0,1.1,0,1.1-0.8c0-0.6-0.3-0.9-1.9-1.1
				c-2.8-0.4-2.8-1.2-2.8-5v-14.3c0-1.6,0.3-2.8,1.2-3.8c1.5-1.6,3.5-2.3,5.4-2.3c6.3,0,6.3,5.1,6.3,8.2v12.2c0,3.8,0,4.5-2.8,4.9
				c-1.5,0.2-1.9,0.5-1.9,1.1c0,0.9,0.6,0.9,1.1,0.9c1.1,0,5.8-0.3,6.7-0.3c1,0,5.7,0.3,6.7,0.3C261,142.3,261.6,142.3,261.6,141.5z
				"/>
			<path class="st0" d="M279.8,136h-7.9c-0.4,0-3-0.1-3-2.1c0-2.3,4.1-2.4,5.9-2.5c9-0.3,12.3-6.3,12.3-9.9c0-1.6-0.6-3.3-1-4.3
				c-0.1-0.1-0.2-0.3-0.2-0.6c0-0.4,0.4-0.5,1.2-0.5h2.3c0.9,0,1.1-0.1,1.1-0.9c0-0.1-0.1-1.8-1.2-1.8H284c-1.1,0-1.1,0-2.8-0.7
				c-2.4-1.1-4.3-1.6-6.8-1.6c-7.8,0-12.7,5.3-12.7,10.7c0,5.3,4,7.4,6.6,8.8c0.1,0.1,0.4,0.2,0.4,0.4c0,0.2-0.2,0.3-0.9,0.6
				l-4.4,1.6c-0.8,0.3-1.4,0.8-1.4,1.9c0,1.6,2.9,4,3.6,4.5c1.5,1.1,1.5,1.2,1.5,1.4c0,0.3-1.3,1-1.7,1.3c-2.4,1.3-5.2,2.8-5.2,6.2
				c0,5.5,7.6,6.9,12,6.9c10.5,0,18.4-5.8,18.4-12.2C290.6,139.9,288,135.9,279.8,136z M268.7,121.3c0-5.7,2.8-8.8,5.9-8.8
				c4.5,0,5.6,6,5.6,8.5c0,9-4.9,9-5.5,9C271.9,130,268.7,127.3,268.7,121.3z M275,153.4c-5.2,0-8.8-2.9-8.8-6.6
				c0-3.2,2.6-5.2,3.5-5.2c0.6,0,3.1,0.3,3.7,0.3l3.3-0.1c1.7,0,8.5,0.1,8.5,4.6C285.2,152,278.4,153.4,275,153.4z"/>
			<path class="st0" d="M306.4,122.8c-6.5-2.8-7.9-3.4-7.9-6.1c0-2.4,2.4-4,5.1-4c4.3,0,6,3.6,6.4,4.9c0.4,1.3,0.7,1.4,1.2,1.4
				c0.6,0,0.8-0.8,0.8-1.1l0.3-4c0-1.1,0-1.8-1.6-2c-0.5,0-5.3-0.7-6.2-0.7c-8.5,0-11.4,5.4-11.4,9.2c0,4.9,4.5,6.7,8.3,8.3
				c4.4,1.8,7.4,3.4,7.4,6.9c0,3.5-3.3,5.5-6.2,5.5c-5.2,0-7-5.9-7.4-7.1c-0.3-1.3-0.6-1.9-1.3-1.9c-0.8,0-0.9,1-0.9,1.2l-0.1,5
				c0,1.6,0,2.2,0.8,2.6c0.3,0.2,4.2,1.9,8.1,1.9c8.5,0,12.4-5.8,12.4-10.9C314,126.1,308.6,123.8,306.4,122.8z"/>
		</g>
		<g>
			<path class="st0" d="M116.2,156.6c-1-0.4-2.1-0.6-3.2-0.6c-1.2,0-2.4,0.3-3.3,1c-0.8,0.7-1.5,1.7-1.5,2.7c0,1.8,1.5,3.1,2.7,4.2
				c0.8,0.7,1.6,1.4,1.6,2.6c0,0.7-0.5,1.4-1,1.7c-0.5,0.3-1.2,0.5-1.8,0.5c-0.7,0-1.5-0.2-1.9-0.7c-0.5-0.5-0.5-1-0.6-1.6
				c0-0.4,0-0.9-0.6-0.9c-0.3,0-0.5,0.3-0.5,0.6c-0.1,0.5-0.2,1.4-0.2,2c0,0.7,0.1,0.8,0.8,1c1,0.4,2.3,0.5,3.3,0.5
				c1.4,0,2.8-0.3,3.9-1.1c1.1-0.8,1.9-2,1.9-3.4c0-1.6-1.6-3-2.7-4.1c-0.6-0.6-1.6-1.5-1.6-2.4c0-1.1,1.1-1.8,2.2-1.8
				c2.7,0,1.5,2.8,2.7,2.8c0.5,0,0.5-0.7,0.6-1l0.2-0.7c0-0.1,0.1-0.5,0.1-0.7C117.2,156.9,116.5,156.7,116.2,156.6z"/>
			<path class="st0" d="M122.8,155.8c-0.9,0-1.7,0.8-1.7,1.7c0,0.9,0.6,1.4,1.4,1.4c0.9,0,1.8-0.7,1.8-1.7
				C124.2,156.4,123.6,155.8,122.8,155.8z"/>
			<path class="st0" d="M123.2,166.1c-0.2,0-0.4,0.3-0.5,0.4c-0.2,0.3-1.2,1.4-1.6,1.4c-0.2,0-0.3-0.1-0.3-0.3
				c0-0.3,0.2-0.9,0.4-1.2l0.9-2.3c0.3-0.7,1-2.5,1-3.1c0-0.8-0.6-1.2-1.4-1.2c-1.2,0-2.3,0.6-3.2,1.4c-0.3,0.3-1.2,1.2-1.2,1.5
				c0,0.1,0.1,0.3,0.3,0.3c0.4,0,1.4-1.8,2.2-1.8c0.2,0,0.3,0.1,0.3,0.3c0,0.4-0.8,2.3-0.9,2.6c-0.5,1.1-1.4,3.4-1.4,4.5
				c0,0.8,0.5,1.2,1.3,1.2c1.4,0,2.6-0.8,3.5-1.8c0.3-0.3,1.1-1.2,1.1-1.6C123.5,166.2,123.3,166.1,123.2,166.1z"/>
			<path class="st0" d="M135.5,166.1c-0.3,0-1.2,1.8-1.9,1.8c-0.2,0-0.3-0.1-0.3-0.3c0-0.3,0.3-0.9,0.3-1.1l1.2-3.3
				c0.3-0.7,0.6-1.6,0.6-2.4c0-1-0.9-1.3-1.7-1.3c-2.4,0-3.7,2.3-4.8,4.2l0.3-1c0.1-0.5,0.4-1.6,0.4-2.1c0-0.7-0.5-1.1-1.1-1.1
				c-1.2,0-2.3,0.8-3.1,1.6c-0.3,0.3-1,0.9-1,1.4c0,0.1,0.1,0.3,0.2,0.3c0.3,0,1.5-1.6,1.9-1.6c0.1,0,0.1,0.1,0.1,0.3
				c0,0.4-0.4,1.9-0.6,2.4l-1.3,4.5c0,0.1-0.2,0.5-0.2,0.7c0,0.4,1,0.3,1.2,0.3h0.7c1.2,0,1-0.1,1.3-1.2c0.4-1.3,1.2-3,1.9-4.2
				c0.3-0.6,1.7-3,2.5-3c0.2,0,0.3,0.3,0.3,0.4c0,0.5-1,2.9-1.2,3.5c-0.4,1-0.9,2.4-0.9,3.4c0,0.9,0.6,1.3,1.5,1.3
				c1.2,0,2-0.6,2.8-1.4c0.3-0.4,1.2-1.3,1.2-1.8C135.8,166.3,135.7,166.1,135.5,166.1z"/>
			<path class="st0" d="M144.1,159.7c-3.5,0-7.5,2.6-7.5,6.4c0,2.1,1.5,3.5,3.6,3.5c1.4,0,2.8-0.4,3.9-1.2c0.4-0.3,1.7-1.3,1.7-1.9
				c0-0.1-0.1-0.2-0.3-0.2c-0.3,0-0.6,0.5-0.8,0.6c-0.6,0.7-1.9,1.3-2.9,1.3c-1.4,0-1.9-1.1-1.9-2.3c0-1.2,0.4-2.4,0.9-3.5
				c0.3-0.6,1.3-1.9,2.1-1.9c0.4,0,0.6,0.6,0.7,0.9c0.3,0.8,0.7,1.1,1.6,1.1c0.7,0,1.4-0.4,1.4-1.2
				C146.7,160.1,145,159.7,144.1,159.7z"/>
			<path class="st0" d="M154.5,159.7c-3.4,0-7.3,2.9-7.3,6.5c0,2.3,1.8,3.5,3.9,3.5c1.2,0,2.4-0.4,3.4-1.1c0.3-0.3,1.6-1.4,1.6-1.8
				c0-0.1-0.1-0.3-0.3-0.3c-0.4,0-1.5,1.9-3.4,1.9c-1.3,0-1.9-0.9-1.9-2.1l0-0.7c2.2-0.3,6.9-0.4,6.9-3.5
				C157.4,160.3,155.9,159.7,154.5,159.7z M153.4,163.7c-0.7,0.6-1.8,1-2.7,1c0.2-1.4,1.6-4.4,3.2-4.4c0.5,0,0.7,0.5,0.7,0.9
				C154.5,162.1,154,163.2,153.4,163.7z"/>
			<path class="st0" d="M174.9,155.5c-0.1,0-0.4,0.1-0.5,0.1l-3.8,1.2c-0.4,0.1-1.3,0.4-1.6,0.5c-0.2,0.1-0.3,0.2-0.3,0.4
				c0,0.2,0.2,0.3,0.4,0.3c0.3,0,0.7-0.1,1-0.2c0.2-0.1,0.7-0.2,0.9-0.2c0.2,0,0.3,0.1,0.3,0.4c0,0.3-0.1,0.5-0.1,0.7l-2.3,7.8
				c-0.1,0.4-0.3,1.1-0.6,1.5c-0.3,0.4-0.7,0.5-1.2,0.5c-0.3,0.1-0.9,0.1-0.9,0.6c0,0.2,0.2,0.3,0.4,0.3c1,0,2.1-0.1,3.1-0.1
				c1,0,2,0.1,3.1,0.1c0.3,0,0.7-0.1,0.7-0.5c0-0.6-1.6,0-1.6-1.3c0-0.3,0.1-0.8,0.2-1.1l3-10c0-0.1,0.2-0.6,0.2-0.7
				C175.2,155.7,175.1,155.5,174.9,155.5z"/>
			<path class="st0" d="M184.1,161.9l-0.2-0.1c0.7-0.1,1.6-0.3,2.3-0.6c0.9-0.5,1.4-1.4,1.4-2.3c0-2.3-2.7-3-4.6-3
				c-1.2,0-2.5,0.3-3.5,1c-0.9,0.7-1.7,1.8-1.7,3c0,1.2,1,2.3,2.1,2.8c-2,0.3-4.1,1.2-4.1,3.6c0,2.5,2.6,3.5,4.7,3.5
				c1.5,0,2.9-0.4,4.1-1.3c1.1-0.8,1.9-2,1.9-3.4C186.4,163.3,185.3,162.6,184.1,161.9z M183.4,156.5c1.2,0,1.9,0.8,1.9,1.9
				c0,1.4-0.9,2.3-2.1,2.8c-1-0.5-2.4-1.1-2.4-2.4C180.8,157.4,182,156.5,183.4,156.5z M180.6,168.8c-1.5,0-2.5-1.1-2.5-2.5
				c0-1.4,0.9-2.8,2.2-3.3c1.4,0.6,3.1,1.4,3.1,3.2C183.4,167.5,182,168.8,180.6,168.8z"/>
			<path class="st0" d="M195.6,161c-1.2-0.7-2.6-0.7-3.9-0.8c-0.1,0-0.7,0-0.7-0.2c0-0.1,0.1-0.4,0.1-0.5c0.1-0.4,0.2-0.4,0.7-0.4
				l5.8-0.6c1-0.1,1.2-0.1,1.5-1.1l0.3-1.1c0-0.1,0.1-0.4,0.1-0.5c0-0.1-0.2-0.1-0.3-0.1l-7.2,0.6c-0.9,0.1-0.8,0.2-1.1,0.9
				l-1.6,4.3l-0.1,0.4c0,0.1-0.1,0.3-0.1,0.4c0,0.1,0.1,0.2,0.2,0.2h0.7c1,0,2,0,2.9,0.5c0.8,0.5,1.5,1.2,1.5,2.2
				c0,1.7-1.4,3.1-2.8,3.9c-1.3,0.6-3,0.9-4.4,0.9h-0.4c-0.3,0-0.5,0.1-0.5,0.4c0,0.4,0.9,0.4,1.1,0.4c2.2,0,4.6-0.4,6.6-1.3
				c2-0.9,3.8-2.9,3.8-5.2C197.9,163,196.8,161.6,195.6,161z"/>
			<path class="st0" d="M209.1,162.5c1.1-0.8,1.8-1.8,1.8-3.3c0-2.3-2.1-3.4-4.2-3.4c-1.4,0-2.6,0.4-3.7,1.2c-0.4,0.4-1.5,1.4-1.5,2
				c0,0.2,0.1,0.3,0.3,0.3c0.3,0,0.4-0.2,0.5-0.4c0.7-1,1.8-2.1,3.1-2.1c1.1,0,1.9,1,1.9,2c0,1.7-1.1,3.3-2.3,4.5l-3.7,3.1
				c-0.5,0.4-2.7,2-2.7,2.6c0,0.3,0.2,0.4,0.5,0.4c0.5,0,1-0.1,1.5-0.1h6.7c0.2,0,0.8,0.1,0.9-0.1c0.1-0.2,0.3-1,0.4-1.2
				c0-0.1,0.6-2,0.6-2.1c0-0.2-0.1-0.3-0.3-0.3c-0.8,0-0.3,1.2-1.8,1.2l-3.5-0.1l-1.5,0.1c1.2-1,2.5-1.8,3.8-2.6
				C206.8,163.8,208.3,163,209.1,162.5z"/>
		</g>
	</g>
	<path class="st1" d="M150.3,74.3C167.1,54.6,148,15.6,124,0c12,42.2-14.5,71.6-25.9,88.4C104.5,84,144.3,66.7,150.3,74.3z"/>
	<path class="st2" d="M103.5,95.8c1.5,0.4,2.9,0.8,5.7,0.8c2.9,0,4.3-0.4,5.7-0.8c1.5-0.4,3-0.9,5.9-0.9c3,0,4.5,0.4,5.9,0.9
		c1,0.3,2,0.6,3.6,0.8c6.9-5.7,13.3-15.5,13.3-19.7c-3.6,3.4-40,16-43.8,13.1l2.8,5.6C103,95.6,103.2,95.7,103.5,95.8z"/>
</g>
</svg>
