<svg width="128" height="66" viewBox="0 0 128 66" fill="none" xmlns="http://www.w3.org/2000/svg">
<path d="M8.49196 8.46098H0V4.36719H21.6527V8.46098H13.1571V27.383H8.49196V8.46098Z" fill="#5C4F47"/>
<path d="M25.1484 4.36585H36.8489C38.3976 4.33886 39.9426 4.52471 41.4407 4.91819C42.6122 5.22518 43.7084 5.76901 44.6618 6.51614C45.4999 7.19268 46.1551 8.06863 46.5676 9.06391C46.9999 10.145 47.2128 11.3014 47.1939 12.4657C47.198 13.288 47.0943 14.1072 46.8852 14.9025C46.4836 16.4372 45.5826 17.7944 44.3245 18.7599C43.6312 19.2909 42.8625 19.7152 42.0438 20.0186L47.0472 27.3817H41.3369L37.01 20.8467H36.8776L29.8136 20.8323V27.3853H25.1484V4.36585ZM36.9661 16.794C37.7497 16.8078 38.5309 16.7037 39.2835 16.4852C39.89 16.3084 40.4553 16.013 40.9468 15.616C41.3872 15.2519 41.731 14.7848 41.948 14.2561C42.1751 13.6869 42.2876 13.0785 42.2791 12.4657C42.3097 11.8993 42.2056 11.3338 41.9754 10.8154C41.7452 10.2971 41.3955 9.8407 40.9549 9.48377C39.7802 8.69766 38.3765 8.32709 36.967 8.431H29.8136V16.7949L36.9661 16.794Z" fill="#5C4F47"/>
<path d="M80.2051 4.36686H88.638C90.8034 4.32869 92.9634 4.5963 95.0542 5.1618C96.6973 5.60401 98.2326 6.37815 99.5654 7.43653C100.737 8.39512 101.652 9.62949 102.229 11.029C102.832 12.5389 103.13 14.1533 103.105 15.779C103.121 17.3646 102.826 18.9379 102.236 20.4099C101.657 21.8294 100.749 23.0911 99.5869 24.091C98.2672 25.1994 96.7351 26.0265 95.0846 26.5215C93.0036 27.1434 90.8389 27.439 88.6675 27.3979L80.2051 27.3836V4.36686ZM89.7859 23.3453C91.0299 23.3688 92.2693 23.1873 93.4544 22.8082C94.4287 22.4946 95.3245 21.9757 96.0813 21.2863C96.7856 20.6239 97.327 19.8073 97.6632 18.9006C98.0268 17.9007 98.2051 16.8429 98.1893 15.779C98.2045 14.7364 98.0249 13.7002 97.6596 12.7236C97.3226 11.8372 96.7802 11.0435 96.0768 10.4077C95.314 9.73982 94.4188 9.24045 93.4499 8.94227C92.2619 8.578 91.0238 8.40397 89.7815 8.42663H84.8658V23.348L89.7859 23.3453Z" fill="#5C4F47"/>
<path d="M107.783 4.36719H127.372V8.46098H112.448V13.0552H125.665V16.8983H112.448V23.2991H127.681V27.3786H107.783V4.36719Z" fill="#5C4F47"/>
<path d="M20.5781 29.8613H25.2433L33.6019 38.2548L41.9624 29.8613H46.6276V52.8772H41.9624V36.3256L33.6028 44.3825L25.2442 36.3256V52.8763H20.5781V29.8613Z" fill="#D2480A"/>
<path d="M80.1646 29.8619H91.8651C93.4138 29.835 94.9588 30.0208 96.4569 30.4143C97.6284 30.7212 98.7247 31.265 99.678 32.0122C100.516 32.6885 101.172 33.5646 101.584 34.56C102.016 35.6411 102.229 36.7975 102.21 37.9618C102.214 38.7841 102.11 39.6034 101.901 40.3986C101.499 41.9335 100.598 43.2909 99.3398 44.256C98.6465 44.787 97.8778 45.2113 97.0591 45.5147L102.063 52.8778H96.3531L92.0262 46.3428H91.8938L84.8253 46.3284V52.8814H80.1602L80.1646 29.8619ZM91.9823 42.2901C92.7662 42.304 93.5477 42.1999 94.3006 41.9813C94.907 41.8044 95.4724 41.509 95.9639 41.112C96.4042 40.7474 96.7478 40.2797 96.9642 39.7504C97.1917 39.1813 97.3042 38.5728 97.2953 37.96C97.3258 37.3936 97.2217 36.8281 96.9915 36.3098C96.7613 35.7914 96.4116 35.3351 95.9711 34.9781C94.7961 34.1916 93.3922 33.8208 91.9823 33.9244H84.8298V42.2884L91.9823 42.2901Z" fill="#D2480A"/>
<path d="M105.217 29.8613H109.882V41.7739L122.024 29.8613H127.999L116.667 40.8465L127.999 52.8772H121.788L113.311 44.1041L109.882 47.4164V52.8772H105.217V29.8613Z" fill="#D2480A"/>
<path d="M73.8374 24.1712L63.0227 7.54084L53.0446 23.7997L49.6348 21.7049L62.9243 0.0488281L77.19 21.9877L73.8374 24.1712Z" fill="#73B42F"/>
<path d="M73.8374 36.9444L63.0227 20.3141L53.0446 36.5711L49.6348 34.4763L62.9243 12.8203L77.19 34.7592L73.8374 36.9444Z" fill="#73B42F"/>
<path d="M73.8374 50.3196L63.0227 33.6893L53.0446 49.9481L49.6348 47.8533L62.9243 26.1973L77.1909 48.1389L73.8374 50.3196Z" fill="#73B42F"/>
<path d="M65.097 42.7891H61.0957V52.5728H65.097V42.7891Z" fill="#73B42F"/>
<path d="M20.3516 58.3711H23.5583V59.3845H21.4279V61.6637H23.2836V62.6744H21.4279V65.8837H20.3542L20.3516 58.3711Z" fill="#80746D"/>
<path d="M25.9453 58.3711H29.153V59.3845H27.0217V61.5903H28.8783V62.6036H27.0217V64.8094H29.153V65.8837H25.9453V58.3711Z" fill="#80746D"/>
<path d="M31.5449 58.3714H33.1376C33.3942 58.354 33.6516 58.3906 33.8932 58.4788C34.1348 58.567 34.3553 58.7048 34.5405 58.8835C34.8837 59.2787 35.0579 59.7932 35.0255 60.3158V63.8304C35.0491 64.111 35.016 64.3934 34.928 64.6609C34.8401 64.9284 34.6992 65.1754 34.5137 65.3872C34.3136 65.5639 34.0806 65.6992 33.8279 65.7853C33.5753 65.8713 33.3081 65.9064 33.0418 65.8885H31.5449V58.3714ZM32.6186 64.8733H33.1143C33.2316 64.8854 33.3501 64.8714 33.4613 64.8323C33.5726 64.7931 33.6738 64.7298 33.7576 64.6468C33.902 64.4373 33.969 64.1842 33.9473 63.9307V60.3104C33.9619 60.0686 33.8993 59.8285 33.7683 59.6247C33.6863 59.5353 33.5842 59.4667 33.4705 59.4246C33.3568 59.3824 33.2347 59.3678 33.1143 59.3821H32.6186V64.8733Z" fill="#80746D"/>
<path d="M37.7441 58.3711H40.9509V59.3845H38.8205V61.5903H40.6771V62.6036H38.8205V64.8094H40.9509V65.8837H37.7441V58.3711Z" fill="#80746D"/>
<path d="M43.3516 58.3711H45.082C46.3477 58.3711 46.9806 59.1067 46.9806 60.5778C46.9903 60.9625 46.9202 61.345 46.7748 61.7013C46.6256 62.027 46.3709 62.2929 46.0519 62.4559L47.215 65.8864H46.076L45.0739 62.6771H44.4306V65.8864H43.3569L43.3516 58.3711ZM44.4253 61.7281H45.0373C45.1924 61.7344 45.3471 61.7072 45.4909 61.6485C45.5976 61.6003 45.6876 61.5214 45.7495 61.422C45.8134 61.3097 45.8545 61.1859 45.8703 61.0576C45.9124 60.7247 45.9124 60.3879 45.8703 60.055C45.8536 59.9235 45.8084 59.7974 45.7378 59.6853C45.6702 59.5829 45.5728 59.5038 45.4587 59.4588C45.3065 59.404 45.1452 59.3788 44.9836 59.3845H44.4244L44.4253 61.7281Z" fill="#80746D"/>
<path d="M50.7305 58.3711H51.6253L53.302 65.8864H52.2283L51.9116 64.275H50.4451L50.1284 65.8864H49.0547L50.7305 58.3711ZM51.1842 60.5348H51.1627L50.6357 63.258H51.7094L51.1842 60.5348Z" fill="#80746D"/>
<path d="M55.5273 58.3711H56.601V64.8094H58.7323V65.8837H55.5273V58.3711Z" fill="#80746D"/>
<path d="M68.2138 64.2081C68.2145 64.4363 68.1698 64.6624 68.0823 64.8732C67.9974 65.0795 67.8738 65.2676 67.7181 65.4273C67.5626 65.5865 67.3787 65.7152 67.1759 65.8069C66.9655 65.9026 66.7368 65.9511 66.5058 65.9492C66.2942 65.9487 66.0836 65.9204 65.8794 65.8651C65.671 65.8096 65.4767 65.7105 65.3095 65.5741C65.1323 65.4257 64.9902 65.2398 64.8934 65.0299C64.7754 64.7611 64.7195 64.4692 64.7297 64.1758V60.0382C64.7274 59.8033 64.7702 59.5702 64.8559 59.3515C64.9366 59.1461 65.0584 58.9594 65.2138 58.8028C65.3722 58.6457 65.5605 58.5221 65.7676 58.4393C65.9951 58.3483 66.2384 58.3033 66.4834 58.3068C66.7184 58.3048 66.9514 58.3499 67.1688 58.4393C67.3749 58.5238 67.5616 58.6496 67.7172 58.809C67.8756 58.9728 67.9994 59.1667 68.0814 59.3793C68.1706 59.6099 68.2153 59.8554 68.2129 60.1026V60.5243H67.1392V60.1662C67.1435 59.9682 67.0804 59.7747 66.9603 59.6174C66.9041 59.5425 66.8307 59.4823 66.7462 59.442C66.6618 59.4016 66.5689 59.3823 66.4753 59.3856C66.3715 59.371 66.2657 59.3867 66.1705 59.4307C66.0753 59.4746 65.9948 59.545 65.9385 59.6335C65.844 59.8285 65.7986 60.0436 65.8061 60.2602V64.1024C65.7993 64.2953 65.8488 64.4859 65.9483 64.6512C66.0069 64.7296 66.0849 64.7914 66.1747 64.8303C66.2645 64.8693 66.3629 64.8841 66.4601 64.8732C66.537 64.872 66.6133 64.8593 66.6865 64.8356C66.7735 64.8103 66.8536 64.7654 66.9204 64.7042C66.9873 64.6431 67.0392 64.5673 67.0721 64.4829C67.1176 64.3651 67.1392 64.2394 67.1357 64.1132V63.7434H68.2093L68.2138 64.2081Z" fill="#80746D"/>
<path d="M70.7852 58.3711H72.5147C73.7804 58.3711 74.4133 59.1067 74.4133 60.5778C74.4233 60.9625 74.3532 61.3451 74.2075 61.7013C74.0585 62.0272 73.8037 62.2931 73.4846 62.4559L74.6477 65.8864H73.5078L72.5057 62.6771H71.8624V65.8864H70.7887L70.7852 58.3711ZM71.8588 61.7281H72.4699C72.6251 61.7345 72.7799 61.7074 72.9236 61.6485C73.0304 61.6004 73.1204 61.5216 73.1822 61.422C73.2467 61.3099 73.288 61.186 73.3038 61.0576C73.3453 60.7247 73.3453 60.3879 73.3038 60.055C73.2872 59.9235 73.242 59.7974 73.1714 59.6853C73.1036 59.5828 73.0058 59.5037 72.8914 59.4588C72.7392 59.404 72.5779 59.3788 72.4163 59.3845H71.8579L71.8588 61.7281Z" fill="#80746D"/>
<path d="M76.9746 58.3711H80.1814V59.3845H78.051V61.5903H79.9076V62.6036H78.051V64.8094H80.1814V65.8837H76.9746V58.3711Z" fill="#80746D"/>
<path d="M82.5801 58.3715H84.1727C84.4293 58.3539 84.6868 58.3905 84.9285 58.4787C85.1701 58.5669 85.3906 58.7048 85.5757 58.8835C85.9192 59.2787 86.0937 59.7931 86.0615 60.3159V63.8305C86.0853 64.1111 86.0522 64.3936 85.9642 64.661C85.8763 64.9285 85.7353 65.1755 85.5497 65.3872C85.3499 65.564 85.1169 65.6993 84.8644 65.7853C84.6119 65.8714 84.3449 65.9065 84.0788 65.8885H82.581L82.5801 58.3715ZM83.6538 64.8734H84.1494C84.2667 64.8855 84.3852 64.8714 84.4965 64.8323C84.6077 64.7931 84.7089 64.7298 84.7928 64.6469C84.9369 64.4373 85.0039 64.1842 84.9824 63.9307V60.3105C84.9971 60.0687 84.9344 59.8285 84.8035 59.6248C84.7213 59.5353 84.6191 59.4667 84.5052 59.4245C84.3914 59.3823 84.2691 59.3678 84.1486 59.3822H83.6529L83.6538 64.8734Z" fill="#80746D"/>
<path d="M88.8008 58.3711H89.8745V65.8864H88.8008V58.3711Z" fill="#80746D"/>
<path d="M93.3275 59.3845H92.082V58.3711H95.6485V59.3845H94.4039V65.8864H93.3302L93.3275 59.3845Z" fill="#80746D"/>
<path d="M104.958 64.1971C104.96 64.4327 104.914 64.6662 104.821 64.8829C104.643 65.3006 104.31 65.6335 103.892 65.8121C103.679 65.9026 103.449 65.9493 103.217 65.9493C102.985 65.9493 102.756 65.9026 102.542 65.8121C102.124 65.6338 101.792 65.3009 101.614 64.8829C101.521 64.6662 101.475 64.4327 101.477 64.1971V58.3711H102.55V64.0924C102.541 64.1985 102.553 64.3054 102.586 64.4068C102.619 64.5082 102.671 64.6022 102.74 64.6832C102.868 64.8052 103.038 64.8733 103.215 64.8733C103.391 64.8733 103.561 64.8052 103.689 64.6832C103.758 64.6022 103.811 64.5082 103.843 64.4068C103.876 64.3054 103.888 64.1985 103.879 64.0924V58.3711H104.953L104.958 64.1971Z" fill="#80746D"/>
<path d="M107.637 58.3711H108.671L110.295 62.8991H110.316V58.3711H111.39V65.8864H110.377L108.732 61.3692H108.71V65.8864H107.637V58.3711Z" fill="#80746D"/>
<path d="M114.094 58.3711H115.167V65.8864H114.094V58.3711Z" fill="#80746D"/>
<path d="M117.842 60.1449C117.837 59.868 117.891 59.5932 118.001 59.3392C118.097 59.1196 118.239 58.9233 118.418 58.7636C118.588 58.6135 118.785 58.4971 118.998 58.4207C119.417 58.266 119.877 58.266 120.296 58.4207C120.509 58.4973 120.706 58.6137 120.875 58.7636C121.054 58.9233 121.196 59.1196 121.292 59.3392C121.402 59.5932 121.456 59.8681 121.45 60.1449V64.1133C121.457 64.3902 121.403 64.6651 121.292 64.919C121.195 65.1365 121.053 65.3308 120.875 65.4893C120.706 65.6393 120.509 65.7556 120.296 65.8321C119.877 65.9868 119.417 65.9868 118.998 65.8321C118.785 65.7557 118.588 65.6393 118.418 65.4893C118.24 65.3308 118.098 65.1364 118.001 64.919C117.89 64.6651 117.836 64.3902 117.842 64.1133V60.1449ZM118.916 64.1133C118.907 64.2192 118.922 64.3257 118.96 64.4251C118.997 64.5245 119.056 64.6143 119.132 64.6881C119.276 64.8076 119.457 64.873 119.644 64.873C119.831 64.873 120.012 64.8076 120.156 64.6881C120.232 64.6142 120.291 64.5244 120.329 64.425C120.366 64.3256 120.381 64.2191 120.372 64.1133V60.1449C120.381 60.0389 120.366 59.9323 120.329 59.8327C120.291 59.7332 120.232 59.6432 120.156 59.5692C120.012 59.4505 119.831 59.3856 119.644 59.3856C119.458 59.3856 119.277 59.4505 119.132 59.5692C119.056 59.6431 118.997 59.7331 118.959 59.8326C118.922 59.9322 118.907 60.0389 118.916 60.1449V64.1133Z" fill="#80746D"/>
<path d="M124.056 58.3711H125.095L126.719 62.8991H126.741V58.3711H127.814V65.8864H126.795L125.15 61.3692H125.128V65.8864H124.055L124.056 58.3711Z" fill="#80746D"/>
</svg>
