<svg width="2504" height="498" viewBox="0 0 2504 498" fill="none" xmlns="http://www.w3.org/2000/svg">
<g clip-path="url(#clip0_629_275)">
<path d="M68.64 435.72L57.64 445.02C55.3628 442.359 52.5225 440.237 49.3247 438.809C46.1269 437.38 42.6515 436.68 39.15 436.76C36.1129 436.698 33.0944 437.248 30.2749 438.379C27.4553 439.509 24.8927 441.197 22.74 443.34C20.5446 445.459 18.8156 448.013 17.6636 450.839C16.5116 453.665 15.9621 456.7 16.05 459.75C15.9675 462.789 16.5098 465.813 17.6434 468.634C18.7769 471.455 20.4776 474.013 22.64 476.15C24.8261 478.269 27.4111 479.933 30.2453 481.045C33.0794 482.158 36.1061 482.696 39.15 482.63C42.675 482.702 46.172 481.99 49.3885 480.546C52.605 479.102 55.4609 476.962 57.75 474.28L68.75 483.57C65.1184 487.871 60.5895 491.325 55.4813 493.69C50.373 496.055 44.8091 497.274 39.18 497.26C28.18 497.26 19.01 493.71 11.39 486.6C3.77 479.49 0 470.51 0 459.75C0 448.99 3.76 440.1 11.39 432.9C19.02 425.7 28.21 422.13 39.18 422.13C44.7782 422.148 50.3068 423.371 55.3902 425.716C60.4736 428.061 64.9926 431.473 68.64 435.72ZM92.44 496.11V423.28H123C126.228 423.214 129.437 423.799 132.434 425.002C135.43 426.205 138.153 428 140.44 430.28C142.807 432.424 144.685 435.051 145.948 437.984C147.211 440.917 147.829 444.087 147.76 447.28C147.76 456.58 142.64 464.62 134.76 467.96L152.53 496.07H134.34L119.19 471.83H108.42V496.07L92.44 496.11ZM108.44 457.66H121.19C127.46 457.66 131.64 453.66 131.64 447.53C131.64 441.98 127.64 437.91 122.55 437.91H108.42L108.44 457.66ZM175.58 496.11V423.28H225.32V437.91H191.68V451.6H223.12V465.92H191.68V481.48H226.05V496.11H175.58ZM252.58 496.11V423.28H280.16C292.48 423.28 301.99 426.63 308.68 433.42C315.37 440.21 318.82 448.88 318.82 459.85C318.82 470.82 315.48 479.7 308.82 486.29C302.16 492.88 292.73 496.11 280.29 496.11H252.58ZM268.67 481.48H279.22C296.36 481.48 302.63 473.23 302.63 459.85C302.63 453.06 300.85 447.63 297.3 443.76C293.75 439.89 287.79 437.91 279.11 437.91H268.67V481.48ZM344.7 496.11V423.28H360.78V496.11H344.7ZM404.13 496.11V437.91H384.39V423.28H439.66V437.91H420.23V496.11H404.13ZM511.93 423.28H528V465C528 476.8 533 482.65 542.94 482.65C552.88 482.65 557.8 476.78 557.8 465V423.3H573.89V466.67C573.89 476.49 570.97 484.01 565.12 489.34C559.27 494.67 551.85 497.28 542.96 497.28C534.07 497.28 526.56 494.67 520.71 489.44C514.86 484.21 511.93 476.59 511.93 466.67V423.28ZM602 496.11V423.28H616.32L651.22 468.53V423.28H666.78V496.11H653.58L617.53 449.61V496.11H602ZM696 496.11V423.28H712.08V496.11H696ZM749.24 433.1C752.878 429.529 757.19 426.717 761.925 424.829C766.66 422.94 771.723 422.013 776.82 422.1C781.905 422.001 786.958 422.923 791.68 424.812C796.402 426.702 800.697 429.52 804.31 433.1C807.985 436.505 810.898 440.649 812.859 445.259C814.82 449.869 815.785 454.841 815.69 459.85C815.781 464.865 814.825 469.845 812.883 474.47C810.941 479.095 808.055 483.264 804.41 486.71C796.92 493.69 787.063 497.571 776.825 497.571C766.587 497.571 756.73 493.69 749.24 486.71C745.669 483.219 742.832 479.049 740.895 474.446C738.958 469.843 737.961 464.899 737.961 459.905C737.961 454.911 738.958 449.967 740.895 445.364C742.832 440.761 745.669 436.591 749.24 433.1ZM760.63 476.36C762.731 478.515 765.252 480.217 768.036 481.359C770.821 482.501 773.811 483.06 776.82 483C779.821 483.067 782.804 482.506 785.576 481.354C788.348 480.202 790.85 478.484 792.92 476.31C797.185 471.94 799.58 466.081 799.599 459.975C799.618 453.869 797.258 447.996 793.02 443.6C790.906 441.45 788.386 439.742 785.605 438.577C782.825 437.411 779.84 436.811 776.825 436.811C773.81 436.811 770.825 437.411 768.045 438.577C765.264 439.742 762.744 441.45 760.63 443.6C756.4 448.014 754.038 453.891 754.038 460.005C754.038 466.119 756.4 471.996 760.63 476.41V476.36ZM841.06 496.11V423.28H855.38L890.28 468.53V423.28H905.84V496.11H892.68L856.68 449.61V496.11H841.06ZM561.35 77.26C506.64 77.26 463.79 122.16 463.79 179.47C463.79 235.98 506.64 280.25 561.35 280.25C616.06 280.25 658.9 236 658.9 179.47C658.9 122.16 616.05 77.26 561.35 77.26ZM618.66 179.47C618.66 214.23 592.95 242.52 561.35 242.52C529.93 242.52 504.35 214.23 504.35 179.47C504.35 143.92 529.91 114.99 561.35 114.99C593 115 618.66 143.92 618.66 179.47ZM780.37 77.26C751.25 77.26 731.37 92.7 721.61 102.6V96.86C721.61 92.8921 720.038 89.0859 717.238 86.2746C714.438 83.4632 710.638 81.8759 706.67 81.86H682.45V357.86H703.22C708.383 357.852 713.332 355.797 716.982 352.145C720.632 348.493 722.685 343.543 722.69 338.38V256.18C738.41 271.49 759.36 280.24 780.37 280.24C834.67 280.24 877.21 235.5 877.21 178.39C877.21 121.68 834.67 77.26 780.37 77.26ZM837 178.4C837 213.75 811.6 242.52 780.39 242.52C749.18 242.52 722.71 213.15 722.71 178.4C722.69 144 749.1 115 780.37 115C811.64 115 837 143.43 837 178.4ZM929.6 0C922.174 0 915.052 2.94999 909.801 8.20101C904.55 13.452 901.6 20.5739 901.6 28V276H941.83V0H929.6ZM1716.79 77.26C1698.79 77.26 1682.34 82.99 1669.13 93.84V0H1656.88C1649.45 0 1642.33 2.94999 1637.08 8.20101C1631.83 13.452 1628.88 20.5739 1628.88 28V276H1669.12V159.2C1669.1 153.295 1670.26 147.446 1672.55 141.999C1674.83 136.552 1678.18 131.618 1682.4 127.49C1686.46 123.433 1691.3 120.236 1696.63 118.09C1701.96 115.944 1707.66 114.893 1713.4 115C1737.99 115.38 1752.67 131.86 1752.67 159.08V276H1792.54V160.16C1792.53 109.8 1762.8 77.26 1716.79 77.26ZM1916.38 77.26C1861.68 77.26 1818.82 122.16 1818.82 179.47C1818.82 235.98 1861.68 280.25 1916.38 280.25C1971.08 280.25 2013.94 235.98 2013.94 179.47C2013.94 122.16 1971.09 77.26 1916.38 77.26ZM1973.7 179.47C1973.7 214.23 1947.99 242.52 1916.38 242.52C1884.97 242.52 1859.38 214.23 1859.38 179.47C1859.38 143.92 1884.94 114.99 1916.38 114.99C1948 115 1973.7 143.92 1973.7 179.47ZM2068.76 81.91C2061.33 81.91 2054.21 84.86 2048.96 90.111C2043.71 95.362 2040.76 102.484 2040.76 109.91V276H2081V82L2068.76 81.91ZM1162.43 187C1162.61 154.71 1151.59 125.76 1131.43 105.47C1122.71 96.5612 1112.31 89.4776 1100.82 84.6325C1089.34 79.7873 1077 77.2777 1064.54 77.25C1010.72 77.26 967 123 967 179.11C967 235.82 1010.64 280.25 1066.35 280.25C1111.06 280.25 1144.44 256.59 1157.94 215.34L1160.04 208.9H1123.44C1120.02 208.9 1117.35 210.16 1115.22 214.49C1105.47 233.06 1088.64 242.88 1066.35 242.88C1042.65 242.88 1014.48 226.88 1008.35 191.88H1162.4L1162.43 187ZM1011 154.88C1020.75 127.23 1045.48 114.63 1064.49 114.63C1087.66 114.63 1108.78 130.78 1117.26 154.88H1011ZM445.59 187C445.77 154.71 434.75 125.76 414.59 105.47C396.49 87.27 372.74 77.25 347.7 77.25C293.9 77.25 250.14 122.94 250.14 179.1C250.14 235.81 293.78 280.24 349.48 280.24C394.19 280.24 427.57 256.58 441.07 215.33L443.18 208.89H406.64C403.42 208.89 400.87 209.96 398.8 213.58C389.11 232.73 372.11 242.87 349.46 242.87C325.76 242.87 297.6 226.87 291.46 191.87H445.56L445.59 187ZM294.18 154.88C303.94 127.23 328.67 114.63 347.68 114.63C370.85 114.63 391.97 130.78 400.46 154.88H294.18ZM1268.31 154.59C1232.31 148.89 1225.95 144.72 1225.95 135.83C1225.95 124.14 1242.17 114.99 1262.89 114.99C1283.61 114.99 1297.63 123.66 1301.89 138.84C1303.12 142.98 1305.53 144.41 1308.51 144.68H1343.51L1342.92 139.23C1338.75 101.01 1308.1 77.23 1262.92 77.23C1209.92 77.23 1185.75 108.15 1185.75 136.88C1185.75 179.11 1223.36 188.06 1261.9 193.61C1307.72 199.79 1307.72 209.12 1307.72 217.35C1307.72 229.84 1293.56 242.49 1266.49 242.49C1242.38 242.49 1224.49 231.22 1220.25 213.63V213.71C1218.88 209.07 1216 207.82 1212.51 207.82H1178.69L1179.4 213.36C1184.65 254.21 1218.86 280.6 1266.54 280.6C1314.62 280.6 1346.92 254.48 1346.92 215.6C1346.84 167 1303.3 160.11 1268.31 154.59ZM2503.08 187C2503.26 154.71 2492.24 125.76 2472.08 105.47C2453.98 87.27 2430.22 77.25 2405.19 77.25C2351.4 77.25 2307.63 122.94 2307.63 179.1C2307.63 235.81 2351.27 280.24 2406.98 280.24C2451.68 280.24 2485.07 256.58 2498.56 215.33L2500.67 208.89H2462.87C2461.58 208.996 2460.35 209.416 2459.26 210.114C2458.18 210.811 2457.28 211.765 2456.65 212.89C2447.03 232.49 2429.89 242.89 2406.98 242.89C2383.28 242.89 2355.11 226.89 2348.98 191.89H2503.1L2503.08 187ZM2351.68 154.87C2361.43 127.22 2386.16 114.62 2405.17 114.62C2428.34 114.62 2449.46 130.77 2457.94 154.87H2351.68ZM2251.34 212.71C2241.4 231.66 2223.88 242.52 2203.03 242.52C2171.62 242.52 2146.03 214.07 2146.03 179.11C2146.03 143.76 2171.59 114.99 2203.03 114.99C2223.44 114.99 2240.91 125.78 2251.21 144.6C2251.87 145.764 2252.81 146.742 2253.95 147.442C2255.09 148.142 2256.38 148.54 2257.72 148.6H2295.72L2293.54 142.12C2280.07 102.12 2245.39 77.25 2203.04 77.25C2149.45 77.25 2105.84 122.94 2105.84 179.1C2105.84 234.87 2149.45 280.24 2203.04 280.24C2245.78 280.24 2280.46 255.36 2293.55 215.33L2295.66 208.89H2257.43C2256.18 208.992 2254.98 209.393 2253.92 210.058C2252.86 210.722 2251.98 211.632 2251.34 212.71ZM2060.89 10.27C2056.14 10.27 2051.5 11.6776 2047.56 14.3147C2043.61 16.9519 2040.53 20.7002 2038.72 25.0856C2036.9 29.471 2036.43 34.2966 2037.35 38.9522C2038.28 43.6077 2040.56 47.8841 2043.92 51.2406C2047.28 54.597 2051.55 56.8828 2056.21 57.8088C2060.86 58.7349 2065.69 58.2596 2070.07 56.4431C2074.46 54.6266 2078.21 51.5505 2080.85 47.6037C2083.48 43.6569 2084.89 39.0168 2084.89 34.27C2084.89 27.9048 2082.36 21.8003 2077.86 17.2994C2073.36 12.7986 2067.26 10.27 2060.89 10.27ZM1572.25 187.44C1568.83 187.44 1566.79 188.66 1564.58 193.26C1549.64 223.26 1521.49 241.11 1488.58 241.11C1440.01 241.11 1400.49 198.38 1400.49 145.87C1400.49 93.36 1440.01 50.63 1488.58 50.63C1522.58 50.63 1550.12 68.03 1564.58 98.44C1566.58 103.03 1568.83 104.33 1572.33 104.33H1609.01L1607 97.84C1590 44.77 1544.59 11.84 1488.59 11.84C1418.03 11.84 1360.59 71.97 1360.59 145.84C1360.59 219.94 1418 280.24 1488.59 280.24C1543.88 280.24 1589.25 247.15 1606.99 193.89L1609.14 187.43L1572.25 187.44Z" fill="#05184C"/>
<path d="M180.5 114.178C177.66 111.698 153.13 94.4282 132.05 117.028L39.48 227.658V159.998H2V279.228C2.0027 283.074 3.18903 286.825 5.39785 289.973C7.60668 293.121 10.7309 295.513 14.3462 296.824C17.9615 298.134 21.8927 298.3 25.6057 297.299C29.3186 296.298 32.6335 294.179 35.1 291.228L182.1 115.518L180.5 114.178Z" fill="url(#paint0_linear_629_275)"/>
<path d="M246.662 84.5987C238.542 49.8487 208.122 12.7188 147.112 12.7188H20.5817C18.1169 12.7187 15.6765 13.2052 13.4001 14.1502C11.1238 15.0952 9.05632 16.4802 7.31629 18.2258C5.57626 19.9714 4.19787 22.0433 3.26014 24.3227C2.3224 26.602 1.84376 29.044 1.85166 31.5088L2.15166 141.319H6.15166C22.1517 141.129 39.4617 130.989 39.5817 110.439L39.4117 50.1887H147.112C194.982 50.1887 207.112 80.1887 210.182 93.1287C215.652 116.539 206.322 147.589 177.902 161.639C174.396 163.361 170.749 164.779 167.002 165.879C166.492 166.029 165.752 166.239 165.212 166.349C159.432 168.049 156.212 169.349 153.312 172.669C142.202 185.449 143.172 204.119 143.212 204.979C144.422 204.979 156.882 204.659 156.882 204.659C163.875 204.706 170.84 203.749 177.562 201.819C183.408 200.11 189.096 197.898 194.562 195.209C214.497 185.406 230.51 169.122 239.976 149.025C249.442 128.928 251.8 106.211 246.662 84.5987Z" fill="#05184C"/>
</g>
<defs>
<linearGradient id="paint0_linear_629_275" x1="-18.94" y1="247.948" x2="189.2" y2="127.778" gradientUnits="userSpaceOnUse">
<stop stop-color="#0592FF"/>
<stop offset="0.84" stop-color="#22D1C4"/>
</linearGradient>
<clipPath id="clip0_629_275">
<rect width="2503.08" height="497.57" fill="white"/>
</clipPath>
</defs>
</svg>
