<svg xmlns:xlink="http://www.w3.org/1999/xlink" xmlns="http://www.w3.org/2000/svg" width="356" height="56" viewBox="0 0 356 56"><defs><clipPath id="a9sba"><path d="M0 56h355.711V0H0z"></path></clipPath></defs><g><g><g><g><path fill="#004D71" d="M69.941 30.768l-3.09 3.402v6.91h-4.845V16.212h4.845v11.26l9.973-11.26h6.355l-9.866 10.839L83.25 41.08h-6.076z"></path></g><g><g><path fill="#004D71" d="M98.272 36.133c-.878 2.982-3.617 5.472-7.866 5.472-4.74 0-8.918-3.402-8.918-9.225 0-5.507 4.073-9.084 8.497-9.084 5.337 0 8.533 3.402 8.533 8.944 0 .667-.07 1.368-.07 1.438h-12.36c.105 2.28 2.036 3.928 4.354 3.928 2.177 0 3.371-1.087 3.933-2.63zm-4.364-5.656c-.07-1.713-1.191-3.393-3.858-3.393-2.42 0-3.752 1.82-3.857 3.393z"></path></g><g><path fill="#004D71" d="M105.471 41.074h-4.67V23.818h4.53v2.139c1.053-1.788 3.125-2.596 4.986-2.596 4.284 0 6.25 3.052 6.25 6.84v10.873h-4.67V31.008c0-1.93-.947-3.437-3.195-3.437-2.037 0-3.23 1.578-3.23 3.577z"></path></g><g><path fill="#004D71" d="M124.224 41.074h-4.67V23.818h4.53v2.139c1.053-1.788 3.125-2.596 4.986-2.596 4.284 0 6.25 3.052 6.25 6.84v10.873h-4.67V31.008c0-1.93-.947-3.437-3.195-3.437-2.036 0-3.23 1.578-3.23 3.577z"></path></g><g><path fill="#004D71" d="M153.784 36.133c-.879 2.982-3.617 5.472-7.866 5.472-4.741 0-8.919-3.402-8.919-9.225 0-5.507 4.073-9.084 8.498-9.084 5.337 0 8.532 3.402 8.532 8.944 0 .667-.07 1.368-.07 1.438H141.6c.105 2.28 2.036 3.928 4.354 3.928 2.177 0 3.37-1.087 3.932-2.63zm-4.364-5.656c-.07-1.713-1.193-3.393-3.858-3.393-2.42 0-3.753 1.82-3.858 3.393z"></path></g><g><path fill="#004D71" d="M156.135 41.074V15.68h4.6v10.031c.773-1.228 2.669-2.35 5.233-2.35 5.056 0 7.97 3.894 7.97 9.014 0 5.226-3.23 9.12-8.146 9.12-2.388 0-4.214-1.053-5.127-2.526v2.105zm4.53-8.658c0 3.124 1.966 4.914 4.319 4.914 2.388 0 4.284-1.756 4.284-4.914 0-3.16-1.896-4.88-4.284-4.88-2.353 0-4.319 1.72-4.319 4.88z"></path></g><g><path fill="#004D71" d="M186.968 39.217c-.948 1.614-2.95 2.314-4.775 2.314-4.179 0-6.566-3.05-6.566-6.804V23.82h4.67v9.961c0 1.93.983 3.473 3.16 3.473 2.071 0 3.265-1.404 3.265-3.403V23.82h4.67v14.135c0 1.333.106 2.526.176 3.122h-4.46c-.07-.35-.14-1.158-.14-1.86"></path></g><g><path fill="#004D71" d="M199.115 41.074h-4.67V23.818h4.53v2.139c1.053-1.788 3.125-2.596 4.986-2.596 4.284 0 6.25 3.052 6.25 6.84v10.873h-4.67V31.008c0-1.93-.948-3.437-3.195-3.437-2.037 0-3.23 1.578-3.23 3.577z"></path></g><g><path fill="#004D71" d="M223.03 31.077l7.057 9.996h-5.723L219.8 34.48l-1.93 2.035v4.56h-4.67V15.68h4.67v14.555l5.968-6.418h6.11z"></path></g><g><path fill="#004D71" d="M251.603 23.466c-.246-1.367-1.37-3.508-4.53-3.508-2.352 0-3.897 1.509-3.897 3.158 0 1.367.877 2.455 2.704 2.805l3.476.667c4.53.877 6.953 3.823 6.953 7.33 0 3.823-3.196 7.682-8.989 7.682-6.601 0-9.517-4.244-9.903-7.787l4.495-1.192c.211 2.455 1.931 4.665 5.443 4.665 2.598 0 4.038-1.299 4.038-3.052 0-1.438-1.089-2.56-3.02-2.947l-3.477-.7c-3.967-.807-6.53-3.368-6.53-7.121 0-4.42 3.967-7.786 8.673-7.786 6.039 0 8.357 3.647 8.918 6.453z"></path></g><g><path fill="#004D71" d="M271.02 38.73c-.738 1.649-2.528 2.842-4.845 2.842-5.092 0-8.463-3.964-8.463-9.19 0-5.051 3.301-9.049 8.322-9.049 3.09 0 4.53 1.649 4.951 2.63v-2.139h4.53V37.96c0 1.542.105 2.735.14 3.122h-4.46a14.02 14.02 0 0 1-.175-2.14zm-.035-6.348c0-3.157-1.791-5.016-4.249-5.016-2.492 0-4.318 1.86-4.318 5.016 0 3.122 1.79 5.156 4.318 5.156 2.423 0 4.25-2 4.25-5.156z"></path></g><g><path fill="#004D71" d="M288.577 41.075h-4.67l-7.059-17.256h5.127l4.285 11.574 4.108-11.574h4.916z"></path></g><g></g><g clip-path="url(#a9sba)"><path fill="#004D71" d="M299.22 15.26c-1.58 0-2.88 1.298-2.88 2.911 0 1.544 1.3 2.841 2.88 2.841 1.615 0 2.88-1.297 2.88-2.84 0-1.614-1.265-2.912-2.88-2.912zm-2.318 25.815h4.67V23.82h-4.67z"></path></g><g clip-path="url(#a9sba)"><path fill="#004D71" d="M309.82 41.074h-4.67V23.818h4.53v2.139c1.054-1.788 3.125-2.596 4.987-2.596 4.284 0 6.25 3.052 6.25 6.84v10.873h-4.67V31.008c0-1.93-.948-3.437-3.195-3.437-2.037 0-3.231 1.578-3.231 3.577z"></path></g><g clip-path="url(#a9sba)"><path fill="#004D71" d="M327.061 40.899c.317 1.893 1.826 3.262 4.039 3.262 2.95 0 4.6-1.474 4.6-4.806v-1.263c-.703 1.123-2.319 2.21-4.812 2.21-4.599 0-8.04-3.543-8.04-8.383 0-4.56 3.3-8.418 8.04-8.418 2.74 0 4.32 1.193 4.917 2.35v-2.034h4.495v15.398c0 4.735-2.564 9.049-9.06 9.049-4.74 0-7.9-2.947-8.392-6.243zm4.636-13.33c-2.318 0-4.144 1.684-4.144 4.35 0 2.701 1.72 4.385 4.144 4.385 2.387 0 4.073-1.72 4.073-4.385 0-2.666-1.826-4.35-4.073-4.35z"></path></g><g clip-path="url(#a9sba)"><path fill="#004D71" d="M345.81 35.397c.105 1.367 1.124 2.63 3.16 2.63 1.545 0 2.282-.807 2.282-1.718 0-.772-.527-1.403-1.86-1.684l-2.283-.527c-3.335-.736-4.845-2.735-4.845-5.155 0-3.087 2.738-5.647 6.46-5.647 4.916 0 6.566 3.121 6.777 4.98l-3.897.878c-.14-1.018-.879-2.315-2.845-2.315-1.228 0-2.211.736-2.211 1.718 0 .842.631 1.368 1.579 1.544l2.458.525c3.406.702 5.127 2.771 5.127 5.296 0 2.807-2.177 5.682-6.707 5.682-5.197 0-6.987-3.366-7.198-5.33z"></path></g><g clip-path="url(#a9sba)"><path fill="#00AC69" d="M16.207 12.704a4.754 4.754 0 0 0 4.751-4.746 4.754 4.754 0 0 0-4.751-4.747 4.754 4.754 0 0 0-4.751 4.747 4.754 4.754 0 0 0 4.75 4.746"></path></g><g clip-path="url(#a9sba)"><path fill="#00AC69" d="M17.77 23.775a4.016 4.016 0 0 0 4.013-4.01c0-2.212-1.8-4.01-4.014-4.01a4.017 4.017 0 0 0-4.015 4.01 4.017 4.017 0 0 0 4.015 4.01"></path></g><g clip-path="url(#a9sba)"><path fill="#00AC69" d="M7.333 21.511a5.45 5.45 0 0 0 5.447-5.44 5.45 5.45 0 0 0-5.447-5.44 5.45 5.45 0 0 0-5.446 5.44c0 3 2.444 5.44 5.446 5.44"></path></g><g clip-path="url(#a9sba)"><path fill="#00AC69" d="M8.03 27.101c0-2.21-1.801-4.01-4.015-4.01A4.017 4.017 0 0 0 0 27.1c0 2.212 1.8 4.01 4.015 4.01a4.016 4.016 0 0 0 4.014-4.01"></path></g><g clip-path="url(#a9sba)"><path fill="#00AC69" d="M25.668 7.337a3.674 3.674 0 0 0 3.673-3.669A3.674 3.674 0 0 0 25.668 0a3.675 3.675 0 0 0-3.673 3.668 3.675 3.675 0 0 0 3.673 3.669"></path></g><g clip-path="url(#a9sba)"><path fill="#00AC69" d="M19.204 33.644a2.997 2.997 0 0 0-5.992 0 2.999 2.999 0 0 0 2.997 2.993 2.998 2.998 0 0 0 2.995-2.993"></path></g><g clip-path="url(#a9sba)"><path fill="#00AC69" d="M23.08 12.438c0 1.43 1.16 2.59 2.593 2.59a2.593 2.593 0 0 0 2.594-2.59c0-1.431-1.161-2.591-2.594-2.591a2.593 2.593 0 0 0-2.594 2.59"></path></g><g clip-path="url(#a9sba)"><path fill="#00AC69" d="M17.366 38.873a2.593 2.593 0 0 0-2.593 2.591c0 1.431 1.161 2.591 2.593 2.591a2.593 2.593 0 0 0 2.594-2.59c0-1.432-1.161-2.592-2.594-2.592"></path></g><g clip-path="url(#a9sba)"><path fill="#00AC69" d="M9.587 26.372c0 1.431 1.161 2.591 2.594 2.591a2.592 2.592 0 1 0 0-5.182 2.593 2.593 0 0 0-2.594 2.591"></path></g><g clip-path="url(#a9sba)"><path fill="#00AC69" d="M36.51 14.511a5.66 5.66 0 0 0 5.657-5.65c0-3.115-2.538-5.65-5.657-5.65s-5.657 2.535-5.657 5.65a5.66 5.66 0 0 0 5.657 5.65"></path></g><g clip-path="url(#a9sba)"><path fill="#00AC69" d="M33.57 23.775a4.016 4.016 0 0 0 4.014-4.01c0-2.212-1.8-4.01-4.014-4.01a4.017 4.017 0 0 0-4.015 4.01 4.017 4.017 0 0 0 4.015 4.01"></path></g><g clip-path="url(#a9sba)"><path fill="#00AC69" d="M33.939 25.583a3.386 3.386 0 0 0-3.385 3.38 3.385 3.385 0 0 0 6.768 0 3.386 3.386 0 0 0-3.383-3.38"></path></g><g clip-path="url(#a9sba)"><path fill="#00AC69" d="M40.244 17.545a3.108 3.108 0 0 0 3.11 3.106c1.717 0 3.11-1.39 3.11-3.106a3.108 3.108 0 0 0-3.11-3.106 3.108 3.108 0 0 0-3.11 3.106"></path></g><g clip-path="url(#a9sba)"><path fill="#00AC69" d="M45.293 21.943c-3.119 0-5.656 2.535-5.656 5.65 0 3.116 2.537 5.65 5.656 5.65 3.12 0 5.657-2.534 5.657-5.65 0-3.115-2.538-5.65-5.657-5.65"></path></g><g clip-path="url(#a9sba)"><path fill="#00AC69" d="M8.03 32.723a4.622 4.622 0 0 0-4.62 4.614 4.622 4.622 0 0 0 4.62 4.614c2.546 0 4.619-2.07 4.619-4.614a4.622 4.622 0 0 0-4.62-4.614"></path></g><g clip-path="url(#a9sba)"><path fill="#00AC69" d="M39.989 33.955a4.008 4.008 0 0 0-4.006 4c0 2.205 1.797 4 4.006 4a4.007 4.007 0 0 0 4.005-4c0-2.206-1.796-4-4.005-4"></path></g><g clip-path="url(#a9sba)"><path fill="#00AC69" d="M27.937 37.143c0-8.629-.486-19.606-2.314-19.606S23.48 26.16 23.48 30.062c-.77-1.41-8.047-5.911-7.31-3.789.063.182.17.347.3.491l5.35 5.992a5.54 5.54 0 0 1 1.398 3.987c-.378 7.065-1.154 15.178-2.735 18.315-.343.683.255.938.727.938h8.61c.473 0 1.07-.255.727-.938-.917-1.817-1.562-6.785-2.017-11.15a5.529 5.529 0 0 1 1.716-4.602l4.504-4.233c.143-.135.269-.288.36-.461 1.06-2.035-5.836 1.361-7.174 2.53"></path></g></g></g></g></g></svg>