<svg xmlns:xlink="http://www.w3.org/1999/xlink" xmlns="http://www.w3.org/2000/svg" version="1.1" viewBox="0.00 0.00 2250.00 450.00" width="2250" height="450">
<path fill="#174387" d="   M 887.03 19.39   C 889.97 17.73 893.88 19.32 895.67 21.89   Q 896.79 23.50 896.78 27.88   Q 896.72 57.25 896.78 170.11   Q 896.78 176.51 895.42 178.60   C 892.55 182.99 889.27 184.02 883.56 184.02   Q 827.73 183.97 825.92 184.02   C 819.45 184.20 815.24 182.77 812.73 177.26   Q 811.97 175.59 811.97 170.18   Q 811.97 139.63 812.40 114.01   A 2.64 2.47 -56.1 0 0 812.27 113.20   Q 810.14 106.81 804.43 104.71   A 3.44 3.32 54.2 0 0 803.26 104.50   L 752.71 104.50   A 4.94 4.91 36.6 0 0 751.32 104.70   Q 746.51 106.15 744.17 110.36   Q 742.84 112.76 742.95 119.35   Q 743.03 123.45 743.00 294.65   Q 743.00 300.97 742.07 303.23   C 739.63 309.19 733.57 312.80 727.73 315.49   Q 710.59 323.37 699.63 329.84   Q 694.26 333.02 691.59 332.90   Q 686.41 332.68 684.49 327.80   A 3.55 3.39 -57.2 0 1 684.24 326.50   Q 684.24 212.96 684.24 136.88   Q 684.24 132.70 684.70 131.18   C 686.97 123.77 694.48 119.95 701.00 116.52   C 728.75 101.94 750.28 90.28 776.26 77.26   C 807.12 61.79 825.30 51.81 853.30 37.55   Q 868.58 29.77 887.03 19.39   Z"/>
<path fill="#174387" d="   M 1022.20 99.86   Q 1025.86 100.94 1026.93 104.70   A 2.21 2.17 -52.7 0 1 1027.00 105.25   Q 1026.98 283.75 1027.03 291.77   Q 1027.08 298.64 1026.05 301.11   C 1023.14 308.10 1015.46 312.08 1008.42 315.67   Q 1000.55 319.69 932.30 355.14   Q 912.49 365.42 905.40 368.94   Q 886.16 378.49 878.53 382.78   Q 864.10 390.91 855.54 394.99   C 844.36 400.32 834.03 406.37 821.64 412.93   A 4.13 4.04 25.7 0 1 820.34 413.37   Q 815.27 414.17 812.94 410.66   Q 811.47 408.44 811.48 402.48   Q 811.52 381.99 811.51 292.50   C 811.51 291.37 811.78 290.42 811.77 289.49   Q 811.62 273.60 812.08 256.26   A 4.49 4.20 -38.7 0 1 812.23 255.21   C 814.11 248.09 819.55 246.47 826.93 246.74   Q 828.85 246.80 882.17 246.72   Q 889.45 246.71 891.66 247.89   Q 895.69 250.05 897.23 254.91   A 3.60 3.36 -57.0 0 1 897.39 255.82   Q 897.91 267.22 897.69 277.50   Q 897.21 300.81 897.26 317.30   Q 897.26 317.91 899.29 321.06   C 902.17 325.55 905.55 326.03 911.20 326.02   Q 950.19 325.96 951.64 326.01   C 958.37 326.23 962.77 325.06 965.63 319.52   Q 966.53 317.77 966.53 312.85   Q 966.45 218.51 966.49 140.85   C 966.49 135.48 966.90 131.25 970.10 127.35   Q 973.17 123.61 978.09 120.82   Q 993.08 112.33 1007.52 105.41   C 1012.02 103.25 1016.70 98.24 1022.20 99.86   Z"/>
<path fill="#72a8c3" d="   M 339.51 152.58   C 338.88 138.94 328.90 128.68 315.19 128.92   C 305.21 129.09 294.46 137.39 293.00 147.66   Q 290.90 162.42 301.43 169.89   Q 305.01 172.43 313.14 174.69   C 333.87 180.46 354.38 187.84 356.87 212.83   Q 359.26 236.85 338.95 251.00   Q 330.30 257.02 318.97 257.66   C 294.44 259.05 274.94 241.59 274.51 216.89   A 0.64 0.63 89.6 0 1 275.14 216.24   L 288.57 216.24   A 0.62 0.62 0.0 0 1 289.19 216.85   C 289.39 238.48 313.47 252.43 331.98 239.25   C 339.09 234.20 343.24 226.79 343.29 217.88   C 343.41 197.19 323.59 191.63 307.53 186.90   Q 298.55 184.26 294.43 181.62   C 283.37 174.54 278.52 163.10 278.78 150.00   C 279.11 133.50 292.56 119.62 307.93 116.41   Q 321.01 113.67 332.01 118.58   C 344.96 124.35 354.43 138.07 353.98 152.67   A 0.59 0.59 0.0 0 1 353.39 153.25   L 340.22 153.25   A 0.71 0.70 -1.3 0 1 339.51 152.58   Z"/>
<path fill="#72a8c3" d="   M 595.00 141.13   A 0.37 0.37 0.0 0 1 594.63 141.50   L 581.61 141.50   A 0.37 0.37 0.0 0 1 581.24 141.13   L 581.24 117.87   A 0.37 0.37 0.0 0 1 581.61 117.50   L 594.63 117.50   A 0.37 0.37 0.0 0 1 595.00 117.87   L 595.00 141.13   Z"/>
<path fill="#174387" d="   M 222.93 133.07   A 0.54 0.54 0.0 0 1 223.05 134.09   Q 179.56 153.33 143.46 181.82   A 1.07 1.07 0.0 0 1 142.15 181.83   Q 104.26 152.78 59.54 134.23   A 0.53 0.52 -39.4 0 1 59.64 133.23   Q 84.65 128.26 112.25 126.25   Q 112.84 126.21 124.50 125.64   Q 144.78 124.65 160.78 125.79   Q 163.91 126.01 166.43 126.06   Q 171.18 126.16 172.06 126.27   Q 177.02 126.91 183.80 127.29   Q 184.95 127.36 187.66 127.91   C 189.09 128.20 190.78 128.07 192.86 128.34   Q 206.90 130.19 222.93 133.07   Z"/>
<path fill="#174387" d="   M 246.68 132.35   Q 246.82 132.55 246.78 132.75   Q 241.11 158.36 239.29 166.76   A 2.02 1.95 -48.3 0 0 239.33 167.76   Q 240.87 172.91 241.42 175.77   Q 244.00 189.11 239.62 201.66   C 231.38 225.25 210.47 242.74 184.99 244.03   Q 168.62 244.86 154.69 236.41   A 0.77 0.76 30.6 0 1 154.42 235.37   L 159.23 227.04   A 0.72 0.70 -64.0 0 1 160.10 226.73   Q 161.24 227.18 170.91 231.21   Q 188.40 238.50 203.13 227.45   C 218.43 215.99 222.13 194.26 214.18 177.90   C 209.45 168.18 201.95 161.30 191.56 158.57   A 0.42 0.42 0.0 0 1 191.46 157.79   Q 217.89 142.78 246.25 132.21   A 0.37 0.36 63.0 0 1 246.68 132.35   Z"/>
<path fill="#174387" d="   M 37.51 132.54   A 0.36 0.36 0.0 0 1 37.94 132.40   Q 66.20 142.97 92.53 157.96   A 0.42 0.42 0.0 0 1 92.43 158.74   C 82.07 161.45 74.58 168.30 69.86 177.99   C 61.91 194.29 65.58 215.96 80.82 227.40   Q 95.49 238.43 112.94 231.19   Q 122.58 227.18 123.72 226.73   A 0.72 0.70 64.1 0 1 124.59 227.04   L 129.37 235.35   A 0.76 0.76 0.0 0 1 129.10 236.39   Q 115.20 244.80 98.88 243.95   C 73.48 242.64 52.65 225.18 44.47 201.65   Q 40.11 189.13 42.70 175.83   Q 43.25 172.98 44.79 167.85   A 2.01 1.94 48.4 0 0 44.84 166.85   Q 43.03 158.48 37.41 132.94   Q 37.37 132.74 37.51 132.54   Z"/>
<path fill="#72a8c3" d="   M 456.78 237.05   Q 455.28 239.08 450.99 242.75   C 425.70 264.38 389.64 256.88 372.95 228.95   C 363.76 213.58 363.89 192.55 372.99 177.10   C 381.23 163.11 396.12 152.36 412.80 151.11   Q 443.53 148.80 461.69 172.56   Q 471.56 185.47 471.11 202.21   C 470.79 214.52 471.00 230.72 470.99 254.95   A 0.30 0.30 0.0 0 1 470.69 255.25   L 457.80 255.25   A 0.56 0.55 -0.0 0 1 457.24 254.70   L 457.24 237.20   A 0.25 0.25 0.0 0 0 456.78 237.05   Z   M 420.0183 164.0837   A 38.92 38.75 -88.0 0 0 379.9336 201.6276   A 38.92 38.75 -88.0 0 0 417.3017 241.8763   A 38.92 38.75 -88.0 0 0 457.3864 204.3324   A 38.92 38.75 -88.0 0 0 420.0183 164.0837   Z"/>
<path fill="#72a8c3" d="   M 520.41 236.58   Q 520.46 236.58 520.51 236.56   A 0.38 0.21 -77.3 0 0 520.65 236.40   L 554.70 154.02   A 0.75 0.74 11.2 0 1 555.39 153.56   L 569.50 153.56   A 0.30 0.30 0.0 0 1 569.78 153.98   L 527.84 254.86   A 1.07 1.07 0.0 0 1 527.01 255.51   Q 527.00 255.51 520.38 255.51   Q 513.76 255.50 513.75 255.49   A 1.07 1.07 0.0 0 1 512.92 254.84   L 471.26 153.84   A 0.30 0.30 0.0 0 1 471.55 153.42   L 485.66 153.46   A 0.75 0.74 -11.0 0 1 486.34 153.92   L 520.16 236.40   A 0.38 0.21 77.5 0 0 520.30 236.56   Q 520.35 236.58 520.41 236.58   Z"/>
<path fill="#72a8c3" d="   M 595.00 255.13   A 0.36 0.36 0.0 0 1 594.64 255.49   L 581.60 255.49   A 0.36 0.36 0.0 0 1 581.24 255.13   L 581.24 153.85   A 0.36 0.36 0.0 0 1 581.60 153.49   L 594.64 153.49   A 0.36 0.36 0.0 0 1 595.00 153.85   L 595.00 255.13   Z"/>
<path fill="#174387" d="   M 1460.64 217.04   C 1462.46 216.02 1464.74 214.06 1467.74 212.64   Q 1478.52 207.53 1491.76 209.50   C 1508.40 211.97 1516.52 224.07 1518.91 239.80   Q 1520.79 252.15 1519.50 264.75   C 1517.70 282.22 1510.18 296.98 1491.64 300.30   Q 1473.98 303.47 1459.38 294.48   A 1.05 1.05 0.0 0 0 1458.47 294.38   L 1440.36 300.88   A 2.09 1.94 33.0 0 1 1439.67 301.00   L 1435.10 301.00   A 0.36 0.36 0.0 0 1 1434.74 300.64   Q 1434.77 208.64 1434.72 173.79   C 1434.71 166.72 1426.63 166.19 1421.48 166.56   A 0.22 0.22 0.0 0 1 1421.25 166.34   L 1421.25 159.49   A 0.24 0.24 0.0 0 1 1421.49 159.25   L 1459.45 159.25   A 0.55 0.54 0.0 0 1 1460.00 159.79   L 1460.00 216.67   A 0.43 0.43 0.0 0 0 1460.64 217.04   Z   M 1460.25 254.89   C 1460.10 265.93 1457.28 291.36 1474.37 292.22   C 1486.97 292.86 1490.49 280.44 1491.34 270.23   Q 1491.89 263.61 1492.00 255.29   Q 1492.11 246.97 1491.72 240.35   C 1491.13 230.11 1487.93 217.61 1475.32 217.92   C 1458.21 218.34 1460.39 243.84 1460.25 254.89   Z"/>
<path fill="#174387" d="   M 2212.66 185.29   A 19.00 19.00 0.0 0 1 2193.66 204.29   A 19.00 19.00 0.0 0 1 2174.66 185.29   A 19.00 19.00 0.0 0 1 2193.66 166.29   A 19.00 19.00 0.0 0 1 2212.66 185.29   Z   M 2209.27 185.29   A 15.60 15.60 0.0 0 0 2193.67 169.69   A 15.60 15.60 0.0 0 0 2178.07 185.29   A 15.60 15.60 0.0 0 0 2193.67 200.89   A 15.60 15.60 0.0 0 0 2209.27 185.29   Z"/>
<path fill="#174387" d="   M 1161.75 226.75   Q 1183.15 226.75 1187.19 226.74   A 0.33 0.32 -89.9 0 0 1187.51 226.41   Q 1187.49 199.55 1187.51 186.46   Q 1187.52 178.87 1181.79 177.92   C 1178.01 177.30 1175.10 177.15 1171.63 177.29   A 0.60 0.60 0.0 0 1 1171.00 176.69   L 1171.00 169.99   A 0.59 0.59 0.0 0 1 1171.59 169.40   L 1231.16 169.40   A 0.34 0.34 0.0 0 1 1231.50 169.74   L 1231.50 177.10   A 0.22 0.21 -87.6 0 1 1231.27 177.32   Q 1225.86 176.94 1220.75 177.96   Q 1215.04 179.11 1215.04 184.75   Q 1214.97 232.26 1215.02 284.62   Q 1215.02 286.26 1216.29 288.25   C 1218.64 291.98 1227.59 291.48 1231.28 291.79   A 0.25 0.24 -87.5 0 1 1231.50 292.04   L 1231.50 299.16   A 0.24 0.24 0.0 0 1 1231.26 299.40   L 1171.27 299.40   A 0.26 0.25 -0.0 0 1 1171.01 299.15   L 1171.01 291.93   A 0.31 0.31 0.0 0 1 1171.32 291.62   Q 1178.79 291.70 1182.75 290.52   Q 1187.39 289.12 1187.44 283.70   Q 1187.57 266.44 1187.48 236.52   A 0.21 0.21 0.0 0 0 1187.27 236.31   Q 1176.79 236.25 1161.75 236.25   Q 1146.72 236.25 1136.24 236.31   A 0.21 0.21 0.0 0 0 1136.03 236.52   Q 1135.94 266.44 1136.07 283.70   Q 1136.12 289.12 1140.76 290.52   Q 1144.72 291.70 1152.19 291.62   A 0.31 0.31 0.0 0 1 1152.50 291.93   L 1152.50 299.15   A 0.26 0.25 -0.0 0 1 1152.24 299.40   L 1092.25 299.40   A 0.24 0.24 0.0 0 1 1092.01 299.16   L 1092.01 292.04   A 0.25 0.24 87.5 0 1 1092.23 291.79   C 1095.92 291.48 1104.87 291.98 1107.22 288.25   Q 1108.49 286.26 1108.49 284.62   Q 1108.54 232.26 1108.47 184.75   Q 1108.47 179.11 1102.76 177.96   Q 1097.65 176.94 1092.24 177.32   A 0.22 0.21 87.6 0 1 1092.01 177.10   L 1092.01 169.74   A 0.34 0.34 0.0 0 1 1092.35 169.40   L 1151.92 169.40   A 0.59 0.59 0.0 0 1 1152.51 169.99   L 1152.51 176.69   A 0.60 0.60 0.0 0 1 1151.88 177.29   C 1148.41 177.15 1145.50 177.30 1141.72 177.92   Q 1135.99 178.87 1136.00 186.46   Q 1136.02 199.55 1136.00 226.41   A 0.33 0.32 89.9 0 0 1136.32 226.74   Q 1140.35 226.75 1161.75 226.75   Z"/>
<path fill="#174387" d="   M 2197.44 187.03   L 2202.29 195.44   A 0.36 0.36 0.0 0 1 2201.98 195.98   L 2199.34 195.98   A 1.12 1.11 -14.7 0 1 2198.37 195.42   L 2193.44 186.89   A 0.80 0.79 75.0 0 0 2192.75 186.49   L 2190.06 186.49   A 0.55 0.55 0.0 0 0 2189.51 187.04   L 2189.51 195.48   A 0.51 0.51 0.0 0 1 2189.00 195.99   L 2186.76 195.99   A 0.52 0.52 0.0 0 1 2186.24 195.47   L 2186.24 175.41   A 0.61 0.61 0.0 0 1 2186.84 174.80   Q 2195.43 174.64 2197.58 174.90   Q 2202.69 175.53 2202.66 180.43   Q 2202.63 185.63 2197.81 186.27   A 0.51 0.51 0.0 0 0 2197.44 187.03   Z   M 2189.52 178.40   L 2189.46 182.52   A 0.43 0.43 0.0 0 0 2189.88 182.96   L 2196.02 183.06   A 3.33 2.29 0.9 0 0 2199.39 180.82   L 2199.39 180.42   A 3.33 2.29 0.9 0 0 2196.10 178.08   L 2189.96 177.98   A 0.43 0.43 0.0 0 0 2189.52 178.40   Z"/>
<path fill="#174387" d="   M 1836.64 177.70   A 0.27 0.27 0.0 0 1 1837.00 177.96   L 1837.00 210.35   A 0.41 0.41 0.0 0 0 1837.41 210.76   L 1855.07 210.76   A 0.43 0.43 0.0 0 1 1855.50 211.19   L 1855.50 219.33   A 0.43 0.43 0.0 0 1 1855.07 219.76   L 1837.35 219.76   A 0.34 0.33 -0.0 0 0 1837.01 220.09   Q 1836.95 265.65 1837.06 274.96   Q 1837.12 280.04 1838.99 284.76   C 1841.92 292.15 1850.64 292.42 1856.99 290.01   A 0.19 0.19 0.0 0 1 1857.25 290.19   L 1857.25 296.95   A 0.37 0.36 -10.5 0 1 1857.01 297.29   Q 1844.20 301.60 1831.27 300.96   C 1815.98 300.20 1811.74 290.97 1811.74 277.36   Q 1811.76 229.65 1811.75 220.36   A 0.61 0.61 0.0 0 0 1811.14 219.75   L 1799.60 219.75   A 0.36 0.35 0.0 0 1 1799.24 219.40   L 1799.24 211.12   A 0.37 0.37 0.0 0 1 1799.61 210.75   L 1811.20 210.75   A 0.55 0.55 0.0 0 0 1811.75 210.20   L 1811.75 186.42   A 0.75 0.75 0.0 0 1 1812.26 185.71   L 1836.64 177.70   Z"/>
<path fill="#174387" d="   M 94.48 186.49   A 0.49 0.49 0.0 0 1 94.42 185.62   Q 99.28 182.71 104.30 185.52   C 111.10 189.34 111.74 199.33 106.26 204.77   Q 104.14 206.88 101.43 207.29   C 91.49 208.79 86.37 198.22 90.35 190.18   A 0.45 0.45 0.0 0 1 91.18 190.22   Q 91.77 191.78 93.38 192.79   A 1.03 1.02 -43.6 0 0 94.44 192.81   C 97.48 191.08 97.79 187.93 94.48 186.49   Z"/>
<path fill="#174387" d="   M 178.07 186.52   A 0.49 0.49 0.0 0 1 178.01 185.65   Q 182.86 182.77 187.85 185.60   C 194.61 189.43 195.20 199.38 189.71 204.78   Q 187.59 206.87 184.89 207.26   C 174.98 208.71 169.93 198.16 173.94 190.17   A 0.45 0.45 0.0 0 1 174.76 190.22   Q 175.34 191.77 176.94 192.79   A 1.03 1.01 -43.3 0 0 178.00 192.81   C 181.03 191.10 181.36 187.97 178.07 186.52   Z"/>
<path fill="#174387" d="   M 142.57 246.76   Q 142.28 246.76 142.15 246.38   Q 135.77 227.57 124.32 211.68   A 0.70 0.70 0.0 0 1 124.51 210.68   Q 132.89 205.11 142.30 201.47   Q 142.46 201.42 142.80 201.42   Q 143.14 201.42 143.29 201.48   Q 152.67 205.21 160.99 210.86   A 0.70 0.70 0.0 0 1 161.17 211.86   Q 149.57 227.64 143.00 246.39   Q 142.87 246.76 142.57 246.76   Z"/>
<path fill="#174387" d="   M 1297.55 291.19   Q 1295.16 292.72 1293.86 293.58   Q 1280.47 302.46 1265.17 300.84   C 1249.82 299.20 1244.24 287.93 1244.46 273.85   C 1244.67 260.63 1251.83 251.54 1265.56 249.56   C 1275.54 248.13 1286.54 248.49 1296.32 248.51   A 0.69 0.69 0.0 0 0 1297.00 247.95   Q 1297.12 247.31 1297.60 236.09   C 1298.06 225.02 1295.34 215.51 1281.93 217.18   C 1273.57 218.21 1272.25 227.01 1272.47 233.71   Q 1272.54 236.16 1270.35 237.12   A 1.12 1.10 -56.8 0 1 1269.89 237.22   L 1253.98 237.32   A 1.08 1.05 61.2 0 1 1253.39 237.14   C 1250.91 235.46 1251.50 232.66 1251.49 229.49   C 1251.43 214.59 1268.20 209.66 1280.17 209.15   Q 1293.52 208.59 1306.54 211.47   C 1319.93 214.43 1322.45 225.21 1322.49 237.27   Q 1322.58 269.80 1322.34 287.19   Q 1322.29 291.09 1326.86 291.65   Q 1331.46 292.21 1335.03 291.95   A 0.69 0.68 -2.0 0 1 1335.77 292.63   L 1335.77 298.79   A 0.63 0.63 0.0 0 1 1335.14 299.42   L 1298.65 299.42   A 0.66 0.66 0.0 0 1 1297.99 298.76   L 1297.99 291.43   A 0.29 0.28 73.4 0 0 1297.55 291.19   Z   M 1296.43 256.05   Q 1291.52 255.76 1285.03 256.37   Q 1274.28 257.37 1271.95 268.13   C 1270.05 276.88 1271.08 289.56 1283.44 289.35   C 1294.70 289.15 1297.36 280.47 1297.05 270.57   Q 1296.87 264.65 1297.03 256.71   A 0.64 0.64 0.0 0 0 1296.43 256.05   Z"/>
<path fill="#174387" d="   M 1381.10 211.31   L 1381.10 220.47   A 0.29 0.29 0.0 0 0 1381.62 220.64   C 1386.31 214.18 1393.02 209.38 1401.19 209.01   C 1409.26 208.64 1416.83 211.30 1419.57 219.39   C 1420.38 221.76 1421.74 233.06 1418.31 235.35   C 1415.30 237.37 1410.39 237.29 1406.53 236.66   C 1397.91 235.25 1403.57 226.24 1398.08 222.39   Q 1395.94 220.90 1393.00 221.28   C 1384.43 222.40 1382.40 232.65 1382.17 239.93   Q 1382.07 243.06 1382.04 283.90   C 1382.03 291.19 1386.66 291.42 1392.12 291.91   Q 1394.34 292.10 1396.87 291.96   A 0.55 0.55 0.0 0 1 1397.45 292.51   L 1397.45 298.93   A 0.48 0.48 0.0 0 1 1396.97 299.41   L 1343.84 299.41   A 0.27 0.27 0.0 0 1 1343.57 299.14   L 1343.57 292.25   A 0.29 0.29 0.0 0 1 1343.87 291.96   C 1348.84 292.18 1356.60 291.78 1356.63 285.15   Q 1356.79 247.07 1356.67 225.28   C 1356.64 219.25 1352.37 217.96 1347.25 217.77   Q 1345.38 217.70 1344.49 217.79   A 0.84 0.83 -2.8 0 1 1343.57 216.96   L 1343.57 211.36   A 0.71 0.71 0.0 0 1 1344.28 210.65   L 1380.43 210.65   A 0.67 0.66 0.0 0 1 1381.10 211.31   Z"/>
<path fill="#174387" d="   M 1578.49 209.00   C 1588.38 209.01 1597.55 210.15 1606.08 214.89   C 1616.30 220.57 1620.81 232.21 1622.12 243.48   Q 1623.94 259.22 1621.52 272.20   C 1617.19 295.47 1599.18 301.03 1578.36 301.00   C 1557.54 300.97 1539.55 295.37 1535.29 272.08   Q 1532.90 259.09 1534.76 243.36   C 1536.11 232.09 1540.65 220.47 1550.89 214.82   C 1559.43 210.10 1568.60 208.99 1578.49 209.00   Z   M 1561.51 254.97   C 1561.51 267.12 1559.43 293.35 1578.51 293.35   C 1597.59 293.34 1595.50 267.12 1595.50 254.97   C 1595.50 242.81 1597.59 216.59 1578.50 216.59   C 1559.42 216.59 1561.51 242.82 1561.51 254.97   Z"/>
<path fill="#174387" d="   M 1672.00 210.65   A 0.67 0.66 -0.0 0 1 1672.67 211.31   L 1672.68 220.47   A 0.29 0.29 0.0 0 0 1673.20 220.64   C 1677.88 214.18 1684.59 209.38 1692.76 209.00   C 1700.83 208.63 1708.40 211.29 1711.14 219.37   C 1711.95 221.74 1713.32 233.04 1709.89 235.33   C 1706.88 237.35 1701.97 237.28 1698.11 236.65   C 1689.49 235.24 1695.15 226.23 1689.66 222.38   Q 1687.52 220.89 1684.58 221.28   C 1676.01 222.40 1673.98 232.65 1673.76 239.93   Q 1673.66 243.06 1673.64 283.89   C 1673.64 291.18 1678.27 291.41 1683.73 291.90   Q 1685.95 292.09 1688.48 291.95   A 0.55 0.55 0.0 0 1 1689.06 292.50   L 1689.06 298.92   A 0.48 0.48 0.0 0 1 1688.58 299.40   L 1635.46 299.42   A 0.27 0.27 0.0 0 1 1635.19 299.15   L 1635.18 292.26   A 0.29 0.29 0.0 0 1 1635.48 291.97   C 1640.45 292.19 1648.21 291.78 1648.24 285.16   Q 1648.38 247.08 1648.25 225.29   C 1648.22 219.26 1643.95 217.97 1638.83 217.79   Q 1636.96 217.72 1636.07 217.81   A 0.84 0.83 -2.8 0 1 1635.15 216.98   L 1635.15 211.38   A 0.71 0.71 0.0 0 1 1635.86 210.67   L 1672.00 210.65   Z"/>
<path fill="#174387" d="   M 1786.66 236.50   L 1776.01 236.50   A 0.54 0.54 0.0 0 1 1775.47 235.93   Q 1775.62 233.81 1774.88 229.38   C 1773.10 218.62 1764.55 215.10 1754.53 216.98   C 1746.39 218.52 1742.36 225.05 1744.66 232.66   C 1746.28 238.03 1751.90 240.67 1757.07 242.18   C 1763.17 243.96 1771.80 245.84 1778.74 249.50   C 1789.15 254.98 1791.96 264.68 1791.18 275.76   C 1790.04 292.03 1775.18 300.34 1760.25 300.90   Q 1739.99 301.67 1720.68 297.66   A 0.57 0.55 6.6 0 1 1720.24 297.12   L 1720.24 272.13   A 0.63 0.63 0.0 0 1 1720.87 271.50   L 1732.43 271.50   A 0.65 0.64 -3.5 0 1 1733.07 272.06   Q 1733.34 274.29 1733.44 277.03   C 1733.93 290.61 1743.83 295.78 1756.48 293.19   Q 1767.17 290.99 1767.46 279.65   Q 1767.62 273.48 1762.14 270.07   C 1755.99 266.24 1748.75 264.70 1742.02 262.98   C 1730.86 260.13 1721.65 253.51 1720.39 241.26   C 1719.63 233.90 1721.40 225.21 1726.30 219.64   C 1730.90 214.40 1737.98 211.34 1744.72 210.22   Q 1765.35 206.77 1786.40 212.56   A 1.17 1.16 7.9 0 1 1787.25 213.68   L 1787.26 235.90   A 0.60 0.60 0.0 0 1 1786.66 236.50   Z"/>
<path fill="#174387" d="   M 1911.36 301.00   C 1890.54 300.97 1872.54 295.36 1868.28 272.08   Q 1865.89 259.09 1867.76 243.36   C 1869.10 232.09 1873.64 220.47 1883.88 214.82   C 1892.42 210.10 1901.59 208.99 1911.48 209.00   C 1921.38 209.01 1930.54 210.15 1939.07 214.89   C 1949.29 220.57 1953.80 232.21 1955.11 243.48   Q 1956.93 259.22 1954.51 272.20   C 1950.18 295.47 1932.17 301.03 1911.36 301.00   Z   M 1894.50 254.95   C 1894.49 267.11 1892.38 293.33 1911.47 293.35   C 1930.55 293.37 1928.49 267.14 1928.50 254.99   C 1928.51 242.83 1930.62 216.61 1911.54 216.59   C 1892.45 216.57 1894.52 242.80 1894.50 254.95   Z"/>
<path fill="#174387" d="   M 2005.00 221.22   A 0.29 0.29 0.0 0 0 2005.47 221.45   C 2010.19 217.94 2015.24 214.03 2020.32 211.84   C 2029.16 208.02 2042.23 207.74 2050.65 212.05   C 2059.87 216.76 2061.78 227.67 2061.77 237.41   Q 2061.72 280.13 2061.79 285.00   Q 2061.88 290.31 2067.15 291.33   Q 2070.96 292.07 2074.75 292.00   A 0.24 0.24 0.0 0 1 2075.00 292.24   L 2075.00 299.08   A 0.33 0.33 0.0 0 1 2074.67 299.41   L 2025.79 299.41   A 0.30 0.29 -90.0 0 1 2025.50 299.11   L 2025.50 292.23   A 0.26 0.26 0.0 0 1 2025.78 291.97   C 2038.97 292.56 2036.25 283.88 2036.24 274.88   Q 2036.24 257.63 2036.25 237.25   C 2036.25 233.80 2035.15 229.69 2032.85 226.73   C 2029.07 221.86 2020.63 221.76 2015.34 223.83   C 2007.60 226.85 2005.94 236.52 2005.97 243.70   Q 2006.11 276.65 2005.79 282.99   C 2005.57 287.26 2007.19 290.81 2011.68 291.58   Q 2014.59 292.07 2015.50 291.97   A 1.15 1.15 0.0 0 1 2016.78 293.11   L 2016.78 298.39   A 1.02 1.01 -0.0 0 1 2015.76 299.40   L 1967.69 299.40   A 0.45 0.45 0.0 0 1 1967.24 298.95   L 1967.24 292.46   A 0.53 0.53 0.0 0 1 1967.79 291.93   Q 1980.47 292.51 1980.48 285.27   Q 1980.55 229.79 1980.45 224.53   C 1980.32 218.27 1972.81 218.00 1967.78 218.01   A 0.55 0.55 0.0 0 1 1967.23 217.46   L 1967.23 211.25   A 0.62 0.61 -0.0 0 1 1967.85 210.64   L 2004.46 210.64   A 0.55 0.55 0.0 0 1 2005.01 211.19   L 2005.00 221.22   Z"/>
<path fill="#174387" d="   M 2112.57 257.87   Q 2112.18 268.13 2113.13 275.92   C 2113.98 282.88 2117.31 291.03 2124.72 292.56   C 2132.47 294.15 2140.13 292.63 2143.54 284.56   Q 2145.75 279.34 2146.30 274.78   A 2.31 2.30 3.5 0 1 2148.59 272.76   L 2160.75 272.76   A 2.27 2.26 0.7 0 1 2163.02 275.08   Q 2162.59 293.21 2145.59 298.63   Q 2139.95 300.42 2135.51 300.77   Q 2123.05 301.74 2111.73 299.55   C 2091.80 295.69 2086.23 280.90 2085.16 262.76   Q 2084.35 248.79 2086.33 236.62   C 2088.43 223.69 2096.43 213.84 2109.05 210.95   Q 2124.40 207.42 2140.53 210.01   C 2154.88 212.30 2162.76 221.15 2164.90 235.29   Q 2166.52 245.97 2165.75 256.69   A 0.60 0.60 0.0 0 1 2165.15 257.25   L 2113.21 257.25   A 0.65 0.64 -88.6 0 0 2112.57 257.87   Z   M 2112.93 248.11   L 2139.89 248.39   A 0.20 0.20 0.0 0 0 2140.10 248.19   L 2140.26 232.89   A 16.20 12.07 -89.4 0 0 2128.36 216.57   L 2125.14 216.53   A 16.20 12.07 -89.4 0 0 2112.90 232.61   L 2112.74 247.91   A 0.20 0.20 0.0 0 0 2112.93 248.11   Z"/>
<path fill="#72a8c3" d="   M 475.85 312.45   A 0.27 0.27 0.0 0 0 476.32 312.32   L 480.58 290.89   A 2.22 2.21 5.7 0 1 482.75 289.12   L 486.72 289.12   A 1.44 1.42 5.7 0 1 488.13 290.83   L 476.54 349.09   A 2.38 2.37 5.6 0 1 474.21 351.00   L 471.11 351.00   A 1.49 1.49 0.0 0 1 469.65 349.22   L 470.65 344.19   A 0.19 0.19 0.0 0 0 470.31 344.03   Q 464.08 351.76 454.83 351.56   C 447.70 351.41 444.15 345.70 443.83 339.23   C 443.20 326.63 449.55 307.05 465.27 307.52   Q 471.58 307.71 475.85 312.45   Z   M 474.28 319.67   C 469.56 313.07 461.75 311.93 456.89 318.88   Q 452.65 324.97 451.82 333.63   C 451.27 339.29 452.26 346.87 459.99 344.76   C 466.93 342.87 471.56 334.73 473.06 328.17   Q 473.77 325.01 474.54 320.77   A 1.50 1.49 32.2 0 0 474.28 319.67   Z"/>
<path fill="#72a8c3" d="   M 525.13 314.31   Q 529.26 309.82 534.17 308.29   C 540.69 306.27 547.51 308.30 549.70 315.33   Q 550.73 318.64 550.72 321.75   C 550.71 334.76 543.81 353.23 527.24 351.46   Q 521.49 350.84 517.94 346.30   A 0.23 0.23 0.0 0 0 517.54 346.40   L 516.99 349.19   A 2.22 2.22 0.0 0 1 514.81 350.97   L 511.58 350.97   A 1.45 1.44 5.6 0 1 510.16 349.25   L 521.82 290.68   A 2.12 2.11 5.6 0 1 523.90 288.98   L 527.96 288.98   A 1.46 1.45 5.7 0 1 529.39 290.72   L 524.73 314.11   A 0.23 0.23 0.0 0 0 525.13 314.31   Z   M 520.14 339.59   C 524.84 346.19 532.64 347.34 537.51 340.41   Q 541.76 334.34 542.61 325.69   C 543.17 320.04 542.20 312.47 534.47 314.56   C 527.54 316.43 522.89 324.55 521.38 331.10   Q 520.66 334.25 519.89 338.49   A 1.49 1.49 0.0 0 0 520.14 339.59   Z"/>
<path fill="#72a8c3" d="   M 182.16 329.75   L 178.34 348.97   A 2.48 2.48 0.0 0 1 175.91 350.96   L 172.08 350.96   A 1.73 1.72 -83.6 0 1 170.40 348.85   Q 171.33 344.73 181.03 295.87   Q 181.49 293.56 184.83 293.40   Q 191.35 293.09 198.76 293.29   C 207.62 293.53 214.83 298.19 213.94 308.00   C 212.69 321.65 203.03 329.51 189.33 329.03   Q 185.66 328.90 182.92 329.09   A 0.83 0.83 0.0 0 0 182.16 329.75   Z   M 184.35 322.44   Q 191.57 322.63 192.74 322.45   Q 203.32 320.87 205.33 310.57   C 207.71 298.40 196.47 299.72 188.73 299.76   A 0.69 0.69 0.0 0 0 188.05 300.32   L 183.79 321.73   A 0.59 0.59 0.0 0 0 184.35 322.44   Z"/>
<path fill="#72a8c3" d="   M 252.64 336.14   C 248.07 347.60 239.17 352.84 226.79 351.22   C 212.65 349.38 213.60 332.95 217.56 323.02   C 222.13 311.55 231.03 306.32 243.41 307.93   C 257.55 309.78 256.60 326.21 252.64 336.14   Z   M 224.63 325.87   C 222.30 332.72 220.63 344.81 231.30 345.24   C 238.73 345.54 243.28 339.92 245.53 333.33   C 247.86 326.48 249.53 314.39 238.85 313.95   C 231.43 313.65 226.87 319.28 224.63 325.87   Z"/>
<path fill="#72a8c3" d="   M 334.95 331.25   A 0.81 0.80 -84.8 0 0 334.16 331.92   Q 333.15 337.92 334.60 341.11   C 337.77 348.03 349.72 345.32 354.95 343.01   A 1.50 1.50 0.0 0 1 357.03 344.67   L 356.68 346.41   A 4.46 4.46 0.0 0 1 353.50 349.84   Q 343.75 352.59 336.31 351.06   C 320.89 347.88 325.55 327.29 331.21 318.08   C 335.96 310.38 344.38 306.43 353.25 307.79   Q 357.72 308.49 360.51 310.86   C 364.49 314.25 364.77 320.49 361.60 324.46   C 356.05 331.44 343.05 331.33 334.95 331.25   Z   M 336.35 325.77   C 341.92 325.77 357.82 326.08 355.71 316.98   C 355.15 314.61 351.57 313.48 349.48 313.54   Q 342.06 313.74 338.16 320.19   Q 335.92 323.89 335.83 325.21   A 0.52 0.52 0.0 0 0 336.35 325.77   Z"/>
<path fill="#72a8c3" d="   M 382.77 315.00   C 386.44 309.54 391.37 306.49 397.97 308.11   A 1.81 1.80 -85.0 0 1 399.35 309.76   Q 399.55 312.85 397.77 315.52   A 0.86 0.85 30.4 0 1 396.67 315.80   Q 392.42 313.59 388.97 316.33   Q 382.14 321.77 380.21 330.40   Q 377.60 342.07 376.50 348.76   A 2.67 2.67 0.0 0 1 373.87 350.99   L 370.49 350.99   A 1.72 1.72 0.0 0 1 368.80 348.93   L 376.54 310.03   A 2.20 2.20 0.0 0 1 378.70 308.26   L 381.82 308.26   A 1.52 1.52 0.0 0 1 383.30 310.13   Q 382.27 314.51 382.32 314.89   A 0.25 0.25 0.0 0 0 382.77 315.00   Z"/>
<path fill="#72a8c3" d="   M 408.50 331.91   Q 407.49 337.91 408.95 341.10   C 412.12 348.02 424.07 345.31 429.30 342.99   A 1.50 1.50 0.0 0 1 431.38 344.65   L 431.03 346.39   A 4.46 4.46 0.0 0 1 427.85 349.83   Q 418.10 352.58 410.66 351.05   C 395.24 347.88 399.89 327.28 405.55 318.07   C 410.29 310.37 418.71 306.41 427.59 307.77   Q 432.06 308.46 434.85 310.83   C 438.83 314.22 439.11 320.46 435.95 324.44   C 430.40 331.42 417.39 331.32 409.29 331.24   A 0.81 0.80 -84.8 0 0 408.50 331.91   Z   M 410.69 325.75   C 416.26 325.75 432.13 326.07 430.03 316.99   C 429.47 314.62 425.90 313.49 423.81 313.55   Q 416.40 313.74 412.50 320.18   Q 410.27 323.87 410.18 325.19   A 0.52 0.52 0.0 0 0 410.69 325.75   Z"/>
<path fill="#72a8c3" d="   M 275.21 341.62   Q 285.67 318.69 289.93 309.51   C 290.78 307.68 295.27 308.04 296.82 308.69   A 0.70 0.70 0.0 0 1 297.25 309.27   L 300.83 341.54   A 0.20 0.20 0.0 0 0 301.20 341.62   Q 309.97 326.63 315.16 310.26   A 2.93 2.93 0.0 0 1 317.95 308.22   L 321.63 308.22   A 1.62 1.62 0.0 0 1 323.17 310.34   Q 316.30 331.50 303.90 349.27   A 3.67 3.62 -78.1 0 1 301.63 350.77   Q 299.28 351.26 295.89 350.83   A 1.48 1.48 0.0 0 1 294.61 349.53   L 291.51 321.49   A 0.16 0.16 0.0 0 0 291.21 321.44   L 278.43 349.09   A 2.99 2.98 -81.7 0 1 276.14 350.80   Q 272.36 351.35 269.42 350.60   A 1.37 1.36 4.0 0 1 268.39 349.42   L 264.06 310.33   A 1.88 1.87 86.8 0 1 265.92 308.24   L 269.62 308.24   A 1.91 1.91 0.0 0 1 271.52 309.94   L 275.02 341.59   A 0.10 0.10 0.0 0 0 275.21 341.62   Z"/>
<path fill="#72a8c3" d="   M 572.20 341.54   Q 581.51 327.50 586.69 310.49   A 3.22 3.22 0.0 0 1 589.77 308.20   L 593.00 308.20   A 1.86 1.85 -80.8 0 1 594.76 310.64   Q 590.39 323.85 583.34 336.52   C 578.13 345.86 569.05 357.39 563.27 365.23   A 3.37 3.37 0.0 0 1 561.02 366.58   Q 557.93 367.00 555.41 366.58   Q 554.90 366.50 554.77 366.32   Q 554.13 365.46 554.77 364.63   Q 563.37 353.61 565.43 350.93   A 1.15 1.13 60.1 0 0 565.66 350.04   L 558.90 310.07   A 1.52 1.51 85.3 0 1 560.39 308.30   L 565.16 308.30   A 1.32 1.31 85.0 0 1 566.45 309.39   L 571.87 341.47   A 0.18 0.18 0.0 0 0 572.20 341.54   Z"/>
<path fill="#174387" d="   M 1403.96 376.73   Q 1401.30 364.95 1390.04 362.26   C 1375.24 358.74 1363.44 366.53 1359.98 381.01   Q 1358.25 388.26 1359.17 397.30   C 1360.70 412.24 1368.16 422.43 1384.50 421.97   C 1395.83 421.65 1402.68 412.29 1404.63 402.05   A 0.68 0.68 0.0 0 1 1405.30 401.50   L 1414.41 401.50   A 0.43 0.43 0.0 0 1 1414.84 402.00   C 1412.40 416.99 1404.36 427.46 1389.25 430.52   Q 1379.65 432.46 1370.60 429.46   C 1358.23 425.34 1351.05 414.66 1349.06 401.96   C 1347.25 390.38 1348.10 378.00 1353.58 368.51   C 1361.21 355.30 1374.94 350.47 1390.03 352.71   C 1402.88 354.62 1412.27 363.58 1414.13 376.72   A 0.24 0.24 0.0 0 1 1413.89 376.99   L 1404.29 376.99   A 0.34 0.34 0.0 0 1 1403.96 376.73   Z"/>
<path fill="#174387" d="   M 1552.28 422.87   Q 1552.08 423.12 1550.75 424.79   Q 1546.15 430.56 1537.99 430.80   C 1526.02 431.16 1518.16 424.29 1514.88 413.00   C 1510.14 396.70 1514.27 373.21 1535.82 372.94   C 1542.76 372.85 1548.07 375.89 1551.85 381.55   A 0.21 0.21 0.0 0 0 1552.24 381.43   L 1552.24 354.59   A 0.34 0.34 0.0 0 1 1552.58 354.25   L 1561.49 354.25   A 0.27 0.27 0.0 0 1 1561.76 354.52   L 1561.76 427.88   A 1.40 1.39 -0.0 0 1 1560.36 429.27   L 1553.80 429.27   A 1.05 1.04 90.0 0 1 1552.76 428.22   L 1552.76 423.04   A 0.27 0.27 0.0 0 0 1552.28 422.87   Z   M 1522.83 402.38   C 1523.11 411.85 1526.23 422.84 1538.08 422.49   C 1549.92 422.13 1552.38 410.97 1552.09 401.50   C 1551.81 392.03 1548.69 381.04 1536.84 381.39   C 1525.00 381.75 1522.54 392.91 1522.83 402.38   Z"/>
<path fill="#174387" d="   M 1583.9915 364.3583   A 0.41 0.41 0.0 0 1 1583.5808 364.7676   L 1574.9008 364.7524   A 0.41 0.41 0.0 0 1 1574.4915 364.3417   L 1574.5085 354.6417   A 0.41 0.41 0.0 0 1 1574.9192 354.2324   L 1583.5992 354.2476   A 0.41 0.41 0.0 0 1 1584.0085 354.6583   L 1583.9915 364.3583   Z"/>
<path fill="#174387" d="   M 1686.37 422.00   C 1698.49 422.03 1705.35 414.40 1705.58 402.74   Q 1705.76 393.62 1705.75 354.98   A 0.69 0.68 90.0 0 1 1706.43 354.29   L 1715.54 354.29   A 0.49 0.49 0.0 0 1 1716.03 354.79   Q 1715.94 364.94 1715.98 399.69   Q 1715.99 409.23 1714.51 413.52   C 1710.26 425.85 1699.34 431.28 1686.35 431.25   C 1673.36 431.22 1662.47 425.74 1658.28 413.39   Q 1656.81 409.09 1656.87 399.55   Q 1657.07 364.80 1657.02 354.65   A 0.49 0.49 0.0 0 1 1657.52 354.16   L 1666.63 354.20   A 0.69 0.68 -89.7 0 1 1667.30 354.89   Q 1667.12 393.53 1667.25 402.65   C 1667.42 414.31 1674.25 421.97 1686.37 422.00   Z"/>
<path fill="#174387" d="   M 1796.2415 364.3883   A 0.38 0.38 0.0 0 1 1795.8608 364.7676   L 1787.1208 364.7524   A 0.38 0.38 0.0 0 1 1786.7415 364.3717   L 1786.7585 354.6117   A 0.38 0.38 0.0 0 1 1787.1392 354.2324   L 1795.8792 354.2476   A 0.38 0.38 0.0 0 1 1796.2585 354.6283   L 1796.2415 364.3883   Z"/>
<path fill="#174387" d="   M 1616.27 421.66   A 1.33 1.33 0.0 0 1 1617.80 422.98   L 1617.80 427.96   A 1.52 1.52 0.0 0 1 1616.36 429.48   Q 1615.49 429.53 1611.95 429.85   Q 1599.77 430.95 1599.54 418.77   Q 1599.51 417.30 1599.49 382.87   A 0.63 0.62 -90.0 0 0 1598.87 382.24   L 1592.52 382.24   A 0.28 0.27 0.0 0 1 1592.24 381.97   L 1592.24 374.79   A 0.29 0.29 0.0 0 1 1592.53 374.50   L 1598.89 374.50   A 0.61 0.61 0.0 0 0 1599.50 373.89   L 1599.50 359.69   A 0.45 0.45 0.0 0 1 1599.95 359.24   L 1608.55 359.24   A 0.45 0.45 0.0 0 1 1609.00 359.69   L 1609.00 373.93   A 0.57 0.57 0.0 0 0 1609.57 374.50   L 1617.41 374.50   A 0.35 0.35 0.0 0 1 1617.76 374.85   L 1617.76 381.90   A 0.34 0.34 0.0 0 1 1617.42 382.24   L 1609.65 382.24   A 0.65 0.65 0.0 0 0 1609.00 382.89   Q 1609.00 415.66 1609.00 417.48   C 1609.02 421.79 1612.99 422.15 1616.27 421.66   Z"/>
<path fill="#174387" d="   M 1434.11 382.59   C 1437.89 376.23 1443.55 372.25 1451.12 373.06   A 0.72 0.72 0.0 0 1 1451.76 373.78   L 1451.76 382.47   A 0.55 0.55 0.0 0 1 1451.16 383.02   Q 1439.64 382.08 1435.50 391.21   Q 1434.07 394.38 1434.21 400.48   Q 1434.31 405.18 1434.23 428.95   A 0.30 0.30 0.0 0 1 1433.93 429.25   L 1425.05 429.25   A 0.30 0.30 0.0 0 1 1424.75 428.95   L 1424.75 374.79   A 0.29 0.29 0.0 0 1 1425.04 374.50   L 1433.46 374.50   A 0.28 0.28 0.0 0 1 1433.74 374.78   L 1433.74 382.49   A 0.20 0.20 0.0 0 0 1434.11 382.59   Z"/>
<path fill="#174387" d="   M 1504.80 412.27   C 1502.62 422.60 1494.68 429.94 1483.99 430.71   C 1465.79 432.02 1456.09 420.89 1455.66 404.08   C 1455.24 387.31 1463.46 372.71 1482.05 372.94   C 1499.99 373.17 1506.08 389.36 1505.45 404.65   A 0.37 0.37 0.0 0 1 1505.08 405.00   L 1466.36 405.00   A 0.61 0.60 1.0 0 0 1465.75 405.58   C 1465.55 412.56 1468.62 419.72 1475.90 421.81   C 1484.19 424.20 1493.05 420.89 1495.38 412.28   A 0.38 0.37 -81.7 0 1 1495.74 412.01   L 1504.59 412.01   A 0.21 0.21 0.0 0 1 1504.80 412.27   Z   M 1466.22 397.54   L 1495.56 397.44   A 0.26 0.26 0.0 0 0 1495.82 397.18   L 1495.82 396.73   A 15.39 14.93 89.8 0 0 1480.83 381.39   A 15.39 14.93 89.8 0 0 1465.96 396.83   L 1465.96 397.28   A 0.26 0.26 0.0 0 0 1466.22 397.54   Z"/>
<path fill="#174387" d="   M 1737.50 381.38   A 0.29 0.29 0.0 0 0 1738.03 381.55   Q 1744.99 371.72 1757.19 373.11   Q 1772.93 374.90 1773.25 391.26   Q 1773.26 392.00 1773.25 428.88   A 0.37 0.37 0.0 0 1 1772.88 429.25   L 1764.11 429.25   A 0.35 0.35 0.0 0 1 1763.76 428.90   Q 1763.71 405.90 1763.79 397.33   C 1763.86 389.10 1762.98 381.92 1753.81 381.47   C 1741.93 380.89 1737.83 390.68 1737.99 400.75   Q 1738.01 402.16 1737.99 428.96   A 0.29 0.29 0.0 0 1 1737.70 429.25   L 1729.04 429.25   A 0.30 0.29 -0.0 0 1 1728.74 428.96   L 1728.74 375.85   A 1.36 1.36 0.0 0 1 1730.10 374.49   L 1736.53 374.49   A 0.97 0.96 0.0 0 1 1737.50 375.45   L 1737.50 381.38   Z"/>
<path fill="#174387" d="   M 1832.07 372.93   C 1848.65 372.94 1857.58 386.49 1857.57 401.83   C 1857.56 417.16 1848.62 430.70 1832.04 430.70   C 1815.47 430.69 1806.54 417.13 1806.55 401.80   C 1806.56 386.46 1815.50 372.92 1832.07 372.93   Z   M 1816.30 401.81   C 1816.30 411.38 1820.66 422.57 1832.06 422.57   C 1843.46 422.57 1847.81 411.37 1847.81 401.80   C 1847.81 392.23 1843.45 381.03 1832.05 381.04   C 1820.65 381.04 1816.30 392.24 1816.30 401.81   Z"/>
<path fill="#174387" d="   M 1875.51 381.37   A 0.29 0.29 0.0 0 0 1876.04 381.54   Q 1883.00 371.72 1895.20 373.11   Q 1910.94 374.90 1911.26 391.26   Q 1911.27 392.00 1911.25 428.88   A 0.37 0.37 0.0 0 1 1910.88 429.25   L 1902.11 429.25   A 0.35 0.35 0.0 0 1 1901.76 428.90   Q 1901.72 405.90 1901.80 397.33   C 1901.87 389.10 1900.99 381.92 1891.82 381.47   C 1879.94 380.89 1875.84 390.68 1876.00 400.75   Q 1876.02 402.16 1875.99 428.96   A 0.29 0.29 0.0 0 1 1875.70 429.25   L 1867.04 429.24   A 0.30 0.29 0.0 0 1 1866.74 428.95   L 1866.75 375.84   A 1.36 1.36 0.0 0 1 1868.11 374.48   L 1874.54 374.48   A 0.97 0.96 0.0 0 1 1875.51 375.44   L 1875.51 381.37   Z"/>
<path fill="#174387" d="   M 1584.00 428.90   A 0.35 0.35 0.0 0 1 1583.65 429.25   L 1574.87 429.25   A 0.35 0.35 0.0 0 1 1574.52 428.90   L 1574.52 374.84   A 0.35 0.35 0.0 0 1 1574.87 374.49   L 1583.65 374.49   A 0.35 0.35 0.0 0 1 1584.00 374.84   L 1584.00 428.90   Z"/>
<path fill="#174387" d="   M 1796.25 428.88   A 0.37 0.37 0.0 0 1 1795.88 429.25   L 1787.12 429.25   A 0.37 0.37 0.0 0 1 1786.75 428.88   L 1786.75 374.86   A 0.37 0.37 0.0 0 1 1787.12 374.49   L 1795.88 374.49   A 0.37 0.37 0.0 0 1 1796.25 374.86   L 1796.25 428.88   Z"/>
</svg>