<svg xmlns:xlink="http://www.w3.org/1999/xlink" xmlns="http://www.w3.org/2000/svg" id="Layer_1" width="340.7" height="96.7" version="1.1" viewBox="0 0 340.7 96.7">
  <!-- Generator: Adobe Illustrator 29.8.2, SVG Export Plug-In . SVG Version: 2.1.1 Build 3)  -->
  <defs>
    <style>
      .st0 {
        fill: none;
      }

      .st1 {
        fill: #23272a;
      }

      .st2 {
        fill: #fff;
      }

      .st3 {
        fill: #386330;
      }
    </style>
  </defs>
  <g id="Logo">
    <g>
      <path class="st1" d="M6.7,16.9c2.9-5.8,11.8-6.9,16.2-2.4,2.7,2.8,2.8,6.9,2.9,10.6,0,.3-.2.6-.6.6-1.9.2-3.9.4-5.8.6-.4,0-.7-.2-.7-.6,0-1.9,0-3.8-.7-5.6-.7-1.9-3.8-2.2-4.8-.4-1.3,2.8-1,6.3.6,8.9,4.1,7.2,10.3,13.3,12,21.6,1.1,4.6.5,10.6-3.9,13.2-4.7,2.6-11.7,2.1-14.9-2.7-2.3-3.1-2.1-7.2-2.1-11,0-.3.3-.6.6-.6,2,0,3.9-.2,5.9-.2.3,0,.7.3.7.6,0,2.3,0,4.6.6,6.8.7,2.4,4.6,2.7,5.6.3,1.3-2.9.7-6.3-.8-9-3.2-5.8-7.6-10.9-10.5-16.9-2.1-4.2-2.6-9.6-.5-13.9"/>
      <path class="st1" d="M137.7,12.5h16.1c.4,0,.7.3.6.7l-.7,5.5c0,.3-.3.5-.6.5h-8.2c-.4,0-.6.3-.6.6v13.2c0,.3.3.6.6.6h5.8c.4,0,.7.3.6.7l-.7,5.5c0,.3-.3.6-.6.6h-5.1c-.4,0-.6.3-.6.6v15.7c0,.3.3.6.6.6h7.8c.4,0,.7.3.6.7l-.7,5.5c0,.3-.3.6-.6.6h-14.3c-.4,0-.6-.3-.6-.6V13.1c0-.3.3-.6.6-.6"/>
      <path class="st1" d="M70.7,12.5h18.8c.3,0,.6.3.6.6v5.5c0,.3-.3.6-.6.6h-5.1c-.3,0-.6.3-.6.6v43.7c0,.3-.3.6-.6.6h-6c-.3,0-.6-.3-.6-.6V19.9c0-.3-.3-.6-.6-.6h-5.2c-.3,0-.6-.3-.6-.6v-5.5c0-.3.3-.6.6-.6"/>
      <path class="st1" d="M94,12.5h18.8c.4,0,.6.3.6.6v5.5c0,.3-.3.6-.6.6h-5.1c-.4,0-.6.3-.6.6v43.7c0,.3-.3.6-.6.6h-6c-.3,0-.6-.3-.6-.6V19.9c0-.3-.3-.6-.6-.6h-5.2c-.3,0-.6-.3-.6-.6v-5.5c0-.3.3-.6.6-.6"/>
      <path class="st1" d="M118,12.5h5.9c.4,0,.6.3.6.6v43.7c0,.3.3.6.6.6h7.4c.4,0,.6.3.6.6v5.5c0,.3-.3.6-.6.6h-14.6c-.4,0-.6-.3-.6-.6V13.1c0-.3.3-.6.6-.6"/>
      <path class="st1" d="M65.5,12.5h-8.2c-.3,0-.6.2-.6.5l-6.9,50.5c0,.4.2.7.6.7h5.7c.3,0,.6-.2.6-.6l.9-8.4.3-.5,5.4-3.6c.4-.3.9,0,1,.5l1.4,12c0,.3.3.6.6.6h5.8c.4,0,.7-.3.6-.7l-6.6-50.5c0-.3-.3-.5-.6-.5M58.8,44.9l1.8-17.1c0-.8,1.2-.8,1.2,0l1.6,14.9-.3.6-3.4,2.2c-.4.3-1,0-1-.6"/>
      <path class="st1" d="M30.9,12.5h16.1c.4,0,.7.3.6.7l-.7,5.5c0,.3-.3.5-.6.5h-8.2c-.3,0-.6.3-.6.6v13.2c0,.3.3.6.6.6h5.8c.4,0,.7.3.6.7l-.7,5.5c0,.3-.3.6-.6.6h-5.1c-.3,0-.6.3-.6.6v15.7c0,.3.3.6.6.6h7.8c.4,0,.7.3.6.7l-.7,5.5c0,.3-.3.6-.6.6h-14.3c-.3,0-.6-.3-.6-.6V13.1c0-.3.3-.6.6-.6"/>
      <path class="st1" d="M7.5,77.5h-.3c-.6-.6-1.5-1.1-2.3-1.1-2.3,0-2.6,2.2-2.6,2.9s.3,2.9,2.6,2.9,1.7-.4,2.4-1h.3s1,1.2,1,1.2v.4c-1,1-2.2,1.6-3.7,1.6-3.7,0-4.9-2.9-4.9-5s1.1-5,4.9-5,2.8.7,3.8,1.8v.4l-1.2,1.1h0Z"/>
      <path class="st1" d="M21.2,80.5l1.6,3.4v.2h-2.1l-.4-.2-1.4-3.1h-1v3l-.2.2h-1.7l-.2-.2v-9.3l.2-.2h3.5c2.7,0,3.5,1.9,3.5,3.2s-.8,2.4-1.8,2.9M20.8,77.6c0-.4-.2-1.2-1.2-1.2h-1.6v2.3h1.7c1,0,1.2-.8,1.2-1.2"/>
      <polygon class="st1" points="32.5 80.4 32.5 82.1 36.8 82.1 37.1 82.4 37.1 83.9 36.8 84.2 30.6 84.2 30.3 83.9 30.3 74.7 30.6 74.4 36.8 74.4 37.1 74.7 37.1 76.2 36.8 76.5 32.5 76.5 32.5 78.3 35.8 78.3 36.1 78.6 36.1 80.2 35.8 80.4 32.5 80.4"/>
      <path class="st1" d="M45.1,84.2l-.2-.2v-9.3l.2-.2h3.3c3.7,0,4.9,2.8,4.9,4.9s-1.1,4.9-4.9,4.9h-3.3ZM48.3,82.1c2.3,0,2.6-2.1,2.6-2.8s-.3-2.8-2.6-2.8h-1.3v5.6h1.3Z"/>
      <polygon class="st1" points="60.8 74.4 60.5 74.7 60.5 83.9 60.8 84.2 62.5 84.2 62.8 83.9 62.8 74.7 62.5 74.4 60.8 74.4"/>
      <polygon class="st1" points="72.2 76.5 69.9 76.5 69.7 76.2 69.7 74.6 69.9 74.4 76.8 74.4 77.1 74.6 77.1 76.2 76.8 76.5 74.5 76.5 74.5 83.9 74.2 84.2 72.5 84.2 72.2 83.9 72.2 76.5"/>
      <path class="st1" d="M99.1,80.3v-5.7l.2-.2h1.8l.2.2v5.7c0,1.7-1,3.9-3.9,3.9s-3.9-2.3-3.9-3.9v-5.7l.2-.2h1.7l.2.2v5.7c0,.5.3,1.9,1.7,1.9s1.7-1.4,1.7-1.9"/>
      <polygon class="st1" points="109.4 84.2 109.2 83.9 109.2 74.5 109.3 74.3 109.7 74.4 115 79.4 115 74.7 115.3 74.4 117 74.4 117.3 74.7 117.3 84.1 117.1 84.3 116.8 84.1 111.4 79.1 111.4 83.9 111.2 84.2 109.4 84.2"/>
      <polygon class="st1" points="125.4 74.4 125.2 74.7 125.2 83.9 125.4 84.2 127.2 84.2 127.4 83.9 127.4 74.7 127.2 74.4 125.4 74.4"/>
      <path class="st1" d="M144.5,79.3c0,2.1-1.1,5.1-4.9,5.1s-4.9-3-4.9-5.1,1.1-5.1,4.9-5.1,4.9,3,4.9,5.1M142.2,79.3c0-.7-.3-2.9-2.6-2.9s-2.6,2.2-2.6,2.9.3,3,2.6,3,2.6-2.2,2.6-3"/>
      <polygon class="st1" points="151.7 84.2 151.5 83.9 151.5 74.5 151.7 74.3 152.1 74.4 157.4 79.4 157.4 74.7 157.6 74.4 159.4 74.4 159.6 74.7 159.6 84.1 159.4 84.3 159.1 84.1 153.7 79.1 153.7 83.9 153.5 84.2 151.7 84.2"/>
      <rect class="st3" x="181" width="159.7" height="96.7"/>
      <g>
        <g>
          <path class="st2" d="M202,12.5h7.1c2.4,0,4.2.6,5.3,1.7s1.7,2.9,1.7,5.2v1.2c0,1.5-.2,2.8-.8,3.8-.5,1-1.3,1.7-2.3,2.1h0c2.4.9,3.5,3,3.5,6.4v2.6c0,2.3-.6,4.1-1.8,5.3-1.2,1.2-3,1.8-5.4,1.8h-7.4V12.5h0ZM208.6,24.8c.9,0,1.7-.2,2.1-.7.5-.5.7-1.3.7-2.5v-1.7c0-1.1-.2-1.9-.6-2.4-.4-.5-1-.7-1.8-.7h-2.3v8h1.9,0ZM209.5,38.3c.8,0,1.4-.2,1.9-.7.4-.4.6-1.2.6-2.3v-2.6c0-1.4-.2-2.3-.7-2.9-.5-.5-1.2-.8-2.3-.8h-2.1v9.2h2.7,0Z"/>
          <path class="st2" d="M224.2,12.5h6.4l4.9,30.1h-4.7l-.9-6h0c0,0-5.4,0-5.4,0l-.9,5.9h-4.4l4.9-30.1h0ZM229.3,32.6l-2.1-14.9h0l-2.1,14.9h4.3Z"/>
          <path class="st2" d="M238.8,12.5h5.9l4.6,18h0V12.5h4.2v30.1h-4.9l-5.7-22h0v22h-4.2V12.5h0Z"/>
          <path class="st2" d="M258.2,12.5h4.7v12.7l6-12.7h4.7l-5.6,11,5.7,19h-5l-4-13.4-1.9,3.8v9.6h-4.7V12.5h0Z"/>
          <path class="st2" d="M277.1,12.5h4.7v30.1h-4.7V12.5Z"/>
          <path class="st2" d="M286.5,12.5h5.9l4.6,18h0V12.5h4.2v30.1h-4.9l-5.7-22h0v22h-4.2V12.5h0Z"/>
          <path class="st2" d="M307.4,41.1c-1.2-1.3-1.8-3.2-1.8-5.6v-15.8c0-2.4.6-4.3,1.8-5.6,1.2-1.3,3-2,5.2-2s4,.7,5.2,2c1.2,1.3,1.8,3.2,1.8,5.6v2.6h-4.5v-2.9c0-2-.8-3-2.5-3s-2.5,1-2.5,3v16.5c0,2,.8,2.9,2.5,2.9s2.5-1,2.5-2.9v-5.9h-2.4v-4.3h6.8v9.9c0,2.4-.6,4.3-1.8,5.6s-3,2-5.2,2-4-.7-5.2-2h0Z"/>
        </g>
        <g>
          <path class="st2" d="M202,53.9h12.5v4.3h-7.8v8.4h6.1v4.3h-6.1v13.1h-4.7v-30.1Z"/>
          <path class="st2" d="M219.4,82.5c-1.2-1.3-1.9-3.2-1.9-5.6v-15.8c0-2.4.6-4.3,1.9-5.6s3-2,5.3-2,4.1.7,5.3,2c1.2,1.3,1.9,3.2,1.9,5.6v15.8c0,2.4-.6,4.3-1.9,5.6s-3,2-5.3,2-4.1-.7-5.3-2ZM227.2,77.2v-16.4c0-2-.8-3-2.4-3s-2.4,1-2.4,3v16.4c0,2,.8,3,2.4,3s2.4-1,2.4-3Z"/>
          <path class="st2" d="M236.2,53.9h7c2.4,0,4.2.6,5.3,1.7s1.7,2.9,1.7,5.2v1.8c0,3.1-1,5.1-3.1,5.9h0c1.1.4,2,1.1,2.4,2.2s.7,2.5.7,4.3v5.3c0,.9,0,1.6,0,2.1s.2,1.1.4,1.6h-4.8c-.2-.5-.3-.9-.3-1.4s0-1.2,0-2.3v-5.5c0-1.4-.2-2.3-.7-2.9s-1.2-.8-2.3-.8h-1.6v12.9h-4.7v-30.1h0ZM242.6,66.8c1,0,1.7-.2,2.1-.7.5-.5.7-1.3.7-2.4v-2.3c0-1.1-.2-1.9-.6-2.4-.4-.5-1-.7-1.8-.7h-2.1v8.6h1.7,0Z"/>
          <path class="st2" d="M266.2,53.9h6.4l4.9,30.1h-4.7l-.9-6h0c0,0-5.4,0-5.4,0l-.9,5.9h-4.4l4.9-30.1h0ZM271.4,74.1l-2.1-14.9h0l-2.1,14.9h4.3,0Z"/>
          <path class="st2" d="M280.9,53.9h4.7v25.8h7.8v4.3h-12.5v-30.1Z"/>
          <path class="st2" d="M296.7,53.9h4.7v25.8h7.8v4.3h-12.5v-30.1Z"/>
        </g>
      </g>
    </g>
  </g>
  <g id="Guides">
    <rect class="st0" x="161.4" width="14.1" height="12.5"/>
  </g>
</svg>