<svg width="469" height="140" viewBox="0 0 469 140" fill="none" xmlns="http://www.w3.org/2000/svg">
<g clip-path="url(#clip0_4303_1189)">
<path d="M26.3 11.3984C38.7 12.8984 48 19.7984 48 27.9984C48 36.2984 38.6 43.0984 26.3 44.5984C25.9 44.6984 25.8 44.3984 26.2 44.0984C33.1 40.4984 37.6 34.5984 37.6 27.8984C37.6 21.1984 33.1 15.2984 26.2 11.6984C25.8 11.6984 25.9 11.3984 26.3 11.3984Z" fill="#C6842B"/>
<path d="M32.7017 49.9991C33.6017 50.8991 34.4017 51.7991 35.1017 52.7991C41.5017 61.8991 39.3017 74.4991 30.1017 80.9991C21.0017 87.3991 8.40173 85.1991 2.00173 75.9991C1.30173 74.9991 0.701725 73.8991 0.201725 72.7991C-0.0982749 72.1991 0.201725 71.8991 0.701725 72.3991C7.00173 79.5991 18.0017 80.9991 26.1017 75.2991C34.2017 69.5991 36.7017 58.7991 32.1017 50.2991C31.8017 49.7991 32.2017 49.4991 32.7017 49.9991Z" fill="#075D97"/>
<path d="M5.80052 6.39927C13.0005 -1.60073 25.2005 -2.20073 33.2005 4.99927C33.5005 5.19927 33.7005 5.49927 33.9005 5.69927C34.3005 6.09927 34.1005 6.39927 33.6005 6.09927C25.9005 1.79927 16.0005 3.29927 9.80052 10.0993C3.60052 16.8993 3.30052 26.9993 8.30052 34.1993C8.60052 34.6993 8.40052 34.8993 7.90052 34.4993C7.60052 34.2993 7.40052 34.0993 7.10052 33.7993C-0.799478 26.5993 -1.39948 14.3993 5.80052 6.39927Z" fill="#075D97"/>
<path d="M12.5 66.7996H23.7C23.7 66.7996 23.2 52.3996 23.2 43.1996C23.2 33.9996 23.7 19.5996 23.7 19.5996H12.5C12.5 19.5996 13 33.9996 13 43.1996C13 52.3996 12.5 66.7996 12.5 66.7996Z" fill="#C6842B"/>
<path fill-rule="evenodd" clip-rule="evenodd" d="M74.4023 51.1984C74.4023 48.7984 75.6023 47.4984 79.7023 47.4984C83.8023 47.4984 88.1023 51.7984 88.1023 60.4984C88.1023 68.8984 83.8023 74.9984 78.2023 74.9984C75.5023 74.9984 74.4023 74.0984 74.4023 72.7984V51.1984ZM74.4023 78.1984C74.4023 77.0984 74.5023 76.6984 74.7023 76.6984C76.1023 76.6984 78.4023 77.3984 82.8023 77.3984C92.0023 77.4984 98.0023 70.1984 98.0023 61.0984C98.0023 51.6984 91.7023 44.8984 81.8023 44.8984C77.4023 44.8984 73.9023 45.2984 70.8023 45.2984C65.6023 45.2984 63.2023 44.8984 61.8023 44.8984C60.3023 44.8984 59.9023 45.3984 59.9023 46.1984C59.9023 46.8984 60.2023 47.1984 63.0023 47.4984C64.9023 47.6984 65.4023 48.9984 65.4023 51.5984V97.5984C65.4023 99.4984 64.5023 100.698 62.4023 100.798C60.4023 100.898 59.4023 100.998 59.4023 102.198C59.4023 103.098 59.9023 103.398 60.9023 103.398C62.9023 103.398 63.7023 102.998 71.0023 102.998C77.7023 102.998 79.1023 103.398 80.6023 103.398C81.4023 103.398 81.8023 102.998 81.8023 102.098C81.8023 101.098 81.1023 100.998 78.6023 100.798C75.1023 100.498 74.5023 99.0984 74.5023 97.5984V78.1984H74.4023Z" fill="#075D97"/>
<path d="M113.203 77.4984C113.203 71.0984 115.603 65.4984 118.703 65.4984C120.303 65.4984 119.903 67.1984 120.503 68.9984C121.003 70.6984 121.803 71.7984 124.003 71.7984C126.903 71.7984 128.503 68.6984 128.503 65.6984C128.503 62.5984 126.103 59.7984 122.803 59.7984C116.503 59.7984 112.703 69.1984 112.303 69.1984C112.203 69.1984 112.103 69.0984 112.103 68.7984V61.5984C112.103 60.0984 111.903 59.3984 111.503 59.3984C110.703 59.3984 110.703 60.5984 106.903 62.6984C101.503 65.6984 99.8031 65.1984 99.8031 66.5984C99.8031 67.2984 100.703 67.4984 101.903 67.6984C103.403 67.8984 105.103 68.1984 105.103 70.2984V96.5984C105.103 99.5984 104.803 100.598 102.003 101.098C99.7031 101.598 99.2031 101.798 99.2031 102.598C99.2031 103.198 99.8031 103.298 100.403 103.298C102.103 103.298 105.003 102.898 109.803 102.898C115.203 102.898 118.203 103.298 119.803 103.298C120.503 103.298 120.803 102.798 120.803 102.498C120.803 101.798 120.503 101.598 117.103 101.098C114.203 100.698 113.203 99.2984 113.203 95.8984V77.4984Z" fill="#075D97"/>
<path fill-rule="evenodd" clip-rule="evenodd" d="M144.702 61.0988C144.702 60.0988 144.402 59.7988 143.902 59.7988C143.202 59.7988 141.102 62.4988 133.902 64.2988C132.802 64.5988 132.102 64.6988 132.102 65.6988C132.102 66.5988 132.802 66.6988 133.902 66.8988C135.702 67.2988 137.102 67.3988 137.102 69.7988V96.4988C137.102 99.5988 136.402 99.7988 132.802 100.799C131.802 101.099 130.902 101.399 130.902 102.199C130.902 102.999 131.402 103.199 132.402 103.199C133.902 103.199 136.702 102.799 140.802 102.799C144.602 102.799 147.002 103.199 148.702 103.199C150.002 103.199 150.302 102.599 150.302 102.099C150.302 101.599 149.702 101.199 148.202 100.999C145.602 100.699 144.802 99.6988 144.802 96.8988V61.0988H144.702ZM136.802 49.4988C136.802 52.2988 138.502 54.6988 141.002 54.6988C143.602 54.6988 145.202 52.2988 145.202 49.4988C145.202 46.6988 143.502 44.2988 141.002 44.2988C138.502 44.2988 136.802 46.6988 136.802 49.4988Z" fill="#075D97"/>
<path d="M165.902 72.2992C165.902 67.8992 169.202 64.3992 173.802 64.3992C176.702 64.3992 179.302 66.7992 179.302 71.4992V98.0992C179.302 100.199 178.002 100.799 176.702 100.999C175.002 101.399 174.602 101.599 174.602 102.299C174.602 102.899 174.802 103.199 175.802 103.199C177.602 103.199 181.302 102.799 183.102 102.799C186.002 102.799 189.502 103.199 191.602 103.199C192.402 103.199 192.702 102.899 192.702 102.499C192.702 101.799 191.902 101.499 190.102 101.099C187.302 100.599 186.902 99.5992 186.902 95.7992V71.9992C186.902 68.1992 190.502 64.3992 194.602 64.3992C198.302 64.3992 200.302 66.5992 200.302 70.6992V96.4992C200.302 99.8992 200.102 100.299 197.302 101.099C196.702 101.299 195.502 101.599 195.502 102.499C195.502 102.999 196.002 103.299 197.002 103.299C198.402 103.299 201.902 102.899 204.102 102.899C206.802 102.899 210.302 103.299 212.102 103.299C212.702 103.299 213.302 103.099 213.302 102.399C213.302 101.699 212.602 101.599 210.802 100.999C208.302 100.299 207.902 99.2992 207.902 97.3992V70.3992C207.902 63.3992 203.202 59.7992 198.002 59.7992C191.202 59.7992 188.202 66.1992 186.902 66.1992C185.502 66.1992 185.102 59.7992 177.902 59.7992C170.802 59.7992 167.102 65.9992 166.602 65.8992C166.402 65.8992 166.302 65.7992 166.302 65.2992V61.1992C166.302 59.3992 166.002 59.1992 165.602 59.1992C164.602 59.1992 164.402 60.9992 158.802 63.4992C154.402 65.3992 154.102 65.2992 154.102 66.1992C154.102 66.8992 154.502 66.7992 155.902 66.8992C157.702 66.9992 158.402 67.6992 158.402 69.5992V97.4992C158.402 100.099 157.702 100.399 155.102 100.999C153.702 101.399 153.402 101.599 153.402 102.399C153.402 102.999 153.802 103.199 155.202 103.199C157.102 103.199 160.202 102.799 162.602 102.799C165.202 102.799 168.702 103.199 170.302 103.199C170.902 103.199 171.302 102.799 171.302 102.299C171.302 101.799 171.002 101.499 169.402 100.999C166.802 100.399 166.002 99.7992 166.002 97.0992V72.2992H165.902Z" fill="#075D97"/>
<path fill-rule="evenodd" clip-rule="evenodd" d="M242.1 79.8988C244.1 79.8988 244.9 79.2988 244.9 76.0988C244.9 68.0988 240.6 59.7988 231 59.7988C220.1 59.7988 213.5 70.6988 213.5 82.5988C213.5 96.7988 221 104.399 230.3 104.399C240.6 104.399 244.9 95.7988 244.9 93.4988C244.9 92.7988 244.6 92.3988 243.9 92.3988C242 92.3988 242.5 99.7988 232.8 99.7988C225.8 99.7988 221.9 91.9988 221.9 83.0988C221.9 80.1988 222.3 79.8988 223.8 79.8988H242.1ZM237.3 71.0988C237.3 76.3988 234.8 77.5988 226.2 77.5988C223.2 77.5988 222.3 77.0988 222.3 75.6988C222.3 73.8988 223.6 61.9988 231.2 61.9988C235.8 61.9988 237.3 67.2988 237.3 71.0988Z" fill="#075D97"/>
<path d="M279.302 48.6988C279.302 47.4988 279.302 46.6988 278.802 45.9988C278.202 45.0988 273.502 43.7988 266.802 43.7988C256.902 43.7988 250.802 51.2988 250.802 58.4988C250.802 77.2988 275.502 75.2988 275.502 91.5988C275.502 97.6988 271.402 101.799 265.902 101.799C261.102 101.799 258.002 98.8988 255.802 93.2988C253.202 86.6988 254.202 84.5988 252.202 84.5988C250.602 84.5988 250.102 85.1988 250.102 99.0988C250.102 102.499 258.002 104.399 262.602 104.399C275.702 104.399 282.302 95.5988 282.302 86.6988C282.302 78.1988 276.302 73.5988 269.202 68.4988C260.002 61.7988 258.002 60.5988 258.002 55.0988C258.002 49.3988 261.202 45.5988 266.002 45.5988C270.202 45.5988 272.002 47.4988 273.602 51.5988C276.202 57.9988 276.002 60.3988 277.702 60.3988C278.702 60.3988 279.202 59.7988 279.202 58.5988V48.6988H279.302Z" fill="#075D97"/>
<path fill-rule="evenodd" clip-rule="evenodd" d="M303.7 102.199C297.7 102.199 294.5 90.6988 294.5 82.0988C294.5 73.4988 297.7 61.9988 303.7 61.9988C309.7 61.9988 312.9 73.4988 312.9 82.0988C313 90.6988 309.7 102.199 303.7 102.199ZM321.4 82.0988C321.4 70.1988 313.9 59.7988 303.7 59.7988C293.5 59.7988 286 70.1988 286 82.0988C286 93.9988 293.5 104.399 303.7 104.399C314 104.399 321.4 93.9988 321.4 82.0988Z" fill="#075D97"/>
<path d="M355.802 62.5988C355.802 61.3988 355.502 60.8988 354.302 60.8988H344.102C343.202 60.8988 342.702 61.3988 342.702 62.0988C342.702 62.9988 343.702 63.1988 344.702 63.2988C346.302 63.3988 348.202 63.5988 348.202 66.2988V91.7988C348.202 95.9988 345.102 99.3988 340.902 99.3988C336.802 99.3988 334.502 96.9988 334.502 91.6988V62.4988C334.502 61.2988 334.202 60.7988 333.002 60.7988H322.802C321.902 60.7988 321.402 61.2988 321.402 61.9988C321.402 62.8988 322.402 63.0988 323.402 63.1988C325.002 63.2988 326.902 63.4988 326.902 66.1988V92.0988C326.902 100.399 330.802 103.999 336.902 103.999C343.002 103.999 347.402 97.6988 348.302 97.6988C348.702 97.6988 349.002 97.9988 349.002 98.7988V102.499C349.002 103.399 349.002 104.299 349.702 104.299C350.202 104.299 350.602 104.099 351.102 103.799C352.902 102.599 355.902 101.699 357.602 101.099C359.702 100.499 360.502 100.599 360.502 99.6988C360.502 99.0988 359.402 98.9988 358.202 98.7988C356.602 98.3988 355.502 98.0988 355.502 96.0988V62.5988H355.802Z" fill="#075D97"/>
<path d="M376.902 77.4984C376.902 71.0984 379.302 65.4984 382.402 65.4984C384.002 65.4984 383.602 67.1984 384.202 68.9984C384.702 70.6984 385.502 71.7984 387.702 71.7984C390.602 71.7984 392.202 68.6984 392.202 65.6984C392.202 62.5984 389.802 59.7984 386.502 59.7984C380.202 59.7984 376.402 69.1984 376.002 69.1984C375.902 69.1984 375.802 69.0984 375.802 68.7984V61.5984C375.802 60.0984 375.602 59.3984 375.202 59.3984C374.402 59.3984 374.402 60.5984 370.602 62.6984C365.202 65.6984 363.502 65.1984 363.502 66.5984C363.502 67.2984 364.402 67.4984 365.602 67.6984C367.102 67.8984 368.802 68.1984 368.802 70.2984V96.5984C368.802 99.5984 368.502 100.598 365.702 101.098C363.402 101.598 362.902 101.798 362.902 102.598C362.902 103.198 363.502 103.298 364.102 103.298C365.802 103.298 368.702 102.898 373.502 102.898C378.902 102.898 381.902 103.298 383.502 103.298C384.202 103.298 384.502 102.798 384.502 102.498C384.502 101.798 384.202 101.598 380.802 101.098C377.902 100.698 376.902 99.2984 376.902 95.8984V77.4984Z" fill="#075D97"/>
<path d="M401 79.1988C401 68.2988 406.3 62.0988 410.7 62.0988C413.2 62.0988 413.6 63.9988 417 70.0988C418.4 72.6988 418.9 73.2988 420.6 73.2988C422.4 73.2988 422.6 72.8988 422.6 66.5988C422.6 62.5988 422.4 62.3988 421.1 61.5988C419.4 60.5988 414.9 59.7988 411.7 59.7988C400.3 59.7988 392.5 69.1988 392.5 81.3988C392.5 95.1988 399.5 104.399 409.8 104.399C419.8 104.399 424.3 96.6988 424.3 93.8988C424.3 92.5988 423.8 92.1988 423.3 92.1988C421.5 92.1988 420.9 99.7988 413 99.7988C406.2 99.7988 401 90.7988 401 79.1988Z" fill="#075D97"/>
<path fill-rule="evenodd" clip-rule="evenodd" d="M455.6 79.8988C457.6 79.8988 458.4 79.2988 458.4 76.0988C458.4 68.0988 454.1 59.7988 444.5 59.7988C433.6 59.7988 427 70.6988 427 82.5988C427 96.7988 434.5 104.399 443.8 104.399C454.1 104.399 458.4 95.7988 458.4 93.4988C458.4 92.7988 458.1 92.3988 457.4 92.3988C455.5 92.3988 456 99.7988 446.3 99.7988C439.3 99.7988 435.4 91.9988 435.4 83.0988C435.4 80.1988 435.8 79.8988 437.3 79.8988H455.6ZM450.8 71.0988C450.8 76.3988 448.3 77.5988 439.7 77.5988C436.7 77.5988 435.8 77.0988 435.8 75.6988C435.8 73.8988 437.1 61.9988 444.7 61.9988C449.3 61.9988 450.8 67.2988 450.8 71.0988Z" fill="#075D97"/>
<path d="M461.601 103.8H462.401V99.2996H463.601V98.5996H460.301V99.2996H461.601V103.8Z" fill="#075D97"/>
<path d="M464.102 103.8H464.902V99.3996L466.002 103.8H466.702L467.802 99.3996V103.8H468.602V98.5996H467.302L466.402 102.5L465.402 98.5996H464.102V103.8Z" fill="#075D97"/>
<path d="M154.503 138.2L154.703 136.7L154.603 136.6C154.403 136.8 154.103 137 153.703 137.3C153.403 137.5 153.003 137.8 152.503 138C152.103 138.2 151.603 138.4 151.103 138.5C150.603 138.7 150.003 138.7 149.403 138.7C148.403 138.7 147.403 138.5 146.603 138.2C145.703 137.9 145.003 137.4 144.303 136.7C143.703 136 143.203 135.2 142.803 134.1C142.403 133.1 142.303 131.8 142.303 130.4C142.303 129 142.503 127.8 142.803 126.7C143.203 125.7 143.703 124.8 144.303 124.1C145.003 123.4 145.703 122.9 146.603 122.6C147.503 122.3 148.403 122.1 149.403 122.1C150.003 122.1 150.603 122.2 151.103 122.4C151.603 122.6 152.103 122.8 152.503 123C152.903 123.2 153.303 123.5 153.603 123.7C153.903 124 154.103 124.2 154.303 124.4L154.503 124.3C154.603 124 154.603 123.7 154.703 123.3C154.803 122.9 154.903 122.6 155.003 122.3C154.303 122 153.503 121.7 152.503 121.5C151.603 121.3 150.503 121.1 149.403 121.1C148.003 121.1 146.703 121.3 145.503 121.7C144.303 122.1 143.303 122.7 142.403 123.5C141.603 124.3 140.903 125.3 140.403 126.4C139.903 127.5 139.703 128.8 139.703 130.3C139.703 131.8 139.903 133.1 140.403 134.2C140.903 135.3 141.503 136.3 142.403 137.1C143.203 137.9 144.203 138.5 145.403 138.9C146.503 139.3 147.803 139.5 149.203 139.5C149.803 139.5 150.403 139.4 151.003 139.3C151.603 139.2 152.103 139.1 152.603 139C153.103 138.9 153.503 138.7 153.803 138.6C154.103 138.5 154.403 138.4 154.503 138.2Z" fill="#C6842B"/>
<path fill-rule="evenodd" clip-rule="evenodd" d="M164 128.299V132.699C164 133.799 164 134.899 163.9 135.999C163.9 137.099 163.8 138.199 163.8 139.199C164.2 139.199 164.6 139.099 165.1 139.099C165.6 139.099 166 139.099 166.4 139.199C166.3 138.099 166.3 137.099 166.2 135.999C166.2 134.899 166.1 133.799 166.1 132.699V130.799H167.1C167.6 131.399 168.2 132.099 168.9 132.899C169.6 133.699 170.2 134.499 170.9 135.299C171.5 136.099 172.1 136.899 172.6 137.599C173.1 138.299 173.5 138.899 173.8 139.199C174 139.199 174.3 139.099 174.5 139.099C174.8 139.099 175 139.099 175.2 139.099C175.5 139.099 175.7 139.099 176 139.099C176.3 139.099 176.5 139.099 176.8 139.199C176.6 138.999 176.2 138.599 175.8 138.099C175.4 137.599 175 137.099 174.5 136.599C174.1 135.999 173.6 135.499 173.1 134.899C172.6 134.299 172.2 133.699 171.7 133.199C171.3 132.599 170.9 132.099 170.5 131.699C170.1 131.199 169.9 130.899 169.7 130.599C170.2 130.499 170.7 130.399 171.3 130.199C171.9 129.999 172.5 129.699 173 129.299C173.5 128.899 174 128.399 174.3 127.799C174.7 127.199 174.9 126.499 174.9 125.699C174.9 124.899 174.8 124.299 174.5 123.799C174.2 123.299 173.8 122.899 173.3 122.599C172.8 122.299 172.3 121.999 171.6 121.899C170.9 121.799 170.3 121.699 169.5 121.699C169 121.699 168.5 121.699 168 121.799C167.5 121.799 167 121.899 166.5 121.899C166 121.899 165.5 121.899 165 121.899C164.5 121.899 164 121.799 163.5 121.799C163.6 122.899 163.6 123.999 163.6 125.099C164 126.099 164 127.199 164 128.299ZM166.1 129.799V128.299C166.1 127.399 166.1 126.499 166.2 125.499C166.2 124.599 166.3 123.599 166.3 122.699C166.6 122.699 166.9 122.599 167.3 122.599C167.7 122.599 168.2 122.499 168.8 122.499C169.2 122.499 169.7 122.599 170.2 122.699C170.7 122.799 171.1 122.999 171.5 123.199C171.9 123.499 172.2 123.799 172.5 124.299C172.8 124.699 172.9 125.299 172.9 125.899C172.9 126.699 172.7 127.299 172.4 127.799C172.1 128.299 171.7 128.699 171.2 128.999C170.7 129.299 170.2 129.499 169.6 129.599C169 129.699 168.5 129.799 168 129.799C167.7 129.799 167.3 129.799 167 129.799C166.6 129.899 166.4 129.799 166.1 129.799Z" fill="#C6842B"/>
<path d="M185.4 128.3V132.7C185.4 133.8 185.4 134.9 185.3 136C185.3 137.1 185.2 138.2 185.2 139.3C186 139.3 186.8 139.2 187.5 139.2C188.3 139.2 189 139.2 189.8 139.2C190.6 139.2 191.4 139.2 192.1 139.2C192.9 139.2 193.6 139.2 194.4 139.3C194.3 139.1 194.3 138.9 194.3 138.6C194.3 138.5 194.3 138.4 194.3 138.2C194.3 138 194.3 137.9 194.4 137.8C194 137.9 193.5 138 192.9 138C192.4 138 191.8 138.1 191.1 138.1C190.5 138.1 189.8 138.1 189.2 138.1C188.6 138.1 188 138.1 187.4 138.1C187.4 137.8 187.4 137.3 187.3 136.7C187.3 136.1 187.3 135.3 187.3 134.3V132.8V131.8C187.3 131.5 187.3 131.3 187.3 131.1C187.3 130.9 187.3 130.7 187.3 130.6C187.6 130.6 188 130.6 188.5 130.6C189 130.6 189.6 130.6 190.2 130.6C190.8 130.6 191.4 130.6 192 130.7C192.6 130.7 193.1 130.8 193.6 130.8C193.5 130.5 193.5 130.3 193.5 130C193.5 129.7 193.5 129.5 193.6 129.2C193.2 129.2 192.8 129.3 192.4 129.3C192 129.3 191.5 129.3 191 129.4C190.5 129.4 190 129.4 189.4 129.5C188.8 129.6 188.1 129.5 187.4 129.5C187.4 129.2 187.4 128.7 187.4 128.1C187.4 127.5 187.4 126.8 187.4 126.1C187.4 125.5 187.4 124.9 187.4 124.4C187.4 123.9 187.5 123.4 187.5 122.8C188.3 122.8 189.1 122.8 189.7 122.9C190.3 122.9 190.8 122.9 191.3 123C191.8 123 192.3 123.1 192.7 123.1C193.2 123.1 193.7 123.2 194.2 123.2C194.1 122.9 194.1 122.7 194.1 122.4C194.1 122.1 194.1 121.9 194.2 121.6C193.4 121.6 192.7 121.7 191.9 121.7C191.1 121.7 190.4 121.7 189.6 121.7C188.8 121.7 188.1 121.7 187.3 121.7C186.5 121.7 185.8 121.6 185 121.6C185.1 122.7 185.1 123.8 185.1 124.9C185.3 126 185.4 127.1 185.4 128.3Z" fill="#C6842B"/>
<path fill-rule="evenodd" clip-rule="evenodd" d="M203.902 128.3V132.7C203.902 133.8 203.902 134.9 203.802 136C203.802 137.1 203.702 138.2 203.702 139.2C204.302 139.2 204.902 139.1 205.402 139.1C206.002 139.1 206.502 139.1 207.102 139.1C207.702 139.1 208.302 139.1 208.802 139.1C209.402 139.1 209.902 139.1 210.502 139.1C211.502 139.1 212.602 139 213.702 138.7C214.802 138.4 215.802 137.9 216.702 137.2C217.602 136.5 218.402 135.5 219.002 134.4C219.602 133.2 219.902 131.8 219.902 130.1C219.902 128.8 219.702 127.6 219.402 126.6C219.102 125.5 218.602 124.6 217.902 123.9C217.202 123.2 216.302 122.6 215.302 122.2C214.202 121.8 213.002 121.6 211.402 121.6C210.702 121.6 210.102 121.6 209.402 121.7C208.802 121.7 208.102 121.8 207.502 121.8C206.802 121.8 206.202 121.8 205.502 121.8C204.902 121.8 204.202 121.7 203.602 121.7C203.702 122.8 203.702 123.9 203.702 125C203.802 126.1 203.902 127.2 203.902 128.3ZM206.002 132.7V128.3C206.002 127.4 206.002 126.5 206.002 125.6C206.002 124.7 206.102 123.8 206.102 123C206.602 122.9 207.202 122.9 207.902 122.8C208.602 122.7 209.302 122.7 210.102 122.7C211.202 122.7 212.102 122.8 213.002 123C213.902 123.2 214.702 123.6 215.302 124.2C216.002 124.7 216.502 125.5 216.802 126.5C217.202 127.5 217.402 128.7 217.402 130.2C217.402 131.9 217.202 133.3 216.702 134.4C216.202 135.5 215.602 136.3 214.902 136.9C214.202 137.5 213.302 137.9 212.402 138.2C211.502 138.4 210.502 138.5 209.602 138.5C208.902 138.5 208.302 138.5 207.702 138.4C207.102 138.3 206.602 138.3 206.202 138.2C206.002 136.4 206.002 134.6 206.002 132.7Z" fill="#C6842B"/>
<path d="M228.501 128.299V132.699C228.501 133.799 228.501 134.899 228.401 135.999C228.401 137.099 228.301 138.199 228.301 139.199C228.701 139.199 229.101 139.099 229.601 139.099C230.101 139.099 230.501 139.099 230.901 139.199C230.801 138.099 230.801 137.099 230.701 135.999C230.701 134.899 230.601 133.799 230.601 132.699V128.299C230.601 127.199 230.601 126.099 230.701 124.999C230.801 123.899 230.801 122.799 230.901 121.699C230.701 121.699 230.501 121.799 230.301 121.799C230.101 121.799 229.901 121.799 229.701 121.799C229.501 121.799 229.301 121.799 229.101 121.799C228.901 121.799 228.701 121.699 228.501 121.699C228.601 122.799 228.601 123.899 228.601 124.999C228.401 126.099 228.501 127.199 228.501 128.299Z" fill="#C6842B"/>
<path d="M245.102 128.299V132.699C245.102 133.799 245.102 134.899 245.002 135.999C245.002 137.099 244.902 138.199 244.902 139.199C245.302 139.199 245.702 139.099 246.202 139.099C246.602 139.099 247.102 139.099 247.502 139.199C247.402 138.099 247.402 137.099 247.302 135.999C247.302 134.899 247.202 133.799 247.202 132.699V128.299C247.202 126.499 247.202 124.699 247.302 122.999C247.702 122.999 248.202 122.999 248.702 122.999C249.202 122.999 249.702 122.999 250.202 123.099C250.702 123.099 251.202 123.099 251.602 123.199C252.102 123.199 252.502 123.299 252.802 123.299C252.702 122.999 252.702 122.699 252.702 122.499C252.702 122.299 252.702 121.999 252.802 121.699C251.702 121.699 250.602 121.799 249.502 121.799C248.402 121.799 247.302 121.799 246.202 121.799C245.102 121.799 244.002 121.799 242.902 121.799C241.802 121.799 240.702 121.699 239.602 121.699C239.702 121.999 239.702 122.299 239.702 122.499C239.702 122.699 239.702 122.999 239.602 123.299C240.002 123.199 240.402 123.199 240.802 123.199C241.302 123.199 241.702 123.099 242.202 123.099C242.702 123.099 243.202 122.999 243.702 122.999C244.202 122.999 244.702 122.999 245.102 122.999C245.102 124.699 245.102 126.499 245.102 128.299Z" fill="#C6842B"/>
<path d="M288.702 129.999C288.702 130.499 288.702 131.099 288.702 131.699C288.702 132.299 288.602 132.999 288.502 133.599C288.402 134.199 288.202 134.799 288.002 135.399C287.802 135.999 287.502 136.499 287.002 136.899C286.602 137.299 286.102 137.699 285.402 137.999C284.802 138.299 284.002 138.399 283.002 138.399C282.002 138.399 281.202 138.299 280.602 138.099C279.902 137.899 279.402 137.499 279.002 137.099C278.602 136.699 278.202 136.199 278.002 135.699C277.802 135.199 277.602 134.599 277.502 133.999C277.402 133.399 277.302 132.799 277.302 132.199C277.302 131.599 277.302 130.999 277.302 130.399C277.302 129.399 277.302 128.499 277.302 127.599C277.302 126.699 277.302 125.899 277.402 125.099C277.402 124.299 277.502 123.599 277.502 122.999C277.502 122.399 277.602 121.899 277.602 121.499C277.402 121.499 277.202 121.599 277.002 121.599C276.802 121.599 276.602 121.599 276.502 121.599C276.302 121.599 276.102 121.599 275.802 121.599C275.602 121.599 275.302 121.499 275.102 121.499C275.102 122.299 275.202 123.199 275.202 124.299C275.202 125.399 275.302 126.699 275.302 128.099C275.302 128.799 275.302 129.399 275.202 129.999C275.202 130.599 275.102 131.299 275.102 132.099C275.102 134.599 275.702 136.499 276.802 137.599C278.002 138.799 279.802 139.299 282.402 139.299C283.602 139.299 284.602 139.099 285.502 138.799C286.402 138.499 287.202 137.999 287.802 137.399C288.402 136.799 288.902 135.999 289.202 135.099C289.502 134.199 289.702 133.199 289.702 131.999C289.702 131.099 289.702 130.099 289.802 129.099C289.802 128.099 289.902 127.099 289.902 126.199C289.902 125.199 290.002 124.399 290.002 123.499C290.102 122.699 290.102 121.899 290.202 121.299C289.902 121.399 289.702 121.399 289.402 121.399C289.202 121.399 289.102 121.399 288.902 121.399C288.702 121.399 288.502 121.299 288.402 121.299C288.502 121.799 288.502 122.699 288.502 123.999C288.702 125.699 288.702 127.599 288.702 129.999Z" fill="#C6842B"/>
<path d="M314.101 139.598H314.501C314.501 139.398 314.501 139.098 314.501 138.798C314.501 138.398 314.501 137.898 314.501 137.398C314.501 136.798 314.501 136.198 314.501 135.598C314.501 134.898 314.501 134.298 314.501 133.698C314.501 133.098 314.501 132.498 314.501 131.898C314.501 131.298 314.501 130.798 314.501 130.398C314.501 129.898 314.501 129.198 314.601 128.398C314.601 127.598 314.701 126.698 314.701 125.898C314.801 124.998 314.801 124.198 314.801 123.498C314.901 122.698 314.901 122.198 314.901 121.798C314.601 121.898 314.301 121.898 314.101 121.898C313.901 121.898 313.601 121.898 313.201 121.798C313.301 123.298 313.301 124.898 313.401 126.598C313.401 128.298 313.501 129.998 313.501 131.798V135.298C312.701 134.498 311.801 133.598 310.701 132.398C309.701 131.298 308.501 130.098 307.401 128.798C306.201 127.498 305.101 126.298 303.901 124.998C302.701 123.698 301.601 122.498 300.601 121.398H300.201C300.201 121.998 300.301 122.898 300.301 123.998C300.301 125.198 300.301 126.598 300.301 128.198C300.301 128.798 300.301 129.398 300.301 130.098C300.301 130.798 300.301 131.598 300.201 132.298C300.201 133.098 300.101 133.798 300.101 134.598C300.101 135.398 300.001 136.098 300.001 136.698C300.001 137.298 299.901 137.898 299.901 138.298C299.901 138.798 299.801 139.098 299.801 139.198C300.101 139.198 300.401 139.098 300.801 139.098C301.101 139.098 301.401 139.098 301.701 139.198C301.701 139.098 301.701 138.798 301.601 138.398C301.601 137.998 301.601 137.598 301.501 136.998C301.501 136.498 301.501 135.898 301.401 135.298C301.401 134.698 301.401 134.098 301.301 133.498C301.301 132.898 301.301 132.398 301.301 131.798C301.301 131.298 301.301 130.798 301.301 130.498C301.301 129.098 301.301 127.998 301.301 127.198C301.301 126.398 301.301 125.798 301.401 125.298C303.601 127.698 305.901 129.998 308.101 132.398C310.001 134.998 312.101 137.398 314.101 139.598Z" fill="#C6842B"/>
<path d="M325.302 128.299V132.699C325.302 133.799 325.302 134.899 325.202 135.999C325.202 137.099 325.102 138.199 325.102 139.199C325.502 139.199 325.902 139.099 326.402 139.099C326.902 139.099 327.302 139.099 327.702 139.199C327.602 138.099 327.602 137.099 327.502 135.999C327.502 134.899 327.402 133.799 327.402 132.699V128.299C327.402 127.199 327.402 126.099 327.502 124.999C327.602 123.899 327.602 122.799 327.702 121.699C327.502 121.699 327.302 121.799 327.102 121.799C326.902 121.799 326.702 121.799 326.502 121.799C326.302 121.799 326.102 121.799 325.902 121.799C325.702 121.799 325.502 121.699 325.302 121.699C325.402 122.799 325.402 123.899 325.402 124.999C325.202 126.099 325.302 127.199 325.302 128.299Z" fill="#C6842B"/>
<path fill-rule="evenodd" clip-rule="evenodd" d="M336.102 130.499C336.102 131.999 336.302 133.299 336.802 134.399C337.302 135.499 337.902 136.499 338.802 137.299C339.702 138.099 340.702 138.699 341.902 139.099C343.102 139.499 344.402 139.699 345.802 139.699C347.202 139.699 348.502 139.499 349.702 139.099C350.902 138.699 351.902 138.099 352.702 137.299C353.602 136.499 354.202 135.599 354.702 134.399C355.202 133.299 355.402 131.999 355.402 130.499C355.402 128.999 355.202 127.799 354.702 126.599C354.202 125.499 353.602 124.499 352.702 123.699C351.902 122.899 350.902 122.299 349.702 121.899C348.502 121.499 347.202 121.299 345.802 121.299C344.402 121.299 343.102 121.499 341.902 121.899C340.702 122.299 339.702 122.899 338.802 123.699C338.002 124.499 337.302 125.499 336.802 126.599C336.302 127.799 336.102 129.099 336.102 130.499ZM352.802 130.499C352.802 131.899 352.602 133.199 352.302 134.199C351.902 135.199 351.402 136.099 350.802 136.799C350.202 137.499 349.402 137.999 348.502 138.299C347.602 138.599 346.702 138.799 345.702 138.799C344.702 138.799 343.802 138.599 342.902 138.299C342.002 137.999 341.302 137.499 340.602 136.799C340.002 136.099 339.502 135.299 339.102 134.199C338.702 133.199 338.602 131.899 338.602 130.499C338.602 129.099 338.802 127.899 339.102 126.799C339.502 125.799 340.002 124.899 340.602 124.199C341.302 123.499 342.002 122.999 342.902 122.699C343.802 122.399 344.702 122.199 345.702 122.199C346.702 122.199 347.602 122.399 348.502 122.699C349.402 122.999 350.102 123.499 350.802 124.199C351.502 124.899 352.002 125.699 352.302 126.799C352.702 127.899 352.802 129.099 352.802 130.499Z" fill="#C6842B"/>
<path d="M376.503 139.598H376.903C376.903 139.398 376.903 139.098 376.903 138.798C376.903 138.398 376.903 137.898 376.903 137.398C376.903 136.798 376.903 136.198 376.903 135.598C376.903 134.898 376.903 134.298 376.903 133.698C376.903 133.098 376.903 132.498 376.903 131.898C376.903 131.298 376.903 130.798 376.903 130.398C376.903 129.898 376.903 129.198 377.003 128.398C377.003 127.598 377.103 126.698 377.103 125.898C377.203 124.998 377.203 124.198 377.203 123.498C377.303 122.698 377.303 122.198 377.303 121.798C377.003 121.898 376.703 121.898 376.503 121.898C376.303 121.898 376.003 121.898 375.603 121.798C375.703 123.298 375.703 124.898 375.803 126.598C375.803 128.298 375.903 129.998 375.903 131.798V135.298C375.103 134.498 374.203 133.598 373.103 132.398C372.103 131.298 370.903 130.098 369.803 128.798C368.603 127.498 367.503 126.298 366.303 124.998C365.103 123.698 364.003 122.498 363.003 121.398H362.603C362.603 121.998 362.703 122.898 362.703 123.998C362.703 125.198 362.703 126.598 362.703 128.198C362.703 128.798 362.703 129.398 362.703 130.098C362.703 130.798 362.703 131.598 362.603 132.298C362.603 133.098 362.503 133.798 362.503 134.598C362.503 135.398 362.403 136.098 362.403 136.698C362.403 137.298 362.303 137.898 362.303 138.298C362.303 138.798 362.203 139.098 362.203 139.198C362.503 139.198 362.803 139.098 363.203 139.098C363.503 139.098 363.803 139.098 364.103 139.198C364.103 139.098 364.103 138.798 364.003 138.398C364.003 137.998 364.003 137.598 363.903 136.998C363.903 136.498 363.903 135.898 363.803 135.298C363.803 134.698 363.803 134.098 363.703 133.498C363.703 132.898 363.703 132.398 363.703 131.798C363.703 131.298 363.703 130.798 363.703 130.498C363.703 129.098 363.703 127.998 363.703 127.198C363.703 126.398 363.703 125.798 363.803 125.298C366.003 127.698 368.303 129.998 370.503 132.398C372.403 134.998 374.503 137.398 376.503 139.598Z" fill="#C6842B"/>
</g>
<defs>
<clipPath id="clip0_4303_1189">
<rect width="468.6" height="139.6" fill="white"/>
</clipPath>
</defs>
</svg>
