<svg xmlns="http://www.w3.org/2000/svg" xmlns:xlink="http://www.w3.org/1999/xlink" id="trademarking" viewBox="0 0 431.28 187.33" width="431.28"  height="187.33" ><defs><style>.cls-1{fill:url(#SCU_Gradient_CMYK);}.cls-1,.cls-2{stroke-width:0px;}.cls-2{fill:#0d2c6c;}</style><linearGradient id="SCU_Gradient_CMYK" x1="293.49" y1="126.27" x2="360.07" y2="44.5" gradientUnits="userSpaceOnUse"><stop offset="0" stop-color="#0d2c6c"/><stop offset=".03" stop-color="#113372"/><stop offset=".19" stop-color="#2b6199"/><stop offset=".36" stop-color="#4088b9"/><stop offset=".53" stop-color="#51a5d2"/><stop offset=".69" stop-color="#5dbae3"/><stop offset=".85" stop-color="#64c7ee"/><stop offset="1" stop-color="#67ccf2"/></linearGradient></defs><path class="cls-1" d="m242.4,84.05c26.49-10.16,57.33-24.71,83.01,0-23.67,23.94-56.67,9.01-83.01,0Zm146.66,54.27c-26.67-27.79-59.22-12.39-88.09,0,28.57,11.81,63.43,24.66,88.09,0Zm-64.54-19.5c-26.67-27.79-59.22-12.39-88.09,0,28.57,11.81,63.43,24.66,88.09,0Zm58.07-48.94c-20.27-21.12-45.01-9.42-66.95,0,21.71,8.97,48.2,18.74,66.95,0Zm-122.23,30.21c-17.78-19.2-43.9-7.5-63.67,0,21.6,7.65,47.72,17.57,63.67,0Zm170.92,2.03c-35.38-34.04-77.87-14-114.36,0,36.3,12.41,81.75,32.98,114.36,0Z"/><path class="cls-2" d="m37.87,25.32c-3.65,0-5.48,1.08-5.48,3.24s1.91,3.57,5.73,4.57l6.56,1.74c6.75,1.77,10.13,5.67,10.13,11.71,0,4.15-1.45,7.54-4.36,10.17-2.91,2.63-7.53,3.94-13.86,3.94s-11.28-.88-14.82-2.66c-.06-.61-.08-1.22-.08-1.83,0-3.04.61-5.78,1.83-8.22h6.89c.72,1.33,1.19,2.71,1.41,4.15,1.11.33,2.68.5,4.73.5,4.87,0,7.31-1.38,7.31-4.15,0-.88-.33-1.62-1-2.2s-1.97-1.15-3.9-1.7l-6.56-1.91c-3.38-.94-6.01-2.34-7.89-4.19-1.88-1.85-2.82-4.59-2.82-8.22s1.47-6.6,4.4-8.92c2.93-2.32,7.12-3.49,12.58-3.49s10.06.8,13.82,2.41c.05.55.08,1.11.08,1.66,0,2.88-.61,5.54-1.83,7.97h-6.81c-.72-1.27-1.19-2.6-1.41-3.99-1.55-.39-3.1-.58-4.65-.58Zm40.05,35.37c-6.56,0-11.42-1.74-14.57-5.23-3.15-3.49-4.73-8.76-4.73-15.81s1.76-12.45,5.27-16.19c3.51-3.74,8.56-5.6,15.15-5.6s11.47,1.66,14.65,4.98c3.18,3.32,4.77,8.51,4.77,15.57s-1.78,12.54-5.35,16.44-8.63,5.85-15.19,5.85Zm-7.35-21.75c0,8.86,2.66,13.28,7.97,13.28,2.71,0,4.72-1.01,6.02-3.03,1.3-2.02,1.95-5.33,1.95-9.92,0-8.63-2.71-12.95-8.14-12.95-2.66,0-4.62.96-5.89,2.86-1.27,1.91-1.91,5.16-1.91,9.75Zm62.76,17.6c-3.82,2.77-8.32,4.15-13.49,4.15s-8.79-1.08-10.83-3.24c-2.05-2.16-3.07-5.67-3.07-10.54v-19.18c-1.94-.66-3.46-1.6-4.57-2.82l.83-6.39c3.1-.72,5.98-1.08,8.63-1.08s4.9.08,6.72.25v26.48c0,2.99.46,4.97,1.37,5.94.91.97,2.73,1.45,5.44,1.45s5.23-.88,7.55-2.66v-21.17c-1.94-.66-3.46-1.6-4.57-2.82l.83-6.39c3.1-.72,5.98-1.08,8.63-1.08s4.9.08,6.72.25v32.38c1.94.39,3.46.86,4.57,1.41v6.56c-3.32,1.77-7.5,2.66-12.54,2.66-1.38-1-2.13-2.38-2.24-4.15Zm19.01-38.02c3.04-.66,5.78-1,8.22-1s4.45.06,6.06.17v4.15c1.38-1.16,3.22-2.12,5.52-2.87,2.3-.75,4.5-1.12,6.6-1.12,5.42,0,9.23,1.27,11.42,3.82,2.19,2.55,3.28,6.95,3.28,13.2v15.94c2.16.83,3.68,1.77,4.57,2.82l-.83,6.39h-19.09l-.83-6.39c.77-1.05,2.3-1.99,4.57-2.82v-16.44c0-2.99-.49-4.99-1.45-6.02-.97-1.02-2.7-1.54-5.19-1.54s-4.98.89-7.47,2.66v21.34c2.16.83,3.68,1.77,4.57,2.82l-.83,6.39h-19.09l-.83-6.39c.77-1.05,2.3-1.99,4.57-2.82v-23.08c-1.94-.66-3.46-1.6-4.57-2.82l.83-6.39ZM222.5,1.08c3.15-.72,6.17-1.08,9.05-1.08s5.34.08,7.39.25v49.81c1.66.28,3.18.75,4.57,1.41v6.56c-3.32,1.77-7.53,2.66-12.62,2.66-.55-.28-1.09-.77-1.62-1.49-.53-.72-.82-1.41-.87-2.08-1.22,1-2.8,1.84-4.73,2.53-1.94.69-3.85,1.04-5.73,1.04-5.98,0-10.31-1.62-12.99-4.86-2.69-3.24-4.03-8.54-4.03-15.9,0-8.36,2.05-14.22,6.14-17.6,3.6-2.99,8.02-4.48,13.28-4.48,2.32,0,4.65.28,6.97.83v-8.22c-2.55-.72-4.43-1.71-5.65-2.99l.83-6.39Zm-2.82,51.14c3.15,0,5.7-.94,7.64-2.82v-22.25c-2.27-.55-4.68-.83-7.22-.83s-4.39,1.12-5.52,3.36c-1.14,2.24-1.7,5.59-1.7,10.04s.55,7.65,1.66,9.59c1.11,1.94,2.82,2.91,5.15,2.91ZM18.13,94.92c-4.71,0-7.07,4.05-7.07,12.14,0,4.1.65,6.95,1.96,8.57,1.31,1.61,3.19,2.42,5.65,2.42,3.89,0,7.32-.36,10.3-1.08l2.31,5.92c-1.64,1.08-3.84,1.99-6.61,2.73-2.77.74-5.46,1.11-8.07,1.11-11.06,0-16.6-6.4-16.6-19.21,0-7.48,1.92-12.86,5.76-16.13,3.43-2.87,7.61-4.3,12.52-4.3s9.01.92,12.29,2.77c.05.51.08,1,.08,1.46,0,2.92-.67,5.69-2,8.3h-6.76c-.72-1.28-1.15-2.82-1.31-4.61-.61-.05-1.43-.08-2.46-.08Zm39.57,2.23c-3.89,0-6.58.74-8.07,2.23v17.59c4.15.77,6.99,1.84,8.53,3.23l-.77,5.92h-21.97l-.77-5.92c.72-.97,2.12-1.84,4.23-2.61v-21.36c-1.79-.62-3.2-1.49-4.23-2.61l.77-5.92c2.82-.61,5.35-.92,7.61-.92s4.12.05,5.61.15v4.84c1.18-1.38,2.69-2.52,4.53-3.42,1.84-.9,3.52-1.34,5.03-1.34s2.55.13,3.11.38l-.23,9.99c-1.02-.15-2.15-.23-3.38-.23Zm25.2,29.58c-6.15,0-10.77-1.64-13.87-4.92-3.1-3.28-4.65-8.04-4.65-14.29,0-3.79.54-7.06,1.61-9.8s2.54-4.85,4.38-6.34c3.58-2.87,7.76-4.3,12.52-4.3s8.41,1.22,10.95,3.65c2.54,2.43,3.8,6.8,3.8,13.1,0,3.69-1.82,5.53-5.46,5.53h-16.67c.2,3.23,1.04,5.51,2.5,6.84,1.46,1.33,3.78,2,6.95,2,1.74,0,3.41-.2,4.99-.61,1.59-.41,2.74-.82,3.46-1.23l1.08-.62,2.3,6.15c-.31.36-.76.81-1.34,1.34-.59.54-2.07,1.26-4.46,2.15s-5.08,1.34-8.11,1.34Zm4.84-24.2c.1-.72.15-1.59.15-2.61s-.41-2.11-1.23-3.27c-.82-1.15-2.24-1.73-4.26-1.73s-3.57.62-4.65,1.84c-1.08,1.23-1.79,3.3-2.15,6.22l12.14-.46Zm33.81-30.96c2.92-.66,5.71-1,8.37-1s4.94.08,6.84.23v46.1c1.54.26,2.94.69,4.23,1.31v6.07c-3.07,1.64-6.97,2.46-11.68,2.46-.51-.26-1.01-.72-1.5-1.38-.49-.67-.76-1.31-.81-1.92-1.13.92-2.59,1.7-4.38,2.34-1.79.64-3.56.96-5.3.96-5.53,0-9.54-1.5-12.02-4.5-2.49-3-3.73-7.9-3.73-14.71,0-7.73,1.89-13.16,5.69-16.29,3.33-2.77,7.43-4.15,12.29-4.15,2.15,0,4.3.26,6.45.77v-7.61c-2.36-.67-4.1-1.59-5.22-2.77l.77-5.92Zm-2.61,47.33c2.92,0,5.27-.87,7.07-2.61v-20.59c-2.1-.51-4.33-.77-6.68-.77s-4.06,1.04-5.11,3.11c-1.05,2.08-1.58,5.17-1.58,9.3s.51,7.08,1.54,8.87c1.02,1.79,2.61,2.69,4.76,2.69Zm26.2-31.19c2.87-.66,5.53-1,7.99-1s4.53.08,6.22.23v30.66c2,.77,3.41,1.64,4.23,2.61l-.77,5.92h-17.67l-.77-5.92c.72-.97,2.12-1.84,4.23-2.61v-21.36c-1.79-.62-3.2-1.49-4.23-2.61l.77-5.92Zm8.72-5.3c-4.28,0-6.42-1.93-6.42-5.8s2.14-5.8,6.42-5.8,6.42,1.93,6.42,5.8-2.14,5.8-6.42,5.8Zm26.78-4.38v9.68h10.99v6.45h-10.99v19.44c0,1.64.23,2.83.69,3.57.46.74,1.56,1.11,3.3,1.11s3.61-.38,5.61-1.15l2.31,5.99c-3.94,2-7.98,3-12.1,3s-6.92-.88-8.38-2.65c-1.46-1.77-2.19-4.34-2.19-7.72v-21.59h-3.46l-.85-4.69c.82-.97,2.51-1.95,5.07-2.92.61-4.2,2.07-7.04,4.38-8.53h5.61Zm-81.86,105.47c-3.53,2.56-7.7,3.84-12.49,3.84s-8.13-1-10.03-3c-1.9-2-2.84-5.25-2.84-9.76v-17.75c-1.79-.61-3.2-1.48-4.23-2.61l.77-5.92c2.87-.67,5.53-1,7.99-1s4.53.08,6.22.23v24.51c0,2.77.42,4.6,1.27,5.49.85.9,2.52,1.34,5.03,1.34s4.84-.82,6.99-2.46v-19.59c-1.79-.61-3.2-1.48-4.23-2.61l.77-5.92c2.87-.67,5.53-1,7.99-1s4.53.08,6.22.23v29.96c1.79.36,3.2.79,4.23,1.31v6.07c-3.07,1.64-6.94,2.46-11.6,2.46-1.28-.92-1.97-2.2-2.07-3.84Zm17.59-35.19c2.82-.62,5.35-.92,7.61-.92s4.12.05,5.61.15v3.84c1.28-1.08,2.98-1.96,5.11-2.65,2.12-.69,4.16-1.04,6.11-1.04,5.02,0,8.54,1.18,10.56,3.53,2.02,2.36,3.04,6.43,3.04,12.22v14.75c2,.77,3.41,1.64,4.23,2.61l-.77,5.92h-17.67l-.77-5.92c.72-.97,2.12-1.84,4.23-2.61v-15.21c0-2.77-.45-4.62-1.34-5.57-.9-.95-2.5-1.42-4.8-1.42s-4.61.82-6.91,2.46v19.75c2,.77,3.41,1.64,4.23,2.61l-.77,5.92h-17.67l-.77-5.92c.72-.97,2.12-1.84,4.23-2.61v-21.36c-1.79-.61-3.2-1.48-4.23-2.61l.77-5.92Zm45.87,0c2.87-.67,5.53-1,7.99-1s4.53.08,6.22.23v30.66c2,.77,3.41,1.64,4.23,2.61l-.77,5.92h-17.67l-.77-5.92c.72-.97,2.12-1.84,4.23-2.61v-21.36c-1.79-.61-3.2-1.48-4.23-2.61l.77-5.92Zm8.72-5.3c-4.28,0-6.42-1.93-6.42-5.8s2.14-5.8,6.42-5.8,6.42,1.93,6.42,5.8-2.14,5.8-6.42,5.8Zm30.58,44.33c-6.07,0-10.56-1.61-13.48-4.84-2.92-3.23-4.38-8.11-4.38-14.64s1.63-11.52,4.88-14.98c3.25-3.46,7.93-5.19,14.02-5.19s10.62,1.54,13.56,4.61c2.94,3.07,4.42,7.88,4.42,14.41s-1.65,11.6-4.96,15.21c-3.3,3.61-7.99,5.42-14.06,5.42Zm-6.8-20.13c0,8.2,2.46,12.29,7.38,12.29,2.51,0,4.37-.93,5.57-2.8,1.2-1.87,1.81-4.93,1.81-9.18,0-7.99-2.51-11.99-7.53-11.99-2.46,0-4.28.88-5.46,2.65-1.18,1.77-1.77,4.78-1.77,9.03Zm30.5-18.9c2.82-.62,5.35-.92,7.61-.92s4.12.05,5.61.15v3.84c1.28-1.08,2.98-1.96,5.11-2.65,2.12-.69,4.16-1.04,6.11-1.04,5.02,0,8.54,1.18,10.56,3.53,2.02,2.36,3.04,6.43,3.04,12.22v14.75c2,.77,3.41,1.64,4.23,2.61l-.77,5.92h-17.67l-.77-5.92c.72-.97,2.12-1.84,4.23-2.61v-15.21c0-2.77-.45-4.62-1.34-5.57-.9-.95-2.5-1.42-4.8-1.42s-4.61.82-6.91,2.46v19.75c2,.77,3.41,1.64,4.23,2.61l-.77,5.92h-17.67l-.77-5.92c.72-.97,2.12-1.84,4.23-2.61v-21.36c-1.79-.61-3.2-1.48-4.23-2.61l.77-5.92Zm2.77-24.13c-.91.91-2.01,1.37-3.3,1.37s-2.39-.46-3.29-1.37c-.9-.91-1.35-2.01-1.35-3.31s.46-2.38,1.36-3.29c.91-.91,2-1.36,3.28-1.36s2.39.45,3.3,1.36c.91.91,1.36,2,1.36,3.29s-.46,2.39-1.36,3.31Zm-6.13-6.14c-.78.78-1.17,1.73-1.17,2.84s.39,2.07,1.16,2.86c.78.79,1.72,1.18,2.84,1.18s2.06-.39,2.84-1.18,1.17-1.74,1.17-2.86-.39-2.05-1.17-2.84c-.78-.79-1.73-1.18-2.84-1.18s-2.05.39-2.83,1.18Zm2.74.26c.63,0,1.1.06,1.4.18.53.22.79.65.79,1.3,0,.46-.17.79-.5,1.01-.18.11-.42.2-.74.25.4.06.69.23.88.5.19.27.28.54.28.79v.37c0,.12,0,.25.01.38,0,.13.02.22.04.27l.03.06h-.84s0-.03-.01-.05c0-.02,0-.04-.01-.06l-.02-.16v-.41c0-.59-.16-.98-.48-1.17-.19-.11-.52-.16-1-.16h-.71v2.01h-.9v-5.12h1.79Zm.97.81c-.23-.13-.59-.19-1.09-.19h-.77v1.85h.81c.38,0,.67-.04.86-.11.35-.14.53-.41.53-.8,0-.37-.11-.62-.34-.75Z"/></svg>