<svg width="165" height="42" viewBox="0 0 165 42" fill="none" xmlns="http://www.w3.org/2000/svg">
<g clip-path="url(#clip0_4303_931)">
<mask id="mask0_4303_931" style="mask-type:luminance" maskUnits="userSpaceOnUse" x="0" y="0" width="165" height="42">
<path d="M0.335938 0H164.663V42H0.335938V0Z" fill="white"/>
</mask>
<g mask="url(#mask0_4303_931)">
<path d="M146.136 42.001C141.249 42.0262 136.546 40.1382 133.033 36.7408C131.317 35.1002 129.952 33.129 129.019 30.9463C128.086 28.7635 127.605 26.4143 127.605 24.0406C127.605 21.6669 128.086 19.3177 129.019 17.135C129.952 14.9522 131.317 12.981 133.033 11.3404C136.559 7.96436 141.252 6.07985 146.134 6.07985C151.016 6.07985 155.709 7.96436 159.236 11.3404C160.951 12.9809 162.317 14.9521 163.25 17.1349C164.183 19.3176 164.663 21.6668 164.663 24.0406C164.663 26.4144 164.183 28.7636 163.25 30.9463C162.317 33.1291 160.951 35.1003 159.236 36.7408C155.723 40.1375 151.022 42.0254 146.136 42.001ZM146.299 8.67707C139.926 8.67707 134.74 15.5425 134.74 23.9813C134.74 32.4202 139.926 39.2886 146.299 39.2886C152.673 39.2886 157.862 32.4212 157.862 23.9813C157.862 15.5414 152.673 8.67605 146.299 8.67605V8.67707ZM73.3534 41.5982H45.3755V38.9001H45.5933C46.7518 38.9261 47.9101 38.837 49.051 38.6343C49.3436 38.524 49.5884 38.315 49.7432 38.0433C49.9503 37.042 50.0364 36.0195 49.9998 34.9976C50.0407 33.3884 50.0683 31.5879 50.0826 29.493C48.549 28.944 47.0011 28.3684 45.5033 27.8112L44.6547 27.4963C40.4421 25.8599 36.1458 24.4477 31.7838 23.2656V27.4288C31.7838 29.9961 31.8155 32.5408 31.8799 34.9945C31.8372 36.0211 31.9266 37.0488 32.1457 38.0525C32.3034 38.3228 32.5498 38.5302 32.843 38.6394C33.952 38.833 35.0771 38.9186 36.2026 38.895H36.5042V41.587H20.1817V38.9001H20.3749C21.5394 38.9265 22.7036 38.8389 23.851 38.6384C24.1167 38.5457 24.3442 38.3678 24.4982 38.1323C24.7412 37.2905 24.8448 36.4147 24.8049 35.5395C24.8223 35.1305 24.8612 32.1993 24.9245 27.4247V21.8711C22.1884 21.4709 19.4268 21.2707 16.6615 21.272C11.241 21.302 5.84528 22.0064 0.598693 23.3689L0.335938 22.6123C7.19376 19.3345 14.6833 17.5901 22.2837 17.5003C23.1578 17.5003 24.0473 17.5249 24.9276 17.575V14.1806C24.9276 11.6113 24.8959 9.05331 24.8315 6.57707C24.8669 5.56042 24.7637 4.54368 24.5248 3.55487C24.3791 3.28987 24.1383 3.09 23.851 2.99562C22.6967 2.77772 21.5227 2.68109 20.3483 2.7073H20.1827V0H36.5042V2.70321H36.2997C35.1374 2.67525 33.9755 2.77191 32.8338 2.99153C32.5765 3.06791 32.3558 3.23548 32.2132 3.46285C31.9634 4.30778 31.8509 5.18732 31.8799 6.06792C31.8635 6.43905 31.8329 9.01651 31.7838 14.1796V18.4287C36.1866 19.3249 40.509 20.5787 44.7079 22.1778C46.4858 22.827 48.2014 23.4783 50.098 24.2021V14.1827C50.0479 8.93574 50.0192 6.43393 50.0039 6.07098C50.0347 5.19009 49.9211 4.3101 49.6675 3.46592C49.5309 3.23612 49.3113 3.06744 49.0541 2.9946C47.9131 2.77507 46.7518 2.67842 45.5902 2.70628H45.3847V0H61.697V2.70321H61.5314C60.3573 2.6771 59.1837 2.77373 58.0297 2.99153C57.7418 3.08658 57.5011 3.28812 57.357 3.55487C57.1091 4.54213 57.0057 5.56014 57.0503 6.57707C56.9869 8.99401 56.9552 11.552 56.9552 14.1806V26.7868C60.8473 28.2588 64.8328 29.471 68.8855 30.4152C72.7072 21.9099 78.3876 8.94494 79.3906 6.5239H81.8648L92.0949 30.6719C94.0763 35.3391 95.0895 37.2745 95.3522 37.756C95.5233 38.1346 95.7994 38.456 96.1477 38.6823C96.9975 38.8705 97.8674 38.9522 98.7374 38.9257C99.5691 38.9802 100.404 38.9047 101.213 38.7018C101.466 38.6368 101.692 38.4937 101.86 38.2928C102.069 37.6032 102.167 36.8846 102.149 36.1642C102.152 36.0823 102.149 36.0003 102.141 35.9188C102.141 35.8697 102.133 35.8166 102.132 35.7726C102.115 35.289 102.116 34.193 102.132 32.4222V30.3774C96.4452 31.2004 93.5099 31.3998 93.4813 31.3998L92.9701 30.6095C96.0702 29.892 99.1301 29.0105 102.137 27.9686V18.4726C102.137 16.3614 102.115 14.47 102.066 12.3383C102.101 11.5002 102.002 10.6621 101.774 9.85487C101.613 9.6209 101.37 9.45512 101.094 9.38968C100.371 9.18637 99.6203 9.1011 98.8703 9.13715H97.7764V6.48914C99.9009 6.55253 102.204 6.5832 105.028 6.5832C107.175 6.5832 109.36 6.56582 111.469 6.54844H111.491C112.55 6.54026 113.646 6.53106 114.71 6.52493C115.151 6.51164 115.516 6.50141 115.865 6.50141C117.941 6.42585 120.015 6.72081 121.989 7.37249C123.453 7.91685 124.706 8.91299 125.567 10.2168C126.432 11.5226 126.882 13.0593 126.858 14.6254C126.844 16.1486 126.479 17.6481 125.791 19.0074C124.289 22.1588 121.767 24.7111 118.634 26.251C115.449 27.7761 112.078 28.8797 108.608 29.5339V29.6086C108.608 31.6851 108.63 33.5663 108.679 35.7072C108.654 36.5567 108.748 37.4057 108.957 38.2294C109.127 38.4573 109.365 38.625 109.636 38.7079C110.303 38.8823 110.992 38.9574 111.681 38.9308H112.576V41.589H84.3871V38.9308H84.8952C85.6436 38.9515 86.3922 38.898 87.1301 38.7713C87.5473 38.6864 87.6546 38.5811 87.672 38.5607C87.7101 38.5207 87.7396 38.4735 87.759 38.4219C87.7783 38.3702 87.787 38.3152 87.7845 38.2601C87.7549 37.8425 87.6511 37.4336 87.4778 37.0526L85.5955 32.4703C81.3264 33.5376 76.9442 34.0868 72.5436 34.1061C72.0887 34.1061 71.6235 34.1 71.1736 34.0867L70.3271 36.066C69.993 36.7164 69.772 37.419 69.6738 38.1435C69.6677 38.2452 69.6989 38.3455 69.7617 38.4257C69.9207 38.5874 70.1282 38.6927 70.3526 38.7253C71.2599 38.8882 72.1815 38.9568 73.1029 38.9297H73.3513V41.588L73.3534 41.5982ZM57.0104 31.7484C57.0431 34.057 57.0625 35.2767 57.0717 35.5313C57.0321 36.4065 57.1357 37.2823 57.3784 38.1241C57.5361 38.362 57.7674 38.5416 58.0369 38.6353C59.116 38.8307 60.2122 38.9154 61.3085 38.8878H61.5846C62.5257 38.8794 63.4646 38.795 64.3921 38.6353C64.6474 38.5537 64.8802 38.4137 65.072 38.2263C65.5042 37.6725 65.8588 37.0623 66.1261 36.4126C66.4154 35.8196 66.8254 34.9414 67.3448 33.8004C65.8633 33.644 64.5894 33.4681 63.4525 33.2636C61.2801 32.8715 59.1298 32.3658 57.0104 31.7484ZM78.861 16.0588L72.4434 31.1094C75.1952 31.5576 77.9787 31.7826 80.7668 31.7822C82.24 31.7822 83.744 31.7178 85.2387 31.592L78.861 16.0588ZM113.067 9.0666C111.601 9.08633 110.145 9.31422 108.743 9.74343C108.628 11.3649 108.573 13.7737 108.573 17.1047V26.3349C114.274 24.2625 119.555 21.5184 119.591 15.5108C119.609 14.3354 119.355 13.1718 118.85 12.1103C118.401 11.1362 117.638 10.3404 116.685 9.84976C115.561 9.29672 114.319 9.0278 113.067 9.0666Z" fill="black"/>
</g>
</g>
<defs>
<clipPath id="clip0_4303_931">
<rect width="165" height="42" fill="white"/>
</clipPath>
</defs>
</svg>
