<svg xmlns:xlink="http://www.w3.org/1999/xlink" xmlns="http://www.w3.org/2000/svg" width="410.805" height="38.211" viewBox="0 0 410.805 38.211">
    <path d="M305.445-31.47H304.1c-1.055 0-1.151.095-1.484.671l-7.909 14.611v6.9c0 .956 0 4.6 1.153 4.6h2.59v1.82h-14.136v-1.82c2.348 0 2.683 0 2.683-.477v-10.451L281.1-26.969c-2.3-4.407-2.634-4.5-4.115-4.5h-1.06v-1.822h14.422v1.822h-1.962c-.626 0-.766 0-.766.286 0 .527 1.719 3.5 6.127 12.362 3.979-7.9 5.847-11.067 5.847-12.121 0-.527-.382-.527-1.146-.527H296.1v-1.822h9.347v1.822" transform="translate(-14.856 40.003)" style="fill:#002654"/>
    <path d="M21.349-3.25H0v-2.159h3.237c2.614 0 3.011 0 3.011-.568v-18.736c0-3.522 0-12.094-1.645-12.094H0v-2.158l15.048-1.365v29.47c0 1.137 0 5.451 1.362 5.451h4.939v2.159" transform="translate(0 40.382)" style="fill:#002654"/>
    <path d="M43.849-29.031a.769.769 0 0 1-.767.911c-.673 0-.816-.385-.957-.911-.53-2.252-3.212-3.115-5.272-3.115-2.781 0-5.94 1.58-5.94 4.7 0 5.024 7.235 3.876 12.55 8.235a9.506 9.506 0 0 1 3.021 6.852c0 4.312-3.259 10.347-12.745 10.347A24.449 24.449 0 0 1 25.213-3.5a46.321 46.321 0 0 1-.959-4.787c0-.672.239-.957.908-.957s.816.523 1.009 1.051c1.147 3.166 5.7 4.075 7.284 4.075 3.5 0 6.7-2.061 6.7-5.846 0-5.51-7.857-4.839-12.216-8.385a7.891 7.891 0 0 1-3.064-6.512c0-6.517 6.369-9.391 12.073-9.391a20.333 20.333 0 0 1 6.561.909l.337 4.312" transform="translate(-1.306 40.055)" style="fill:#002654"/>
    <path d="M71.216-2.871H54.11v-1.82c3.977 0 4.31 0 4.31-.479v-25.872h-.812c-7 0-7.809 1.967-8.1 2.588-.338.767-.575 1.2-1.147 1.2a.682.682 0 0 1-.767-.671 49.577 49.577 0 0 1 1.528-5.367h26.3a49.764 49.764 0 0 1 1.534 5.367.682.682 0 0 1-.768.671c-.575 0-.814-.432-1.146-1.2-.29-.621-1.105-2.588-8.1-2.588h-.815v21.755c0 .956 0 4.6 1.153 4.6h3.928v1.82" transform="translate(-2.563 40.003)" style="fill:#002654"/>
    <path d="M109.8-34.2a.909.909 0 0 1-.91 1.081c-.793 0-.962-.457-1.136-1.081-.623-2.669-3.8-3.692-6.243-3.692-3.294 0-7.041 1.872-7.041 5.564 0 5.963 8.576 4.6 14.875 9.768a11.259 11.259 0 0 1 3.578 8.121c0 5.11-3.859 12.263-15.1 12.263a29.171 29.171 0 0 1-10.107-1.757A55.061 55.061 0 0 1 86.58-9.61c0-.8.282-1.134 1.081-1.134s.96.622 1.189 1.246c1.362 3.75 6.757 4.828 8.634 4.828 4.142 0 7.947-2.445 7.947-6.929 0-6.53-9.311-5.734-14.479-9.937a9.36 9.36 0 0 1-3.634-7.722c0-7.722 7.554-11.128 14.308-11.128a24.186 24.186 0 0 1 7.779 1.075l.4 5.113" transform="translate(-4.662 40.385)" style="fill:#002654"/>
    <path d="M116.626-28.55c0-2.92-.767-2.92-1.487-2.92h-2.207v-1.822h24.437l-.385 3.45c-.1.672.047 2.011-.912 2.011-.618 0-.862-.285-.91-.863-.093-1-.476-1.291-1.385-1.629-2.492-.815-4.842-.861-8.481-.861-.671 0-.958 0-.958.767v10.109h2.634c5.366 0 5.555-.72 5.555-2.013V-23.9h1.629v8.528h-1.629v-.862c0-1.439 0-2.112-4.024-2.112h-4.165v5.991c0 6.466.287 7.379 1.246 7.379 4.5 0 10.442-.192 11.881-2.973.189-.43.334-.67.862-.67a.655.655 0 0 1 .718.717 42.553 42.553 0 0 1-1.345 5.031h-23.614v-1.82c2.2 0 2.541 0 2.541-.477V-28.55" transform="translate(-6.08 40.003)" style="fill:#002654"/>
    <path d="M167.341-29.27c-.1.619 0 1.578-.91 1.578-.672 0-.766-.43-.863-.96a1.643 1.643 0 0 0-.671-1.29 9.771 9.771 0 0 0-6.228-2.205c-4.929 0-10.965 5.03-10.965 13.944 0 6.417 2.967 14.083 10.491 14.083 2.729 0 7.9-1.869 8.621-5.031.1-.527.193-.957.863-.957a.719.719 0 0 1 .767.814c0 .671-.291 2.538-.481 4.84a29.012 29.012 0 0 1-11.928 2.44c-12.169 0-16.385-7.326-16.385-14.659 0-12.744 11.452-17.581 19.308-17.581a23.866 23.866 0 0 1 8.719 1.773l-.338 3.211" transform="translate(-7.519 40.055)" style="fill:#002654"/>
    <path d="M203.676-31.47h-1.726c-.433 0-.958 0-.958.481v16.766c0 12.262-11.5 12.262-13.849 12.262-1.148 0-12.12 0-12.12-9.915V-28.55c0-2.92-.767-2.92-1.487-2.92h-2.349v-1.822h14.138v1.822h-1.487c-.767 0-1.1 0-1.1.909v17.008c0 4.026 1.005 9.052 7.188 9.052 8.575 0 8.672-7.376 8.672-9.052v-14.8c0-1.967-.386-3.114-1.487-3.114h-2.348v-1.822h8.914v1.822" transform="translate(-9.217 40.003)" style="fill:#002654"/>
    <path d="M215.695-18.488h1.248c3.636 0 5.792-2.107 5.792-5.8 0-3.3-2.391-6.9-5.987-6.9-.621 0-1.052 0-1.052.527v12.169zm0 9.2c0 .956 0 4.6 1.145 4.6h2.783v1.82H205.44v-1.82c2.206 0 2.541 0 2.541-.477V-28.55c0-2.92-.767-2.92-1.487-2.92h-2.2v-1.822h15.426c1 0 10.726 0 10.726 9.2a6.531 6.531 0 0 1-6.226 5.992c2.3 4.265 5.365 9.245 8.148 12.214a2.917 2.917 0 0 0 2.485 1.2v1.82h-7.039c-1.867 0-2.345 0-2.968-.667-2.112-2.252-5.319-9.153-6.8-12.986h-2.348v7.238" transform="translate(-10.999 40.003)" style="fill:#002654"/>
    <path d="M234.5-33.292h14.177v1.822h-1.865c-.674 0-.816 0-.91.909v21.274c0 .956 0 4.6 1.146 4.6h2.777v1.82h-14.172v-1.82c2.2 0 2.541 0 2.541-.477V-28.55c0-2.92-.77-2.92-1.489-2.92h-2.2v-1.822" transform="translate(-12.626 40.003)" style="fill:#002654"/>
    <path d="M278.692-28.883c-.564-1.491-2.1-2.158-9.095-2.158h-.815v21.754c0 .956 0 4.6 1.148 4.6h3.93v1.82h-17.1v-1.82c3.971 0 4.31 0 4.31-.477v-25.878h-.816c-6.993 0-7.808 1.967-8.1 2.592-.333.763-.572 1.2-1.148 1.2a.682.682 0 0 1-.766-.671 50.542 50.542 0 0 1 1.534-5.367h26.3" transform="translate(-13.473 40.003)" style="fill:#002654"/>
    <path d="M324.7-10.632c0 6.88.342 6.88 2.015 6.88h2.657c6.687 0 7.911-4.225 7.911-6.78 0-3.243-1.525-8.4-9.932-8.4H324.7zm0-9.78c4.028 0 4.964.052 6.585.442 2.411-1.525 4.076-2.9 4.076-5.9a5.746 5.746 0 0 0-5.113-5.85h-3.735c-.923 0-1.813 0-1.813.493zm-3.194-5.014c0-5.6-.148-6.587-1.376-6.587h-2.9v-1.326h12.435c8.008 0 8.7 4.918 8.7 6.834 0 3.389-2.605 5.651-5.457 6.83v.1c4.277.984 7.572 3.883 7.572 8.4 0 4.576-3.443 9.044-11.549 9.044h-10.42v-1.325h2.013c.54 0 .985-.1.985-.491v-21.479" transform="translate(-17.08 40.006)" style="fill:#002654"/>
    <path d="M355.443-29.144c-2.505 5.789-3.947 9.265-5.64 13.607l10.085.005zm-6.266 15.2c-1.69 4.2-2.9 7.917-2.9 9.215a1.065 1.065 0 0 0 1.21 1.207h3.138v1.3h-9.8v-1.3c2.27 0 2.412 0 2.794-.964l12.217-28.959a11.529 11.529 0 0 1 2.5-.524c.194 0 .293.141.293.332 0 .578-.823.487-.823 1.5 0 1.932 6.807 21.328 8.592 25.58.677 1.595 1.3 3.038 2.363 3.038h1.786v1.3h-9.94v-1.3h2.412c.817 0 .913-.1.913-.482s-1.929-5.837-3.422-9.94h-11.333" transform="translate(-18.351 40.04)" style="fill:#002654"/>
    <path d="M395.518-7.6h.1v-16.848c0-6.9-.537-7.048-1.6-7.048h-2.7v-1.3h8.831v1.3h-1.977c-.532 0-.965.1-.965.483v28.52c0 .436 0 .725-.343.725a.482.482 0 0 1-.333-.2L375.15-28.6h-.1v18.1c0 6.9.532 7.047 1.595 7.047h2.7v1.3h-8.831v-1.3h1.986c.534 0 .963-.1.963-.482v-23.989c0-1.741-.429-3.573-2.118-3.573h-2.176v-1.3h6.127L395.518-7.6" transform="translate(-19.876 39.977)" style="fill:#002654"/>
    <path d="M411.373-15.761c12.6-11.728 15.059-14.428 15.059-15.394 0-.342-.344-.342-.631-.342h-3.617v-1.3h9.888v1.3h-1.69c-.478 0-.571.05-1.106.632l-12.209 12.11c7.53 8.736 10.278 12.645 12.5 14.673.628.577.818.626 2.994.626v1.3H427.3c-.675-.049-.865-.288-1.447-1.005-2.365-2.9-6.228-8.594-10.861-13.71l-3.617 3.09v3.28c0 6.9.53 7.047 1.591 7.047h2.7v1.3h-10.374v-1.3h1.977c.535 0 .97-.1.97-.482v-21.089c0-5.508-.153-6.471-1.355-6.471h-2.846v-1.3h10.376v1.3h-1.929c-.582 0-1.111 0-1.111.483v15.253" transform="translate(-21.754 39.977)" style="fill:#002654"/>
</svg>