<svg xmlns="http://www.w3.org/2000/svg" xmlns:xlink="http://www.w3.org/1999/xlink" version="1.1" id="Layer_1" x="0px" y="0px" viewBox="0 0 898.6 170.7" style="enable-background:new 0 0 898.6 170.7;" xml:space="preserve" width="898.6"  height="170.7" >
  <style type="text/css">
	.st0{fill:#34A34C;}
	.st1{fill:#081828;}
	.st2{fill:#FFFFFF;}
</style>
  <g>
    <g>
      <g>
        <path class="st0" d="M50.9,90.6c22.7,24.3,46.9,20.8,70.5,10.6c21.8-9.4,52.2-26.7,81.4,7.7c0.8,0.9,2.3,0,1.7-1.1     c-11.8-23.4-26.2-48.4-61.1-39c-7.9,2.1-35.3,12.5-48.5,16.1c-18.3,4.9-35.9,6.4-62.3-29.9c-0.7-1-2.2-0.1-1.8,1     C35.7,67.6,40.9,79.9,50.9,90.6z"/>
      </g>
      <g>
        <path class="st0" d="M73.6,136.6c22.7,24.3,43.2,19.4,66.7,9.2c21.8-9.4,52.2-26.7,81.4,7.8c0.8,0.9,2.3,0,1.7-1.1     c-11.8-23.4-26.2-48.4-61.1-39c-7.9,2.1-35.3,12.5-48.5,16.1c-18.5,5-36.4,6.4-63.3-31.3c-0.5-0.7-1.6-0.1-1.2,0.7     C55.3,111.4,63.1,125.4,73.6,136.6z"/>
      </g>
      <g>
        <path class="st0" d="M32.2,47.3C54.9,71.5,79.2,68,102.7,57.8c21.8-9.4,52.2-26.7,81.4,7.7c0.8,0.9,2.3,0,1.7-1.1     C174,41,159.7,16,124.7,25.4c-7.9,2.1-35.3,12.5-48.5,16.1c-18.3,4.9-35.9,6.4-62.3-29.9c-0.7-1-2.2-0.1-1.8,1     C17,24.3,22.3,36.6,32.2,47.3z"/>
      </g>
    </g>
    <g>
      <path class="st1" d="M300.9,90.7c7.9,0.4,25.3,0.6,37.1-0.2c5.6-0.4,5.4-3.5,7.3-2.5c0.6,0.4,0.2,1.5-0.2,5.4    c-0.4,4.6-1.4,13.3-1.9,15.3c-0.4,1.4-2.7,1.4-2.7,0c0-7.7-4.8-9.5-12.8-9.9c-3.5-0.2-20.7-0.2-26.9,0c0,15.1,0.2,27.5,0.4,37.1    c0.2,16.6,4.4,18.4,14.7,19.5c1.4,0,1.5,2.5,0,2.5c-6.6-0.2-18.4-0.6-24.6-0.6c-4.3,0-15.9,0.4-22.4,0.6c-1.5,0-1.4-2.5,0-2.5    c10.2-1.2,12.4-2.9,12.8-19.5c0.4-13.5,0.4-28,0.4-41.8c0-11.8,0-22.4-0.4-34.6c-0.4-16-0.6-19.5-13.3-21.1c-1.4,0-1.7-2.5,0-2.5    c6.4,0.2,16.2,0.6,22.6,0.6c12.2,0,39.4-0.4,49.7-0.6c5.6,0,8.3,0.2,8.3,4.8c0,5-1.2,17.8-2.3,24.4c-0.2,1.4-2.9,1.4-2.7,0    c-0.2-9.7-5.8-19.7-15.7-20.5c-9.5-0.8-16.4-1-27.3-0.8C301.1,52.6,300.9,73.1,300.9,90.7z"/>
      <path class="st1" d="M385.7,144c0.8,9.7,2.7,10.2,10.1,11.4c1.4,0,1.5,2.5,0,2.5c-6.4,0-15.1-0.6-19.3-0.6    c-3.1,0-13.7,0.6-16.8,0.6c-1.4,0-1.2-2.3,0-2.5c4.3-1,6.6-1.7,7.3-11.4c1-15.9,0.4-38.5,0.2-45c-0.4-10.6-2.7-14.5-8.5-14.5h-2.3    c-1.4,0-1.7-2.3-0.2-2.5c12.4-2.5,20.7-4.8,25.9-4.8c2.9,0,3.5,1.5,3.5,6C385.6,104.2,384.8,132.8,385.7,144z M374.1,37.3    c6.8,0,12.6,5.8,12.6,12.6c0,6.8-5.8,12.6-12.6,12.6c-6.8,0-12.6-5.8-12.6-12.6C361.6,43.1,367.4,37.3,374.1,37.3z"/>
      <path class="st1" d="M432.9,101.1c2.7-10.2,12.2-24.6,26.1-24.6c7.7,0,9.9,3.1,8.1,12.8l-1.4,9.9c-0.4,1-2.3,1-2.3-0.2    c0.2-7-4.4-8.9-10.6-8.9c-5.6,0-11.8,2.1-15.7,8.1c-3.7,5.6-4.1,11.8-4.3,18.8c-0.2,5.6-0.4,14.5,0.4,27.5    c0.6,8.7,1.9,10.1,13.7,11c1.4,0,1.5,2.5,0,2.5c-8.9,0-16.2-0.6-20.3-0.6c-3.3,0-14.7,0.6-19.5,0.6c-1.5,0-1.4-2.5,0-2.5    c4.6-0.8,6.8-2.9,7.3-11c0.8-9.5,0.6-39.4,0.2-45.4c-0.6-10.6-2.7-14.5-8.5-14.5h-2.3c-1.4,0-1.7-2.3-0.2-2.5    c12.4-2.5,20.7-4.8,25.9-4.8c2.9,0,3.5,1.5,3.5,6C433.1,88.9,433.1,95.1,432.9,101.1z"/>
      <path class="st1" d="M473.5,146.5c0-4.1,0.8-9.7,1.9-15.7c0.4-1.7,2.3-1.5,2.3,0c1.7,15.3,10.4,24.4,24.2,24.2    c11.4-0.2,16.6-6.4,16.6-13.5c0-7.3-5.4-11.2-18.9-16.8c-17.2-7-24.6-14.7-24.7-26.1c0-13.3,9.9-22.2,28.8-22.4    c7.3,0,14.9,1,18.9,2.5c5.4,2.1,6,4.6,5.8,8.7c-0.2,3.7-1.2,11.2-1.9,14.1c-0.4,1.2-1.9,1.2-2.1,0c-2.1-13.3-11-20.9-20.9-20.7    C494.8,81,490,85.4,490,92.2c0,6.8,4.3,10.4,18.2,16.4c17.8,7.5,24.9,13.9,25.1,26.5c0,13.7-11.8,24.6-32.7,24.7    c-7.9,0-14.1-1-18.6-2.3C476.6,156,473.5,153.3,473.5,146.5z"/>
      <path class="st1" d="M568.5,135.5c1,9.9,5.2,15.3,14.5,15.3c6.2,0,11.4-3.5,13.9-8.7c1-1.9,3.5-0.8,2.9,1    c-3.1,9.9-10.1,16.2-24,16.2c-14.5,0-24-6.8-25.3-21.3c-1.2-13.1-0.2-31.3-0.2-52.4c-2.7,0-8.1,0-11.4,1.2    c-1.2,0.4-1.7-1.7-0.6-2.3c3.7-2.3,9.7-6.2,15.9-10.8c5.4-4.1,10.4-9.5,13.7-12.4c1.2-1,2.3,0.4,1.7,1.5c-0.4,1.4-1,3.3-1.2,7    c-0.2,2.7-0.2,7.3-0.2,9.3c3.3,0,10.4-0.2,20.5-0.2c3.3,0,5.2-0.2,7.5-1c-0.4,2.7-2.1,7.3-3.5,7.9c-5.2,0-13.5-0.2-24.6-0.2    C567.5,106.9,567.3,124.1,568.5,135.5z"/>
      <path class="st1" d="M663.8,90.7c7.9,0.4,25.3,0.6,37.1-0.2c5.6-0.4,5.4-3.5,7.3-2.5c0.6,0.4,0.2,1.5-0.2,5.4    c-0.4,4.6-1.4,13.3-1.9,15.3c-0.4,1.4-2.7,1.4-2.7,0c0-7.7-4.8-9.5-12.8-9.9c-3.5-0.2-20.7-0.2-26.9,0c0,15.1,0.2,27.5,0.4,37.1    c0.2,16.6,4.4,18.4,14.7,19.5c1.4,0,1.5,2.5,0,2.5c-6.6-0.2-18.4-0.6-24.6-0.6c-4.3,0-15.9,0.4-22.4,0.6c-1.5,0-1.4-2.5,0-2.5    c10.2-1.2,12.4-2.9,12.8-19.5c0.4-13.5,0.4-28,0.4-41.8c0-11.8,0-22.4-0.4-34.6c-0.4-16-0.6-19.5-13.3-21.1c-1.4,0-1.7-2.5,0-2.5    c6.4,0.2,16.2,0.6,22.6,0.6c12.2,0,39.4-0.4,49.7-0.6c5.6,0,8.3,0.2,8.3,4.8c0,5-1.2,17.8-2.3,24.4c-0.2,1.4-2.9,1.4-2.7,0    c-0.2-9.7-5.8-19.7-15.7-20.5c-9.5-0.8-16.4-1-27.3-0.8C664,52.6,663.8,73.1,663.8,90.7z"/>
      <path class="st1" d="M755.8,76.2c17.6,0,29,14.7,29.4,29.6c0,3.9-0.6,5.2-5.2,5.2c-5.2,0-15.9-0.2-24.9-0.2    c-8.7,0-13.9,0-18.4,0.2c-0.2,2.3-0.2,4.3-0.2,8.3c0.4,22,12.2,31.1,28,31.1c6.8,0,14.9-2.1,21.3-8.7c1-1,2.3,0.2,1.7,1.4    c-5,10.1-15.1,16.8-30.5,16.8c-20.9,0-38.9-11-39.4-39.6C717.2,95.3,732.2,76.2,755.8,76.2z M737.1,106.1    c5.2,0.2,10.2,0.2,15.9,0.2c5.6,0,11,0,16-0.2C769.4,98,767.6,81,755,81C742.7,81,738.4,93.7,737.1,106.1z"/>
      <path class="st1" d="M828.9,159.3c-18.8,0-36-11.4-36-38.7c0-29.8,22.6-44.1,41.8-44.1c7.9,0,14.5,1.4,18,3.3    c0.4-9.9-0.2-21.5-0.6-27.8c-0.6-10.6-2.7-14.5-8.5-14.5h-2.3c-1.4,0-1.7-2.3-0.2-2.5c12.4-2.3,21.7-4.6,26.3-4.6    c2.5,0,3.1,1.4,3.1,5.8c0.6,22-0.4,65.4-0.4,94.7c0,20.5,3.1,21.8,13.3,21.1c1.2,0,1.2,2.3,0,2.5c-6.2,1.4-14.9,2.9-18.8,3.7    c-7.5,1.5-11.4,0.8-12-9.5C847.3,154.7,839.3,159.3,828.9,159.3z M833.9,81.4c-11,0-21.8,9.9-21.8,34.2c0,24.6,8.1,35.2,22.8,35.2    c8.3,0,12.8-2.5,17.6-6.6c-0.2-1.5-0.2-5.4-0.2-8.5c-0.2-18.6,0.2-34.2,0.4-46.4C849.4,86.2,844,81.4,833.9,81.4z"/>
    </g>
  </g>
</svg>