<svg width="365" height="83" viewBox="0 0 365 83" fill="none" xmlns="http://www.w3.org/2000/svg">
<g clip-path="url(#clip0_735_421)">
<path d="M55.4396 28.4785C57.6596 24.3885 62.1096 16.4985 63.0296 14.8385C66.6796 8.58853 61.0996 -0.171469 53.9796 -0.00146907C52.0696 -0.00146907 50.1496 0.588531 48.4496 1.70853C46.2596 3.13853 38.4796 9.36853 32.0996 14.5285C25.7096 9.36853 17.9296 3.14853 15.7396 1.70853C14.0296 0.588531 12.1196 -0.00146907 10.2096 -0.00146907C3.08963 -0.171469 -2.50037 8.58853 1.14963 14.8285C2.06963 16.4885 6.51963 24.3985 8.73963 28.4885C6.51963 32.5785 2.06963 40.4885 1.14963 42.1485C-2.49037 48.3985 3.08963 57.1485 10.2096 56.9785C12.1196 56.9785 14.0396 56.3885 15.7396 55.2685C17.9296 53.8385 25.7096 47.6085 32.0896 42.4485C38.4696 47.6085 46.2496 53.8385 48.4396 55.2685C50.1496 56.3885 52.0596 56.9785 53.9696 56.9785C61.0896 57.1485 66.6696 48.3985 63.0296 42.1485C62.1096 40.4885 57.6596 32.5585 55.4396 28.4685V28.4785ZM28.1096 39.2385C21.9496 44.2185 14.8896 49.8585 12.9896 51.0985C12.0396 51.7185 11.0896 51.9885 10.1996 51.9885C6.57963 51.9885 3.86963 47.5685 5.51963 44.5985C6.77963 42.3285 14.4296 28.4785 14.4296 28.4785C14.4296 28.4785 6.73963 14.6085 5.51963 12.4085C3.86963 9.43853 6.57963 5.01853 10.1996 5.01853C11.0896 5.01853 12.0396 5.28853 12.9896 5.90853C14.8896 7.14853 21.9396 12.7885 28.1096 17.7685C25.3196 20.0385 23.3196 21.6785 23.0496 21.8985C20.8696 23.6785 19.6496 26.0285 19.5896 28.5085C19.6496 30.9885 20.8696 33.3385 23.0496 35.1185C23.3096 35.3285 25.3196 36.9785 28.1096 39.2485C28.8096 38.6819 28.8096 38.6819 28.1096 39.2485V39.2385ZM32.0896 36.0085C29.1896 33.6585 26.9296 31.7985 26.2296 31.2285C25.2396 30.4185 24.6296 29.4585 24.6196 28.4885C24.6196 27.4885 25.2396 26.5685 26.2296 25.7485C26.9196 25.1785 29.1896 23.3285 32.0896 20.9685C34.9896 23.3185 37.2596 25.1785 37.9496 25.7485C38.9396 26.5585 39.5596 27.5085 39.5596 28.4885C39.5496 29.4685 38.9396 30.4085 37.9496 31.2285C37.2596 31.7985 34.9896 33.6485 32.0896 36.0085ZM53.9796 51.9785C53.0896 51.9785 52.1396 51.7085 51.1896 51.0885C49.2896 49.8485 42.2396 44.2085 36.0696 39.2285C38.8596 36.9585 40.8596 35.3185 41.1296 35.0985C43.3096 33.3185 44.5296 30.9685 44.5896 28.4885C44.5296 26.0085 43.3096 23.6585 41.1296 21.8785C40.8696 21.6685 38.8596 20.0185 36.0696 17.7485C41.1096 13.6685 49.6696 6.82853 51.1896 5.88853C52.1396 5.26853 53.0896 4.99853 53.9796 4.99853C57.5996 4.99853 60.3096 9.41853 58.6596 12.3885C57.4196 14.6285 49.7496 28.4685 49.7496 28.4685C49.7496 28.4685 57.3996 42.3185 58.6596 44.5885C60.3096 47.5585 57.5996 51.9785 53.9796 51.9785Z" fill="#FFA300"/>
<path d="M203.567 73.7283C202.447 81.0683 193.967 84.5483 187.487 81.8783C177.947 78.3783 177.937 63.9583 187.487 60.4583C193.727 57.8583 202.327 61.1183 203.467 68.2683H198.447C195.837 61.1083 184.967 63.5783 185.327 71.1483C184.987 78.9283 196.167 81.2983 198.477 73.7283H203.557H203.567Z" fill="#ADB4FF"/>
<path d="M205.18 82.4084V66.5084H209.18L209.52 69.2884C210.39 66.8884 213.05 65.7484 215.52 66.3084V70.4084C212.34 69.5884 209.49 72.2484 209.69 75.4584V82.4084H205.18Z" fill="#ADB4FF"/>
<path d="M231.927 70.9675C228.507 62.9075 215.717 65.5175 215.997 74.4775C215.727 83.9275 229.427 85.9175 232.297 77.2575H227.857C226.097 80.4175 220.547 79.1975 220.397 75.5275H232.397C232.647 74.0275 232.447 72.3075 231.927 70.9675ZM220.487 72.8475C221.087 68.7775 227.567 68.7575 228.137 72.8475H220.487Z" fill="#ADB4FF"/>
<path d="M246.88 80.5081C245.08 82.8281 241.26 83.3281 238.56 82.1181C235.55 80.8181 233.89 77.6681 233.93 74.4081C233.89 71.1681 235.56 68.0581 238.56 66.7781C241.24 65.6081 244.96 66.0781 246.75 68.3681V59.0781H251.26V82.3981H247.09L246.89 80.4981L246.88 80.5081ZM244.22 78.4881C249.22 76.0081 246.19 68.2881 240.78 70.4081C235.84 72.7681 238.9 80.6981 244.22 78.4881Z" fill="#ADB4FF"/>
<path d="M254.016 82.4078V66.5078H258.526V82.4078H254.016Z" fill="#ADB4FF"/>
<path d="M260.344 66.5094H263.194V62.1694L267.604 61.3594V66.5094H272.314V70.1994H267.634V76.1694C267.514 78.6794 270.034 79.0294 271.974 78.6394V82.5394C268.894 83.2194 264.844 82.5994 263.634 79.2994C262.824 77.5794 263.264 72.1394 263.164 70.1994H260.354V66.5094H260.344Z" fill="#ADB4FF"/>
<path d="M280.596 59.9397H285.236V73.7297C285.116 76.5797 287.556 78.5997 290.316 78.4797C293.076 78.6097 295.486 76.5697 295.396 73.7297V59.9397H300.036V74.1797C300.256 79.5797 295.386 82.9597 290.306 82.7497C285.236 82.9597 280.386 79.5497 280.576 74.1697V59.9297L280.596 59.9397Z" fill="#ADB4FF"/>
<path d="M302.867 66.5074H306.767L307.137 68.3674C309.847 64.8374 316.777 65.5874 318.157 70.0274C318.977 71.7174 318.467 80.4074 318.597 82.3974H314.087V73.6874C314.107 71.6174 312.987 70.2274 310.937 70.2274C309.017 70.1674 307.367 71.6974 307.407 73.6474L307.377 82.3874H302.867V66.4874V66.5074Z" fill="#ADB4FF"/>
<path d="M321.258 82.4078V66.5078H325.768V82.4078H321.258Z" fill="#ADB4FF"/>
<path d="M328.497 71.1599C330.607 65.7099 338.627 64.5799 342.627 68.5299C347.947 73.8299 344.077 82.9899 336.457 82.7499C330.327 82.9799 326.107 76.7399 328.487 71.1599H328.497ZM338.157 78.4399C343.167 76.0899 340.067 68.3399 334.747 70.4799C329.737 72.8699 332.807 80.5599 338.157 78.4399Z" fill="#ADB4FF"/>
<path d="M347.156 66.5074H351.056L351.426 68.3674C354.136 64.8374 361.066 65.5874 362.446 70.0274C363.266 71.7174 362.756 80.4074 362.886 82.3974H358.376V73.6874C358.396 71.6174 357.276 70.2274 355.226 70.2274C353.306 70.1674 351.656 71.6974 351.696 73.6474L351.666 82.3874H347.156V66.4874V66.5074Z" fill="#ADB4FF"/>
<path d="M109.426 30.5328C108.276 28.8328 106.556 27.5528 104.276 26.6628C112.326 21.7528 109.626 9.27281 101.066 6.58281C99.3762 5.94281 97.5062 5.63281 95.4362 5.63281H76.1562V49.2528H97.6662C99.7762 49.2528 101.676 48.9428 103.386 48.3328C110.726 46.0928 113.646 36.7228 109.406 30.5328H109.426ZM99.0662 13.8928C102.296 16.2128 101.446 22.4428 97.4262 23.6628C95.8762 24.5228 86.1362 23.9828 84.1362 24.1228V12.4128H94.3362C96.1762 12.4128 97.7562 12.9028 99.0762 13.8928H99.0662ZM102.716 39.0528C101.766 41.3728 99.3362 42.5728 96.8262 42.5428H84.1262V30.4328H96.8262C101.476 30.2428 104.346 34.8628 102.716 39.0528Z" fill="#290E86"/>
<path d="M143.207 26.9825C140.247 18.5825 129.397 15.7125 121.757 19.0925C109.787 24.1725 109.647 43.4125 121.627 48.5625C129.917 52.1925 141.267 48.5525 143.867 39.3825L136.167 39.4525C134.137 43.3125 128.787 44.1825 125.047 42.6125C122.237 41.4325 120.607 38.7425 120.197 35.7725H144.117C144.617 32.8825 144.197 29.5625 143.197 26.9925L143.207 26.9825ZM120.357 30.7725C121.887 21.7725 135.427 21.8725 136.817 30.7725H120.357Z" fill="#290E86"/>
<path d="M172.592 18.4011H179.172V46.4911C179.172 49.0311 178.792 51.3111 178.022 53.3311C175.732 59.7511 169.512 63.0011 162.792 62.8711C155.442 63.0911 148.372 58.7211 146.932 51.2911H154.502C156.472 56.8511 165.272 57.7311 169.142 53.8911C170.782 52.3311 171.612 50.1111 171.612 47.2111V45.2411C167.992 49.8211 160.452 50.7811 155.062 48.4311C149.162 45.9511 145.722 39.9311 145.822 33.5311C145.722 27.1811 149.182 21.2511 155.062 18.8911C160.542 16.6311 168.162 17.5811 171.742 22.3411L172.602 18.3911L172.592 18.4011ZM166.012 42.4111C171.832 39.9511 173.342 31.4411 168.902 27.0111C163.072 21.2511 153.052 25.2111 153.242 33.5911C152.962 40.2411 159.892 45.2811 166.002 42.4111H166.012Z" fill="#290E86"/>
<path d="M184.678 14.2411C179.258 11.7011 182.688 3.71108 188.298 5.92108C193.758 8.46108 190.338 16.3911 184.678 14.2411ZM182.668 49.2511V18.3911H190.238V49.2511H182.668Z" fill="#290E86"/>
<path d="M194.055 18.3995H200.635L201.225 22.1495C205.425 16.3995 215.675 16.3695 220.505 21.2595C222.865 23.6695 223.865 27.0195 223.865 30.4995V49.2495H216.365V32.1395C216.415 27.5695 213.885 24.6995 209.395 24.7095C205.265 24.5895 201.585 27.8195 201.765 32.0795L201.635 49.2495H194.065V18.3895L194.055 18.3995Z" fill="#290E86"/>
<path d="M227.273 18.3995H233.853L234.443 22.1495C238.643 16.3995 248.893 16.3695 253.723 21.2595C256.083 23.6695 257.083 27.0195 257.083 30.4995V49.2495H249.583V32.1395C249.633 27.5695 247.093 24.6995 242.613 24.7095C238.483 24.5895 234.803 27.8195 234.983 32.0795L234.853 49.2495H227.283V18.3895L227.273 18.3995Z" fill="#290E86"/>
<path d="M262.506 14.2411C257.086 11.7011 260.516 3.71108 266.126 5.92108C271.586 8.46108 268.166 16.3911 262.506 14.2411ZM260.496 49.2511V18.3911H268.066V49.2511H260.496Z" fill="#290E86"/>
<path d="M271.875 18.3995H278.455L279.045 22.1495C283.245 16.3995 293.495 16.3695 298.325 21.2595C300.685 23.6695 301.685 27.0195 301.685 30.4995V49.2495H294.185V32.1395C294.235 27.5695 291.695 24.6995 287.215 24.7095C283.085 24.5895 279.405 27.8195 279.585 32.0795L279.455 49.2495H271.885V18.3895L271.875 18.3995Z" fill="#290E86"/>
<path d="M330.444 18.4011H337.024V46.4911C337.024 49.0311 336.644 51.3111 335.874 53.3311C333.584 59.7511 327.364 63.0011 320.644 62.8711C313.294 63.0911 306.224 58.7211 304.784 51.2911H312.354C314.324 56.8511 323.124 57.7311 326.994 53.8911C328.634 52.3311 329.464 50.1111 329.464 47.2111V45.2411C325.844 49.8211 318.304 50.7811 312.914 48.4311C307.014 45.9511 303.574 39.9311 303.674 33.5311C303.574 27.1811 307.034 21.2511 312.914 18.8911C318.394 16.6311 326.014 17.5811 329.594 22.3411L330.454 18.3911L330.444 18.4011ZM323.864 42.4111C329.684 39.9511 331.194 31.4411 326.754 27.0111C320.924 21.2511 310.904 25.2111 311.094 33.5911C310.814 40.2411 317.744 45.2811 323.854 42.4111H323.864Z" fill="#290E86"/>
<path d="M345.504 38.7298C345.854 43.5098 352.014 44.9498 355.634 42.9098C357.144 42.1498 357.844 40.0198 356.754 38.6698C355.084 36.8998 352.344 36.8098 349.914 36.2998C346.404 35.5298 342.134 34.8598 340.074 31.5298C337.844 27.9198 339.344 22.2798 343.004 20.1198C350.254 15.3198 363.934 17.9498 364.124 28.2098H357.084C356.564 24.0198 351.014 22.7798 347.774 24.6598C346.514 25.2898 345.614 26.9198 346.524 28.1798C347.894 29.7198 350.094 29.9098 352.214 30.4498C356.184 31.2398 361.004 31.7298 363.534 35.2898C366.124 39.1098 364.344 44.9698 360.504 47.4298C352.854 52.7598 338.234 49.8398 338.464 38.7498H345.504V38.7298Z" fill="#290E86"/>
</g>
<defs>
<clipPath id="clip0_735_421">
<rect width="364.76" height="82.79" fill="white"/>
</clipPath>
</defs>
</svg>
