<svg xmlns:xlink="http://www.w3.org/1999/xlink" xmlns="http://www.w3.org/2000/svg" width="1560" height="154" viewBox="0 0 1560 154" fill="none">
<g clip-path="url(#clip0_833_16080)">
<path d="M341.487 17.4337C341.487 7.72716 349.26 0.140625 359.553 0.140625C369.846 0.140625 377.62 7.71383 377.62 17.4337C377.62 26.7535 369.846 34.7134 359.553 34.7134C349.26 34.7134 341.487 26.9402 341.487 17.4337ZM344.887 149.845H375.526V51.1264H344.887V149.845ZM283.048 9.76713H223.516V150.071H255.475V103.672H282.395C313.914 103.672 332.3 84.4058 332.3 56.833C332.3 27.9401 313.914 9.78046 283.048 9.78046V9.76713ZM276.488 76.2993H255.475V37.5533H276.701C293.114 37.5533 298.594 48.0598 298.594 56.153C298.594 66.0062 292.901 76.286 276.488 76.286V76.2993ZM490.084 118.325H460.312C457.685 124.232 450.245 128.178 440.619 128.178C427.699 128.178 418.952 120.512 418.512 108.912H488.551C489.204 106.072 489.858 101.472 489.858 95.5657C489.858 67.7661 469.938 47.8465 439.952 47.8465C409.966 47.8465 388.299 68.2061 388.299 100.379C388.299 131.672 409.312 152.911 440.605 152.911C465.991 152.911 485.911 139.125 490.071 118.325H490.084ZM418.952 88.9924C419.606 78.9259 427.712 72.7927 438.872 72.7927C450.032 72.7927 458.138 78.9259 458.565 88.9924H418.952ZM556.723 50.4731C546.003 50.4731 536.59 54.8464 533.31 64.6995L530.75 51.3531H503.324V150.071H533.964V103.886C533.964 85.9391 545.123 76.086 565.923 77.8326V51.3531C563.736 50.9131 560.23 50.4731 556.737 50.4731H556.723ZM700.601 47.8465C685.721 47.8465 674.561 54.4064 668.428 65.3528C662.961 54.633 651.135 47.8465 636.909 47.8465C625.962 47.8465 615.242 52.6597 609.109 60.5396L606.909 51.3397H579.55V150.058H610.189V94.2457C610.189 82.6459 616.536 74.5527 627.042 74.5527C636.895 74.5527 643.242 81.1126 643.242 92.7257V150.071H673.228V94.259C673.228 82.4459 679.574 74.3394 690.734 74.3394C699.494 74.3394 706.281 80.6859 706.281 92.7257V150.071H736.707V85.2858C736.707 62.5262 721.827 47.8598 700.587 47.8598L700.601 47.8465ZM746.12 100.592C746.12 131.232 768.226 152.898 801.052 152.898C833.665 152.898 855.771 131.232 855.771 100.592C855.771 69.5128 833.665 47.8465 801.052 47.8465C768.226 47.8465 746.12 69.5128 746.12 100.592ZM777.426 100.379C777.426 85.4992 786.839 75.206 801.066 75.206C815.292 75.206 824.705 85.4992 824.705 100.379C824.705 115.045 815.292 125.765 801.066 125.765C786.839 125.765 777.426 115.045 777.426 100.379ZM924.864 47.8465C911.944 47.8465 900.344 53.5397 894.224 62.0729L892.251 51.3531H866.865V150.071H897.291V95.139C897.291 83.3259 902.984 75.6593 915.024 75.6593C925.09 75.6593 931.664 81.1259 931.664 96.019V150.085H962.303V88.8058C962.303 64.2862 948.73 47.8731 924.877 47.8731L924.864 47.8465ZM1039.27 51.3531H1020.68V25.7402H990.036V51.3531H971.876V76.526H990.036V150.071H1020.68V76.526H1039.27V51.3531ZM1185.71 81.5392C1199.14 77.206 1208.46 66.8062 1208.46 50.1264C1208.46 27.3802 1190.91 11.7804 1160.81 11.7804H1101.89V150.631H1160.59C1190.49 150.631 1209.98 138.072 1209.98 114.019C1209.98 96.4723 1199.58 86.2858 1185.71 81.5259V81.5392ZM1159.29 38.4333C1172.29 38.4333 1177.05 47.7531 1177.05 54.4597C1177.05 61.6062 1171.85 70.0594 1159.29 70.0594H1133.07V38.4333H1159.29ZM1161.02 123.992H1133.07V93.019H1161.02C1171.21 93.019 1178.78 99.7389 1178.78 108.832C1178.78 118.152 1171.63 123.992 1161.02 123.992ZM1303.27 52.9397L1301.32 62.4729C1294.18 54.0197 1283.12 49.4731 1269.27 49.4731C1240.24 49.4731 1220.31 70.6994 1220.31 102.539C1220.31 133.085 1238.94 153.445 1266.46 153.445C1280.54 153.445 1292.88 148.031 1299.6 139.365V150.631H1328.63V52.9397H1303.28H1303.27ZM1274.46 126.165C1260.38 126.165 1251.28 115.979 1251.28 101.472C1251.28 86.7391 1260.38 76.7793 1274.46 76.7793C1288.54 76.7793 1298.28 86.5258 1298.28 101.259C1298.28 116.205 1288.54 126.165 1274.46 126.165ZM1404.79 49.4731C1392 49.4731 1380.52 55.0997 1374.46 63.5529L1372.51 52.9397H1347.38V150.631H1377.48V96.259C1377.48 84.5658 1383.11 76.9793 1395.03 76.9793C1404.99 76.9793 1411.5 82.3925 1411.5 97.1256V150.631H1441.83V89.9791C1441.83 65.7128 1428.4 49.4731 1404.79 49.4731ZM1560 52.9397H1522.52L1489.81 88.6858V2.03393H1459.48V150.631H1489.81V125.725L1503.45 111.645L1523.6 150.631H1557.83L1525.12 89.1124L1560 52.9397Z" fill="#191E25"/>
<path d="M138.264 51.1953V150.074H45.8652V104.194H92.3711V51.1953H138.264Z" fill="#7F7050"/>
<path d="M92.3717 5.40625V51.2721H45.8659V104.258H0V5.40625H92.3717Z" fill="#A39D88"/>
</g>
<defs>
<clipPath id="clip0_833_16080">
<rect width="1560" height="153.6" fill="white"/>
</clipPath>
</defs>
</svg>