<svg version="1.1" id="Layer_1" xmlns="http://www.w3.org/2000/svg" xmlns:xlink="http://www.w3.org/1999/xlink" x="0px" y="0px" viewBox="0 0 275.8 61.9" style="enable-background:new 0 0 275.8 61.9;" xml:space="preserve" width="304"  height="68" >
					<style type="text/css">.st0{fill:#F48024;}.st1{fill:#429439;}.st2{fill:#005A83;}.st3{fill:#929497;}</style>
					<g><polygon class="st0" points="30.8,0 15.5,15.3 21.9,15.3 39.6,33 39.6,15.3 46,15.3 	" fill="#F48024"></polygon><polygon class="st1" points="61.5,30.8 49.1,18.4 49.1,43.2 	" fill="#429439"></polygon><polygon class="st1" points="0,30.8 12.4,43.2 12.4,18.4 	" fill="#429439"></polygon><polygon class="st2" points="39.3,46.3 21.7,28.7 21.7,46.3 15.5,46.3 30.8,61.5 46,46.3 	" fill="#005A83"></polygon><g>
							<path class="st3" d="M270.3,12.1c0-0.4-0.2-0.8-0.8-0.8c-0.8,0-0.9,0.4-0.9,0.8c0,0.3,0.1,0.5,0.5,0.6c0.3,0.1,0.5,0.2,0.8,0.3c0.9,0.3,1.1,0.6,1.1,1.2c0,0.8-0.6,1.3-1.5,1.3c-0.5,0-1-0.1-1.3-0.7c-0.1-0.2-0.1-0.6-0.1-0.8h0.5c0,0.6,0.1,1,0.9,1
								c0.5,0,0.9-0.2,0.9-0.8c0-0.7-0.3-0.7-0.8-0.8c-0.3-0.1-0.7-0.2-0.9-0.3c-0.5-0.2-0.6-0.6-0.6-1c0-0.7,0.6-1.2,1.3-1.2c0.9,0,1.4,0.4,1.4,1.2H270.3z" fill="#929497"></path>
							<path class="st3" d="M274.9,11h0.9v4.3h-0.5v-3.6c0-0.2,0-0.4,0-0.5l0,0c-0.1,0.3-0.1,0.4-0.1,0.6l-1,3.5h-0.6l-1-3.6c0-0.1-0.1-0.3-0.1-0.5l0,0c0,0.2,0,0.4,0,0.6v3.5H272V11h0.9l0.9,3.4c0.1,0.2,0.1,0.4,0.1,0.6l0,0c0-0.2,0.1-0.4,0.1-0.6L274.9,11z" fill="#929497"></path>
							<polygon points="93.3,6.4 100.1,6.4 100.1,41.4 92.8,41.4 78.6,16.5 78.5,16.5 78.5,41.4 71.7,41.4 71.7,6.4 79.4,6.4 93.2,30.8 93.3,30.8 		"></polygon>
							<path d="M116.8,42c-7,0-13.2-4.3-13.2-13.6s6.3-13.6,13.2-13.6c7,0,13.2,4.3,13.2,13.6C130.1,37.8,123.8,42,116.8,42 M116.8,20.5c-5.3,0-6.2,4.6-6.2,7.9s1,7.9,6.2,7.9s6.2-4.6,6.2-7.9C123.1,25.1,122.1,20.5,116.8,20.5"></path>
							<path d="M133.8,15.5h6.5V20h0.1c1.4-2.6,3-5.2,7.1-5.2c0.4,0,0.9,0,1.3,0.1v6.9c-0.6-0.1-1.3-0.1-1.9-0.1c-5.3,0-6.3,3.3-6.3,6.2v13.5h-6.8L133.8,15.5L133.8,15.5z"></path>
							<path d="M162.8,15.5h4.2v4.9h-4.2v14.1c0,1.5,0,2.1,2.8,2.1c0.4,0,0.9,0,1.4-0.1v5.2c-1.1,0-2.1,0.1-3.2,0.1H163c-5.9,0-7-2.2-7-5.6V20.3h-3.5v-4.9h3.5v-7h6.8V15.5z"></path>
							<path d="M194.3,41.4h-6.8V25.6c0-1.9-0.1-5.1-4.4-5.1c-3,0-5.3,2-5.3,6v14.8H171V6.4h6.8v12.4h0.1c0.9-2.1,3.8-4,7.5-4c5.1,0,9,3,9,8.7v17.9H194.3z"></path>
							<path d="M222.3,33.8c-1.8,6.2-7,8.3-11.4,8.3c-7.3,0-12.9-3.5-12.9-14.1c0-3.1,1.1-13.1,12.4-13.1c5.1,0,12.2,2.4,12.2,14.2v1.2h-17.7c0.2,1.9,0.6,6.3,6.1,6.3c1.9,0,3.8-1,4.4-2.8H222.3z M215.6,25.8c-0.4-4.2-3.1-5.4-5.3-5.4c-3.2,0-4.9,2-5.3,5.4H215.6z"></path>
							<path d="M226.4,15.5h6.5V20h0.1c1.4-2.6,3-5.2,7.1-5.2c0.4,0,0.9,0,1.3,0.1v6.9c-0.6-0.1-1.3-0.1-1.9-0.1c-5.3,0-6.3,3.3-6.3,6.2v13.5h-6.8L226.4,15.5L226.4,15.5z"></path>
							<path d="M268.2,41.4h-6.8V25.6c0-1.9-0.1-5.1-4.4-5.1c-3,0-5.3,2-5.3,6v14.8h-6.8V15.5h6.5v3.8h0.1c0.9-1.6,2.9-4.5,7.8-4.5c5.1,0,9,3,9,8.7v17.9H268.2z"></path>
							<path class="st3" d="M99,56.3c-0.1-0.5-0.4-1.4-1.8-1.4c-0.8,0-2,0.5-2,2.8c0,1.5,0.6,2.8,2,2.8c0.9,0,1.6-0.5,1.8-1.5h1.7c-0.3,1.8-1.5,3-3.5,3c-2.2,0-3.7-1.5-3.7-4.2c0-2.8,1.6-4.3,3.7-4.3c2.4,0,3.4,1.7,3.5,2.9L99,56.3L99,56.3z" fill="#929497"></path>
							<path class="st3" d="M108.8,53.6h4.1c2.2,0,2.5,1.6,2.5,2.3c0,0.9-0.4,1.7-1.2,1.9c0.7,0.3,1,0.5,1,2c0,1.2,0,1.5,0.4,1.6v0.2h-1.9c-0.1-0.4-0.2-0.8-0.2-1.6c0-1.1-0.1-1.5-1.3-1.5h-1.7v3.2h-1.7C108.8,61.7,108.8,53.6,108.8,53.6z M112.4,57.2c0.9,0,1.3-0.3,1.3-1.1c0-0.4-0.2-1.1-1.2-1.1h-2.1v2.2C110.4,57.2,112.4,57.2,112.4,57.2z" fill="#929497"></path>
							<polygon class="st3" points="129.5,55 125.2,55 125.2,56.7 129.1,56.7 129.1,58.2 125.2,58.2 125.2,60.3 129.7,60.3 129.7,61.7 123.5,61.7 123.5,53.6 129.5,53.6 		" fill="#929497"></polygon>
							<path class="st3" d="M137.8,53.6h3.6c2.7,0,3.3,2.3,3.3,3.8c0,1.7-0.7,4.2-3.4,4.2h-3.5L137.8,53.6L137.8,53.6z M139.5,60.3h1.6c1.4,0,1.8-1.4,1.8-2.7c0-2.4-1.1-2.6-1.9-2.6h-1.6L139.5,60.3L139.5,60.3z" fill="#929497"></path>
							<rect x="152.6" y="53.6" class="st3" width="1.7" height="8.1" fill="#929497"></rect>
							<polygon class="st3" points="166,61.7 164.3,61.7 164.3,55 161.9,55 161.9,53.6 168.5,53.6 168.5,55 166,55 		" fill="#929497"></polygon>
							<path class="st3" d="M192.6,58.9c0,2.1-1.3,3-3.3,3c-0.7,0-1.8-0.2-2.6-1c-0.4-0.5-0.6-1.1-0.6-2v-5.4h1.7v5.2c0,1.1,0.7,1.6,1.4,1.6c1.2,0,1.6-0.6,1.6-1.5v-5.3h1.7v5.4H192.6z" fill="#929497"></path>
							<polygon class="st3" points="205.6,53.6 207.2,53.6 207.2,61.7 205.5,61.7 202.2,55.9 202.2,55.9 202.2,61.7 200.6,61.7 200.6,53.6 202.4,53.6 205.6,59.2 205.6,59.2 		" fill="#929497"></polygon>
							<rect x="215.5" y="53.6" class="st3" width="1.7" height="8.1" fill="#929497"></rect>
							<path class="st3" d="M229,53.4c1.1,0,3.9,0.5,3.9,4.3S230.1,62,229,62c-1.1,0-3.9-0.5-3.9-4.3S227.9,53.4,229,53.4 M229,60.5c0.9,0,2.2-0.6,2.2-2.8c0-2.3-1.3-2.8-2.2-2.8s-2.2,0.6-2.2,2.8S228.1,60.5,229,60.5" fill="#929497"></path>
							<polygon class="st3" points="245.9,53.6 247.5,53.6 247.5,61.7 245.8,61.7 242.5,55.9 242.5,55.9 242.5,61.7 240.9,61.7 240.9,53.6 242.7,53.6 245.9,59.2 245.9,59.2 		" fill="#929497"></polygon></g></g>
					</svg>