<svg xmlns:xlink="http://www.w3.org/1999/xlink" id="Layer_2" data-name="Layer 2" xmlns="http://www.w3.org/2000/svg" viewBox="0 0 766.32 76.26" width="766.32"  height="76.26" ><defs><style>      .cls-1-nav-logo {
            fill: #97d700;
          }
    
          .cls-1-nav-logo, .cls-2-nav-logo {
            stroke-width: 0px;
          }
    
          .cls-2-nav-logo {
            fill: #172752;
          }</style></defs><g id="Layer_1-2" data-name="Layer 1"><g><g><g><path class="cls-1-nav-logo" d="M738.68,20.59h-17.57l-15.28,15.69c-1.38,1.44-2.65,2.97-3.82,4.58v-3.92l.13-4.58V.06h-14.8v74.67h14.8v-18.39l5.99-5.6,15.02,23.99h17.96l-22.79-34.1,20.37-20.04ZM639.49,20.59h-14.14v54.14h14.8v-28.01c0-10.77,3.59-15.59,11.77-15.59,6.85,0,9.32,3.23,9.32,12.43v31.07h14.8v-34c0-7.16-.69-10.42-2.93-14.11-1.76-2.45-4.11-4.42-6.84-5.72-2.72-1.3-5.74-1.88-8.75-1.69-3.52-.19-7.03.53-10.19,2.11-3.16,1.57-5.85,3.93-7.82,6.86l-.03-7.49ZM615.37,74.73c-1.45-3.59-1.91-6.72-1.91-14.47v-22.23c0-7.95-.99-10.65-4.81-13.78-3.82-3.13-10.65-5.09-19.05-5.09-15.69,0-24.22,6.19-25.11,18.16h14.01c1.02-6.04,3.82-8.18,10.65-8.18s9.75,2.37,9.75,7.18c0,4.25-1.45,5.09-13.12,6.49-3.98.33-7.92,1.04-11.77,2.14-3.43.7-6.51,2.59-8.69,5.34-2.18,2.75-3.31,6.18-3.2,9.68,0,10.19,7.08,16.25,18.95,16.25,3.28.15,6.56-.36,9.64-1.5,3.08-1.14,5.91-2.88,8.31-5.12-.04,1.75.3,3.49.99,5.09l15.36.03ZM599.15,48.45v6.06c0,7.51-5.09,12.22-13.01,12.22-5.27,0-8.4-2.8-8.4-7.41s2.7-6.83,11-8.07c6.82-.99,7.84-1.22,10.41-2.8ZM515.1.39h-14.8v74.34h14.01v-6.85c3.59,5.6,9.19,8.3,16.94,8.3,14.24,0,23.99-11.77,23.99-29.03s-9.32-28.01-23.1-28.01c-3.28-.19-6.56.45-9.54,1.85-2.98,1.4-5.55,3.52-7.5,6.17V.39ZM527.51,30.62c7.84,0,12.89,6.49,12.89,16.58s-5.09,16.94-12.73,16.94-13.09-6.34-13.09-16.76,5.1-16.71,12.99-16.71" fill="#97D700" stroke-width="0px"></path><path class="cls-2-nav-logo" d="M492.54,19.67c-1.58,0-2.24-.2-3.36-.2-7.97,0-13.57,3.57-17.6,11.21v-10.19h-14.11v54.25h14.8v-22.64c-.12-3.36.21-6.72.99-9.98.91-2.79,2.71-5.21,5.12-6.89,2.41-1.68,5.29-2.54,8.23-2.43,1.96.02,3.91.2,5.83.56l.1-13.68ZM448.05,58.02h-14.24c-2.24,5.37-5.5,7.64-11,7.64-7.95,0-12.43-4.94-12.73-14.24h38.79v-1.68c0-18.74-10.44-30.74-26.69-30.74s-27.22,12.22-27.22,28.83,10.98,28.24,27.68,28.24c12.56,0,22.51-7.05,25.34-18.16M433.73,41.88h-23.58c.79-7.51,5.37-12.2,11.99-12.2s10.88,4.35,11.66,12.2M390.75,20.49h-14.9l-6.85,22.08c-1.94,6.1-3.51,12.32-4.69,18.62-1.18-6.36-2.75-12.65-4.71-18.82l-6.95-21.75h-15.71l18.85,54.14h16.58l18.39-54.27ZM304.77,19.01c-16.86.1-28.14,11.61-28.14,28.57s11.21,28.6,28.01,28.6,28.01-11.21,28.01-28.6-11.1-28.47-28.01-28.47M304.41,30.11c8.3,0,13.12,6.49,13.12,17.47s-4.81,17.83-12.89,17.83-13.22-6.49-13.22-17.6,4.91-17.6,12.99-17.6M230.55,20.59h-14.11v54.14h14.8v-28.01c0-10.77,3.56-15.59,11.76-15.59,6.83,0,9.3,3.23,9.3,12.43v31.07h14.8v-33.97c0-7.18-.66-10.44-2.9-14.13-1.76-2.45-4.11-4.42-6.84-5.72-2.73-1.3-5.74-1.88-8.75-1.69-3.53-.2-7.05.52-10.21,2.09-3.16,1.57-5.87,3.94-7.84,6.87v-7.49ZM206.41,74.73c-1.45-3.59-1.91-6.72-1.91-14.47v-22.23c0-7.95-.99-10.65-4.81-13.78-3.82-3.13-10.65-5.09-19.05-5.09-15.71,0-24.22,6.16-25.11,18.18h14.01c.99-6.06,3.79-8.2,10.65-8.2s9.75,2.37,9.75,7.18c0,4.25-1.45,5.09-13.12,6.49-3.98.33-7.92,1.04-11.76,2.14-3.44.7-6.52,2.59-8.7,5.34-2.18,2.75-3.31,6.18-3.2,9.69,0,10.19,7.05,16.25,18.95,16.25,3.26.13,6.52-.38,9.58-1.52,3.06-1.14,5.86-2.87,8.25-5.1-.03,1.75.31,3.49,1.02,5.09l15.46.03ZM190.19,48.45v6.06c0,7.51-5.09,12.22-12.99,12.22-5.27,0-8.4-2.8-8.4-7.41s2.67-6.83,10.98-8.07c6.85-.99,7.84-1.22,10.42-2.8ZM109.15.06h-14.8v74.67h14.8v-26.46c0-12.33,3.26-17.04,11.54-17.04,6.85,0,9.55,3.23,9.55,11.66v31.83h14.8v-34.3c0-6.62-.79-10.44-2.8-13.68-3.16-4.94-8.86-7.64-16.15-7.64-3.38-.14-6.73.62-9.72,2.19-2.99,1.57-5.51,3.91-7.31,6.77v-6.83l.1-21.19Z" fill="#172752" stroke-width="0px"></path></g><g><path class="cls-1-nav-logo" d="M744.79,28.61c0,.45.08.84.23,1.16s.37.58.64.78c.27.2.59.35.95.45.36.09.74.14,1.16.14.45,0,.83-.05,1.15-.16.32-.11.58-.24.77-.4.2-.17.34-.35.43-.57.09-.22.13-.43.13-.65,0-.45-.1-.78-.3-1s-.43-.37-.67-.45c-.42-.15-.9-.3-1.46-.44-.55-.14-1.24-.32-2.05-.54-.51-.13-.93-.3-1.26-.52-.34-.21-.6-.45-.8-.72-.2-.26-.34-.54-.42-.84-.08-.3-.12-.6-.12-.91,0-.59.12-1.11.37-1.54.25-.43.57-.79.98-1.08.41-.28.87-.5,1.39-.63.52-.14,1.04-.21,1.57-.21.62,0,1.2.08,1.74.24.54.16,1.02.4,1.44.72s.74.71.98,1.18c.24.47.36,1.01.36,1.62h-2.06c-.06-.76-.31-1.29-.77-1.61-.46-.31-1.05-.47-1.77-.47-.24,0-.49.02-.74.07-.25.05-.48.13-.69.25-.21.12-.38.27-.52.47s-.21.44-.21.74c0,.42.13.74.39.98.26.24.59.41,1.01.53.04.01.22.06.52.14.3.08.64.17,1.01.27.37.1.74.2,1.1.29.36.09.61.16.77.21.38.12.72.28,1.01.49.28.21.52.45.72.72.19.27.33.56.43.87.09.31.14.61.14.92,0,.66-.13,1.22-.4,1.69-.27.47-.62.85-1.06,1.15-.44.3-.94.51-1.5.65s-1.13.21-1.71.21c-.67,0-1.3-.08-1.9-.25-.59-.16-1.11-.42-1.55-.76-.44-.34-.79-.78-1.06-1.31-.26-.53-.4-1.16-.41-1.89h2.06Z" fill="#97D700" stroke-width="0px"></path><path class="cls-1-nav-logo" d="M754.1,20.76h2.9l3.25,9.22h.03l3.17-9.22h2.87v11.78h-1.96v-9.09h-.03l-3.27,9.09h-1.7l-3.27-9.09h-.03v9.09h-1.96v-11.78Z" fill="#97D700" stroke-width="0px"></path></g></g><g><rect class="cls-2-nav-logo" width="72.51" height="74.76" rx="8.18" ry="8.18" fill="#172752" stroke-width="0px"></rect><polygon class="cls-1-nav-logo" points="0 34.2 0 50.96 72.38 22.63 0 34.2" fill="#97D700" stroke-width="0px"></polygon></g></g></g></svg>