<svg xmlns:xlink="http://www.w3.org/1999/xlink" xmlns="http://www.w3.org/2000/svg" id="Brandmark" viewBox="0 0 502.86 93.59" width="502.86"  height="93.59" ><defs><style>.cls-1{fill:#1c57a5;}</style></defs><path d="M434.72,8.5c5.86,1.19,9.73-4,9.73-4,7.56-7.81,13.36-3.1,13.36-3.1,10.71-1.56,9.31,7.92,9.31,7.92A6.85,6.85,0,0,0,464,8c-2.59-.42-3.62,4.19-3.62,4.19a6,6,0,0,0,1,5c.93,1,2.43,2.64,2.43,2.64a19.19,19.19,0,0,1,13.36-8.12c17.28-1.45,22.25,11.48,22.25,11.48,7.45,13.88.31,32.5.31,32.5-6.94,18-24.22,30.85-24.22,30.85l3.93,6.21H420l3.83-6.21c-9-6-19.36-20.81-19.36-20.81a48.71,48.71,0,0,1-8-31.56C399,9.81,420.05,11.53,420.05,11.53a19.23,19.23,0,0,1,15.73,9A32.58,32.58,0,0,1,438.19,18a12.33,12.33,0,0,0,3.18-6.84C437.19,13.45,434.72,8.5,434.72,8.5Zm-1.05,64s-8.28-1.52-7.45,6.49a4.71,4.71,0,0,1,3.93-2.69s-3.07,5.07,2.87,8.11c0,0-2.25-7.36,3.69-6.67,0,0,4.42,1,3.17,4.84,0,0,5.87-4.63-.55-8.42,0,0,1.45-7.66,7.73-6.07,0,0-4.48-.49-4.55,5.38,0,0,1.93,1.24,2.34,2.34l6.42,0a3.53,3.53,0,0,0,1.82-.48,2,2,0,0,0,.6-1.16s.13-13.77-10.36-15.5C443.33,58.66,428.15,54.8,433.67,72.46Zm12.5-50.58c5-6.66,8.42.14,8.42.14a4.51,4.51,0,0,1,3.48-3.69c-4.9-8.87,3.16-12.89,3.16-12.89-2.43-2-9.38,2.3-9.38,2.3,0-.16,1.25-3,1.25-3-6.6.8-7.67,5.08-7.67,5.08a52.13,52.13,0,0,1-2.65,8.74C445,19.26,446.17,21.88,446.17,21.88Zm-13.05,2.5s-3.93-10-16.3-8.53c0,0-14.29.67-16.15,17.95a49.13,49.13,0,0,0,.47,12.73s-.73-14.44,15.78-18.16c0,0-20.75,7.45-8.23,36.43,0,0-2.38-10.35,10.35-20.49,0,0-16.87,16.87,5.9,38.09,0,0-5.48-10.77,4.87-12.63,0,0-4.35-11.59,6.41-15,0,0-2.06-3.55-4-7C432.19,47.72,426.08,37.17,433.12,24.38ZM440,22.06s-5.79,5.58-6.1,13.61a22.52,22.52,0,0,0,2.38,11.07s2.9,5.69,3.15,7.35c0,0,13-2.05,16.41,12.94,0,0,.52-5.85,6-16.51,0,0,3.68-6.32,3.93-8.49,0,0-2.53,3.83-10.14,3.83,0,0-10.3.36-12.47-8.23,0,0,2.84,5.44,13.09,4.51,0,0,6.32-1,8.65-6.16a10.63,10.63,0,0,0,0-7.35s-1.38-4.43-4.39-6.92c0,0-4.67-.95-5.5,5,0,0-4.3-9.24-9.11-.14C445.9,26.57,444.77,21.33,440,22.06Zm26.52,1.27a25.8,25.8,0,0,1,0,26.5s-1.24,2.24-2.56,4.86c0,0,11.81-1.07,8.23,13.89,0,0,6.68,5.54.83,12.78l.78,1.4s23-19.41,6.31-38.35c0,0,11.7,7.66,10.35,20.39,0,0,13.15-26.6-8.49-36.54,0,0,15.84,2.49,16,18.32,0,0,5.28-24.73-12.32-30.11C485.7,16.47,473,12.29,466.52,23.33Zm-9.27,50.89c4.76-9.73,12.3-6.52,12.3-6.52.08-11.39-7-9.66-7-9.66C457.83,65.08,457.25,74.22,457.25,74.22Zm-19.09,9.9c.55-3.1-1.66-2.9-1.66-2.9-3.38-.48-1.38,5-1.38,5-4.21.35-6.21-1.79-6.21-1.79L427,89.23l45.54-.07-2.62-5.45c-2.34,2.34-6.28,2.14-6.28,2.14,2.42-6.14-1.93-6.24-1.93-6.24l-16.67.1C442.44,84.67,438.16,84.12,438.16,84.12Zm28-.38a7.39,7.39,0,0,0,3.2-8.15c1.23.08,2.05,3.26,2.05,3.26,3.49-6.22-2-8.23-2-8.23-6.48-2.3-10.83,6.29-10.83,6.29C468.81,74.74,466.14,83.74,466.14,83.74Z" transform="translate(0 0)"/><path class="cls-1" d="M126.39,32.66c-.22-4.65-.49-10.21-.43-15.13h-.16c-1.18,4.38-2.67,9.25-4.28,13.79l-5.29,15.61h-5l-4.81-15.4c-1.39-4.59-2.68-9.51-3.64-14h-.11c-.16,4.7-.37,10.42-.64,15.34l-.8,14.49H95.06l2.41-36h8.66l4.7,14.49c1.28,4.22,2.41,8.49,3.32,12.5h.16c1-3.9,2.19-8.34,3.58-12.56l5-14.43h8.55l2.08,36h-6.41Z" transform="translate(0 0)"/><path class="cls-1" d="M143.5,36.19c.16,4.7,3.85,6.73,8,6.73a20.85,20.85,0,0,0,7.22-1.18l1,4.49a23.27,23.27,0,0,1-9.09,1.66c-8.44,0-13.41-5.18-13.41-13.15,0-7.21,4.38-14,12.72-14s11.22,7,11.22,12.67a16.06,16.06,0,0,1-.21,2.78Zm11.44-4.6c.06-2.41-1-6.36-5.4-6.36-4.06,0-5.77,3.69-6,6.36Z" transform="translate(0 0)"/><path class="cls-1" d="M172.64,14.64v6.69h6.26v4.91h-6.26V37.68c0,3.21.86,4.81,3.37,4.81a8.37,8.37,0,0,0,2.57-.27l.1,5a14.51,14.51,0,0,1-4.75.69,7.52,7.52,0,0,1-5.67-2.14c-1.44-1.49-2.08-3.9-2.08-7.32V26.24h-3.69V21.33h3.69V16.46Z" transform="translate(0 0)"/><path class="cls-1" d="M182.54,29.72c0-3.53-.06-6.1-.22-8.39H188l.27,4.91h.16a7.79,7.79,0,0,1,7.16-5.5,6.71,6.71,0,0,1,1.55.16v6.15a10.29,10.29,0,0,0-2-.17,5.79,5.79,0,0,0-5.88,5,12,12,0,0,0-.16,2V47.36h-6.57Z" transform="translate(0 0)"/><path class="cls-1" d="M211.14,47.94c-7.32,0-13-5-13-13.41,0-8.55,5.61-13.79,13.47-13.79S224.5,26.19,224.5,34.1c0,9.57-6.73,13.84-13.31,13.84Zm.21-4.75c3.74,0,6.36-3.64,6.36-8.93,0-4.06-1.81-8.76-6.3-8.76-4.65,0-6.52,4.54-6.52,8.87,0,5,2.51,8.82,6.41,8.82Z" transform="translate(0 0)"/><path class="cls-1" d="M228.57,30c0-3.42-.1-6.2-.21-8.65h5.77l.32,4h.11a10.15,10.15,0,0,1,8.93-4.59c6,0,10.95,5.13,10.95,13.25,0,9.41-5.93,13.95-11.86,13.95a8.58,8.58,0,0,1-7.33-3.47h-.1V57.94h-6.58Zm6.58,6.47a9.78,9.78,0,0,0,.16,1.82,6,6,0,0,0,5.82,4.6c4.17,0,6.63-3.48,6.63-8.61,0-4.6-2.24-8.34-6.47-8.34a6.24,6.24,0,0,0-5.93,4.87,8.47,8.47,0,0,0-.21,1.65Z" transform="translate(0 0)"/><path class="cls-1" d="M269.9,47.94c-7.32,0-13-5-13-13.41,0-8.55,5.61-13.79,13.47-13.79s12.93,5.45,12.93,13.36c0,9.57-6.73,13.84-13.31,13.84Zm.21-4.75c3.75,0,6.36-3.64,6.36-8.93,0-4.06-1.81-8.76-6.3-8.76-4.65,0-6.52,4.54-6.52,8.87,0,5,2.51,8.82,6.41,8.82Z" transform="translate(0 0)"/><path class="cls-1" d="M287.33,9.35h6.58v38h-6.58Z" transform="translate(0 0)"/><path class="cls-1" d="M303,17.58a3.72,3.72,0,1,1,.05,0Zm-3.26,29.78v-26h6.57v26Z" transform="translate(0 0)"/><path class="cls-1" d="M319.63,14.64v6.69h6.25v4.91h-6.25V37.68c0,3.21.85,4.81,3.36,4.81a8.37,8.37,0,0,0,2.57-.27l.11,5a14.62,14.62,0,0,1-4.76.69,7.52,7.52,0,0,1-5.67-2.14c-1.44-1.49-2.08-3.9-2.08-7.32V26.24h-3.69V21.33h3.69V16.46Z" transform="translate(0 0)"/><path class="cls-1" d="M349.72,41.1a35.28,35.28,0,0,0,.43,6.26h-5.93l-.48-2.89h-.16a9.52,9.52,0,0,1-7.7,3.47c-5.24,0-8.18-3.79-8.18-7.75,0-6.52,5.83-9.88,15.45-9.83v-.43c0-1.71-.7-4.54-5.29-4.54a13.78,13.78,0,0,0-7,1.92L329.57,23a18.71,18.71,0,0,1,9.41-2.3c8.34,0,10.74,5.29,10.74,11Zm-6.41-6.47c-4.65-.05-9.09.91-9.09,4.87A3.45,3.45,0,0,0,338,43.24a5.4,5.4,0,0,0,5.19-3.58,4.43,4.43,0,0,0,.16-1.44Z" transform="translate(0 0)"/><path class="cls-1" d="M355.35,29.08c0-3-.11-5.51-.22-7.75h5.72l.32,3.9h.16a9.57,9.57,0,0,1,8.34-4.49c4.54,0,9.25,2.94,9.25,11.17V47.36h-6.58V32.66c0-3.74-1.39-6.58-5-6.58a5.51,5.51,0,0,0-5.13,3.85,6.25,6.25,0,0,0-.32,2.09V47.36h-6.57Z" transform="translate(0 0)"/><path class="cls-1" d="M27.74,91.93a23.81,23.81,0,0,1-9.35,1.6C7,93.53,0,86.37,0,75.41c0-11.86,8.28-19,19.3-19A20.73,20.73,0,0,1,28,58l-1.39,5.24a17.7,17.7,0,0,0-7.06-1.39C12.24,61.84,7,66.44,7,75.09,7,83,11.54,88,19.51,88a20.1,20.1,0,0,0,7.16-1.28Z" transform="translate(0 0)"/><path class="cls-1" d="M42.29,93.59c-7.32,0-13-5-13-13.42,0-8.55,5.61-13.79,13.47-13.79s12.93,5.45,12.93,13.36c0,9.57-6.73,13.85-13.31,13.85Zm.21-4.76c3.74,0,6.36-3.63,6.36-8.93,0-4.06-1.81-8.76-6.3-8.76C37.91,71.14,36,75.68,36,80c0,5,2.52,8.82,6.42,8.82Z" transform="translate(0 0)"/><path class="cls-1" d="M59.72,74.72c0-3-.1-5.51-.21-7.75h5.61l.32,3.85h.16a8.87,8.87,0,0,1,8-4.44,7.53,7.53,0,0,1,7.22,4.81h.1a10.29,10.29,0,0,1,3.16-3.26,9,9,0,0,1,5.34-1.55c4.28,0,8.66,2.94,8.66,11.28V93H91.69V78.62c0-4.33-1.5-6.89-4.65-6.89a5,5,0,0,0-4.6,3.47,7.1,7.1,0,0,0-.32,2.19V93H75.71V77.93c0-3.64-1.45-6.2-4.49-6.2a5.28,5.28,0,0,0-4.76,3.68,7.37,7.37,0,0,0-.32,2.2V93H59.72Z" transform="translate(0 0)"/><path class="cls-1" d="M103.73,74.72c0-3-.11-5.51-.22-7.75h5.62l.32,3.85h.16a8.87,8.87,0,0,1,8-4.44,7.52,7.52,0,0,1,7.22,4.81H125a10.16,10.16,0,0,1,3.15-3.26,9.07,9.07,0,0,1,5.35-1.55c4.27,0,8.65,2.94,8.65,11.28V93h-6.41V78.62c0-4.33-1.5-6.89-4.65-6.89a5,5,0,0,0-4.6,3.47,7.1,7.1,0,0,0-.32,2.19V93h-6.41V77.93c0-3.64-1.45-6.2-4.49-6.2a5.28,5.28,0,0,0-4.76,3.68,7.7,7.7,0,0,0-.32,2.2V93h-6.41Z" transform="translate(0 0)"/><path class="cls-1" d="M152.38,81.83c.16,4.7,3.85,6.73,8,6.73a21,21,0,0,0,7.21-1.17l1,4.49a23.47,23.47,0,0,1-9.09,1.65c-8.44,0-13.42-5.18-13.42-13.15,0-7.21,4.39-14,12.73-14S170,73.33,170,79.05a17,17,0,0,1-.21,2.78Zm11.44-4.6c.05-2.4-1-6.36-5.4-6.36-4.06,0-5.77,3.69-6,6.36Z" transform="translate(0 0)"/><path class="cls-1" d="M174,75.36c0-3.53,0-6.09-.21-8.39h5.67l.26,4.92h.16A7.79,7.79,0,0,1,187,66.38a7.24,7.24,0,0,1,1.55.16v6.15a10.18,10.18,0,0,0-2-.16,5.79,5.79,0,0,0-5.88,5,11.11,11.11,0,0,0-.16,2V93H174Z" transform="translate(0 0)"/><path class="cls-1" d="M210.34,92.2A19.1,19.1,0,0,1,203,93.53c-8.13,0-13.42-5.23-13.42-13.31,0-7.8,5.35-13.84,14.49-13.84a17.59,17.59,0,0,1,6.36,1.18l-1.18,5a10.76,10.76,0,0,0-5-1c-5,0-8,3.69-8,8.45,0,5.34,3.47,8.39,8,8.39a13,13,0,0,0,5.19-1Z" transform="translate(0 0)"/><path class="cls-1" d="M217.13,63.23a3.72,3.72,0,1,1,.05,0ZM213.87,93V67h6.57V93Z" transform="translate(0 0)"/><path class="cls-1" d="M246.42,86.75a35.09,35.09,0,0,0,.43,6.25h-5.93l-.48-2.89h-.16a9.53,9.53,0,0,1-7.7,3.48c-5.24,0-8.18-3.8-8.18-7.75,0-6.52,5.83-9.89,15.45-9.84v-.43c0-1.71-.69-4.54-5.29-4.54a13.68,13.68,0,0,0-7,1.93l-1.29-4.28a18.74,18.74,0,0,1,9.41-2.3c8.34,0,10.74,5.29,10.74,11ZM240,80.28c-4.65-.06-9.09.91-9.09,4.86a3.45,3.45,0,0,0,3.75,3.74,5.39,5.39,0,0,0,5.18-3.58,4.43,4.43,0,0,0,.16-1.44Z" transform="translate(0 0)"/><path class="cls-1" d="M252.05,55h6.57V93h-6.57Z" transform="translate(0 0)"/><path class="cls-1" d="M274.45,57.51a54.11,54.11,0,0,1,9.62-.8c4.81,0,7.86.64,10.26,2.3a7.59,7.59,0,0,1,3.74,6.78c0,3.32-2.08,6.31-6,7.75v.16c3.79,1,7.27,4,7.27,8.88A9.46,9.46,0,0,1,295.93,90c-2.56,2.24-6.78,3.36-13.41,3.36a63.2,63.2,0,0,1-8.07-.48ZM281,71.73h3.37c4.59,0,7.11-2.14,7.11-5.19,0-3.42-2.57-5-6.74-5a17.82,17.82,0,0,0-3.74.27Zm0,16.51a20.89,20.89,0,0,0,3.47.16c4.23,0,8-1.55,8-6,0-4.17-3.69-5.88-8.23-5.88H281Z" transform="translate(0 0)"/><path class="cls-1" d="M323.84,86.75a35.09,35.09,0,0,0,.43,6.25h-5.93l-.48-2.89h-.16a9.53,9.53,0,0,1-7.7,3.48c-5.24,0-8.18-3.8-8.18-7.75,0-6.52,5.83-9.89,15.45-9.84v-.43c0-1.71-.69-4.54-5.29-4.54A13.68,13.68,0,0,0,305,73l-1.29-4.28a18.74,18.74,0,0,1,9.41-2.3c8.34,0,10.74,5.29,10.74,11Zm-6.41-6.47c-4.65-.06-9.09.91-9.09,4.86a3.45,3.45,0,0,0,3.75,3.74,5.39,5.39,0,0,0,5.18-3.58,4.43,4.43,0,0,0,.16-1.44Z" transform="translate(0 0)"/><path class="cls-1" d="M329.47,74.72c0-3-.11-5.51-.22-7.75H335l.32,3.9h.16a9.57,9.57,0,0,1,8.34-4.49c4.54,0,9.25,2.94,9.25,11.17V93h-6.58V78.3c0-3.74-1.39-6.57-5-6.57a5.52,5.52,0,0,0-5.13,3.84,6.25,6.25,0,0,0-.32,2.09V93h-6.57Z" transform="translate(0 0)"/><path class="cls-1" d="M365.29,78.41h.1c.65-1,1.39-2.14,2-3L373.79,67h7.91L372,77.61,383,93H375l-7.48-11.49-2.19,2.62V93h-6.58V55h6.58Z" transform="translate(0 0)"/><path class="cls-1" d="M391.26,89.91a3.18,3.18,0,1,1-3.15-3.08A3.11,3.11,0,0,1,391.26,89.91Zm-5.47,0a2.31,2.31,0,0,0,2.3,2.38,2.38,2.38,0,1,0-2.3-2.38Zm1.86,1.52h-.8V88.5a5.5,5.5,0,0,1,1.23-.11,1.69,1.69,0,0,1,1.09.24.66.66,0,0,1,.31.62.78.78,0,0,1-.64.69v0a.9.9,0,0,1,.57.75,3.6,3.6,0,0,0,.2.71h-.88a2.23,2.23,0,0,1-.22-.67.46.46,0,0,0-.54-.44h-.32Zm0-1.68h.3c.36,0,.62-.13.62-.4s-.2-.41-.57-.41l-.35,0Z" transform="translate(0 0)"/></svg>