<svg xmlns:xlink="http://www.w3.org/1999/xlink" xmlns="http://www.w3.org/2000/svg" viewBox="0 0 347 50" fill="none" width="347"  height="50" >
  <path d="M23.627 47.494c13.049 0 23.627-10.633 23.627-23.747C47.254 10.632 36.676 0 23.627 0 10.576 0 0 10.632 0 23.747c.001 13.116 10.578 23.747 23.627 23.747Z" fill="#006F53"/>
  <path d="m17.1 46.862-.104-17.86s-.508-.2-.483.858c0 0-.076.251-.533.126 0 0-.18.05-.18.202 0 .15-.816-.05-.788-.731 0 0-.434.15-.485-.328 0 0 0-.278.458-.48 0 0 1.35.127 1.453-.301 0 0 .228-.43-.612-.202l-.56-.026s-.203-.15-.357 0c0 0-.458.731-1.12.076 0 0-.967-.227 0-.63 0 0 .305-.05.204-.328 0 0 .433-.455.687-.429 0 0 .05-.301.459-.203 0 0 .356-.301 1.273-.15 0 0 .28-.454-.46-.328 0 0-.354.429-.712.177 0 0-.51.556-1.12.101 0 0-.686.126-.662-.429 0 0-.585.378-.458-.857 0 0-2.266.505-1.986-.63 0 0 .025-1.337 2.266-1.616 0 0 .407-.05.534-.327 0 0 .533-.026 1.198.352 0 0 .432.025.713.908.28.883.738.05.637-.025 0 0-.637-.352-.41-1.035 0 0-.915.506-.737-.479 0 0-.253-.101-.33-.352 0 0-.077-.681.28-.91 0 0 .128.178.153-.504 0 0 .584-.176.204-.529 0 0-.458-.329-.562.251 0 0-.917.404-.483-.757 0 0-.612.983-1.145.353h-.255s-1.147.53-.663-.959c0 0-1.018 1.337-.739-.352 0 0 .74-1.11 2.368-.505 0 0 .637-.177 1.3.177 0 0 .202.202.713.202 0 0 .202-.253-.18-.303 0 0-1.119.101-.662-.731 0 0 .28-.454.18-.706 0 0-.687.177-.995-.53 0 0-.203-.327-.433-.252 0 0-.814.203-1.07-.227 0 0-.303-.025-.431-.227 0 0-1.35.353-.586-.706 0 0-.356-1.084 1.121-.655 0 0 .355-.277-.23-.53 0 0-.84.731-1.248.404 0 0-.281-.302.662-.857 0 0-1.298-.177-.101-.808 0 0 .331-.201.84-.177 0 0 .51-.026.687.38 0 0 .33-.077.33-.177h.355s.23-.152.511-.152.306-.252.637.277c0 0-.23.404-.867.201 0 0-.484 0-.05.277 0 0 .917.656-.05 1.06 0 0-.102.351.585.351 0 0 .458.102.611.228 0 0-.28-.278-.179-.555 0 0-.178-.605.687-.43 0 0 .663.127.407-.982 0 0-1.96.026-.331-.883 0 0-.788-.456-.865-.505 0 0-.663.126-.79.328 0 0-.788.404-.687-.303 0 0 .356-.1.356-.227 0 0 .051-.226.383-.303l.764.026s.306-.378.458-.378c0 0 .687-.228.357-.378 0 0-.409-.026-.409-.328 0 0 .179-.379.637-.277 0 0 .179-.202-.026-.43 0 0-.28-.025-.255-.125 0 0-.355.05-.51-.077 0 0-.433.506-.688.38 0 0-.458 1.361-1.629.782 0 0-.024-.101-.203-.202 0 0-.151-.227-.026-.43l.153.025s-.102-.352.661-.302c0 0 .205 0 .18-.48 0 0 0-.378.51-.227 0 0 .255.126.406-.53 0 0 .28-.604 1.12-.453 0 0-.355-.48-.381-.908 0 0-.306-.58.076-.858 0 0 .13-.202.078-.53 0 0-.51-.05-.307-.605 0 0 .613-.53.766.252 0 0 .661.555.687-.026 0 0 .203-.655-.586-.53 0 0-.458.051-.23-.705 0 0 .18.026.204-.354 0 0 .968-.202.866-.454l.229-.05s.154-.252.255-.025c0 0 .203.201.126.303 0 0 .637-.051.613.1 0 0 .355-.151.431.252 0 0 1.3.126.306.655 0 0 .05.43-.407.379 0 0 0 .429-.33.378 0 0-.688.58.101.328l.28-.152s.968-.832 1.095-.43c0 0 .28.227-.228.404 0 0-.739.455-.892.681 0 0-.178.405-.51.405 0 0-.764.454-.253.504 0 0 .28.126.23.202l.202-.025s.382-.378.763-.101c0 0 .358.301-.201.48 0 0 .05.152-.435.1 0 0-.353.53-.686.101 0 0-.203-.177-.255.202 0 0-.1.404.205.404 0 0 .383.152.253.252 0 0 .407.076.434.202 0 0 .713.15.942-.076 0 0 .51-.48.764-.276 0 0 .254.252-.484.555 0 0-.05.201-.586.201 0 0-.355.051-.406.102 0 0-.18.227-.18.378 0 0-.049.403-.66.102-.612-.303-.027-.076-.027-.076s-.789.202-.406.706l.942.05s.38.026.304.378c0 0 .05.379-.052.53 0 0 .052.404.307.353 0 0 .713.05.66.277 0 0 .079.43.306.58 0 0 .281 1.11-.789.908 0 0-.662-.026-.763-.983 0 0-.255-.582-.408-.455 0 0-.05.303.076.455 0 0 .104.301-.33.1 0 0-.433-.126-.433.05l.026 1.313s.662.101.814.252c0 0 .993-.025.943.555 0 0 .203.277.484.026 0 0 .433-.303.764.177 0 0 .433.126.433 0 0 0 .383-.355.51.252 0 0-.051.353.102.428 0 0 .151.53-.535.606 0 0 0-.177-.203-.126 0 0-.103-.378-.305-.252 0 0-.128.177-.383.177 0 0-.713.075-.84-.051 0 0-.51-.152-.458-.252.05-.102-.052-.076-.052-.076s-.406.05-.304.252c0 0-.612.328 0 .277 0 0 .458.202.433.405 0 0 .662.228.56.328 0 0 .636.05.305 1.16 0 0-.229 1.16-.79.858 0 0-.685.352-1.043.024 0 0-.28.051-.28.127 0 0 .434.327.33.429 0 0 .435.075.511-.102 0 0 .23-.301.533-.301 0 0 .612-.228.867.252 0 0 .203.101.23.655 0 0 .457.405 0 .58l-.129.227s.511-.176.586.429c0 0 .434.177.076.73l-.253.051s-.078.353-.866-.126c0 0-.103-.252-.255-.152 0 0-.203-.252-.407-.302 0 0-.255-.177-.255.151 0 0 .229.277-.406.303 0 0 .229.302.1.403 0 0 .512.859.892.783 0 0 .56.152.56.834 0 0 .434.63.23.857 0 0 .28.303 0 .504 0 0-.051.43-.459-.026l-.917-.026s.204.252.255.43c0 0 .585.252.61.733 0 0-.051.378-.406.327 0 0-.332.43-.508.405 0 0 .381.277.508.2 0 0 .254-.126.434.077 0 0 .559-.177.61.352 0 0 .51.556-.051.783 0 0-.304.05-.304.152 0 0-.281.1-.46-.05 0 0-.381.024-.432-.128 0 0-.508.05-.508-.077 0 0-.254-.05-.23-.126 0 0-.23 0-.102.228 0 0 .129 0 .153.127 0 0 .331-.05.331.1 0 0 .407.076.382.228 0 0 .458-.026.432.126 0 0 .205.05.153.228 0 0 .331.15.306.578 0 0 .407.128.356.379 0 0 .101.404-.561.28l-.154-.153-.202-.026s-.534-.328-.485-.429c.053-.1.027-.075.027-.075s-.585.176-.738-.228l-.128.177.123 17.985-.89-.303Z" fill="#fff"/>
  <path d="M27.91 48.12V35.136h-.637s-.077.13-.202.13c0 0 .151.182-.154.207 0 0-.202.13-.101.208h-.483s-.305.674-.917.205c0 0-.28 0-.05-.44 0 0 .203-.051.05-.388 0 0 .127-.363.331-.413 0 0 .535-.701.943-.701 0 0 .636.052.636-.181 0 0 .305-.286.433-.234 0 0 .305-.285.05-.518l-.636-.052s-.153.493-.713.311c0 0-.585-.363.153-.932 0 0 .253.102.102-.415-.153-.52-.076-.052-.076-.052s-.205-.44.405-.699c0 0 .941-.053.663-.156 0 0 .33-.39-.18-.31 0 0-.15-.052-.407.078 0 0-.713.13-.738-.078 0 0-.381-.155-.305-.311l-.076-.441s.227-.182.026-.467c0 0-.332-.205-.307-.517 0 0 .052-.336.255-.336 0 0 1.069.026 1.069-.208 0 0 .253-.077.229-.596 0 0 .079-.258-.152-.622 0 0 .026-.287.101-.258l-.026-.156-.152-.027s.027.234-.254.13c0 0-.203.13-.229.31 0 0-.28.053-.254-.025.026-.079-.027-.079-.027-.079s.076.337-.253.31c0 0-.052.389-.458.104 0 0-.203-.13-.383.078l-.23-.103s-.203-.052-.051-.57c0 0 .13-.26.332-.336 0 0 .05-.467.458-.389 0 0 .152-.183-.076-.338 0 0-.23 0-.079-.363l-.05-.57s.152-.362.356-.31l.28-.13s.101-.156.331-.104c0 0 .025-.233-.05-.285 0 0-.561-.026-.458-.337 0 0 .178-.674-.28-.363 0 0-.23-.026-.408.13-.179.156-.077 0-.077 0s-.026.311-.33-.026c0 0-.229 0-.154-.206 0 0 0-.39.179-.39 0 0 .203-.232.79-.155l.152-.181s.406-.571.688-.571c0 0 .153-.207.304-.18 0 0 .306-.674.612-.648 0 0 .152-.13-.433-.13l-.382-.026h-.078s.078.18-.227.104c0 0 .151.26-.664.104 0 0-.203-.13-.433.208 0 0-.28.206-.356.232 0 0-.254.233-.406-.128v-.804s.253-.286.229-.363c0 0 .534-.078.433-.13 0 0 .586-.052.687.052l.408-.052s.33.026.407-.415c0 0 .203-.336.509-.31 0 0 .355-.052.23-.156 0 0 .1-.181.202-.13 0 0 .458-.207.102-.285 0 0-.484.052-.026-.467 0 0 .23-.518-.052-.623 0 0-.178-.156-.305.519 0 0-.025.44-.458.491 0 0-.432.596-.917-.052l-.101-.725s.23-.026.204-.337l.026-.622s-.052-.44.382-.44c0 0 .33-.363-.203-.337 0 0-.307.232-.765-.052-.458-.285-.076-.026-.076-.026s-.46-.052-.434-.363l.076-.285s-.128-.415.332-.389c0 0 .433-.052.56.13 0 0 .358.13.383.052 0 0 .305-.18.458-.052 0 0-.483-.363 0-.623 0 0 .356-.206-.562-.18 0 0-.203.18-.28-.337 0 0 .027-.415.613-.285 0 0 .229.18.43-.078 0 0 .103-.207.256-.18 0 0 .128-.39.305-.337 0 0 .28-.103.204-.39 0 0-.18 0-.28.105 0 0-.23-.051-.533-.39 0 0-.46-.128-.08-.517l.585-.052.103-.13.1.026s.104-.389-.305-.517c0 0-.151-.052-.355-.311l-.33-.104s-.459-.7.152-.544c0 0 .254 0 .356.156 0 0 .255.104.23.208 0 0 .152-.13.253-.13 0 0-.306-.104-.28-.31 0 0 .128-.209.23-.183l.05-.077.154.052s.406-.233-.028-.39c0 0-.128-.077-.433-.18 0 0-.457.207-.432-.337 0 0 .28-.647.458-.752 0 0 .229-.156.356 0l.102-.052s-.102-.258-.076-.517c0 0 .15-.7.584-.208 0 0 .254.078.332.491.077.415.024.078.024.078s.256.181.23.337c0 0 .359.286.333.078l.075.285.104.052-.026.207s.227-.156.177.363c0 0 .026.336.305.336 0 0 .281-.026.23.207 0 0 .253.08-.129.493 0 0-.177.156 0 .285 0 0 1.198.673.204 1.295l-.508.078-.026.7s.533-.13.814.258c.28.39.076.079.076.079s.254.336.332.31c0 0 .28.052.254.207 0 0 .611.078.483.337 0 0 .053.31.255.337 0 0 .331.026.305.208 0 0 .356-.182.407.517 0 0 .15.726-.788.726 0 0-.332.285-.716.026 0 0-.382-.234-.356-.596 0 0-.177-.13-.252-.465 0 0-.384-.519-.739-.26 0 0-.33.076-.457.284l.048.105s.687.078.764.362c0 0 .384.285-.228.415l-.026.156s.331-.104.483.31l.687.13s.409 0 .612.467c.203.465.026.078.026.078l-.026-.078s.46.258.28.595c0 0-.05.389-.712.078 0 0-.05-.182-.535-.258l-.305-.053s-.256-.284-.51.13c0 0 .127.52.585.467 0 0 .407-.104.407.078 0 0 .841-.182 1.019.233 0 0 .305.078.535-.155l.89-.026.102.207.204.052s.28.363.076.622c0 0-.026.259.281.363 0 0 .636.284.202.777 0 0-.483.492-.94-.31l-.129-.053v-.156l-.203.026s-.203.545-.942.674c0 0-.51-.026-.664-.156l-.28-.026s-.407-.182-.433-.57c0 0 .127-.518.306-.595l-.305-.13v-.104l-.382.026s-.08.208-.306.13c0 0 0 .206-.355.104 0 0 .154.259 0 .337 0 0 .406.052.305.182 0 0 .432-.234.61.258l-.101.13s.153.518-.306.544c0 0-.127.389-.252.389h.713s.076-.311.943-.13c0 0 .405-.337.737-.337 0 0 .255-.182.458-.156l.104-.104.508.026s.304.18.304.44c0 0 .74.674.028.907 0 0-.356.259-.612-.285l-.28-.026s-.203.13-.383.104c0 0-.05.363-.354.363 0 0 0 .233-.41.181 0 0 .077.286-.33.13 0 0-.05.233-.304.129 0 0-.078.258.229.286 0 0 .357.078.203.413l.891.078s.154.026.305.233c0 0 1.094-.078 1.045.518l-.028.595s.765.518.408 1.01c0 0-.356.285-.663-.181 0 0-.127-.233-.355-.363 0 0-.356-.129-.533-.208 0 0-.154-.104-.13.156 0 0 .306.026.281.156l.433.078s.332.285.304.44c0 0 .587.751-.152.882 0 0-.203.258-.61-.052l-.357.026s-.051.182-.28.104c0 0-.101.31-.765.235 0 0-.153.336-.56.361 0 0-.128.182-.434.182 0 0 .56.155.458.44 0 0 .281-.051.152.26l.103.286-.027.361s.027.103-.253.156c0 0-.101.362.05.414 0 0 0 .026-.104.104 0 0 .23.363-.43.077 0 0-.358-.181-.078.518l.128.103s.282-.623.815-.623c0 0 .408-.154.306-.258 0 0 .434-.258.611.104 0 0 .306.024.281.154 0 0 .458-.076.406.08 0 0 .356 0 .255-.08 0 0 .584-.076.533.208-.05.285 0 .08 0 .08s.255.026.255.31c0 0 .738-.027.586.284 0 0 .432.234.253.623 0 0 .255.052.28.44 0 0 .154.39-.406.416h-1.094s-.332-.155-.663-.026c0 0 .434.335.202.57 0 0 .435.154-.559.801 0 0-.636.363-1.197.054 0 0-.458.155-.688-.156 0 0-.228.052-.483-.234 0 0-.33-.181-.381.156l.353.026s.13.285.384.104c0 0 .815.363.815.234 0 0 .407.233.306.361 0 0 .458.207.458.39 0 0 .128.285.28.337 0 0 .383.466-.383.7 0 0-.253.233-.687-.234 0 0-.23.155-.28-.104h-.152s-.076.234-.434.026c0 0-.228 0-.228-.13 0 0-.177-.077-.23.027h-.279s-.204.31.101.441c0 0 .253.13.178.207 0 0 .355-.078.864-.026.51.052.079 0 .079 0s.255.285.484.285c0 0 .458.232-.052.7 0 0-.355.284-.738.18 0 0-.23-.103-.28-.31 0 0-.281.051-.329-.154-.053-.208 0-.08 0-.08s-.027.39-.435-.18l-.406.05v12.49c.013.003-.164.209-.854.158Z" fill="#fff"/>
  <path d="M30.77 32.216s.636.052.662-.052c0 0 .255-.337.687-.052l.18.078s-.18 0-.18.103l-.51.052s-.28.13-.484.026l-.355-.155Z" fill="#006F53"/>
  <path d="M27.21 23.662v.596s-.102.078-.204-.078-.078-.052-.078-.052 0-.285-.177-.233l-.079-.156.18-.052.357-.025Z" fill="#006F53"/>
  <path d="m29.599 22.29-.05 1.138s.71.259.66.467c0 0 .817-.493 1.3-.389 0 0 .18-.154.305-.154 0-.002-1.3.076-2.215-1.063Z" fill="#006F53"/>
  <path d="M13.258 10.812s.687.128.786.024c0 0 .486.337.74.311 0 0 .33.13.382.052 0 0 .179.336.483.31l.027.26s-.28.336-.739.18c0 0-.229-.31-.433-.206 0 0-.332-.13-.356-.337-.026-.207-.026-.078-.026-.078s-.305-.182-.406-.104c0 0-.281-.415-.484-.337-.205.08.026-.075.026-.075Z" fill="#006F53"/>
  <path d="M12.708 23.533s-.484-.078-.102.26h.635s.128-.208.458-.079c0 0 .151-.233.458-.18l.305-.13s.128-.311-.178-.26c0 0-.154.157-.485 0 0 0 .027.233-.587.26.003 0-.021.181-.504.13Z" fill="#006F53"/>
  <path d="m13.799 24.225 1.476-.052s.051.26-.458.415c0 0-.562-.077-.562.078 0 0-.585.026-.662-.104l-.356-.052s-.533-.026.1-.285h.462Z" fill="#006F53"/>
  <path d="m18.468 23.593-.025.31s.712-.104.025-.31Z" fill="#006F53"/>
  <path fill-rule="evenodd" clip-rule="evenodd" d="m58.202 24.939 6.32-11.867h.938l6.945 13.231h2.164v.506h-9.11v-.506h2.677l-1.679-3.212H60.11L59 25.232c-.144.293-.257.527-.257.722 0 .35.456.35 1.11.35h1.395v.505h-6.262v-.506h1.252c1.207-.079 1.252-.155 1.934-1.313l.03-.051Zm7.97-2.353-2.931-5.449-2.876 5.449h5.806Z" fill="#000"/>
  <path fill-rule="evenodd" clip-rule="evenodd" d="M85.584 26.808h-10.19v-.526h2.333V13.576h-2.333v-.505h10.105c1.878.038 3.67.078 5.607 1.03 2.732 1.363 3.7 3.717 3.7 6.033 0 .933-.171 2.256-1.252 3.717-2.164 2.92-5.465 2.957-7.97 2.957Zm3.501-11.888c-.996-1.207-2.362-1.286-3.586-1.286v.002H81.94v12.647h3.102c2.277 0 4.156-.485 4.725-2.742.286-1.15.37-2.318.37-3.484 0-.611-.036-1.159-.065-1.593a42.693 42.693 0 0 1-.02-.295c-.227-2.295-.683-2.899-.967-3.249Z" fill="#000"/>
  <path d="M104.057 13.576v12.726h2.39v.506h-9.023v-.506h2.392V13.576h-2.392v-.505h9.023v.505h-2.39Z" fill="#000"/>
  <path fill-rule="evenodd" clip-rule="evenodd" d="M111.657 13.596h-2.417v-.525h9.962l.205.005c1.501.036 3.041.073 4.293.52 1.564.565 2.362 1.576 2.362 2.782 0 1.323-1.196 2.57-3.929 2.957-.654.098-1.337.14-1.992.177l.088.014c.656.111 1.333.226 1.933.395a6.754 6.754 0 0 1 1.621.699c1.481.898 1.738 1.712 1.823 3.504.057 1.265.112 2.063 1.422 2.063.569 0 1.166-.177 1.537-.294v.566c-1.196.253-2.164.428-3.502.428-.797 0-1.936-.042-2.932-.877-.967-.798-1.11-1.886-1.138-2.686-.03-.543-.086-.932-.2-1.593-.256-1.674-1.508-2.005-3.414-2.005h-1.509v6.576h2.818v.506h-9.45v-.506h2.419V13.596Zm10.133 2.724c0-2.082-.797-2.647-3.53-2.686h-2.391V19.2H118.315c.828-.019 2.202-.049 2.962-.856.228-.213.513-.642.513-2.023Z" fill="#000"/>
  <path fill-rule="evenodd" clip-rule="evenodd" d="M140.347 12.779c5.95 0 9.593 3.134 9.593 7.102 0 .974-.171 2.978-2.391 4.865-2.192 1.847-4.867 2.354-7.571 2.354-2.561 0-4.953-.468-7.088-2.122-1.338-1.051-2.648-2.646-2.648-4.904 0-2.102 1.112-4.104 3.502-5.583 1.878-1.187 4.042-1.712 6.603-1.712Zm4.158 11.48c.426-.936.567-1.947.567-4.399 0-3.986-.455-6.555-4.978-6.555-4.584 0-5.011 3.173-5.011 6.285 0 1.673.113 3.697.655 4.747.912 1.907 2.647 2.257 4.496 2.257 1.538 0 3.303-.215 4.271-2.335Z" fill="#000"/>
  <path d="m158.366 13.07 9.706 8.794v-7.218c.028-.875-.03-1.07-1.594-1.07h-.883v-.507h5.692v.506h-.91c-1.252-.04-1.337.252-1.367 1.517v11.811h-.681L155.207 14.8v10.253c.027.877.312 1.206 1.395 1.247h1.451v.505h-6.205V26.3h1.024c1.223-.04 1.367-.35 1.394-1.209v-10.29c-.027-.858-.027-1.17-1.422-1.208l-.995-.02v-.505h6.517v.003Z" fill="#000"/>
  <path fill-rule="evenodd" clip-rule="evenodd" d="M182.929 26.808h-10.191v-.526h2.336V13.576h-2.336v-.505h10.106c1.878.038 3.672.078 5.608 1.03 2.73 1.363 3.698 3.717 3.698 6.033 0 .933-.168 2.256-1.252 3.717-2.164 2.92-5.465 2.957-7.969 2.957Zm3.503-11.888c-.998-1.207-2.364-1.286-3.588-1.286v.002h-3.557v12.647h3.102c2.275 0 4.156-.485 4.723-2.742.285-1.15.372-2.318.372-3.484 0-.617-.038-1.17-.068-1.606l-.019-.282c-.227-2.295-.681-2.899-.965-3.249Z" fill="#000"/>
  <path fill-rule="evenodd" clip-rule="evenodd" d="m195.915 24.938 6.32-11.867h.941l6.945 13.231h2.163v.506h-9.108v-.506h2.675l-1.68-3.212h-6.348l-1.111 2.142-.004.007c-.138.289-.25.52-.25.715 0 .348.455.348 1.109.348h1.395v.506H192.7v-.506h1.252c1.208-.078 1.253-.155 1.935-1.317a.991.991 0 0 0 .028-.047Zm7.968-2.352-2.931-5.449-2.874 5.449h5.805Z" fill="#000"/>
  <path d="m228.827 16.652-.913-.02c-.281-.933-1.052-3.345-5.066-3.345-3.7 0-4.412 2.082-4.668 2.82-.485 1.402-.541 2.842-.541 4.28 0 3.952 1.253 6.15 4.782 6.15.825 0 1.624-.137 2.363-.39 2.305-.798 3.017-2.295 3.444-3.19h.883l-.314 3.852h-.683l-.908-.854c-.54.33-1.88 1.148-4.784 1.148-6.576 0-9.563-3.465-9.563-6.987 0-4.435 4.782-7.335 9.849-7.335 2.503 0 3.896.74 4.639 1.129l.567-.837h.742l.171 3.58Z" fill="#000"/>
  <path fill-rule="evenodd" clip-rule="evenodd" d="M246.957 14.86c1.481-1.147 1.881-1.264 2.931-1.264l.856-.02v-.507h-6.631v.506h1.45c.8 0 1.169 0 1.169.292 0 .196-.369.467-.854.817l-6.489 5.022 6.489 6.595h-2.419v.506h8.736V26.3h-1.451l-7.997-8.23 4.21-3.21Zm-7.771 11.443V13.577h2.418v-.506h-8.936v.506h2.363v12.726h-2.363v.505h8.936v-.505h-2.418Z" fill="#000"/>
  <path fill-rule="evenodd" clip-rule="evenodd" d="M261.13 13.576h2.421v12.726h-2.421v.506h8.985c2.967-.02 6.487-.042 8.009-1.986a2.641 2.641 0 0 0 .567-1.65c0-1.986-2.107-2.96-4.069-3.31-.684-.116-1.393-.174-2.135-.233a19.824 19.824 0 0 0 1.936-.253c1.963-.409 3.331-1.402 3.331-2.898 0-.992-.512-2.024-2.305-2.745-1.566-.603-3.389-.642-5.038-.661h-9.281v.505Zm8.854.04c2.332 0 3.529.389 3.529 2.956 0 2.278-1.197 2.822-3.416 2.822h-2.332v-5.78l2.219.001Zm3.273 7.082c-.825-.7-2.021-.758-2.846-.758v.001h-2.647v6.363h2.846c.94 0 2.076-.08 2.845-.936.514-.583.596-1.363.596-2.197 0-.994-.113-1.907-.794-2.473Z" fill="#000"/>
  <path fill-rule="evenodd" clip-rule="evenodd" d="m283.105 24.938 6.32-11.867h.94l6.944 13.231h2.165v.506h-9.108v-.506h2.674l-1.679-3.212h-6.348l-1.109 2.142c-.142.292-.256.526-.256.722 0 .348.455.348 1.109.348h1.392v.506h-6.259v-.506h1.252c1.205-.078 1.25-.154 1.931-1.309l.032-.055Zm7.971-2.352-2.931-5.449-2.876 5.449h5.807Z" fill="#000"/>
  <path d="m306.73 13.07 9.706 8.794v-7.218c.028-.875-.029-1.07-1.593-1.07h-.882v-.507h5.695v.506h-.913c-1.252-.04-1.337.252-1.364 1.517v11.811h-.684L303.573 14.8v10.253c.03.877.314 1.206 1.395 1.247h1.451v.505h-6.204V26.3h1.026c1.221-.04 1.365-.35 1.395-1.209v-10.29c-.03-.858-.03-1.17-1.425-1.208l-.995-.02v-.505h6.514v.003Z" fill="#000"/>
  <path fill-rule="evenodd" clip-rule="evenodd" d="M336.531 14.86c1.48-1.147 1.881-1.264 2.933-1.264l.854-.02v-.507h-6.629v.506h1.448c.799 0 1.169 0 1.169.292 0 .196-.37.467-.852.817l-6.491 5.022 6.491 6.595h-2.424v.506h8.741V26.3h-1.453l-7.997-8.23 4.21-3.21Zm-7.772 11.443V13.577h2.419v-.506h-8.937v.506h2.364v12.726h-2.364v.505h8.937v-.505h-2.419Z" fill="#000"/>
  <path d="M344.438 24.08v.285h-.798v2.12h-.323v-2.12h-.799v-.285h1.92Z" fill="#fff"/>
  <path d="M344.726 24.08h.459l.681 2.034.677-2.034H347v2.406h-.308v-1.42c0-.05.001-.131.004-.245.003-.114.004-.235.004-.367l-.678 2.03h-.317l-.683-2.03v.074c0 .058.002.15.005.27.004.12.006.21.006.266v1.42h-.307V24.08Z" fill="#fff"/>
  <path fill-rule="evenodd" clip-rule="evenodd" d="M171.127 41.174h2.445c.34 0 .67.035.987.105.316.07.599.188.845.352.247.165.445.38.591.645.147.266.222.594.222.986 0 .454-.127.842-.378 1.168-.251.325-.609.54-1.072.65v.023c.579.047 1.033.253 1.362.617.33.363.493.85.493 1.46 0 .133-.032.328-.098.585a1.979 1.979 0 0 1-.412.769c-.208.254-.51.474-.903.663-.395.188-.921.282-1.578.282h-2.503l-.001-8.305Zm.837 3.635h1.68c.201 0 .401-.026.596-.077a1.55 1.55 0 0 0 .534-.252 1.36 1.36 0 0 0 .389-.452c.099-.183.149-.407.149-.675 0-.084-.017-.205-.051-.362a1.195 1.195 0 0 0-.232-.469 1.452 1.452 0 0 0-.527-.405c-.232-.113-.546-.17-.939-.17h-1.599v2.862Zm1.597 3.894h-1.6v-3.19h1.704c.672 0 1.182.134 1.53.398.348.267.523.674.523 1.221 0 .274-.058.508-.169.704a1.461 1.461 0 0 1-.457.486 2.08 2.08 0 0 1-.684.287 3.655 3.655 0 0 1-.847.094Z" fill="#000"/>
  <path fill-rule="evenodd" clip-rule="evenodd" d="M181.699 45.97v.14h-.382c-.325 0-.682.016-1.073.047a4.18 4.18 0 0 0-1.1.235c-.346.126-.63.316-.858.57-.23.255-.343.604-.343 1.05 0 .265.053.498.156.697.104.2.243.368.417.505.174.136.372.237.597.304.225.066.456.1.697.1.44 0 .812-.08 1.118-.241.305-.16.569-.425.793-.791h.023c0 .148.008.301.019.457.012.157.029.301.052.434h.742a8.557 8.557 0 0 1-.092-1.233v-2.45c0-.336-.055-.624-.163-.868a1.765 1.765 0 0 0-.429-.603 1.718 1.718 0 0 0-.631-.359 2.48 2.48 0 0 0-.76-.117c-1.02 0-1.784.266-2.294.798l.462.55a2.379 2.379 0 0 1 1.658-.644c.928 0 1.391.473 1.391 1.419Zm-1.118.804c.29-.02.532-.03.724-.03h.393v.398c0 .243-.032.47-.098.686a1.567 1.567 0 0 1-.306.564c-.141.16-.312.286-.517.38-.205.094-.446.141-.724.141-.155 0-.307-.018-.457-.053a1.278 1.278 0 0 1-.411-.176.945.945 0 0 1-.295-.317.9.9 0 0 1-.11-.462c0-.274.094-.49.284-.645.189-.157.417-.271.684-.347.266-.073.543-.12.833-.14Z" fill="#000"/>
  <path d="M185.095 43.988c.017.148.026.296.028.44.004.144.007.29.007.44h.023c.085-.15.192-.286.326-.41.131-.126.277-.233.441-.323.161-.088.333-.16.515-.211.182-.05.359-.077.538-.077.696 0 1.21.186 1.542.558.333.371.499.9.499 1.59v3.482h-.765V46.44c0-.61-.105-1.076-.313-1.4-.209-.325-.595-.488-1.158-.488-.04 0-.149.017-.325.047a1.407 1.407 0 0 0-.564.258c-.196.14-.373.352-.527.633-.155.282-.232.672-.232 1.171v2.815h-.767v-4.28a21.578 21.578 0 0 0-.058-1.208h.79Z" fill="#000"/>
  <path d="m191.704 46.462 2.561-2.473h1.148l-2.702 2.51 2.992 2.978h-1.183l-2.817-2.885v2.885h-.767v-8.865h.767l.001 5.85Z" fill="#000"/>
  <path d="M200.862 48.703h3.826v.774h-4.661v-8.303h.835v7.53Z" fill="#000"/>
  <path fill-rule="evenodd" clip-rule="evenodd" d="M210.955 47.882c.143-.353.216-.736.216-1.15 0-.413-.073-.796-.216-1.15a2.735 2.735 0 0 0-.597-.914 2.73 2.73 0 0 0-.91-.603 3.023 3.023 0 0 0-1.164-.218c-.419 0-.803.073-1.155.218a2.74 2.74 0 0 0-.91.603 2.784 2.784 0 0 0-.597.915 3.033 3.033 0 0 0-.214 1.149c0 .416.071.797.214 1.15a2.703 2.703 0 0 0 1.507 1.518c.353.145.737.218 1.155.218.425 0 .814-.073 1.164-.218a2.713 2.713 0 0 0 1.507-1.518Zm-.764-2.005c.097.266.145.551.145.855 0 .305-.048.59-.145.856a2.062 2.062 0 0 1-.41.692c-.18.195-.393.349-.645.462-.251.114-.534.171-.851.171-.317 0-.602-.057-.852-.17a1.88 1.88 0 0 1-.639-.463 2.135 2.135 0 0 1-.404-.692 2.477 2.477 0 0 1-.144-.856c0-.304.047-.59.144-.855.096-.266.23-.496.404-.692.176-.195.388-.349.639-.462.25-.114.535-.171.852-.171.317 0 .6.059.851.17a1.934 1.934 0 0 1 1.055 1.155Z" fill="#000"/>
  <path d="M216.696 45.28a1.64 1.64 0 0 0-.552-.517 1.548 1.548 0 0 0-.805-.211 1.993 1.993 0 0 0-.853.153c-.25.109-.465.261-.642.458a1.966 1.966 0 0 0-.406.697 2.69 2.69 0 0 0-.138.873c0 .313.046.605.138.874.093.27.229.503.406.697.177.196.392.35.642.46.252.109.536.16.853.152.302 0 .57-.072.805-.211.237-.141.42-.313.552-.517l.626.481c-.272.32-.576.558-.916.71a2.77 2.77 0 0 1-1.067.242 3.01 3.01 0 0 1-1.195-.206 2.643 2.643 0 0 1-.91-.604 2.598 2.598 0 0 1-.573-.92 3.265 3.265 0 0 1-.197-1.157c0-.413.066-.798.197-1.154.133-.356.323-.663.573-.921.251-.258.555-.46.91-.603a3.005 3.005 0 0 1 1.195-.206c.371.009.727.087 1.067.24.34.154.644.39.916.71l-.626.48Z" fill="#000"/>
  <path fill-rule="evenodd" clip-rule="evenodd" d="M222.121 45.97v.14h-.384c-.325 0-.682.016-1.073.047-.39.032-.757.11-1.101.235-.344.126-.63.316-.858.57-.228.255-.341.604-.341 1.05a1.482 1.482 0 0 0 .573 1.202c.174.136.373.237.597.304.224.066.454.1.695.1.442 0 .815-.08 1.119-.241.305-.16.57-.425.794-.791h.024a5.976 5.976 0 0 0 .07.891h.742a8.237 8.237 0 0 1-.092-1.232v-2.451c0-.336-.056-.624-.164-.868a1.763 1.763 0 0 0-.428-.603 1.735 1.735 0 0 0-.631-.359 2.486 2.486 0 0 0-.76-.117c-1.021 0-1.785.266-2.296.798l.464.55a2.379 2.379 0 0 1 1.658-.644c.926 0 1.392.473 1.392 1.419Zm-1.119.804c.289-.02.531-.03.724-.03h.393v.398c0 .243-.033.47-.099.686a1.486 1.486 0 0 1-.823.945c-.204.093-.445.14-.724.14-.153 0-.307-.018-.457-.053a1.282 1.282 0 0 1-.41-.176.926.926 0 0 1-.296-.317.91.91 0 0 1-.11-.462c0-.274.095-.49.283-.645.19-.157.418-.271.685-.347.266-.073.544-.12.834-.14Z" fill="#000"/>
  <path d="M225.644 49.476h-.765V40.61h.765v8.865Z" fill="#000"/>
</svg>