<svg xmlns:xlink="http://www.w3.org/1999/xlink" xmlns="http://www.w3.org/2000/svg" width="309" height="66.872" viewBox="0 0 309 66.872"><g transform="translate(-133.085 -420.594)"><path d="M150.09,420.784a57.594,57.594,0,0,0-8.647,1.374,49.97,49.97,0,0,1,13.589,11.126c15.339-1.519,32.874,2.833,46.247,11.618a56.59,56.59,0,0,0-51.189-24.118Zm4.658,15.629a72,72,0,0,0-21.662,4.989,56,56,0,0,1,37.652,15.536,59.38,59.38,0,0,1,25.78-11.217C184.061,438.337,169.115,435.34,154.747,436.413Zm48.774,12a55.836,55.836,0,0,0-34.588,14.517c.843,5.2,1.439,12.984-1.572,24.535A63.847,63.847,0,0,1,218.456,449.4a56.125,56.125,0,0,0-14.935-.981Z" transform="translate(0 0)" fill="#aa8b6c"/><g transform="translate(232.901 435.425)"><g transform="translate(0 0)"><path d="M814.942,457.587v1.718h.673c2.123,0,2.323,1.721,2.323,3.45v20.158H832.1c3.346,0,3.8-3.5,4.727-6.062l-1.563-.58-.106.268a6.6,6.6,0,0,1-2.32,3.232,6.091,6.091,0,0,1-3.325.853H823.4v-9.708h9.743v-2.28H823.4v-8.773h5.737a4.835,4.835,0,0,1,3.255.971,4.05,4.05,0,0,1,1.129,3.233v.3h1.723v-3.484c0-2.221-1.3-3.3-3.484-3.3Z" transform="translate(-627.643 -456.838)" fill="#111b2d"/><path d="M370.133,457.593v1.718h.672c2.124,0,2.323,1.72,2.323,3.45v20.158H378.6V470.927h9.519v6.823c0,3.495.614,5.172,3.668,5.172h4.8V481.2h-.673c-2.2,0-2.328-1.676-2.328-3.448V457.6h-5.465v11.053H378.6v-5.887c0-3.27-.8-5.164-3.673-5.166Z" transform="translate(-370.133 -456.844)" fill="#111b2d"/><path d="M445.566,457.587v1.718h.673c2.123,0,2.323,1.721,2.323,3.45v20.158h14.162c3.346,0,3.8-3.5,4.727-6.062l-1.563-.58-.106.268a6.6,6.6,0,0,1-2.32,3.232,6.092,6.092,0,0,1-3.325.853h-6.11v-9.708h9.743v-2.281h-9.743v-8.772h5.737a4.838,4.838,0,0,1,3.255.97,4.051,4.051,0,0,1,1.128,3.233v.3h1.723v-3.483c0-2.222-1.3-3.3-3.484-3.3Z" transform="translate(-413.803 -456.838)" fill="#111b2d"/><path d="M510.226,457.593v1.718h.672c2.122,0,2.325,1.722,2.325,3.45v20.158h5.5V471.6h1.033c1.876,2.822,3.406,6.191,5.223,8.328s4.089,3.365,5.96,3.371a8.677,8.677,0,0,0,2.847-.488v-1.371l-.246-.044a5.513,5.513,0,0,1-3.128-2.046,85.653,85.653,0,0,1-5.06-8.18,14.016,14.016,0,0,0,1.8-.6,6.878,6.878,0,0,0,3.538-3.121,5.458,5.458,0,0,0,.578-2.665,6.364,6.364,0,0,0-1.929-4.715,9.45,9.45,0,0,0-4.221-2.061,13.971,13.971,0,0,0-2.257-.343q-1.1-.076-2.008-.075Zm14.665,4.422a5.855,5.855,0,0,1,.542,2.585,5.443,5.443,0,0,1-.422,2.354,4.017,4.017,0,0,1-2.623,2.309,10.874,10.874,0,0,1-3.663.25v-9.6a7.589,7.589,0,0,1,3.774.03A3.844,3.844,0,0,1,524.891,462.015Z" transform="translate(-451.236 -456.844)" fill="#111b2d"/><path d="M581.968,457.593v20.154a7.437,7.437,0,0,0,.7,4.007c.7,1.08,1.835,1.166,2.972,1.166h4.792V481.2h-.672c-2.2,0-2.323-1.677-2.323-3.447V457.595Z" transform="translate(-492.769 -456.844)" fill="#111b2d"/><path d="M618.255,457.593a4.552,4.552,0,0,0-1.726.281l-.005.008a3.125,3.125,0,0,0-1.076.746l-.005.008-.005.008a2.847,2.847,0,0,0-.544,1.084l-.005.008v.008a5.48,5.48,0,0,0-.118,1.15v3.483h1.718v-.3c0-1.628.376-2.686,1.054-3.254l.005-.008a4.321,4.321,0,0,1,2.951-.94h2.364v23.044h5.468V459.877h7.829V457.6h-.3Z" transform="translate(-511.758 -456.844)" fill="#111b2d"/><path d="M681.312,457.593l-11.32,25.325h2.6l3.071-6.823h9.576l.787,1.915a9.612,9.612,0,0,0,1.585,2.671l.006.008.005.008a6.925,6.925,0,0,0,1.95,1.515,10.137,10.137,0,0,0,4.111.865,9.552,9.552,0,0,0,2.1-.256V481.39l-.264-.03a3.421,3.421,0,0,1-2.073-1.041,7.589,7.589,0,0,1-1.582-2.526L683.391,457.6Zm-.711,7.49,3.676,8.733h-7.56Z" transform="translate(-543.728 -456.844)" fill="#111b2d"/><path d="M743.487,459.577a12.479,12.479,0,0,0-3.455,9.275,13.613,13.613,0,0,0,1.032,5.434,12.68,12.68,0,0,0,7.247,7.278,15.322,15.322,0,0,0,5.509,1.071,22.553,22.553,0,0,0,5.394-.605,16.821,16.821,0,0,0,4.692-1.947l.141-.087v-6.875c0-2.2.509-3.24,2.1-3.26h.3v-1.533h-.3c-2.674,0-4.576.249-6.224,1.609a4.257,4.257,0,0,0-1.34,3.264v6.457a11.662,11.662,0,0,1-4.762.888,6.668,6.668,0,0,1-5.613-2.473c-2.042-2.7-2.322-6.261-2.329-9.217a18.312,18.312,0,0,1,.6-4.625,8.311,8.311,0,0,1,3.678-5.241,7.563,7.563,0,0,1,3.668-.891,7.645,7.645,0,0,1,4.982,1.491,8.079,8.079,0,0,1,2.523,4.828l.049.237h1.666v-.3a13.264,13.264,0,0,0-.42-4.168c-.587-1.815-2.6-2.83-4.053-3.433a15.272,15.272,0,0,0-5.64-.941,12.633,12.633,0,0,0-9.441,3.763Z" transform="translate(-584.275 -455.814)" fill="#111b2d"/></g><g transform="translate(2.995 35.774)"><path d="M386.155,543.81v-1.188h-8.909v12.992h1.374V550.1h6.719v-1.188H378.62v-5.1Z" transform="translate(-377.246 -541.843)" fill="#111b2d"/><path d="M404.307,542.646a.947.947,0,0,0,.965-.965.936.936,0,0,0-.965-.909.938.938,0,1,0,0,1.874Zm-.668,11.9h1.318v-9.763h-1.318Z" transform="translate(-392.354 -540.772)" fill="#111b2d"/><path d="M420.9,550.116a4.1,4.1,0,0,0-3.712,1.875v-1.8h-1.262v9.763h1.318V554.83a3.2,3.2,0,0,1,3.415-3.526c1.856,0,2.933,1.058,2.933,3.118v5.531h1.318v-5.661C424.911,551.489,423.278,550.116,420.9,550.116Z" transform="translate(-399.64 -546.181)" fill="#111b2d"/><path d="M448.093,550.116a6.2,6.2,0,0,0-3.972,1.318l.594.984a4.972,4.972,0,0,1,3.248-1.151c1.819,0,2.766.909,2.766,2.58v.594h-3.1c-2.8,0-3.768,1.262-3.768,2.765,0,1.689,1.355,2.84,3.564,2.84a3.664,3.664,0,0,0,3.359-1.615v1.522h1.262V553.9c0-2.524-1.429-3.786-3.953-3.786Zm-.464,8.89c-1.559,0-2.468-.705-2.468-1.838,0-1,.612-1.745,2.505-1.745h3.063v1.6A3.123,3.123,0,0,1,447.629,559.006Z" transform="translate(-415.811 -546.181)" fill="#111b2d"/><path d="M476.774,550.116a4.1,4.1,0,0,0-3.712,1.875v-1.8H471.8v9.763h1.318V554.83a3.2,3.2,0,0,1,3.415-3.526c1.856,0,2.932,1.058,2.932,3.118v5.531h1.318v-5.661C480.783,551.489,479.15,550.116,476.774,550.116Z" transform="translate(-431.985 -546.181)" fill="#111b2d"/><path d="M504.453,560.045a4.3,4.3,0,0,0,3.823-1.93l-.984-.668a3.3,3.3,0,0,1-2.84,1.429,3.807,3.807,0,0,1,0-7.61,3.319,3.319,0,0,1,2.84,1.448l.984-.668a4.263,4.263,0,0,0-3.823-1.931,4.965,4.965,0,1,0,0,9.93Z" transform="translate(-447.977 -546.18)" fill="#111b2d"/><path d="M526.812,542.646a.947.947,0,0,0,.966-.965.936.936,0,0,0-.966-.909.938.938,0,1,0,0,1.874Zm-.668,11.9h1.318v-9.763h-1.318Z" transform="translate(-463.274 -540.772)" fill="#111b2d"/><path d="M540.725,550.116a6.2,6.2,0,0,0-3.971,1.318l.594.984a4.973,4.973,0,0,1,3.248-1.151c1.819,0,2.765.909,2.765,2.58v.594h-3.1c-2.8,0-3.768,1.262-3.768,2.765,0,1.689,1.355,2.84,3.564,2.84a3.665,3.665,0,0,0,3.359-1.615v1.522h1.262V553.9C544.678,551.378,543.249,550.116,540.725,550.116Zm-.464,8.89c-1.559,0-2.468-.705-2.468-1.838,0-1,.612-1.745,2.505-1.745h3.063v1.6A3.124,3.124,0,0,1,540.261,559.006Z" transform="translate(-469.438 -546.181)" fill="#111b2d"/><path d="M564.432,554.543h1.318V540.771h-1.318Z" transform="translate(-485.612 -540.771)" fill="#111b2d"/><path d="M592.57,555.573a6.318,6.318,0,0,0,4.77-1.912l-.872-.872a5.1,5.1,0,0,1-3.842,1.559,5.384,5.384,0,1,1,0-10.765,5.149,5.149,0,0,1,3.842,1.541l.872-.872a6.291,6.291,0,0,0-4.751-1.893,6.61,6.61,0,1,0-.018,13.215Z" transform="translate(-497.969 -541.69)" fill="#111b2d"/><path d="M620.791,552.1V550.19h-1.262v9.763h1.318v-4.974c0-2.3,1.243-3.6,3.285-3.6.093,0,.2.018.315.018v-1.281a3.681,3.681,0,0,0-3.656,1.986Z" transform="translate(-517.509 -546.18)" fill="#111b2d"/><path d="M643.742,555.072a4.649,4.649,0,0,0-4.733-4.956,4.7,4.7,0,0,0-4.77,4.956,5.161,5.161,0,0,0,8.89,3.378l-.742-.854a3.847,3.847,0,0,1-2.988,1.28,3.614,3.614,0,0,1-3.842-3.4h8.167c.009-.159.018-.236.018-.408Zm-4.733-3.824a3.4,3.4,0,0,1,3.471,3.248h-6.923A3.391,3.391,0,0,1,639.009,551.248Z" transform="translate(-526.025 -546.181)" fill="#111b2d"/><path d="M669.415,540.771v5.865a4.263,4.263,0,0,0-3.712-1.93,4.966,4.966,0,0,0,0,9.93,4.229,4.229,0,0,0,3.768-2.023v1.93h1.262V540.771Zm-3.6,12.7a3.809,3.809,0,1,1,3.619-3.8A3.574,3.574,0,0,1,665.815,553.466Z" transform="translate(-541.425 -540.771)" fill="#111b2d"/><path d="M693.31,542.646a.947.947,0,0,0,.965-.965.936.936,0,0,0-.965-.909.938.938,0,1,0,0,1.874Zm-.668,11.9h1.318v-9.763h-1.318Z" transform="translate(-559.663 -540.772)" fill="#111b2d"/><path d="M707.515,555.579a2.18,2.18,0,0,1-1.448.5,1.563,1.563,0,0,1-1.689-1.782v-5.828h2.97v-1.113h-2.97v-2.134h-1.318v2.134h-1.745v1.114h1.745v5.9a2.586,2.586,0,0,0,2.858,2.84,3.141,3.141,0,0,0,2.06-.687Z" transform="translate(-564.857 -543.348)" fill="#111b2d"/><path d="M740.115,555.727c3.322,0,5.327-1.931,5.327-5.661v-7.443h-1.336v7.387c0,3.081-1.448,4.492-3.991,4.492-2.524,0-3.972-1.411-3.972-4.492v-7.387h-1.374v7.443c0,3.73,2.023,5.661,5.346,5.661Z" transform="translate(-584.224 -541.843)" fill="#111b2d"/><path d="M774.3,550.116a4.1,4.1,0,0,0-3.712,1.875v-1.8h-1.262v9.763h1.318V554.83a3.2,3.2,0,0,1,3.415-3.526c1.856,0,2.932,1.058,2.932,3.118v5.531h1.318v-5.661c0-2.8-1.633-4.176-4.009-4.176Z" transform="translate(-604.229 -546.181)" fill="#111b2d"/><path d="M799.458,542.646a.947.947,0,0,0,.965-.965.936.936,0,0,0-.965-.909.938.938,0,1,0,0,1.874Zm-.668,11.9h1.318v-9.763H798.79Z" transform="translate(-621.115 -540.772)" fill="#111b2d"/><path d="M813.717,560.045a4.965,4.965,0,1,0-4.974-4.974A4.8,4.8,0,0,0,813.717,560.045Zm0-1.169a3.809,3.809,0,1,1,3.62-3.8A3.574,3.574,0,0,1,813.717,558.876Z" transform="translate(-627.049 -546.181)" fill="#111b2d"/><path d="M843.687,550.116a4.1,4.1,0,0,0-3.712,1.875v-1.8h-1.262v9.763h1.318V554.83a3.2,3.2,0,0,1,3.415-3.526c1.856,0,2.932,1.058,2.932,3.118v5.531H847.7v-5.661C847.7,551.489,846.063,550.116,843.687,550.116Z" transform="translate(-644.399 -546.181)" fill="#111b2d"/></g></g></g></svg>