<svg xmlns:xlink="http://www.w3.org/1999/xlink" xmlns="http://www.w3.org/2000/svg" viewBox="0 0 312.33 39.99" width="312.33"  height="39.99" ><defs><style>.a{fill:#1355a5;}</style></defs><title>logo</title><path class="a" d="M87.52,15.64c-2.49.22-2.68,0.42-2.68,3.13v12.3c0,2.68.26,2.87,2.68,3.1v1.12H77.78V34.17c2.52-.22,2.78-0.42,2.78-3.13V25.1H71.84V31c0,2.71.26,2.91,2.62,3.13v1.12H64.94V34.17c2.33-.22,2.62-0.42,2.62-3.13V18.77c0-2.71-.29-2.91-2.75-3.13V14.52H74.4v1.12c-2.3.22-2.55,0.42-2.55,3.13v4.69h8.72V18.77c0-2.71-.26-2.91-2.65-3.13V14.52h9.61v1.12Z" transform="translate(-8 -13.61)"/><path class="a" d="M113.39,15.64c-1.72.1-2.52,0.77-2.68,1.88a26.08,26.08,0,0,0-.29,4.44v3.48c0,3.39-.51,6.07-2.3,8a8.14,8.14,0,0,1-5.91,2.33,9.14,9.14,0,0,1-5.65-1.63c-1.79-1.44-2.65-3.8-2.65-7.54V19.06c0-3-.32-3.19-2.68-3.42V14.52h9.61v1.12c-2.33.22-2.65,0.42-2.65,3.42v7c0,4.79,1.72,7.57,5.17,7.57,3.8,0,5.46-2.87,5.46-8.21V22a24.89,24.89,0,0,0-.32-4.44c-0.19-1.12-.93-1.76-3.1-1.88V14.52h8v1.12Z" transform="translate(-8 -13.61)"/><path class="a" d="M126.07,14.52c4,0,7.12.8,9.17,2.75a9.11,9.11,0,0,1,2.84,6.8,10.24,10.24,0,0,1-4,8.56c-2.36,1.79-5.72,2.65-9.68,2.65H116.2V34.17c2.52-.22,2.84-0.42,2.84-3.16V18.8c0-2.75-.32-2.94-2.55-3.16V14.52h9.58Zm-2.75,16.29c0,2.3.48,3.1,2.71,3.1,4.28,0,7.22-3.48,7.22-9.2a9.56,9.56,0,0,0-2.4-6.9,6.86,6.86,0,0,0-5.21-2,3.14,3.14,0,0,0-2,.45,2.81,2.81,0,0,0-.32,1.76V30.81Z" transform="translate(-8 -13.61)"/><path class="a" d="M154.08,19.73c-0.64-2-1.85-4.38-4.44-4.38a3,3,0,0,0-3.1,3.16c0,1.76,1.15,2.75,4,4.18,3.35,1.63,5.65,3.42,5.65,6.58,0,3.64-3.1,6.48-7.76,6.48a11.42,11.42,0,0,1-3.23-.45,12.85,12.85,0,0,1-1.92-.7,33.87,33.87,0,0,1-1-5.4l1.12-.38c0.64,2,2.52,5.65,5.59,5.65a3.09,3.09,0,0,0,3.19-3.39c0-1.88-1.41-3.07-3.8-4.34-3.26-1.66-5.56-3.39-5.56-6.45,0-3.51,2.78-6.26,7.31-6.26a14.12,14.12,0,0,1,4.44.83c0.13,1.18.35,2.62,0.61,4.6Z" transform="translate(-8 -13.61)"/><path class="a" d="M182,24.68c0,6.9-5,11.08-11,11.08A10.48,10.48,0,0,1,160.15,25c0-5.49,3.93-10.89,11.24-10.89A10.33,10.33,0,0,1,182,24.68Zm-16.9-.35c0,5.49,2.4,10.09,6.48,10.09,3,0,5.49-3,5.49-8.85,0-6.35-2.56-10.16-6.29-10.16C167.55,15.42,165.06,18.8,165.06,24.33Z" transform="translate(-8 -13.61)"/><path class="a" d="M207.57,15.61c-1.72.1-2.4,0.54-2.55,2a45.21,45.21,0,0,0-.29,5.33V35.6H203.2L189.91,19.7h-0.1v7.15a45.16,45.16,0,0,0,.26,5.21c0.16,1.41.7,2,3.07,2.11v1.12h-7.82V34.17c1.79-.13,2.52-0.64,2.65-2a38.11,38.11,0,0,0,.32-5.3V20.21c0-2.11,0-2.68-.64-3.45A3.32,3.32,0,0,0,185,15.61V14.52h5.91l12.23,14h0.1V22.92a45.72,45.72,0,0,0-.25-5.27c-0.16-1.37-.8-1.92-3.16-2V14.52h7.79v1.09Z" transform="translate(-8 -13.61)"/><path class="a" d="M239.09,35.57c-0.19,0-.54,0-1,0-4-.19-5.24-1.09-6.55-3.1-0.83-1.31-1.69-3-2.62-4.73a2.15,2.15,0,0,0-2.11-1.37h-0.61V31c0,2.65.29,2.94,2.71,3.16v1.12h-9.65V34.17c2.4-.22,2.75-0.51,2.75-3.16V18.74c0-2.56-.29-2.87-2.62-3.1V14.52h9c2.81,0,4.41.32,5.72,1.18A4.88,4.88,0,0,1,236.28,20c0,2.81-1.85,4.34-4,5.21,0.48,1,1.66,3.07,2.62,4.54a26,26,0,0,0,2.43,3.48,4.87,4.87,0,0,0,1.95,1.37Zm-12-10.51a4.75,4.75,0,0,0,3.13-.83,4.6,4.6,0,0,0,1.53-3.8c0-3.42-2-4.63-3.77-4.63a2.16,2.16,0,0,0-1.44.32,1.47,1.47,0,0,0-.29,1.18v7.76h0.83Z" transform="translate(-8 -13.61)"/><path class="a" d="M242,35.28V34.17c2.4-.22,2.68-0.45,2.68-3.13V18.8c0-2.75-.29-2.94-2.68-3.16V14.52h9.61v1.12c-2.39.22-2.65,0.42-2.65,3.16V31c0,2.68.26,2.91,2.65,3.13v1.12H242Z" transform="translate(-8 -13.61)"/><path class="a" d="M276.94,15.67c-2.08.22-2.65,0.61-3.93,3.64-1.05,2.49-4,9.74-6.45,16.32H265c-2.17-5.84-5.17-13.54-6.48-16.86-1-2.46-1.5-2.91-3.48-3.1V14.52h9.52v1.15c-2.33.35-2.33,0.7-1.85,2.08,0.93,2.55,3.45,9,4.6,12h0.1c1.76-4.66,3.13-8.37,4-11.15,0.73-2.2.73-2.65-1.88-3V14.52h7.47v1.15Z" transform="translate(-8 -13.61)"/><path class="a" d="M297.06,30c-0.22,1.44-.86,4.34-1.12,5.3H279.65V34.17c2.71-.22,3-0.42,3-3.13V18.77c0-2.78-.32-2.94-2.59-3.13V14.52h15c0,0.57.19,2.81,0.32,4.79l-1.18.16A6.28,6.28,0,0,0,293,16.73c-0.54-.57-1.4-0.8-3.19-0.8h-1.53c-1.18,0-1.31.06-1.31,1.12v6.77h2.14c2.68,0,3.13-.16,3.54-2.4h1.15v6.42h-1.15c-0.42-2.3-.83-2.43-3.54-2.43H287V31c0,1.53.13,2.3,0.77,2.62a8.44,8.44,0,0,0,2.88.32c1.66,0,2.78-.22,3.51-1a10.63,10.63,0,0,0,1.79-3.13Z" transform="translate(-8 -13.61)"/><path class="a" d="M319.86,35.57c-0.19,0-.54,0-1,0-4-.19-5.24-1.09-6.55-3.1-0.83-1.31-1.69-3-2.62-4.73a2.15,2.15,0,0,0-2.11-1.37H307V31c0,2.65.29,2.94,2.71,3.16v1.12h-9.65V34.17c2.4-.22,2.75-0.51,2.75-3.16V18.74c0-2.56-.29-2.87-2.62-3.1V14.52h9c2.81,0,4.41.32,5.72,1.18A4.88,4.88,0,0,1,317,20c0,2.81-1.85,4.34-4,5.21,0.48,1,1.66,3.07,2.62,4.54a26,26,0,0,0,2.43,3.48,4.87,4.87,0,0,0,1.95,1.37Zm-12-10.51a4.75,4.75,0,0,0,3.13-.83,4.6,4.6,0,0,0,1.53-3.8c0-3.42-2-4.63-3.77-4.63a2.16,2.16,0,0,0-1.44.32A1.46,1.46,0,0,0,307,17.3v7.76h0.83Z" transform="translate(-8 -13.61)"/><path class="a" d="M74.95,50.45a19.24,19.24,0,0,1-1,2.7,16.35,16.35,0,0,1-3.22.45c-4.39,0-6.29-3-6.29-5.77,0-3.66,2.81-6.08,6.74-6.08a12.94,12.94,0,0,1,3.1.47c0.14,1,.24,1.71.35,2.67L74.11,45a3.05,3.05,0,0,0-3.35-2.61c-2.86,0-4.37,2.44-4.37,5.09,0,3.24,1.88,5.46,4.48,5.46,1.73,0,2.68-1,3.57-2.68Z" transform="translate(-8 -13.61)"/><path class="a" d="M88.66,47.54A5.73,5.73,0,0,1,82.8,53.6a5.65,5.65,0,0,1-5.72-5.82,5.82,5.82,0,0,1,5.92-6A5.62,5.62,0,0,1,88.66,47.54ZM79,47.33C79,50.54,80.75,53,83.17,53c1.88,0,3.54-1.62,3.54-4.95,0-3.64-1.81-5.61-4.08-5.61C80.75,42.4,79,44.09,79,47.33Z" transform="translate(-8 -13.61)"/><path class="a" d="M100.33,53.34V52.84c1.41-.14,1.46-0.24,1.45-2.06l-0.05-7h-0.07l-4.18,9.46H97.11L93.26,44h0L93,48.88a27.65,27.65,0,0,0,0,2.88c0,0.82.44,1,1.6,1.06v0.52H90.43V52.82c1-.1,1.34-0.31,1.46-1s0.21-1.39.35-3.21L92.49,45c0.16-2.21.05-2.32-1.52-2.47V42h3l3.85,8.52L101.78,42h3v0.5c-1.52.14-1.62,0.19-1.57,1.93l0.16,6.33c0.05,1.81.1,1.92,1.6,2.06v0.51h-4.69Z" transform="translate(-8 -13.61)"/><path class="a" d="M116.71,53.34V52.84c1.41-.14,1.46-0.24,1.45-2.06l-0.05-7H118l-4.18,9.46h-0.37L109.64,44h0l-0.26,4.9a27.65,27.65,0,0,0,0,2.88c0,0.82.44,1,1.6,1.06v0.52h-4.1V52.82c1-.1,1.34-0.31,1.46-1s0.21-1.39.35-3.21L108.87,45c0.16-2.21.05-2.32-1.52-2.47V42h3l3.85,8.52L118.16,42h3v0.5c-1.52.14-1.62,0.19-1.57,1.93l0.16,6.33c0.05,1.81.1,1.92,1.6,2.06v0.51h-4.69Z" transform="translate(-8 -13.61)"/><path class="a" d="M135.27,42.52c-1,.07-1.45.33-1.52,1a25.35,25.35,0,0,0-.1,2.75v1.52c0,2-.31,3.5-1.31,4.55a4.34,4.34,0,0,1-3.14,1.22,4.67,4.67,0,0,1-2.84-.84c-1-.8-1.52-2.11-1.52-4.15V44.3c0-1.57-.16-1.66-1.52-1.78V42H128v0.5c-1.36.09-1.5,0.19-1.5,1.78v3.92c0,2.79,1.08,4.37,3.19,4.37,2.42,0,3.22-2,3.22-4.9V46.3a18,18,0,0,0-.14-2.81c-0.09-.66-0.45-0.89-1.67-1V42h4.18v0.5Z" transform="translate(-8 -13.61)"/><path class="a" d="M149,42.52c-1,.05-1.38.28-1.46,1-0.05.54-.1,1.32-0.1,2.93v7h-0.59l-7.39-9.06h0v4.29a29.13,29.13,0,0,0,.1,2.93c0.09,0.87.47,1.1,1.69,1.17v0.51H137V52.84c1-.07,1.43-0.3,1.52-1.13a28.61,28.61,0,0,0,.12-3v-3.8c0-1.24,0-1.38-.35-1.78a1.87,1.87,0,0,0-1.53-.64V42h2.68l7.16,8.54h0.05V46.49a26.1,26.1,0,0,0-.12-2.89c-0.09-.79-0.49-1-1.71-1.08V42H149v0.5Z" transform="translate(-8 -13.61)"/><path class="a" d="M150.91,53.34V52.84c1.41-.1,1.55-0.21,1.55-1.69V44.21c0-1.48-.14-1.59-1.55-1.69V42h4.74v0.5c-1.41.1-1.55,0.21-1.55,1.69v6.94c0,1.48.14,1.59,1.55,1.69v0.51h-4.74Z" transform="translate(-8 -13.61)"/><path class="a" d="M167,44.77a4.13,4.13,0,0,0-.59-1.6c-0.3-.4-0.59-0.52-1.86-0.52h-1.15v8.52c0,1.39.14,1.57,1.78,1.67v0.51h-5.12V52.84c1.57-.1,1.71-0.26,1.71-1.67V42.64h-1c-1.45,0-1.78.16-2,.54a5,5,0,0,0-.57,1.59h-0.54c0.09-1.08.17-2.25,0.21-3.19h0.37a0.89,0.89,0,0,0,1,.44h6.92a0.91,0.91,0,0,0,.89-0.44h0.38c0,0.78.09,2.11,0.17,3.14Z" transform="translate(-8 -13.61)"/><path class="a" d="M180.26,42.52a2.19,2.19,0,0,0-2.07,1.39c-0.77,1.22-1.34,2.2-2.16,3.75a1.89,1.89,0,0,0-.3,1.12v2.35c0,1.48.14,1.6,1.72,1.71v0.51H172.4V52.84c1.55-.1,1.69-0.23,1.69-1.71V48.88a1.85,1.85,0,0,0-.33-1c-0.59-1.06-1.22-2.2-2.2-3.85-0.68-1.19-.89-1.38-1.92-1.48V42h4.3v0.5c-1.24.16-1.19,0.37-.87,1,0.71,1.36,1.53,2.77,2.28,4.08,0.61-1.13,1.53-2.82,2-3.9,0.37-.84.33-1-1-1.13V42h3.9v0.5Z" transform="translate(-8 -13.61)"/><path class="a" d="M199,50.45a19.24,19.24,0,0,1-1,2.7,16.34,16.34,0,0,1-3.22.45c-4.39,0-6.29-3-6.29-5.77,0-3.66,2.8-6.08,6.74-6.08a13,13,0,0,1,3.1.47c0.14,1,.24,1.71.35,2.67l-0.54.12a3.05,3.05,0,0,0-3.35-2.61c-2.86,0-4.37,2.44-4.37,5.09,0,3.24,1.88,5.46,4.48,5.46,1.73,0,2.68-1,3.57-2.68Z" transform="translate(-8 -13.61)"/><path class="a" d="M211.22,53.48c-0.19,0-.4,0-0.59,0a3.27,3.27,0,0,1-3-1.6c-0.59-.84-1.18-1.9-1.69-2.75a1.37,1.37,0,0,0-1.45-.71H204v2.74c0,1.48.16,1.6,1.53,1.71v0.51h-4.69V52.84c1.39-.1,1.55-0.23,1.55-1.71v-7c0-1.46-.14-1.55-1.48-1.66V42h4.41a5,5,0,0,1,2.84.59,2.62,2.62,0,0,1,1.17,2.28,3.18,3.18,0,0,1-2.21,3c0.3,0.54,1,1.71,1.53,2.49a13.75,13.75,0,0,0,1.39,1.85,2.66,2.66,0,0,0,1.22.8Zm-6.43-5.66a2.84,2.84,0,0,0,1.86-.49,2.57,2.57,0,0,0,.92-2.16,2.32,2.32,0,0,0-2.46-2.58,1.68,1.68,0,0,0-.92.17,1,1,0,0,0-.17.75v4.3h0.77Z" transform="translate(-8 -13.61)"/><path class="a" d="M221.61,50.57c-0.1.61-.45,2.23-0.61,2.77h-8.49V52.84c1.57-.12,1.71-0.24,1.71-1.69V44.26c0-1.57-.14-1.62-1.48-1.74V42h7.84c0,0.4.1,1.6,0.16,2.53l-0.52.09a4.08,4.08,0,0,0-.59-1.5c-0.24-.37-0.71-0.49-1.92-0.49h-1.25c-0.56,0-.59.05-0.59,0.58v3.92h1.57c1.55,0,1.65-.14,1.88-1.31h0.52v3.36h-0.52c-0.23-1.24-.37-1.34-1.88-1.34h-1.57v3.22a1.55,1.55,0,0,0,.42,1.43,3.85,3.85,0,0,0,1.76.21c1.25,0,1.78-.14,2.16-0.58a6.23,6.23,0,0,0,.89-1.66Z" transform="translate(-8 -13.61)"/><path class="a" d="M228.51,42c2.21,0,3.87.45,4.95,1.48a5.15,5.15,0,0,1,1.48,3.75,5.58,5.58,0,0,1-2.14,4.65,8.43,8.43,0,0,1-5.21,1.45H223.4V52.84c1.46-.1,1.62-0.21,1.62-1.69V44.21c0-1.5-.14-1.57-1.48-1.67V42h5Zm-1.85,9c0,1.31.52,1.66,1.78,1.66,3.1,0,4.64-2.33,4.64-5.18a4.6,4.6,0,0,0-1.93-4.09,5.05,5.05,0,0,0-2.94-.78,2.61,2.61,0,0,0-1.31.21,1.15,1.15,0,0,0-.23,1V51Z" transform="translate(-8 -13.61)"/><path class="a" d="M237,53.34V52.84c1.41-.1,1.55-0.21,1.55-1.69V44.21c0-1.48-.14-1.59-1.55-1.69V42h4.74v0.5c-1.41.1-1.55,0.21-1.55,1.69v6.94c0,1.48.14,1.59,1.55,1.69v0.51H237Z" transform="translate(-8 -13.61)"/><path class="a" d="M253.18,44.77a4.13,4.13,0,0,0-.59-1.6c-0.3-.4-0.59-0.52-1.86-0.52h-1.15v8.52c0,1.39.14,1.57,1.78,1.67v0.51h-5.12V52.84c1.57-.1,1.71-0.26,1.71-1.67V42.64h-1c-1.45,0-1.78.16-2,.54a5,5,0,0,0-.58,1.59h-0.54c0.09-1.08.17-2.25,0.21-3.19h0.37a0.89,0.89,0,0,0,1,.44h6.92a0.91,0.91,0,0,0,.89-0.44h0.38c0,0.78.09,2.11,0.17,3.14Z" transform="translate(-8 -13.61)"/><path class="a" d="M272.3,42.52c-1,.07-1.45.33-1.52,1a25.12,25.12,0,0,0-.11,2.75v1.52c0,2-.31,3.5-1.31,4.55a4.34,4.34,0,0,1-3.14,1.22,4.67,4.67,0,0,1-2.84-.84c-1-.8-1.52-2.11-1.52-4.15V44.3c0-1.57-.16-1.66-1.52-1.78V42H265v0.5c-1.36.09-1.5,0.19-1.5,1.78v3.92c0,2.79,1.08,4.37,3.19,4.37,2.42,0,3.22-2,3.22-4.9V46.3a17.88,17.88,0,0,0-.14-2.81c-0.09-.66-0.45-0.89-1.67-1V42h4.18v0.5Z" transform="translate(-8 -13.61)"/><path class="a" d="M286,42.52c-1,.05-1.38.28-1.46,1a29.26,29.26,0,0,0-.1,2.93v7h-0.59l-7.39-9.06h0v4.29a29,29,0,0,0,.1,2.93c0.09,0.87.47,1.1,1.69,1.17v0.51h-4.17V52.84c1-.07,1.43-0.3,1.52-1.13a28.37,28.37,0,0,0,.12-3v-3.8c0-1.24,0-1.38-.35-1.78a1.87,1.87,0,0,0-1.53-.64V42h2.68l7.16,8.54h0.05V46.49a25.87,25.87,0,0,0-.12-2.89c-0.09-.79-0.49-1-1.71-1.08V42H286v0.5Z" transform="translate(-8 -13.61)"/><path class="a" d="M287.94,53.34V52.84c1.41-.1,1.55-0.21,1.55-1.69V44.21c0-1.48-.14-1.59-1.55-1.69V42h4.74v0.5c-1.41.1-1.55,0.21-1.55,1.69v6.94c0,1.48.14,1.59,1.55,1.69v0.51h-4.74Z" transform="translate(-8 -13.61)"/><path class="a" d="M306.34,47.54a5.73,5.73,0,0,1-5.85,6.06,5.65,5.65,0,0,1-5.72-5.82,5.82,5.82,0,0,1,5.92-6A5.62,5.62,0,0,1,306.34,47.54Zm-9.62-.21c0,3.21,1.71,5.63,4.13,5.63,1.88,0,3.54-1.62,3.54-4.95,0-3.64-1.81-5.61-4.08-5.61C298.43,42.4,296.72,44.09,296.72,47.33Z" transform="translate(-8 -13.61)"/><path class="a" d="M320.33,42.52c-1,.05-1.38.28-1.46,1-0.05.54-.1,1.32-0.1,2.93v7h-0.59l-7.39-9.06h0v4.29a29.29,29.29,0,0,0,.1,2.93c0.09,0.87.47,1.1,1.69,1.17v0.51h-4.17V52.84c1-.07,1.43-0.3,1.52-1.13a28.86,28.86,0,0,0,.12-3v-3.8c0-1.24,0-1.38-.35-1.78a1.87,1.87,0,0,0-1.53-.64V42h2.68L318,50.55H318V46.49a26.32,26.32,0,0,0-.12-2.89c-0.09-.79-0.49-1-1.71-1.08V42h4.13v0.5Z" transform="translate(-8 -13.61)"/><path class="a" d="M12.21,19.05A5.92,5.92,0,0,0,11,24.79c1,3.49,3.67,5.27,7.17,6.53a32,32,0,0,0,6.1,1.6c1.7,0.36,6.05.73,6.05,0.73s-11.56-.09-16.53-3.55c-4.8-3.35-4.59-7.78-3.73-9.85,0,0-4,3-.9,9,2.18,4.27,9.62,6.11,15.9,6.8,6.6,0.73,14.42,1.38,16.31,1.75s5.37,1.09,6.9,2.85a4.76,4.76,0,0,1,.81,3.85,4.36,4.36,0,0,0-2-4.22C45,39.12,39.13,38.15,34.5,38l0,14.26a1,1,0,0,0,1,1H47.82a1,1,0,0,0,1-1l0-3.4a7.38,7.38,0,0,1-4.61-1.3s4.3,1.77,7.07-.87c2.39-2.28,2.25-5,1.54-7.39-0.89-3-4-5.15-4-5.15V14.6a1,1,0,0,0-1-1H35.46a1,1,0,0,0-1,1V30.68s-9.4-.92-12.32-1.49c-3.19-.62-6-1.38-7.64-3.49a3.53,3.53,0,0,1-.42-4.05,3.76,3.76,0,0,0,1.61,4.54c4,2.32,10.76,2.41,10.76,2.41v-14a1,1,0,0,0-1-1H13.19a1,1,0,0,0-1,1v4.45Z" transform="translate(-8 -13.61)"/><path class="a" d="M12.19,33.61V52.27a1,1,0,0,0,1,1h12.3a1,1,0,0,0,1-1V37.37a50.59,50.59,0,0,1-7.34-1A21.77,21.77,0,0,1,12.19,33.61Z" transform="translate(-8 -13.61)"/></svg>