<svg xmlns="http://www.w3.org/2000/svg" xmlns:xlink="http://www.w3.org/1999/xlink" viewBox="0 0 325.96 56.85" width="325.96"  height="56.85" ><defs><style>.cls-1{fill:none;}.cls-2{fill:#19398a;}.cls-3{clip-path:url(#clip-path);}.cls-4{fill:#bf311a;}</style><clipPath id="clip-path"><rect class="cls-1" width="326" height="57"/></clipPath></defs><g id="Layer_2" data-name="Layer 2"><g id="Layer_1-2" data-name="Layer 1"><path class="cls-2" d="M95.48,21.83h7.6L99.14,13Zm15.87,10.35h-3.58L104.51,25H94.12L91,32.18H87.46L98,7.61h2.47l10.92,24.57"/><polyline class="cls-2" points="145.71 32.18 142.2 32.18 142.2 13.16 142.13 13.16 134.6 22.62 134.03 22.62 126.51 13.16 126.43 13.16 126.43 32.18 122.92 32.18 122.92 7.75 126.22 7.75 134.32 17.78 142.45 7.75 145.71 7.75 145.71 32.18"/><polyline class="cls-2" points="173.79 10.9 163.44 10.9 163.44 18.28 173.43 18.28 173.43 21.43 163.44 21.43 163.44 29.03 174.11 29.03 174.11 32.18 159.93 32.18 159.93 7.75 173.79 7.75 173.79 10.9"/><path class="cls-2" d="M190.37,18.43h2.26c3.76,0,4.84-1.94,4.8-4,0-2.29-1.39-3.69-4.8-3.69h-2.26ZM193,7.75c4.94,0,8,2.61,8,6.84a6.09,6.09,0,0,1-4.08,6c2.22,1.47,3.58,3.73,5.44,6.78,1,1.68,1.65,2.51,3.34,4.83h-4.2l-3.22-5c-3.23-5-4.69-5.59-6.49-5.59h-1.47v10.6h-3.5V7.75H193"/><rect class="cls-2" x="217.42" y="7.75" width="3.51" height="24.44"/><path class="cls-2" d="M256.11,13.2a16.06,16.06,0,0,0-8.42-2.55c-5.59,0-9.74,4-9.74,9.35s4,9.28,9.89,9.28a16,16,0,0,0,8.52-2.76v3.84a17.94,17.94,0,0,1-8.85,2.14c-9.17,0-13.18-7-13.18-12.18,0-7.45,5.62-12.89,13.4-12.89a21.36,21.36,0,0,1,8.38,2V13.2"/><path class="cls-2" d="M275.84,21.83h7.6L279.5,13Zm15.87,10.35h-3.58L284.87,25H274.48l-3.08,7.2h-3.58l10.5-24.57h2.47l10.92,24.57"/><polyline class="cls-2" points="325.96 32.18 322.95 32.18 306.61 13.37 306.61 32.18 303.32 32.18 303.32 7.75 306.11 7.75 322.66 26.66 322.66 7.75 325.96 7.75 325.96 32.18"/><path class="cls-2" d="M123.57,43.29a9.06,9.06,0,0,0-4.75-1.44,5.25,5.25,0,0,0-5.5,5.28c0,3.09,2.27,5.23,5.58,5.23a9,9,0,0,0,4.81-1.55V53a10.06,10.06,0,0,1-5,1.21,7,7,0,0,1-7.44-6.87A7.19,7.19,0,0,1,118.84,40a12.11,12.11,0,0,1,4.73,1.13v2.13"/><path class="cls-2" d="M134,52.36a5.26,5.26,0,1,0-5.36-5.25A5.17,5.17,0,0,0,134,52.36ZM134,40a7.08,7.08,0,1,1-7.4,7.08A7,7,0,0,1,134,40"/><polyline class="cls-2" points="157.63 54 155.65 54 155.65 43.27 155.6 43.27 151.36 48.6 151.03 48.6 146.79 43.27 146.75 43.27 146.75 54 144.77 54 144.77 40.22 146.63 40.22 151.2 45.88 155.78 40.22 157.63 40.22 157.63 54"/><polyline class="cls-2" points="174.43 54 172.45 54 172.45 43.27 172.41 43.27 168.16 48.6 167.84 48.6 163.59 43.27 163.56 43.27 163.56 54 161.57 54 161.57 40.22 163.43 40.22 168 45.88 172.59 40.22 174.43 40.22 174.43 54"/><path class="cls-2" d="M190,48.59c0,3.37-2,5.59-6.12,5.59-2.92,0-5.75-1.63-5.75-5.39V40.22h2v8.14c0,1.56.21,2.21.83,2.83a4,4,0,0,0,3,1.17,4.51,4.51,0,0,0,3.24-1.11,4,4,0,0,0,.87-3v-8h2v8.37"/><polyline class="cls-2" points="206.5 54 204.81 54 195.58 43.39 195.58 54 193.72 54 193.72 40.22 195.3 40.22 204.64 50.89 204.64 40.22 206.5 40.22 206.5 54"/><rect class="cls-2" x="210.57" y="40.22" width="1.98" height="13.79"/><polyline class="cls-2" points="226.97 41.99 222.19 41.99 222.19 54 220.22 54 220.22 41.99 215.44 41.99 215.44 40.22 226.97 40.22 226.97 41.99"/><polyline class="cls-2" points="238.15 40.22 240.53 40.22 235.42 46.73 235.42 54 233.44 54 233.44 46.7 228.32 40.22 230.71 40.22 234.41 44.97 238.15 40.22"/><path class="cls-2" d="M251.68,52.22h2.48c2.33,0,3-1.15,3-2.18,0-1.25-1-2.14-3.06-2.14h-2.38Zm0-6.1H253c2,0,2.91-.73,2.91-2.21,0-1-.58-1.92-2.4-1.92h-1.82Zm-2-5.9h4c3,0,4.25,1.77,4.25,3.51a2.93,2.93,0,0,1-2.11,3v0a3.63,3.63,0,0,1,3.32,3.59c0,1.7-1.27,3.68-4.73,3.68H249.7V40.22"/><path class="cls-2" d="M265.5,48.16h4.29l-2.22-5Zm9,5.84h-2l-1.84-4.06h-5.86L263,54h-2l5.92-13.87h1.4L274.46,54"/><polyline class="cls-2" points="289.75 54 288.05 54 278.83 43.39 278.83 54 276.97 54 276.97 40.22 278.55 40.22 287.89 50.89 287.89 40.22 289.75 40.22 289.75 54"/><g class="cls-3"><polyline class="cls-2" points="305.52 54 302.79 54 295.78 47.19 295.78 54 293.79 54 293.79 40.22 295.78 40.22 295.78 46.52 301.58 40.22 304.04 40.22 298.04 46.75 305.52 54"/><path class="cls-4" d="M9.3,44.72v9c24.78-10.84,38.76,10.85,63.54,0v-9c-24.78,10.84-38.76-10.85-63.54,0"/></g><path class="cls-4" d="M31.49,24.27l-1.13.84L33,33.58c12.61,2.67,24,9,39.81,2.06v-9c-16.43,7.19-28.12.08-41.35-2.36ZM24.16,5.42l2.2,7h21l-6.71,5c9.85,2.75,19.64,5.63,32.23.13v-9C53.45,17,40.67,5.6,24.16,5.42"/><polyline class="cls-2" points="19.88 0 24.58 14.9 39.76 14.9 27.48 24.11 32.17 39 19.88 29.8 7.59 39 12.29 24.11 0 14.9 15.19 14.9 19.88 0"/></g></g></svg>