<svg xmlns="http://www.w3.org/2000/svg" xmlns:xlink="http://www.w3.org/1999/xlink" version="1.1" id="Layer_2" x="0px" y="0px" viewBox="0 0 415.7 70" style="enable-background:new 0 0 415.7 70;" xml:space="preserve" width="415.7"  height="70" >
<style type="text/css">
	.st0{fill:#3D3935;}
	.st1{fill:#FFFFFF;}
	.st2{fill:#862633;}
</style>
<g>
	<g>
		<path class="st0" d="M130.8,44.8c-0.9,2.4-2,4.1-3.3,5.1c-1.3,1-2.8,1.5-4.6,1.5c-2.7,0-5-1.2-7-3.5c-1.9-2.2-2.9-5.3-3-9.2h19.6    v-0.4c0-3.6-1.1-6.5-3.2-8.7c-2.1-2.2-4.9-3.3-8.1-3.3c-3.9,0-7.1,1.4-9.7,4.2c-2.5,2.8-3.8,6.7-3.8,11.6c0,4.6,1.3,8.3,3.7,11    c2.5,2.7,5.5,4.1,9.1,4.1c3.2,0,6-1.2,8.1-3.6c2.1-2.4,3.4-5,3.9-7.9l0-0.3l-1.6-1L130.8,44.8z M125.3,36H113    c0.3-2.1,1-3.7,2.2-4.9v0c1.3-1.3,2.7-1.9,4.3-1.9c1,0,2,0.3,3,0.9s1.7,1.5,2.2,2.5C125,33.4,125.2,34.5,125.3,36z"/>
	</g>
	<g>
		<path class="st0" d="M151.6,26.3c-2.4,0-4.7,1.8-6.9,5.3v-5.3H143l-9.1,3.6l0.5,1.9l0.4-0.2c1.3-0.5,2.4-0.6,3.1-0.1    c0.3,0.2,0.5,0.6,0.6,1.1c0.1,0.4,0.2,1.8,0.2,5.8v11c0,2.1-0.1,2.7-0.1,2.9c-0.2,0.6-0.5,1.1-0.9,1.3c-0.6,0.4-1.6,0.6-3,0.6    h-0.4v1.9h15.3v-1.9h-0.4c-1.2,0-2.1-0.2-2.7-0.5c-0.6-0.3-1-0.7-1.3-1.2c-0.4-0.7-0.5-1.9-0.5-3.4V35.8c0.9-1.8,1.9-3.2,2.8-4    c0.4-0.3,0.7-0.5,0.9-0.5c0.2,0,0.7,0.1,1.7,1c2,1.6,3.7,1.4,4.9,0.2c0.6-0.6,0.9-1.4,0.9-2.3c0-1-0.4-1.9-1.2-2.7    C153.9,26.7,152.8,26.3,151.6,26.3z"/>
	</g>
	<g>
		<path class="st0" d="M29.9,15.5h2c1.5,0,2.6,0.4,3.3,1.2c0.4,0.4,0.8,1.5,0.8,4.7v17c0,4.4-0.4,7.5-1.2,9.3    c-0.8,1.8-2.2,3.3-4.3,4.4c-2.1,1.2-4.5,1.7-7.2,1.7c-2.1,0-3.8-0.4-5.2-1.1c-1.4-0.7-2.5-1.7-3.2-2.8c-0.7-1.1-1.3-2.7-1.6-4.8    c-0.3-2.1-0.4-3.9-0.4-5.5V21.4c0-2.8,0.4-4,0.7-4.4c0.7-1,1.8-1.5,3.4-1.5h2v-2H0v2h2c1.5,0,2.5,0.4,3.1,1.1c0.6,0.7,1,2.3,1,4.8    v16.4c0,5.2,0.3,8.6,1,10.5c1,2.8,2.8,5,5.2,6.6c2.4,1.6,6,2.5,10.7,2.5c4.3,0,7.7-0.9,10.2-2.6c2.5-1.7,4.2-3.8,5.1-6.2    c0.8-2.4,1.3-5.7,1.3-9.9v-17c0-2.8,0.3-3.8,0.6-4.2c0.8-1.3,2-1.9,3.5-1.9h2v-2H29.9V15.5z"/>
	</g>
	<g>
		<path class="st0" d="M59.4,54c-0.5-0.3-0.8-0.6-1-1.1c-0.2-0.4-0.4-1.2-0.4-3.4v-38h-1.8l-9,3.7l0.9,1.8l0.4-0.1    c1.4-0.6,2.3-0.6,2.9-0.2c0.2,0.1,0.4,0.5,0.6,1.3c0.1,0.7,0.2,2.7,0.2,5.8v25.8c0,2.1-0.2,3-0.4,3.4c-0.2,0.5-0.5,0.9-0.9,1.1    c-0.3,0.2-0.9,0.4-2.5,0.4h-0.4v1.9h14.7v-1.9h-0.4C60.5,54.4,59.7,54.2,59.4,54z"/>
	</g>
	<g>
		<path class="st0" d="M104.3,50.1c-0.3,0.7-0.8,1.3-1.3,1.7c-0.6,0.4-1.2,0.6-1.8,0.6c-0.7,0-1.3-0.3-1.7-0.8    c-0.3-0.4-0.7-1.3-0.7-3.5v-18h6.6v-3h-6.6v-9.3h-1.6l-0.1,0.3c-0.8,2.1-1.5,3.5-2,4.2c-0.9,1.5-2,2.7-3.1,3.8    c-1.1,1-2.3,1.8-3.4,2.2l-0.3,0.1v1.7h4.5v18.7c0,2.1,0.2,3.7,0.7,4.7c0.5,1.1,1.2,1.9,2.2,2.5c1,0.6,2,0.8,3,0.8    c1.5,0,3-0.5,4.3-1.6c1.4-1.1,2.5-2.7,3.2-4.8l0.2-0.5h-2.1L104.3,50.1z"/>
	</g>
	<g>
		<path class="st0" d="M79.9,39.7l-4.5-2.2c-1.9-0.9-3.2-1.8-3.8-2.6c-0.6-0.8-0.9-1.6-0.9-2.7c0-0.8,0.4-1.5,1.2-2.2    c0.8-0.7,1.9-1,3.2-1c1.8,0,3.3,0.5,4.4,1.5c1.2,1,2.1,3.1,2.9,6l0.1,0.3h1.7V26.3h-1.7l-0.1,0.2c-0.3,0.6-0.5,0.8-0.5,0.8    c-0.1,0.1-0.3,0.1-0.5,0.1c-0.2,0-0.7-0.1-2-0.4c-1.6-0.5-3-0.7-4.2-0.7c-2.6,0-4.8,0.8-6.5,2.5c-1.7,1.6-2.5,3.7-2.5,6.1    c0,1.9,0.5,3.5,1.5,4.7c1,1.3,2.9,2.6,6,4.1c2.9,1.5,4.9,2.7,5.9,3.6c0.9,0.9,1.4,2,1.4,3.3c0,1.1-0.4,2-1.2,2.7    c-0.8,0.8-1.9,1.1-3.2,1.1c-1.9,0-3.7-0.7-5.2-2.1c-1.6-1.4-2.6-3.5-3.2-6.3l-0.1-0.3h-1.8v10.9H68l0.1-0.2    c0.3-0.5,0.6-0.6,0.8-0.6c0.4,0,0.9,0.1,1.6,0.3c2.3,0.6,4.3,0.9,6.1,0.9c2.5,0,4.8-0.8,6.8-2.5c2-1.7,3.1-3.9,3.1-6.6    C86.4,44.7,84.2,41.8,79.9,39.7z"/>
	</g>
	<g>
		<path class="st0" d="M320.9,18.6c1,0,1.8-0.4,2.5-1.1c0.7-0.7,1-1.5,1-2.5c0-1-0.3-1.8-1-2.5c-0.7-0.7-1.5-1-2.5-1    c-1,0-1.8,0.3-2.5,1v0c-0.7,0.7-1,1.5-1,2.5c0,1,0.4,1.8,1,2.5C319.1,18.2,320,18.6,320.9,18.6z"/>
	</g>
	<g>
		<path class="st0" d="M391.3,28.4c-0.1-0.1-0.5-0.1-1.7-0.1h-5.9c-2-1.3-4.4-2-7.2-2c-3.4,0-6.2,1.1-8.4,3.1    c-2.2,2.1-3.3,4.6-3.3,7.5c0,1.9,0.5,3.7,1.5,5.2c0.9,1.4,2.1,2.6,3.6,3.4c-1.9,1.6-3.1,2.9-3.7,3.8c-0.6,1-0.9,1.9-0.9,2.8    c0,0.7,0.3,1.4,0.8,2c0.4,0.5,1,1,1.9,1.5c-2.6,2.7-2.8,2.9-2.8,3c-1.1,1.4-1.9,2.5-2.2,3.3c-0.3,0.5-0.4,1.1-0.4,1.7    c0,1.3,0.8,2.5,2.5,3.6c2.8,1.8,6.3,2.8,10.3,2.8c5.3,0,9.6-1.6,12.9-4.6c2.3-2.1,3.4-4.4,3.4-6.9c0-1.8-0.6-3.3-1.8-4.6    c-1.2-1.2-2.8-2-4.8-2.3c-1.3-0.2-4-0.3-8.3-0.4c-2.3-0.1-3.7-0.1-4.3-0.2c-1.1-0.2-1.6-0.4-1.8-0.6c-0.3-0.2-0.4-0.5-0.4-0.7    c0-0.3,0.1-0.8,0.4-1.3c0.3-0.5,0.8-1.1,1.6-1.8c1.4,0.4,2.8,0.6,4.2,0.6c3.5,0,6.3-1,8.4-2.9c2.1-2,3.2-4.3,3.2-7.1    c0-2.1-0.5-3.8-1.4-5.3h2.9c1.2,0,1.6-0.1,1.7-0.1c0.2-0.1,0.4-0.2,0.5-0.4c0.1-0.3,0.2-0.7,0.2-1.3c0-0.6-0.1-1-0.2-1.2    C391.7,28.6,391.6,28.5,391.3,28.4z M367.8,61.4c0-0.7,0.2-1.5,0.7-2.3c0.5-0.8,1.1-1.7,2-2.7c2.5,0.3,6,0.6,10.6,0.7    c3.1,0.1,5.2,0.3,6.2,0.8c0.9,0.4,1.3,1,1.3,1.9c0,1.3-0.8,2.6-2.5,3.9c-1.7,1.3-4.4,1.9-8,1.9c-3.8,0-6.7-0.6-8.7-1.9    C368.3,63,367.8,62.2,367.8,61.4z M372.5,30.3c1-1.1,2.1-1.7,3.5-1.7c1.5,0,2.8,0.6,3.7,1.9c1.4,1.8,2.1,4.3,2.1,7.5    c0,2.4-0.5,4.2-1.4,5.3c-0.9,1.1-2.1,1.6-3.6,1.6c-1.5,0-2.8-0.6-3.8-1.9c-1.3-1.7-2-4.2-2-7.3C371.1,33.2,371.6,31.4,372.5,30.3z    "/>
	</g>
	<g>
		<path class="st0" d="M409.2,39.7l-4.5-2.2c-1.9-0.9-3.2-1.8-3.8-2.6c-0.6-0.8-0.9-1.6-0.9-2.7c0-0.8,0.4-1.5,1.2-2.2    c0.8-0.7,1.9-1,3.2-1c1.8,0,3.3,0.5,4.4,1.5c1.2,1,2.1,3.1,2.9,6l0.1,0.3h1.7V26.3h-1.7l-0.1,0.2c-0.3,0.6-0.5,0.8-0.5,0.8    c-0.1,0.1-0.3,0.1-0.5,0.1c-0.2,0-0.7-0.1-2-0.4c-1.6-0.5-3-0.7-4.2-0.7c-2.6,0-4.8,0.8-6.5,2.5c-1.7,1.6-2.5,3.7-2.5,6.1    c0,1.9,0.5,3.5,1.5,4.7c1,1.3,2.9,2.6,6,4.1c2.9,1.5,4.9,2.7,5.9,3.6c0.9,0.9,1.4,2,1.4,3.3c0,1.1-0.4,2-1.2,2.7    c-0.8,0.8-1.9,1.1-3.2,1.1c-1.9,0-3.7-0.7-5.2-2.1c-1.6-1.4-2.6-3.5-3.2-6.3l-0.1-0.3h-1.8v10.9h1.7l0.1-0.2    c0.3-0.5,0.6-0.6,0.8-0.6c0.4,0,0.9,0.1,1.6,0.3c2.3,0.6,4.3,0.9,6.1,0.9c2.5,0,4.8-0.8,6.8-2.5c2-1.7,3.1-3.9,3.1-6.6    C415.7,44.7,413.5,41.8,409.2,39.7z"/>
	</g>
	<g>
		<path class="st0" d="M358.2,54c-0.4-0.2-0.7-0.6-0.9-1c-0.2-0.4-0.4-1.3-0.4-3.5V37.4c0-2.6-0.2-4.6-0.7-5.8    c-0.7-1.8-1.6-3.2-2.8-4c-1.2-0.8-2.6-1.2-4.2-1.2c-2.9,0-6,1.8-9.1,5.3v-5.3h-1.7l-9.1,3.7l0.8,1.9l0.4-0.1    c1.4-0.5,2.4-0.6,3-0.1c0.2,0.1,0.4,0.5,0.6,1.3c0.1,0.7,0.2,2.8,0.2,6.1v10.5c0,2-0.2,3.3-0.7,4c-0.4,0.6-1.3,0.9-2.6,0.9h-1v1.9    h14.8v-1.9h-0.4c-1.8,0-2.6-0.2-2.9-0.4c-0.4-0.2-0.8-0.6-1-1.1c-0.1-0.2-0.3-1-0.3-3.4V34.7c2.3-2.5,4.6-3.8,6.9-3.8    c1.4,0,2.4,0.5,3,1.5c0.6,1.1,1,2.9,1,5.4v11.6c0,2.1-0.1,2.7-0.1,2.8c-0.2,0.7-0.5,1.2-1,1.6c-0.3,0.2-1,0.5-2.5,0.5h-1v1.9h14.8    v-1.9h-0.4C359.2,54.4,358.5,54.2,358.2,54z"/>
	</g>
	<g>
		<path class="st0" d="M301.5,29.1h0.4c1.3,0,1.8,0.1,2,0.2c0.3,0.1,0.5,0.2,0.7,0.5c0.1,0.1,0.1,0.3,0.1,0.4c0,0.5-0.2,1.4-0.7,2.5    l-6.3,15.4l-6.2-14.8c-0.4-0.9-0.6-1.7-0.6-2.4c0-0.5,0.2-1,0.5-1.3c0.3-0.3,0.9-0.5,1.6-0.5h1.3v-2h-14.2v1.9l0.3,0.1    c1.2,0.2,1.7,0.4,2,0.5c0.6,0.3,1.1,0.7,1.5,1.1c0.4,0.5,0.8,1.2,1.2,2.3l10.2,24.2h1.8l10.2-24.6c0.6-1.4,1.2-2.4,1.8-2.9    c0.2-0.2,0.8-0.5,2-0.6l0.4,0v-1.9h-10.1V29.1z"/>
	</g>
	<g>
		<path class="st0" d="M277.2,52c-0.3,0.2-0.9,0.3-1.2,0c-0.1-0.1-0.3-0.3-0.4-1c-0.1-0.6-0.1-2.2-0.1-4.9v-9.6    c0-2.8-0.2-4.7-0.6-5.6c-0.6-1.4-1.6-2.5-2.9-3.2c-1.7-0.9-3.8-1.3-6.4-1.3c-3.4,0-6,0.8-7.9,2.3c-1.9,1.6-2.9,3.3-2.9,5.2    c0,1,0.3,1.9,0.8,2.5c0.6,0.6,1.3,0.9,2.2,0.9c0.9,0,1.6-0.3,2.2-0.9c0.6-0.6,0.8-1.4,0.8-2.5l-0.1-1.8c0-0.8,0.3-1.5,1-2.1    c0.7-0.6,1.6-0.9,2.8-0.9c1.6,0,2.8,0.5,3.6,1.4c0.8,1,1.2,2.8,1.2,5.6v0.8c-4.7,1.7-8.2,3.2-10.3,4.5c-2.1,1.3-3.7,2.7-4.6,4.1    c-0.7,1.1-1,2.4-1,3.8c0,2.3,0.7,4.2,2,5.6c1.3,1.4,3.1,2.1,5.1,2.1c1.3,0,2.6-0.3,3.7-0.8c0.7-0.3,2.3-1.5,4.9-3.5    c0.1,1.4,0.4,2.4,1,3.1c0.7,0.8,1.6,1.2,2.7,1.2c2.2,0,4.6-1.6,7-4.8l0.1-0.1v-2.9l-0.7,0.7C278.4,51,277.6,51.8,277.2,52z     M264.1,42c0.8-0.5,2.7-1.3,5.4-2.4v10c-2.4,1.9-4.4,2.9-5.8,2.9c-1,0-2-0.4-2.8-1.3c-0.8-0.9-1.2-2.1-1.2-3.4c0-1.1,0.3-2.1,1-3    C261.4,43.8,262.5,42.9,264.1,42z"/>
	</g>
	<g>
		<path class="st0" d="M247.7,33.9c-2.1-1.6-5.7-2.8-10.6-3.4c-4.3-0.5-7.2-1.3-8.8-2.4c-1.6-1.1-2.3-2.7-2.3-5    c0-2.7,0.8-4.9,2.5-6.5c1.7-1.7,3.8-2.5,6.5-2.5c1.7,0,3.4,0.3,5,0.9c1.1,0.4,2.1,0.9,3,1.6c0.4,0.3,0.7,0.6,0.8,0.9    c0.2,0.3,0.3,0.7,0.4,1.3l0.5,4.3h2.7v-0.4c0-1.7,0.1-3.2,0.2-4.5c0.1-1.2,0.4-2.7,0.7-4.4l0.1-0.3l-0.3-0.1c-1.8-0.8-3.8-1.5-6-2    c-2.2-0.5-4.1-0.8-5.9-0.8c-4.6,0-8.5,1.4-11.7,4c-3.2,2.7-4.8,6.1-4.8,10c0,3.7,1,6.5,3.1,8.3c2,1.8,5.5,3,10.3,3.6    c4.4,0.5,7.5,1.4,9.2,2.6c1.6,1.1,2.4,2.9,2.4,5.4c0,2.8-1,5.1-3.1,6.9c-2.1,1.8-4.7,2.7-8,2.7c-1.7,0-3.5-0.4-5.3-1.1    c-1.3-0.5-2.4-1.2-3.4-2c-0.4-0.3-0.7-0.6-0.8-0.9c-0.2-0.3-0.3-0.7-0.3-1.3l-0.5-4.3h-2.7v0.4c0,1.9,0,3.5-0.1,4.8    c-0.1,1.4-0.2,3-0.5,4.9l0,0.3l0.3,0.1c1.6,0.8,3.5,1.5,5.6,2c2.1,0.5,4,0.8,5.8,0.8c5.4,0,10-1.6,13.7-4.7    c3.7-3.1,5.6-7,5.6-11.6C250.9,38,249.8,35.5,247.7,33.9z"/>
	</g>
	<g>
		<path class="st0" d="M325.3,54c-0.4-0.2-0.8-0.6-1-1.1c-0.2-0.4-0.4-1.2-0.4-3.4V26.3h-1.8l-9.1,3.6l0.7,1.9l0.4-0.1    c1.4-0.5,2.5-0.6,3-0.1c0.2,0.2,0.4,0.6,0.5,1.1c0.2,0.9,0.3,2.9,0.3,5.9v10.9c0,2.1-0.2,3-0.4,3.4c-0.2,0.5-0.6,0.9-1,1.1    c-0.3,0.2-1,0.4-2.6,0.4h-0.4v1.9h14.6v-1.9h-0.4C326.3,54.4,325.6,54.2,325.3,54z"/>
	</g>
</g>
<g>
	<path class="st0" d="M188.1,66.6c16.2,0,29.4-14.9,29.4-33.3c0-18.4-13.1-33.3-29.4-33.3c-16.2,0-29.4,14.9-29.4,33.3   C158.7,51.7,171.8,66.6,188.1,66.6"/>
</g>
<g>
	<path class="st1" d="M188.1,64.7c15.3,0,27.8-14.1,27.8-31.4c0-17.4-12.4-31.4-27.8-31.4c-15.3,0-27.8,14.1-27.8,31.4   C160.3,50.7,172.7,64.7,188.1,64.7"/>
</g>
<g>
	<path class="st2" d="M188.1,62.8c14.6,0,26.4-13.2,26.4-29.5c0-16.3-11.8-29.5-26.4-29.5c-14.6,0-26.4,13.2-26.4,29.5   C161.6,49.6,173.5,62.8,188.1,62.8"/>
</g>
<path class="st1" d="M205.6,39.9c-1.3-1-3.5-1.7-6.6-2.1c-1.9-0.2-3.4-0.6-4.4-1c0.9-0.8,1.5-1.8,1.9-2.8c0.5-1.5,0.8-3.6,0.8-6.2  v-0.4c0.1,0,0.2,0,0.4,0c1.1,0,2.2,0.2,3.2,0.6c0.7,0.2,1.3,0.6,1.9,1c0.3,0.2,0.4,0.4,0.5,0.6c0.1,0.2,0.2,0.5,0.2,0.9l0.3,2.7h1.6  v-0.2c0-1.1,0-2,0.1-2.8c0.1-0.8,0.2-1.7,0.5-2.8l0-0.2l-0.2-0.1c-1.1-0.5-2.4-0.9-3.7-1.2c-1.3-0.3-2.6-0.5-3.7-0.5  c-0.4,0-0.8,0-1.2,0.1v-8.2c0-1.8,0.2-2.4,0.4-2.7c0.5-0.8,1.2-1.2,2.2-1.2h1.2v-1.1h-9.7v1.1h1.2c0.9,0,1.6,0.3,2.1,0.8  c0.2,0.3,0.5,1,0.5,3v8.8c-1.5,0.4-2.8,1.1-3.9,2.1c-2,1.7-3,3.8-3,6.2c0,1.3,0.2,2.3,0.6,3.2c-0.5,0.1-1,0.1-1.6,0.1  c-1.3,0-2.4-0.2-3.3-0.7c-0.9-0.5-1.6-1.1-2.1-1.8c-0.5-0.7-0.8-1.7-1-3c-0.2-1.3-0.3-2.5-0.3-3.5V17c0-1.4,0.2-2.4,0.5-2.8  c0.4-0.6,1.1-0.9,2.2-0.9h1.2v-1.1h-11.8v1.1h1.2c0.9,0,1.6,0.2,2,0.7c0.4,0.5,0.6,1.5,0.6,3.1v10.3c0,3.2,0.2,5.4,0.6,6.6  c0.6,1.7,1.7,3.1,3.2,4.1c1.5,1,3.8,1.5,6.7,1.5c1.2,0,2.2-0.1,3.1-0.3c0,0,0,0,0,0c1.3,1.1,3.4,1.9,6.4,2.2  c2.8,0.3,4.7,0.9,5.8,1.6c1,0.7,1.5,1.9,1.5,3.4c0,1.8-0.7,3.2-1.9,4.4c-1.3,1.1-3,1.7-5,1.7c-1.1,0-2.2-0.2-3.3-0.7  c-0.8-0.3-1.5-0.8-2.2-1.3c-0.2-0.2-0.4-0.4-0.5-0.6c-0.1-0.2-0.2-0.5-0.2-0.9l-0.3-2.7h-1.6v0.2c0,1.2,0,2.2-0.1,3  c-0.1,0.9-0.2,1.9-0.3,3.1l0,0.1l0.1,0.1c1,0.5,2.2,0.9,3.5,1.2c1.3,0.3,2.5,0.5,3.6,0.5c3.4,0,6.2-1,8.6-2.9c2.3-2,3.5-4.4,3.5-7.2  C207.6,42.5,206.9,41,205.6,39.9z M193.5,29c0.5-0.5,1-0.8,1.6-1.1c0,2.6-0.3,4.5-0.7,5.6c-0.3,0.8-0.9,1.5-1.7,2.1  c-0.5-0.6-0.8-1.5-0.8-2.5C191.9,31.4,192.4,30.1,193.5,29z"/>
<g>
	<rect x="172.7" y="41.3" class="st1" width="12.4" height="0.8"/>
</g>
<path class="st1" d="M184.7,50.4h1.1v-5.1h-1.1V50.4z M179.8,45.2v2.9c0.2,0,0.4-0.1,0.6-0.1c0.3,0,0.6,0.1,0.8,0.2  c0.2,0.1,0.3,0.3,0.3,0.5c0,0.2-0.1,0.4-0.2,0.5c-0.2,0.1-0.3,0.2-0.6,0.2c-0.3,0-0.7-0.1-1.1-0.3v0.9c0.3,0.2,0.7,0.3,1.2,0.3  c0.6,0,1-0.1,1.4-0.4c0.3-0.3,0.5-0.7,0.5-1.2c0-0.5-0.2-0.9-0.5-1.2c-0.3-0.3-0.8-0.4-1.3-0.4v-1h1.6v-1H179.8z M176.6,49.5  c-0.1-0.1-0.2-0.3-0.2-0.6c0-0.2,0.1-0.4,0.2-0.6c0.1-0.1,0.2-0.2,0.4-0.2c0.2,0,0.3,0.1,0.4,0.2c0.1,0.1,0.2,0.3,0.2,0.6  c0,0.2-0.1,0.4-0.2,0.6c-0.1,0.1-0.2,0.2-0.4,0.2C176.8,49.7,176.7,49.6,176.6,49.5 M176.7,47.2c-0.1-0.1-0.1-0.3-0.1-0.5  c0-0.2,0-0.4,0.1-0.5c0.1-0.1,0.2-0.2,0.3-0.2c0.3,0,0.5,0.2,0.5,0.7c0,0.2,0,0.4-0.1,0.5c-0.1,0.1-0.2,0.2-0.3,0.2  C176.9,47.3,176.8,47.3,176.7,47.2 M175.3,48.9c0,0.4,0.2,0.8,0.5,1.1c0.3,0.3,0.7,0.4,1.2,0.4c0.5,0,0.9-0.1,1.3-0.4  c0.3-0.3,0.5-0.7,0.5-1.1c0-0.6-0.3-1-0.8-1.2c0.4-0.2,0.6-0.6,0.6-1.1c0-0.4-0.1-0.7-0.4-1c-0.3-0.3-0.7-0.4-1.2-0.4  c-0.5,0-0.8,0.1-1.1,0.4c-0.3,0.3-0.4,0.6-0.4,1c0,0.5,0.2,0.8,0.6,1.1C175.5,47.9,175.3,48.3,175.3,48.9 M172.3,50.4h1.1v-5.1h-1.1  V50.4z"/>
</svg>