<svg xmlns:xlink="http://www.w3.org/1999/xlink" xmlns="http://www.w3.org/2000/svg" width="217" height="40" viewBox="0 0 217 40" fill="none">
  <g clip-path="url(#clip0_3322_8226)">
    <path d="M170.87 20.3724C172.118 19.952 172.755 18.9586 172.755 17.7231C172.755 16.6532 172.106 15.5578 170.959 15.2012C170.093 14.9337 169.157 14.9274 168.119 14.9465C168.119 14.9465 166.062 14.991 165.578 14.9783L165.432 15.1248C165.457 15.6852 165.483 18.2007 165.483 20.7162C165.483 23.2318 165.457 25.7409 165.432 26.3077L165.578 26.4542C166.24 26.4223 167.221 26.4669 168.062 26.4669C169.762 26.4669 171.507 26.4096 172.628 25.2569C173.22 24.6519 173.437 23.945 173.437 23.1617C173.437 21.7734 172.615 20.6908 170.87 20.366M170.813 16.4558C171.17 16.7742 171.405 17.1372 171.405 17.8314C171.405 18.9713 170.698 19.4935 169.819 19.7992C169.03 20.073 167.762 20.0476 166.82 20.0348V15.9845C169.456 15.9399 170.272 15.959 170.813 16.4494M170.622 25.1423C169.788 25.4352 168.043 25.3716 166.82 25.3588V21.092C168.438 21.092 168.979 21.0601 169.902 21.1557C170.979 21.2639 172.061 21.9262 172.061 23.1872C172.061 23.8431 171.73 24.7475 170.616 25.1359L170.622 25.1423Z" fill="#254476"/>
    <path d="M131.82 16.7235C130.769 15.3734 129.61 14.9658 126.356 14.9658C125.509 14.9658 123.776 15.0104 123.324 14.9849L123.178 15.1314C123.203 15.6918 123.222 18.2073 123.222 20.7229C123.222 23.2384 123.197 25.7475 123.178 26.3143L123.324 26.4608C123.993 26.4353 124.827 26.4735 125.719 26.4735C127.476 26.4735 128.916 26.4353 130.463 25.4036C131.839 24.4802 132.858 22.8818 132.858 20.4235C132.858 19.1753 132.641 17.7679 131.82 16.7171M129.432 24.7095C128.183 25.4864 126.088 25.3845 125.642 25.3845H124.604C124.585 24.3019 124.572 22.5124 124.572 20.7229C124.572 18.9333 124.585 17.1183 124.598 16.0357C124.974 16.023 125.7 16.0166 125.7 16.0166C128.279 15.972 129.438 16.0803 130.425 17.112C131.145 17.8634 131.463 19.1753 131.463 20.3408C131.463 22.3787 130.692 23.9198 129.432 24.7031V24.7095Z" fill="#254476"/>
    <path d="M153.268 0H152.631V40H153.268V0Z" fill="#FEC513"/>
    <path d="M14.3871 7.49554C14.3871 9.22138 12.9861 10.6224 11.2666 10.6224C9.54711 10.6224 8.12695 9.22138 8.12695 7.49554C8.12695 5.7697 9.53437 4.36865 11.2666 4.36865C12.9988 4.36865 14.3871 5.7697 14.3871 7.49554Z" fill="#254476"/>
    <path d="M6.22194 26.4607L11.132 14.9849H4.91641L0 26.4607H6.22194Z" fill="#254476"/>
    <path d="M22.4684 26.4607L17.5456 14.9849H11.3301L16.2465 26.4607H22.4684Z" fill="#FEC513"/>
    <path d="M185.659 22.1493C185.436 21.5189 184.461 18.5958 184.175 17.7296C183.786 16.5515 183.678 16.2331 183.334 15.0995L183.162 14.9849C183.022 14.9976 182.729 15.004 182.443 15.004C182.143 15.004 181.818 14.9912 181.691 14.9849L181.519 15.0995C181.264 15.9465 180.85 17.1565 180.589 17.9398C180.328 18.7295 179.341 21.7035 179.067 22.5378C178.793 23.3657 178.335 24.7858 177.762 26.3334L177.889 26.4607C178.086 26.448 178.265 26.4416 178.475 26.4416C178.647 26.4416 178.87 26.4416 179.067 26.4607L179.214 26.3588C179.519 25.2635 179.895 23.9389 180.309 22.5887C181.105 22.576 183.442 22.5633 184.391 22.5887C184.773 23.7733 185.251 25.2698 185.531 26.3461L185.671 26.4671C185.837 26.4544 186.092 26.448 186.334 26.448C186.576 26.448 186.811 26.4544 186.945 26.4671L187.072 26.3461C186.779 25.5182 185.869 22.7862 185.652 22.1557M182.283 21.5634C181.589 21.5634 181.035 21.5507 180.64 21.538L182.315 16.1375L184.054 21.5125C183.449 21.538 183.028 21.5571 182.283 21.5571V21.5634Z" fill="#254476"/>
    <path d="M34.0015 15.004C34.1798 15.004 34.4027 14.9976 34.6065 14.9849L34.7529 15.1313C34.7275 15.6918 34.702 18.2073 34.702 20.7228C34.702 23.2383 34.7275 25.7475 34.7529 26.3143L34.6065 26.4607C34.4091 26.448 34.1798 26.4416 34.0015 26.4416C33.8232 26.4416 33.6003 26.4416 33.3965 26.4607L33.25 26.3143C33.2755 25.7538 33.3009 23.2383 33.3009 20.7228C33.3009 18.2073 33.2755 15.6918 33.25 15.1313L33.3965 14.9849C33.5939 14.9976 33.8168 15.004 34.0015 15.004Z" fill="#254476"/>
    <path d="M139.691 15.004C139.869 15.004 140.092 14.9976 140.296 14.9849L140.442 15.1313C140.417 15.6918 140.398 18.2073 140.398 20.7228C140.398 23.2383 140.423 25.7475 140.442 26.3143L140.296 26.4607C140.092 26.448 139.869 26.4416 139.691 26.4416C139.513 26.4416 139.29 26.4416 139.086 26.4607L138.939 26.3143C138.965 25.7538 138.984 23.2383 138.984 20.7228C138.984 18.2073 138.959 15.6918 138.939 15.1313L139.086 14.9849C139.29 14.9976 139.513 15.004 139.691 15.004Z" fill="#254476"/>
    <path d="M49.2664 26.4417C49.4447 26.4417 49.916 26.4417 50.1134 26.4608L50.2599 26.3143C50.2344 25.7539 50.2089 23.2383 50.2089 20.7228C50.2089 18.2073 50.2344 15.6918 50.2599 15.1314L50.1134 14.9849C49.916 14.9976 49.7568 15.004 49.5785 15.004C49.4001 15.004 49.2282 14.9976 49.0308 14.9849L48.8843 15.1314C48.9098 15.6918 48.9352 18.2073 48.9352 20.7228V24.9706C48.5404 24.2573 46.77 21.0795 46.1586 19.9841C45.509 18.8123 43.7004 15.5262 43.4775 15.1059L43.2737 14.9785C43.0827 14.9913 42.6178 14.9976 42.3758 14.9976C42.1975 14.9976 41.7389 14.9913 41.5351 14.9785L41.3887 15.125C41.4141 15.6918 41.4396 18.2009 41.4396 20.7165C41.4396 23.232 41.4141 25.7475 41.3887 26.3079L41.5351 26.4544C41.7389 26.4417 41.8918 26.4353 42.0765 26.4353C42.2548 26.4353 42.4204 26.4353 42.6241 26.4544L42.7706 26.3079C42.7451 25.7475 42.7197 23.232 42.7197 20.7165V16.4178C43.7896 18.2901 44.713 19.9395 45.2607 20.933C45.7574 21.8309 47.3559 24.7668 48.1965 26.3016L48.3685 26.448C48.6805 26.4289 49.0371 26.4289 49.2664 26.4289V26.4417Z" fill="#254476"/>
    <path d="M200.445 26.4417C200.623 26.4417 201.095 26.4417 201.292 26.4608L201.439 26.3143C201.413 25.7539 201.394 23.2383 201.394 20.7228C201.394 18.2073 201.42 15.6918 201.439 15.1314L201.292 14.9849C201.088 14.9976 200.929 15.004 200.751 15.004C200.573 15.004 200.407 14.9976 200.203 14.9849L200.057 15.1314C200.082 15.6918 200.101 18.2073 200.101 20.7228V24.9706C199.706 24.2573 197.936 21.0795 197.331 19.9841C196.681 18.8123 194.873 15.5262 194.644 15.1059L194.44 14.9785C194.249 14.9913 193.784 14.9976 193.542 14.9976C193.363 14.9976 192.905 14.9913 192.701 14.9785L192.555 15.125C192.58 15.6918 192.599 18.2009 192.599 20.7165C192.599 23.232 192.574 25.7475 192.555 26.3079L192.701 26.4544C192.905 26.4417 193.064 26.4353 193.242 26.4353C193.421 26.4353 193.593 26.4353 193.79 26.4544L193.937 26.3079C193.911 25.7475 193.886 23.232 193.886 20.7165V16.4178C194.956 18.2901 195.879 19.9395 196.427 20.933C196.923 21.8309 198.522 24.7668 199.363 26.3016L199.534 26.448C199.847 26.4289 200.203 26.4289 200.439 26.4289L200.445 26.4417Z" fill="#254476"/>
    <path d="M74.8348 25.4864L74.6756 25.3272C74.1788 25.3463 73.2554 25.359 71.5168 25.359H69.5426V21.003H71.1729C72.9115 21.003 73.8413 21.0221 74.3317 21.0349L74.4909 20.8757C74.4845 20.7356 74.4781 20.5891 74.4781 20.4681C74.4781 20.3471 74.4781 20.2006 74.4909 20.0605L74.3317 19.9013C73.8349 19.9204 72.9115 19.9331 71.1729 19.9331H69.5426V16.0803H71.5168C73.2554 16.0803 74.1406 16.0994 74.6373 16.1121L74.7966 15.9529C74.7902 15.8128 74.7838 15.6599 74.7838 15.5453C74.7838 15.4243 74.7838 15.2778 74.7966 15.1377L74.6373 14.9785C74.1406 14.9913 73.2618 15.0104 71.5168 15.0104C69.7719 15.0104 68.7784 14.9976 68.3008 14.9785L68.1543 15.125C68.1798 15.6854 68.2052 18.2009 68.2052 20.7165C68.2052 23.232 68.1798 25.7411 68.1543 26.3079L68.3008 26.4544C68.7784 26.4353 69.7655 26.4226 71.5168 26.4226C73.2681 26.4226 74.1852 26.4417 74.6756 26.4544L74.8348 26.2952C74.8284 26.1551 74.822 26.0086 74.822 25.8876C74.822 25.773 74.822 25.6201 74.8348 25.48V25.4864Z" fill="#254476"/>
    <path d="M116.766 20.7228C116.766 18.2073 116.791 15.6918 116.81 15.1313L116.664 14.9849C116.466 14.9976 116.307 15.004 116.129 15.004C115.951 15.004 115.823 14.9976 115.619 14.9849L115.473 15.1313C115.498 15.6918 115.517 18.2073 115.517 20.7228C115.517 22.9072 115.505 23.5185 115.154 24.2318C114.664 25.1871 113.658 25.5628 112.582 25.5628C111.633 25.5628 110.875 25.289 110.455 24.9069C109.678 24.1745 109.646 23.2129 109.646 20.6591C109.646 18.1054 109.671 15.6918 109.69 15.1313L109.544 14.9849C109.34 14.9976 109.13 15.004 108.952 15.004C108.773 15.004 108.557 14.9976 108.359 14.9849L108.213 15.1313C108.238 15.6918 108.257 18.5002 108.257 21.0094C108.257 23.5185 108.302 24.8941 109.709 25.9258C110.365 26.4098 111.353 26.69 112.41 26.69C114.104 26.69 115.683 26.015 116.339 24.5502C116.727 23.6969 116.766 22.7671 116.766 20.7228Z" fill="#254476"/>
    <path d="M63.1812 16.1376L63.3404 15.9784C63.334 15.8383 63.3277 15.679 63.3277 15.558C63.3277 15.437 63.3277 15.2778 63.3404 15.1377L63.1812 14.9785C62.6845 14.9913 60.9459 15.0104 59.2073 15.0104C57.4687 15.0104 55.6983 14.9976 55.2207 14.9785L55.0742 15.125C55.0806 15.2651 55.087 15.4307 55.087 15.5517C55.087 15.6727 55.087 15.8383 55.0742 15.972L55.2271 16.1248C55.6474 16.1121 57.023 16.093 58.5259 16.093V20.7101C58.5259 23.2256 58.5004 25.7348 58.4749 26.3016L58.6214 26.448C58.8188 26.4353 59.0226 26.4289 59.2009 26.4289C59.3793 26.4289 59.5958 26.4289 59.7932 26.448L59.9397 26.3016C59.9142 25.7411 59.8887 23.2256 59.8887 20.7101V16.093C61.3789 16.093 62.7482 16.1121 63.1748 16.1248L63.1812 16.1376Z" fill="#254476"/>
    <path d="M101.85 22.1493C101.633 21.5189 100.653 18.5958 100.372 17.7296C99.984 16.5515 99.8757 16.2331 99.5319 15.0995L99.3599 14.9849C99.2198 14.9976 98.9269 15.004 98.6403 15.004C98.341 15.004 98.0162 14.9912 97.8888 14.9849L97.7169 15.0995C97.4621 15.9465 97.0418 17.1565 96.7807 17.9398C96.5196 18.7295 95.5325 21.7035 95.2587 22.5378C94.9848 23.3657 94.5263 24.7858 93.9531 26.3334L94.0805 26.4607C94.2779 26.448 94.4562 26.4416 94.6728 26.4416C94.8447 26.4416 95.0676 26.4416 95.265 26.4607L95.4115 26.3588C95.7172 25.2635 96.0929 23.9389 96.5069 22.5887C97.3029 22.576 99.6401 22.5633 100.589 22.5887C100.971 23.7733 101.449 25.2698 101.729 26.3461L101.863 26.4671C102.035 26.4544 102.283 26.448 102.525 26.448C102.767 26.448 103.003 26.4544 103.136 26.4671L103.264 26.3461C102.971 25.5182 102.06 22.7862 101.844 22.1557M98.4747 21.5634C97.7805 21.5634 97.2265 21.5507 96.8253 21.538L98.5002 16.1375L100.239 21.5125C99.6401 21.538 99.2134 21.5571 98.4747 21.5571V21.5634Z" fill="#254476"/>
    <path d="M85.5978 21.1815C87.9605 20.8248 88.8967 19.3665 88.8967 17.9718C88.8967 16.7681 88.228 15.7046 87.2218 15.3034C86.3812 14.9659 85.6106 14.9468 84.719 14.9468C84.0503 14.9468 81.9233 15.0041 81.4902 14.9914L81.3438 15.1378C81.3692 15.6983 81.3947 18.2138 81.3947 20.7293C81.3947 23.2448 81.3692 25.754 81.3438 26.3208L81.4902 26.4672C81.6876 26.4545 81.8851 26.4481 82.057 26.4481C82.2353 26.4481 82.4264 26.4481 82.6238 26.4672L82.7703 26.3208C82.7512 25.8049 82.7257 23.6397 82.7193 21.347C83.2033 21.347 83.6173 21.347 84.0376 21.3343C84.7063 22.124 85.7953 23.4868 86.1646 23.9645C86.6423 24.5758 87.9032 26.1297 88.0688 26.3526L88.2407 26.4736C88.4891 26.4672 88.8012 26.4545 89.024 26.4545C89.2469 26.4545 89.5208 26.4545 89.7755 26.4736L89.8456 26.3399C88.8967 25.2127 87.7631 23.8753 87.2282 23.2257C86.7887 22.6971 86.0436 21.7673 85.5915 21.2006M82.7321 20.2835V16.0421C83.267 16.023 83.9675 16.0039 84.3815 16.0039C85.5023 16.0039 86.2793 16.0103 86.9034 16.5325C87.2218 16.8 87.5147 17.3158 87.5147 18.0164C87.5147 19.4747 86.4066 19.895 85.8207 20.067C85.1903 20.2517 84.2032 20.2771 82.7321 20.2835Z" fill="#254476"/>
    <path d="M213.125 22.8244C212.724 22.4041 211.329 20.9011 210.807 20.2898C211.488 19.5765 212.01 19.0034 212.653 18.341C213.532 17.4367 215.029 15.8892 215.806 15.1314L215.71 14.9785C215.443 14.9976 215.22 14.9976 214.972 14.9976C214.761 14.9976 214.583 14.9976 214.284 14.9785L214.074 15.0931C213.526 15.73 212.609 16.768 211.679 17.7679C210.851 18.6595 210.087 19.4555 209.501 20.0669C209.501 17.7806 209.527 15.6345 209.552 15.125L209.406 14.9785C209.202 14.9913 209.011 14.9976 208.832 14.9976C208.654 14.9976 208.463 14.9913 208.266 14.9785L208.119 15.125C208.145 15.6854 208.17 18.2009 208.17 20.7165C208.17 23.232 208.145 25.7411 208.119 26.3079L208.266 26.4544C208.469 26.4417 208.66 26.4353 208.832 26.4353C209.011 26.4353 209.202 26.4353 209.406 26.4544L209.552 26.3079C209.527 25.7475 209.501 23.2383 209.501 20.7228C210.348 21.6271 211.73 23.1428 212.545 24.0217C213.475 25.0215 214.099 25.7348 214.628 26.3525L214.87 26.4544C215.118 26.4417 215.417 26.4353 215.564 26.4353C215.755 26.4353 216.156 26.4353 216.373 26.4544L216.468 26.3079C215.379 25.2253 214.22 24.0089 213.137 22.818L213.125 22.8244Z" fill="#254476"/>
  </g>
  <defs>
    <clipPath id="clip0_3322_8226">
      <rect width="216.456" height="40" fill="white"/>
    </clipPath>
  </defs>
</svg>