<svg width="702" height="74" viewBox="0 0 702 74" fill="none" xmlns="http://www.w3.org/2000/svg">
<g clip-path="url(#clip0_735_766)">
<path d="M73.6969 36.7C73.6969 57 57.1969 73.4 36.9969 73.4C16.6969 73.4 0.296875 57 0.296875 36.7C0.296875 16.4 16.6969 0 36.9969 0C57.1969 0 73.6969 16.4 73.6969 36.7Z" fill="white"/>
<path d="M37 71.6016C56.3 71.6016 72 55.9016 72 36.6016C72 17.3016 56.3 1.60156 37 1.60156C17.7 1.60156 2 17.3016 2 36.6016C2 55.9016 17.7 71.6016 37 71.6016Z" fill="#1383C6"/>
<mask id="mask0_735_766" style="mask-type:luminance" maskUnits="userSpaceOnUse" x="2" y="1" width="70" height="71">
<path d="M2 36.6016C2 55.9016 17.7 71.6016 37 71.6016C56.3 71.6016 72 55.9016 72 36.6016C72 17.3016 56.3 1.60156 37 1.60156C17.7 1.60156 2 17.3016 2 36.6016Z" fill="white"/>
</mask>
<g mask="url(#mask0_735_766)">
<path d="M37.1 52.4008C52.5 52.4008 65.7 56.7008 71.3 62.8008C73.2 58.5008 74.2 53.7008 74.2 48.6008C74.2 28.5008 57.6 12.3008 37.1 12.3008C16.6 12.3008 0 28.6008 0 48.7008C0 53.7008 1.1 58.5008 2.9 62.9008C8.6 56.7008 21.8 52.4008 37.1 52.4008Z" fill="#1383C6"/>
</g>
<mask id="mask1_735_766" style="mask-type:luminance" maskUnits="userSpaceOnUse" x="2" y="1" width="70" height="71">
<path d="M2 36.6016C2 55.9016 17.7 71.6016 37 71.6016C56.3 71.6016 72 55.9016 72 36.6016C72 17.3016 56.3 1.60156 37 1.60156C17.7 1.60156 2 17.3016 2 36.6016Z" fill="white"/>
</mask>
<g mask="url(#mask1_735_766)">
<path d="M37.1016 52.5016C52.4016 52.5016 65.6016 56.7016 71.2016 62.8016C73.1016 58.5016 74.1016 53.7016 74.1016 48.7016C74.1016 28.8016 57.5016 12.6016 37.1016 12.6016C16.7016 12.6016 0.101562 28.8016 0.101562 48.7016C0.101562 53.7016 1.10156 58.4016 3.00156 62.7016C8.60156 56.7016 21.8016 52.5016 37.1016 52.5016Z" fill="#1284C7"/>
</g>
<mask id="mask2_735_766" style="mask-type:luminance" maskUnits="userSpaceOnUse" x="2" y="1" width="70" height="71">
<path d="M2 36.6016C2 55.9016 17.7 71.6016 37 71.6016C56.3 71.6016 72 55.9016 72 36.6016C72 17.3016 56.3 1.60156 37 1.60156C17.7 1.60156 2 17.3016 2 36.6016Z" fill="white"/>
</mask>
<g mask="url(#mask2_735_766)">
<path d="M37.1031 52.5C52.4031 52.5 65.5031 56.7 71.1031 62.7C73.0031 58.4 74.0031 53.7 74.0031 48.8C74.0031 29.1 57.5031 13 37.1031 13C16.7031 13 0.203125 29.1 0.203125 48.9C0.203125 53.8 1.20312 58.6 3.10312 62.8C8.70312 56.7 21.8031 52.5 37.1031 52.5Z" fill="#1186C8"/>
</g>
<mask id="mask3_735_766" style="mask-type:luminance" maskUnits="userSpaceOnUse" x="2" y="1" width="70" height="71">
<path d="M2 36.6016C2 55.9016 17.7 71.6016 37 71.6016C56.3 71.6016 72 55.9016 72 36.6016C72 17.3016 56.3 1.60156 37 1.60156C17.7 1.60156 2 17.3016 2 36.6016Z" fill="white"/>
</mask>
<g mask="url(#mask3_735_766)">
<path d="M37.0969 52.6008C52.2969 52.6008 65.3969 56.8008 70.9969 62.7008C72.8969 58.5008 73.8969 53.8008 73.8969 48.9008C73.8969 29.3008 57.3969 13.3008 37.0969 13.3008C16.7969 13.3008 0.296875 29.3008 0.296875 48.9008C0.296875 53.8008 1.29688 58.5008 3.19688 62.7008C8.79688 56.7008 21.8969 52.6008 37.0969 52.6008Z" fill="#1288CA"/>
</g>
<mask id="mask4_735_766" style="mask-type:luminance" maskUnits="userSpaceOnUse" x="2" y="1" width="70" height="71">
<path d="M2 36.6016C2 55.9016 17.7 71.6016 37 71.6016C56.3 71.6016 72 55.9016 72 36.6016C72 17.3016 56.3 1.60156 37 1.60156C17.7 1.60156 2 17.3016 2 36.6016Z" fill="white"/>
</mask>
<g mask="url(#mask4_735_766)">
<path d="M37.0969 52.6C52.2969 52.6 65.3969 56.7 70.8969 62.6C72.7969 58.4 73.7969 53.8 73.7969 48.9C73.7969 29.5 57.2969 13.5 37.0969 13.5C16.7969 13.5 0.296875 29.4 0.296875 48.9C0.296875 53.8 1.29688 58.4 3.19688 62.6C8.89687 56.7 21.8969 52.6 37.0969 52.6Z" fill="#1589CA"/>
</g>
<mask id="mask5_735_766" style="mask-type:luminance" maskUnits="userSpaceOnUse" x="2" y="1" width="70" height="71">
<path d="M2 36.6016C2 55.9016 17.7 71.6016 37 71.6016C56.3 71.6016 72 55.9016 72 36.6016C72 17.3016 56.3 1.60156 37 1.60156C17.7 1.60156 2 17.3016 2 36.6016Z" fill="white"/>
</mask>
<g mask="url(#mask5_735_766)">
<path d="M37.1 52.6023C52.3 52.6023 65.3 56.7023 70.9 62.6023C72.8 58.4023 73.8 53.8023 73.8 49.0023C73.8 29.7023 57.4 13.9023 37.2 13.9023C16.9 13.9023 0.5 29.7023 0.5 49.0023C0.5 53.8023 1.5 58.4023 3.4 62.6023C8.9 56.8023 21.9 52.6023 37.1 52.6023Z" fill="#128BCC"/>
</g>
<mask id="mask6_735_766" style="mask-type:luminance" maskUnits="userSpaceOnUse" x="2" y="1" width="70" height="71">
<path d="M2 36.6016C2 55.9016 17.7 71.6016 37 71.6016C56.3 71.6016 72 55.9016 72 36.6016C72 17.3016 56.3 1.60156 37 1.60156C17.7 1.60156 2 17.3016 2 36.6016Z" fill="white"/>
</mask>
<g mask="url(#mask6_735_766)">
<path d="M37.1 52.7031C52.2 52.7031 65.2 56.8031 70.8 62.6031C72.7 58.5031 73.7 53.9031 73.7 49.1031C73.7 30.0031 57.3 14.2031 37.1 14.2031C16.9 14.2031 0.5 30.0031 0.5 49.1031C0.5 53.9031 1.5 58.4031 3.4 62.6031C9 56.8031 22 52.7031 37.1 52.7031Z" fill="#148DCE"/>
</g>
<mask id="mask7_735_766" style="mask-type:luminance" maskUnits="userSpaceOnUse" x="2" y="1" width="70" height="71">
<path d="M2 36.6016C2 55.9016 17.7 71.6016 37 71.6016C56.3 71.6016 72 55.9016 72 36.6016C72 17.3016 56.3 1.60156 37 1.60156C17.7 1.60156 2 17.3016 2 36.6016Z" fill="white"/>
</mask>
<g mask="url(#mask7_735_766)">
<path d="M37.1016 52.7C52.2016 52.7 65.1016 56.7 70.7016 62.5C72.6016 58.4 73.6016 53.9 73.6016 49.1C73.6016 30.2 57.3016 14.5 37.1016 14.5C17.0016 14.5 0.601562 30.2 0.601562 49.1C0.601562 53.8 1.60156 58.4 3.50156 62.5C9.10156 56.8 22.0016 52.7 37.1016 52.7Z" fill="#138FCF"/>
</g>
<mask id="mask8_735_766" style="mask-type:luminance" maskUnits="userSpaceOnUse" x="2" y="1" width="70" height="71">
<path d="M2 36.6016C2 55.9016 17.7 71.6016 37 71.6016C56.3 71.6016 72 55.9016 72 36.6016C72 17.3016 56.3 1.60156 37 1.60156C17.7 1.60156 2 17.3016 2 36.6016Z" fill="white"/>
</mask>
<g mask="url(#mask8_735_766)">
<path d="M37.1031 52.8008C52.2031 52.8008 65.1031 56.8008 70.6031 62.5008C72.5031 58.4008 73.5031 53.9008 73.5031 49.2008C73.5031 30.4008 57.2031 14.8008 37.1031 14.8008C17.0031 14.8008 0.703125 30.4008 0.703125 49.2008C0.703125 53.9008 1.70312 58.4008 3.60312 62.4008C9.10312 56.8008 22.0031 52.8008 37.1031 52.8008Z" fill="#1691D0"/>
</g>
<mask id="mask9_735_766" style="mask-type:luminance" maskUnits="userSpaceOnUse" x="2" y="1" width="70" height="71">
<path d="M2 36.6016C2 55.9016 17.7 71.6016 37 71.6016C56.3 71.6016 72 55.9016 72 36.6016C72 17.3016 56.3 1.60156 37 1.60156C17.7 1.60156 2 17.3016 2 36.6016Z" fill="white"/>
</mask>
<g mask="url(#mask9_735_766)">
<path d="M37.0969 52.8016C52.0969 52.8016 64.9969 56.8016 70.4969 62.4016C72.3969 58.4016 73.3969 53.9016 73.3969 49.3016C73.3969 30.7016 57.1969 15.1016 37.0969 15.1016C16.9969 15.1016 0.796875 30.7016 0.796875 49.3016C0.796875 54.0016 1.79688 58.4016 3.69688 62.4016C9.19688 56.8016 22.0969 52.8016 37.0969 52.8016Z" fill="#1592D1"/>
</g>
<mask id="mask10_735_766" style="mask-type:luminance" maskUnits="userSpaceOnUse" x="2" y="1" width="70" height="71">
<path d="M2 36.6016C2 55.9016 17.7 71.6016 37 71.6016C56.3 71.6016 72 55.9016 72 36.6016C72 17.3016 56.3 1.60156 37 1.60156C17.7 1.60156 2 17.3016 2 36.6016Z" fill="white"/>
</mask>
<g mask="url(#mask10_735_766)">
<path d="M37.0984 52.8023C52.0984 52.8023 64.8984 56.7023 70.3984 62.3023C72.1984 58.3023 73.2984 53.9023 73.2984 49.3023C73.2984 30.8023 57.0984 15.4023 37.0984 15.4023C17.0984 15.4023 0.898438 30.9023 0.898438 49.3023C0.898438 53.9023 1.89844 58.3023 3.79844 62.3023C9.29844 56.8023 22.0984 52.8023 37.0984 52.8023Z" fill="#1694D2"/>
</g>
<mask id="mask11_735_766" style="mask-type:luminance" maskUnits="userSpaceOnUse" x="2" y="1" width="70" height="71">
<path d="M2 36.6016C2 55.9016 17.7 71.6016 37 71.6016C56.3 71.6016 72 55.9016 72 36.6016C72 17.3016 56.3 1.60156 37 1.60156C17.7 1.60156 2 17.3016 2 36.6016Z" fill="white"/>
</mask>
<g mask="url(#mask11_735_766)">
<path d="M37.1 52.9013C52 52.9013 64.8 56.8013 70.3 62.4013C72.1 58.4013 73.1 54.1013 73.1 49.5013C73.1 31.2013 56.9 15.8013 37 15.8013C17.2 15.7013 1 31.1013 1 49.4013C1 54.0013 2 58.4013 3.9 62.3013C9.3 56.8013 22.1 52.9013 37.1 52.9013Z" fill="#1596D4"/>
</g>
<mask id="mask12_735_766" style="mask-type:luminance" maskUnits="userSpaceOnUse" x="2" y="1" width="70" height="71">
<path d="M2 36.6016C2 55.9016 17.7 71.6016 37 71.6016C56.3 71.6016 72 55.9016 72 36.6016C72 17.3016 56.3 1.60156 37 1.60156C17.7 1.60156 2 17.3016 2 36.6016Z" fill="white"/>
</mask>
<g mask="url(#mask12_735_766)">
<path d="M37.1 52.9016C52 52.9016 64.8 56.8016 70.2 62.3016C72 58.4016 73 54.0016 73 49.5016C73 31.4016 56.9 16.1016 37 16.1016C17.1 16.1016 1 31.4016 1 49.5016C1 54.0016 2 58.4016 3.8 62.3016C9.4 56.8016 22.2 52.9016 37.1 52.9016Z" fill="#1298D5"/>
</g>
<mask id="mask13_735_766" style="mask-type:luminance" maskUnits="userSpaceOnUse" x="2" y="1" width="70" height="71">
<path d="M2 36.6016C2 55.9016 17.7 71.6016 37 71.6016C56.3 71.6016 72 55.9016 72 36.6016C72 17.3016 56.3 1.60156 37 1.60156C17.7 1.60156 2 17.3016 2 36.6016Z" fill="white"/>
</mask>
<g mask="url(#mask13_735_766)">
<path d="M37.1031 53.0023C52.0031 53.0023 64.7031 56.8023 70.2031 62.3023C72.0031 58.4023 73.0031 54.1023 73.0031 49.6023C73.0031 31.6023 56.9031 16.4023 37.1031 16.4023C17.3031 16.4023 1.20312 31.6023 1.20312 49.6023C1.20312 54.1023 2.20312 58.4023 4.00312 62.3023C9.50312 56.8023 22.2031 53.0023 37.1031 53.0023Z" fill="#109AD7"/>
</g>
<mask id="mask14_735_766" style="mask-type:luminance" maskUnits="userSpaceOnUse" x="2" y="1" width="70" height="71">
<path d="M2 36.6016C2 55.9016 17.7 71.6016 37 71.6016C56.3 71.6016 72 55.9016 72 36.6016C72 17.3016 56.3 1.60156 37 1.60156C17.7 1.60156 2 17.3016 2 36.6016Z" fill="white"/>
</mask>
<g mask="url(#mask14_735_766)">
<path d="M37.0969 53.0016C51.8969 53.0016 64.5969 56.8016 70.0969 62.2016C71.8969 58.3016 72.8969 54.1016 72.8969 49.6016C72.8969 31.8016 56.8969 16.6016 37.0969 16.6016C17.2969 16.6016 1.29688 31.7016 1.29688 49.6016C1.29688 54.1016 2.29688 58.3016 4.09687 62.2016C9.49688 56.8016 22.2969 53.0016 37.0969 53.0016Z" fill="#0F9CD8"/>
</g>
<mask id="mask15_735_766" style="mask-type:luminance" maskUnits="userSpaceOnUse" x="2" y="1" width="70" height="71">
<path d="M2 36.6016C2 55.9016 17.7 71.6016 37 71.6016C56.3 71.6016 72 55.9016 72 36.6016C72 17.3016 56.3 1.60156 37 1.60156C17.7 1.60156 2 17.3016 2 36.6016Z" fill="white"/>
</mask>
<g mask="url(#mask15_735_766)">
<path d="M37.0984 53C51.8984 53 64.5984 56.8 69.9984 62.1C71.7984 58.3 72.7984 54.1 72.7984 49.6C72.7984 32 56.7984 17 37.0984 17C17.3984 17 1.39844 32 1.39844 49.7C1.39844 54.1 2.39844 58.3 4.19844 62.2C9.59844 56.8 22.2984 53 37.0984 53Z" fill="#0E9DD9"/>
</g>
<mask id="mask16_735_766" style="mask-type:luminance" maskUnits="userSpaceOnUse" x="2" y="1" width="70" height="71">
<path d="M2 36.6016C2 55.9016 17.7 71.6016 37 71.6016C56.3 71.6016 72 55.9016 72 36.6016C72 17.3016 56.3 1.60156 37 1.60156C17.7 1.60156 2 17.3016 2 36.6016Z" fill="white"/>
</mask>
<g mask="url(#mask16_735_766)">
<path d="M37.1 53.1008C51.8 53.1008 64.5 56.8008 69.9 62.1008C71.7 58.3008 72.7 54.1008 72.7 49.8008C72.7 32.3008 56.8 17.3008 37.1 17.3008C17.4 17.3008 1.5 32.3008 1.5 49.8008C1.5 54.2008 2.5 58.4008 4.3 62.1008C9.7 56.8008 22.3 53.1008 37.1 53.1008Z" fill="#149FDA"/>
</g>
<mask id="mask17_735_766" style="mask-type:luminance" maskUnits="userSpaceOnUse" x="2" y="1" width="70" height="71">
<path d="M2 36.6016C2 55.9016 17.7 71.6016 37 71.6016C56.3 71.6016 72 55.9016 72 36.6016C72 17.3016 56.3 1.60156 37 1.60156C17.7 1.60156 2 17.3016 2 36.6016Z" fill="white"/>
</mask>
<g mask="url(#mask17_735_766)">
<path d="M37 53.1031C51.7 53.1031 64.3 56.8031 69.7 62.1031C71.5 58.4031 72.5 54.2031 72.5 49.9031C72.5 32.6031 56.6 17.7031 37 17.7031C17.4 17.7031 1.5 32.6031 1.5 49.9031C1.5 54.2031 2.5 58.4031 4.3 62.1031C9.7 56.8031 22.4 53.1031 37 53.1031Z" fill="#13A1DC"/>
</g>
<mask id="mask18_735_766" style="mask-type:luminance" maskUnits="userSpaceOnUse" x="2" y="1" width="70" height="71">
<path d="M2 36.6016C2 55.9016 17.7 71.6016 37 71.6016C56.3 71.6016 72 55.9016 72 36.6016C72 17.3016 56.3 1.60156 37 1.60156C17.7 1.60156 2 17.3016 2 36.6016Z" fill="white"/>
</mask>
<g mask="url(#mask18_735_766)">
<path d="M37.0016 53.2C51.7016 53.2 64.2016 56.8 69.6016 62.1C71.4016 58.4 72.4016 54.3 72.4016 50C72.4016 32.8 56.5016 18 37.0016 18C17.5016 18 1.60156 32.8 1.60156 50C1.60156 54.3 2.60156 58.4 4.40156 62.1C9.80156 56.8 22.4016 53.2 37.0016 53.2Z" fill="#15A4DD"/>
</g>
<mask id="mask19_735_766" style="mask-type:luminance" maskUnits="userSpaceOnUse" x="2" y="1" width="70" height="71">
<path d="M2 36.6016C2 55.9016 17.7 71.6016 37 71.6016C56.3 71.6016 72 55.9016 72 36.6016C72 17.3016 56.3 1.60156 37 1.60156C17.7 1.60156 2 17.3016 2 36.6016Z" fill="white"/>
</mask>
<g mask="url(#mask19_735_766)">
<path d="M37.0031 53.2013C51.6031 53.2013 64.2031 56.8013 69.5031 62.0013C71.3031 58.3013 72.3031 54.3013 72.3031 50.0013C72.3031 33.0013 56.5031 18.3013 37.0031 18.3013C17.5031 18.2013 1.70312 33.0013 1.70312 50.0013C1.70312 54.3013 2.70312 58.3013 4.50312 62.0013C9.90313 56.8013 22.4031 53.2013 37.0031 53.2013Z" fill="#15A5DF"/>
</g>
<mask id="mask20_735_766" style="mask-type:luminance" maskUnits="userSpaceOnUse" x="2" y="1" width="70" height="71">
<path d="M2 36.6016C2 55.9016 17.7 71.6016 37 71.6016C56.3 71.6016 72 55.9016 72 36.6016C72 17.3016 56.3 1.60156 37 1.60156C17.7 1.60156 2 17.3016 2 36.6016Z" fill="white"/>
</mask>
<g mask="url(#mask20_735_766)">
<path d="M36.9969 53.2C51.5969 53.2 64.0969 56.8 69.3969 61.9C71.1969 58.3 72.1969 54.2 72.1969 50C72.1969 33.2 56.3969 18.5 36.9969 18.5C17.5969 18.5 1.79688 33.2 1.79688 50C1.79688 54.2 2.79688 58.2 4.59687 61.9C9.89688 56.8 22.4969 53.2 36.9969 53.2Z" fill="#14A7E0"/>
</g>
<mask id="mask21_735_766" style="mask-type:luminance" maskUnits="userSpaceOnUse" x="2" y="1" width="70" height="71">
<path d="M2 36.6016C2 55.9016 17.7 71.6016 37 71.6016C56.3 71.6016 72 55.9016 72 36.6016C72 17.3016 56.3 1.60156 37 1.60156C17.7 1.60156 2 17.3016 2 36.6016Z" fill="white"/>
</mask>
<g mask="url(#mask21_735_766)">
<path d="M37 53.3008C51.5 53.3008 64 56.8008 69.4 61.9008C71.2 58.3008 72.2 54.3008 72.2 50.1008C72.2 33.4008 56.5 18.8008 37.1 18.8008C17.7 18.8008 2 33.4008 2 50.1008C2 54.3008 3 58.3008 4.8 61.9008C10 56.8008 22.5 53.3008 37 53.3008Z" fill="#11AAE2"/>
</g>
<mask id="mask22_735_766" style="mask-type:luminance" maskUnits="userSpaceOnUse" x="2" y="1" width="70" height="71">
<path d="M2 36.6016C2 55.9016 17.7 71.6016 37 71.6016C56.3 71.6016 72 55.9016 72 36.6016C72 17.3016 56.3 1.60156 37 1.60156C17.7 1.60156 2 17.3016 2 36.6016Z" fill="white"/>
</mask>
<g mask="url(#mask22_735_766)">
<path d="M37.0016 53.3016C51.5016 53.3016 64.0016 56.8016 69.3016 61.8016C71.1016 58.2016 72.1016 54.3016 72.1016 50.1016C72.1016 33.6016 56.4016 19.1016 37.1016 19.1016C17.8016 19.1016 2.10156 33.6016 2.10156 50.1016C2.10156 54.2016 3.10156 58.2016 4.90156 61.8016C10.1016 56.8016 22.5016 53.3016 37.0016 53.3016Z" fill="#10ABE3"/>
</g>
<mask id="mask23_735_766" style="mask-type:luminance" maskUnits="userSpaceOnUse" x="2" y="1" width="70" height="71">
<path d="M2 36.6016C2 55.9016 17.7 71.6016 37 71.6016C56.3 71.6016 72 55.9016 72 36.6016C72 17.3016 56.3 1.60156 37 1.60156C17.7 1.60156 2 17.3016 2 36.6016Z" fill="white"/>
</mask>
<g mask="url(#mask23_735_766)">
<path d="M37.0016 53.3C51.5016 53.3 63.9016 56.8 69.2016 61.8C71.0016 58.3 72.0016 54.3 72.0016 50.2C72.0016 33.9 56.3016 19.5 37.0016 19.5C17.7016 19.5 2.10156 33.9 2.10156 50.3C2.10156 54.4 3.10156 58.3 4.90156 61.8C10.1016 56.8 22.6016 53.3 37.0016 53.3Z" fill="#11AEE5"/>
</g>
<mask id="mask24_735_766" style="mask-type:luminance" maskUnits="userSpaceOnUse" x="2" y="1" width="70" height="71">
<path d="M2 36.6016C2 55.9016 17.7 71.6016 37 71.6016C56.3 71.6016 72 55.9016 72 36.6016C72 17.3016 56.3 1.60156 37 1.60156C17.7 1.60156 2 17.3016 2 36.6016Z" fill="white"/>
</mask>
<g mask="url(#mask24_735_766)">
<path d="M36.9969 53.4023C51.3969 53.4023 63.7969 56.8023 69.0969 61.8023C70.8969 58.3023 71.8969 54.4023 71.8969 50.4023C71.8969 34.2023 56.2969 19.9023 37.0969 19.9023C17.8969 19.9023 2.29688 34.2023 2.29688 50.4023C2.29688 54.5023 3.29688 58.3023 4.99688 61.8023C10.1969 56.8023 22.5969 53.4023 36.9969 53.4023Z" fill="#12B0E6"/>
</g>
<mask id="mask25_735_766" style="mask-type:luminance" maskUnits="userSpaceOnUse" x="2" y="1" width="70" height="71">
<path d="M2 36.6016C2 55.9016 17.7 71.6016 37 71.6016C56.3 71.6016 72 55.9016 72 36.6016C72 17.3016 56.3 1.60156 37 1.60156C17.7 1.60156 2 17.3016 2 36.6016Z" fill="white"/>
</mask>
<g mask="url(#mask25_735_766)">
<path d="M36.9969 53.4016C51.3969 53.4016 63.6969 56.8016 68.9969 61.7016C70.7969 58.2016 71.7969 54.4016 71.7969 50.4016C71.7969 34.4016 56.1969 20.1016 36.9969 20.1016C17.7969 20.1016 2.29688 34.4016 2.29688 50.4016C2.29688 54.4016 3.29688 58.3016 4.99688 61.7016C10.2969 56.8016 22.5969 53.4016 36.9969 53.4016Z" fill="#0FB2E8"/>
</g>
<mask id="mask26_735_766" style="mask-type:luminance" maskUnits="userSpaceOnUse" x="2" y="1" width="70" height="71">
<path d="M2 36.6016C2 55.9016 17.7 71.6016 37 71.6016C56.3 71.6016 72 55.9016 72 36.6016C72 17.3016 56.3 1.60156 37 1.60156C17.7 1.60156 2 17.3016 2 36.6016Z" fill="white"/>
</mask>
<g mask="url(#mask26_735_766)">
<path d="M36.9969 53.5023C51.2969 53.5023 63.6969 56.9023 68.8969 61.7023C70.6969 58.3023 71.5969 54.5023 71.5969 50.5023C71.5969 34.6023 56.0969 20.4023 36.8969 20.4023C17.7969 20.4023 2.29688 34.6023 2.29688 50.5023C2.29688 54.5023 3.29688 58.3023 4.99688 61.7023C10.2969 56.8023 22.6969 53.5023 36.9969 53.5023Z" fill="#15B4E9"/>
</g>
<mask id="mask27_735_766" style="mask-type:luminance" maskUnits="userSpaceOnUse" x="2" y="1" width="70" height="71">
<path d="M2 36.6016C2 55.9016 17.7 71.6016 37 71.6016C56.3 71.6016 72 55.9016 72 36.6016C72 17.3016 56.3 1.60156 37 1.60156C17.7 1.60156 2 17.3016 2 36.6016Z" fill="white"/>
</mask>
<g mask="url(#mask27_735_766)">
<path d="M36.9969 53.5031C51.2969 53.5031 63.5969 56.8031 68.7969 61.6031C70.5969 58.2031 71.4969 54.4031 71.4969 50.5031C71.4969 34.8031 55.9969 20.7031 36.8969 20.7031C17.7969 20.7031 2.29688 34.8031 2.29688 50.5031C2.29688 54.4031 3.29688 58.2031 4.99688 61.6031C10.3969 56.8031 22.6969 53.5031 36.9969 53.5031Z" fill="#14B8EC"/>
</g>
<mask id="mask28_735_766" style="mask-type:luminance" maskUnits="userSpaceOnUse" x="2" y="1" width="70" height="71">
<path d="M2 36.6016C2 55.9016 17.7 71.6016 37 71.6016C56.3 71.6016 72 55.9016 72 36.6016C72 17.3016 56.3 1.60156 37 1.60156C17.7 1.60156 2 17.3016 2 36.6016Z" fill="white"/>
</mask>
<g mask="url(#mask28_735_766)">
<path d="M37 53.5C51.3 53.5 63.5 56.8 68.7 61.5C70.5 58.1 71.4 54.4 71.4 50.5C71.5 35 56 21 37 21C18 21 2.5 35 2.5 50.6C2.5 54.5 3.5 58.2 5.2 61.6C10.5 56.8 22.7 53.5 37 53.5Z" fill="#11BAEE"/>
</g>
<mask id="mask29_735_766" style="mask-type:luminance" maskUnits="userSpaceOnUse" x="2" y="1" width="70" height="71">
<path d="M2 36.6016C2 55.9016 17.7 71.6016 37 71.6016C56.3 71.6016 72 55.9016 72 36.6016C72 17.3016 56.3 1.60156 37 1.60156C17.7 1.60156 2 17.3016 2 36.6016Z" fill="white"/>
</mask>
<g mask="url(#mask29_735_766)">
<path d="M37.0016 53.6008C51.2016 53.6008 63.4016 56.9008 68.7016 61.5008C70.5016 58.2008 71.4016 54.5008 71.4016 50.6008C71.4016 35.3008 56.0016 21.3008 37.0016 21.3008C18.0016 21.3008 2.60156 35.2008 2.60156 50.6008C2.60156 54.5008 3.60156 58.1008 5.30156 61.5008C10.6016 56.8008 22.8016 53.6008 37.0016 53.6008Z" fill="#17BDEF"/>
</g>
<mask id="mask30_735_766" style="mask-type:luminance" maskUnits="userSpaceOnUse" x="2" y="1" width="70" height="71">
<path d="M2 36.6016C2 55.9016 17.7 71.6016 37 71.6016C56.3 71.6016 72 55.9016 72 36.6016C72 17.3016 56.3 1.60156 37 1.60156C17.7 1.60156 2 17.3016 2 36.6016Z" fill="white"/>
</mask>
<g mask="url(#mask30_735_766)">
<path d="M37.0031 53.6016C51.2031 53.6016 63.4031 56.8016 68.6031 61.5016C70.4031 58.2016 71.3031 54.6016 71.3031 50.7016C71.3031 35.5016 56.0031 21.6016 37.0031 21.6016C18.1031 21.6016 2.70312 35.5016 2.70312 50.7016C2.70312 54.5016 3.70312 58.2016 5.40313 61.5016C10.6031 56.9016 22.8031 53.6016 37.0031 53.6016Z" fill="#18C0F1"/>
</g>
<mask id="mask31_735_766" style="mask-type:luminance" maskUnits="userSpaceOnUse" x="2" y="1" width="70" height="71">
<path d="M2 36.6016C2 55.9016 17.7 71.6016 37 71.6016C56.3 71.6016 72 55.9016 72 36.6016C72 17.3016 56.3 1.60156 37 1.60156C17.7 1.60156 2 17.3016 2 36.6016Z" fill="white"/>
</mask>
<g mask="url(#mask31_735_766)">
<path d="M36.9969 53.7C51.0969 53.7 63.2969 56.9 68.4969 61.5C70.2969 58.2 71.1969 54.6 71.1969 50.9C71.1969 35.8 55.8969 22 36.9969 22C18.0969 22 2.79688 35.8 2.79688 50.9C2.79688 54.7 3.79688 58.3 5.49688 61.5C10.6969 56.9 22.7969 53.7 36.9969 53.7Z" fill="#22C4F4"/>
</g>
<mask id="mask32_735_766" style="mask-type:luminance" maskUnits="userSpaceOnUse" x="2" y="1" width="70" height="71">
<path d="M2 36.6016C2 55.9016 17.7 71.6016 37 71.6016C56.3 71.6016 72 55.9016 72 36.6016C72 17.3016 56.3 1.60156 37 1.60156C17.7 1.60156 2 17.3016 2 36.6016Z" fill="white"/>
</mask>
<g mask="url(#mask32_735_766)">
<path d="M36.9984 53.7016C51.0984 53.7016 63.2984 56.9016 68.3984 61.4016C70.0984 58.2016 71.0984 54.6016 71.0984 50.8016C71.0984 35.8016 55.7984 22.1016 36.9984 22.1016C18.1984 22.1016 2.89844 35.8016 2.89844 50.8016C2.89844 54.6016 3.89844 58.1016 5.59844 61.4016C10.6984 56.9016 22.8984 53.7016 36.9984 53.7016Z" fill="#38C4F3"/>
</g>
<mask id="mask33_735_766" style="mask-type:luminance" maskUnits="userSpaceOnUse" x="2" y="1" width="70" height="71">
<path d="M2 36.6016C2 55.9016 17.7 71.6016 37 71.6016C56.3 71.6016 72 55.9016 72 36.6016C72 17.3016 56.3 1.60156 37 1.60156C17.7 1.60156 2 17.3016 2 36.6016Z" fill="white"/>
</mask>
<g mask="url(#mask33_735_766)">
<path d="M36.9984 53.8C51.0984 53.8 63.1984 57 68.3984 61.5C70.0984 58.3 71.0984 54.7 71.0984 51C71.0984 36.1 55.7984 22.5 36.9984 22.5C18.1984 22.5 2.89844 36.1 2.89844 51C2.89844 54.7 3.79844 58.3 5.59844 61.5C10.7984 57 22.8984 53.8 36.9984 53.8Z" fill="#45C6F2"/>
</g>
<mask id="mask34_735_766" style="mask-type:luminance" maskUnits="userSpaceOnUse" x="2" y="1" width="70" height="71">
<path d="M2 36.6016C2 55.9016 17.7 71.6016 37 71.6016C56.3 71.6016 72 55.9016 72 36.6016C72 17.3016 56.3 1.60156 37 1.60156C17.7 1.60156 2 17.3016 2 36.6016Z" fill="white"/>
</mask>
<g mask="url(#mask34_735_766)">
<path d="M37 53.9008C51.1 53.9008 63.2 57.0008 68.3 61.5008C70 58.3008 71 54.8008 71 51.1008C71 36.3008 55.8 22.8008 37 22.8008C18.2 22.8008 3 36.3008 3 51.1008C3 54.8008 3.9 58.3008 5.7 61.5008C10.8 57.1008 22.9 53.9008 37 53.9008Z" fill="#4FC7F3"/>
</g>
<mask id="mask35_735_766" style="mask-type:luminance" maskUnits="userSpaceOnUse" x="2" y="1" width="70" height="71">
<path d="M2 36.6016C2 55.9016 17.7 71.6016 37 71.6016C56.3 71.6016 72 55.9016 72 36.6016C72 17.3016 56.3 1.60156 37 1.60156C17.7 1.60156 2 17.3016 2 36.6016Z" fill="white"/>
</mask>
<g mask="url(#mask35_735_766)">
<path d="M37 54.0016C51.1 54.0016 63.2 57.1016 68.3 61.6016C70 58.4016 71 54.9016 71 51.2016C71 36.5016 55.8 23.1016 37 23.1016C18.2 23.1016 3 36.6016 3 51.2016C3 54.9016 3.9 58.4016 5.7 61.6016C10.8 57.1016 22.9 54.0016 37 54.0016Z" fill="#59C9F4"/>
</g>
<mask id="mask36_735_766" style="mask-type:luminance" maskUnits="userSpaceOnUse" x="2" y="1" width="70" height="71">
<path d="M2 36.6016C2 55.9016 17.7 71.6016 37 71.6016C56.3 71.6016 72 55.9016 72 36.6016C72 17.3016 56.3 1.60156 37 1.60156C17.7 1.60156 2 17.3016 2 36.6016Z" fill="white"/>
</mask>
<g mask="url(#mask36_735_766)">
<path d="M37 54.1008C51.1 54.1008 63.1 57.2008 68.3 61.6008C70 58.4008 71 55.0008 71 51.3008C71 36.7008 55.8 23.3008 37 23.3008C18.2 23.4008 3 36.7008 3 51.3008C3 55.0008 4 58.5008 5.7 61.6008C10.9 57.2008 22.9 54.1008 37 54.1008Z" fill="#60CBF5"/>
</g>
<mask id="mask37_735_766" style="mask-type:luminance" maskUnits="userSpaceOnUse" x="2" y="1" width="70" height="71">
<path d="M2 36.6016C2 55.9016 17.7 71.6016 37 71.6016C56.3 71.6016 72 55.9016 72 36.6016C72 17.3016 56.3 1.60156 37 1.60156C17.7 1.60156 2 17.3016 2 36.6016Z" fill="white"/>
</mask>
<g mask="url(#mask37_735_766)">
<path d="M37.0016 54.2031C51.0016 54.2031 63.1016 57.3031 68.2016 61.7031C69.9016 58.6031 70.9016 55.1031 70.9016 51.5031C70.9016 37.0031 55.7016 23.7031 37.0016 23.7031C18.3016 23.7031 3.10156 37.0031 3.10156 51.4031C3.10156 55.0031 4.00156 58.5031 5.80156 61.6031C10.9016 57.3031 23.0016 54.2031 37.0016 54.2031Z" fill="#66CBF4"/>
</g>
<mask id="mask38_735_766" style="mask-type:luminance" maskUnits="userSpaceOnUse" x="2" y="1" width="70" height="71">
<path d="M2 36.6016C2 55.9016 17.7 71.6016 37 71.6016C56.3 71.6016 72 55.9016 72 36.6016C72 17.3016 56.3 1.60156 37 1.60156C17.7 1.60156 2 17.3016 2 36.6016Z" fill="white"/>
</mask>
<g mask="url(#mask38_735_766)">
<path d="M37.0031 54.3023C51.0031 54.3023 63.0031 57.4023 68.2031 61.7023C69.9031 58.6023 70.9031 55.1023 70.9031 51.5023C70.9031 37.1023 55.7031 23.9023 37.0031 23.9023C18.3031 23.9023 3.20312 37.1023 3.20312 51.5023C3.20312 55.1023 4.10313 58.5023 5.90313 61.7023C10.9031 57.3023 23.0031 54.3023 37.0031 54.3023Z" fill="#6ECEF5"/>
</g>
<mask id="mask39_735_766" style="mask-type:luminance" maskUnits="userSpaceOnUse" x="2" y="1" width="70" height="71">
<path d="M2 36.6016C2 55.9016 17.7 71.6016 37 71.6016C56.3 71.6016 72 55.9016 72 36.6016C72 17.3016 56.3 1.60156 37 1.60156C17.7 1.60156 2 17.3016 2 36.6016Z" fill="white"/>
</mask>
<g mask="url(#mask39_735_766)">
<path d="M37.0031 54.4008C51.0031 54.4008 63.0031 57.4008 68.1031 61.8008C69.8031 58.7008 70.8031 55.3008 70.8031 51.7008C70.8031 37.4008 55.7031 24.3008 37.0031 24.3008C18.3031 24.3008 3.20312 37.4008 3.20312 51.7008C3.20312 55.3008 4.10313 58.7008 5.90313 61.8008C11.0031 57.4008 23.0031 54.4008 37.0031 54.4008Z" fill="#74CFF4"/>
</g>
<mask id="mask40_735_766" style="mask-type:luminance" maskUnits="userSpaceOnUse" x="2" y="1" width="70" height="71">
<path d="M2 36.6016C2 55.9016 17.7 71.6016 37 71.6016C56.3 71.6016 72 55.9016 72 36.6016C72 17.3016 56.3 1.60156 37 1.60156C17.7 1.60156 2 17.3016 2 36.6016Z" fill="white"/>
</mask>
<g mask="url(#mask40_735_766)">
<path d="M37.0031 54.5C51.0031 54.5 63.0031 57.5 68.1031 61.8C69.8031 58.7 70.8031 55.3 70.8031 51.8C70.8031 37.6 55.7031 24.5 37.0031 24.5C18.4031 24.5 3.20312 37.6 3.20312 51.8C3.20312 55.4 4.10313 58.7 5.90313 61.8C11.0031 57.5 23.0031 54.5 37.0031 54.5Z" fill="#7DD1F5"/>
</g>
<mask id="mask41_735_766" style="mask-type:luminance" maskUnits="userSpaceOnUse" x="2" y="1" width="70" height="71">
<path d="M2 36.6016C2 55.9016 17.7 71.6016 37 71.6016C56.3 71.6016 72 55.9016 72 36.6016C72 17.3016 56.3 1.60156 37 1.60156C17.7 1.60156 2 17.3016 2 36.6016Z" fill="white"/>
</mask>
<g mask="url(#mask41_735_766)">
<path d="M36.9969 54.5008C50.9969 54.5008 62.8969 57.5008 67.9969 61.8008C69.6969 58.8008 70.6969 55.4008 70.6969 51.9008C70.6969 37.8008 55.5969 24.8008 36.9969 24.8008C18.3969 24.8008 3.29688 37.8008 3.29688 51.9008C3.29688 55.4008 4.19688 58.8008 5.99688 61.8008C10.9969 57.5008 22.9969 54.5008 36.9969 54.5008Z" fill="#83D2F6"/>
</g>
<mask id="mask42_735_766" style="mask-type:luminance" maskUnits="userSpaceOnUse" x="2" y="1" width="70" height="71">
<path d="M2 36.6016C2 55.9016 17.7 71.6016 37 71.6016C56.3 71.6016 72 55.9016 72 36.6016C72 17.3016 56.3 1.60156 37 1.60156C17.7 1.60156 2 17.3016 2 36.6016Z" fill="white"/>
</mask>
<g mask="url(#mask42_735_766)">
<path d="M36.9969 54.6C50.8969 54.6 62.8969 57.6 67.9969 61.8C69.6969 58.8 70.6969 55.4 70.6969 51.9C70.6969 37.9 55.5969 25 36.9969 25C18.3969 25.1 3.29688 38 3.29688 52C3.29688 55.5 4.19688 58.9 5.99688 61.9C11.0969 57.6 23.0969 54.6 36.9969 54.6Z" fill="#89D5F7"/>
</g>
<mask id="mask43_735_766" style="mask-type:luminance" maskUnits="userSpaceOnUse" x="2" y="1" width="70" height="71">
<path d="M2 36.6016C2 55.9016 17.7 71.6016 37 71.6016C56.3 71.6016 72 55.9016 72 36.6016C72 17.3016 56.3 1.60156 37 1.60156C17.7 1.60156 2 17.3016 2 36.6016Z" fill="white"/>
</mask>
<g mask="url(#mask43_735_766)">
<path d="M37 54.7023C50.9 54.7023 62.9 57.7023 68 61.9023C69.7 58.9023 70.7 55.6023 70.7 52.1023C70.7 38.2023 55.7 25.4023 37.1 25.4023C18.5 25.4023 3.5 38.2023 3.5 52.1023C3.5 55.6023 4.4 58.9023 6.1 61.9023C11.1 57.7023 23.1 54.7023 37 54.7023Z" fill="#8ED7F7"/>
</g>
<mask id="mask44_735_766" style="mask-type:luminance" maskUnits="userSpaceOnUse" x="2" y="1" width="70" height="71">
<path d="M2 36.6016C2 55.9016 17.7 71.6016 37 71.6016C56.3 71.6016 72 55.9016 72 36.6016C72 17.3016 56.3 1.60156 37 1.60156C17.7 1.60156 2 17.3016 2 36.6016Z" fill="white"/>
</mask>
<g mask="url(#mask44_735_766)">
<path d="M36.9984 54.8031C50.8984 54.8031 62.7984 57.7031 67.8984 61.9031C69.5984 58.9031 70.5984 55.6031 70.5984 52.2031C70.5984 38.4031 55.5984 25.7031 36.9984 25.7031C18.4984 25.7031 3.39844 38.4031 3.39844 52.2031C3.39844 55.7031 4.29844 59.0031 5.99844 61.9031C11.1984 57.7031 23.0984 54.8031 36.9984 54.8031Z" fill="#95DAF8"/>
</g>
<mask id="mask45_735_766" style="mask-type:luminance" maskUnits="userSpaceOnUse" x="2" y="1" width="70" height="71">
<path d="M2 36.6016C2 55.9016 17.7 71.6016 37 71.6016C56.3 71.6016 72 55.9016 72 36.6016C72 17.3016 56.3 1.60156 37 1.60156C17.7 1.60156 2 17.3016 2 36.6016Z" fill="white"/>
</mask>
<g mask="url(#mask45_735_766)">
<path d="M37.0016 54.9023C50.9016 54.9023 62.8016 57.8023 67.9016 62.0023C69.6016 59.0023 70.6016 55.8023 70.6016 52.3023C70.6016 38.6023 55.6016 25.9023 37.1016 25.9023C18.6016 25.9023 3.60156 38.6023 3.60156 52.3023C3.60156 55.7023 4.50156 59.0023 6.20156 62.0023C11.2016 57.8023 23.1016 54.9023 37.0016 54.9023Z" fill="#9CDCF9"/>
</g>
<mask id="mask46_735_766" style="mask-type:luminance" maskUnits="userSpaceOnUse" x="2" y="1" width="70" height="71">
<path d="M2 36.6016C2 55.9016 17.7 71.6016 37 71.6016C56.3 71.6016 72 55.9016 72 36.6016C72 17.3016 56.3 1.60156 37 1.60156C17.7 1.60156 2 17.3016 2 36.6016Z" fill="white"/>
</mask>
<g mask="url(#mask46_735_766)">
<path d="M36.9984 55.0031C50.8984 55.0031 62.7984 57.9031 67.7984 62.0031C69.4984 59.1031 70.3984 55.8031 70.3984 52.4031C70.3984 38.8031 55.3984 26.2031 36.8984 26.2031C18.3984 26.2031 3.39844 38.8031 3.39844 52.4031C3.39844 55.8031 4.29844 59.1031 5.99844 62.0031C11.1984 57.9031 23.0984 55.0031 36.9984 55.0031Z" fill="#A2DEF9"/>
</g>
<mask id="mask47_735_766" style="mask-type:luminance" maskUnits="userSpaceOnUse" x="2" y="1" width="70" height="71">
<path d="M2 36.6016C2 55.9016 17.7 71.6016 37 71.6016C56.3 71.6016 72 55.9016 72 36.6016C72 17.3016 56.3 1.60156 37 1.60156C17.7 1.60156 2 17.3016 2 36.6016Z" fill="white"/>
</mask>
<g mask="url(#mask47_735_766)">
<path d="M37.0016 55.1016C50.8016 55.1016 62.7016 58.0016 67.8016 62.1016C69.5016 59.2016 70.4016 55.9016 70.4016 52.6016C70.4016 39.1016 55.4016 26.6016 37.0016 26.6016C18.5016 26.6016 3.60156 39.1016 3.60156 52.6016C3.60156 56.0016 4.50156 59.2016 6.20156 62.1016C11.3016 57.9016 23.1016 55.1016 37.0016 55.1016Z" fill="#A8DEF9"/>
</g>
<mask id="mask48_735_766" style="mask-type:luminance" maskUnits="userSpaceOnUse" x="2" y="1" width="70" height="71">
<path d="M2 36.6016C2 55.9016 17.7 71.6016 37 71.6016C56.3 71.6016 72 55.9016 72 36.6016C72 17.3016 56.3 1.60156 37 1.60156C17.7 1.60156 2 17.3016 2 36.6016Z" fill="white"/>
</mask>
<g mask="url(#mask48_735_766)">
<path d="M37.0016 55.2008C50.8016 55.2008 62.7016 58.1008 67.8016 62.1008C69.5016 59.2008 70.4016 56.0008 70.4016 52.6008C70.4016 39.2008 55.5016 26.8008 37.0016 26.8008C18.6016 26.8008 3.60156 39.2008 3.60156 52.6008C3.60156 56.0008 4.50156 59.2008 6.20156 62.1008C11.3016 58.0008 23.2016 55.2008 37.0016 55.2008Z" fill="#AEE0F9"/>
</g>
<mask id="mask49_735_766" style="mask-type:luminance" maskUnits="userSpaceOnUse" x="2" y="1" width="70" height="71">
<path d="M2 36.6016C2 55.9016 17.7 71.6016 37 71.6016C56.3 71.6016 72 55.9016 72 36.6016C72 17.3016 56.3 1.60156 37 1.60156C17.7 1.60156 2 17.3016 2 36.6016Z" fill="white"/>
</mask>
<g mask="url(#mask49_735_766)">
<path d="M37.0031 55.3016C50.8031 55.3016 62.6031 58.1016 67.7031 62.2016C69.4031 59.3016 70.3031 56.1016 70.3031 52.8016C70.3031 39.5016 55.4031 27.1016 37.0031 27.1016C18.6031 27.1016 3.70312 39.5016 3.70312 52.8016C3.70312 56.1016 4.60313 59.3016 6.30313 62.2016C11.3031 58.1016 23.2031 55.3016 37.0031 55.3016Z" fill="#B4E2F9"/>
</g>
<mask id="mask50_735_766" style="mask-type:luminance" maskUnits="userSpaceOnUse" x="2" y="1" width="70" height="71">
<path d="M2 36.6016C2 55.9016 17.7 71.6016 37 71.6016C56.3 71.6016 72 55.9016 72 36.6016C72 17.3016 56.3 1.60156 37 1.60156C17.7 1.60156 2 17.3016 2 36.6016Z" fill="white"/>
</mask>
<g mask="url(#mask50_735_766)">
<path d="M37.0031 55.3008C50.8031 55.3008 62.6031 58.1008 67.7031 62.1008C69.4031 59.2008 70.3031 56.1008 70.3031 52.8008C70.3031 39.6008 55.4031 27.3008 37.0031 27.3008C18.6031 27.3008 3.70312 39.6008 3.70312 52.8008C3.70312 56.1008 4.60313 59.3008 6.30313 62.1008C11.4031 58.2008 23.2031 55.3008 37.0031 55.3008Z" fill="#B9E4FA"/>
</g>
<mask id="mask51_735_766" style="mask-type:luminance" maskUnits="userSpaceOnUse" x="2" y="1" width="70" height="71">
<path d="M2 36.6016C2 55.9016 17.7 71.6016 37 71.6016C56.3 71.6016 72 55.9016 72 36.6016C72 17.3016 56.3 1.60156 37 1.60156C17.7 1.60156 2 17.3016 2 36.6016Z" fill="white"/>
</mask>
<g mask="url(#mask51_735_766)">
<path d="M37.0031 55.4016C50.8031 55.4016 62.6031 58.2016 67.6031 62.2016C69.3031 59.4016 70.2031 56.2016 70.2031 52.9016C70.2031 39.8016 55.3031 27.6016 37.0031 27.6016C18.6031 27.6016 3.70312 39.8016 3.70312 53.0016C3.70312 56.3016 4.60313 59.4016 6.30313 62.3016C11.4031 58.2016 23.2031 55.4016 37.0031 55.4016Z" fill="#BDE7FB"/>
</g>
<mask id="mask52_735_766" style="mask-type:luminance" maskUnits="userSpaceOnUse" x="2" y="1" width="70" height="71">
<path d="M2 36.6016C2 55.9016 17.7 71.6016 37 71.6016C56.3 71.6016 72 55.9016 72 36.6016C72 17.3016 56.3 1.60156 37 1.60156C17.7 1.60156 2 17.3016 2 36.6016Z" fill="white"/>
</mask>
<g mask="url(#mask52_735_766)">
<path d="M36.9969 55.5023C50.6969 55.5023 62.4969 58.3023 67.5969 62.2023C69.2969 59.4023 70.1969 56.3023 70.1969 53.0023C70.1969 40.0023 55.2969 27.9023 36.9969 27.9023C18.6969 27.9023 3.79688 40.0023 3.79688 53.1023C3.79688 56.4023 4.69688 59.5023 6.39688 62.3023C11.3969 58.3023 23.1969 55.5023 36.9969 55.5023Z" fill="#C4E8FA"/>
</g>
<mask id="mask53_735_766" style="mask-type:luminance" maskUnits="userSpaceOnUse" x="2" y="1" width="70" height="71">
<path d="M2 36.6016C2 55.9016 17.7 71.6016 37 71.6016C56.3 71.6016 72 55.9016 72 36.6016C72 17.3016 56.3 1.60156 37 1.60156C17.7 1.60156 2 17.3016 2 36.6016Z" fill="white"/>
</mask>
<g mask="url(#mask53_735_766)">
<path d="M37.0031 55.6031C50.7031 55.6031 62.5031 58.4031 67.5031 62.3031C69.2031 59.5031 70.1031 56.4031 70.1031 53.2031C70.1031 40.3031 55.3031 28.2031 36.9031 28.2031C18.6031 28.2031 3.70312 40.2031 3.70312 53.2031C3.70312 56.4031 4.60313 59.5031 6.30313 62.3031C11.5031 58.4031 23.3031 55.6031 37.0031 55.6031Z" fill="#C9EAFB"/>
</g>
<mask id="mask54_735_766" style="mask-type:luminance" maskUnits="userSpaceOnUse" x="2" y="1" width="70" height="71">
<path d="M2 36.6016C2 55.9016 17.7 71.6016 37 71.6016C56.3 71.6016 72 55.9016 72 36.6016C72 17.3016 56.3 1.60156 37 1.60156C17.7 1.60156 2 17.3016 2 36.6016Z" fill="white"/>
</mask>
<g mask="url(#mask54_735_766)">
<path d="M36.9984 55.7C50.6984 55.7 62.4984 58.4 67.4984 62.3C69.1984 59.5 70.0984 56.5 70.0984 53.3C70.0984 40.5 55.2984 28.5 36.9984 28.5C18.6984 28.5 3.89844 40.5 3.89844 53.3C3.89844 56.5 4.79844 59.6 6.49844 62.3C11.4984 58.4 23.2984 55.7 36.9984 55.7Z" fill="#CEEBFB"/>
</g>
<mask id="mask55_735_766" style="mask-type:luminance" maskUnits="userSpaceOnUse" x="2" y="1" width="70" height="71">
<path d="M2 36.6016C2 55.9016 17.7 71.6016 37 71.6016C56.3 71.6016 72 55.9016 72 36.6016C72 17.3016 56.3 1.60156 37 1.60156C17.7 1.60156 2 17.3016 2 36.6016Z" fill="white"/>
</mask>
<g mask="url(#mask55_735_766)">
<path d="M36.9984 55.8008C50.6984 55.8008 62.3984 58.5008 67.4984 62.4008C69.1984 59.7008 70.0984 56.6008 70.0984 53.4008C70.0984 40.7008 55.2984 28.8008 36.9984 28.8008C18.6984 28.8008 3.89844 40.7008 3.89844 53.4008C3.89844 56.6008 4.79844 59.6008 6.49844 62.4008C11.4984 58.5008 23.2984 55.8008 36.9984 55.8008Z" fill="#D3EFFC"/>
</g>
<mask id="mask56_735_766" style="mask-type:luminance" maskUnits="userSpaceOnUse" x="2" y="1" width="70" height="71">
<path d="M2 36.6016C2 55.9016 17.7 71.6016 37 71.6016C56.3 71.6016 72 55.9016 72 36.6016C72 17.3016 56.3 1.60156 37 1.60156C17.7 1.60156 2 17.3016 2 36.6016Z" fill="white"/>
</mask>
<g mask="url(#mask56_735_766)">
<path d="M37 55.9016C50.7 55.9016 62.4 58.6016 67.4 62.4016C69.1 59.7016 70 56.6016 70 53.5016C70 40.9016 55.2 29.1016 37 29.1016C18.8 29.1016 4 40.9016 4 53.5016C4 56.7016 4.9 59.7016 6.6 62.4016C11.6 58.6016 23.3 55.9016 37 55.9016Z" fill="#DAF0FC"/>
</g>
<mask id="mask57_735_766" style="mask-type:luminance" maskUnits="userSpaceOnUse" x="2" y="1" width="70" height="71">
<path d="M2 36.6016C2 55.9016 17.7 71.6016 37 71.6016C56.3 71.6016 72 55.9016 72 36.6016C72 17.3016 56.3 1.60156 37 1.60156C17.7 1.60156 2 17.3016 2 36.6016Z" fill="white"/>
</mask>
<g mask="url(#mask57_735_766)">
<path d="M37 56C50.6 56 62.4 58.7 67.4 62.5C69.1 59.8 70 56.8 70 53.7C70 41.2 55.2 29.5 37 29.5C18.8 29.5 4 41.2 4 53.7C4 56.8 4.9 59.8 6.6 62.5C11.6 58.6 23.3 56 37 56Z" fill="#E1F4FD"/>
</g>
<mask id="mask58_735_766" style="mask-type:luminance" maskUnits="userSpaceOnUse" x="2" y="1" width="70" height="71">
<path d="M2 36.6016C2 55.9016 17.7 71.6016 37 71.6016C56.3 71.6016 72 55.9016 72 36.6016C72 17.3016 56.3 1.60156 37 1.60156C17.7 1.60156 2 17.3016 2 36.6016Z" fill="white"/>
</mask>
<g mask="url(#mask58_735_766)">
<path d="M37.0016 56.1016C50.6016 56.1016 62.3016 58.7016 67.3016 62.5016C69.0016 59.8016 69.9016 56.8016 69.9016 53.7016C69.9016 41.3016 55.2016 29.6016 37.0016 29.6016C18.8016 29.6016 4.10156 41.2016 4.10156 53.7016C4.10156 56.8016 5.00156 59.8016 6.70156 62.5016C11.7016 58.7016 23.4016 56.1016 37.0016 56.1016Z" fill="#E6F5FC"/>
</g>
<mask id="mask59_735_766" style="mask-type:luminance" maskUnits="userSpaceOnUse" x="2" y="1" width="70" height="71">
<path d="M2 36.6016C2 55.9016 17.7 71.6016 37 71.6016C56.3 71.6016 72 55.9016 72 36.6016C72 17.3016 56.3 1.60156 37 1.60156C17.7 1.60156 2 17.3016 2 36.6016Z" fill="white"/>
</mask>
<g mask="url(#mask59_735_766)">
<path d="M37.0016 56.1023C50.6016 56.1023 62.3016 58.7023 67.3016 62.5023C69.0016 59.8023 69.9016 56.9023 69.9016 53.8023C69.9016 41.5023 55.2016 29.9023 37.0016 29.9023C18.8016 29.9023 4.10156 41.5023 4.10156 53.8023C4.10156 56.9023 5.00156 59.8023 6.70156 62.5023C11.7016 58.8023 23.4016 56.1023 37.0016 56.1023Z" fill="#EAF7FE"/>
</g>
<mask id="mask60_735_766" style="mask-type:luminance" maskUnits="userSpaceOnUse" x="2" y="1" width="70" height="71">
<path d="M2 36.6016C2 55.9016 17.7 71.6016 37 71.6016C56.3 71.6016 72 55.9016 72 36.6016C72 17.3016 56.3 1.60156 37 1.60156C17.7 1.60156 2 17.3016 2 36.6016Z" fill="white"/>
</mask>
<g mask="url(#mask60_735_766)">
<path d="M37.0031 56.2031C50.6031 56.2031 62.2031 58.8031 67.2031 62.5031C68.9031 59.9031 69.8031 56.9031 69.8031 53.9031C69.8031 41.7031 55.1031 30.2031 37.0031 30.2031C18.9031 30.2031 4.20312 41.7031 4.20312 53.9031C4.20312 57.0031 5.10313 59.9031 6.80313 62.5031C11.7031 58.8031 23.4031 56.2031 37.0031 56.2031Z" fill="#F2FAFE"/>
</g>
<mask id="mask61_735_766" style="mask-type:luminance" maskUnits="userSpaceOnUse" x="2" y="1" width="70" height="71">
<path d="M2 36.6016C2 55.9016 17.7 71.6016 37 71.6016C56.3 71.6016 72 55.9016 72 36.6016C72 17.3016 56.3 1.60156 37 1.60156C17.7 1.60156 2 17.3016 2 36.6016Z" fill="white"/>
</mask>
<g mask="url(#mask61_735_766)">
<path d="M37.0031 56.3C50.6031 56.3 62.2031 58.9 67.2031 62.6C68.9031 60 69.8031 57.1 69.8031 54C69.8031 41.9 55.1031 30.5 37.0031 30.5C18.9031 30.5 4.20312 41.9 4.20312 54C4.20312 57 5.10313 59.9 6.80313 62.6C11.8031 58.9 23.4031 56.3 37.0031 56.3Z" fill="#F6FBFD"/>
</g>
<mask id="mask62_735_766" style="mask-type:luminance" maskUnits="userSpaceOnUse" x="2" y="1" width="70" height="71">
<path d="M2 36.6016C2 55.9016 17.7 71.6016 37 71.6016C56.3 71.6016 72 55.9016 72 36.6016C72 17.3016 56.3 1.60156 37 1.60156C17.7 1.60156 2 17.3016 2 36.6016Z" fill="white"/>
</mask>
<g mask="url(#mask62_735_766)">
<path d="M36.9984 56.4031C50.4984 56.4031 62.1984 59.0031 67.1984 62.6031C68.8984 60.0031 69.7984 57.1031 69.7984 54.1031C69.7984 42.1031 55.0984 30.7031 37.0984 30.7031C18.9984 30.7031 4.39844 42.0031 4.39844 54.1031C4.39844 57.1031 5.29844 60.0031 6.99844 62.6031C11.7984 59.0031 23.3984 56.4031 36.9984 56.4031Z" fill="white"/>
</g>
<path d="M37 45.3984C25.1 45.3984 14.1 47.3984 5 50.7984C10.5 62.9984 22.7 71.4984 37 71.4984C51.3 71.4984 63.5 62.9984 69 50.7984C59.9 47.3984 48.8 45.3984 37 45.3984Z" fill="#1383C6"/>
<path d="M294.297 15.3984L269.797 58.3984H281.297L285.797 50.1984L299.097 50.2984L299.997 58.3984H310.697L304.197 15.3984H294.297ZM290.497 41.9984L296.997 29.2984L298.497 41.9984H290.497Z" fill="#0068AC"/>
<path d="M354.897 15.3984L339.597 41.3984L335.297 15.3984H323.297L314.297 58.2984H324.597L328.897 32.2984L331.997 58.2984H340.897L354.797 32.6984L347.897 58.2984H358.197L367.197 15.3984H354.897Z" fill="#0068AC"/>
<path d="M377.394 48.8984L379.094 40.6984H393.794L395.794 31.1984H381.094L382.494 24.7984H397.894L399.894 15.3984H373.694L364.594 58.2984H391.394L393.394 48.8984H377.394Z" fill="#0068AC"/>
<path d="M472.19 49.9C469.79 49.9 468.19 49.3 467.19 48C465.59 46 465.19 41.9 466.29 36.9C469.09 23.7 475.39 23.7 477.49 23.7C478.89 23.7 479.99 24 480.49 24.6C481.09 25.4 480.99 26.7 480.79 27.4L479.99 31.1H491.79L492.29 28.7C493.09 24.9 492.39 21.3 490.19 18.7C488.49 16.6 484.99 14 478.19 14C466.29 14 457.79 21.8 454.89 35.5C453.69 41.2 453.19 49.1 457.59 54.5C460.39 57.9 464.59 59.7 470.09 59.7C476.29 59.7 479.99 58.3 482.29 57.5C482.59 57.4 482.79 57.3 482.99 57.2L484.69 56.6L487.49 43.5L481.49 47.1C480.39 47.9 476.89 49.9 472.19 49.9Z" fill="#0068AC"/>
<path d="M433.992 58.9008H445.692L454.192 14.8008H442.492L433.992 58.9008Z" fill="#0068AC"/>
<path d="M425.692 41.5001C431.092 38.5001 434.592 32.6001 434.592 25.0001C434.592 13.7001 421.192 14.9001 421.192 14.9001H407.292L397.992 58.7001H408.392L411.392 43.7001H415.392C416.592 43.9001 418.392 44.7001 418.592 47.1001C418.992 51.0001 419.592 58.9001 419.592 58.9001H429.992C429.992 58.9001 429.092 48.2001 428.792 46.6001C428.592 44.9001 428.092 42.7001 425.692 41.5001ZM415.892 23.0001C418.692 23.0001 425.492 20.7001 424.292 28.8001C423.092 36.8001 413.392 35.8001 413.392 35.8001L415.892 23.0001Z" fill="#0068AC"/>
<path d="M510.891 15.3984L486.391 58.3984H497.991L502.491 50.1984L515.791 50.2984L516.691 58.3984H527.391L520.891 15.3984H510.891ZM507.091 41.9984L513.591 29.2984L515.191 41.9984H507.091Z" fill="#0068AC"/>
<path d="M128.694 14.8984L119.894 38.1984L116.494 14.8984L107.994 14.9984L95.6937 38.2984V14.9984H85.1937L85.0938 58.7984H95.4938L108.594 34.0984L112.394 58.6984H122.694L139.294 14.8984H128.694Z" fill="#0068AC"/>
<path d="M157.797 14.5C149.697 14.5 139.197 18.4 135.697 36.9C132.197 55.3 141.097 59.2 149.197 59.2C157.297 59.2 167.797 55.3 171.297 36.8C174.897 18.3 165.897 14.5 157.797 14.5ZM150.997 50.1C149.497 50.1 144.797 50.1 147.297 36.9C149.797 23.7 154.497 23.7 156.097 23.7C157.597 23.7 162.297 23.7 159.797 36.9C157.197 50 152.497 50.1 150.997 50.1Z" fill="#0068AC"/>
<path d="M196.391 14.5C188.291 14.5 177.791 18.4 174.291 36.9C170.791 55.3 179.691 59.2 187.791 59.2C195.891 59.2 206.391 55.3 209.891 36.8C213.391 18.3 204.491 14.5 196.391 14.5ZM189.491 50.1C187.991 50.1 183.291 50.1 185.791 36.9C188.291 23.7 192.991 23.7 194.591 23.7C196.091 23.7 200.791 23.7 198.291 36.9C195.791 50 191.091 50.1 189.491 50.1Z" fill="#0068AC"/>
<path d="M236.794 41.5001C242.194 38.5001 245.694 32.6001 245.694 25.0001C245.694 13.7001 232.294 14.9001 232.294 14.9001H218.394L209.094 58.8001H219.494L222.494 43.8001H226.494C227.694 44.0001 229.494 44.8001 229.694 47.2001C230.094 51.1001 230.694 59.0001 230.694 59.0001H241.094C241.094 59.0001 240.194 48.3001 239.894 46.7001C239.694 44.9001 239.194 42.7001 236.794 41.5001ZM226.994 23.0001C229.794 23.0001 236.594 20.7001 235.394 28.8001C234.194 36.8001 224.494 35.8001 224.494 35.8001L226.994 23.0001Z" fill="#0068AC"/>
<path d="M244.695 58.9008H256.395L264.795 14.8008H253.095L244.695 58.9008Z" fill="#0068AC"/>
<path d="M701.989 15.6992H689.189L673.289 31.1992L676.289 15.6992H665.089L656.789 57.9992H667.989L671.489 40.3992L681.389 57.9992H694.989L681.489 35.2992L701.989 15.6992Z" fill="#0068AC"/>
<path d="M578.491 26.5008C579.791 19.5008 575.791 15.3008 567.591 15.3008L548.091 15.4008L539.891 58.3008H559.391C569.291 58.3008 575.091 53.9008 576.791 45.4008C577.691 40.6008 576.491 37.0008 573.391 35.0008C576.091 33.0008 577.791 30.1008 578.491 26.5008ZM566.391 44.9008C565.891 47.6008 564.591 49.3008 559.691 49.6008H559.491C559.091 49.6008 558.791 49.6008 558.291 49.6008H557.791H552.091L553.991 39.8008H559.691H560.191C567.391 39.8008 566.791 43.1008 566.391 44.9008ZM567.891 27.7008C567.391 30.4008 566.491 31.3008 563.491 31.5008H561.491H561.091H555.591L556.991 24.1008H562.791H563.291C568.191 24.0008 568.391 25.0008 567.891 27.7008Z" fill="#0068AC"/>
<path d="M598.394 15.5L574.094 58.1H585.494L589.994 50L603.194 50.1L604.094 58.1H614.694L608.194 15.5H598.394ZM594.594 41.9L600.994 29.3L602.494 41.9H594.594Z" fill="#0068AC"/>
<path d="M649.692 15.5L645.292 39.9L636.392 15.5H625.692L617.492 58.2L627.392 57.9L632.292 32.1L641.192 58.2H651.292L659.492 15.5H649.692Z" fill="#0068AC"/>
</g>
<defs>
<clipPath id="clip0_735_766">
<rect width="702" height="73.4" fill="white"/>
</clipPath>
</defs>
</svg>
