<svg width="351" height="58" viewBox="0 0 351 58" fill="none" xmlns="http://www.w3.org/2000/svg">
<g clip-path="url(#clip0_673_3556)">
<mask id="mask0_673_3556" style="mask-type:luminance" maskUnits="userSpaceOnUse" x="0" y="0" width="351" height="58">
<path d="M350.281 0.5H0.28125V57.5H350.281V0.5Z" fill="white"/>
</mask>
<g mask="url(#mask0_673_3556)">
<path d="M272.423 37.3603C271.883 37.0503 271.293 36.8803 270.663 36.8503V36.7003C271.243 36.5803 271.753 36.3603 272.193 36.0603C272.633 35.7503 272.983 35.3703 273.233 34.9003C273.483 34.4303 273.613 33.9003 273.613 33.3003C273.613 32.5103 273.413 31.8203 273.013 31.2203C272.613 30.6203 272.013 30.1603 271.213 29.8203C270.413 29.4903 269.433 29.3203 268.253 29.3203H261.703V45.0403H268.753C269.913 45.0403 270.903 44.8503 271.713 44.4703C272.523 44.0903 273.153 43.5703 273.573 42.9003C274.003 42.2403 274.213 41.4803 274.213 40.6403C274.213 39.8803 274.053 39.2303 273.723 38.6703C273.393 38.1103 272.963 37.6803 272.423 37.3703V37.3603ZM265.493 32.3203H267.653C268.283 32.3203 268.793 32.4703 269.163 32.7703C269.533 33.0703 269.723 33.4903 269.723 34.0103C269.723 34.3803 269.633 34.6903 269.453 34.9503C269.273 35.2103 269.023 35.4103 268.693 35.5503C268.373 35.6903 268.003 35.7603 267.583 35.7603H265.483V32.3103L265.493 32.3203ZM269.663 41.4903C269.273 41.8003 268.663 41.9603 267.843 41.9603H265.493V38.2103H267.913C268.403 38.2103 268.813 38.2903 269.163 38.4503C269.513 38.6103 269.783 38.8403 269.973 39.1303C270.163 39.4203 270.253 39.7703 270.253 40.1803C270.253 40.7403 270.053 41.1703 269.663 41.4803V41.4903Z" fill="#054157"/>
<path d="M286.081 29.3125L280.781 45.0325H284.861L285.891 41.7325H291.321L292.361 45.0325H296.441L291.141 29.3125H286.081ZM286.801 38.8425L288.551 33.2725H288.671L290.421 38.8425H286.801Z" fill="#054157"/>
<path d="M313.752 38.3625H313.622L307.442 29.3125H304.172V45.0225H307.972V35.9525H308.072L314.322 45.0225H317.552V29.3125H313.752V38.3625Z" fill="#054157"/>
<path d="M333.975 36.3225L339.545 29.3125H335.075L329.875 35.9525H329.675V29.3125H325.875V45.0225H329.675V40.7725L331.185 38.8525L335.105 45.0225H339.645L333.975 36.3225Z" fill="#054157"/>
<path d="M126.551 14.0912C126.551 13.3412 125.991 12.9712 124.691 12.9712H115.921C114.801 12.9712 113.991 13.2812 113.991 14.0912C113.991 15.8312 117.161 15.2112 117.161 18.7512C117.161 20.4912 116.411 22.9813 115.111 26.9613C113.741 31.0613 111.881 36.4712 111.261 38.1512C111.201 38.3412 111.141 38.5213 111.011 38.5213C110.881 38.5213 110.821 38.3312 110.761 38.1512L102.181 12.9712C102.061 12.6612 101.931 12.5312 101.501 12.5312H98.1416C97.7716 12.5312 97.5816 12.6512 97.4616 12.9712L88.1416 38.1512C88.0816 38.3412 88.0216 38.4613 87.8916 38.4613C87.7616 38.4613 87.7016 38.3412 87.6416 38.1512L82.9216 22.1712C82.3616 20.2412 82.1116 19.0012 82.1116 18.0712C82.1116 15.0912 84.9716 15.6512 84.9716 14.0912C84.9716 13.3412 84.3516 12.9712 83.2916 12.9712H73.0916C71.9116 12.9712 71.1016 13.1612 71.1016 14.1512C71.1016 15.3912 72.8416 15.3912 73.9616 16.5112C75.0216 17.5012 75.8916 19.6812 76.6316 22.1712L83.5316 45.3013C83.6516 45.7413 83.9016 45.8612 84.4616 45.8612H88.0716C88.5116 45.8612 88.6916 45.7413 88.8816 45.3013L98.0216 20.7412C98.0816 20.5512 98.1416 20.4912 98.2716 20.4912C98.3316 20.4912 98.3916 20.5512 98.4616 20.7412L106.851 45.4212C106.971 45.7312 107.161 45.8612 107.531 45.8612H111.201C111.641 45.8612 111.821 45.7412 111.951 45.3612L119.911 23.3512C120.841 20.8012 121.781 18.6912 123.391 17.0712C125.071 15.3312 126.561 15.2712 126.561 14.0912H126.551Z" fill="#054157"/>
<path d="M153.67 41.6291H152.92C151.68 41.6291 150.93 40.6391 150.93 38.4591C150.93 33.4891 151.12 27.7691 151.12 22.9191C151.12 16.7691 147.02 12.2891 139.06 12.2891C135.52 12.2891 130.48 13.1591 128.8 15.3391C128.05 16.2691 127.74 18.2591 127.74 19.8791C127.74 21.4991 127.99 22.9291 129.48 22.9291C130.85 22.9291 131.03 21.8091 132.28 20.0691C133.83 17.8891 135.76 15.4691 139.49 15.4691C142.85 15.4691 144.9 17.5791 144.9 20.5691C144.9 23.9291 142.16 25.7291 139.68 26.8491C136.26 28.4691 132.41 29.1491 129.17 31.3291C126.56 33.0091 125.32 35.6191 125.32 38.1091C125.32 42.3991 128.99 46.1291 135.02 46.1291C138.87 46.1291 142.73 44.5091 144.97 41.1591C145.09 40.9691 145.09 40.9091 145.22 40.9091C145.35 40.9091 145.34 41.0991 145.34 41.2191C145.71 44.8891 148.01 46.1291 150.06 46.1291C152.8 46.1291 154.72 43.8291 154.72 42.6491C154.72 42.0291 154.22 41.6591 153.66 41.6591L153.67 41.6291ZM144.9 28.9491C144.9 32.7391 144.84 35.4791 143.59 38.0891C142.1 41.1391 139.3 42.4991 136.88 42.4991C133.59 42.4991 131.91 40.2591 131.91 37.7791C131.91 36.0391 132.78 34.1091 135.02 32.6191C138 30.6291 142.11 29.5691 144.28 27.8991C144.53 27.7091 144.59 27.6491 144.72 27.6491C144.85 27.6491 144.91 27.7691 144.91 27.8991V28.9591L144.9 28.9491Z" fill="#054157"/>
<path d="M247.683 37.4008C246.193 37.4008 243.703 41.6308 237.613 41.6308C231.023 41.6308 227.293 35.7908 227.293 29.2608V28.9508C227.293 28.5108 227.543 28.3308 227.973 28.3308H244.823C247.873 28.2708 249.733 27.7108 249.733 23.9208C249.733 19.5708 246.003 12.3008 237.053 12.3008C227.413 12.3008 220.953 21.0708 220.953 30.1408C220.953 38.6608 226.543 46.1208 236.063 46.1208C244.333 46.1208 249.053 40.4608 249.053 38.7208C249.053 37.8508 248.433 37.4108 247.683 37.4108V37.4008ZM227.603 24.1608C228.353 19.5608 231.523 15.3308 236.493 15.3308C240.903 15.3308 243.393 18.7508 243.393 21.6108C243.393 24.4708 241.773 25.2208 238.173 25.2208C238.173 25.2208 228.473 25.2208 228.043 25.2208C227.673 25.2208 227.543 25.1608 227.543 24.8508C227.543 24.7908 227.543 24.6608 227.603 24.1708V24.1608Z" fill="#054157"/>
<path d="M184.951 14.2389C184.861 12.8089 183.481 12.9789 183.481 12.9789H182.731H181.061H176.941C175.821 12.9789 175.081 13.3489 175.081 14.1589C175.081 15.8389 178.131 15.2189 178.131 18.5689C178.131 20.1889 177.321 22.4189 175.831 26.2789L171.421 37.4689C171.301 37.7789 171.231 37.8389 171.111 37.8389C170.991 37.8389 170.991 37.7789 170.861 37.4689L164.461 21.6189C163.711 19.8189 163.471 18.5689 163.471 17.7689C163.471 15.2789 166.391 15.5889 166.391 14.0989C166.391 13.4189 165.771 12.9789 164.771 12.9789H154.641C153.271 12.9789 152.711 13.4189 152.711 14.1589C152.711 15.3389 154.081 15.3389 155.131 16.1489C156.371 17.1389 157.241 19.2589 158.301 22.0589L167.441 45.3689C167.501 45.5589 167.561 45.7389 167.561 45.9289C167.561 46.1189 167.501 46.2989 167.371 46.5489C166.131 48.9689 164.321 52.2689 161.401 52.2689C158.481 52.2689 157.981 49.6589 156.181 49.6589C154.691 49.6589 154.071 51.1489 154.071 52.7089C154.071 55.9389 156.251 57.4289 158.981 57.4289C160.411 57.4289 162.031 56.9889 163.641 56.0589C167.811 53.6389 170.231 48.7889 172.281 43.9389C174.461 38.7789 179.301 26.7789 180.861 23.1789C181.141 22.5289 181.421 21.8989 181.711 21.2789L183.361 17.3589C184.241 15.6589 185.031 15.5089 184.951 14.2489V14.2389Z" fill="#054157"/>
<path d="M216.471 41.2608C215.721 40.0808 215.541 37.7208 215.541 34.4808V24.6008C215.541 20.2508 214.791 18.0108 213.431 16.1508C211.751 13.8508 208.831 12.3008 205.291 12.3008C200.631 12.3008 197.151 14.8508 195.221 17.7108C195.101 17.9008 195.031 18.0208 194.911 18.0208C194.791 18.0208 194.721 17.9008 194.721 17.7108V14.6308C194.721 13.4508 194.021 12.9808 192.731 12.9808C192.001 12.9808 190.001 12.9808 188.781 12.9808C187.791 12.9808 186.761 13.2208 187.201 14.5908C187.631 15.9508 188.861 18.0408 188.881 20.9908C188.881 21.1108 188.881 21.2308 188.881 21.3608V34.4908C188.881 37.5408 188.691 39.6508 188.131 40.8908C187.201 42.8808 184.961 42.9408 184.961 44.2508C184.961 45.1208 185.711 45.4308 186.641 45.4308H196.961C197.891 45.4308 198.641 45.1208 198.641 44.2508C198.641 43.1308 196.651 42.9408 195.591 41.1408C194.911 39.9608 194.721 37.6608 194.721 34.4908C194.721 24.9208 195.281 21.5608 197.641 19.2008C199.131 17.7108 201.121 17.0208 202.991 17.0208C206.661 17.0208 209.521 19.3808 209.521 24.7908V34.4908C209.521 37.6008 209.331 39.8408 208.711 41.0208C207.721 42.9508 205.601 43.0108 205.601 44.2508C205.601 45.1208 206.411 45.4308 207.341 45.4308H217.781C218.711 45.4308 219.521 45.1208 219.521 44.2508C219.521 43.1308 217.531 42.8808 216.471 41.2708V41.2608Z" fill="#054157"/>
<path d="M10.8832 38.7506L20.6232 33.1207L7.46313 28.7806L22.0432 23.9707L22.0132 23.8206L18.9132 8.93063L29.2532 18.1606V6.91063L21.6732 0.140625C17.2332 1.49063 13.2332 3.84063 9.93312 6.93063L12.2732 18.1906L12.3032 18.3406L1.23312 21.9906C0.723124 24.1706 0.453125 26.4406 0.453125 28.7706C0.453125 31.1006 0.733124 33.3707 1.23312 35.5507L10.8832 38.7307V38.7506Z" fill="#F5C630"/>
<path d="M31.5156 18.1602L41.8556 8.93016L38.7256 23.9702L53.3056 28.7802L40.1456 33.1202L49.8856 38.7502L59.5356 35.5702C60.0456 33.3902 60.3156 31.1202 60.3156 28.7902C60.3156 26.4602 60.0356 24.1902 59.5356 22.0102L48.4656 18.3602L50.8356 6.95016C47.5356 3.86016 43.5356 1.50016 39.0956 0.160156L31.5156 6.93016V18.1802V18.1602Z" fill="#F5C630"/>
<path d="M39.0197 35.0608L41.8397 48.6208L30.3797 38.3908L18.9197 48.6208L21.7397 35.0508L11.9997 40.6808L9.92969 50.6208C13.2297 53.7108 17.2297 56.0708 21.6697 57.4108L30.3697 49.6408L39.0697 57.4108C43.5097 56.0608 47.5097 53.7108 50.8097 50.6208L48.7397 40.6808L38.9997 35.0508L39.0197 35.0608Z" fill="#F5C630"/>
<path d="M345.986 29.2031V29.7631H344.906V32.5731H344.236V29.7631H343.156V29.2031H345.986ZM349.626 32.5731L349.506 30.5931C349.496 30.3331 349.496 30.0131 349.486 29.6531H349.446C349.356 29.9531 349.256 30.3431 349.156 30.6531L348.546 32.5231H347.856L347.246 30.6031C347.186 30.3431 347.086 29.9431 347.006 29.6531H346.966C346.966 29.9631 346.956 30.2831 346.946 30.5931L346.826 32.5731H346.186L346.436 29.2031H347.436L348.016 30.8531C348.086 31.1131 348.156 31.3631 348.236 31.7031H348.246C348.336 31.3931 348.406 31.1131 348.476 30.8631L349.056 29.2031H350.026L350.286 32.5731H349.616H349.626Z" fill="#054157"/>
</g>
</g>
<defs>
<clipPath id="clip0_673_3556">
<rect width="351" height="58" fill="white"/>
</clipPath>
</defs>
</svg>
