<svg width="356" height="56" viewBox="0 0 356 56" fill="none" xmlns="http://www.w3.org/2000/svg">
<g clip-path="url(#clip0_673_3478)">
<path d="M89.5733 17.7438C89.5784 17.7059 89.5758 17.6673 89.5655 17.6304C89.5551 17.5936 89.5374 17.5592 89.5134 17.5295C89.4893 17.4997 89.4595 17.4752 89.4256 17.4573C89.3918 17.4395 89.3546 17.4288 89.3165 17.4258H81.9783C81.8193 17.4258 81.7215 17.6092 81.7215 17.8416C81.7215 18.074 83.1769 18.7589 83.4459 19.0646C85.7208 21.1071 85.6474 24.7395 85.6229 27.9561V32.5425C85.6229 36.5785 84.9747 39.2324 81.4035 39.2324C77.8322 39.2324 78.5049 33.7533 78.5049 30.4021C78.5049 27.2834 78.5049 24.1891 78.5049 21.1071C78.5049 18.661 79.1286 18.8445 80.5718 18.233C80.641 18.1985 80.698 18.1437 80.7351 18.076C80.7723 18.0082 80.7879 17.9307 80.7797 17.8538C80.7834 17.8031 80.7761 17.7522 80.7583 17.7046C80.7405 17.6569 80.7127 17.6136 80.6768 17.5777C80.6408 17.5417 80.5975 17.5139 80.5499 17.4961C80.5022 17.4784 80.4513 17.4711 80.4006 17.4747H69.5523C69.5001 17.4694 69.4473 17.4754 69.3976 17.4922C69.3479 17.5091 69.3024 17.5364 69.2641 17.5723C69.2259 17.6083 69.1958 17.652 69.1759 17.7006C69.1559 17.7491 69.1467 17.8014 69.1487 17.8538C69.1461 17.9329 69.1667 18.0109 69.208 18.0783C69.2493 18.1457 69.3095 18.1995 69.3811 18.233C70.702 18.8078 71.3502 18.6488 71.448 20.9114C71.448 21.8654 71.448 22.856 71.448 23.81C71.448 26.2561 71.448 28.7021 71.448 31.1482C71.448 32.1388 71.448 33.0928 71.448 34.0835C71.6559 39.6605 75.8754 40.4555 79.2754 40.4555C90.1726 40.4555 84.5956 30.6712 87.1517 21.6575C87.4207 20.2816 88.1761 19.0486 89.2798 18.1841C89.3713 18.1559 89.4498 18.0962 89.5013 18.0156C89.5528 17.9349 89.574 17.8386 89.5611 17.7438" fill="#0D3F7A"/>
<path d="M115.313 38.7668C114.261 38.033 114.481 35.5135 114.481 34.1804C114.481 32.1013 114.481 29.9976 114.481 27.9063C114.481 27.4904 114.579 25.0688 114.212 25.0688C113.185 25.2609 112.175 25.5349 111.191 25.8883C109.858 26.1818 108.329 25.9616 107.033 26.4631C106.962 26.4779 106.9 26.5191 106.859 26.5782C106.819 26.6374 106.802 26.71 106.813 26.7811C106.813 27.0746 107.681 27.2947 107.865 27.417C108.904 28.1264 108.708 30.4502 108.708 31.7588C108.708 33.3854 109.063 37.9351 107.865 38.7668C107.545 38.8825 107.238 39.03 106.947 39.2071C106.635 39.04 106.312 38.8929 105.981 38.7668C105.015 38.0574 105.174 35.966 105.174 34.743C105.174 33.0797 105.174 31.4531 105.174 29.8509C105.174 27.6617 105.272 24.8242 102.997 24.8242C101.101 24.8242 98.4961 27.148 96.8817 28.4199C96.8817 27.9185 97.0285 25.0811 96.6493 25.0811C95.6217 25.2714 94.6114 25.5454 93.6284 25.9005C92.3076 26.194 90.7299 25.9739 89.4579 26.4753C89.3478 26.4753 89.25 26.5732 89.25 26.7933C89.25 27.0134 90.1061 27.307 90.3018 27.4293C91.3291 28.1386 91.1335 30.4624 91.1335 31.771C91.1335 33.3977 91.4759 37.9473 90.3018 38.779C90.1306 38.9013 89.25 39.1215 89.25 39.415C89.25 39.7085 89.4824 39.733 89.6291 39.733H106.752C106.792 39.7445 106.834 39.7445 106.874 39.733C106.906 39.7442 106.94 39.7442 106.972 39.733H116.181C116.22 39.7347 116.259 39.7283 116.296 39.7142C116.332 39.7 116.365 39.6785 116.393 39.6509C116.42 39.6233 116.442 39.5902 116.456 39.5538C116.47 39.5174 116.476 39.4785 116.475 39.4394C116.475 39.097 115.557 38.9013 115.362 38.779M99.4623 36.7732C99.4623 37.7884 99.34 39.0603 98.3616 39.0603C96.6371 39.0603 96.8939 36.3819 96.8939 34.7675V33.6178V29.3127C97.4321 28.9703 98.2637 28.2365 98.863 28.2365C99.4623 28.2365 99.3889 29.2149 99.4134 29.6919C99.4134 32.0523 99.4134 34.4128 99.4134 36.7732" fill="#0D3F7A"/>
<path d="M111.781 24.1398C113.261 24.1398 114.607 22.5499 114.607 20.5441C114.659 20.1031 114.622 19.6561 114.497 19.23C114.372 18.8038 114.162 18.4074 113.88 18.0646C113.597 17.7218 113.249 17.4396 112.854 17.2352C112.46 17.0307 112.029 16.9082 111.586 16.875C110.081 16.875 108.736 18.4649 108.736 20.5441C108.691 20.9819 108.734 21.4243 108.864 21.8448C108.994 22.2653 109.208 22.6552 109.492 22.9911C109.777 23.3269 110.126 23.6018 110.52 23.7992C110.913 23.9966 111.342 24.1125 111.781 24.1398Z" fill="#0D3F7A"/>
<path d="M142.126 29.1432C142.138 29.0754 142.125 29.0056 142.089 28.947C142.053 28.8884 141.996 28.8451 141.93 28.8252C140.475 28.2504 140.805 24.7769 135.705 24.7769C134.619 24.7409 133.536 24.9236 132.522 25.3141C131.508 25.7047 130.583 26.2951 129.801 27.0504C129.02 27.8057 128.398 28.7104 127.973 29.7107C127.548 30.711 127.328 31.7866 127.327 32.8734C127.321 33.5645 127.395 34.254 127.548 34.9281C127.378 35.4991 127.239 36.0789 127.132 36.6648C126.814 37.5943 126.288 38.1936 125.505 38.1936C123.255 38.1936 123.781 34.4022 123.781 32.3353C123.781 30.2684 123.781 28.3482 123.781 26.3424C124.282 26.3424 126.863 26.7583 126.863 25.9266C126.863 25.0949 124.282 25.4863 123.781 25.4863V18.7229C123.781 18.5579 123.72 18.3985 123.609 18.2763C123.498 18.1541 123.346 18.0778 123.181 18.0625C122.435 18.0625 122.362 18.9798 122.154 19.7503C120.735 24.6424 119.989 24.5568 116.381 25.4863C116.284 25.5206 116.2 25.5857 116.143 25.6717C116.085 25.7577 116.057 25.8601 116.063 25.9633C116.063 26.6237 117.665 26.3424 118.008 26.3424C118.008 28.9842 117.934 31.6259 118.008 34.2799C118.142 38.8907 119.757 40.0037 123.059 40.0037C125.101 40.0037 127.572 39.1109 127.866 36.0655C128.363 37.2664 129.215 38.2869 130.307 38.9906C131.4 39.6943 132.682 40.0478 133.981 40.0037C135.47 39.9992 136.928 39.5685 138.18 38.7622C139.433 37.956 140.429 36.8081 141.05 35.454C141.451 34.6294 141.762 33.7643 141.979 32.8734C141.979 32.7144 141.906 32.5554 141.784 32.5554C141.661 32.5554 139.9 35.6742 137.075 35.6742C135.302 35.6742 134.286 34.659 133.553 32.5799L141.93 29.4612L142.126 29.1432ZM133.455 31.9806C133.328 31.2124 133.263 30.4354 133.259 29.6568C133.259 28.1525 133.65 25.6086 135.13 25.6086C136.61 25.6086 136.659 27.0762 136.659 28.5072C136.659 31.3079 135.155 31.2835 133.455 31.9806Z" fill="#0D3F7A"/>
<path d="M159.196 38.7681C158.897 38.482 158.667 38.132 158.523 37.7444C158.379 37.3568 158.325 36.9416 158.364 36.53C158.364 35.1602 158.364 33.7904 158.364 32.4206C158.364 28.7515 158.462 25.168 158.462 21.4989C158.462 20.1658 158.462 18.7593 158.462 17.4262C158.462 17.2305 158.462 16.9492 158.242 16.9492C157.201 17.1334 156.181 17.4202 155.196 17.8053C154.241 18.0186 153.273 18.1657 152.298 18.2456C152.041 18.2456 150.818 18.2456 150.818 18.637C150.818 19.0284 151.674 19.1384 151.87 19.2974C152.873 19.9701 152.738 22.037 152.738 23.2845V26.5011C152.497 25.9482 152.086 25.4865 151.565 25.1831C151.044 24.8796 150.439 24.75 149.839 24.8133C146.476 24.8133 143.125 27.8342 143.125 32.6163C143.125 37.6796 146.097 39.9544 149.57 39.9544C151.698 39.9544 152.714 38.9393 153.044 36.1019C153.044 40.2113 153.313 39.771 156.37 39.771C157.593 39.771 158.816 39.771 160.113 39.771C160.151 39.771 160.189 39.7634 160.223 39.7485C160.258 39.7336 160.29 39.7118 160.316 39.6843C160.343 39.6569 160.363 39.6244 160.376 39.5889C160.39 39.5533 160.396 39.5154 160.394 39.4775C160.394 39.135 159.514 38.9393 159.318 38.817M150.965 38.658C149.044 38.658 149.338 35.2091 149.338 33.4601C149.338 31.4911 148.751 25.8529 150.965 25.8529C152.762 25.8529 152.518 29.1306 152.518 30.745C152.518 32.6163 153.068 38.707 150.965 38.707" fill="#0D3F7A"/>
<path d="M174.672 20.1916C174.625 19.8594 174.656 19.5209 174.762 19.2028C174.868 18.8846 175.047 18.5955 175.284 18.3583C175.522 18.1211 175.811 17.9423 176.129 17.836C176.447 17.7296 176.786 17.6987 177.118 17.7455C180.787 17.7455 182.915 23.3226 183.465 23.3226C183.796 23.3226 183.796 22.9679 183.796 22.6866C183.655 20.2281 183.386 17.7786 182.988 15.3484C182.988 15.1894 182.89 14.957 182.719 14.957C182.365 14.957 182.095 17.4031 180.273 17.4031C178.781 17.4031 177.326 16.7671 175.809 16.7671C172.238 16.7671 167.933 18.8096 167.933 24.4233C167.933 33.6939 178.377 30.9421 178.377 36.1766C178.434 36.6363 178.388 37.1029 178.24 37.542C178.093 37.9812 177.849 38.3816 177.526 38.7138C177.203 39.046 176.81 39.3015 176.375 39.4614C175.94 39.6213 175.475 39.6816 175.014 39.6378C171.969 39.6378 169.498 35.2349 168.349 31.896L168.116 31.737C167.774 31.737 167.823 32.2385 167.823 32.532C167.823 33.3514 168.544 41.5702 168.667 41.9249C168.684 41.9777 168.715 42.0254 168.756 42.0638C168.796 42.1021 168.845 42.13 168.899 42.145C169.425 41.986 169.217 40.0414 171.1 40.0414C172.519 40.0414 173.913 40.5184 175.344 40.5184C179.319 40.5184 185.129 38.7083 185.129 32.1162C185.129 23.0046 174.684 25.2305 174.684 20.2283" fill="#0D3F7A"/>
<path d="M201.116 37.0184C200.113 37.0184 200.284 34.9392 200.284 34.0831C200.284 32.5543 200.284 31.0255 200.284 29.5212C200.113 24.3967 196.309 24.7758 193.386 24.7758C191.686 24.7758 187.418 24.9104 187.418 28.1514C187.399 28.4422 187.445 28.7335 187.552 29.0044C187.66 29.2752 187.826 29.5189 188.039 29.7178C188.252 29.9167 188.506 30.0659 188.784 30.1545C189.061 30.2432 189.355 30.2692 189.644 30.2306C190.696 30.2306 192.714 29.778 192.714 27.9313C192.714 27.0996 191.943 26.7082 191.943 26.0845C191.943 25.4607 192.738 25.3507 193.093 25.3507C194.719 25.3507 194.512 27.9924 194.512 29.4967V31.1845C191.894 31.1845 186.391 31.05 186.391 35.9666C186.391 39.1465 188.922 39.9781 190.867 39.9781C192.812 39.9781 194.071 39.1098 194.744 36.627C194.692 37.063 194.736 37.505 194.872 37.9224C195.008 38.3398 195.234 38.7224 195.533 39.0437C195.832 39.3651 196.198 39.6173 196.604 39.7829C197.011 39.9485 197.449 40.0234 197.887 40.0026C198.976 39.9597 200.023 39.5682 200.873 38.8856C201.723 38.203 202.331 37.2655 202.608 36.2112V36.0277L202.412 35.7709C202.07 35.7709 201.911 36.9939 201.067 36.9939M193.142 37.3975C192.09 37.3975 191.919 35.8443 191.919 34.7558C191.919 32.1752 192.616 31.7593 194.438 31.7593C194.438 32.432 194.438 33.1047 194.438 33.7651C194.438 35.0493 194.438 37.4342 193.068 37.4342" fill="#0D3F7A"/>
<path d="M216.471 25.4884C215.676 25.4884 214.869 25.5496 214.025 25.5496C213.67 25.5496 211.028 25.4518 210.955 25.4884C210.894 25.5144 210.843 25.5595 210.81 25.6168C210.777 25.6742 210.764 25.7407 210.772 25.8064C210.772 25.9899 211.872 26.6626 212.141 27.2985C212.353 27.8903 212.448 28.5174 212.423 29.1453C212.326 31.3272 211.956 33.4885 211.322 35.5785C210.943 34.2453 209.047 28.4115 209.047 27.4942C209.047 25.892 210.197 26.4057 210.197 25.8064C210.197 25.2071 209.243 25.4518 208.974 25.4518H201.819C201.623 25.4518 201.195 25.3539 201.195 25.733C201.195 26.1122 201.281 26.0266 201.403 26.051C202.895 26.4057 203.103 27.7021 203.654 29.3043C204.131 30.6986 204.644 32.0684 205.097 33.4748C205.427 34.5633 207.151 40.8986 207.677 40.8986C207.971 40.8986 208.203 40.385 208.423 40.1648C209.524 38.8562 211.677 38.4403 213.071 38.0245L213.193 37.7799L213.046 37.5231C212.439 37.3044 211.934 36.8688 211.628 36.3C212.753 32.8022 213.976 27.4453 216.972 26.1366C217.048 26.1092 217.111 26.0562 217.151 25.9869C217.191 25.9177 217.206 25.8365 217.193 25.7575C217.193 25.3417 216.618 25.4762 216.398 25.4762" fill="#0D3F7A"/>
<path d="M222.977 24.1398C224.457 24.1398 225.802 22.5499 225.802 20.5441C225.854 20.1031 225.817 19.6561 225.692 19.23C225.567 18.8038 225.357 18.4074 225.075 18.0646C224.793 17.7218 224.444 17.4396 224.05 17.2352C223.655 17.0307 223.224 16.9082 222.781 16.875C221.277 16.875 219.931 18.4649 219.931 20.5441C219.886 20.9819 219.93 21.4243 220.06 21.8448C220.19 22.2653 220.403 22.6552 220.688 22.9911C220.972 23.3269 221.322 23.6018 221.715 23.7992C222.108 23.9966 222.538 24.1125 222.977 24.1398Z" fill="#0D3F7A"/>
<path d="M244.324 38.7702C243.309 38.0608 243.505 35.9939 243.505 34.7586C243.505 33.0953 243.505 31.4687 243.505 29.8665C243.505 27.6773 243.602 24.8398 241.328 24.8398C239.432 24.8398 236.827 27.1636 235.212 28.4356C235.212 27.9341 235.347 25.0967 234.968 25.0967C233.94 25.287 232.93 25.5611 231.947 25.9161C230.626 26.2096 229.048 25.9895 227.776 26.4909C227.666 26.4909 227.568 26.5888 227.568 26.8089C227.568 27.0291 228.425 27.3226 228.62 27.4449C229.648 28.1543 229.464 30.478 229.464 31.7867C229.464 33.4133 229.794 37.963 228.62 38.7946C228.461 38.9169 227.617 39.1371 227.568 39.4061C227.495 39.0882 226.676 38.9169 226.492 38.7946C225.428 38.0608 225.648 35.5414 225.648 34.2083C225.648 32.1291 225.648 30.0255 225.648 27.9341C225.648 27.5183 225.746 25.0967 225.379 25.0967C224.356 25.2871 223.349 25.5611 222.371 25.9161C221.025 26.2096 219.496 25.9895 218.2 26.4909C218.13 26.5057 218.068 26.547 218.027 26.6061C217.986 26.6652 217.969 26.7378 217.98 26.8089C217.98 27.1025 218.848 27.3226 219.044 27.4449C220.071 28.1543 219.876 30.478 219.876 31.7867C219.876 33.4133 220.23 37.963 219.044 38.7946C218.824 38.9169 217.98 39.1126 217.98 39.4551C217.98 39.7975 218.078 39.7486 218.2 39.7486H227.25C227.286 39.7502 227.321 39.7449 227.354 39.7329C227.388 39.7209 227.418 39.7024 227.444 39.6785C227.47 39.6547 227.492 39.6259 227.507 39.5938C227.522 39.5618 227.53 39.5271 227.532 39.4918C227.556 39.5691 227.605 39.6362 227.671 39.6827C227.738 39.7291 227.818 39.7523 227.899 39.7486H245.021C245.059 39.7488 245.096 39.7411 245.13 39.726C245.164 39.711 245.195 39.689 245.221 39.6613C245.246 39.6337 245.265 39.6011 245.277 39.5656C245.289 39.53 245.294 39.4924 245.29 39.4551C245.29 39.1126 244.373 38.9169 244.189 38.7946M237.622 36.7889C237.622 37.804 237.499 39.0759 236.521 39.0759C234.797 39.0759 235.066 36.3975 235.066 34.7831V33.6334V29.3284C235.591 28.9859 236.423 28.2521 237.022 28.2521C237.622 28.2521 237.548 29.2305 237.573 29.7075C237.573 32.068 237.573 34.4284 237.573 36.7889" fill="#0D3F7A"/>
<path d="M257.564 23.7988C258.249 23.7988 258.787 24.5571 259.741 24.5571C260.842 24.5571 261.368 23.5053 261.368 22.1111C261.368 20.9614 260.793 20.2031 259.937 20.2031C258.164 20.2031 256.439 23.1629 255.497 24.9118C252.672 24.655 246.043 24.4715 246.043 29.914C246.043 33.1306 248.648 33.8277 250.544 34.2802C248.624 34.5615 245.725 34.7572 245.725 38.1328C245.725 44.0889 256.512 39.3558 256.512 43.3184C256.512 45.8379 253.895 45.9969 252.513 45.9969C251.449 45.9969 247.951 45.9969 247.951 43.9666C247.943 43.641 248.049 43.3228 248.25 43.0662C248.45 42.8097 248.734 42.6309 249.052 42.5601C248.489 42.4032 247.911 42.3048 247.328 42.2666C247.094 42.2364 246.857 42.2573 246.632 42.3277C246.407 42.3982 246.201 42.5166 246.026 42.6747C245.852 42.8329 245.714 43.027 245.622 43.2438C245.53 43.4605 245.486 43.6946 245.493 43.9299C245.493 46.7062 250.715 46.8652 252.171 46.8652C255.4 46.8652 260.622 46.2537 260.622 40.5544C260.622 34.2802 250.642 38.6097 250.642 35.6622C250.642 34.8673 251.29 34.8061 251.743 34.7694C254.568 34.5126 260.304 34.9651 260.304 29.5104C260.304 26.514 257.931 25.3765 256.06 24.9852C256.476 24.3247 256.855 23.6888 257.552 23.6888M254.531 31.3327C254.531 32.5557 254.409 34.1701 253.186 34.1701C251.682 34.1701 251.755 32.568 251.755 31.0147V28.3485C251.755 27.0154 251.877 25.4132 253.161 25.4132C255.008 25.4132 254.531 29.7795 254.531 31.4428" fill="#0D3F7A"/>
<path d="M266.9 27.0171C266.889 26.8307 266.918 26.6442 266.984 26.4696C267.05 26.295 267.153 26.1363 267.284 26.0037C267.415 25.8711 267.573 25.7676 267.747 25.6999C267.921 25.6322 268.108 25.6018 268.294 25.6106C269.823 25.6106 270.74 27.3596 271.743 28.6682L271.939 28.7661C272.073 28.7661 272.147 28.6682 272.147 28.4725C272.147 27.8732 271.963 24.1797 271.523 24.1797C271.083 24.1797 271.168 25.0725 269.97 25.0725C268.771 25.0725 267.524 24.779 266.3 24.779C264.062 24.779 261.078 26.002 261.078 29.6711C261.078 34.6733 267.511 34.6733 267.511 37.315C267.536 37.5574 267.513 37.8024 267.442 38.0354C267.371 38.2685 267.254 38.4849 267.097 38.672C266.941 38.859 266.749 39.0127 266.532 39.1242C266.316 39.2356 266.079 39.3025 265.836 39.3208C263.28 39.3208 262.008 34.71 261.384 34.71C261.139 34.71 261.115 35.028 261.115 35.2481C261.115 35.9819 261.482 40.1402 261.836 40.1402C262.191 40.1402 262.289 39.4064 263.157 39.4064C264.38 39.4064 265.603 40.0057 266.912 40.0057C269.688 40.0057 273.027 38.9294 273.027 34.4409C273.027 28.8884 266.912 29.5488 266.912 27.0171" fill="#0D3F7A"/>
<path d="M293.987 27.4915C296.433 27.4182 300.285 26.6232 300.285 22.4282C300.285 17.5361 294.855 17.426 292.238 17.426H280.717C280.662 17.4242 280.608 17.4338 280.557 17.4542C280.507 17.4746 280.461 17.5054 280.423 17.5446C280.385 17.5837 280.356 17.6304 280.337 17.6816C280.318 17.7328 280.31 17.7874 280.313 17.8418C280.31 17.918 280.332 17.993 280.377 18.0551C280.421 18.1171 280.485 18.1626 280.558 18.1843C281.915 18.698 282.515 18.6368 282.613 20.826C282.686 22.5505 282.613 24.275 282.613 25.9872C282.613 29.375 282.613 32.7506 282.613 36.0895C282.613 38.3154 281.915 38.4499 280.558 38.9514C280.485 38.9861 280.425 39.0423 280.386 39.1123C280.347 39.1823 280.33 39.2628 280.338 39.3427C280.336 39.393 280.345 39.443 280.363 39.4898C280.382 39.5366 280.409 39.5791 280.445 39.6146C280.481 39.6502 280.523 39.678 280.57 39.6965C280.617 39.7149 280.667 39.7236 280.717 39.7219H294.036C297.252 39.7219 300.934 38.4988 300.934 33.2887C300.934 28.0786 296.812 27.993 293.987 27.4915ZM291.614 38.9514C289.241 38.9514 289.731 35.7959 289.731 33.5456C289.731 31.6988 289.731 29.8765 289.731 28.0297H290.562C290.843 28.0109 291.125 28.0109 291.406 28.0297C293.363 28.1887 293.363 30.1333 293.387 32.2247V35.8938C293.387 37.7161 293.155 38.9514 291.565 38.9514M293.522 23.1253C293.522 26.0239 293.143 27.2347 290.868 27.1736H289.816V21.3152C289.816 19.4685 290 18.221 291.639 18.221C293.889 18.221 293.546 20.9361 293.546 23.1131" fill="#0D3F7A"/>
<path d="M316.936 37.0184C315.933 37.0184 316.105 34.9392 316.105 34.0831C316.105 32.5543 316.105 31.0255 316.105 29.5212C315.933 24.3967 312.13 24.7758 309.207 24.7758C307.507 24.7758 303.238 24.9104 303.238 28.1514C303.219 28.4422 303.265 28.7335 303.373 29.0044C303.48 29.2752 303.646 29.5189 303.859 29.7178C304.072 29.9167 304.326 30.0659 304.604 30.1545C304.882 30.2432 305.175 30.2692 305.464 30.2306C306.516 30.2306 308.534 29.778 308.534 27.9313C308.534 27.0996 307.763 26.7082 307.763 26.0845C307.763 25.4607 308.558 25.3507 308.913 25.3507C310.54 25.3507 310.332 27.9924 310.332 29.4967V31.1845C307.715 31.1845 302.211 31.05 302.211 35.9666C302.211 39.1465 304.755 39.9781 306.687 39.9781C308.62 39.9781 309.904 39.1098 310.564 36.627C310.512 37.063 310.556 37.505 310.692 37.9224C310.828 38.3398 311.054 38.7224 311.353 39.0437C311.652 39.3651 312.018 39.6173 312.424 39.7829C312.831 39.9485 313.269 40.0234 313.707 40.0026C314.797 39.9597 315.843 39.5682 316.693 38.8856C317.543 38.203 318.151 37.2655 318.428 36.2112V36.0277L318.233 35.7709C317.902 35.7709 317.731 36.9939 316.887 36.9939M308.962 37.3975C307.91 37.3975 307.739 35.8443 307.739 34.7558C307.739 32.1752 308.436 31.7593 310.258 31.7593C310.258 32.432 310.258 33.1047 310.258 33.7651C310.258 35.0493 310.258 37.4342 308.889 37.4342" fill="#0D3F7A"/>
<path d="M335.693 38.7702C334.69 38.0608 334.874 35.9939 334.874 34.7586C334.874 33.0953 334.874 31.4687 334.874 29.8665C334.874 27.6773 334.971 24.8398 332.697 24.8398C330.801 24.8398 328.196 27.1636 326.581 28.4356C326.581 27.9341 326.716 25.0967 326.337 25.0967C325.31 25.2887 324.299 25.5627 323.316 25.9161C321.995 26.2096 320.417 25.9895 319.145 26.4909C319.035 26.4909 318.938 26.5888 318.938 26.8089C318.938 27.0291 319.794 27.3226 319.989 27.4449C321.017 28.1543 320.833 30.478 320.833 31.7867C320.833 33.4133 321.163 37.963 319.989 38.7946C319.818 38.9169 318.938 39.1371 318.938 39.4306C318.941 39.4768 318.953 39.5218 318.974 39.563C318.995 39.6043 319.024 39.6409 319.059 39.6706C319.095 39.7003 319.136 39.7225 319.18 39.7359C319.224 39.7493 319.271 39.7537 319.317 39.7486H336.439C336.477 39.7488 336.514 39.7411 336.548 39.726C336.582 39.711 336.613 39.689 336.639 39.6613C336.664 39.6337 336.683 39.6011 336.695 39.5656C336.707 39.53 336.712 39.4924 336.708 39.4551C336.708 39.1126 335.791 38.9169 335.607 38.7946M329.04 36.7889C329.04 37.804 328.917 39.0759 327.939 39.0759C326.215 39.0759 326.484 36.3975 326.484 34.7831V33.6334V29.3284C327.01 28.9859 327.841 28.2521 328.44 28.2521C329.04 28.2521 328.966 29.2305 328.991 29.7075C328.991 32.068 328.991 34.4284 328.991 36.7889" fill="#0D3F7A"/>
<path d="M355.902 39.1472C355.156 38.7681 354.911 38.7681 354.41 37.9242C353.469 36.0965 352.739 34.1681 352.233 32.176C352.233 31.54 352.526 31.1853 352.526 30.8062C352.526 30.427 352.428 30.3536 352.257 30.3536C351.376 30.3536 350.056 31.2465 348.833 31.2465C348.446 31.2482 348.06 31.2071 347.683 31.1242C348.048 30.6757 348.457 30.2659 348.906 29.9011C350.961 27.8709 351.707 27.0025 354.251 26.1097C354.32 26.0753 354.377 26.0205 354.414 25.9527C354.451 25.8849 354.467 25.8074 354.458 25.7306C354.458 25.3148 353.627 25.4126 353.407 25.4126C351.535 25.4126 349.738 25.4126 347.854 25.4126C347.585 25.4126 346.778 25.3514 346.778 25.8284C346.778 26.3054 347.927 26.3054 347.927 27.9076C347.927 29.7544 346.313 31.9803 345.481 33.2889C345.481 29.7788 345.481 26.2443 345.481 22.7464C345.481 20.9852 345.481 19.1751 345.481 17.4262C345.481 17.2305 345.481 16.9492 345.261 16.9492C344.224 17.1319 343.208 17.4187 342.228 17.8053C340.858 18.1233 339.427 18.001 338.058 18.3435C337.991 18.3555 337.931 18.3924 337.89 18.4469C337.849 18.5014 337.83 18.5693 337.837 18.637C337.837 18.9795 338.706 19.1384 338.889 19.2974C339.183 19.5713 339.409 19.9089 339.551 20.2843C339.693 20.6597 339.747 21.0627 339.709 21.4622C339.709 23.0888 339.709 24.691 339.709 26.3543C339.709 29.5098 339.709 32.7019 339.709 35.8817C339.709 36.9336 339.709 38.2422 338.889 38.817C338.681 38.9393 337.837 39.135 337.837 39.4775C337.837 39.8199 337.935 39.771 338.058 39.771H346.619C346.656 39.7694 346.692 39.7606 346.726 39.745C346.759 39.7294 346.789 39.7073 346.814 39.68C346.839 39.6528 346.859 39.6208 346.871 39.5861C346.884 39.5513 346.89 39.5144 346.888 39.4775C346.888 39.2329 346.24 38.976 346.093 38.8415C345.445 38.3034 345.518 36.9947 345.518 36.1386V34.463L346.668 32.7141C347.444 34.4476 348.014 36.266 348.368 38.1321C348.368 39.2695 347.34 38.8659 347.34 39.4652C347.354 39.5243 347.382 39.579 347.423 39.6239C347.464 39.6689 347.515 39.7027 347.573 39.7221H355.865C355.903 39.724 355.942 39.7176 355.978 39.7034C356.014 39.6891 356.046 39.6673 356.073 39.6395C356.099 39.6117 356.12 39.5784 356.132 39.542C356.145 39.5056 356.15 39.4669 356.146 39.4285L355.902 39.1472Z" fill="#0D3F7A"/>
<path d="M28.0518 0.5H19.1481C19.1254 0.5 19.1036 0.50902 19.0876 0.525075C19.0715 0.541131 19.0625 0.562906 19.0625 0.585612V12.6447C19.0625 12.7181 20.7258 20.1419 28.0396 20.1419C28.0603 20.1421 28.0804 20.1348 28.0961 20.1213C28.1119 20.1078 28.1222 20.089 28.1252 20.0685V0.585612C28.1254 0.564875 28.1181 0.544765 28.1046 0.529019C28.0911 0.513273 28.0723 0.502962 28.0518 0.5Z" fill="#0D3F7A"/>
<path d="M28.9249 20.1419C36.2631 20.1419 37.8898 12.7181 37.9142 12.6202V0.585612C37.9142 0.562906 37.9052 0.541131 37.8892 0.525075C37.8731 0.50902 37.8513 0.5 37.8286 0.5H28.9249C28.9044 0.502962 28.8857 0.513273 28.8722 0.529019C28.8587 0.544765 28.8514 0.564875 28.8516 0.585612V20.0685C28.8514 20.0892 28.8587 20.1094 28.8722 20.1251C28.8857 20.1408 28.9044 20.1512 28.9249 20.1541" fill="#0D3F7A"/>
<path d="M23.8323 33.7536C23.8254 33.7458 23.8169 33.7395 23.8074 33.7352C23.798 33.731 23.7877 33.7287 23.7773 33.7287C23.7668 33.7287 23.7566 33.731 23.7471 33.7352C23.7376 33.7395 23.7291 33.7458 23.7222 33.7536L13.1797 50.1544L20.6646 54.9732C20.6739 54.9785 20.6845 54.9814 20.6952 54.9814C20.7059 54.9814 20.7165 54.9785 20.7258 54.9732L27.2568 44.822C27.2568 44.7609 29.9108 37.6184 23.7589 33.668" fill="#0D3F7A"/>
<path d="M23.0985 33.2756C16.9833 29.313 11.5408 34.6699 11.4797 34.731L4.96094 44.8577L12.4704 49.7866H12.5437L23.074 33.4102C23.087 33.3947 23.0941 33.3753 23.0941 33.3551C23.0941 33.335 23.087 33.3155 23.074 33.3001" fill="#0D3F7A"/>
<path d="M32.6023 33.7778C32.5869 33.7649 32.5674 33.7578 32.5472 33.7578C32.5271 33.7578 32.5076 33.7649 32.4922 33.7778C26.377 37.7282 28.9699 44.8707 29.0066 44.9564L35.5253 55.0831C35.5346 55.0884 35.5452 55.0913 35.5559 55.0913C35.5666 55.0913 35.5772 55.0884 35.5865 55.0831L43.0714 50.2643L32.6023 33.7778Z" fill="#0D3F7A"/>
<path d="M44.8297 34.7464C44.8297 34.7464 39.3628 29.3406 33.2232 33.3033C33.2102 33.3187 33.2031 33.3382 33.2031 33.3583C33.2031 33.3784 33.2102 33.3979 33.2232 33.4133L43.7535 49.7897C43.7628 49.7951 43.7733 49.7979 43.784 49.7979C43.7948 49.7979 43.8053 49.7951 43.8146 49.7897L51.3607 44.9832C51.3746 44.9659 51.3822 44.9443 51.3822 44.9221C51.3822 44.8998 51.3746 44.8783 51.3607 44.8609L44.8297 34.7464Z" fill="#0D3F7A"/>
<path d="M35.2334 24.7512H35.2945L54.0559 19.4432C54.0623 19.4321 54.0657 19.4194 54.0657 19.4066C54.0657 19.3937 54.0623 19.381 54.0559 19.3699L51.6098 10.8086C51.604 10.7881 51.5908 10.7704 51.5727 10.7591C51.5546 10.7478 51.5329 10.7437 51.5119 10.7475L39.9176 14.0741C39.8442 14.0741 33.1665 17.7432 35.1845 24.7757" fill="#0D3F7A"/>
<path d="M54.3122 20.1289L35.5264 25.498C35.5154 25.4992 35.5048 25.5029 35.4953 25.5088C35.4859 25.5147 35.478 25.5227 35.4721 25.5321C35.4662 25.5415 35.4625 25.5521 35.4614 25.5632C35.4602 25.5742 35.4615 25.5854 35.4653 25.5959C37.2387 31.711 43.3049 32.1635 44.8215 32.1635H45.1762L56.746 28.8491C56.7666 28.8434 56.7843 28.8302 56.7956 28.8121C56.8069 28.794 56.811 28.7723 56.8072 28.7513L54.3611 20.1901" fill="#0D3F7A"/>
<path d="M11.9705 31.882C13.4626 31.882 19.5533 31.5029 21.3266 25.3143V25.2532L2.55311 19.8474C2.53876 19.8374 2.52169 19.832 2.50419 19.832C2.4867 19.832 2.46963 19.8374 2.45527 19.8474L0.00920845 28.4086C0.00537 28.4296 0.0095133 28.4513 0.0208259 28.4694C0.0321386 28.4875 0.0498046 28.5007 0.07036 28.5064L11.6647 31.8331H11.9827" fill="#0D3F7A"/>
<path d="M2.75 19.165L21.4746 24.5341C21.4858 24.5406 21.4984 24.544 21.5113 24.544C21.5242 24.544 21.5368 24.5406 21.548 24.5341C23.566 17.5139 16.8882 13.8693 16.8026 13.8326L5.24498 10.457L2.79892 19.0183C2.78893 19.0326 2.78357 19.0497 2.78357 19.0672C2.78357 19.0847 2.78893 19.1017 2.79892 19.1161" fill="#0D3F7A"/>
<path d="M300.95 46.4002L301.011 49.311H300.755C300.663 48.6352 300.338 48.0125 299.837 47.5498C299.414 47.1371 298.85 46.901 298.26 46.8894C297.882 46.8665 297.51 46.989 297.22 47.2319C297.102 47.3304 297.006 47.4538 296.941 47.5933C296.875 47.7328 296.841 47.8849 296.841 48.0391C296.839 48.2193 296.885 48.3967 296.975 48.5527C297.133 48.7907 297.337 48.9945 297.575 49.152C298.024 49.429 298.489 49.6781 298.969 49.8981C299.746 50.2205 300.447 50.704 301.024 51.3168C301.372 51.7491 301.559 52.2901 301.55 52.8456C301.553 53.2 301.479 53.5509 301.333 53.874C301.188 54.1971 300.973 54.4847 300.706 54.7168C300.114 55.2498 299.337 55.5306 298.541 55.4996C298.281 55.5027 298.023 55.4739 297.77 55.4139C297.455 55.3386 297.148 55.2321 296.853 55.0959C296.691 55.0228 296.517 54.9813 296.339 54.9736C296.209 54.9761 296.084 55.0236 295.985 55.1082C295.852 55.2088 295.751 55.3443 295.691 55.4996H295.447V52.2096H295.691C295.814 53.0119 296.191 53.7535 296.767 54.3254C297.241 54.7746 297.864 55.0318 298.516 55.047C298.936 55.0699 299.348 54.9296 299.666 54.6557C299.873 54.4712 300.011 54.2218 300.058 53.9485C300.105 53.6751 300.057 53.3941 299.923 53.1513C299.787 52.9416 299.618 52.7556 299.421 52.601C299.035 52.3394 298.626 52.1142 298.198 51.9283C297.603 51.6503 297.034 51.3187 296.498 50.9376C296.175 50.6874 295.905 50.3756 295.703 50.0204C295.518 49.6789 295.421 49.2961 295.422 48.9074C295.417 48.5741 295.484 48.2435 295.616 47.9377C295.749 47.632 295.946 47.358 296.193 47.134C296.447 46.889 296.748 46.6978 297.078 46.5717C297.408 46.4456 297.76 46.3873 298.113 46.4002C298.39 46.3999 298.665 46.4369 298.932 46.5103C299.185 46.5805 299.431 46.6747 299.666 46.7916C299.853 46.9023 300.062 46.9731 300.278 46.9995C300.325 47.0011 300.372 46.9932 300.416 46.9764C300.46 46.9596 300.5 46.9342 300.534 46.9016C300.629 46.7486 300.691 46.578 300.718 46.4002H300.95Z" fill="#0D3F7A"/>
<path d="M304.875 49.2973V54.0549C304.844 54.3365 304.895 54.6211 305.022 54.8743C305.183 55.0182 305.394 55.0929 305.609 55.0822V55.3024H302.344V55.0822C302.454 55.0859 302.564 55.0672 302.667 55.0273C302.77 54.9873 302.864 54.927 302.943 54.8499C303.062 54.6028 303.108 54.3273 303.078 54.0549V50.5448C303.113 50.2617 303.057 49.9747 302.919 49.7254C302.841 49.6549 302.751 49.6011 302.652 49.5675C302.553 49.5338 302.448 49.5209 302.344 49.5297V49.2973H304.875ZM303.97 46.3987C304.137 46.3948 304.302 46.4325 304.45 46.5083C304.599 46.5841 304.726 46.6957 304.82 46.8329C304.915 46.9702 304.973 47.1288 304.991 47.2945C305.009 47.4602 304.985 47.6277 304.922 47.7818C304.859 47.936 304.758 48.072 304.629 48.1775C304.5 48.283 304.347 48.3547 304.183 48.3862C304.02 48.4176 303.851 48.4078 303.692 48.3576C303.533 48.3074 303.389 48.2185 303.273 48.0987C303.092 47.9097 302.99 47.6577 302.99 47.3955C302.99 47.1333 303.092 46.8813 303.273 46.6922C303.363 46.5984 303.472 46.5239 303.591 46.4734C303.711 46.423 303.84 46.3975 303.97 46.3987Z" fill="#0D3F7A"/>
<path d="M308.626 49.3009V50.0714C308.884 49.7855 309.185 49.542 309.519 49.3498C309.798 49.2042 310.109 49.1287 310.424 49.1297C310.777 49.1184 311.123 49.2309 311.402 49.4477C311.645 49.6618 311.819 49.9425 311.903 50.2549C311.997 50.7176 312.034 51.1898 312.014 51.6614V54.0096C311.982 54.3007 312.024 54.5951 312.136 54.8657C312.277 55.0026 312.465 55.0812 312.662 55.0858V55.306H309.616V55.0858C309.714 55.0789 309.808 55.0499 309.893 55.0012C309.978 54.9525 310.051 54.8853 310.106 54.8045C310.203 54.5516 310.241 54.2795 310.216 54.0096V51.3311C310.228 51.02 310.207 50.7085 310.155 50.4016C310.124 50.2812 310.055 50.174 309.959 50.0959C309.869 50.0343 309.762 50.0003 309.653 49.998C309.286 49.998 308.944 50.2549 308.626 50.7808V54.0096C308.602 54.2965 308.644 54.5851 308.748 54.8535C308.808 54.922 308.881 54.9778 308.963 55.0177C309.045 55.0576 309.134 55.0808 309.225 55.0858V55.306H306.18V55.0858C306.281 55.0839 306.381 55.0612 306.474 55.0191C306.567 54.977 306.65 54.9165 306.718 54.8412C306.819 54.5765 306.857 54.2916 306.828 54.0096V50.6462C306.86 50.3591 306.818 50.0685 306.706 49.8023C306.639 49.73 306.557 49.6729 306.467 49.6349C306.376 49.597 306.278 49.579 306.18 49.5822V49.3009H308.626Z" fill="#0D3F7A"/>
<path d="M318.379 53.7493L318.574 53.9083C318.336 54.4008 317.974 54.8225 317.522 55.1313C317.118 55.3808 316.652 55.5122 316.177 55.5104C315.811 55.5234 315.447 55.4492 315.116 55.294C314.784 55.1388 314.494 54.9069 314.269 54.6176C313.786 53.996 313.532 53.2275 313.548 52.4406C313.535 51.6695 313.762 50.9134 314.196 50.2759C314.434 49.9208 314.759 49.6323 315.14 49.4376C315.521 49.2429 315.945 49.1484 316.373 49.1629C316.906 49.1365 317.431 49.3013 317.853 49.6277C318.017 49.7505 318.152 49.9088 318.248 50.0908C318.343 50.2729 318.396 50.4741 318.403 50.6795C318.408 50.7853 318.391 50.8909 318.353 50.9898C318.315 51.0887 318.257 51.1787 318.183 51.2543C318.105 51.3289 318.013 51.3868 317.912 51.4247C317.811 51.4625 317.703 51.4795 317.596 51.4744C317.364 51.477 317.14 51.3892 316.972 51.2298C316.775 50.9694 316.667 50.6517 316.666 50.3248C316.665 50.1228 316.601 49.9263 316.483 49.7622C316.442 49.7113 316.389 49.6705 316.33 49.6429C316.271 49.6153 316.206 49.6018 316.14 49.6032C316.032 49.6075 315.926 49.6403 315.833 49.6982C315.741 49.7561 315.666 49.8372 315.614 49.9334C315.362 50.3925 315.247 50.9149 315.284 51.4377C315.279 51.9984 315.366 52.5561 315.541 53.0888C315.678 53.5339 315.937 53.932 316.287 54.2385C316.525 54.4208 316.819 54.5158 317.119 54.5076C317.322 54.5064 317.522 54.4605 317.706 54.373C317.959 54.2226 318.186 54.0327 318.379 53.8104" fill="#0D3F7A"/>
<path d="M324.404 52.0745H321.114C321.122 52.7575 321.345 53.4208 321.75 53.9703C321.874 54.1357 322.035 54.2703 322.219 54.3636C322.404 54.457 322.608 54.5065 322.814 54.5084C323.064 54.5078 323.307 54.431 323.511 54.2882C323.782 54.0759 324.01 53.8145 324.184 53.5177L324.404 53.6523C324.162 54.2034 323.794 54.6896 323.328 55.071C322.924 55.3444 322.446 55.4855 321.958 55.4746C321.562 55.4983 321.167 55.4168 320.813 55.2386C320.458 55.0603 320.157 54.7915 319.94 54.4595C319.558 53.8439 319.366 53.129 319.39 52.4048C319.333 51.5158 319.622 50.6392 320.197 49.9587C320.434 49.6839 320.726 49.463 321.055 49.3111C321.385 49.1592 321.742 49.0797 322.105 49.0781C322.407 49.0782 322.705 49.1452 322.978 49.2742C323.25 49.4032 323.491 49.591 323.683 49.8242C324.178 50.4484 324.434 51.2292 324.404 52.0256M322.876 51.6587C322.894 51.1831 322.857 50.707 322.765 50.24C322.716 50.0166 322.596 49.815 322.423 49.6652C322.32 49.5804 322.189 49.5368 322.056 49.5429C321.945 49.5438 321.836 49.575 321.741 49.6332C321.646 49.6914 321.569 49.7743 321.518 49.8731C321.238 50.3451 321.105 50.8905 321.139 51.4386V51.6587H322.876Z" fill="#0D3F7A"/>
<path d="M332.285 46.4258V53.5438C332.268 53.888 332.293 54.2329 332.359 54.5712C332.412 54.7233 332.515 54.8527 332.652 54.9381C332.875 55.0525 333.124 55.1033 333.374 55.0848H333.569V55.305H328.995V55.0848H329.228C329.496 55.1029 329.764 55.0568 330.01 54.9503C330.159 54.8745 330.276 54.749 330.341 54.5956C330.407 54.2492 330.431 53.8961 330.414 53.5438V49.0308C330.445 48.779 330.445 48.5244 330.414 48.2726C330.374 48.16 330.296 48.0649 330.194 48.0035C330.087 47.9386 329.964 47.9047 329.839 47.9056C329.564 47.9162 329.293 47.9828 329.044 48.1013L328.922 47.8812L332.126 46.4258H332.285Z" fill="#0D3F7A"/>
<path d="M334.977 55.5369V55.3656C335.622 55.2336 336.238 54.9893 336.799 54.644C337.298 54.3397 337.718 53.9203 338.022 53.421C338.325 52.9257 338.532 52.3781 338.633 51.8066C338.419 51.9183 338.193 52.0084 337.961 52.0757C337.767 52.1349 337.564 52.1638 337.361 52.1613C337.052 52.1666 336.744 52.1061 336.46 51.9838C336.175 51.8616 335.92 51.6803 335.71 51.4519C335.248 50.9132 335.011 50.2165 335.05 49.5073C335.038 48.9643 335.16 48.4267 335.405 47.9418C335.627 47.4798 335.98 47.0929 336.42 46.8289C336.833 46.5772 337.306 46.4419 337.79 46.4375C338.304 46.4365 338.807 46.5898 339.233 46.8778C339.705 47.1729 340.083 47.5974 340.321 48.1008C340.599 48.6891 340.737 49.3338 340.725 49.9843C340.724 50.9002 340.501 51.8023 340.077 52.6138C339.63 53.463 338.946 54.1641 338.108 54.6318C337.167 55.1633 336.106 55.4454 335.025 55.4512M338.695 51.2318C338.695 50.7548 338.695 50.339 338.695 50.0088C338.703 49.2783 338.613 48.5501 338.425 47.844C338.357 47.5293 338.2 47.2407 337.973 47.0123C337.85 46.9189 337.699 46.8713 337.545 46.8778C337.447 46.8736 337.349 46.8965 337.263 46.9439C337.176 46.9914 337.105 47.0616 337.056 47.1469C336.844 47.5968 336.755 48.0947 336.799 48.59C336.729 49.4286 336.876 50.2711 337.227 51.0361C337.301 51.1692 337.409 51.2802 337.54 51.3576C337.671 51.435 337.821 51.476 337.973 51.4764C338.21 51.4566 338.439 51.3857 338.646 51.2685" fill="#0D3F7A"/>
<path d="M345.434 46.4258V53.5438C345.417 53.888 345.441 54.2329 345.507 54.5712C345.556 54.7259 345.66 54.8568 345.801 54.9381C346.019 55.0515 346.264 55.1023 346.51 55.0848H346.718V55.305H342.131V55.0848H342.364C342.636 55.1025 342.908 55.0565 343.159 54.9503C343.307 54.8777 343.421 54.7506 343.477 54.5956C343.556 54.251 343.585 53.8967 343.562 53.5438V49.0308C343.593 48.779 343.593 48.5244 343.562 48.2726C343.518 48.1627 343.441 48.0689 343.342 48.0035C343.234 47.9413 343.112 47.9076 342.988 47.9056C342.708 47.9172 342.434 47.9837 342.18 48.1013L342.07 47.8812L345.275 46.4258H345.434Z" fill="#0D3F7A"/>
<path d="M353.156 55.3053H348.031V55.1708C349.1 53.9994 350.062 52.7346 350.905 51.3916C351.222 50.8089 351.394 50.1588 351.407 49.4959C351.413 49.2912 351.378 49.0874 351.305 48.8963C351.231 48.7052 351.12 48.5307 350.979 48.3829C350.854 48.237 350.698 48.1206 350.522 48.0424C350.347 47.9641 350.156 47.9259 349.964 47.9304C349.639 47.9312 349.321 48.0249 349.048 48.2004C348.775 48.376 348.558 48.626 348.423 48.9211L348.19 48.8355C348.355 48.1384 348.721 47.5049 349.242 47.0131C349.695 46.6259 350.273 46.4172 350.869 46.4261C351.296 46.4194 351.718 46.5248 352.092 46.7318C352.448 46.9313 352.743 47.2228 352.948 47.5757C353.131 47.8795 353.236 48.2241 353.254 48.5786C353.241 49.1882 353.077 49.785 352.777 50.3153C351.984 51.5393 351.035 52.6537 349.951 53.6297H351.823C352.124 53.6614 352.427 53.6614 352.728 53.6297C352.857 53.5948 352.975 53.5274 353.07 53.4341C353.211 53.2571 353.33 53.0642 353.425 52.8592H353.657L353.156 55.3053Z" fill="#0D3F7A"/>
</g>
<defs>
<clipPath id="clip0_673_3478">
<rect width="356" height="56" fill="white"/>
</clipPath>
</defs>
</svg>
