<svg xmlns:xlink="http://www.w3.org/1999/xlink" xmlns="http://www.w3.org/2000/svg" id="Layer_1" data-name="Layer 1" width="190" height="50" viewBox="0 0 190 50"><defs><style>.cls-1{fill:#0064b3;}.cls-1,.cls-2{fill-rule:evenodd;}</style></defs><title>logo</title><path class="cls-1" d="M21.91,9.23C19.16,5.73,10.56,5.27,8.32,8.7c-2.25,3.43,1.98,6,1.98,6-1.59,1.19-2.97,4.89-2.97,4.89a9.33242,9.33242,0,0,1-5.28-7.53A9.478,9.478,0,0,1,9.31,2.3c6.14-1.78,12.6.92,12.6.92ZM42.44,42.41s4.88-.39,6.6-2.57V0H0V28.16a20.76713,20.76713,0,0,0,11.35,3.63c6.8.13,7.2-5.01,6.47-6.33-.72-1.32-2.51-2.25-1.25-4.49,1.25-2.24,3.1-1.45,4.29-.33a8.413,8.413,0,0,1,2.7,7.79c-.79,3.89-4.55,7.85-10.56,8.31C7,37.2,0,34.3,0,34.3V50H49.04V47.76H30.16V40.1s-.39,5.35-7.26,7.33c-6.86,1.98-15.37-1.59-15.37-1.59V39.18s7.26,5.21,12.87,3.5c5.61-1.72,4.48-6.53,1.45-8.45a8.32618,8.32618,0,0,0,3.1-4.42s4.88,2.97,5.02,6.4V20.44a13.3196,13.3196,0,0,0-7.61-2.96c-4.31-.16-7.12,1.11-7.9,4.61-.51,2.25,2.04,3.5,1.84,4.95-.19,1.45-1.25,2.77-3.56,3.04A9.229,9.229,0,0,1,9.77,18.27c3.5-7.59,14.78-5.74,16.57-5.22a18.42191,18.42191,0,0,1,3.63,1.65V6.19h5.67V42.41Z"/><path class="cls-2" d="M172.25,39.95h2.01V32.11h.03l4.01,7.84h2.57V29.47h-2.01v7.84h-.03l-4-7.84h-2.58Zm-4.76-4.05h-3.06l1.51-4.33h.03Zm-6.76,4.05h2.18l.92-2.4h4.25l.9,2.4h2.32l-4.11-10.48h-2.37Zm-8.62-5.27c0-1.85.86-3.74,2.94-3.74,2.09,0,2.95,1.89,2.95,3.74,0,1.89-.8,3.8-2.95,3.8C152.91,38.48,152.11,36.57,152.11,34.68Zm-2.19,0c0,3.21,1.77,5.45,5.13,5.45,3.32,0,5.14-2.28,5.14-5.45s-1.85-5.39-5.14-5.39C151.72,29.29,149.92,31.47,149.92,34.68Zm-7,5.27h6.17V38.3h-4.07V29.47h-2.1Zm-11.58-6.59c-.4-.41-.99-.9-.99-1.49a1.10293,1.10293,0,0,1,1.2-1.11,1.06421,1.06421,0,0,1,1.16,1.08C132.71,32.46,131.87,33.09,131.34,33.36Zm1.86,4.58a2.55562,2.55562,0,0,1-1.83.63,1.6342,1.6342,0,0,1-1.77-1.55,1.95128,1.95128,0,0,1,1.28-1.68Zm-.69-3.5c1.14-.66,2.03-1.34,2.03-2.78,0-1.69-1.55-2.37-3.02-2.37s-3.18.8-3.18,2.39c0,1.2.64,1.75,1.45,2.52-1.66.71-2.2,1.62-2.2,2.88,0,1.97,1.66,3.05,3.74,3.05a4.02859,4.02859,0,0,0,2.85-1.11l.71.93h2.58l-1.88-2.1a5.94287,5.94287,0,0,0,1.34-3.59H135.1a3.67283,3.67283,0,0,1-.66,2.28ZM121.2,29.67a7.71036,7.71036,0,0,0-2.5-.38c-1.85,0-3.67.86-3.67,3.2,0,3.47,4.6,2.64,4.6,4.64,0,.94-1.07,1.35-1.86,1.35a5.08327,5.08327,0,0,1-2.38-.65l-.19,1.89a9.01844,9.01844,0,0,0,2.69.41c2.11,0,3.93-.87,3.93-3.17,0-3.51-4.6-2.75-4.6-4.56a1.46894,1.46894,0,0,1,1.66-1.46,5.53139,5.53139,0,0,1,2.13.45Zm-8.04.06a10.43623,10.43623,0,0,0-3.08-.44c-3.56,0-5.76,2.01-5.76,5.6,0,3.54,2.36,5.24,5.76,5.24a13.243,13.243,0,0,0,3.39-.54V33.94h-4.23V35.6h2.22v2.73a5.68166,5.68166,0,0,1-1.38.15,3.45468,3.45468,0,0,1-3.56-3.74,3.56777,3.56777,0,0,1,3.8-3.8,6.77183,6.77183,0,0,1,2.7.56ZM94.19,39.95H96.2V32.11h.03l4.01,7.84h2.57V29.47H100.8v7.84h-.03l-4-7.84H94.19Zm-4.25,0h2.1V29.47h-2.1Zm-7.6,0h2.58l3.53-10.48H86.36L83.71,37.7h-.03l-2.69-8.23H78.73ZM75.99,35.9H72.92l1.52-4.33h.03Zm-6.76,4.05h2.18l.91-2.4h4.25l.9,2.4H79.8L75.69,29.47H73.31ZM67.79,29.67a7.81477,7.81477,0,0,0-2.51-.38c-1.85,0-3.67.86-3.67,3.2,0,3.47,4.6,2.64,4.6,4.64,0,.94-1.07,1.35-1.86,1.35a5.11553,5.11553,0,0,1-2.38-.65l-.19,1.89a9.11906,9.11906,0,0,0,2.69.41c2.11,0,3.93-.87,3.93-3.17,0-3.51-4.59-2.75-4.59-4.56a1.461,1.461,0,0,1,1.65-1.46,5.53139,5.53139,0,0,1,2.13.45Zm65.23-8.5h2.02V13.33h.03l4.01,7.84h2.56V10.69h-2.01v7.84h-.03l-3.99-7.84h-2.59Zm-5.06-4.05H124.9l1.52-4.33h.03Zm-6.76,4.05h2.18l.92-2.4h4.25l.9,2.4h2.33l-4.12-10.48h-2.37Zm-2.97,0h2.1V10.69h-2.1Zm-10.77,0h2.02V13.33h.03l4.01,7.84h2.56V10.69h-2.01v7.84h-.03l-3.99-7.84h-2.59Zm-7.94,0h6.22V19.52h-4.12V16.58h3.74V14.93h-3.74V12.34h4.09V10.69H99.52Zm-7.78,0h2.58l3.53-10.48H95.76l-2.65,8.23h-.03l-2.69-8.23H88.14ZM79.5,15.9c0-1.85.86-3.74,2.94-3.74,2.09,0,2.95,1.89,2.95,3.74,0,1.89-.8,3.8-2.95,3.8C80.3,19.7,79.5,17.79,79.5,15.9Zm-2.19,0c0,3.21,1.77,5.45,5.13,5.45,3.32,0,5.14-2.28,5.14-5.45s-1.85-5.39-5.14-5.39C79.11,10.51,77.31,12.69,77.31,15.9Zm-7,5.27h6.17V19.52H72.41V10.69h-2.1ZM67.79,10.89a7.81477,7.81477,0,0,0-2.51-.38c-1.85,0-3.67.86-3.67,3.2,0,3.47,4.6,2.64,4.6,4.64,0,.94-1.07,1.35-1.86,1.35a5.11553,5.11553,0,0,1-2.38-.65l-.19,1.89a9.11906,9.11906,0,0,0,2.69.41c2.11,0,3.93-.87,3.93-3.17,0-3.51-4.59-2.74-4.59-4.56a1.461,1.461,0,0,1,1.65-1.46,5.53139,5.53139,0,0,1,2.13.45ZM190,49.87H53.46V.13H190Z"/></svg>