<svg version="1.1" xmlns="http://www.w3.org/2000/svg" xmlns:xlink="http://www.w3.org/1999/xlink" x="0px" y="0px" viewBox="0 0 259.7 31.7" style="enable-background:new 0 0 259.7 31.7;" xml:space="preserve" aria-labelledby="AmericanBank" width="259.7"  height="31.7" >
                <title id="AmericanBank">AmericanBank</title>
                <path class="american" d="M14.4,0h7.8l4.7,31.1h-8.3l-0.4-4.5H9.9L8,31.1H0L14.4,0z M17.6,20l-0.9-9.6h-0.1l-4,9.6H17.6z M31.3,8.5h7 l-0.5,3h0.1c1.9-2.6,4.1-3.6,6.7-3.6c2,0,4,1.3,4.6,3.5c0.3-0.3,2.3-3.5,7-3.5c4.8,0,5.9,4,5.3,7.7L59,31.1h-7.2l1.9-12.3 c0.3-2.1,0.4-4.1-1.7-4.1c-1.8,0-2.7,1.7-3.1,4.1L47,31.1h-7.2l1.9-12.3c0.3-2.1,0.4-4.1-1.7-4.1c-1.8,0-2.7,1.7-3.1,4.1L35,31.1 h-7.2L31.3,8.5z M68.2,21.8c-0.2,2.6,0.7,4.4,3,4.4c1.2,0,2.5-0.5,3.3-1.6h6.7c-2.2,4.9-6.5,7.2-10.8,7.2c-6,0-9.9-4.3-8.8-11.8 c1-6.6,5.8-12,11.8-12c7.5,0,10,5,8.6,13.8H68.2z M75.8,17.3c0.3-2.1-0.7-3.8-2.6-3.8c-2.1,0-3.6,1.4-4.3,3.8H75.8z M85.6,8.5h6.9 L92,12.1h0.1c1.6-2.7,3.3-4.2,6-4.2c0.7,0,1.4,0.1,2.1,0.3l-1.2,7.6c-0.7-0.3-1.3-0.6-2.8-0.6c-2.8,0-4.7,2-5.4,6.9l-1.4,8.9h-7.2 L85.6,8.5z M101.2,8.5h7.2l-3.5,22.6h-7.2L101.2,8.5z M108.8,6.1h-7.2l0.9-6.1h7.2L108.8,6.1z M121.2,17.1c0.1-0.9-0.1-1.7-0.5-2.1 c-0.4-0.5-0.9-0.7-1.7-0.7c-2.8,0-3.6,2.9-4,5.6c-0.4,2.7-0.5,5.6,2.3,5.6c1.6,0,2.9-1.5,3.3-3.3h6.9c-1.6,6.2-6.2,9.6-11.3,9.6 c-5.7,0-9.5-4.7-8.4-11.9c1.1-7.2,6.4-11.9,12.1-11.9c4.9,0,8.7,2.9,8.2,9.2H121.2z M146.9,26.1c-0.3,1.7-0.5,3.6,0.1,5.1h-7.4 c-0.1-0.6-0.1-1.5,0.1-2.1h-0.1c-1.9,2.1-4.2,2.7-6.5,2.7c-3.6,0-6.3-2.1-5.6-6.8c1.1-7.2,8-6.9,11.9-7.7c1-0.2,2.1-0.6,2.3-2 c0.2-1.5-0.9-2.1-2-2.1c-2.2,0-2.9,1.4-3,2.3h-6.7c1.2-6.4,6.4-7.4,10.9-7.4c9,0,8.3,4.5,7.6,8.9L146.9,26.1z M140.7,21 c-1,0.5-2,0.8-3,1.1c-1.7,0.4-2.6,0.9-2.8,2.4c-0.2,1,0.6,2.1,1.9,2.1c1.6,0,3.1-1.2,3.6-3.5L140.7,21z M151.2,8.5h7l-0.4,2.9h0.1 c1.7-2.3,3.8-3.4,6.7-3.4c3.4,0,6.1,2.5,5.3,7.7l-2.4,15.5h-7.2l1.8-11.9c0.4-2.6,0.4-4.4-1.7-4.4c-1.2,0-3,0.7-3.5,4.4l-1.8,12 h-7.2L151.2,8.5z" fill="#A42E2F"></path> 
                <path class="bank" d="M174,0h14.2c6.8,0,7.6,4.6,7.1,7.8c-0.5,3.1-2,4.8-4.1,6.1c2.2,1,4,3.2,3.3,7.8c-1,6.2-6,9.5-10.6,9.5h-14.7 L174,0z M178.4,23.7h4.7c1.7,0,3.2-0.6,3.6-3c0.3-1.8-0.5-2.8-2.4-2.8h-5L178.4,23.7z M180.2,12.1h4.2c1.7,0,2.8-0.6,3.1-2.6 c0.2-1.6-0.8-2.1-2.4-2.1h-4.2L180.2,12.1z M213.8,26.1c-0.3,1.7-0.5,3.6,0.1,5.1h-7.4c-0.1-0.6-0.1-1.5,0.1-2.1h-0.1 c-1.9,2.1-4.2,2.7-6.5,2.7c-3.6,0-6.3-2.1-5.6-6.8c1.1-7.2,8.1-6.9,11.9-7.7c1-0.2,2.1-0.6,2.3-2c0.2-1.5-0.9-2.1-2-2.1 c-2.2,0-2.9,1.4-3,2.3h-6.7c1.2-6.4,6.4-7.4,10.9-7.4c9,0,8.3,4.5,7.6,8.9L213.8,26.1z M207.7,21c-1,0.5-2,0.8-3,1.1 c-1.7,0.4-2.6,0.9-2.8,2.4c-0.2,1,0.6,2.1,1.9,2.1c1.6,0,3.1-1.2,3.6-3.5L207.7,21z M218.2,8.5h7l-0.4,2.9h0.1 c1.7-2.3,3.8-3.4,6.7-3.4c3.4,0,6.1,2.5,5.3,7.7l-2.4,15.5h-7.2l1.8-11.9c0.4-2.6,0.4-4.4-1.7-4.4c-1.2,0-3,0.7-3.5,4.4l-1.8,12 h-7.2L218.2,8.5z M241,0h7.2l-2.3,15.1l5.6-6.5h8.2l-8,8.6l5.6,14.1h-8.7l-2.6-8.2l-1.5,1.7l-1,6.5h-7.2L241,0z" fill="#002555"></path>
				</svg>