<svg xmlns:xlink="http://www.w3.org/1999/xlink" xmlns="http://www.w3.org/2000/svg" width="806" height="145" viewBox="0 0 806 145" fill="none">
<g clip-path="url(#clip0_895_7051)">
<g opacity="0.5">
<path d="M199.364 1.45239L203.573 6.12033C203.573 6.12033 326.538 2.53668 346.845 6.9657C346.845 6.9657 231.323 -3.822 199.364 1.45239Z" fill="#9ECD6A"/>
</g>
<path d="M554.9 88.0351C553.504 84.5066 550.435 82.3932 547.071 82.3932C541.907 82.3932 538.415 86.8038 538.415 91.8209C538.415 96.838 541.999 101.432 547.127 101.432C550.416 101.432 553.21 99.5947 554.919 95.9743H563.575C561.553 103.748 554.864 108.692 547.2 108.692C542.697 108.692 538.452 107.111 535.126 103.84C531.616 100.44 530.146 96.3234 530.146 91.435C530.146 82.871 537.533 75.1523 546.814 75.1523C551.28 75.1523 554.864 76.3836 558.098 79.1219C561.167 81.7499 563.005 84.7087 563.575 88.0351H554.919H554.9Z" fill="#9ECD6A"/>
<path d="M567.508 108.095V83.8543H574.344V86.4272H574.436C575.704 83.8543 577.726 83.0273 580.519 83.0273V90.3233C576.182 90.36 574.785 91.9773 574.785 94.7339V108.095H567.526H567.508Z" fill="#9ECD6A"/>
<path d="M588.954 98.1538C589.34 100.91 591.674 102.748 594.651 102.748C596.618 102.748 597.886 102.013 599.062 100.469H606.505C604.19 105.762 599.76 108.85 594.651 108.85C587.65 108.85 581.787 103.208 581.787 96.0036C581.787 88.7995 587.392 82.9922 594.523 82.9922C601.653 82.9922 607.35 88.7077 607.35 96.2241C607.35 96.9225 607.314 97.4922 607.167 98.1538H588.954ZM600.073 93.2653C599.503 90.7843 597.316 89.112 594.523 89.112C591.895 89.112 589.616 90.6924 589.046 93.2653H600.073Z" fill="#9ECD6A"/>
<path d="M629.752 108.084V105.456H629.661C628.301 107.68 625.856 108.856 622.401 108.856C615.05 108.856 610.235 103.214 610.235 95.8814C610.235 88.5487 615.179 82.9986 622.273 82.9986C625.066 82.9986 627.345 83.8256 629.403 85.8839V75.7578H636.662V108.084H629.752ZM629.789 95.863C629.789 92.4999 627.216 89.7984 623.614 89.7984C620.012 89.7984 617.495 92.3345 617.495 95.863C617.495 99.3915 620.067 102.111 623.578 102.111C627.088 102.111 629.789 99.4467 629.789 95.863Z" fill="#9ECD6A"/>
<path d="M641.919 81.2762V75.7812H649.178V81.2762H641.919ZM641.919 108.089V83.8491H649.178V108.089H641.919Z" fill="#9ECD6A"/>
<path d="M656.105 108.089V89.3624H652.521V83.8674H656.105V75.7812H663.364V83.8674H666.874V89.3624H663.364V108.089H656.105Z" fill="#9ECD6A"/>
<path d="M700.341 75.7606H708.611V95.535C708.611 98.8981 708.078 101.434 706.994 103.18C704.844 106.635 701.223 108.675 696.317 108.675C693.597 108.675 691.281 108.142 689.407 107.058C685.602 104.834 683.765 101.82 683.765 95.5717V75.7422H692.035V95.4431C692.035 99.4678 693.303 101.434 696.243 101.434C699.184 101.434 700.36 100.037 700.36 95.4982V75.7606H700.341Z" fill="#9ECD6A"/>
<path d="M729.322 108.095V94.642C729.322 91.3708 728.183 89.8455 725.518 89.8455C722.578 89.8455 721.365 91.4627 721.365 94.7339V108.095H714.105V83.8543H720.887V86.4272H720.979C722.504 83.9462 724.654 83.0273 727.595 83.0273C731.969 83.0273 736.6 85.4716 736.6 92.6389V108.095H729.341H729.322Z" fill="#9ECD6A"/>
<path d="M741.765 81.2762V75.7812H749.024V81.2762H741.765ZM741.765 108.089V83.8491H749.024V108.089H741.765Z" fill="#9ECD6A"/>
<path d="M766.225 108.824C758.837 108.824 753.14 103.366 753.14 95.9414C753.14 88.5168 758.965 83.0586 766.225 83.0586C773.484 83.0586 779.31 88.5168 779.31 95.8495C779.31 103.182 773.539 108.824 766.225 108.824ZM772.05 95.9414C772.05 92.7069 769.606 89.8216 766.188 89.8216C762.99 89.8216 760.417 92.615 760.417 95.9414C760.417 99.2677 762.953 102.061 766.243 102.061C769.533 102.061 772.069 99.1758 772.069 95.9414H772.05Z" fill="#9ECD6A"/>
<path d="M798.662 108.095V94.642C798.662 91.3708 797.523 89.8455 794.858 89.8455C791.917 89.8455 790.704 91.4627 790.704 94.7339V108.095H783.445V83.8543H790.227V86.4272H790.319C791.844 83.9462 793.994 83.0273 796.935 83.0273C801.308 83.0273 805.958 85.4716 805.958 92.6389V108.095H798.699H798.662Z" fill="#9ECD6A"/>
<path d="M81.0125 74.7429C81.086 73.7321 81.1228 72.7765 81.1228 71.8943C81.1228 64.3962 78.1823 58.2029 72.3934 53.5166C66.7514 48.9406 59.4003 46.625 50.5974 46.625H18.9694L0.0771484 143.09H14.4301L21.5974 106.463H42.4745C51.1671 106.463 59.1798 103.908 66.2736 98.8912C73.8636 93.4697 78.6602 86.3576 80.5163 77.7752C80.7552 76.8195 80.9206 75.7904 81.0125 74.7429ZM42.5848 92.9H24.6849L31.1354 59.8937H49.458C54.0341 59.8937 57.9669 61.1801 61.477 63.8449C64.785 66.3443 66.3839 69.395 66.3839 73.1624C66.3839 74.2651 66.3287 74.798 66.292 75.0185C65.5201 80.3297 62.9472 84.5198 58.4447 87.8462C53.8135 91.246 48.631 92.9184 42.5848 92.9184V92.9Z" fill="#53357C"/>
<path d="M147.946 53.8107C142.359 49.0325 134.714 46.625 125.231 46.625H92.8493L73.957 143.09H88.7327L105.034 59.8937H124.11C129.935 59.8937 134.475 61.3271 137.599 64.1757C140.411 66.7118 141.771 70.0749 141.771 74.4121C141.771 74.6326 141.734 74.9634 141.679 75.4228C141.605 76.0477 141.569 76.6358 141.55 77.1687C140.815 82.6637 137.93 87.1662 132.747 90.9152C127.454 94.7378 120.857 96.6675 113.12 96.6675H99.6858L126.352 143.09H143.627L124.018 108.558C131.24 108.227 137.893 105.397 143.774 100.159C149.986 94.6275 154.029 87.644 155.793 79.4108C156.252 77.132 156.491 74.8899 156.491 72.7213C156.491 65.0211 153.606 58.6624 147.909 53.7923L147.946 53.8107Z" fill="#53357C"/>
<path d="M405.894 59.8937L409.147 46.625H351.716L332.824 143.09H389.464L392.037 129.821H349.879L355.429 100.913H396.246L398.984 87.644H358.13L363.57 59.8937H405.894Z" fill="#53357C"/>
<path d="M415.12 129.824L431.421 46.6094L416.921 46.6278L398.176 143.092H451.71L454.099 129.824H415.12Z" fill="#53357C"/>
<path d="M183.342 108.649C183.342 108.649 415.342 131.069 319.557 37.674C318.565 36.7 318.693 36.5714 319.557 37.674C330.749 52.1373 339.442 79.1892 271.536 99.7355C250.861 105.984 223.607 108.722 183.342 108.667V108.649Z" fill="url(#paint0_linear_895_7051)"/>
<path d="M259.958 143.082H274.311L280.32 112.336C275.708 112.814 270.838 113.2 265.747 113.494L259.958 143.082Z" fill="#53357C"/>
<path d="M277.966 94.2299C280.337 93.4213 282.616 92.5943 284.802 91.7673L291.033 59.882H309.355C313.931 59.882 317.864 61.1684 321.374 63.8332C321.723 64.1088 322.054 64.3845 322.367 64.6602C322.605 64.1088 322.844 63.5575 323.01 62.9878C323.194 62.3997 323.359 61.8116 323.488 61.2052C323.745 60.0106 323.892 58.7977 323.929 57.5848C323.965 56.3718 323.873 55.1405 323.69 53.8908C323.396 52.0163 322.863 50.1234 322.054 48.2121C318.544 47.1646 314.666 46.6133 310.458 46.6133H278.83L268.961 97.0417C269.494 96.8946 270.045 96.7476 270.578 96.5822C273.133 95.8104 275.577 95.0201 277.948 94.2115L277.966 94.2299Z" fill="#53357C"/>
<path d="M236.285 117.785C226.214 126.753 214.544 131.293 201.624 131.293C194.071 131.293 187.731 128.371 182.273 122.361C176.741 116.278 174.058 109.607 174.058 101.98C174.058 90.7883 178.634 80.6989 187.676 71.9695C197.232 62.7255 208.792 58.0392 222.042 58.0392C230.349 58.0392 237.167 60.9061 242.846 66.8238C248.561 72.7597 251.336 79.6514 251.336 87.8846C251.336 92.5893 250.399 97.1286 248.524 101.484C254.277 100.584 259.588 99.4993 264.513 98.2496C265.248 94.8865 265.634 91.4315 265.634 87.903C265.634 74.0462 261.297 63.0196 252.751 55.0804C244.904 47.8396 234.557 44.1641 222.024 44.1641C209.49 44.1641 198.133 47.6191 187.823 54.4188C178.965 60.3181 171.779 68.0367 166.431 77.3726C161.561 85.8998 159.08 94.1881 159.08 101.999C159.08 112.933 162.7 122.674 169.831 130.907C177.844 140.261 188.54 145.002 201.606 145.002C218.808 145.002 234.006 139.011 246.797 127.194C251.373 122.986 255.104 118.539 258.026 113.889C252.273 114.128 246.227 114.238 239.905 114.275C238.784 115.47 237.571 116.646 236.266 117.803L236.285 117.785Z" fill="#53357C"/>
<path d="M322.366 64.6542C322.605 64.1029 322.844 63.5516 323.009 62.9819C323.193 62.3938 323.359 61.8057 323.487 61.1992C323.359 61.7873 323.193 62.3938 323.009 62.9819C322.826 63.5332 322.587 64.1029 322.366 64.6542Z" fill="white"/>
<path d="M217.431 23.2708L194.495 2.81641L165.734 6.06926L217.431 23.2708Z" fill="url(#paint1_linear_895_7051)"/>
<path d="M86.4339 24.4922L57.3604 37.669L212.836 28.278L86.4339 24.4922Z" fill="url(#paint2_linear_895_7051)"/>
<path d="M230.351 29.8398L259.884 41.4729L278.059 35.8126L230.351 29.8398Z" fill="url(#paint3_linear_895_7051)"/>
<path d="M230.147 25.8274L387.111 20.8103L414.421 5.77734L230.147 25.8274Z" fill="url(#paint4_linear_895_7051)"/>
<path opacity="0.5" d="M94.2274 21.8274C94.2274 21.8274 122.051 9.49597 157.906 9.86353C157.906 9.86353 129.421 14.752 112.77 20.8718L94.209 21.8274H94.2274Z" fill="#9ECD6A"/>
<path opacity="0.5" d="M383.839 24.5859C383.839 24.5859 337.362 35.9985 295.075 33.0948C295.075 33.0948 334.312 29.8603 372.372 25.174L383.839 24.5859Z" fill="#9ECD6A"/>
<path d="M805.922 114.539H532.848V117.774H805.922V114.539Z" fill="url(#paint5_linear_895_7051)"/>
<path d="M477.455 129.824L493.756 46.6094L479.256 46.6278L460.529 143.092H514.045L516.434 129.824H477.455Z" fill="#53357C"/>
<path d="M540.234 138.345H536.172L535.18 143.674H531.964L535.419 124.855H542.108C545.545 124.855 547.75 127.833 547.75 131.067C547.75 135.294 544.295 138.363 540.234 138.363V138.345ZM540.326 135.331C542.531 135.331 544.534 133.714 544.534 131.251C544.534 129.321 543.248 127.869 541.318 127.869H538.084L536.724 135.349H540.344L540.326 135.331Z" fill="#53357C"/>
<path d="M560.761 124.453C565.557 124.453 569.398 128 569.398 133.146C569.398 138.788 565.282 144.044 559.529 144.044C554.622 144.044 550.91 140.405 550.91 135.222C550.91 129.47 554.99 124.472 560.761 124.472V124.453ZM560.632 127.467C556.828 127.467 554.126 131.014 554.126 135.057C554.126 138.604 556.221 141.03 559.676 141.03C563.554 141.03 566.182 137.373 566.182 133.33C566.182 130.022 563.922 127.467 560.632 127.467Z" fill="#53357C"/>
<path d="M588.474 138.035L594.41 124.84H597.7L588.897 143.659H586.544L584.707 129.453L577.723 143.659H575.371L573.423 124.84H576.694L577.686 137.906L584.063 124.84H586.636L588.474 138.035Z" fill="#53357C"/>
<path d="M601.762 124.84H613.193L612.641 127.909H604.426L603.563 132.595H611.575L611.006 135.628H603.011L602.074 140.608H610.418L609.866 143.677H598.307L601.743 124.858L601.762 124.84Z" fill="#53357C"/>
<path d="M625.156 137.94L629.089 143.674H625.027L621.462 138.234H618.908L617.897 143.674H614.681L618.136 124.855H624.972C628.409 124.855 630.706 127.704 630.706 131.012C630.706 134.541 628.262 137.169 625.138 137.959L625.156 137.94ZM623.245 135.22C625.652 135.22 627.508 133.658 627.508 131.177C627.508 129.248 626.13 127.851 624.219 127.851H620.8L619.459 135.22H623.245Z" fill="#53357C"/>
<path d="M636.973 124.84H648.404L647.852 127.909H639.637L638.774 132.595H646.786L646.217 135.628H638.222L637.285 140.608H645.628L645.077 143.677H633.518L636.954 124.858L636.973 124.84Z" fill="#53357C"/>
<path d="M658.46 124.84C663.936 124.84 667.024 128.497 667.024 133.128C667.024 139.965 662.098 143.677 655.17 143.677H649.896L653.351 124.858H658.441L658.46 124.84ZM655.372 140.7C659.93 140.7 663.826 138.476 663.826 133.275C663.826 130.133 661.676 127.78 657.669 127.78H656.015L653.608 140.681H655.372V140.7Z" fill="#53357C"/>
<path d="M688.577 133.9C690.599 134.304 691.94 135.811 691.94 138.035C691.94 141.417 689.073 143.659 685.637 143.659H677.422L680.877 124.84H687.64C690.231 124.84 692.087 126.622 692.087 129.195C692.087 131.768 690.47 133.33 688.577 133.9ZM685.435 140.865C687.383 140.865 688.743 139.744 688.743 137.888C688.743 136.436 687.75 135.389 686.078 135.389H682.127L681.116 140.884H685.453L685.435 140.865ZM682.623 132.632H685.857C687.621 132.632 688.926 131.474 688.926 129.802C688.926 128.589 688.154 127.615 686.776 127.615H683.542L682.623 132.614V132.632Z" fill="#53357C"/>
<path d="M703.006 143.659H699.79L701.076 136.638L697.125 124.84H700.396L703.19 133.661L708.832 124.84H712.452L704.237 137.024L703.024 143.659H703.006Z" fill="#53357C"/>
<path d="M787.653 124.682C787.156 126.539 786.66 128.358 786.182 130.177C785.76 131.721 785.337 133.265 784.951 134.809C784.786 135.415 784.731 136.058 784.859 136.683C785.043 137.565 785.594 138.08 786.458 138.282C787.414 138.484 788.314 138.429 789.141 137.822C789.674 137.437 790.005 136.885 790.262 136.297C790.63 135.47 790.832 134.588 791.052 133.706C791.843 130.765 792.633 127.843 793.405 124.903C793.46 124.719 793.533 124.664 793.717 124.664C795.72 124.664 797.724 124.664 799.727 124.664C799.892 124.664 799.929 124.701 799.892 124.866C798.881 128.615 797.871 132.364 796.841 136.113C796.456 137.547 795.886 138.888 795.077 140.138C793.919 141.884 792.321 143.005 790.317 143.52C787.965 144.126 785.594 144.2 783.224 143.611C781.845 143.281 780.632 142.637 779.677 141.535C778.905 140.634 778.482 139.568 778.317 138.411C778.078 136.72 778.372 135.084 778.813 133.449C779.585 130.618 780.357 127.77 781.11 124.921C781.165 124.738 781.22 124.664 781.441 124.664C783.407 124.664 785.392 124.664 787.359 124.664C787.45 124.664 787.542 124.664 787.653 124.664V124.682Z" fill="#553279"/>
<path d="M771.205 124.282C772.896 124.263 774.421 124.557 775.818 125.348C777.509 126.285 778.575 127.718 779.107 129.556C779.163 129.74 779.126 129.832 778.942 129.905C777.178 130.659 775.432 131.431 773.686 132.184C773.539 132.258 773.484 132.221 773.429 132.074C772.933 130.475 771.628 129.777 770.047 129.997C767.897 130.291 766.684 131.67 766.096 133.654C765.784 134.683 765.747 135.731 766.206 136.742C766.684 137.808 767.548 138.322 768.706 138.359C770.231 138.414 771.407 137.697 772.363 136.576C772.492 136.411 772.565 136.393 772.73 136.54C774.072 137.624 775.432 138.69 776.792 139.737C776.921 139.829 776.921 139.884 776.829 140.013C775.101 142.2 772.859 143.505 770.102 143.872C768.118 144.148 766.151 144.038 764.258 143.284C761.814 142.31 760.234 140.564 759.535 138.028C759.37 137.422 759.296 136.797 759.241 136.154C759.241 136.007 759.315 136.007 759.407 135.97C759.958 135.841 760.491 135.676 761.005 135.474C761.355 135.327 761.704 135.161 761.998 134.904C762.09 134.83 762.163 134.757 762.218 134.665C762.457 134.353 762.421 134.077 762.145 133.801C761.851 133.526 761.483 133.36 761.116 133.195C760.693 133.011 760.27 132.864 759.829 132.717C759.701 132.68 759.646 132.644 759.701 132.497C761.061 128.343 763.854 125.697 768.099 124.594C769.147 124.318 770.213 124.227 771.187 124.227L771.205 124.282Z" fill="#553279"/>
<path d="M741.893 136.85C743.603 136.868 745.312 136.85 746.984 136.464C747.407 136.372 747.811 136.243 748.179 136.041C748.271 135.986 748.362 135.949 748.436 135.876C749.042 135.435 749.098 134.902 748.583 134.369C748.197 133.965 747.701 133.726 747.186 133.56C745.9 133.119 744.577 132.825 743.235 132.586C742.353 132.421 741.471 132.274 740.589 132.145C740.46 132.145 740.442 132.072 740.478 131.961C740.589 131.539 740.717 131.116 740.828 130.693C740.864 130.565 740.919 130.546 741.03 130.565C742.665 130.785 744.301 130.987 745.918 131.245C747.609 131.52 749.281 131.814 750.935 132.219C751.946 132.476 752.938 132.752 753.876 133.229C754.17 133.376 754.445 133.542 754.684 133.762C755.162 134.222 755.162 134.755 754.648 135.196C754.17 135.618 753.582 135.839 752.975 136.023C751.67 136.427 750.31 136.611 748.95 136.74C747.885 136.831 746.819 136.831 745.753 136.831C745.587 136.831 745.514 136.868 745.477 137.034C744.926 139.147 744.356 141.242 743.805 143.356C743.75 143.576 743.658 143.631 743.456 143.613C741.508 143.613 739.559 143.613 737.611 143.613C737.391 143.613 737.373 143.558 737.428 143.374C738.31 140.121 739.192 136.85 740.056 133.597C740.111 133.376 740.184 133.321 740.423 133.358C741.618 133.56 742.812 133.762 743.97 134.112C744.246 134.203 744.521 134.295 744.779 134.461C745.257 134.791 745.293 135.251 744.871 135.637C744.393 136.078 743.786 136.28 743.18 136.482C742.757 136.611 742.335 136.721 741.912 136.813L741.893 136.85Z" fill="#55327A"/>
<path d="M728.512 124.685C730.019 124.685 731.525 124.666 733.032 124.685C734.282 124.703 735.532 124.869 736.708 125.328C737.59 125.659 738.344 126.155 738.84 126.982C739.207 127.588 739.336 128.268 739.354 128.967C739.354 129.095 739.336 129.151 739.189 129.132C738.215 129.022 737.241 128.93 736.267 128.82C735.128 128.709 733.988 128.599 732.83 128.489C731.507 128.379 730.184 128.25 728.842 128.158C727.795 128.066 726.766 127.993 725.718 127.919C724.818 127.846 723.917 127.791 723.017 127.735C722.906 127.735 722.87 127.699 722.906 127.57C723.164 126.633 723.421 125.696 723.66 124.758C723.697 124.611 723.788 124.63 723.899 124.63C725.424 124.63 726.968 124.63 728.493 124.63L728.512 124.685Z" fill="#55327A"/>
<path d="M752.845 131.028C753.029 130.329 753.231 129.613 753.433 128.896C753.8 127.554 754.168 126.213 754.517 124.89C754.554 124.743 754.609 124.688 754.774 124.688C756.759 124.688 758.744 124.688 760.747 124.688C760.913 124.688 760.931 124.724 760.894 124.89C760.233 127.352 759.571 129.815 758.909 132.277C758.854 132.443 758.799 132.461 758.652 132.406C756.796 131.892 754.903 131.506 753.01 131.175C752.937 131.175 752.808 131.175 752.863 131.028H752.845Z" fill="#55327A"/>
<path d="M752.66 143.615C751.686 143.615 750.694 143.615 749.72 143.615C749.499 143.615 749.499 143.559 749.536 143.376C750.106 141.262 750.675 139.149 751.227 137.017C751.263 136.87 751.337 136.796 751.484 136.796C752.66 136.778 753.836 136.723 755.012 136.631C755.858 136.558 756.703 136.484 757.549 136.337C757.732 136.3 757.769 136.337 757.714 136.521C757.089 138.8 756.483 141.078 755.876 143.357C755.821 143.541 755.766 143.596 755.564 143.596C754.59 143.596 753.597 143.596 752.623 143.596L752.66 143.615Z" fill="#55327A"/>
<path d="M748.802 124.707C748.636 125.313 748.471 125.92 748.306 126.526C747.993 127.684 747.681 128.842 747.368 130C747.313 130.184 747.258 130.22 747.074 130.202C745.788 130.018 744.501 129.853 743.233 129.687C742.59 129.614 741.965 129.54 741.322 129.467C741.193 129.467 741.193 129.412 741.212 129.301C741.616 127.831 742.002 126.343 742.406 124.854C742.425 124.762 742.443 124.707 742.572 124.707C744.63 124.707 746.688 124.707 748.728 124.707C748.728 124.707 748.747 124.707 748.783 124.725L748.802 124.707Z" fill="#55327A"/>
<path d="M738.361 131.852C737.552 131.76 736.725 131.65 735.917 131.558C734.924 131.447 733.932 131.337 732.94 131.227C731.819 131.117 730.698 130.988 729.576 130.896C728.547 130.804 727.518 130.712 726.489 130.62C725.294 130.51 724.118 130.418 722.924 130.326C722.74 130.326 722.538 130.29 722.354 130.29C722.262 130.29 722.225 130.253 722.262 130.161C722.372 129.793 722.464 129.408 722.556 129.04C722.575 128.93 722.648 128.93 722.722 128.93C724.688 129.077 726.654 129.224 728.621 129.389C730.385 129.536 732.149 129.683 733.895 129.849C735.604 130.014 737.313 130.198 739.004 130.363C739.151 130.363 739.151 130.437 739.115 130.547C738.967 130.988 738.765 131.411 738.508 131.797C738.471 131.87 738.416 131.925 738.324 131.888L738.361 131.852Z" fill="#55327A"/>
<path d="M737.922 137.125C737.665 135.618 736.672 134.717 735.257 134.221C735.165 134.184 735.073 134.203 735 134.111C735.845 133.872 736.636 133.523 737.407 132.953C735.919 132.788 734.485 132.622 733.052 132.475C731.765 132.347 730.461 132.218 729.156 132.108C727.833 131.979 726.509 131.869 725.205 131.758C724.176 131.667 723.146 131.611 722.117 131.52C721.933 131.52 721.86 131.538 721.823 131.722C720.776 135.618 719.728 139.532 718.681 143.428C718.625 143.63 718.681 143.649 718.864 143.649C722.338 143.649 725.811 143.649 729.266 143.649C730.663 143.649 732.041 143.502 733.383 143.116C734.651 142.767 735.809 142.215 736.727 141.241C737.793 140.084 738.179 138.687 737.922 137.161V137.125ZM731.288 138.044C730.902 138.503 730.35 138.687 729.781 138.779C729.137 138.871 728.494 138.797 727.961 138.834C727.336 138.834 726.822 138.834 726.307 138.834C726.16 138.834 726.105 138.834 726.16 138.65C726.399 137.768 726.638 136.904 726.877 136.022C726.895 135.93 726.932 135.857 727.061 135.875C728.127 135.985 729.211 135.967 730.259 136.132C730.442 136.169 730.626 136.206 730.791 136.261C731.637 136.537 731.876 137.382 731.288 138.062V138.044Z" fill="#553279"/>
</g>
<defs>
<linearGradient id="paint0_linear_895_7051" x1="256.577" y1="77.3795" x2="285.672" y2="128.573" gradientUnits="userSpaceOnUse">
<stop offset="0.1" stop-color="#589842"/>
<stop offset="0.5" stop-color="#9ECD6A"/>
<stop offset="0.84" stop-color="#639E45"/>
</linearGradient>
<linearGradient id="paint1_linear_895_7051" x1="170.586" y1="-0.859132" x2="215.758" y2="24.2632" gradientUnits="userSpaceOnUse">
<stop stop-color="#53357C"/>
<stop offset="1" stop-color="#8182BE"/>
</linearGradient>
<linearGradient id="paint2_linear_895_7051" x1="57.3604" y1="31.0714" x2="212.836" y2="31.0714" gradientUnits="userSpaceOnUse">
<stop stop-color="#53357C"/>
<stop offset="1" stop-color="#8182BE"/>
</linearGradient>
<linearGradient id="paint3_linear_895_7051" x1="230.351" y1="35.6472" x2="278.059" y2="35.6472" gradientUnits="userSpaceOnUse">
<stop stop-color="#8182BE"/>
<stop offset="1" stop-color="#53357C"/>
</linearGradient>
<linearGradient id="paint4_linear_895_7051" x1="232.04" y1="32.2045" x2="415.082" y2="10.9782" gradientUnits="userSpaceOnUse">
<stop stop-color="#8182BE"/>
<stop offset="1" stop-color="#664B87"/>
</linearGradient>
<linearGradient id="paint5_linear_895_7051" x1="532.848" y1="116.156" x2="805.922" y2="116.156" gradientUnits="userSpaceOnUse">
<stop stop-color="#664B87"/>
<stop offset="0.6" stop-color="#8182BE"/>
<stop offset="1" stop-color="#8182BE" stop-opacity="0"/>
</linearGradient>
<clipPath id="clip0_895_7051">
<rect width="805.843" height="145" fill="white" transform="translate(0.0791016)"/>
</clipPath>
</defs>
</svg>