<svg xmlns:xlink="http://www.w3.org/1999/xlink" xmlns="http://www.w3.org/2000/svg" viewBox="0 0 523.8 237.8" style="enable-background:new 0 0 523.8 237.8" xml:space="preserve" width="523.8"  height="237.8" >
    <path style="fill:#232c64" d="M0 175.3h23.8c13.2 0 24.5 4.9 24.5 20.4 0 15-11.7 21.5-24.5 21.5h-7.5v19.4H0v-61.3zm23 29.1c6.4 0 9.4-3.2 9.4-8.7s-3.4-7.5-9.4-7.5h-6.8v16.2H23zM73.4 188.3c14 0 20.6 10.2 20.6 22.8 0 2.8-.4 5.3-.7 6.4H66.4c1.5 6 5.7 7.9 10.9 7.9 3.2 0 6.2-.9 9.6-2.8l5.3 9.6c-5.1 3.6-11.9 5.5-17.2 5.5-13.8 0-24.3-9.1-24.3-24.7.1-15.2 11.2-24.7 22.7-24.7zm6.8 19.5c0-4-1.5-7.2-6.4-7.2-3.6 0-6.6 2-7.5 7.2h13.9zM100.9 189.5h13.2l1.1 5.7h.4c3.8-3.6 8.5-6.8 14.9-6.8 10.4 0 14.7 7.5 14.7 19.2v29.1H129v-27c0-6-1.5-7.5-4.7-7.5-3 0-4.7 1.3-7.2 3.6v30.9h-16.2v-47.2zM154 189.5h13.2l1.1 5.7h.4c3.8-3.6 8.5-6.8 14.9-6.8 10.4 0 14.7 7.5 14.7 19.2v29.1h-16.2v-27c0-6-1.5-7.5-4.7-7.5-3 0-4.7 1.3-7.2 3.6v30.9H154v-47.2zM206 175.5c0-4.7 3.8-8.1 9.1-8.1s9.1 3.4 9.1 8.1-3.8 8.1-9.1 8.1-9.1-3.4-9.1-8.1zm1 14h16.2v47.2H207v-47.2zM255.6 206.1c-.4-3.4-2.5-4.9-6.6-4.9-3.4 0-7 1.3-11.9 4l-5.7-10.6c6.6-4 13.4-6.2 20.8-6.2 12.3 0 19.6 6.6 19.6 22.1v26.2h-13.2l-1.1-4.5h-.4c-3.8 3.4-7.9 5.7-13 5.7-8.9 0-14.2-6.8-14.2-14.5 0-10 7.6-15.5 25.7-17.3zm-5.8 19.2c2.6 0 4.2-1.3 5.8-3.2v-6.4c-7.7 1.1-10.2 3.6-10.2 6.2 0 2.2 1.5 3.4 4.4 3.4zM280.7 189.5h13.2l1.1 5.7h.4c3.8-3.6 8.5-6.8 14.9-6.8 10.4 0 14.7 7.5 14.7 19.2v29.1h-16.2v-27c0-6-1.5-7.5-4.7-7.5-3 0-4.7 1.3-7.2 3.6v30.9h-16.2v-47.2zM334.5 174.7h18.4c12.5 0 21.3 4.2 21.3 15.1 0 6.1-3.5 11.6-10.9 13.5v.4c9.1 1.4 14.3 6.3 14.3 14.8 0 12.2-9.6 18.1-23.4 18.1h-19.8v-61.9h.1zm17.1 26.4c10.5 0 14.9-3.8 14.9-10.7 0-6.7-5-9.5-14.5-9.5h-9.5v20.2h9.1zm1.6 29.3c10.6 0 16.8-3.9 16.8-12.3 0-7.6-5.9-11.1-16.8-11.1h-10.8v23.4h10.8zM412.3 207.6c0-5.9-2-11.5-9.4-11.5-5.4 0-10.1 2.5-13.7 4.9l-3.1-5.4c4.2-2.7 10.7-5.9 18-5.9 11.2 0 15.9 7.5 15.9 18.9v28.1h-6.4l-.7-5.5h-.2c-4.4 3.6-9.5 6.6-15.2 6.6-7.7 0-13.5-4.8-13.5-13 .1-10.1 8.8-15.1 28.3-17.2zm-12.5 23.9c4.4 0 8.1-2.2 12.5-6.1v-12.7c-15.4 1.9-20.6 5.7-20.6 11.5.1 5.2 3.6 7.3 8.1 7.3zM428.8 190.8h6.4l.7 6.6h.3c4.3-4.3 9.1-7.7 15.4-7.7 9.6 0 14 6.2 14 17.9v29.1h-7.7v-28c0-8.6-2.6-12.3-8.7-12.3-4.7 0-7.9 2.5-12.5 7.1v33.2H429v-45.9h-.2zM474.4 169.4h7.6v45.5h.3l19.5-24.2h8.6L495 209.1l17.5 27.5H504l-13.4-22.1-8.6 10v12.1h-7.6v-67.2zM518.4 181c-1 0-1.9-.2-2.7-.7s-1.5-1.1-2-2-.7-1.9-.7-3c0-1.2.2-2.2.7-3 .5-.9 1.1-1.5 2-2s1.7-.7 2.7-.7 1.9.2 2.7.7 1.5 1.2 1.9 2c.5.9.7 1.9.7 3s-.2 2.1-.7 3-1.1 1.5-1.9 2-1.7.7-2.7.7zm0-.8c.8 0 1.6-.2 2.3-.6.7-.4 1.2-1 1.6-1.7.4-.7.6-1.6.6-2.5s-.2-1.8-.6-2.5c-.4-.7-.9-1.3-1.6-1.8s-1.4-.6-2.3-.6-1.6.2-2.2.6c-.7.4-1.2 1-1.6 1.8-.4.7-.6 1.6-.6 2.5s.2 1.8.6 2.5.9 1.3 1.6 1.7c.6.4 1.4.6 2.2.6zm-2-1.9v-6.1h2c.6 0 1.1.1 1.6.4s.7.8.7 1.5c0 .4-.1.7-.3 1s-.5.5-.8.6l1.4 2.5h-1.1l-1.2-2.2h-1.4v2.2h-.9v.1zm1-3.1h.9c.5 0 .8-.1 1.1-.3s.4-.5.4-.8-.1-.6-.3-.8-.6-.3-1.1-.3h-.9v2.2h-.1z"/>
    <path style="fill:#479ed7" d="M260.1 107.6 222.3 9.9c-.4-1.1.1-2.3 1.2-2.8l18-7c1.1-.4 2.3.1 2.8 1.2l15.8 40.9c.7 1.8 3.3 1.8 4 0l15.8-40.9c.4-1.1 1.7-1.6 2.8-1.2l18 7c1.1.4 1.6 1.7 1.2 2.8l-37.7 97.8c-.8 1.8-3.4 1.8-4.1-.1z"/>
    <path style="fill:#2e655a" d="m242.2 114.5-93.8-46.8c-1.1-.5-1.5-1.8-1-2.9l8.6-17.3c.5-1.1 1.8-1.5 2.9-1L198.1 66c1.7.9 3.6-.9 2.9-2.7l-15.9-40.8c-.4-1.1.1-2.3 1.2-2.8l18-7c1.1-.4 2.3.1 2.8 1.2l38 97.7c.7 2-1.2 3.7-2.9 2.9z"/>
    <path style="fill:#9ac9eb" d="m279 111.8 38-97.7c.4-1.1 1.7-1.6 2.8-1.2l18 7c1.1.4 1.6 1.7 1.2 2.8l-15.9 40.8c-.7 1.8 1.2 3.5 2.9 2.7l39.2-19.5c1.1-.5 2.3-.1 2.9 1l8.6 17.3c.5 1.1.1 2.3-1 2.9l-93.8 46.8c-1.7.6-3.6-1.1-2.9-2.9z"/>
    <path style="fill:#1a67b2" d="m245.1 111.8-38-97.7c-.4-1.1-1.7-1.6-2.8-1.2l-18 7c-1.1.4-1.6 1.7-1.2 2.8L201 63.4c.7 1.8-1.2 3.5-2.9 2.7l-39.2-19.5c-1.1-.5-2.3-.1-2.9 1l-8.6 17.3c-.5 1.1-.1 2.3 1 2.9l93.8 46.8c1.7.7 3.6-1 2.9-2.8z"/>
    <path style="fill:#232c64" d="m233.9 127.8-96.1-48.2c-1-.6-2.3-.2-2.9.8L126 98.8c-.6 1-.2 2.3.8 2.9l3.7 1.4 25 10.1c1.9 1.1 1.2 3.3-1 3.3h-29.4c-1.2 0-2.1 1-2.1 2.1l.2 19.2c0 1.2 1 2.1 2.1 2.1 0 0 89.6 0 104.2-.1 1.3 0 2.7-.2 3.1-.3 6.1-1.3 7-8.8 1.3-11.7z"/>
    <path style="fill:#cae3f3" d="M289.9 127.8 386 79.6c1-.6 2.3-.2 2.9.8l8.9 18.4c.6 1 .2 2.3-.8 2.9l-3.7 1.4-25 10.1c-1.9 1.1-1.2 3.3 1 3.3h29.4c1.2 0 2.1 1 2.1 2.1l-.2 19.2c0 1.2-1 2.1-2.1 2.1 0 0-89.6 0-104.2-.1-1.3 0-2.7-.2-3.1-.3-6.1-1.3-7-8.8-1.3-11.7z"/>
</svg>