<?xml version="1.0" encoding="UTF-8"?> <svg xmlns="http://www.w3.org/2000/svg" width="134" height="50" viewBox="0 0 134 50" fill="none"><path fill-rule="evenodd" clip-rule="evenodd" d="M0.000488281 -0.000610352V49.8274H22.4708C21.5762 49.1864 20.8353 48.5608 20.1274 47.9629C18.7084 46.7646 17.4213 45.6778 15.2927 44.8019C12.9216 43.8262 10.4761 43.9689 8.28141 44.097C6.19069 44.219 4.32753 44.3278 2.97297 43.4438C0.0497508 41.536 3.39272 30.9367 3.39272 30.9367C3.39272 30.9367 1.99408 39.8372 7.21364 40.7622C9.13564 41.1028 10.3861 40.6056 11.6595 40.0994C12.8795 39.6144 14.1205 39.121 15.9933 39.3481C17.6657 39.551 19.3167 40.9915 21.1239 42.5682C23.4524 44.5999 26.0402 46.8577 29.2671 46.9854C34.697 47.2003 41.713 40.7622 41.713 40.7622C41.713 40.7622 40.2366 46.5802 34.4609 49.8274H37.2685C37.9728 48.9045 38.9875 48.4047 40.1217 47.8461C42.8442 46.5051 46.2554 44.8248 47.7158 36.1402C48.3184 32.557 47.2988 29.7181 46.2459 26.7865C45.3918 24.4086 44.5159 21.9697 44.4658 19.0229C44.4219 16.4416 45.3462 13.6822 46.2011 11.1298C47.3776 7.61727 48.4228 4.49692 46.6325 2.77261C44.3486 0.572931 38.9405 0.172416 38.9405 0.172416L36.758 -0.000610352H0.000488281ZM8.052 19.1943C7.58513 16.1823 11.7349 12.3131 11.7349 12.3131C11.7349 12.3131 7.30266 13.344 5.77639 15.3963C4.05989 17.7044 4.10126 21.2259 4.85399 23.1676C5.91875 25.9143 7.56794 27.4362 10.4213 28.1683C12.7601 28.7684 18.8739 28.6566 24.7652 28.5489C29.6217 28.4601 34.327 28.374 36.6418 28.6918C41.7647 29.3952 44.1042 35.5729 44.1042 35.5729C44.1042 35.5729 46.1244 29.5969 42.847 26.0705C39.4886 22.457 31.7183 23.0746 24.5379 23.6454C21.5946 23.8793 18.7504 24.1054 16.3498 24.029C12.5404 23.9076 8.63582 22.9607 8.052 19.1943ZM23.7298 40.0213C27.1007 41.8407 34.2169 41.8408 34.2169 41.8408C34.2169 41.8408 31.2336 35.7281 27.6893 33.3865C23.2981 30.4854 14.7411 31.6744 14.7411 31.6744C14.7411 31.6744 18.3481 33.5783 20.1986 35.3662C20.9073 36.0509 21.2879 36.8102 21.6535 37.5393C22.1343 38.4986 22.589 39.4055 23.7298 40.0213ZM23.4957 13.1897C21.9269 12.7966 19.9961 15.404 19.9961 15.404C19.9961 15.404 22.6 15.4779 22.9957 16.6894C23.4554 18.0966 21.8778 19.1931 20.4245 19.4749C18.8686 19.7767 17.7961 18.8208 16.8537 17.5466C15.2689 15.404 19.1391 10.1901 19.1391 10.1901C19.1391 10.1901 15.3644 12.5031 14.3832 14.3799C13.7703 15.5524 13.564 17.2612 14.3829 18.9099C15.6017 21.3638 17.7309 22.1189 20.4245 21.6174C23.1589 21.1082 25.6558 18.7519 25.4414 15.9788C25.319 14.3954 25.0361 13.5757 23.4957 13.1897ZM29.6606 1.27943C23.9325 0.141262 15.9584 7.27012 15.9584 7.27012C15.9584 7.27012 23.6012 3.67495 28.4495 4.78473C34.6087 6.19456 40.0483 16.065 40.0483 16.065C40.0483 16.065 38.8955 3.11442 29.6606 1.27943ZM30.5525 13.3918C29.3718 9.24886 23.2875 10.0136 23.2875 10.0136C23.2875 10.0136 25.8919 8.41972 27.9391 8.88368C30.0557 9.36336 31.3178 10.0136 32.195 11.5845C33.8209 14.4961 33.7675 18.2741 31.5723 20.7844C30.5525 21.9505 28.6497 20.256 29.3718 18.7902C29.5299 18.4693 29.6814 18.1769 29.8227 17.9041C30.6452 16.3165 31.1231 15.3941 30.5525 13.3918Z" fill="#7FA84C"></path><path d="M55.5456 49.8274V-0.000610352H48.8446L49.0159 0.172416C49.0159 0.172416 50.913 2.13729 51.1826 3.74742C51.535 5.85284 50.7309 7.59261 49.8036 9.59887C48.6945 11.9985 47.4091 14.7793 47.7158 19.0229C47.8847 21.3594 48.7193 22.5429 49.608 23.803C50.8873 25.6171 52.2785 27.5899 51.9566 33.3893C51.6199 39.455 51.0016 42.0806 46.2496 45.8653C44.2846 47.4303 40.6258 48.9948 38.5092 49.8274H55.5456Z" fill="#7FA84C"></path><path d="M58.574 0.974223V0.172241H63.9276V0.995898H63.2341C62.8728 0.995898 62.6127 1.03202 62.4538 1.10427C62.3093 1.16207 62.237 1.29935 62.237 1.5161C62.237 1.61725 62.2659 1.75453 62.3237 1.92793C62.3815 2.10133 62.4249 2.23861 62.4538 2.33976L65.7267 12.5054L68.5877 3.12006C68.371 2.44091 68.2192 2.00018 68.1326 1.79788C67.9014 1.26322 67.5401 0.995898 67.0488 0.995898H65.7917V0.172241H72.4892V0.995898H71.5138C71.0948 0.995898 70.7913 1.03925 70.6035 1.12595C70.4301 1.1982 70.3434 1.34993 70.3434 1.58113L70.4084 1.99296L73.7463 12.5054L76.4557 3.40184C76.5713 3.08394 76.6291 2.72991 76.6291 2.33976C76.6291 1.44385 76.1811 0.995898 75.2852 0.995898H74.8084V0.172241H79.8153V0.974223C79.1506 1.06092 78.6448 1.29935 78.298 1.6895C78.009 2.02186 77.7489 2.59263 77.5177 3.40184L73.5729 16.5587H72.836L69.1296 4.81073L65.5966 16.5587H64.7946L60.2863 2.33976C60.1273 1.81955 59.925 1.46553 59.6794 1.27767C59.4482 1.07537 59.0797 0.974223 58.574 0.974223Z" fill="#7FA84C"></path><path d="M80.552 0.995898V0.172241H87.3795V0.995898H86.1441C85.6672 0.995898 85.371 1.0826 85.2554 1.256C85.1398 1.41495 85.082 1.7762 85.082 2.33976V7.28169H92.4081V2.33976C92.4081 1.76175 92.3503 1.39328 92.2347 1.23432C92.1191 1.07537 91.8084 0.995898 91.3027 0.995898H90.1539V0.172241H96.9598V0.995898H95.7027C95.2547 0.995898 94.9729 1.10427 94.8573 1.32102C94.7417 1.52333 94.6839 1.90626 94.6839 2.46981V14.001C94.6839 14.5067 94.7128 14.8174 94.7706 14.933C94.9151 15.222 95.2692 15.3665 95.8327 15.3665H96.9598V16.1902H90.1539V15.3665H91.3027C91.7073 15.3665 91.989 15.2943 92.148 15.1498C92.3214 14.9908 92.4081 14.5862 92.4081 13.936V8.34378H85.082V14.001C85.082 14.4345 85.1109 14.7307 85.1687 14.8897C85.2843 15.2076 85.5444 15.3665 85.949 15.3665H87.3795V16.1902H80.552V15.3665H81.8525C82.1704 15.3665 82.4016 15.2798 82.5461 15.1064C82.705 14.933 82.7845 14.5429 82.7845 13.936V2.33976C82.7845 1.7762 82.7267 1.41495 82.6111 1.256C82.4955 1.0826 82.192 0.995898 81.7007 0.995898H80.552Z" fill="#7FA84C"></path><path d="M97.7568 0.995898V0.172241H105.148V0.995898H103.891C103.313 0.995898 102.952 1.06815 102.807 1.21265C102.677 1.3427 102.612 1.6317 102.612 2.07966V14.2177C102.612 14.5645 102.641 14.8102 102.699 14.9547C102.814 15.2293 103.161 15.3665 103.739 15.3665H105.148V16.1902H97.7568V15.3665H99.1657C99.657 15.3665 99.9749 15.2943 100.119 15.1498C100.264 15.0053 100.336 14.6946 100.336 14.2177V2.07966C100.336 1.6317 100.271 1.34993 100.141 1.23432C99.9677 1.07537 99.592 0.995898 99.014 0.995898H97.7568Z" fill="#7FA84C"></path><path d="M105.741 6.21961L106.11 0.172241H119.114L119.418 6.21961H118.659C118.182 2.63599 116.896 0.844172 114.801 0.844172C114.425 0.844172 114.151 0.916422 113.978 1.06092C113.819 1.19097 113.739 1.43663 113.739 1.79788V14.6079C113.739 15.1137 114.057 15.3665 114.693 15.3665H116.318V16.1902H108.862V15.3665H110.705C111.196 15.3665 111.442 15.1426 111.442 14.6946V1.6895C111.442 1.1404 111.095 0.865847 110.401 0.865847C108.349 0.865847 107.063 2.65044 106.543 6.21961H105.741Z" fill="#7FA84C"></path><path d="M120.125 0.995898V0.172241H132.805L133.13 5.56936H132.393C132.104 3.9654 131.664 2.80216 131.071 2.07966C130.479 1.35715 129.648 0.995898 128.578 0.995898H125.436C124.915 0.995898 124.655 1.26322 124.655 1.79788V7.49845H126.043C126.837 7.49845 127.459 7.23112 127.907 6.69647C128.355 6.16181 128.578 5.35983 128.578 4.29052H129.337V11.7251H128.578C128.578 9.44199 127.697 8.30043 125.934 8.30043H124.655V14.6512C124.655 15.1281 124.995 15.3665 125.674 15.3665H128.167C130.869 15.3665 132.415 13.6542 132.805 10.2295H133.585L133.325 16.1902H120.125V15.3665H121.209C121.989 15.3665 122.379 15.0775 122.379 14.4995V1.79788C122.379 1.26322 122.062 0.995898 121.426 0.995898H120.125Z" fill="#7FA84C"></path><path d="M64.9592 30.6906V38.8559C64.9592 39.5152 65.3265 39.8448 66.061 39.8448H68.293V40.9184H58.574V39.8448H60.6365C61.5217 39.8448 61.9643 39.5152 61.9643 38.8559V22.158C61.9643 21.7625 61.8608 21.4894 61.6536 21.3387C61.4652 21.188 61.1262 21.1127 60.6365 21.1127H58.574V20.039H69.3667C71.4386 20.039 73.0584 20.5005 74.2262 21.4235C75.394 22.3464 75.9779 23.599 75.9779 25.1812C75.9779 26.462 75.5447 27.5357 74.6782 28.4021C74.0567 29.0237 73.2844 29.4757 72.3615 29.7583C71.7023 29.9655 70.6663 30.1444 69.2536 30.2951C70.5533 30.653 71.4856 31.0297 72.0507 31.4252C72.8983 32.0091 73.4539 32.8285 73.7176 33.8833C74.6029 37.4621 75.3752 39.2515 76.0344 39.2515C76.3923 39.2515 76.6842 38.9878 76.9102 38.4604C77.1551 37.933 77.2775 37.2172 77.2775 36.3131H78.2381C78.2381 39.534 77.0515 41.1445 74.6782 41.1445C73.6611 41.1445 72.8418 40.7772 72.2202 40.0426C71.6175 39.308 71.3161 38.2626 71.3161 36.9064C71.3161 34.7403 71.0148 33.1958 70.412 32.2728C69.7151 31.218 68.4626 30.6906 66.6544 30.6906H64.9592ZM64.9592 22.1298V29.617H67.4454C69.2913 29.617 70.6286 29.2874 71.4574 28.6281C72.305 27.95 72.7288 26.8576 72.7288 25.3507C72.7288 23.5236 72.2391 22.3182 71.2596 21.7342C70.5627 21.3199 69.2725 21.1127 67.3889 21.1127C66.5413 21.1127 66.0516 21.1221 65.9198 21.1409C65.2794 21.2351 64.9592 21.5647 64.9592 22.1298Z" fill="#7FA84C"></path><path d="M88.7683 19.5587C91.5748 19.5587 93.9198 20.5853 95.8033 22.6384C97.6869 24.6915 98.6286 27.3096 98.6286 30.4929C98.6286 33.6573 97.6869 36.266 95.8033 38.3191C93.9198 40.3722 91.6219 41.3988 88.9096 41.3988C86.1973 41.3988 83.9088 40.3628 82.0441 38.2909C80.1793 36.2189 79.247 33.5913 79.247 30.4081C79.247 27.3002 80.1793 24.7197 82.0441 22.6666C83.9276 20.5947 86.169 19.5587 88.7683 19.5587ZM88.9943 20.6606C87.8642 20.6606 86.8471 20.962 85.943 21.5647C85.0577 22.1675 84.3514 23.0339 83.824 24.1641C83.485 24.861 83.2307 25.7463 83.0612 26.8199C82.8916 27.8935 82.8069 29.0802 82.8069 30.3798C82.8069 36.9912 84.8411 40.2969 88.9096 40.2969C90.8873 40.2969 92.4035 39.4775 93.4583 37.8388C94.5319 36.2001 95.0687 33.7891 95.0687 30.6059C95.0687 23.9757 93.0439 20.6606 88.9943 20.6606Z" fill="#7FA84C"></path><path d="M99.8637 33.0639H100.881C101.257 35.2489 102.124 37.0006 103.48 38.3191C104.836 39.6376 106.409 40.2969 108.198 40.2969C109.573 40.2969 110.703 39.8919 111.589 39.082C112.474 38.2532 112.917 37.2549 112.917 36.0871C112.917 35.1641 112.596 34.3919 111.956 33.7703C111.316 33.1299 110.411 32.6778 109.244 32.4141C106.889 31.8867 105.222 31.4441 104.243 31.0862C102.793 30.5588 101.775 29.9372 101.192 29.2214C100.513 28.3927 100.174 27.2531 100.174 25.8028C100.174 24.0134 100.758 22.5253 101.926 21.3387C103.094 20.152 104.573 19.5587 106.362 19.5587C107.341 19.5587 108.217 19.7282 108.989 20.0673C109.78 20.4063 110.572 20.9149 111.363 21.593L112.662 19.7565H113.679L113.764 27.4132H112.832C111.721 22.9115 109.554 20.6606 106.334 20.6606C105.072 20.6606 104.036 21.0373 103.226 21.7908C102.435 22.5253 102.039 23.42 102.039 24.4748C102.039 25.5485 102.406 26.3961 103.141 27.0177C103.706 27.5074 105.147 28.016 107.464 28.5434C109.799 29.0708 111.457 29.6358 112.436 30.2386C114.094 31.2557 114.923 32.7626 114.923 34.7592C114.923 36.6427 114.292 38.2061 113.03 39.4493C111.768 40.6924 110.12 41.314 108.085 41.314C105.957 41.314 104.083 40.6171 102.463 39.2232L100.881 41.1727H99.8637V33.0639Z" fill="#7FA84C"></path><path d="M116.04 21.1127V20.039H132.568L132.992 27.0742H132.031C131.655 24.9834 131.08 23.4671 130.308 22.5253C129.536 21.5836 128.453 21.1127 127.059 21.1127H122.962C122.284 21.1127 121.945 21.4611 121.945 22.158V29.5887H123.753C124.789 29.5887 125.599 29.2403 126.183 28.5434C126.767 27.8464 127.059 26.8011 127.059 25.4072H128.048V35.0982H127.059C127.059 32.1222 125.91 30.6341 123.612 30.6341H121.945V38.9124C121.945 39.534 122.388 39.8448 123.273 39.8448H126.522C130.044 39.8448 132.06 37.6128 132.568 33.1487H133.585L133.246 40.9184H116.04V39.8448H117.453C118.47 39.8448 118.979 39.4681 118.979 38.7147V22.158C118.979 21.4611 118.564 21.1127 117.735 21.1127H116.04Z" fill="#7FA84C"></path><path d="M60.9662 49.9996C60.2932 49.9996 59.7301 49.7663 59.277 49.2997C58.8283 48.8331 58.604 48.2588 58.604 47.5769V47.5634C58.604 46.8859 58.8306 46.3117 59.2837 45.8406C59.7369 45.365 60.3044 45.1272 60.9863 45.1272C61.3856 45.1272 61.7266 45.19 62.0093 45.3156C62.2919 45.4413 62.5634 45.6275 62.8236 45.8742L62.4602 46.2645C62.007 45.8338 61.5135 45.6185 60.9796 45.6185C60.4592 45.6185 60.024 45.8047 59.674 46.1771C59.3286 46.5494 59.1558 47.0071 59.1558 47.55V47.5634C59.1558 48.1108 59.3308 48.5729 59.6808 48.9498C60.0307 49.3222 60.4637 49.5084 60.9796 49.5084C61.2847 49.5084 61.5539 49.4523 61.7872 49.3401C62.0205 49.2279 62.2583 49.0575 62.5005 48.8286L62.8505 49.1719C62.5813 49.4455 62.3009 49.6519 62.0093 49.791C61.7176 49.9301 61.3699 49.9996 60.9662 49.9996Z" fill="#1F332B"></path><path d="M66.0619 49.9189V45.208H68.0875C68.6663 45.208 69.1127 45.365 69.4268 45.679C69.669 45.9213 69.7902 46.2309 69.7902 46.6078V46.6212C69.7902 46.9981 69.6735 47.3032 69.4402 47.5365C69.2069 47.7698 68.8973 47.9223 68.5115 47.9941L69.9584 49.9189H69.3056L67.9395 48.0884H66.5935V49.9189H66.0619ZM66.5935 47.6105H68.0404C68.3993 47.6105 68.691 47.523 68.9153 47.3481C69.1396 47.1731 69.2518 46.9375 69.2518 46.6414V46.628C69.2518 46.3363 69.1441 46.1098 68.9287 45.9482C68.7179 45.7822 68.424 45.6992 68.0471 45.6992H66.5935V47.6105Z" fill="#1F332B"></path><path d="M73.1797 49.9189V45.208H76.5849V45.6925H73.7113V47.301H76.2821V47.7855H73.7113V49.4343H76.6186V49.9189H73.1797Z" fill="#1F332B"></path><path d="M79.9426 49.9189V45.208H81.5779C82.3092 45.208 82.9081 45.4323 83.3747 45.8809C83.8458 46.3251 84.0814 46.8815 84.0814 47.55V47.5634C84.0814 48.2364 83.8458 48.7972 83.3747 49.2459C82.9081 49.6946 82.3092 49.9189 81.5779 49.9189H79.9426ZM81.5779 45.6992H80.4742V49.4276H81.5779C82.1611 49.4276 82.6322 49.2526 82.9911 48.9027C83.3501 48.5527 83.5295 48.1108 83.5295 47.5769V47.5634C83.5295 47.0295 83.3501 46.5853 82.9911 46.2309C82.6322 45.8765 82.1611 45.6992 81.5779 45.6992Z" fill="#1F332B"></path><path d="M87.5084 49.9189V45.208H88.04V49.9189H87.5084Z" fill="#1F332B"></path><path d="M92.899 49.9189V45.6992H91.3108V45.208H95.0189V45.6992H93.4307V49.9189H92.899Z" fill="#1F332B"></path><path d="M104.396 49.9929C103.8 49.9929 103.324 49.8157 102.97 49.4613C102.615 49.1023 102.438 48.5976 102.438 47.947V45.208H102.97V47.9134C102.97 48.4204 103.095 48.8129 103.347 49.0911C103.602 49.3648 103.957 49.5016 104.41 49.5016C104.854 49.5016 105.202 49.3693 105.453 49.1046C105.704 48.8399 105.83 48.454 105.83 47.947V45.208H106.361V47.9066C106.361 48.5796 106.184 49.0956 105.83 49.4545C105.475 49.8135 104.998 49.9929 104.396 49.9929Z" fill="#1F332B"></path><path d="M109.873 49.9189V45.208H110.371L113.339 48.9834V45.208H113.857V49.9189H113.433L110.391 46.0559V49.9189H109.873Z" fill="#1F332B"></path><path d="M117.491 49.9189V45.208H118.023V49.9189H117.491Z" fill="#1F332B"></path><path d="M125.574 49.2863C125.121 49.7619 124.544 49.9996 123.844 49.9996C123.144 49.9996 122.57 49.7641 122.122 49.293C121.673 48.8174 121.449 48.2454 121.449 47.5769V47.5634C121.449 46.8949 121.675 46.3229 122.128 45.8473C122.581 45.3672 123.158 45.1272 123.858 45.1272C124.558 45.1272 125.132 45.365 125.581 45.8406C126.029 46.3117 126.254 46.8815 126.254 47.55V47.5634C126.254 48.2319 126.027 48.8062 125.574 49.2863ZM122.525 48.943C122.88 49.3199 123.324 49.5084 123.858 49.5084C124.392 49.5084 124.831 49.3222 125.177 48.9498C125.527 48.5774 125.702 48.1198 125.702 47.5769V47.5634C125.702 47.0205 125.525 46.5607 125.17 46.1838C124.82 45.8069 124.378 45.6185 123.844 45.6185C123.31 45.6185 122.869 45.8047 122.519 46.1771C122.173 46.5494 122 47.0071 122 47.55V47.5634C122 48.1063 122.175 48.5662 122.525 48.943Z" fill="#1F332B"></path><path d="M129.629 49.9189V45.208H130.127L133.095 48.9834V45.208H133.613V49.9189H133.189L130.148 46.0559V49.9189H129.629Z" fill="#1F332B"></path></svg> 