<svg version="1.1" id="Layer_1" xmlns="http://www.w3.org/2000/svg" xmlns:xlink="http://www.w3.org/1999/xlink" x="0px" y="0px" viewBox="0 0 294 137" style="enable-background:new 0 0 294 137;" xml:space="preserve" width="294"  height="137" >
<style type="text/css">
	.st0{enable-background:new    ;}
	.st1{fill:#2E2D7C;}
	.st2{fill:#8F1B1D;}
	.st3{fill:#FFFFFF;}
</style>
<g class="st0">
	<path class="st1" d="M64.3,91.5v-4.6c2.1,0,4.3-0.2,6.5-0.5c1.1-0.2,1.8-0.5,2.2-0.9s0.8-1.2,1-2.3c0.3-1.6,0.5-7.4,0.7-17.3
		c0.1-7.1,0.2-14.3,0.2-21.7c0-14.5,0-21.9-0.1-22.2s-1.4-0.4-3.9-0.4c-5.1,0-9.5,0.1-13.1,0.4c-2.1,0.2-3.3,0.4-3.6,0.5
		c-0.3,0.2-0.5,0.5-0.6,1s-0.5,3.7-0.9,9.6H48c0.1-7-0.1-13.1-0.5-18.1l0.6-0.4c11.5,0.5,22.7,0.8,33.6,0.8s23-0.3,36.5-0.8l0.6,0.9
		c-0.7,5-1.2,10.9-1.5,17.7h-4.6c-0.3-6.2-0.7-9.5-1-10c-0.3-0.4-0.8-0.7-1.8-0.8c-2.9-0.5-8.7-0.7-17.4-0.7c-0.7,0-1.2,0.1-1.3,0.3
		c-0.1,0.3-0.2,1.2-0.2,2.9l-0.3,37c0,10.7,0.1,17.3,0.3,19.7s0.6,3.9,1.3,4.4c0.5,0.3,3.4,0.7,8.7,1.2v4.6
		c-5.4-0.3-11.1-0.4-17.1-0.4C75.7,91.1,69.2,91.2,64.3,91.5L64.3,91.5z" fill="#2E2D7C"></path>
	<path class="st1" d="M124.2,91.5v-4.6c4.5-0.2,7.1-0.5,7.8-0.9c0.5-0.3,0.9-0.8,1.2-1.4c0.4-0.9,0.7-4,0.8-9.3
		c0.2-8.8,0.3-15.4,0.3-19.9l-0.1-23.2c0-6.2-0.2-9.7-0.6-10.7c-0.2-0.5-0.6-1-1-1.2c-0.7-0.4-3.5-0.9-8.3-1.3v-4.6
		c5.7,0.2,10,0.3,12.7,0.3c3,0,6.5-0.1,10.4-0.3c8.4,10.8,18,22.5,28.6,35.1c7.1,8.4,13.2,15.4,18.3,20.9V48.6
		c0-8.3-0.1-15.4-0.3-21.4c-0.1-3.6-0.4-5.7-0.9-6.6c-0.2-0.4-0.6-0.8-1.2-0.9c-0.6-0.2-3.1-0.4-7.7-0.8v-4.6
		c4,0.2,7.9,0.3,11.9,0.3c5.4,0,10.3-0.1,14.7-0.3v4.6c-4.1,0.3-6.5,0.5-7.4,0.9c-0.5,0.2-0.9,0.4-1.1,0.8c-0.3,0.3-0.5,0.8-0.7,1.3
		c-0.3,0.9-0.4,3.7-0.5,8.5l-0.2,22l-0.1,22.1c0,5.9,0.1,11.9,0.4,17.8l-0.7,0.8c-4.4-0.8-7.6-1.3-9.4-1.6
		C181.7,81.1,170.3,68,157,52.2c-6.7-8-12.2-14.7-16.3-20.1v21.4c0,5.8,0.1,12.8,0.3,21c0.1,6,0.4,9.5,0.8,10.4
		c0.1,0.4,0.4,0.7,0.8,0.9c0.7,0.4,3.3,0.8,7.9,1.1v4.6c-5.9-0.3-10.1-0.4-12.7-0.4C135.7,91.1,131.1,91.2,124.2,91.5z" fill="#2E2D7C"></path>
	<path class="st1" d="M222.4,91.5v-2.6c2.1-1.2,3.7-2.4,4.8-3.4c0.4-5.1,0.7-16.2,0.7-33.5c0-12.5-0.2-21.4-0.5-26.6
		c-0.2-2.8-0.6-4.5-1.2-4.9c-0.8-0.7-3.6-1.2-8.3-1.4v-4.6l10.5,0.1l8.1,0.2c2.4,0,6.1-0.1,10.9-0.2c4.6-0.1,8-0.2,10-0.2
		c8.1,0,13.9,1.4,17.4,4.1s5.3,6.4,5.3,11.1c0,4.8-1.7,8.8-5.2,11.9s-8.4,5.2-14.7,6.6v0.4c6.5,0.7,11.1,1.7,13.7,3s4.7,3.4,6.4,6.2
		c1.6,2.8,2.4,6,2.4,9.5c0,4.4-1.3,8.5-4,12.4s-6.2,6.9-10.5,8.9c-4.4,2.1-10.5,3.1-18.5,3.1c-1.6,0-3.9-0.1-7.1-0.2
		c-2.9-0.1-5.3-0.2-7.2-0.2C233.2,91.1,228.9,91.2,222.4,91.5L222.4,91.5z M243.5,46.1h2.9c6.2,0,10.5-1.1,13-3.4
		c2.5-2.2,3.8-5.7,3.8-10.5c0-4.2-1-7.3-3-9.2s-5.4-3-10-3c-1.7,0-3.8,0.1-6.3,0.4c-0.2,11.2-0.3,18.1-0.3,20.7L243.5,46.1
		L243.5,46.1z M243.7,85.2c2.1,0.5,4.1,0.8,6,0.8c5.2,0,9.2-1.5,11.9-4.5c2.8-3,4.2-7.4,4.2-13.2c0-3.8-0.6-6.9-1.9-9.3
		s-3-4.2-5.2-5.4s-5.4-1.8-9.4-1.8l-5.5,0.1v1.4l-0.1,14.2l0.1,14.4v3.3L243.7,85.2z" fill="#2E2D7C"></path>
</g>
<g class="st0">
	<path class="st1" d="M4.3,19.2v-4.6C12,14.9,18.1,15,22.8,15c6.8,0,13.7-0.1,20.6-0.4v4.6c-1.2,0-3.4,0.2-6.6,0.5
		c-1.3,0.1-2.2,0.4-2.6,0.7s-0.7,0.8-0.9,1.4c-0.3,1.1-0.5,5.1-0.6,12.1l-0.1,22.3L32.4,73c0,9.1-0.2,14.6-0.4,16.4
		c-0.6,4.5-2.3,8.7-5,12.5s-6.5,7.2-11.4,10.2c-3.7,2.2-7.2,3.4-10.7,3.4c-1.1,0-2.5-0.2-4.2-0.7c0.2-2.5,0.3-4.2,0.3-5.1
		s-0.1-2.6-0.3-4.9l1.4-0.6c2.4,2.5,5.2,3.8,8.2,3.8c1.5,0,2.7-0.4,3.5-1.2s1.3-3.1,1.6-7c0.4-5.9,0.6-13.3,0.6-22.2l-0.1-42.5
		c0-7.3-0.2-11.6-0.5-13c-0.2-0.9-0.7-1.5-1.4-1.8C13.4,19.9,10.1,19.5,4.3,19.2L4.3,19.2z" fill="#2E2D7C"></path>
</g>
<rect x="0.4" class="st2" width="293.6" height="6.3" fill="#8F1B1D"></rect>
<rect y="130.7" class="st2" width="293.6" height="6.3" fill="#8F1B1D"></rect>
<path class="st2" d="M34.9,95.8C31.3,106.6,19,117,9.5,118.6c-3.3,0.8-3.2,0.4-4.8,0.5c-1.6,0-3-0.2-4.7-0.9v6.7h293.6V95.8
	C293.6,95.8,34.9,95.8,34.9,95.8z" fill="#8F1B1D"></path>
<g class="st0">
	<path class="st3" d="M36,102.5v-0.8c1.1,0,2,0.1,2.7,0.1c1,0,2,0,3-0.1v0.8c-0.2,0-0.5,0-1,0.1c-0.2,0-0.3,0.1-0.4,0.1
		s-0.1,0.1-0.1,0.2c-0.1,0.2-0.1,0.9-0.1,2.1v3.9v2.9c0,1.6,0,2.5-0.1,2.9c-0.1,0.8-0.3,1.5-0.7,2.2s-0.9,1.3-1.7,1.8
		c-0.5,0.4-1.1,0.6-1.6,0.6c-0.2,0-0.4,0-0.6-0.1v-0.9v-0.9l0.2-0.1c0.4,0.4,0.8,0.7,1.2,0.7c0.2,0,0.4-0.1,0.5-0.2s0.2-0.6,0.2-1.2
		c0.1-1,0.1-2.3,0.1-3.9v-7.4c0-1.3,0-2-0.1-2.3c0-0.2-0.1-0.3-0.2-0.3C37.3,102.6,36.9,102.6,36,102.5z" fill="#FFFFFF"></path>
	<path class="st3" d="M42.8,115.2v-0.8c0.6,0,1-0.1,1.1-0.1c0.1-0.1,0.2-0.2,0.2-0.5c0-0.4,0.1-1.3,0.1-2.7v-1.7v-1.1
		c0-0.4,0-0.6-0.1-0.7s-0.3-0.1-0.6-0.2h-0.6v-0.8c1.4-0.1,2.5-0.4,3.3-0.8l0.2,0.2c-0.1,1.2-0.1,3-0.1,5.4c0,1.4,0,2.2,0.1,2.5
		c0,0.2,0.1,0.3,0.2,0.4s0.4,0.1,1.1,0.2v0.8c-1,0-1.8-0.1-2.3-0.1C44.9,115.1,44.1,115.2,42.8,115.2z M45.1,101.2
		c0.4,0,0.7,0.1,0.9,0.4c0.3,0.3,0.4,0.6,0.4,1.1c0,0.4-0.1,0.8-0.4,1.1s-0.6,0.4-0.9,0.4c-0.4,0-0.7-0.1-0.9-0.4
		c-0.3-0.3-0.4-0.6-0.4-1.1c0-0.4,0.1-0.8,0.4-1.1S44.8,101.2,45.1,101.2z" fill="#FFFFFF"></path>
	<path class="st3" d="M48.5,115.2v-0.8c0.6,0,0.9-0.1,1-0.1c0.1-0.1,0.1-0.2,0.2-0.3c0-0.3,0.1-1.1,0.1-2.2c0-2.5,0-3.8-0.1-4
		c0-0.2-0.2-0.3-0.6-0.3h-0.5v-0.9c0.7-0.1,1.3-0.2,1.8-0.3s0.9-0.3,1.3-0.5h0.2c0.1,0,0.1,0.1,0.1,0.2v0.5v0.5v0.3l1.4-1.2
		c0.3-0.3,0.7-0.4,1.3-0.4s1.1,0.1,1.4,0.4c0.4,0.3,0.6,0.7,0.8,1.3l1.4-1.3c0.3-0.3,0.7-0.4,1.2-0.4c0.9,0,1.5,0.2,1.9,0.7
		s0.6,1.3,0.6,2.4v0.8v2.4c0,0.9,0,1.5,0.1,1.8c0,0.1,0.1,0.3,0.2,0.3c0.1,0.1,0.4,0.1,0.9,0.1v0.8c-0.7,0-1.3-0.1-1.8-0.1
		s-1,0-1.6,0.1l-0.1-0.2c0.1-1.4,0.2-2.7,0.2-4.1c0-1.6-0.1-2.5-0.3-2.9s-0.6-0.6-1.1-0.6c-0.3,0-0.7,0.1-0.9,0.3
		c-0.3,0.2-0.4,0.4-0.5,0.7c-0.1,0.2-0.1,0.7-0.1,1.7c0,1.7,0,2.9,0.1,3.5c0,0.3,0.1,0.5,0.2,0.6s0.4,0.1,1.1,0.2v0.8
		c-0.7,0-1.5-0.1-2.2-0.1c-0.9,0-1.7,0-2.4,0.1v-0.8c0.6,0,0.9-0.1,1-0.3s0.1-1,0.1-2.4c0-1.6,0-2.6-0.1-3s-0.2-0.7-0.4-0.9
		s-0.5-0.3-0.9-0.3c-0.3,0-0.5,0.1-0.8,0.2c-0.2,0.1-0.4,0.4-0.6,0.6c-0.1,0.1-0.1,0.4-0.1,0.7v0.4v1.5v1.1c0,1.1,0,1.7,0.1,1.9
		c0,0.1,0.1,0.2,0.1,0.3c0.1,0.1,0.4,0.1,0.9,0.2v0.8c-0.7,0-1.4-0.1-2.2-0.1C50.5,115.1,49.8,115.2,48.5,115.2L48.5,115.2z" fill="#FFFFFF"></path>
	<path class="st3" d="M70.5,115.2v-0.8c0.3,0,0.7,0,1-0.1c0.2,0,0.3-0.1,0.3-0.2c0.1-0.1,0.1-0.2,0.2-0.4c0-0.3,0.1-1.3,0.1-3v-3.8
		V103c0,0-0.2-0.1-0.6-0.1c-0.8,0-1.5,0-2,0.1c-0.3,0-0.5,0.1-0.6,0.1s-0.1,0.1-0.1,0.2s-0.1,0.6-0.1,1.7H68c0-1.2,0-2.3-0.1-3.2
		l0.1-0.1c1.8,0.1,3.5,0.1,5.2,0.1s3.5,0,5.6-0.1l0.1,0.2c-0.1,0.9-0.2,1.9-0.2,3.1H78c-0.1-1.1-0.1-1.7-0.2-1.8
		c0-0.1-0.1-0.1-0.3-0.1c-0.4-0.1-1.3-0.1-2.7-0.1c-0.1,0-0.2,0-0.2,0.1v0.5l-0.1,6.5v3.5c0,0.4,0.1,0.7,0.2,0.8s0.5,0.1,1.3,0.2
		v0.8c-0.8,0-1.7-0.1-2.6-0.1C72.2,115.1,71.3,115.2,70.5,115.2L70.5,115.2z" fill="#FFFFFF"></path>
	<path class="st3" d="M79.5,115.2v-0.8c0.6,0,1-0.1,1-0.1c0.1,0,0.1-0.1,0.1-0.2c0.1-0.2,0.1-0.8,0.1-1.8v-3.6c0-1.9,0-3.6-0.1-5.2
		c0-0.6-0.1-0.9-0.2-1s-0.4-0.2-1.1-0.2v-0.7c0.3,0,0.8-0.1,1.5-0.2c0.6-0.1,1.2-0.3,1.6-0.5c0.2-0.1,0.3-0.1,0.3-0.1
		c0.1,0,0.1,0.1,0.1,0.2v0.1v0.7l-0.1,3.1v2.6l1.1-1.1c0.2-0.2,0.4-0.4,0.5-0.4c0.3-0.1,0.6-0.2,1-0.2c0.9,0,1.5,0.3,1.9,0.8
		s0.6,1.3,0.6,2.4v3.8c0,0.7,0,1.1,0.1,1.3c0,0.1,0.1,0.2,0.2,0.2c0.1,0.1,0.4,0.1,0.9,0.1v0.8c-0.7,0-1.3-0.1-1.8-0.1s-1,0-1.6,0.1
		l-0.1-0.2c0.1-1.2,0.2-2.5,0.2-3.7c0-1.6-0.1-2.7-0.3-3.1c-0.2-0.5-0.6-0.7-1.2-0.7c-0.3,0-0.7,0.1-0.9,0.3
		c-0.3,0.2-0.5,0.4-0.6,0.7s-0.2,0.7-0.2,1.4v3c0,0.7,0,1.1,0.1,1.2c0,0.1,0.1,0.1,0.1,0.1c0.1,0.1,0.5,0.1,1.1,0.2v0.8
		c-0.6,0-1.3-0.1-2-0.1C81.2,115.1,80.3,115.2,79.5,115.2L79.5,115.2z" fill="#FFFFFF"></path>
	<path class="st3" d="M90.3,110.6c0-1.5,0.3-2.7,0.9-3.4c0.7-0.9,1.8-1.4,3.2-1.4s2.4,0.4,3.1,1.1c0.6,0.7,1,1.9,1,3.4
		c0,1.6-0.4,2.9-1.1,3.7c-0.7,0.9-1.8,1.3-3.1,1.3s-2.3-0.4-3-1.2C90.6,113.4,90.3,112.2,90.3,110.6z M92.6,110
		c0,1.7,0.2,2.9,0.6,3.7c0.3,0.6,0.7,0.8,1.3,0.8c0.5,0,0.9-0.2,1.2-0.7s0.4-1.3,0.4-2.6c0-1.7-0.2-2.9-0.5-3.6
		c-0.3-0.5-0.7-0.8-1.3-0.8c-0.5,0-0.9,0.2-1.2,0.7S92.6,108.8,92.6,110z" fill="#FFFFFF"></path>
	<path class="st3" d="M99.4,115.2v-0.8c0.6,0,0.9-0.1,1-0.1s0.1-0.1,0.2-0.2c0.1-0.2,0.1-0.5,0.1-1v-2.6c0-1.5,0-2.4-0.1-2.6
		c0-0.2-0.1-0.3-0.2-0.3c-0.1-0.1-0.4-0.1-1.1-0.1v-0.9c1.1-0.1,1.9-0.3,2.4-0.5l0.9-0.4c0.1,0,0.1,0.1,0.1,0.2v0.1v1.7
		c0.3-0.3,0.6-0.7,0.9-1.2c0.3-0.4,0.5-0.6,0.7-0.7s0.4-0.2,0.8-0.2c0.2,0,0.4,0,0.5,0.1c-0.1,0.6-0.1,1.5-0.1,2.6l-0.4,0.2
		c-0.1-0.3-0.3-0.4-0.4-0.5c-0.2-0.1-0.4-0.1-0.6-0.1c-0.3,0-0.6,0.1-0.9,0.3c-0.2,0.2-0.4,0.4-0.5,0.7c0,0.2-0.1,0.9-0.1,2
		c0,1.6,0,2.6,0.1,2.9c0,0.2,0.1,0.3,0.2,0.4s0.6,0.2,1.3,0.2v0.8h-0.9h-1.6h-1.4H99.4z" fill="#FFFFFF"></path>
	<path class="st3" d="M106.3,107.4v-0.8c1-0.1,1.8-0.2,2.4-0.5l0.9-0.3c0.1,0,0.1,0.1,0.1,0.2v0.5v0.9l1.4-1.2
		c0.3-0.3,0.8-0.4,1.4-0.4c0.9,0,1.7,0.3,2.3,1s0.9,1.6,0.9,2.7c0,0.6-0.1,1.1-0.2,1.7s-0.3,1-0.5,1.3s-0.5,0.7-1,1.1
		c-0.8,0.8-1.4,1.2-1.5,1.3c-0.3,0.2-0.7,0.3-1.2,0.3c-0.3,0-0.5,0-0.8-0.1s-0.5-0.2-0.7-0.3v2.9c0,0.7,0.1,1.1,0.2,1.2
		s0.5,0.2,1.2,0.2v0.8c-0.9,0-1.6-0.1-2.3-0.1c-1.2,0-2.1,0-2.6,0.1v-0.8c0.6,0,0.9-0.1,1-0.1s0.1-0.1,0.1-0.2
		c0.1-0.2,0.1-0.8,0.1-2c0-1.6,0.1-2.8,0.1-3.6v-3.8c0-1.1,0-1.8-0.1-1.9c0-0.1-0.1-0.1-0.1-0.2
		C107.3,107.4,106.9,107.4,106.3,107.4z M109.7,113.1c0.3,0.4,0.5,0.6,0.8,0.8s0.6,0.3,1,0.3c0.6,0,1-0.3,1.4-0.9s0.6-1.5,0.6-2.7
		c0-1-0.2-1.8-0.6-2.3s-0.9-0.8-1.4-0.8c-0.3,0-0.6,0.1-0.9,0.2c-0.3,0.2-0.6,0.4-0.9,0.7C109.7,108.4,109.7,113.1,109.7,113.1z" fill="#FFFFFF"></path>
	<path class="st3" d="M123.9,113.3l0.2,0.3l-0.4,0.9c-0.4,0.3-0.8,0.5-1.3,0.6s-1,0.2-1.5,0.2c-1.2,0-2.2-0.4-2.9-1.2
		s-1.1-2-1.1-3.4c0-0.9,0.1-1.7,0.3-2.3c0.2-0.5,0.4-0.9,0.8-1.2s0.8-0.6,1.3-0.9s1.1-0.4,1.7-0.4c0.9,0,1.7,0.3,2.3,0.9
		s0.9,1.5,0.9,2.8v0.7l-1.4,0.3H121h-1.8c0.1,1.1,0.4,1.9,0.9,2.5s1.1,0.8,1.9,0.8c0.3,0,0.6-0.1,0.9-0.2
		C123.3,113.7,123.6,113.5,123.9,113.3z M119.2,109.6c0.5,0.1,1,0.1,1.5,0.1c0.4,0,0.9,0,1.4-0.1v-0.5c0-0.8-0.1-1.4-0.4-1.7
		c-0.3-0.4-0.6-0.5-1-0.5c-0.3,0-0.6,0.1-0.8,0.3s-0.4,0.4-0.5,0.7S119.3,108.7,119.2,109.6z" fill="#FFFFFF"></path>
	<path class="st3" d="M129.9,115.2v-0.8c0.7,0,1.1-0.1,1.2-0.2l0.2-0.2c0.1-0.2,0.1-0.7,0.1-1.6v-3.5v-4.1c0-1.1,0-1.7-0.1-1.9
		c0-0.1-0.1-0.2-0.2-0.2c-0.1-0.1-0.5-0.2-1.3-0.2v-0.8h1.9h1.6c1.3,1.9,2.8,3.9,4.4,6.2c1.1,1.5,2,2.7,2.8,3.7v-3.8v-3.7
		c0-0.6-0.1-1-0.1-1.1s-0.1-0.1-0.2-0.2c-0.1,0-0.5-0.1-1.2-0.1v-0.8h1.8h2.2v0.8c-0.6,0-1,0.1-1.1,0.2c-0.1,0-0.1,0.1-0.2,0.1
		c0,0.1-0.1,0.1-0.1,0.2c0,0.2-0.1,0.6-0.1,1.5v3.9v3.9c0,1,0,2.1,0.1,3.1l-0.1,0.1c-0.7-0.1-1.2-0.2-1.4-0.3
		c-1.4-1.8-3.2-4.1-5.2-6.9c-1-1.4-1.9-2.6-2.5-3.5v3.7v3.7c0,1.1,0.1,1.7,0.1,1.8s0.1,0.1,0.1,0.2c0.1,0.1,0.5,0.1,1.2,0.2v0.8
		c-0.9,0-1.6-0.1-1.9-0.1C131.6,115.1,130.9,115.2,129.9,115.2z" fill="#FFFFFF"></path>
	<path class="st3" d="M151.1,113.3l0.2,0.3l-0.4,0.9c-0.4,0.3-0.8,0.5-1.3,0.6s-1,0.2-1.5,0.2c-1.2,0-2.2-0.4-2.9-1.2
		s-1.1-2-1.1-3.4c0-0.9,0.1-1.7,0.3-2.3c0.2-0.5,0.4-0.9,0.8-1.2s0.8-0.6,1.3-0.9s1.1-0.4,1.7-0.4c0.9,0,1.7,0.3,2.3,0.9
		s0.9,1.5,0.9,2.8v0.7l-1.4,0.3h-1.8h-1.8c0.1,1.1,0.4,1.9,0.9,2.5s1.1,0.8,1.9,0.8c0.3,0,0.6-0.1,0.9-0.2
		C150.5,113.7,150.8,113.5,151.1,113.3L151.1,113.3z M146.5,109.6c0.5,0.1,1,0.1,1.5,0.1c0.4,0,0.9,0,1.4-0.1v-0.5
		c0-0.8-0.1-1.4-0.4-1.7c-0.3-0.4-0.6-0.5-1-0.5c-0.3,0-0.6,0.1-0.8,0.3s-0.4,0.4-0.5,0.7S146.5,108.7,146.5,109.6z" fill="#FFFFFF"></path>
	<path class="st3" d="M152.8,115.2v-0.8c0.6,0,1-0.1,1.1-0.1c0.1-0.1,0.2-0.2,0.2-0.5c0-0.4,0.1-1.3,0.1-2.7v-1.7v-1.1
		c0-0.4,0-0.6-0.1-0.7s-0.3-0.1-0.6-0.2h-0.6v-0.8c1.4-0.1,2.5-0.4,3.3-0.8l0.2,0.2c-0.1,1.2-0.1,3-0.1,5.4c0,1.4,0,2.2,0.1,2.5
		c0,0.2,0.1,0.3,0.2,0.4s0.4,0.1,1.1,0.2v0.8c-1,0-1.8-0.1-2.3-0.1C154.9,115.1,154.1,115.2,152.8,115.2L152.8,115.2z M155.1,101.2
		c0.4,0,0.7,0.1,0.9,0.4c0.3,0.3,0.4,0.6,0.4,1.1c0,0.4-0.1,0.8-0.4,1.1s-0.6,0.4-0.9,0.4c-0.4,0-0.7-0.1-0.9-0.4
		c-0.3-0.3-0.4-0.6-0.4-1.1c0-0.4,0.1-0.8,0.4-1.1S154.7,101.2,155.1,101.2z" fill="#FFFFFF"></path>
	<path class="st3" d="M167.1,107.8h-1.4c0.1,0.3,0.1,0.6,0.1,0.9c0,1.2-0.4,2.1-1.1,2.6c-0.7,0.6-1.6,0.9-2.6,0.9h-0.7
		c-0.3,0.2-0.4,0.3-0.5,0.4s-0.1,0.2-0.1,0.3c0,0.3,0.2,0.5,0.6,0.6c0.2,0,1.3,0.1,3.4,0.1c0.7,0,1.2,0.1,1.4,0.2
		c0.3,0.1,0.5,0.4,0.7,0.7c0.2,0.4,0.3,0.8,0.3,1.4c0,1.3-0.4,2.4-1.3,3.2c-0.9,0.9-2.1,1.3-3.6,1.3c-1.3,0-2.2-0.3-2.9-0.8
		c-0.6-0.5-0.9-1.2-0.9-2c0-0.5,0.1-0.8,0.3-1.2c0.1-0.1,0.4-0.4,0.9-0.7l0.6-0.4c-0.5-0.1-0.8-0.2-0.9-0.4
		c-0.2-0.2-0.2-0.4-0.2-0.7s0.1-0.8,0.3-1.3l0.3-0.2c0.3-0.2,0.6-0.5,0.9-0.8c-0.6-0.3-1.1-0.6-1.4-1.1s-0.4-1-0.4-1.7
		c0-1,0.3-1.8,1-2.4s1.6-0.9,2.8-0.9c0.6,0,1.1,0.1,1.6,0.2c0.3,0.1,0.7,0.3,1,0.5c1.2,0,2,0,2.4-0.1l0.1,0.2
		C167.6,107,167.4,107.3,167.1,107.8L167.1,107.8z M161.2,115.4c-0.5,0.4-0.8,0.7-0.9,1s-0.2,0.6-0.2,0.9c0,0.6,0.2,1.1,0.6,1.5
		s1,0.6,1.9,0.6c0.6,0,1.1-0.1,1.5-0.3s0.7-0.5,0.9-0.9s0.3-0.8,0.3-1.2s-0.1-0.8-0.3-1.1c-0.1-0.2-0.3-0.3-0.5-0.4
		s-0.8-0.1-1.9-0.1H161.2L161.2,115.4z M161,108.6c0,1,0.1,1.6,0.4,2c0.2,0.4,0.6,0.6,1.1,0.6c0.4,0,0.8-0.2,1-0.5s0.4-0.9,0.4-1.6
		c0-0.8-0.1-1.4-0.4-1.8s-0.6-0.6-1-0.6s-0.8,0.2-1,0.5S161,108,161,108.6z" fill="#FFFFFF"></path>
	<path class="st3" d="M167.9,115.2v-0.8c0.6,0,1-0.1,1-0.1c0.1,0,0.1-0.1,0.1-0.2c0.1-0.2,0.1-0.8,0.1-1.8v-3.6c0-1.9,0-3.6-0.1-5.2
		c0-0.6-0.1-0.9-0.2-1s-0.4-0.2-1.1-0.2v-0.7c0.3,0,0.8-0.1,1.5-0.2c0.6-0.1,1.2-0.3,1.6-0.5c0.2-0.1,0.3-0.1,0.3-0.1
		c0.1,0,0.1,0.1,0.1,0.2v0.1v0.7l-0.1,3.1v2.6l1.1-1.1c0.2-0.2,0.4-0.4,0.5-0.4c0.3-0.1,0.6-0.2,1-0.2c0.9,0,1.5,0.3,1.9,0.8
		s0.6,1.3,0.6,2.4v3.8c0,0.7,0,1.1,0.1,1.3c0,0.1,0.1,0.2,0.2,0.2c0.1,0.1,0.4,0.1,0.9,0.1v0.8c-0.7,0-1.3-0.1-1.8-0.1s-1,0-1.6,0.1
		l-0.1-0.2c0.1-1.2,0.2-2.5,0.2-3.7c0-1.6-0.1-2.7-0.3-3.1c-0.2-0.5-0.6-0.7-1.2-0.7c-0.3,0-0.7,0.1-0.9,0.3
		c-0.3,0.2-0.5,0.4-0.6,0.7s-0.2,0.7-0.2,1.4v3c0,0.7,0,1.1,0.1,1.2c0,0.1,0.1,0.1,0.1,0.1c0.1,0.1,0.5,0.1,1.1,0.2v0.8
		c-0.6,0-1.3-0.1-2-0.1C169.6,115.1,168.7,115.2,167.9,115.2L167.9,115.2z" fill="#FFFFFF"></path>
	<path class="st3" d="M180.1,115.4l-0.4-0.2c0.1-1.6,0.2-3.7,0.2-6.5v-2.9v-2.5c0-0.4,0-0.6-0.1-0.8c0-0.1-0.1-0.1-0.2-0.2
		c-0.1,0-0.4-0.1-1-0.1v-0.7c0.3,0,0.8-0.1,1.5-0.2c0.7-0.2,1.2-0.3,1.5-0.5l0.4-0.2c0.1,0,0.2,0.1,0.2,0.2v1c0,0.3,0,2.2-0.1,5.5
		l1-1c0.3-0.3,0.6-0.5,0.9-0.6s0.6-0.2,0.9-0.2c0.9,0,1.7,0.3,2.3,1s0.9,1.6,0.9,2.7c0,0.5-0.1,1.1-0.2,1.7
		c-0.2,0.6-0.4,1.1-0.6,1.4c-0.2,0.4-0.5,0.7-0.9,1c-0.5,0.3-0.9,0.7-1.2,0.9c-0.4,0.3-0.7,0.6-1,0.7s-0.6,0.2-1,0.2
		s-0.7-0.1-1.1-0.2c-0.3-0.1-0.7-0.3-1.1-0.6C180.7,114.8,180.4,115,180.1,115.4L180.1,115.4z M181.9,108.6v4.4
		c0.2,0.4,0.5,0.6,0.7,0.8c0.3,0.2,0.6,0.3,1,0.3c0.6,0,1.1-0.3,1.5-0.8s0.6-1.4,0.6-2.5s-0.2-1.8-0.6-2.4c-0.4-0.5-0.9-0.8-1.5-0.8
		c-0.3,0-0.6,0.1-0.9,0.3C182.4,108,182.1,108.2,181.9,108.6z" fill="#FFFFFF"></path>
	<path class="st3" d="M189.3,110.6c0-1.5,0.3-2.7,0.9-3.4c0.7-0.9,1.8-1.4,3.2-1.4s2.4,0.4,3.1,1.1c0.6,0.7,1,1.9,1,3.4
		c0,1.6-0.4,2.9-1.1,3.7c-0.7,0.9-1.8,1.3-3.1,1.3s-2.3-0.4-3-1.2C189.6,113.4,189.3,112.2,189.3,110.6L189.3,110.6z M191.6,110
		c0,1.7,0.2,2.9,0.6,3.7c0.3,0.6,0.7,0.8,1.3,0.8c0.5,0,0.9-0.2,1.2-0.7s0.4-1.3,0.4-2.6c0-1.7-0.2-2.9-0.5-3.6
		c-0.3-0.5-0.7-0.8-1.3-0.8c-0.5,0-0.9,0.2-1.2,0.7C191.7,108,191.6,108.8,191.6,110z" fill="#FFFFFF"></path>
	<path class="st3" d="M198.3,115.2v-0.8c0.6,0,0.9-0.1,1-0.1s0.1-0.1,0.2-0.2c0.1-0.2,0.1-0.5,0.1-1v-2.6c0-1.5,0-2.4-0.1-2.6
		c0-0.2-0.1-0.3-0.2-0.3c-0.1-0.1-0.4-0.1-1.1-0.1v-0.9c1.1-0.1,1.9-0.3,2.4-0.5l0.9-0.4c0.1,0,0.1,0.1,0.1,0.2v0.1v1.7
		c0.3-0.3,0.6-0.7,0.9-1.2c0.3-0.4,0.5-0.6,0.7-0.7s0.4-0.2,0.8-0.2c0.2,0,0.4,0,0.5,0.1c-0.1,0.6-0.1,1.5-0.1,2.6l-0.4,0.2
		c-0.1-0.3-0.3-0.4-0.4-0.5c-0.2-0.1-0.4-0.1-0.6-0.1c-0.3,0-0.6,0.1-0.9,0.3c-0.2,0.2-0.4,0.4-0.5,0.7c0,0.2-0.1,0.9-0.1,2
		c0,1.6,0,2.6,0.1,2.9c0,0.2,0.1,0.3,0.2,0.4s0.6,0.2,1.3,0.2v0.8h-0.9h-1.6h-1.4H198.3z" fill="#FFFFFF"></path>
	<path class="st3" d="M205.2,115.2v-0.8c0.6,0,1-0.1,1-0.1c0.1,0,0.1-0.1,0.1-0.2c0.1-0.2,0.1-0.8,0.1-1.8v-3.6c0-1.9,0-3.6-0.1-5.2
		c0-0.6-0.1-0.9-0.2-1s-0.4-0.2-1.1-0.2v-0.7c0.3,0,0.8-0.1,1.5-0.2c0.6-0.1,1.2-0.3,1.6-0.5c0.2-0.1,0.3-0.1,0.3-0.1
		c0.1,0,0.1,0.1,0.1,0.2v0.1v0.7l-0.1,3.1v2.6l1.1-1.1c0.2-0.2,0.4-0.4,0.5-0.4c0.3-0.1,0.6-0.2,1-0.2c0.9,0,1.5,0.3,1.9,0.8
		s0.6,1.3,0.6,2.4v3.8c0,0.7,0,1.1,0.1,1.3c0,0.1,0.1,0.2,0.2,0.2c0.1,0.1,0.4,0.1,0.9,0.1v0.8c-0.7,0-1.3-0.1-1.8-0.1s-1,0-1.6,0.1
		l-0.1-0.2c0.1-1.2,0.2-2.5,0.2-3.7c0-1.6-0.1-2.7-0.3-3.1c-0.2-0.5-0.6-0.7-1.2-0.7c-0.3,0-0.7,0.1-0.9,0.3
		c-0.3,0.2-0.5,0.4-0.6,0.7s-0.2,0.7-0.2,1.4v3c0,0.7,0,1.1,0.1,1.2c0,0.1,0.1,0.1,0.1,0.1c0.1,0.1,0.5,0.1,1.1,0.2v0.8
		c-0.6,0-1.3-0.1-2-0.1C206.9,115.1,206,115.2,205.2,115.2L205.2,115.2z" fill="#FFFFFF"></path>
	<path class="st3" d="M216,110.6c0-1.5,0.3-2.7,0.9-3.4c0.7-0.9,1.8-1.4,3.2-1.4s2.4,0.4,3.1,1.1c0.6,0.7,1,1.9,1,3.4
		c0,1.6-0.4,2.9-1.1,3.7c-0.7,0.9-1.8,1.3-3.1,1.3s-2.3-0.4-3-1.2C216.4,113.4,216,112.2,216,110.6L216,110.6z M218.4,110
		c0,1.7,0.2,2.9,0.6,3.7c0.3,0.6,0.7,0.8,1.3,0.8c0.5,0,0.9-0.2,1.2-0.7s0.4-1.3,0.4-2.6c0-1.7-0.2-2.9-0.5-3.6
		c-0.3-0.5-0.7-0.8-1.3-0.8c-0.5,0-0.9,0.2-1.2,0.7C218.5,108,218.4,108.8,218.4,110z" fill="#FFFFFF"></path>
	<path class="st3" d="M225.6,110.6c0-1.5,0.3-2.7,0.9-3.4c0.7-0.9,1.8-1.4,3.2-1.4s2.4,0.4,3.1,1.1c0.6,0.7,1,1.9,1,3.4
		c0,1.6-0.4,2.9-1.1,3.7c-0.7,0.9-1.8,1.3-3.1,1.3s-2.3-0.4-3-1.2C226,113.4,225.6,112.2,225.6,110.6L225.6,110.6z M228,110
		c0,1.7,0.2,2.9,0.6,3.7c0.3,0.6,0.7,0.8,1.3,0.8c0.5,0,0.9-0.2,1.2-0.7s0.4-1.3,0.4-2.6c0-1.7-0.2-2.9-0.5-3.6
		c-0.3-0.5-0.7-0.8-1.3-0.8c-0.5,0-0.9,0.2-1.2,0.7C228.1,108,228,108.8,228,110z" fill="#FFFFFF"></path>
	<path class="st3" d="M241.3,106.2v-1.6c0-1,0-1.6-0.1-1.8c0-0.1-0.1-0.2-0.2-0.3c-0.1,0-0.5-0.1-1.1-0.1v-0.7
		c1.3-0.2,2.5-0.5,3.4-0.9l0.2,0.2c-0.1,1-0.1,2-0.1,2.9l-0.1,7.6c0,1.3,0,2,0.1,2.3c0,0.2,0.1,0.3,0.2,0.4s0.4,0.1,1,0.2v0.8
		c-0.7,0-1.4-0.1-2-0.1c-0.5,0-0.9,0-1.3,0.1l-0.1-0.1c0.1-0.6,0.1-1.2,0.2-1.6c-0.4,0.3-1,0.9-1.8,1.7c-0.3,0.1-0.6,0.2-0.9,0.2
		c-0.9,0-1.7-0.4-2.3-1.2s-0.9-1.9-0.9-3.2c0-0.6,0.1-1.2,0.2-1.8c0.1-0.5,0.3-0.9,0.4-1.2s0.5-0.6,1-1c0.7-0.6,1.2-0.9,1.5-1.1
		c0.3-0.1,0.7-0.2,1.1-0.2c0.3,0,0.6,0,0.8,0.1C240.7,106,241,106.1,241.3,106.2L241.3,106.2z M241.3,108.3c-0.3-0.4-0.6-0.8-0.9-1
		s-0.7-0.3-1.1-0.3c-0.6,0-1,0.2-1.3,0.7s-0.5,1.3-0.5,2.4s0.2,2,0.6,2.6s0.9,0.8,1.4,0.8c0.4,0,0.8-0.1,1.1-0.4s0.5-0.5,0.6-0.7
		s0.1-1,0.1-2.5L241.3,108.3L241.3,108.3z" fill="#FFFFFF"></path>
	<path class="st3" d="M250.6,115.2v-0.5c0.3-0.2,0.6-0.4,0.7-0.6c0.1-0.9,0.1-2.8,0.1-5.9c0-2.2,0-3.8-0.1-4.7
		c0-0.5-0.1-0.8-0.2-0.9s-0.5-0.2-1.3-0.2v-0.8h1.6h1.2h1.7h1.5c1.2,0,2.1,0.2,2.7,0.7c0.5,0.5,0.8,1.1,0.8,2s-0.3,1.5-0.8,2.1
		c-0.5,0.5-1.3,0.9-2.2,1.2v0.1c1,0.1,1.7,0.3,2.1,0.5s0.7,0.6,1,1.1c0.2,0.5,0.4,1,0.4,1.7c0,0.8-0.2,1.5-0.6,2.2s-0.9,1.2-1.6,1.6
		s-1.6,0.5-2.8,0.5h-1.1h-1.1C252.3,115.1,251.6,115.2,250.6,115.2L250.6,115.2z M253.8,107.2h0.4c0.9,0,1.6-0.2,2-0.6
		s0.6-1,0.6-1.8c0-0.7-0.2-1.3-0.5-1.6s-0.8-0.5-1.5-0.5c-0.3,0-0.6,0-1,0.1c0,2-0.1,3.2-0.1,3.6L253.8,107.2z M253.9,114.1
		c0.3,0.1,0.6,0.1,0.9,0.1c0.8,0,1.4-0.3,1.8-0.8s0.6-1.3,0.6-2.3c0-0.7-0.1-1.2-0.3-1.6s-0.5-0.7-0.8-0.9s-0.8-0.3-1.4-0.3h-0.8
		v0.3v2.5v2.5L253.9,114.1L253.9,114.1z" fill="#FFFFFF"></path>
	<path class="st3" d="M269,114.4v0.8h-0.6h-1c-0.5,0-1,0-1.5,0.1l-0.1-0.1l0.1-1.3l-1.8,1.5c-0.3,0.1-0.6,0.1-0.8,0.1
		c-0.6,0-1.1-0.2-1.4-0.6s-0.5-1-0.5-1.8c0-1,0.2-1.6,0.7-2c0.6-0.5,1.8-1,3.8-1.4c0-0.8-0.1-1.3-0.3-1.7c-0.3-0.5-0.8-0.7-1.4-0.7
		c-0.2,0-0.3,0-0.5,0.1s-0.3,0.1-0.5,0.2l-0.4,1l-0.6-0.2V108v-0.4v-0.4c0.9-0.6,1.5-1,1.8-1.1s0.7-0.2,1.1-0.2
		c0.7,0,1.2,0.1,1.6,0.3s0.7,0.5,0.9,0.9s0.3,1,0.3,1.7v1.7v2c0,0.8,0,1.3,0.1,1.5c0,0.1,0.1,0.2,0.2,0.2
		C268.2,114.3,268.5,114.4,269,114.4L269,114.4z M265.9,110.4c-1,0.2-1.6,0.5-1.9,0.8s-0.4,0.7-0.4,1.2c0,0.4,0.1,0.7,0.3,0.9
		s0.4,0.3,0.7,0.3c0.4,0,0.9-0.3,1.4-0.9v-2.3H265.9z" fill="#FFFFFF"></path>
	<path class="st3" d="M269.9,115.2v-0.8c0.6,0,1-0.1,1-0.2s0.1-0.2,0.1-0.5v-3.4v-2.1c0-0.4,0-0.6-0.1-0.6c0-0.1-0.1-0.1-0.1-0.1
		c-0.1,0-0.4,0-1-0.1v-0.8c0.3,0,0.8-0.1,1.4-0.2s1.2-0.3,1.6-0.5l0.2-0.1c0.1,0,0.1,0.1,0.1,0.2v0.1v1.4l1.3-1.3
		c0.2-0.2,0.3-0.3,0.5-0.3c0.2-0.1,0.5-0.1,0.9-0.1c0.6,0,1.1,0.1,1.5,0.4c0.4,0.2,0.7,0.6,0.8,1s0.3,1.1,0.3,1.9v1.3v2.7
		c0,0.4,0,0.7,0.1,0.9c0,0.1,0.1,0.2,0.2,0.2s0.4,0.1,0.9,0.1v0.8h-1h-0.7l-1.7,0.1l-0.1-0.1c0.1-1.2,0.2-2.5,0.2-3.8
		c0-1.6-0.1-2.6-0.3-3c-0.2-0.5-0.6-0.7-1.2-0.7c-0.4,0-0.7,0.1-1,0.3s-0.5,0.5-0.5,0.7c0,0.1-0.1,0.4-0.1,1v4
		c0,0.3,0.1,0.5,0.1,0.6c0.1,0.1,0.5,0.2,1.1,0.2v0.8c-1,0-1.8-0.1-2.5-0.1C271.7,115.1,270.9,115.2,269.9,115.2L269.9,115.2z" fill="#FFFFFF"></path>
	<path class="st3" d="M280.3,115.2v-0.8c0.6,0,0.9-0.1,1.1-0.1c0,0,0.1-0.1,0.1-0.2s0.1-0.8,0.1-1.9v-3.6v-3.9c0-1.1,0-1.8-0.1-1.9
		c0-0.1-0.1-0.2-0.2-0.3s-0.4-0.1-1-0.1v-0.7c0.7-0.1,1.4-0.2,1.8-0.3c0.5-0.1,0.9-0.3,1.3-0.5c0.1-0.1,0.2-0.1,0.2-0.1
		c0.1,0,0.1,0.1,0.1,0.3v0.4c0,0.5,0,2.3-0.1,5.4v2.7v0.5c1.2-1.1,2.4-2.5,3.7-4.2c0.4,0,0.8,0.1,1.1,0.1c0.4,0,0.8,0,1.2-0.1v0.8
		c-0.6,0-1,0.1-1.1,0.1s-0.3,0.2-0.6,0.4s-1,0.9-2.1,2.1l1.2,1.6c1.4,1.8,2.2,2.8,2.5,3.1c0.2,0.2,0.4,0.3,0.7,0.3v0.8
		c-0.6,0-1.2-0.1-1.7-0.1c-0.4,0-0.8,0-1.2,0.1c-0.6-0.8-1.1-1.6-1.7-2.3c-0.8-1-1.4-1.7-1.9-2.3v1.6c0,0.9,0,1.5,0.1,1.8
		c0,0.1,0.1,0.2,0.2,0.3s0.4,0.1,1,0.1v0.8c-1.1,0-1.8-0.1-2.2-0.1C282.5,115.1,281.7,115.2,280.3,115.2z" fill="#FFFFFF"></path>
</g>
</svg>