<svg xmlns="http://www.w3.org/2000/svg" xmlns:xlink="http://www.w3.org/1999/xlink" width="123.35" height="90.118" viewBox="0 0 123.35 90.118"><defs><clipPath id="a"><rect width="123.35" height="90.118" fill="#00824b"/></clipPath></defs><path d="M13.782,4.922l3.038,8.39H10.711ZM11.668,0,3.279,22.46H7.473l2.016-5.549h8.553l2.016,5.549h4.195L15.863,0Z" transform="translate(-0.439)" fill="#00824b"/><path d="M48.837,0,41.7,17.671,34.6,0H30.044V22.46h3.765V6.9L40.052,22.46h3.3L49.6,6.9V22.46h3.764V0Z" transform="translate(-4.021 0)" fill="#00824b"/><g clip-path="url(#a)"><path d="M62.453,0h7.2c3.964,0,6.87,2.313,6.87,5.913a5.164,5.164,0,0,1-2.94,4.987,5.536,5.536,0,0,1,3.6,5.417c0,3.764-3.072,6.143-7.267,6.143H62.453Zm7.2,3.6H66.217V9.116h3.435c1.652,0,3.006-.825,3.006-2.741A2.7,2.7,0,0,0,69.653,3.6m.264,9.149h-3.7V18.86h3.7c1.883,0,3.4-.958,3.4-3.039,0-2.113-1.519-3.071-3.4-3.071" transform="translate(-8.358)" fill="#00824b"/><path d="M83.423,22.46V0h3.765V18.86h8.653v3.6Z" transform="translate(-11.164 0)" fill="#00824b"/><path d="M100.847,22.46V0h12.418V3.6h-8.653V9.348h7.993v3.6h-7.993V18.86h8.653v3.6Z" transform="translate(-13.496 0)" fill="#00824b"/><path d="M119.872,0h7.2c4.261,0,7.233,2.378,7.233,6.407a5.623,5.623,0,0,1-4.36,5.747c2.775,1.355,4.757,5.219,5.417,10.3h-3.9c-.891-5.252-3.269-8.884-6.109-8.884h-1.718V22.46h-3.764Zm7.167,3.6h-3.4V9.976h3.4A3.055,3.055,0,0,0,130.408,6.8a3.079,3.079,0,0,0-3.369-3.2" transform="translate(-16.042 0)" fill="#00824b"/><path d="M12.255,34.5a8.452,8.452,0,0,0-4.89-1.685c-2.146,0-3.335,1.057-3.335,2.544,0,.957.627,1.751,1.849,2.51l3.434,2.146c2.874,1.718,3.964,3.534,3.964,5.978,0,3.369-2.378,6.441-7.331,6.441A13.038,13.038,0,0,1,.331,51.143V46.915A9.208,9.208,0,0,0,5.78,48.864c2.279,0,3.467-1.188,3.467-2.675,0-.991-.627-1.85-2.081-2.741L3.667,41.3C.892,39.682,0,37.866,0,35.488c0-3.006,1.982-6.243,7.432-6.243A10.936,10.936,0,0,1,12.255,30.4Z" transform="translate(0 -3.914)" fill="#00824b"/><path d="M30.663,46.574H22.108l-2.015,5.55H15.9l8.388-22.46h4.2l8.389,22.46H32.678Zm-7.332-3.6H29.44L26.4,34.585Z" transform="translate(-2.128 -3.97)" fill="#00824b"/><path d="M38.2,29.664H42.4l6.308,18.067,6.275-18.067h4.195l-8.39,22.46H46.593Z" transform="translate(-5.113 -3.97)" fill="#00824b"/><rect width="3.765" height="22.46" transform="translate(56.275 25.694)" fill="#00824b"/><path d="M78.413,37.591V52.124H74.648V32.34l-1.519-2.379v-.3H77.62L88.982,45.617V29.664h3.766v22.46H88.982Z" transform="translate(-9.786 -3.97)" fill="#00824b"/><path d="M117.391,34.562a12.46,12.46,0,0,0-6.111-1.552,7.6,7.6,0,0,0-7.828,7.828,7.535,7.535,0,0,0,7.432,7.828c4.195,0,6.771-2.906,6.771-6.176a6.377,6.377,0,0,0-.033-.793h-6.9v-3.4h10.767a17.071,17.071,0,0,1,.263,3.105c0,5.977-3.93,11.031-10.965,11.031-6.508,0-11.2-5.086-11.2-11.593a11.328,11.328,0,0,1,11.692-11.593,15.213,15.213,0,0,1,6.111,1.189Z" transform="translate(-13.328 -3.914)" fill="#00824b"/><path d="M139.334,34.5a8.449,8.449,0,0,0-4.889-1.685c-2.146,0-3.336,1.057-3.336,2.544,0,.957.627,1.751,1.849,2.51l3.434,2.146c2.874,1.718,3.964,3.534,3.964,5.978,0,3.369-2.378,6.441-7.332,6.441a13.038,13.038,0,0,1-5.615-1.289V46.915a9.212,9.212,0,0,0,5.449,1.949c2.28,0,3.468-1.188,3.468-2.675,0-.991-.627-1.85-2.081-2.741l-3.5-2.147c-2.774-1.618-3.666-3.434-3.666-5.813,0-3.006,1.982-6.243,7.432-6.243a10.929,10.929,0,0,1,4.822,1.156Z" transform="translate(-17.007 -3.914)" fill="#00824b"/><path d="M28.063,59.327h7.2c3.964,0,6.87,2.313,6.87,5.913a5.164,5.164,0,0,1-2.94,4.987,5.536,5.536,0,0,1,3.6,5.417c0,3.764-3.072,6.143-7.267,6.143H28.063Zm7.2,3.6H31.827v5.517h3.435c1.652,0,3.006-.825,3.006-2.741a2.7,2.7,0,0,0-3.006-2.775m.264,9.149h-3.7v6.111h3.7c1.883,0,3.4-.958,3.4-3.039,0-2.113-1.519-3.071-3.4-3.071" transform="translate(-3.756 -7.939)" fill="#00824b"/><path d="M60.441,76.238H51.887l-2.015,5.55H45.677l8.389-22.46h4.195l8.39,22.46H62.456Zm-7.332-3.6h6.11l-3.039-8.39Z" transform="translate(-6.113 -7.94)" fill="#00824b"/><path d="M76.087,67.255V81.787H72.322V62L70.8,59.625v-.3h4.492L86.656,75.281V59.327h3.766v22.46H86.656Z" transform="translate(-9.475 -7.94)" fill="#00824b"/><path d="M98.941,59.328h3.765V69.368l7.068-10.041H114.2l-6.507,9.215,6.838,13.245h-4.425l-5.087-10.074-2.312,3.105v6.969H98.941Z" transform="translate(-13.241 -7.94)" fill="#00824b"/><path d="M28.075,102.545V93.956h5.793V94.97H29.212v2.66h4.03v1.014h-4.03v3.9Z" transform="translate(-3.757 -12.574)" fill="#00824b"/><path d="M35.861,99.779a3.209,3.209,0,0,1,.961-2.56,2.9,2.9,0,0,1,1.957-.691,2.793,2.793,0,0,1,2.1.84,3.2,3.2,0,0,1,.814,2.323,4.109,4.109,0,0,1-.361,1.89,2.553,2.553,0,0,1-1.047,1.069,3.059,3.059,0,0,1-1.5.38,2.8,2.8,0,0,1-2.112-.837,3.347,3.347,0,0,1-.806-2.414m1.084,0a2.648,2.648,0,0,0,.522,1.79,1.737,1.737,0,0,0,2.618,0,2.715,2.715,0,0,0,.521-1.822,2.574,2.574,0,0,0-.525-1.749,1.738,1.738,0,0,0-2.615,0,2.634,2.634,0,0,0-.522,1.787" transform="translate(-4.799 -12.918)" fill="#00824b"/><path d="M48.355,102.911V102a2.279,2.279,0,0,1-1.975,1.054,2.518,2.518,0,0,1-1.028-.21,1.7,1.7,0,0,1-.709-.53,1.977,1.977,0,0,1-.326-.782,5.411,5.411,0,0,1-.064-.984V96.689h1.054v3.451a6.1,6.1,0,0,0,.065,1.113,1.1,1.1,0,0,0,.422.653,1.311,1.311,0,0,0,.8.237,1.729,1.729,0,0,0,.89-.243,1.354,1.354,0,0,0,.589-.662,3.321,3.321,0,0,0,.172-1.215V96.689H49.3v6.222Z" transform="translate(-5.922 -12.939)" fill="#00824b"/><path d="M52.249,102.889V96.667H53.2v.884a2.236,2.236,0,0,1,1.98-1.025,2.587,2.587,0,0,1,1.033.2,1.632,1.632,0,0,1,.707.53,2.048,2.048,0,0,1,.328.779,6.172,6.172,0,0,1,.058,1.026v3.826H56.251V99.1a2.859,2.859,0,0,0-.123-.964,1.012,1.012,0,0,0-.437-.509,1.388,1.388,0,0,0-.735-.191,1.71,1.71,0,0,0-1.163.428,2.107,2.107,0,0,0-.489,1.622v3.4Z" transform="translate(-6.992 -12.918)" fill="#00824b"/><path d="M64.193,102.545v-.785a1.935,1.935,0,0,1-1.74.925,2.444,2.444,0,0,1-1.368-.41,2.688,2.688,0,0,1-.967-1.145,3.959,3.959,0,0,1-.343-1.691,4.422,4.422,0,0,1,.31-1.69,2.459,2.459,0,0,1,.932-1.163,2.49,2.49,0,0,1,1.388-.4,2.068,2.068,0,0,1,1,.237,2.093,2.093,0,0,1,.715.618V93.956h1.049v8.589ZM60.86,99.44a2.7,2.7,0,0,0,.5,1.787,1.518,1.518,0,0,0,1.189.592,1.491,1.491,0,0,0,1.175-.565,2.606,2.606,0,0,0,.483-1.725,2.926,2.926,0,0,0-.492-1.875,1.517,1.517,0,0,0-1.214-.6,1.457,1.457,0,0,0-1.174.573,2.834,2.834,0,0,0-.472,1.81" transform="translate(-8 -12.574)" fill="#00824b"/><path d="M72.387,100.886l1.091.135a2.664,2.664,0,0,1-.955,1.482,2.873,2.873,0,0,1-1.782.527,2.841,2.841,0,0,1-2.164-.84,3.281,3.281,0,0,1-.8-2.359,3.437,3.437,0,0,1,.808-2.437,2.739,2.739,0,0,1,2.1-.867,2.66,2.66,0,0,1,2.038.85,3.375,3.375,0,0,1,.791,2.39c0,.063,0,.156-.006.282H68.867a2.385,2.385,0,0,0,.579,1.57,1.724,1.724,0,0,0,1.3.545,1.611,1.611,0,0,0,.989-.3,2.012,2.012,0,0,0,.65-.973m-3.461-1.7H72.4A2.106,2.106,0,0,0,72,98a1.616,1.616,0,0,0-1.305-.609,1.676,1.676,0,0,0-1.222.486,1.924,1.924,0,0,0-.547,1.3" transform="translate(-9.07 -12.918)" fill="#00824b"/><path d="M80.127,102.545v-.785a1.935,1.935,0,0,1-1.74.925,2.444,2.444,0,0,1-1.368-.41,2.688,2.688,0,0,1-.967-1.145,3.959,3.959,0,0,1-.343-1.691,4.422,4.422,0,0,1,.31-1.69,2.459,2.459,0,0,1,.932-1.163,2.49,2.49,0,0,1,1.388-.4,2.068,2.068,0,0,1,1,.237,2.093,2.093,0,0,1,.715.618V93.956h1.049v8.589ZM76.794,99.44a2.7,2.7,0,0,0,.5,1.787,1.518,1.518,0,0,0,1.189.592,1.491,1.491,0,0,0,1.175-.565,2.606,2.606,0,0,0,.483-1.725,2.926,2.926,0,0,0-.492-1.875,1.517,1.517,0,0,0-1.214-.6,1.457,1.457,0,0,0-1.174.573,2.835,2.835,0,0,0-.472,1.81" transform="translate(-10.132 -12.574)" fill="#00824b"/><path d="M92,102.54H90.946V95.82a5.509,5.509,0,0,1-1,.727,7.177,7.177,0,0,1-1.11.545V96.072a6.394,6.394,0,0,0,1.546-1.007,3.968,3.968,0,0,0,.937-1.149H92Z" transform="translate(-11.889 -12.568)" fill="#00824b"/><path d="M97.491,97.882a1.981,1.981,0,0,1-.972-.686,1.786,1.786,0,0,1-.317-1.065,2.087,2.087,0,0,1,.674-1.576,2.836,2.836,0,0,1,3.6.015,2.113,2.113,0,0,1,.685,1.59,1.754,1.754,0,0,1-.314,1.04,1.976,1.976,0,0,1-.952.683,2.19,2.19,0,0,1,1.617,2.2,2.466,2.466,0,0,1-.78,1.851,3.173,3.173,0,0,1-4.1,0,2.5,2.5,0,0,1-.78-1.878,2.269,2.269,0,0,1,.425-1.4,2.127,2.127,0,0,1,1.209-.77m-.551,2.179a1.906,1.906,0,0,0,.214.873,1.517,1.517,0,0,0,.636.653,1.863,1.863,0,0,0,.909.231,1.7,1.7,0,0,0,1.247-.487,1.662,1.662,0,0,0,.493-1.235,1.7,1.7,0,0,0-.507-1.26,1.739,1.739,0,0,0-1.269-.5,1.68,1.68,0,0,0-1.723,1.723m.34-3.966a1.338,1.338,0,0,0,.392,1,1.392,1.392,0,0,0,1.019.386,1.364,1.364,0,0,0,1-.384,1.268,1.268,0,0,0,.39-.941,1.319,1.319,0,0,0-.4-.975,1.476,1.476,0,0,0-2-.009,1.245,1.245,0,0,0-.4.926" transform="translate(-12.828 -12.568)" fill="#00824b"/><path d="M103.92,95.1V94.085h5.56v.82a11.657,11.657,0,0,0-1.626,2.32,14.089,14.089,0,0,0-1.246,2.976,11.046,11.046,0,0,0-.4,2.36h-1.084a10.46,10.46,0,0,1,.4-2.449,12.888,12.888,0,0,1,1.091-2.768,11.874,11.874,0,0,1,1.515-2.247Z" transform="translate(-13.907 -12.591)" fill="#00824b"/><path d="M115.132,102.545v-2.056h-3.726v-.967l3.92-5.565h.861v5.565h1.16v.967h-1.16v2.056Zm0-3.023V95.65l-2.689,3.873Z" transform="translate(-14.909 -12.574)" fill="#00824b"/></g></svg>