<svg xmlns:xlink="http://www.w3.org/1999/xlink" xmlns="http://www.w3.org/2000/svg" viewBox="0 0 307 59.5" width="307"  height="59.5" ><path style="fill:#0c496e" d="M245 18.8c.8-.4 1.7-.6 2.7-.6 1.2 0 2.3.3 3.3.9s1.8 1.5 2.3 2.6c.6 1.1.9 2.5.9 4s-.3 2.8-.9 4-1.4 2-2.3 2.7c-1 .6-2.1.9-3.3.9-1 0-1.9-.2-2.7-.6-.8-.4-1.4-1-1.8-1.6v2.1h-4.5V13.6h4.5v6.9c.4-.7 1-1.2 1.8-1.7zm3.7 4.3c-.6-.6-1.4-1-2.3-1s-1.7.3-2.3 1c-.6.7-.9 1.5-.9 2.7s.3 2 .9 2.7 1.4 1 2.3 1 1.7-.3 2.3-1c.6-.7 1-1.6 1-2.7s-.4-2.1-1-2.7zM256.6 21.8c.6-1.1 1.4-2 2.3-2.6s2.1-.9 3.3-.9c1 0 1.9.2 2.7.6.8.4 1.4 1 1.8 1.7v-2.1h4.5v14.7h-4.5v-2.1c-.4.7-1.1 1.2-1.8 1.7-.8.4-1.7.6-2.7.6-1.2 0-2.3-.3-3.3-.9s-1.8-1.5-2.3-2.7-.9-2.5-.9-4 .3-2.9.9-4zm9.2 1.3c-.6-.7-1.4-1-2.3-1s-1.7.3-2.3 1c-.6.6-.9 1.5-.9 2.7s.3 2 .9 2.7 1.4 1 2.3 1 1.7-.3 2.3-1c.6-.7.9-1.5.9-2.7s-.3-2-.9-2.7zM287.6 19.9c1 1.1 1.5 2.7 1.5 4.6v8.6h-4.5v-8c0-1-.3-1.8-.8-2.3s-1.2-.8-2.1-.8-1.5.3-2.1.8c-.5.5-.8 1.3-.8 2.3v8h-4.5V18.4h4.5v2c.5-.7 1.1-1.2 1.8-1.5.8-.4 1.6-.6 2.6-.6 2 0 3.4.5 4.4 1.6zM301.3 33.1l-4.5-6.2v6.2h-4.5V13.6h4.5v10.8l4.5-6h5.6l-6.1 7.4 6.2 7.3h-5.7zM68.5 21.9c.6-1.1 1.4-2 2.5-2.7 1-.6 2.2-1 3.4-1 .9 0 1.8.2 2.5.5s1.3.8 1.8 1.4v-1.7h4.5v21.7h-4.5v-8.8c-.5.6-1.1 1.1-1.9 1.5-.7.4-1.6.6-2.5.6-1.2 0-2.3-.3-3.3-1-1-.6-1.8-1.5-2.4-2.7-.6-1.1-.9-2.4-.9-3.9-.1-1.5.2-2.8.8-3.9zm9.7 1.9c-.3-.5-.7-.9-1.2-1.2s-1-.4-1.6-.4c-.5 0-1 .1-1.5.4-.5.3-.9.7-1.2 1.2-.3.5-.5 1.2-.5 2s.2 1.5.5 2 .7.9 1.2 1.2 1 .4 1.5.4 1-.1 1.5-.4c.5-.3.9-.7 1.2-1.2.3-.5.5-1.2.5-2s-.1-1.5-.4-2zM101 18.4v14.7h-4.5v-2c-.5.7-1.1 1.2-1.9 1.6s-1.6.6-2.6.6c-1.1 0-2.1-.3-3-.8s-1.5-1.2-2-2.2-.7-2.1-.7-3.4v-8.6h4.5v8c0 1 .3 1.8.8 2.3s1.2.8 2.1.8 1.6-.3 2.1-.8.8-1.3.8-2.3v-8h4.4v.1zM104.2 21.8c.6-1.1 1.4-2 2.3-2.6 1-.6 2.1-.9 3.3-.9 1 0 1.9.2 2.7.6.8.4 1.4 1 1.8 1.7v-2.1h4.5v14.7h-4.5v-2.1c-.4.7-1.1 1.2-1.8 1.7-.8.4-1.7.6-2.7.6-1.2 0-2.3-.3-3.3-.9s-1.8-1.5-2.3-2.7c-.6-1.2-.9-2.5-.9-4 0-1.6.3-2.9.9-4zm9.2 1.3c-.6-.7-1.4-1-2.3-1s-1.7.3-2.3 1c-.6.6-.9 1.5-.9 2.7 0 1.1.3 2 .9 2.7s1.4 1 2.3 1 1.7-.3 2.3-1 .9-1.5.9-2.7-.3-2-.9-2.7zM122.5 16.2c-.5-.5-.8-1-.8-1.7s.3-1.3.8-1.8 1.1-.7 1.9-.7c.8 0 1.4.2 1.9.7s.8 1.1.8 1.8-.3 1.3-.8 1.7c-.5.5-1.1.7-1.9.7-.8 0-1.4-.2-1.9-.7zm4.2 2.2v14.7h-4.5V18.4h4.5zM143 19.9c1 1.1 1.5 2.7 1.5 4.6v8.6H140v-8c0-1-.3-1.8-.8-2.3s-1.2-.8-2.1-.8-1.5.3-2.1.8c-.5.5-.8 1.3-.8 2.3v8h-4.5V18.4h4.5v2c.5-.7 1.1-1.2 1.8-1.5.8-.4 1.6-.6 2.6-.6 2 0 3.4.5 4.4 1.6zM155.9 29.3v3.8h-2.3c-1.6 0-2.9-.4-3.8-1.2-.9-.8-1.4-2.1-1.4-3.9v-5.9h-1.8v-3.7h1.8v-3.6h4.5v3.6h3v3.7h-3V28c0 .4.1.8.3 1s.6.3 1.1.3h1.6zM166.8 32.4c-1.2-.6-2.1-1.5-2.7-2.6-.7-1.1-1-2.5-1-4s.3-2.8 1-4 1.6-2 2.7-2.7c1.2-.6 2.5-.9 3.9-.9s2.7.3 3.9.9c1.2.6 2.1 1.5 2.7 2.7.7 1.2 1 2.5 1 4s-.3 2.8-1 4-1.6 2-2.8 2.7c-1.2.6-2.5.9-3.9.9-1.3 0-2.6-.3-3.8-1zm6.1-3.9c.6-.6.9-1.5.9-2.7s-.3-2.1-.9-2.7c-.6-.6-1.3-1-2.2-1s-1.6.3-2.2.9c-.6.6-.9 1.5-.9 2.7s.3 2.1.9 2.7c.6.6 1.3 1 2.2 1 .9.1 1.6-.3 2.2-.9zM180.8 21.8c.6-1.1 1.4-2 2.3-2.6 1-.6 2.1-.9 3.3-.9 1 0 1.9.2 2.7.6.8.4 1.4 1 1.8 1.7v-2.1h4.5v14.7H191v-2.1c-.4.7-1.1 1.2-1.8 1.7-.8.4-1.7.6-2.7.6-1.2 0-2.3-.3-3.3-.9s-1.8-1.5-2.3-2.7c-.6-1.2-.9-2.5-.9-4-.1-1.6.2-2.9.8-4zm9.2 1.3c-.6-.7-1.4-1-2.3-1-.9 0-1.7.3-2.3 1-.6.6-.9 1.5-.9 2.7 0 1.1.3 2 .9 2.7.6.7 1.4 1 2.3 1 .9 0 1.7-.3 2.3-1s.9-1.5.9-2.7-.2-2-.9-2.7zM207.8 33.1l-4.5-6.2v6.2h-4.5V13.6h4.5v10.8l4.5-6h5.6l-6.1 7.4 6.2 7.3h-5.7zM225.2 13.5h.7v19.6h-.7z"/><linearGradient id="a" gradientUnits="userSpaceOnUse" x1="36.621" y1="23.644" x2="8.41" y2="52.97" gradientTransform="matrix(1 0 0 -1 0 60.6)"><stop offset="0" style="stop-color:#58c9e7"/><stop offset="1" style="stop-color:#31729e"/></linearGradient><path style="fill:url(#a)" d="M46.3 43.7c4.1-4.6 6.5-10.7 6.5-17.3C52.8 11.8 41 0 26.4 0S0 11.8 0 26.3s11.8 26.4 26.4 26.4c4 0 7.8-.9 11.2-2.5v-4.9c-3.3 2-7.1 3.1-11.2 3.1-12.2 0-22.1-9.9-22.1-22.1S14.2 4.2 26.4 4.2s22.1 9.9 22.1 22.1c0 3.4-.8 6.7-2.2 9.6v7.8z"/><linearGradient id="b" gradientUnits="userSpaceOnUse" x1="33.537" y1="26.676" x2="15.533" y2="45.978" gradientTransform="matrix(1 0 0 -1 0 60.6)"><stop offset="0" style="stop-color:#58c9e7"/><stop offset="1" style="stop-color:#31729e"/></linearGradient><path style="fill:url(#b)" d="M44.1 25.9v-.8c-.6-9.2-8.3-16.5-17.7-16.5-9.8 0-17.7 8-17.7 17.7 0 9.8 8 17.7 17.7 17.7 5.3 0 10.1-2.4 13.4-6.1v21.6h4.3V26.4c.1-.2 0-.4 0-.5zM26.4 39.7c-7.4 0-13.4-6-13.4-13.4s6-13.4 13.4-13.4c7.3 0 13.2 5.8 13.4 13v.9c-.2 7.2-6.1 12.9-13.4 12.9z"/><linearGradient id="c" gradientUnits="userSpaceOnUse" x1="36.728" y1="13.139" x2="41.182" y2="14.067" gradientTransform="matrix(1 0 0 -1 0 60.6)"><stop offset="0" style="stop-color:#58c9e7"/><stop offset="1" style="stop-color:#31729e"/></linearGradient><path style="fill:url(#c)" d="M37.6 45.3v4.9c.7-.3 1.5-.7 2.2-1.1v-5.2c-.7.5-1.4 1-2.2 1.4z"/></svg>