<svg xmlns:xlink="http://www.w3.org/1999/xlink" xmlns="http://www.w3.org/2000/svg" width="290" height="164" viewBox="0 0 290 164" fill="none">
<mask id="path-1-outside-1_745_10354" maskUnits="userSpaceOnUse" x="0.242188" y="102.599" width="289" height="21" fill="black">
<rect fill="white" x="0.242188" y="102.599" width="289" height="21"/>
<path d="M281.779 123.066C276.781 123.066 274.282 118.988 274.282 118.988L275.071 118.33C275.071 118.33 277.307 121.882 281.779 121.882C284.673 121.882 286.514 120.04 286.514 117.673C286.514 113.595 275.465 114.384 275.465 108.465C275.465 105.966 277.833 103.599 281.911 103.599C285.988 103.599 288.487 107.018 288.487 107.018L287.698 107.676C287.698 107.676 285.33 104.782 281.911 104.782C279.411 104.782 277.702 106.492 277.702 108.465C277.702 112.543 288.75 111.754 288.75 117.673C288.75 120.435 286.12 123.066 281.779 123.066Z"/>
<path d="M236.069 122.776V104.361H241.33C247.249 104.361 251.327 108.438 251.327 113.568C251.327 118.698 247.249 122.776 241.33 122.776H236.069ZM238.174 121.46H241.33C245.803 121.46 249.091 118.172 249.091 113.568C249.091 108.964 245.803 105.676 241.33 105.676H238.174V121.46Z"/>
<path d="M148.604 122.776V104.361H153.865C159.784 104.361 163.862 108.438 163.862 113.568C163.862 118.698 159.784 122.776 153.865 122.776H148.604ZM150.708 121.46H153.865C158.337 121.46 161.625 118.172 161.625 113.568C161.625 108.964 158.337 105.676 153.865 105.676H150.708V121.46Z"/>
<path d="M130.898 122.776V104.361H143.657L143.394 105.676H133.003V112.647H140.763L140.5 113.963H133.003V121.46H144.052V122.776H130.898Z"/>
<path d="M258.312 122.776V104.361H271.071L270.808 105.676H260.417V112.647H268.177L267.914 113.963H260.417V121.46H271.466V122.776H258.312Z"/>
<path d="M116.938 122.776V105.676H110.493V104.361H125.487L125.224 105.676H119.042V122.776H116.938Z"/>
<path d="M183.865 122.776V105.676H177.42V104.361H192.415L192.152 105.676H185.97V122.776H183.865Z"/>
<path d="M196.971 122.776V104.361H203.416C208.02 104.361 210.519 106.86 210.519 110.017C210.519 114.199 206.573 115.015 206.573 115.015V115.147L211.835 122.776H209.335L204.469 115.673H199.076V122.776H196.971ZM199.076 114.357H203.416C206.442 114.357 208.283 112.516 208.283 110.017C208.283 107.518 206.442 105.676 203.416 105.676H199.076V114.357Z"/>
<path d="M64.8129 122.776V104.361H66.9175V121.46H77.4402L77.1771 122.776H64.8129Z"/>
<path d="M55.7166 122.776V104.361H57.8212V122.776H55.7166Z"/>
<path d="M82.3366 122.776V104.361H84.4411V122.776H82.3366Z"/>
<path d="M23.0477 122.776V104.361H35.6749L35.4118 105.676H25.1522V113.305H33.3073L33.0442 114.62H25.1522V122.776H23.0477Z"/>
<path d="M39.0188 122.776V104.361H51.6461L51.383 105.676H41.1233V113.305H49.2784L49.0154 114.62H41.1233V122.776H39.0188Z"/>
<path d="M1.24219 122.776L9.00269 104.361H10.7126L18.4731 122.776H16.1055L13.4113 117.29H5.04504L2.82059 122.776H1.24219ZM5.80561 115.769H13.031L9.52882 106.991H9.39729L5.80561 115.769Z"/>
<path d="M89.4674 122.776L97.2279 104.361H98.9379L106.698 122.776H104.331L101.637 117.29H93.2703L91.0458 122.776H89.4674ZM94.0309 115.769H101.256L97.7541 106.991H97.6225L94.0309 115.769Z"/>
<path d="M214.198 122.776L221.958 104.361H223.668L231.428 122.776H229.061L226.367 117.29H218L215.776 122.776H214.198ZM218.761 115.769H225.986L222.484 106.991H222.353L218.761 115.769Z"/>
</mask>
<path d="M281.779 123.066C276.781 123.066 274.282 118.988 274.282 118.988L275.071 118.33C275.071 118.33 277.307 121.882 281.779 121.882C284.673 121.882 286.514 120.04 286.514 117.673C286.514 113.595 275.465 114.384 275.465 108.465C275.465 105.966 277.833 103.599 281.911 103.599C285.988 103.599 288.487 107.018 288.487 107.018L287.698 107.676C287.698 107.676 285.33 104.782 281.911 104.782C279.411 104.782 277.702 106.492 277.702 108.465C277.702 112.543 288.75 111.754 288.75 117.673C288.75 120.435 286.12 123.066 281.779 123.066Z" fill="#272223"/>
<path d="M236.069 122.776V104.361H241.33C247.249 104.361 251.327 108.438 251.327 113.568C251.327 118.698 247.249 122.776 241.33 122.776H236.069ZM238.174 121.46H241.33C245.803 121.46 249.091 118.172 249.091 113.568C249.091 108.964 245.803 105.676 241.33 105.676H238.174V121.46Z" fill="#272223"/>
<path d="M148.604 122.776V104.361H153.865C159.784 104.361 163.862 108.438 163.862 113.568C163.862 118.698 159.784 122.776 153.865 122.776H148.604ZM150.708 121.46H153.865C158.337 121.46 161.625 118.172 161.625 113.568C161.625 108.964 158.337 105.676 153.865 105.676H150.708V121.46Z" fill="#272223"/>
<path d="M130.898 122.776V104.361H143.657L143.394 105.676H133.003V112.647H140.763L140.5 113.963H133.003V121.46H144.052V122.776H130.898Z" fill="#272223"/>
<path d="M258.312 122.776V104.361H271.071L270.808 105.676H260.417V112.647H268.177L267.914 113.963H260.417V121.46H271.466V122.776H258.312Z" fill="#272223"/>
<path d="M116.938 122.776V105.676H110.493V104.361H125.487L125.224 105.676H119.042V122.776H116.938Z" fill="#272223"/>
<path d="M183.865 122.776V105.676H177.42V104.361H192.415L192.152 105.676H185.97V122.776H183.865Z" fill="#272223"/>
<path d="M196.971 122.776V104.361H203.416C208.02 104.361 210.519 106.86 210.519 110.017C210.519 114.199 206.573 115.015 206.573 115.015V115.147L211.835 122.776H209.335L204.469 115.673H199.076V122.776H196.971ZM199.076 114.357H203.416C206.442 114.357 208.283 112.516 208.283 110.017C208.283 107.518 206.442 105.676 203.416 105.676H199.076V114.357Z" fill="#272223"/>
<path d="M64.8129 122.776V104.361H66.9175V121.46H77.4402L77.1771 122.776H64.8129Z" fill="#272223"/>
<path d="M55.7166 122.776V104.361H57.8212V122.776H55.7166Z" fill="#272223"/>
<path d="M82.3366 122.776V104.361H84.4411V122.776H82.3366Z" fill="#272223"/>
<path d="M23.0477 122.776V104.361H35.6749L35.4118 105.676H25.1522V113.305H33.3073L33.0442 114.62H25.1522V122.776H23.0477Z" fill="#272223"/>
<path d="M39.0188 122.776V104.361H51.6461L51.383 105.676H41.1233V113.305H49.2784L49.0154 114.62H41.1233V122.776H39.0188Z" fill="#272223"/>
<path d="M1.24219 122.776L9.00269 104.361H10.7126L18.4731 122.776H16.1055L13.4113 117.29H5.04504L2.82059 122.776H1.24219ZM5.80561 115.769H13.031L9.52882 106.991H9.39729L5.80561 115.769Z" fill="#272223"/>
<path d="M89.4674 122.776L97.2279 104.361H98.9379L106.698 122.776H104.331L101.637 117.29H93.2703L91.0458 122.776H89.4674ZM94.0309 115.769H101.256L97.7541 106.991H97.6225L94.0309 115.769Z" fill="#272223"/>
<path d="M214.198 122.776L221.958 104.361H223.668L231.428 122.776H229.061L226.367 117.29H218L215.776 122.776H214.198ZM218.761 115.769H225.986L222.484 106.991H222.353L218.761 115.769Z" fill="#272223"/>
<path d="M281.779 123.066C276.781 123.066 274.282 118.988 274.282 118.988L275.071 118.33C275.071 118.33 277.307 121.882 281.779 121.882C284.673 121.882 286.514 120.04 286.514 117.673C286.514 113.595 275.465 114.384 275.465 108.465C275.465 105.966 277.833 103.599 281.911 103.599C285.988 103.599 288.487 107.018 288.487 107.018L287.698 107.676C287.698 107.676 285.33 104.782 281.911 104.782C279.411 104.782 277.702 106.492 277.702 108.465C277.702 112.543 288.75 111.754 288.75 117.673C288.75 120.435 286.12 123.066 281.779 123.066Z" stroke="#272223" stroke-width="0.760565" mask="url(#path-1-outside-1_745_10354)"/>
<path d="M236.069 122.776V104.361H241.33C247.249 104.361 251.327 108.438 251.327 113.568C251.327 118.698 247.249 122.776 241.33 122.776H236.069ZM238.174 121.46H241.33C245.803 121.46 249.091 118.172 249.091 113.568C249.091 108.964 245.803 105.676 241.33 105.676H238.174V121.46Z" stroke="#272223" stroke-width="0.760565" mask="url(#path-1-outside-1_745_10354)"/>
<path d="M148.604 122.776V104.361H153.865C159.784 104.361 163.862 108.438 163.862 113.568C163.862 118.698 159.784 122.776 153.865 122.776H148.604ZM150.708 121.46H153.865C158.337 121.46 161.625 118.172 161.625 113.568C161.625 108.964 158.337 105.676 153.865 105.676H150.708V121.46Z" stroke="#272223" stroke-width="0.760565" mask="url(#path-1-outside-1_745_10354)"/>
<path d="M130.898 122.776V104.361H143.657L143.394 105.676H133.003V112.647H140.763L140.5 113.963H133.003V121.46H144.052V122.776H130.898Z" stroke="#272223" stroke-width="0.760565" mask="url(#path-1-outside-1_745_10354)"/>
<path d="M258.312 122.776V104.361H271.071L270.808 105.676H260.417V112.647H268.177L267.914 113.963H260.417V121.46H271.466V122.776H258.312Z" stroke="#272223" stroke-width="0.760565" mask="url(#path-1-outside-1_745_10354)"/>
<path d="M116.938 122.776V105.676H110.493V104.361H125.487L125.224 105.676H119.042V122.776H116.938Z" stroke="#272223" stroke-width="0.760565" mask="url(#path-1-outside-1_745_10354)"/>
<path d="M183.865 122.776V105.676H177.42V104.361H192.415L192.152 105.676H185.97V122.776H183.865Z" stroke="#272223" stroke-width="0.760565" mask="url(#path-1-outside-1_745_10354)"/>
<path d="M196.971 122.776V104.361H203.416C208.02 104.361 210.519 106.86 210.519 110.017C210.519 114.199 206.573 115.015 206.573 115.015V115.147L211.835 122.776H209.335L204.469 115.673H199.076V122.776H196.971ZM199.076 114.357H203.416C206.442 114.357 208.283 112.516 208.283 110.017C208.283 107.518 206.442 105.676 203.416 105.676H199.076V114.357Z" stroke="#272223" stroke-width="0.760565" mask="url(#path-1-outside-1_745_10354)"/>
<path d="M64.8129 122.776V104.361H66.9175V121.46H77.4402L77.1771 122.776H64.8129Z" stroke="#272223" stroke-width="0.760565" mask="url(#path-1-outside-1_745_10354)"/>
<path d="M55.7166 122.776V104.361H57.8212V122.776H55.7166Z" stroke="#272223" stroke-width="0.760565" mask="url(#path-1-outside-1_745_10354)"/>
<path d="M82.3366 122.776V104.361H84.4411V122.776H82.3366Z" stroke="#272223" stroke-width="0.760565" mask="url(#path-1-outside-1_745_10354)"/>
<path d="M23.0477 122.776V104.361H35.6749L35.4118 105.676H25.1522V113.305H33.3073L33.0442 114.62H25.1522V122.776H23.0477Z" stroke="#272223" stroke-width="0.760565" mask="url(#path-1-outside-1_745_10354)"/>
<path d="M39.0188 122.776V104.361H51.6461L51.383 105.676H41.1233V113.305H49.2784L49.0154 114.62H41.1233V122.776H39.0188Z" stroke="#272223" stroke-width="0.760565" mask="url(#path-1-outside-1_745_10354)"/>
<path d="M1.24219 122.776L9.00269 104.361H10.7126L18.4731 122.776H16.1055L13.4113 117.29H5.04504L2.82059 122.776H1.24219ZM5.80561 115.769H13.031L9.52882 106.991H9.39729L5.80561 115.769Z" stroke="#272223" stroke-width="0.760565" mask="url(#path-1-outside-1_745_10354)"/>
<path d="M89.4674 122.776L97.2279 104.361H98.9379L106.698 122.776H104.331L101.637 117.29H93.2703L91.0458 122.776H89.4674ZM94.0309 115.769H101.256L97.7541 106.991H97.6225L94.0309 115.769Z" stroke="#272223" stroke-width="0.760565" mask="url(#path-1-outside-1_745_10354)"/>
<path d="M214.198 122.776L221.958 104.361H223.668L231.428 122.776H229.061L226.367 117.29H218L215.776 122.776H214.198ZM218.761 115.769H225.986L222.484 106.991H222.353L218.761 115.769Z" stroke="#272223" stroke-width="0.760565" mask="url(#path-1-outside-1_745_10354)"/>
<path d="M62.4704 151.226C62.6257 151.329 62.7163 151.465 62.7422 151.633C62.7681 151.789 62.7293 151.944 62.6257 152.099C62.5351 152.216 62.4187 152.28 62.2763 152.293C62.134 152.306 61.9981 152.28 61.8687 152.216C61.3769 151.892 60.8463 151.64 60.2769 151.459C59.7205 151.277 59.1187 151.187 58.4717 151.187C57.6823 151.187 56.9446 151.329 56.2587 151.614C55.5858 151.886 54.997 152.287 54.4923 152.817C53.9876 153.335 53.5929 153.95 53.3082 154.661C53.0364 155.373 52.9005 156.156 52.9005 157.01C52.9005 157.89 53.0429 158.693 53.3276 159.417C53.6123 160.129 54.007 160.744 54.5117 161.261C55.0293 161.779 55.6246 162.174 56.2976 162.445C56.9705 162.717 57.6952 162.853 58.4717 162.853C59.1058 162.853 59.7011 162.763 60.2575 162.581C60.8269 162.4 61.3575 162.154 61.8493 161.844C61.9787 161.766 62.1146 161.74 62.2569 161.766C62.4122 161.779 62.5351 161.85 62.6257 161.98C62.7422 162.122 62.781 162.277 62.7422 162.445C62.7163 162.601 62.6322 162.724 62.4899 162.814C62.1663 163.021 61.7846 163.215 61.3446 163.397C60.9046 163.578 60.4387 163.72 59.9469 163.824C59.4552 163.94 58.9634 163.998 58.4717 163.998C57.5399 163.998 56.6664 163.83 55.8511 163.494C55.0358 163.157 54.3111 162.685 53.677 162.077C53.0429 161.456 52.5447 160.718 52.1823 159.864C51.8329 159.01 51.6582 158.058 51.6582 157.01C51.6582 156.001 51.8329 155.076 52.1823 154.234C52.5317 153.38 53.017 152.643 53.6382 152.021C54.2594 151.4 54.9841 150.915 55.8123 150.566C56.6405 150.216 57.527 150.042 58.4717 150.042C59.2093 150.042 59.9211 150.145 60.6069 150.352C61.2928 150.559 61.914 150.85 62.4704 151.226Z" fill="#78797E"/>
<path d="M70.9685 163.804C70.7743 163.804 70.6126 163.746 70.4832 163.63C70.3667 163.513 70.3085 163.377 70.3085 163.222V150.799C70.3085 150.643 70.3667 150.507 70.4832 150.391C70.5996 150.274 70.7355 150.216 70.8908 150.216H76.1319C76.8696 150.216 77.5296 150.378 78.1119 150.701C78.6943 151.012 79.1472 151.446 79.4707 152.002C79.8072 152.559 79.9754 153.186 79.9754 153.885C79.9754 154.454 79.8719 154.979 79.6648 155.457C79.4578 155.936 79.1666 156.344 78.7913 156.68C78.416 157.004 77.9954 157.243 77.5296 157.398L76.8502 157.185C77.329 157.224 77.7754 157.379 78.1896 157.651C78.6037 157.91 78.9337 158.272 79.1795 158.738C79.4384 159.191 79.5743 159.741 79.5872 160.388C79.6001 160.944 79.626 161.378 79.6648 161.688C79.7166 161.999 79.7878 162.232 79.8784 162.387C79.969 162.543 80.0854 162.665 80.2278 162.756C80.3572 162.834 80.4413 162.944 80.4801 163.086C80.5319 163.228 80.5189 163.364 80.4413 163.494C80.3895 163.597 80.3119 163.675 80.2084 163.727C80.1178 163.765 80.0207 163.785 79.9172 163.785C79.8137 163.785 79.7101 163.759 79.6066 163.707C79.4254 163.604 79.2378 163.442 79.0437 163.222C78.8625 163.002 78.7072 162.678 78.5778 162.251C78.4613 161.824 78.4031 161.229 78.4031 160.466C78.4031 159.961 78.319 159.547 78.1507 159.223C77.9954 158.9 77.7884 158.654 77.5296 158.486C77.2837 158.304 77.0055 158.181 76.6949 158.117C76.3972 158.039 76.1125 158 75.8408 158H71.3179L71.5314 157.728V163.222C71.5314 163.377 71.4796 163.513 71.3761 163.63C71.2726 163.746 71.1367 163.804 70.9685 163.804ZM71.3179 156.933H76.1902C76.6302 156.894 77.0443 156.751 77.4325 156.506C77.8207 156.247 78.1313 155.897 78.3643 155.457C78.6101 155.017 78.7331 154.506 78.7331 153.924C78.7331 153.186 78.4807 152.578 77.976 152.099C77.4843 151.607 76.8372 151.361 76.0349 151.361H71.3955L71.5314 151.09V157.204L71.3179 156.933Z" fill="#78797E"/>
<path d="M88.9704 150.216H96.0945C96.2497 150.216 96.3856 150.274 96.5021 150.391C96.6186 150.494 96.6768 150.63 96.6768 150.799C96.6768 150.967 96.6186 151.103 96.5021 151.206C96.3856 151.31 96.2497 151.361 96.0945 151.361H89.4169L89.611 151.031V156.486L89.3975 156.234H95.2209C95.3762 156.234 95.5121 156.292 95.6286 156.408C95.745 156.525 95.8033 156.661 95.8033 156.816C95.8033 156.984 95.745 157.12 95.6286 157.224C95.5121 157.327 95.3762 157.379 95.2209 157.379H89.4363L89.611 157.185V162.775L89.5139 162.659H96.0945C96.2497 162.659 96.3856 162.717 96.5021 162.834C96.6186 162.95 96.6768 163.086 96.6768 163.241C96.6768 163.41 96.6186 163.545 96.5021 163.649C96.3856 163.753 96.2497 163.804 96.0945 163.804H88.9704C88.8151 163.804 88.6792 163.746 88.5628 163.63C88.4463 163.513 88.3881 163.377 88.3881 163.222V150.799C88.3881 150.643 88.4463 150.507 88.5628 150.391C88.6792 150.274 88.8151 150.216 88.9704 150.216Z" fill="#78797E"/>
<path d="M110.028 150.216C110.986 150.216 111.821 150.397 112.533 150.76C113.257 151.122 113.853 151.627 114.318 152.274C114.784 152.908 115.127 153.633 115.347 154.448C115.58 155.263 115.697 156.117 115.697 157.01C115.697 158.253 115.49 159.391 115.075 160.427C114.674 161.449 114.053 162.271 113.212 162.892C112.384 163.5 111.323 163.804 110.028 163.804H105.079C104.923 163.804 104.787 163.746 104.671 163.63C104.554 163.513 104.496 163.377 104.496 163.222V150.799C104.496 150.643 104.554 150.507 104.671 150.391C104.787 150.274 104.923 150.216 105.079 150.216H110.028ZM109.834 162.659C110.934 162.659 111.821 162.407 112.494 161.902C113.167 161.397 113.658 160.718 113.969 159.864C114.293 158.997 114.454 158.046 114.454 157.01C114.454 156.26 114.364 155.548 114.183 154.875C114.014 154.189 113.743 153.587 113.367 153.07C113.005 152.539 112.526 152.125 111.931 151.827C111.348 151.517 110.65 151.361 109.834 151.361H105.583L105.719 151.187V162.853L105.603 162.659H109.834Z" fill="#78797E"/>
<path d="M124.747 163.203C124.734 163.371 124.662 163.513 124.533 163.63C124.417 163.746 124.281 163.804 124.125 163.804C123.944 163.804 123.795 163.746 123.679 163.63C123.575 163.513 123.524 163.371 123.524 163.203V150.818C123.524 150.65 123.582 150.507 123.698 150.391C123.815 150.274 123.964 150.216 124.145 150.216C124.3 150.216 124.436 150.274 124.552 150.391C124.682 150.507 124.747 150.65 124.747 150.818V163.203Z" fill="#78797E"/>
<path d="M137.489 163.804C137.308 163.804 137.159 163.746 137.043 163.63C136.939 163.513 136.888 163.377 136.888 163.222V150.857H138.091V163.222C138.091 163.377 138.033 163.513 137.917 163.63C137.8 163.746 137.658 163.804 137.489 163.804ZM132.87 151.323C132.714 151.323 132.578 151.271 132.462 151.167C132.345 151.064 132.287 150.928 132.287 150.76C132.287 150.604 132.345 150.475 132.462 150.372C132.578 150.268 132.714 150.216 132.87 150.216H142.109C142.265 150.216 142.401 150.268 142.517 150.372C142.634 150.475 142.692 150.611 142.692 150.779C142.692 150.947 142.634 151.083 142.517 151.187C142.401 151.277 142.265 151.323 142.109 151.323H132.87Z" fill="#78797E"/>
<path d="M169.911 150.217C170.093 150.217 170.235 150.275 170.339 150.392C170.442 150.495 170.494 150.631 170.494 150.799V158.836C170.494 159.793 170.267 160.66 169.814 161.437C169.361 162.213 168.753 162.834 167.99 163.3C167.226 163.753 166.366 163.98 165.408 163.98C164.45 163.98 163.583 163.753 162.807 163.3C162.043 162.834 161.435 162.213 160.982 161.437C160.529 160.66 160.303 159.793 160.303 158.836V150.799C160.303 150.631 160.354 150.495 160.458 150.392C160.574 150.275 160.73 150.217 160.924 150.217C161.079 150.217 161.215 150.275 161.332 150.392C161.448 150.495 161.506 150.631 161.506 150.799V158.836C161.506 159.586 161.681 160.259 162.03 160.854C162.393 161.45 162.872 161.928 163.467 162.291C164.062 162.64 164.709 162.815 165.408 162.815C166.133 162.815 166.793 162.64 167.388 162.291C167.983 161.928 168.456 161.45 168.805 160.854C169.167 160.259 169.349 159.586 169.349 158.836V150.799C169.349 150.631 169.4 150.495 169.504 150.392C169.607 150.275 169.743 150.217 169.911 150.217Z" fill="#78797E"/>
<path d="M189.155 150.217C189.323 150.217 189.453 150.269 189.543 150.372C189.647 150.476 189.699 150.605 189.699 150.76V163.184C189.699 163.378 189.634 163.533 189.505 163.65C189.388 163.753 189.252 163.805 189.097 163.805C189.019 163.805 188.935 163.792 188.845 163.766C188.754 163.727 188.683 163.676 188.631 163.611L179.973 151.944L180.303 151.77V163.281C180.303 163.423 180.252 163.546 180.148 163.65C180.045 163.753 179.915 163.805 179.76 163.805C179.592 163.805 179.456 163.753 179.352 163.65C179.262 163.546 179.216 163.423 179.216 163.281V150.799C179.216 150.605 179.275 150.463 179.391 150.372C179.508 150.269 179.637 150.217 179.779 150.217C179.857 150.217 179.941 150.236 180.032 150.275C180.122 150.301 180.193 150.353 180.245 150.43L188.806 161.961L188.612 162.31V150.76C188.612 150.605 188.663 150.476 188.767 150.372C188.883 150.269 189.013 150.217 189.155 150.217Z" fill="#78797E"/>
<path d="M199.637 163.203C199.624 163.371 199.553 163.514 199.424 163.63C199.307 163.747 199.172 163.805 199.016 163.805C198.835 163.805 198.686 163.747 198.57 163.63C198.466 163.514 198.414 163.371 198.414 163.203V150.819C198.414 150.65 198.473 150.508 198.589 150.392C198.706 150.275 198.854 150.217 199.036 150.217C199.191 150.217 199.327 150.275 199.443 150.392C199.573 150.508 199.637 150.65 199.637 150.819V163.203Z" fill="#78797E"/>
<path d="M220.456 157.011C220.456 158.033 220.294 158.971 219.97 159.826C219.66 160.667 219.213 161.404 218.631 162.038C218.048 162.66 217.356 163.145 216.554 163.494C215.764 163.831 214.897 163.999 213.953 163.999C213.008 163.999 212.134 163.831 211.332 163.494C210.543 163.145 209.857 162.66 209.274 162.038C208.692 161.404 208.239 160.667 207.916 159.826C207.605 158.971 207.45 158.033 207.45 157.011C207.45 155.989 207.605 155.057 207.916 154.216C208.239 153.361 208.692 152.624 209.274 152.003C209.857 151.369 210.543 150.883 211.332 150.547C212.134 150.197 213.008 150.023 213.953 150.023C214.897 150.023 215.764 150.197 216.554 150.547C217.356 150.883 218.048 151.369 218.631 152.003C219.213 152.624 219.66 153.361 219.97 154.216C220.294 155.057 220.456 155.989 220.456 157.011ZM219.213 157.011C219.213 155.859 218.987 154.85 218.534 153.983C218.094 153.103 217.479 152.417 216.69 151.925C215.9 151.433 214.988 151.187 213.953 151.187C212.93 151.187 212.018 151.433 211.216 151.925C210.426 152.417 209.805 153.103 209.352 153.983C208.912 154.85 208.692 155.859 208.692 157.011C208.692 158.163 208.912 159.178 209.352 160.058C209.805 160.926 210.426 161.605 211.216 162.097C212.018 162.588 212.93 162.834 213.953 162.834C214.988 162.834 215.9 162.588 216.69 162.097C217.479 161.605 218.094 160.926 218.534 160.058C218.987 159.178 219.213 158.163 219.213 157.011Z" fill="#78797E"/>
<path d="M238.219 150.217C238.387 150.217 238.516 150.269 238.607 150.372C238.711 150.476 238.762 150.605 238.762 150.76V163.184C238.762 163.378 238.698 163.533 238.568 163.65C238.452 163.753 238.316 163.805 238.161 163.805C238.083 163.805 237.999 163.792 237.908 163.766C237.818 163.727 237.746 163.676 237.695 163.611L229.037 151.944L229.367 151.77V163.281C229.367 163.423 229.315 163.546 229.212 163.65C229.108 163.753 228.979 163.805 228.824 163.805C228.655 163.805 228.519 163.753 228.416 163.65C228.325 163.546 228.28 163.423 228.28 163.281V150.799C228.28 150.605 228.338 150.463 228.455 150.372C228.571 150.269 228.701 150.217 228.843 150.217C228.921 150.217 229.005 150.236 229.095 150.275C229.186 150.301 229.257 150.353 229.309 150.43L237.869 161.961L237.675 162.31V150.76C237.675 150.605 237.727 150.476 237.831 150.372C237.947 150.269 238.076 150.217 238.219 150.217Z" fill="#78797E"/>
<line x1="284.264" y1="136.548" x2="5.7355" y2="136.548" stroke="#0075C2" stroke-width="1.9966"/>
<path d="M199.418 59.9883H201.046V63.2454L194.668 63.5168L194.939 61.6168" stroke="black" stroke-width="0.271421"/>
<path fill-rule="evenodd" clip-rule="evenodd" d="M127.358 42.2107C127.358 65.5207 108.401 84.4171 85.0159 84.4171C66.1354 84.4171 50.1412 72.0992 44.6801 55.0858L62.4321 45.8592L97.2309 45.3292L99.4022 42.8864L68.6853 42.6091L108.36 21.9883L117.813 15.5145C123.779 22.7881 127.358 32.0828 127.358 42.2107ZM62.3365 42.5518L114.874 12.6242L115.113 12.5238C107.439 4.79348 96.7885 0.00439453 85.0159 0.00439453C61.631 0.00439453 42.6738 18.9008 42.6738 42.2107C42.6738 42.2653 42.6739 42.3198 42.6741 42.3742L62.3365 42.5518ZM56.3682 45.9515L43.7604 46.1435L42.875 46.3518C43.0959 48.6125 43.4957 50.8209 44.0601 52.9628L56.3682 45.9515Z" fill="#0075C2"/>
<path d="M125.213 18.6695C124.301 19.0034 123.365 19.2938 122.475 19.6765C119.003 21.1612 116.319 23.9948 113.74 26.7498C104.952 36.1438 96.144 45.5567 88.365 55.803C85.5639 59.4916 82.8741 63.3268 81.1533 67.6262C80.5426 69.1489 80.1572 71.1357 81.3813 72.2295C82.2797 73.0329 83.645 72.9515 84.8365 72.7561C86.1936 72.5308 87.5372 72.2187 88.8563 71.8224C90.1754 71.4261 91.4565 70.9158 92.7322 70.3838C93.1774 70.1993 93.5682 70.107 94.0296 70.2915C94.5155 70.487 95.0746 70.772 95.0095 71.3827C94.9389 72.0368 94.3499 72.4982 93.7962 72.8538C89.2444 75.7743 83.6097 76.9604 78.2653 76.1272C76.531 75.8557 74.7368 75.3292 73.529 74.0562C71.5639 71.9879 71.7675 68.6902 72.541 65.9433C73.985 60.8134 76.9191 56.2345 80.0947 51.9542C85.3305 44.8999 91.329 38.44 97.5853 32.276C106.996 23.0041 117.095 14.3077 128.503 7.64971C129.184 7.25072 130.012 6.85173 130.729 7.18286C131.717 7.64157 131.684 9.03669 131.475 10.1034C130.968 12.6955 130.219 15.4504 128.172 17.1224C127.301 17.8335 126.277 18.2787 125.216 18.6668L125.213 18.6695Z" fill="#D2D3D5"/>
<path d="M122.038 42.8076C122.038 42.8076 122.033 42.8021 122.027 42.7994C121.948 42.7397 121.856 42.7614 121.764 42.7641C121.639 42.7669 121.514 42.7696 121.392 42.7696C121.137 42.7723 120.879 42.775 120.624 42.775C119.88 42.775 119.139 42.7614 118.395 42.7614L114.172 42.7397C112.538 42.7316 110.904 42.7234 109.27 42.7126L104.39 42.6854L100.232 42.6637L97.4904 42.6501H96.7875L94.0977 46.3469C94.1465 46.2791 94.8251 46.3714 94.9065 46.3741C95.6421 46.3958 96.3749 46.4148 97.1105 46.4284C98.1907 46.4501 99.271 46.4636 100.351 46.4691C101.66 46.4745 102.965 46.4691 104.273 46.4528C105.687 46.4338 107.104 46.3958 108.518 46.3361C109.933 46.2764 111.328 46.1977 112.728 46.0782C114.004 45.9724 115.28 45.8367 116.547 45.6385C117.581 45.4784 118.615 45.283 119.614 44.9735C120.295 44.7645 121.023 44.5067 121.574 44.0426C121.753 43.8933 121.913 43.7087 122.016 43.497C122.098 43.3314 122.217 42.9541 122.038 42.8049V42.8076Z" fill="#D2D3D5"/>
<path d="M225.612 63.1046H220.727" stroke="black" stroke-width="0.271421"/>
<path d="M167.392 27.9584V35.8297H166.713V36.5083H165.899V38.8154H165.084V42.0725H163.727V44.3796H162.777V45.1938H161.963V53.4722H158.706V58.6293H154.77V51.4366H154.092V43.0224H153.277V39.7654H152.463V39.0868H151.785V38.2725H150.97V37.4583H150.156V36.644H149.342V35.9654H148.663V33.6583H147.849V35.9654H147.17V36.644H146.356V37.4583H145.542V38.2725H144.728V39.0868H144.049V39.7654H143.235V43.0224H142.421V51.4366H141.742V60.9364H140.928V57.0007H140.249V52.2508H139.299V49.9437H137.806V42.8867H136.178V40.514H135.364V39.0267H134.549V38.2725H132.378L134.549 57.0007L134.389 57.3204L132.242 38.1368C133.418 49.6271 128.958 74.8604 101.707 83.8717H247.326V39.9011H246.376V40.7153H245.697V41.3939H244.883V43.8367H240.269V44.3796H239.454V45.3295H238.64V62.9721H237.419V52.3865H236.469V49.1295H235.519V45.4652H234.026V42.3439H233.076V39.3582H230.09V42.3439H229.14V45.4652H227.648V49.1295H226.698V52.3865H225.748V62.9721H220.726V53.0651H218.148V45.601H206.748V55.5079H202.541V62.9721H201.048V59.9864H199.284V55.6436H198.469V53.2008H198.062V48.5866H196.027V53.2008H195.62V55.6436H194.805V59.9864H193.855V48.3152H193.177V47.5009H192.498V46.6867H191.684V44.2438H190.87V42.751H190.191V42.0725H189.241V41.2582H188.427V39.9011H187.884V41.2582H187.07V42.0725H186.12V42.751H185.441V44.2438H184.627V46.6867H183.813V47.5009H183.134V48.3152H182.32V48.9938H178.384V45.3295H177.57V29.587H176.077V45.3295H175.263V48.9938H174.041V45.1938H173.227V44.3796H172.277V42.0725H170.92V38.8154H170.106V36.5083H169.291V35.8297H168.613V27.9584H167.392Z" fill="#D2D3D5" stroke="#D2D3D5" stroke-width="0.271421"/>
</svg>