<svg xmlns:xlink="http://www.w3.org/1999/xlink" xmlns="http://www.w3.org/2000/svg" width="237" height="49" viewBox="0 0 237 49" fill="none">
<path d="M50.9264 13.0791H58.9725C60.9557 13.0791 62.5423 13.6457 63.5055 14.609C64.2988 15.4023 64.6954 16.3655 64.6954 17.5555C64.6954 19.5387 63.6755 20.6719 62.4289 21.3519C64.4121 22.1451 65.6587 23.2784 65.6587 25.6016C65.6587 28.8313 63.0522 30.4179 59.1425 30.4179H50.8698V13.0791H50.9264ZM58.1792 20.1053C59.8791 20.1053 60.9557 19.5387 60.9557 18.2921C60.9557 17.1022 60.0491 16.4789 58.4625 16.4789H54.6662V20.1619H58.1792V20.1053ZM59.1992 27.0748C60.899 27.0748 61.919 26.4515 61.919 25.2049C61.919 24.015 61.069 23.2784 59.0858 23.2784H54.6662V27.0748H59.1992Z" fill="#231F20"/>
<path d="M67.2453 17.1588H71.0417V19.822C71.8349 18.0088 73.0249 16.8189 75.2914 16.8755V20.8419H75.0647C72.5716 20.8419 71.0417 22.3718 71.0417 25.5449V30.4746H67.2453V17.1588Z" fill="#231F20"/>
<path d="M75.348 23.845C75.348 19.992 78.0678 16.8755 81.9209 16.8755C85.774 16.8755 88.3804 20.3319 88.3804 24.0717C88.3804 27.8114 88.3804 24.695 88.3804 25.0916H79.1444C79.5411 26.7915 80.731 27.6981 82.3742 27.6981C84.0174 27.6981 84.584 27.3014 85.604 26.3382L87.7572 28.2647C86.5106 29.7946 84.754 30.7579 82.3175 30.7579C78.3511 30.7579 75.348 27.9814 75.348 23.9017V23.845ZM84.6974 22.7684C84.4707 21.0686 83.5074 19.9353 81.9209 19.9353C80.3343 19.9353 79.3144 21.0686 79.0311 22.7684H84.6974Z" fill="#231F20"/>
<path d="M89.967 17.1588H93.7634V19.0287C94.6133 17.8954 95.7466 16.8755 97.6731 16.8755C100.506 16.8755 102.206 18.7454 102.206 21.8052V30.4179H98.4097V22.9951C98.4097 21.1819 97.5598 20.2753 96.1432 20.2753C94.7266 20.2753 93.7634 21.1819 93.7634 22.9951V30.4179H89.967V17.1022V17.1588Z" fill="#231F20"/>
<path d="M104.756 26.6782V20.3886H103.169V17.1588H104.756V13.7591H108.552V17.1588H111.669V20.3886H108.552V26.0549C108.552 26.9048 108.949 27.3581 109.742 27.3581C110.536 27.3581 111.046 27.1881 111.612 26.9048V29.9079C110.819 30.3612 109.912 30.7012 108.609 30.7012C106.286 30.7012 104.756 29.7946 104.756 26.7348V26.6782Z" fill="#231F20"/>
<path d="M112.122 17.1588H115.918L118.072 25.2049L120.565 17.1022H123.795L126.344 25.2616L128.554 17.1588H132.294L128.158 30.5312H124.758L122.208 22.3718L119.602 30.5312H116.202L112.122 17.1588Z" fill="#231F20"/>
<path d="M132.067 23.845C132.067 19.992 135.127 16.8755 139.264 16.8755C143.4 16.8755 146.46 19.9353 146.46 23.7317C146.46 27.5848 143.4 30.7012 139.264 30.7012C135.127 30.7012 132.067 27.6414 132.067 23.845ZM142.72 23.845C142.72 21.8618 141.303 20.1053 139.207 20.1053C137.11 20.1053 135.75 21.7485 135.75 23.7317C135.75 25.7149 137.167 27.4714 139.264 27.4714C141.36 27.4714 142.72 25.8282 142.72 23.845Z" fill="#231F20"/>
<path d="M147.31 23.845C147.31 19.992 150.369 16.8755 154.506 16.8755C158.642 16.8755 161.702 19.9353 161.702 23.7317C161.702 27.5848 158.642 30.7012 154.506 30.7012C150.369 30.7012 147.31 27.6414 147.31 23.845ZM157.962 23.845C157.962 21.8618 156.546 20.1053 154.449 20.1053C152.353 20.1053 150.993 21.7485 150.993 23.7317C150.993 25.7149 152.409 27.4714 154.506 27.4714C156.602 27.4714 157.962 25.8282 157.962 23.845Z" fill="#231F20"/>
<path d="M162.552 23.845C162.552 19.3687 165.442 16.9322 168.615 16.9322C171.788 16.9322 171.845 17.8388 172.751 18.9154V13.1358H176.548V30.4746H172.751V28.548C171.845 29.7946 170.541 30.7012 168.615 30.7012C165.498 30.7012 162.552 28.2647 162.552 23.845ZM172.808 23.845C172.808 21.5785 171.335 20.1053 169.578 20.1053C167.822 20.1053 166.348 21.5218 166.348 23.7884C166.348 26.0549 167.822 27.5281 169.578 27.5281C171.335 27.5281 172.808 26.0549 172.808 23.845Z" fill="#231F20"/>
<path d="M179.041 13.0791H187.087C189.07 13.0791 190.657 13.6457 191.62 14.609C192.413 15.4023 192.81 16.3655 192.81 17.5555C192.81 19.5387 191.79 20.6719 190.543 21.3519C192.526 22.1451 193.773 23.2784 193.773 25.6016C193.773 28.8313 191.167 30.4179 187.257 30.4179H178.984V13.0791H179.041ZM186.294 20.1053C187.993 20.1053 189.07 19.5387 189.07 18.2921C189.07 17.1022 188.163 16.4789 186.577 16.4789H182.78V20.1619H186.294V20.1053ZM187.313 27.0748C189.013 27.0748 190.033 26.4515 190.033 25.2049C190.033 24.015 189.183 23.2784 187.2 23.2784H182.78V27.0748H187.313Z" fill="#446DA9"/>
<path d="M194.566 26.6215C194.566 23.675 196.776 22.3151 199.949 22.3151C203.122 22.3151 202.272 22.5418 203.179 22.8818V22.6551C203.179 21.0686 202.216 20.2186 200.346 20.2186C198.476 20.2186 197.909 20.5019 196.663 20.9552L195.7 18.0654C197.173 17.4421 198.589 16.9888 200.856 16.9888C203.122 16.9888 204.426 17.5555 205.332 18.4621C206.352 19.482 206.749 20.8986 206.749 22.7118V30.4179H203.122V29.0013C202.216 30.0213 200.912 30.7012 199.099 30.7012C197.286 30.7012 194.51 29.2846 194.51 26.6215H194.566ZM203.179 25.7716V25.0916C202.556 24.8083 201.706 24.5816 200.799 24.5816C199.213 24.5816 198.193 25.2049 198.193 26.3948C198.193 27.4714 199.043 28.0381 200.233 28.0381C201.989 28.0381 203.179 27.0748 203.179 25.7149V25.7716Z" fill="#446DA9"/>
<path d="M208.789 17.1588H212.585V19.0287C213.435 17.8954 214.568 16.8755 216.495 16.8755C219.328 16.8755 221.028 18.7454 221.028 21.8052V30.4179H217.231V22.9951C217.231 21.1819 216.381 20.2753 214.965 20.2753C213.548 20.2753 212.585 21.1819 212.585 22.9951V30.4179H208.789V17.1022V17.1588Z" fill="#446DA9"/>
<path d="M222.728 13.0224H226.524V22.0318L230.944 17.2155H235.477L230.434 22.4284L235.647 30.4745H231.34L227.884 25.0349L226.581 26.4515V30.4745H222.784V13.0224H222.728Z" fill="#446DA9"/>
<path d="M39.5372 0.5H3.04646C1.41918 0.5 0.100006 1.81917 0.100006 3.44646V39.9372C0.100006 41.5645 1.41918 42.8837 3.04646 42.8837H39.5372C41.1645 42.8837 42.4837 41.5645 42.4837 39.9372V3.44646C42.4837 1.81917 41.1645 0.5 39.5372 0.5Z" fill="#446DA9"/>
<path d="M17.0421 8.9994H31.2078C33.5876 8.9994 34.0409 10.246 34.0409 11.8325V25.9982L31.2078 28.8313V11.8325H14.209L17.0421 8.9994Z" fill="white"/>
<path d="M25.5415 28.7747H17.0421C15.6256 28.7747 14.209 27.3581 14.209 25.9415V17.4421L17.0421 14.609V25.9415H28.3747L25.5415 28.7747Z" fill="white"/>
<path d="M22.7084 14.6657H25.5415C26.9581 14.6657 28.3747 16.0822 28.3747 17.4988V20.3319L25.5415 23.1651V17.4988H19.8753L22.7084 14.6657Z" fill="white"/>
<path d="M31.2078 34.4409H11.4325C9.0527 34.4409 8.5994 33.251 8.5994 31.6078V11.8325L11.4325 8.9994V31.6645H34.0409L31.2078 34.4409Z" fill="white"/>
<path d="M110.309 48.1533H107.759L104.756 39.4273L101.753 48.1533H99.203L94.67 34.7243H97.8431L100.62 43.7903L103.623 34.7243H106.116L109.119 43.7903L111.895 34.7243H114.955L110.422 48.1533H110.309Z" fill="#94298E"/>
<path d="M124.078 43.9603H116.938C117.222 45.2635 118.128 45.9435 119.432 45.9435C120.735 45.9435 121.131 45.6601 121.925 44.8669L123.568 46.3401C122.605 47.53 121.245 48.2666 119.375 48.2666C116.315 48.2666 114.049 46.1134 114.049 42.997C114.049 40.0505 116.145 37.614 119.092 37.614C122.038 37.614 124.078 40.2772 124.078 43.167C124.078 43.507 124.078 43.6769 124.078 43.9036V43.9603ZM119.148 39.9372C117.958 39.9372 117.165 40.7872 116.938 42.0904H121.301C121.131 40.7872 120.338 39.9372 119.148 39.9372Z" fill="#94298E"/>
<path d="M125.438 48.04V34.101H128.328V48.04H125.438Z" fill="#94298E"/>
<path d="M134.957 48.2666C131.897 48.2666 129.631 45.8868 129.631 42.997C129.631 40.0505 131.841 37.614 135.014 37.614C138.187 37.614 138.13 38.2373 139.094 39.3139L137.337 41.2405C136.714 40.5605 136.034 40.1072 135.014 40.1072C133.994 40.1072 132.521 41.4104 132.521 42.8837C132.521 44.4702 133.541 45.7168 135.127 45.7168C136.714 45.7168 136.77 45.3202 137.45 44.6402L139.15 46.3401C138.13 47.4167 136.997 48.21 134.957 48.21V48.2666Z" fill="#94298E"/>
<path d="M144.76 48.2666C141.587 48.2666 139.264 45.9435 139.264 42.997C139.264 39.9939 141.643 37.614 144.816 37.614C147.99 37.614 150.313 39.9372 150.313 42.8837C150.313 45.8868 147.933 48.2666 144.76 48.2666ZM147.48 42.9403C147.48 41.4104 146.403 40.1072 144.816 40.1072C143.23 40.1072 142.153 41.4104 142.153 42.8837C142.153 44.4136 143.23 45.7168 144.816 45.7168C146.403 45.7168 147.48 44.4136 147.48 42.9403Z" fill="#94298E"/>
<path d="M164.195 48.04V42.3171C164.195 40.9572 163.572 40.2205 162.495 40.2205C161.419 40.2205 160.739 40.9005 160.739 42.3171V48.04H157.849V42.3171C157.849 40.9572 157.226 40.2205 156.149 40.2205C155.072 40.2205 154.392 40.9005 154.392 42.3171V48.04H151.503V37.8407H154.392V39.3139C155.072 38.464 155.922 37.6707 157.396 37.6707C158.869 37.6707 159.719 38.2373 160.285 39.3139C161.192 38.2373 162.269 37.6707 163.628 37.6707C165.782 37.6707 167.085 38.974 167.085 41.4105V48.0966H164.195V48.04Z" fill="#94298E"/>
<path d="M178.134 43.9603H170.995C171.278 45.2635 172.185 45.9435 173.488 45.9435C174.791 45.9435 175.188 45.6601 175.981 44.8669L177.624 46.3401C176.661 47.53 175.301 48.2666 173.431 48.2666C170.371 48.2666 168.105 46.1134 168.105 42.997C168.105 40.0505 170.201 37.614 173.148 37.614C176.094 37.614 178.134 40.2772 178.134 43.167C178.134 43.507 178.134 43.6769 178.134 43.9036V43.9603ZM173.204 39.9372C172.015 39.9372 171.221 40.7872 170.995 42.0904H175.358C175.188 40.7872 174.394 39.9372 173.204 39.9372Z" fill="#94298E"/>
<path d="M192.81 48.04V42.657H187.37V48.04H184.424V34.6676H187.37V39.9372H192.81V34.6676H195.756V48.04H192.81Z" fill="#94298E"/>
<path d="M202.726 48.2666C199.553 48.2666 197.229 45.9435 197.229 42.997C197.229 39.9939 199.609 37.614 202.782 37.614C205.955 37.614 208.279 39.9372 208.279 42.8837C208.279 45.8868 205.899 48.2666 202.726 48.2666ZM205.389 42.9403C205.389 41.4104 204.312 40.1072 202.726 40.1072C201.139 40.1072 200.063 41.4104 200.063 42.8837C200.063 44.4136 201.139 45.7168 202.726 45.7168C204.312 45.7168 205.389 44.4136 205.389 42.9403Z" fill="#94298E"/>
<path d="M222.104 48.04V42.3171C222.104 40.9572 221.481 40.2205 220.404 40.2205C219.328 40.2205 218.648 40.9005 218.648 42.3171V48.04H215.758V42.3171C215.758 40.9572 215.135 40.2205 214.058 40.2205C212.982 40.2205 212.302 40.9005 212.302 42.3171V48.04H209.412V37.8407H212.302V39.3139C212.982 38.464 213.832 37.6707 215.305 37.6707C216.778 37.6707 217.628 38.2373 218.195 39.3139C219.101 38.2373 220.178 37.6707 221.538 37.6707C223.691 37.6707 224.994 38.974 224.994 41.4105V48.0966H222.104V48.04Z" fill="#94298E"/>
<path d="M236.1 43.9603H228.961C229.244 45.2635 230.15 45.9435 231.454 45.9435C232.757 45.9435 233.154 45.6601 233.947 44.8669L235.59 46.3401C234.627 47.53 233.267 48.2666 231.397 48.2666C228.337 48.2666 226.071 46.1134 226.071 42.997C226.071 40.0505 228.167 37.614 231.114 37.614C234.06 37.614 236.1 40.2772 236.1 43.167C236.1 43.507 236.1 43.6769 236.1 43.9036V43.9603ZM231.17 39.9372C229.98 39.9372 229.187 40.7872 228.961 42.0904H233.324C233.154 40.7872 232.36 39.9372 231.17 39.9372Z" fill="#94298E"/>
</svg>