<svg width="274" height="107" viewBox="0 0 274 107" fill="none" xmlns="http://www.w3.org/2000/svg">
<path d="M0 85.4984V62.3984H15.4V66.6984H5.7V71.3984H15V75.6984H5.7V81.1984H15.7V85.4984" fill="#005288"/>
<path d="M38.4984 85.5008V73.6008L32.7984 80.6008L27.0984 73.6008V85.5008H22.3984V66.3008H26.5984L32.7984 74.0008L38.9984 66.3008H43.2984V85.5008" fill="#005288"/>
<path d="M57.1984 73.9008H54.6984V69.7008H57.1984C58.8984 69.7008 59.7984 70.4008 59.7984 71.9008C59.7984 73.2008 58.8984 73.9008 57.1984 73.9008ZM49.8984 85.5008H58.4984C63.5984 85.5008 66.0984 83.7008 66.0984 80.0008C66.0984 77.5008 64.7984 75.8008 62.0984 75.0008C63.7984 74.2008 64.6984 72.9008 64.6984 71.2008C64.6984 68.0008 62.0984 66.3008 56.9984 66.3008H49.8984V85.5008ZM54.6984 82.0008V77.3008H57.4984C59.7984 77.3008 60.9984 78.0008 60.9984 79.7008C60.9984 81.4008 59.8984 82.0008 57.4984 82.0008H54.6984Z" fill="#005288"/>
<path d="M77.3969 78.5008L80.3969 71.2008L83.0969 78.5008M69.2969 85.5008H74.3969L75.9969 81.7008H84.2969L85.6969 85.5008H90.7969L83.2969 66.3008H77.6969L69.2969 85.5008Z" fill="#005288"/>
<path d="M94.5969 79.6984C96.9969 81.1984 98.9969 82.0984 101.197 82.0984C103.097 82.0984 104.097 81.4984 104.097 80.3984C104.097 79.1984 103.197 78.8984 101.497 78.2984C96.6969 76.5984 94.2969 74.9984 94.2969 71.4984C94.2969 68.2984 97.0969 65.8984 101.597 65.8984C103.697 65.8984 105.897 66.3984 108.097 67.4984V71.3984C105.597 70.1984 103.597 69.4984 101.797 69.4984C99.8969 69.4984 98.9969 70.0984 98.9969 71.0984C98.9969 71.8984 99.7969 72.5984 101.597 73.1984C103.297 73.7984 104.997 74.3984 106.397 75.2984C108.097 76.2984 108.897 77.9984 108.897 80.0984C108.897 83.5984 106.097 85.7984 101.297 85.7984C98.8969 85.7984 96.6969 85.1984 94.5969 83.8984" fill="#005288"/>
<path d="M114.198 79.6984C116.598 81.1984 118.598 82.0984 120.798 82.0984C122.698 82.0984 123.698 81.4984 123.698 80.3984C123.698 79.1984 122.798 78.8984 121.098 78.2984C116.298 76.5984 113.898 74.9984 113.898 71.4984C113.898 68.2984 116.698 65.8984 121.198 65.8984C123.298 65.8984 125.498 66.3984 127.698 67.4984V71.3984C125.198 70.1984 123.198 69.4984 121.398 69.4984C119.498 69.4984 118.598 70.0984 118.598 71.0984C118.598 71.8984 119.398 72.5984 121.198 73.1984C122.898 73.7984 124.598 74.3984 125.998 75.2984C127.698 76.2984 128.498 77.9984 128.498 80.0984C128.498 83.5984 125.698 85.7984 120.898 85.7984C118.498 85.7984 116.298 85.1984 114.198 83.8984" fill="#005288"/>
<path d="M139.303 76.8008L131.703 66.3008H137.503L141.703 72.5008L146.103 66.3008H151.803L144.103 76.8008V85.5008H139.303" fill="#005288"/>
<path d="M173.698 73.9008H171.198V69.7008H173.698C175.398 69.7008 176.298 70.4008 176.298 71.9008C176.298 73.2008 175.498 73.9008 173.698 73.9008ZM166.398 85.5008H174.998C180.098 85.5008 182.598 83.7008 182.598 80.0008C182.598 77.5008 181.298 75.8008 178.598 75.0008C180.298 74.2008 181.198 72.9008 181.198 71.2008C181.198 68.0008 178.598 66.3008 173.498 66.3008H166.398V85.5008ZM171.298 82.0008V77.3008H174.098C176.398 77.3008 177.598 78.0008 177.598 79.7008C177.598 81.4008 176.498 82.0008 174.098 82.0008H171.298Z" fill="#005288"/>
<path d="M193.897 78.5008L196.897 71.2008L199.597 78.5008M185.797 85.5008H190.897L192.497 81.7008H200.797L202.197 85.5008H207.297L199.797 66.3008H194.197L185.797 85.5008Z" fill="#005288"/>
<path d="M216.198 85.5008H211.398V66.3008H215.698L225.998 77.7008V66.3008H230.698V85.5008H226.998L216.198 73.4008" fill="#005288"/>
<path d="M237.5 66.3008H242.3V74.8008L248.8 66.3008H254.2L247.4 75.2008L255.9 85.5008H249.7L242.3 76.5008V85.5008H237.5" fill="#005288"/>
<path d="M260.698 8.19922C262.898 10.2992 264.298 12.7992 264.898 15.4992C266.398 22.1992 262.598 29.2992 255.298 35.4992C257.898 32.6992 259.298 29.5992 259.298 26.2992C259.298 21.1992 255.798 16.4992 249.898 12.7992C251.498 14.3992 252.598 16.1992 252.998 18.1992C253.998 22.5992 251.798 27.3992 247.398 31.5992C248.598 29.8992 249.198 28.0992 249.198 26.1992C249.198 22.2992 246.498 18.7992 242.198 16.0992C243.398 17.2992 244.198 18.5992 244.598 20.1992C246.298 27.6992 235.998 36.2992 221.698 39.3992C215.298 40.7992 209.198 40.8992 204.198 39.8992C208.598 41.1992 213.698 41.9992 219.198 41.9992C225.398 41.9992 231.198 40.9992 235.998 39.2992C231.998 41.1992 227.498 42.6992 222.598 43.7992C214.098 45.6992 205.898 45.7992 199.298 44.3992C205.198 46.1992 211.998 47.1992 219.298 47.1992C229.098 47.1992 237.998 45.3992 244.998 42.3992C238.898 45.5992 231.698 48.2992 223.898 49.9992C212.398 52.4992 201.298 52.6992 192.398 50.7992C200.298 53.1992 209.498 54.5992 219.398 54.5992C249.398 54.5992 273.598 41.8992 273.598 26.2992C273.398 19.3992 268.698 13.0992 260.698 8.19922Z" fill="#FDBB30"/>
<path d="M195.502 36.1C194.102 34.9 193.202 33.4 192.902 31.8C191.202 24.3 201.502 15.7 215.802 12.6C220.402 11.6 224.802 11.3 228.802 11.5C225.802 11 222.602 10.7 219.302 10.7C212.102 10.7 205.502 12 200.302 14.2C204.902 11.7 210.302 9.7 216.302 8.4C222.402 7.1 228.302 6.6 233.602 7C229.602 6.3 225.302 5.9 220.902 5.9C210.802 5.9 201.502 7.9 194.402 11.1C200.502 7.8 207.802 5.1 215.702 3.4C223.902 1.6 231.902 1 239.002 1.5C233.602 0.6 227.902 0 221.802 0C191.902 0 167.602 12.7 167.602 28.3C167.602 34.9 171.902 40.9 179.102 45.8C176.702 43.6 175.002 41 174.402 38C172.802 30.8 177.402 23 186.002 16.4C182.602 19.5 180.602 23.1 180.602 26.9C180.602 31.8 183.802 36.3 189.102 39.8C187.302 38.2 186.102 36.2 185.602 34C184.602 29.6 186.702 24.9 191.002 20.7C189.702 22.5 189.002 24.4 189.002 26.4C189.102 30 191.502 33.4 195.502 36.1Z" fill="#FDBB30"/>
<path d="M110.203 92.3008H116.503V93.7008H111.803V96.9008H116.303V98.4008H111.803V103.301H110.203" fill="#005288"/>
<path d="M119.602 99.6008C119.602 98.3008 120.602 97.2008 121.902 97.2008C123.202 97.2008 124.202 98.3008 124.202 99.6008C124.202 100.901 123.202 102.001 121.902 102.001C120.702 102.001 119.602 101.001 119.602 99.6008ZM118.102 99.6008C118.102 101.701 119.802 103.401 122.002 103.401C123.002 103.401 124.002 103.001 124.702 102.301C125.402 101.601 125.802 100.601 125.802 99.6008C125.802 98.6008 125.402 97.7008 124.702 96.9008C124.002 96.2008 123.002 95.8008 122.002 95.8008C119.802 95.9008 118.102 97.5008 118.102 99.6008Z" fill="#005288"/>
<path d="M127.702 95.9984H129.202V97.5984C129.902 96.4984 130.502 95.8984 131.302 95.8984C131.802 95.8984 132.402 96.0984 133.002 96.5984L132.202 97.8984C131.702 97.4984 131.302 97.2984 130.802 97.2984C130.002 97.2984 129.402 97.9984 129.102 99.1984V103.298H127.602" fill="#005288"/>
<path d="M141.298 103.398C139.498 103.398 139.098 102.598 139.098 100.698V97.2984H137.898V97.1984L140.398 94.3984H140.598V96.0984H142.898V97.3984H140.598V100.698C140.598 101.698 140.698 102.098 141.698 102.098C142.098 102.098 142.598 101.998 142.998 101.698V103.098C142.398 103.298 141.898 103.398 141.298 103.398Z" fill="#005288"/>
<path d="M144.602 92.3008H146.002V96.9008C146.702 96.2008 147.402 95.9008 148.202 95.9008C149.802 95.9008 150.802 96.9008 150.802 98.5008V103.301H149.302V98.9008C149.302 97.7008 148.802 97.2008 147.802 97.2008C147.002 97.2008 146.502 97.5008 146.002 98.1008V103.301H144.602" fill="#005288"/>
<path d="M154.203 98.8984C154.403 97.7984 155.103 97.0984 156.203 97.0984C157.203 97.0984 157.903 97.7984 158.003 98.8984M159.603 102.498V101.098C158.503 101.798 157.503 102.098 156.603 102.098C155.203 102.098 154.403 101.298 154.303 99.8984H159.703V99.6984C159.703 97.2984 158.303 95.8984 156.303 95.8984C154.203 95.8984 152.703 97.3984 152.703 99.5984C152.703 101.898 154.103 103.498 156.503 103.498C157.603 103.398 158.603 103.098 159.603 102.498Z" fill="#005288"/>
<path d="M166.5 92.3008H168V101.901H173.3V103.301H166.5" fill="#005288"/>
<path d="M175.897 98.8984C176.097 97.7984 176.797 97.0984 177.897 97.0984C178.897 97.0984 179.597 97.7984 179.697 98.8984M181.197 102.498V101.098C180.097 101.798 179.097 102.098 178.197 102.098C176.797 102.098 175.997 101.298 175.897 99.8984H181.297V99.6984C181.297 97.2984 179.897 95.8984 177.897 95.8984C175.797 95.8984 174.297 97.3984 174.297 99.5984C174.297 101.898 175.697 103.498 178.097 103.498C179.197 103.398 180.197 103.098 181.197 102.498Z" fill="#005288"/>
<path d="M183.203 92.3008H184.603V96.9008C185.303 96.2008 186.003 95.9008 186.803 95.9008C188.403 95.9008 189.403 96.9008 189.403 98.5008V103.301H187.903V98.9008C187.903 97.7008 187.403 97.2008 186.403 97.2008C185.603 97.2008 185.103 97.5008 184.603 98.1008V103.301H183.203" fill="#005288"/>
<path d="M191.797 96.0016H193.197V103.302H191.797M192.597 93.1016C193.097 93.1016 193.397 93.5016 193.397 93.9016C193.397 94.4016 192.997 94.7016 192.597 94.7016C192.097 94.7016 191.797 94.3016 191.797 93.9016C191.697 93.4016 192.097 93.1016 192.597 93.1016Z" fill="#005288"/>
<path d="M198.303 97.2008C199.203 97.2008 199.803 97.8008 199.803 98.6008C199.803 99.4008 199.203 100.001 198.303 100.001C197.403 100.001 196.803 99.5008 196.803 98.6008C196.803 97.8008 197.403 97.2008 198.303 97.2008ZM197.003 101.001C196.303 101.301 196.003 101.601 196.003 101.901C196.003 102.301 196.303 102.501 196.803 102.801C195.403 103.101 194.703 103.701 194.703 104.701C194.703 106.101 195.903 106.901 198.203 106.901C200.603 106.901 201.803 106.101 201.803 104.601C201.803 103.501 201.103 102.801 199.703 102.501C198.103 102.201 197.403 102.101 197.403 101.601C197.403 101.101 198.003 101.101 199.103 100.901C200.303 100.701 201.103 99.8008 201.103 98.5008C201.103 97.9008 200.903 97.5008 200.503 97.0008H201.703V95.8008H198.803C196.403 95.8008 195.203 96.7008 195.203 98.5008C195.303 99.8008 195.903 100.601 197.003 101.001ZM196.203 104.601C196.203 104.101 196.803 103.701 197.903 103.701C199.603 103.701 200.503 104.001 200.503 104.701C200.503 105.301 199.703 105.701 198.303 105.701C196.903 105.701 196.203 105.301 196.203 104.601Z" fill="#005288"/>
<path d="M203.5 92.3008H204.9V96.9008C205.6 96.2008 206.3 95.9008 207.1 95.9008C208.7 95.9008 209.7 96.9008 209.7 98.5008V103.301H208.2V98.9008C208.2 97.7008 207.7 97.2008 206.7 97.2008C205.9 97.2008 205.4 97.5008 204.9 98.1008V103.301H203.5" fill="#005288"/>
<path d="M215.398 92.3008H216.998L220.498 100.101L223.998 92.3008H225.598L220.598 103.401H220.198" fill="#005288"/>
<path d="M229.303 101.801C228.803 102.201 228.303 102.301 227.803 102.301C227.103 102.301 226.703 102.001 226.703 101.401C226.703 100.601 227.603 100.201 229.303 99.7008M229.403 102.701C229.403 103.201 229.703 103.401 230.303 103.401C230.903 103.401 231.403 103.201 231.903 102.701V101.801C231.603 102.001 231.403 102.201 231.103 102.201C230.903 102.201 230.803 102.001 230.803 101.501V98.4008C230.803 96.6008 230.003 95.8008 228.103 95.8008C227.103 95.8008 226.103 96.1008 225.403 96.7008V98.1008C226.303 97.4008 227.103 97.1008 227.903 97.1008C228.903 97.1008 229.303 97.5008 229.303 98.3008C229.303 98.4008 229.303 98.5008 229.303 98.6008L227.603 99.2008C226.003 99.7008 225.203 100.501 225.203 101.501C225.203 102.601 225.903 103.301 227.303 103.301C228.003 103.401 228.703 103.201 229.403 102.701Z" fill="#005288"/>
<path d="M234.697 92.3008H233.297V103.301H234.697V92.3008Z" fill="#005288"/>
<path d="M238.603 92.3008H237.203V103.301H238.603V92.3008Z" fill="#005288"/>
<path d="M242.202 98.8984C242.402 97.7984 243.102 97.0984 244.202 97.0984C245.202 97.0984 245.902 97.7984 246.002 98.8984M247.502 102.498V101.098C246.402 101.798 245.402 102.098 244.502 102.098C243.102 102.098 242.302 101.298 242.202 99.8984H247.602V99.6984C247.602 97.2984 246.202 95.8984 244.202 95.8984C242.102 95.8984 240.602 97.3984 240.602 99.5984C240.602 101.898 242.002 103.498 244.402 103.498C245.502 103.398 246.502 103.098 247.502 102.498Z" fill="#005288"/>
<path d="M248.297 96H249.997L252.197 100.3L254.297 96H255.897L250.497 106.9H248.897L251.397 101.8" fill="#005288"/>
</svg>
