<svg width="177" height="177" viewBox="0 0 177 177" fill="none" xmlns="http://www.w3.org/2000/svg">
<g clip-path="url(#clip0_662_39)">
<path d="M26.7018 120.15C28.7218 120.15 28.9418 120.15 29.6518 122.09L33.0318 131.88C33.9718 134.97 33.7518 135.41 31.1618 135.7L29.5818 135.92C29.1518 136.35 29.2218 137.65 29.7918 138.01C32.3118 137.94 35.4818 137.79 38.5818 137.79C42.3218 137.79 44.9918 137.86 47.9418 138.01C48.4418 137.65 48.4418 136.42 47.8718 135.92L46.7918 135.7C43.1218 135.05 42.7618 134.55 41.1018 129.72L30.7318 99.5398C29.5818 96.2998 28.6418 92.9198 27.4918 89.6698C27.2018 89.3098 26.8418 89.0898 26.2718 89.0898C26.1318 89.0898 23.7518 92.0399 21.2318 92.5499C21.4518 93.7699 20.8018 95.4998 19.8618 97.8098L9.99183 123.45C8.48183 127.34 7.32183 130.37 6.46183 132.24C5.38183 134.62 4.59183 135.27 2.50183 135.56L0.341832 135.92C-0.158168 136.57 -0.0881685 137.65 0.411832 138.01C2.93183 137.86 5.16183 137.79 7.54183 137.79C10.4918 137.86 12.8718 137.86 15.1718 138.01C15.7518 137.72 15.8218 136.42 15.3118 135.92L13.2218 135.56C10.5618 135.2 10.2718 134.98 11.7118 130.73L14.6618 122.09C15.3118 120.15 15.2418 120.15 17.1118 120.15H26.6918H26.7018ZM18.2818 116.9C16.5518 116.9 16.3418 116.9 17.1318 114.81L20.1518 106.38C21.4518 103 22.0218 101.19 22.3118 100.69H22.4518C22.8118 101.19 23.2418 102.56 24.4718 106.38L27.4918 115.02C28.0718 116.75 27.7818 116.89 25.7618 116.89H18.2718L18.2818 116.9ZM84.5518 91.1199C83.9018 90.9699 83.4018 90.9098 82.5318 90.6898C79.1518 89.8298 74.1818 89.1098 70.0718 89.1098C62.8018 89.1098 55.5218 91.1999 50.1918 95.2299C44.8618 99.3399 41.1218 105.89 41.1218 114.32C41.1218 123.76 45.5118 130.31 51.3518 134.13C56.5418 137.51 62.6618 138.96 69.7918 138.96C74.4718 138.96 79.4418 137.73 81.0218 137.23C81.8118 137.01 82.6818 136.72 83.5418 136.58C84.5518 135.21 86.4918 130.46 87.0018 125.63C86.6418 124.98 85.4918 124.69 84.8418 125.34C82.8218 130.02 78.8618 136.07 69.7918 136.07C60.7218 136.07 50.9218 128.58 50.9218 113.24C50.9218 97.8998 60.1418 91.9898 69.2918 91.9898C78.4418 91.9898 82.0418 97.9698 83.2618 102.5C83.7618 103.01 85.0618 102.94 85.5718 102.36C84.8518 97.0298 84.7018 92.7799 84.5618 91.1199H84.5518ZM133.382 108.33C133.382 102.64 133.382 96.3698 134.392 94.1398C134.902 92.9898 136.122 92.6999 137.492 92.4799L139.152 92.1199C139.722 91.6099 139.582 90.3898 139.012 90.0298C136.422 90.1698 134.542 90.2398 131.452 90.2398C128.642 90.2398 125.982 90.1698 123.172 90.0298C122.452 90.2398 122.382 91.6099 123.032 92.1199L124.682 92.3398C126.482 92.6298 127.642 93.0598 128.282 94.1398C129.582 96.2998 129.652 102.93 129.652 108.33V122.37C129.652 123.52 129.652 123.88 129.432 124.1C128.712 123.67 122.012 116.03 118.992 112.72L111.792 104.94C109.272 102.2 101.422 93.1298 100.192 90.0298C98.4618 90.1698 96.7318 90.2398 95.2218 90.2398C93.4218 90.2398 89.4618 90.3098 86.7218 90.0298C86.0018 90.2398 85.9318 91.6899 86.4318 92.1199L87.5118 92.3398C88.5218 92.5598 90.5418 93.1298 91.3318 93.7798C93.7818 95.8698 93.7118 97.0198 93.7118 102.64V119.71C93.7118 125.4 93.7118 131.67 92.7718 133.9C92.2618 135.05 90.9718 135.34 89.6018 135.56L88.0118 135.92C87.4318 136.42 87.5818 137.65 88.1618 138.01C90.6818 137.86 92.6218 137.79 95.6518 137.79C98.3918 137.79 101.192 137.86 103.862 138.01C104.582 137.79 104.652 136.42 104.002 135.92L102.422 135.7C100.622 135.41 99.3918 134.98 98.7518 133.9C97.5318 131.74 97.4518 125.11 97.4518 119.71V105.67C97.4518 101.85 97.4518 101.06 97.6618 101.06C98.8818 102.14 101.192 104.88 105.872 110.13L122.722 129.36C127.902 135.26 129.992 137.71 131.152 139.23C132.012 139.3 133.022 139.01 133.602 138.22C133.382 136.56 133.382 127.7 133.382 125.54V108.33ZM142.742 126.99C142.742 134.62 142.092 134.84 138.712 135.27L137.122 135.49C136.622 135.99 136.692 137.29 137.272 137.58C140.442 137.44 143.822 137.36 146.992 137.36C149.732 137.36 152.752 137.58 155.922 137.58C164.132 137.58 168.882 136.36 172.272 133.55C175.582 130.89 176.662 127.29 176.662 123.97C176.662 115.83 170.542 112.3 165.062 111.44C164.632 111.3 164.482 111.15 164.482 111.01C164.482 110.87 164.632 110.65 164.912 110.58C169.952 108.92 173.052 105.68 173.052 101.43C173.052 96.8898 171.322 94.0098 168.012 92.0698C164.772 90.1998 159.952 89.6199 153.902 89.6199C145.982 89.6199 140.722 89.9798 137.482 90.2698C136.902 90.6298 136.902 91.7798 137.412 92.2898L139.282 92.4998C142.662 92.8598 142.742 93.7298 142.742 100.64V127V126.99ZM151.092 115.11C151.092 113.67 151.242 113.24 154.402 113.24C162.392 113.24 167.442 117.63 167.442 125.05C167.442 131.46 163.052 134.7 158.082 134.7C151.812 134.7 151.092 132.03 151.092 125.48V115.11ZM151.092 95.5098C151.092 92.6298 151.312 92.4898 154.912 92.4898C159.372 92.4898 164.062 95.0098 164.062 101.35C164.062 107.69 160.962 110.5 154.192 110.5C151.312 110.5 151.092 110.43 151.092 108.56V95.5198V95.5098Z" fill="#182756"/>
<path d="M13.3125 55.4V44.55L73.4425 10.04L90.9825 0L97.6325 3.68L161.312 39.84L165.773 42.55L165.792 52.55H130.113C126.703 52.55 121.183 51.93 116.903 51.15L104.223 48.74C97.9625 47.47 91.2425 46.78 84.5925 46.78C73.7025 46.98 63.4225 49.38 54.9425 55.41L13.3125 55.39V55.4ZM53.9225 45.01C63.8625 38.39 75.9225 35.8 88.7725 36.48C102.272 36.74 113.842 41.88 127.272 42.34H157.952L143.122 33.94L108.753 14.47L91.1225 4.35L86.7525 6.74L36.9625 35.3L20.1825 45.02H53.9325L53.9225 45.01Z" fill="#182756"/>
<path d="M13.3125 71.0117V78.5217H165.812V71.0117H13.3125Z" fill="#182756"/>
<path d="M13.3125 59.6016V67.1016H165.812V59.6016H13.3125Z" fill="#182756"/>
<path d="M17.0687 169.14C17.0687 173.17 16.7988 173.48 14.7888 173.88L13.4888 174.15C13.1287 174.28 13.1287 175.45 13.4888 175.71C16.0387 175.62 18.2288 175.58 20.4188 175.58C21.7188 175.58 23.4188 175.76 25.0288 175.76C27.7588 175.76 31.1088 175.62 33.9288 174.64C36.7488 173.66 39.2088 171.24 39.1588 167.12C39.1188 162.78 36.1188 160.45 32.5888 159.69C32.1888 159.6 31.9587 159.47 31.9587 159.33C31.9587 159.11 32.4087 158.93 32.8487 158.84C34.2387 158.48 37.4088 157 37.4088 153.24C37.4088 150.6 36.2488 148.72 34.3188 147.56C32.3488 146.4 29.4888 145.9 25.1888 145.9C20.8888 145.9 17.4488 146.08 14.0488 146.3C13.3788 146.34 13.4688 147.68 13.8688 147.91L15.0788 148.09C16.9588 148.31 17.0487 148.81 17.0487 153.32V169.11L17.0687 169.14ZM23.2388 150.3C23.2388 148.33 23.2888 147.97 25.3888 147.97C28.4787 147.97 30.8888 149.89 30.8888 153.79C30.8888 156.47 29.4588 158.94 25.6088 158.94C23.2788 158.94 23.2388 158.85 23.2388 157.69V150.31V150.3ZM23.2388 162.74C23.2388 160.95 23.2388 160.91 25.6988 160.91C29.9888 160.91 32.2288 163.64 32.2288 167.53C32.2288 171.15 30.4788 173.7 27.1688 173.7C23.6788 173.7 23.2288 171.51 23.2288 168.02V162.74H23.2388ZM64.0887 165.47C65.6487 165.47 66.0087 165.56 66.2387 166.27L67.4487 170.12C67.9887 171.78 68.2988 172.85 68.2988 173.16C68.2988 173.43 68.1187 173.74 67.0887 173.92L65.6588 174.14C65.1688 174.5 65.2587 175.44 65.7487 175.7C67.8087 175.61 69.5487 175.57 71.7887 175.57C74.0287 175.57 76.5287 175.61 78.6787 175.7C79.0787 175.43 78.9888 174.36 78.7188 174.14L77.0187 173.87C75.3687 173.56 74.9587 172.57 74.0187 169.89L67.9287 152.35C66.8087 149.17 66.2687 147.52 65.9187 146.22C65.7387 145.55 65.4687 145.32 64.8887 145.32C64.7987 145.32 63.1487 147.51 60.9987 148.01C61.1387 149.31 60.3287 150.87 59.2587 153.69L55.2287 164.61C54.0187 167.83 53.2587 169.98 52.4587 171.77C51.7387 173.52 50.7987 173.87 49.7287 174.01L48.5187 174.14C48.2087 174.5 48.1588 175.44 48.6488 175.7C50.7088 175.7 51.7387 175.57 53.2587 175.57C55.1387 175.61 56.9288 175.61 58.4888 175.7C58.9388 175.48 58.8488 174.45 58.5788 174.14L57.2388 173.92C55.9888 173.7 55.6287 173.43 55.6287 173.16C55.6287 172.8 55.6787 172.44 55.9387 171.55L57.5887 166.36C57.8587 165.51 57.9887 165.47 59.0687 165.47H64.0788H64.0887ZM59.9688 163.1C58.8487 163.1 58.5787 162.97 59.0287 161.76L60.1488 158.41C60.8188 156.35 61.5287 154.47 61.9787 153.49C62.3787 154.43 62.9587 156.26 63.5887 158.19L64.7487 161.82C65.1487 162.98 64.8787 163.11 63.8587 163.11H59.9688V163.1ZM117.619 157.28C117.619 153.66 117.799 150.3 118.289 149.09C118.699 148.15 119.539 147.88 120.709 147.61L121.519 147.48C121.879 147.12 121.789 146.18 121.519 145.91C119.779 146 118.169 146.05 116.509 146.05C114.679 146.05 112.929 146 110.509 145.91C110.239 146.18 110.149 147.12 110.509 147.48L111.719 147.66C112.929 147.88 113.909 148.15 114.309 149.09C114.799 150.3 114.979 153.65 114.979 157.28V163.45C114.979 164.25 114.979 165.02 114.799 165.47C113.769 164.44 112.519 162.87 110.509 160.55L106.749 156.12C102.719 151.33 99.8188 147.93 99.3688 145.92C98.4288 146.01 97.1287 146.06 95.6087 146.06C93.7787 146.06 91.5388 146.01 89.4388 145.92C88.9888 146.06 88.9488 147.13 89.2588 147.49L90.5088 147.67C92.0688 147.98 92.7487 148.43 93.0587 149.19C93.3687 149.81 93.3688 150.53 93.3688 152.99V164.36C93.3688 167.98 93.1887 171.34 92.7487 172.55C92.3387 173.49 91.4987 173.76 90.2887 174.03L89.5287 174.16C89.1687 174.52 89.2587 175.46 89.5287 175.72C91.2287 175.63 92.8887 175.59 94.5387 175.59C96.3287 175.59 98.1187 175.63 100.529 175.72C100.799 175.45 100.889 174.51 100.529 174.16L99.2787 173.98C98.1187 173.76 97.0888 173.49 96.6888 172.55C96.1888 171.34 96.0187 167.99 96.0187 164.36V155.68C96.0187 154.03 96.0187 153.26 96.2487 152.81C97.0587 153.48 98.5788 155.32 101.119 158.54L111.459 171.34C113.559 173.93 115.039 176.22 115.079 176.22C116.149 176.22 117.409 175.73 117.719 175.19C117.629 173.72 117.629 170.9 117.629 167.99V157.3L117.619 157.28ZM143.389 152.5C143.389 148.34 143.659 148.03 145.669 147.67L146.919 147.49C147.319 147.22 147.319 146.19 146.919 145.92C144.549 146.01 142.309 146.06 140.169 146.06C138.029 146.06 135.699 146.01 133.459 145.92C132.969 146.19 132.969 147.22 133.459 147.49L134.709 147.67C136.719 148.03 136.989 148.34 136.989 152.5V169.14C136.989 173.3 136.719 173.61 134.709 173.97L133.459 174.15C133.099 174.42 133.099 175.45 133.459 175.71C135.829 175.62 138.159 175.58 140.169 175.58C142.309 175.58 144.549 175.62 146.919 175.71C147.279 175.44 147.279 174.46 146.919 174.15L145.669 173.97C143.659 173.61 143.389 173.3 143.389 169.14V164.44C143.389 162.02 143.429 161.4 144.459 161.4C145.489 161.4 146.199 162.47 147.809 164.94L150.179 168.56C150.629 169.23 152.509 172.14 152.769 172.54C153.039 172.94 153.129 173.25 153.129 173.43C153.129 173.61 152.859 173.79 152.369 173.88L151.249 174.15C150.759 174.42 150.759 175.53 151.339 175.71C153.839 175.62 156.079 175.58 158.359 175.58C160.419 175.58 162.569 175.62 164.799 175.71C165.199 175.49 165.199 174.55 164.929 174.15L163.499 173.93C162.249 173.71 161.399 173.44 160.189 171.83C157.149 167.8 154.509 163.51 152.269 160.15C150.929 158.14 150.659 157.6 150.659 157.38C150.659 157.2 150.799 156.84 151.239 156.35L153.299 154.02C156.249 150.75 158.129 149.01 159.919 148.29C160.859 147.89 162.199 147.66 163.769 147.49C164.129 147.13 164.079 146.1 163.539 145.92C161.749 146.01 159.779 146.06 158.129 146.06C156.479 146.06 154.859 146.01 152.579 145.92C151.999 146.1 151.909 147.17 152.399 147.49L153.429 147.67C154.009 147.8 154.189 148.07 154.189 148.25C154.189 148.43 154.009 148.83 153.609 149.41C152.179 151.51 149.989 154.15 147.619 157.02C146.899 157.91 145.109 159.61 144.179 159.61C143.639 159.61 143.369 159.43 143.369 157.96V152.5H143.389Z" fill="#182756"/>
</g>
<defs>
<clipPath id="clip0_662_39">
<rect width="176.66" height="176.21" fill="white"/>
</clipPath>
</defs>
</svg>
