<svg width="354" height="56" viewBox="0 0 354 56" fill="none" xmlns="http://www.w3.org/2000/svg">
<g clip-path="url(#clip0_612_170)">
<path d="M26.2011 6.99638L20.2204 0.873291L7.11987 13.6891C7.11987 13.6891 0.854385 19.385 0.854385 23.9417C0.996782 29.2104 6.55028 33.6247 6.55028 33.6247C6.55028 33.6247 11.107 37.0422 11.107 41.1718C11.107 45.0165 8.40145 47.2949 8.40145 47.2949L0 55.5539H12.531L19.5084 48.5764C19.5084 48.5764 23.0684 45.5861 23.0684 41.1718C23.0684 36.8998 19.7932 34.4791 19.7932 34.4791L15.0941 29.9224C15.0941 29.9224 12.3886 27.3592 12.3886 24.5113C12.2462 21.6633 13.8126 19.5274 15.0941 17.961C16.2333 16.537 26.2011 6.99638 26.2011 6.99638Z" fill="#234996"/>
<path d="M26.2012 6.99638L32.1819 0.873291L45.2824 13.6891C45.2824 13.6891 51.5479 19.385 51.5479 23.9417C51.4055 29.2104 45.852 33.6247 45.852 33.6247C45.852 33.6247 41.2953 36.7574 41.2953 41.0294C41.2953 44.8741 44.0009 47.1525 44.0009 47.1525L52.4023 55.5539H39.8713L32.8939 48.5764C32.8939 48.5764 29.3339 45.5861 29.3339 41.1718C29.3339 36.8998 32.6091 34.4791 32.6091 34.4791L37.1658 30.0648C37.1658 30.0648 39.8713 27.5016 39.8713 24.6537C40.0137 21.8057 38.4474 19.6698 37.1658 18.1034C36.0266 16.537 26.2012 6.99638 26.2012 6.99638Z" fill="#234996"/>
<path d="M15.0941 23.9417C15.0941 30.0648 20.078 35.0487 26.2011 35.0487C32.3242 35.0487 37.3081 30.0648 37.3081 23.9417C37.3081 17.8186 32.3242 12.8347 26.2011 12.8347C20.078 12.8347 15.0941 17.8186 15.0941 23.9417Z" fill="#231F20"/>
<path d="M16.3757 22.5177C16.3757 20.3817 17.5149 19.8121 19.3661 19.8121H21.9292C24.9196 19.8121 25.3468 20.5241 25.3468 22.6601H23.2108V22.5177C23.2108 21.9481 22.7836 21.8057 22.214 21.8057H19.9357C18.7965 21.8057 18.6541 22.3753 18.6541 23.2297V24.0841C18.6541 25.2232 18.7965 25.508 19.9357 25.508H22.214C23.2108 25.508 23.4956 25.3656 23.4956 24.5113H25.6316V25.2232C25.6316 26.5048 25.2044 27.5016 23.0684 27.5016H19.6509C17.7997 27.5016 16.6605 26.932 16.6605 24.796" fill="white"/>
<path d="M26.6283 19.9546H28.7643V24.2265C28.7643 25.2233 29.0491 25.5081 29.9034 25.5081H32.0394C32.8938 25.5081 33.1786 25.0809 33.1786 24.2265V19.9546H35.3145V24.7961C35.3145 26.6473 34.4602 27.5017 32.4666 27.5017H29.4762C27.4827 27.5017 26.6283 26.6473 26.6283 24.7961" fill="white"/>
<path d="M58.5254 55.269C58.0982 55.6962 57.5286 55.981 56.959 55.981C56.3894 55.981 55.8198 55.6962 55.3927 55.269C54.9655 54.8419 54.6807 54.2723 54.6807 53.7027C54.6807 53.1331 54.9655 52.5635 55.3927 52.1363C55.8198 51.7091 56.3894 51.4243 56.959 51.4243C57.5286 51.4243 58.0982 51.7091 58.5254 52.1363C58.9526 52.5635 59.2374 53.1331 59.2374 53.7027C59.2374 54.2723 58.9526 54.8419 58.5254 55.269ZM55.535 52.2787C55.1079 52.7059 54.9655 53.1331 54.9655 53.7027C54.9655 54.2723 55.1079 54.6995 55.535 55.1267C55.9622 55.5538 56.3894 55.6962 56.959 55.6962C57.5286 55.6962 57.9558 55.5538 58.383 55.1267C58.8102 54.6995 58.9526 54.2723 58.9526 53.7027C58.9526 53.1331 58.8102 52.7059 58.383 52.2787C57.9558 51.8515 57.5286 51.7091 56.959 51.7091C56.3894 51.7091 55.9622 51.8515 55.535 52.2787ZM56.8166 52.4211C57.1014 52.4211 57.3862 52.4211 57.5286 52.5635C57.8134 52.7059 57.9558 52.8483 57.9558 53.1331C57.9558 53.4179 57.8134 53.5603 57.671 53.5603C57.5286 53.5603 57.5286 53.7027 57.2438 53.7027C57.3862 53.7027 57.5286 53.8451 57.671 53.9875C57.8134 54.1299 57.8134 54.2723 57.8134 54.4147V54.5571V54.6995V54.8419H57.3862V54.6995V54.5571C57.3862 54.2723 57.2438 54.1299 57.1014 53.9875C56.959 53.9875 56.8166 53.8451 56.6742 53.8451H56.3894V54.8419H55.9622V52.2787H56.8166V52.4211ZM57.3862 52.8483C57.2438 52.8483 57.1014 52.7059 56.8166 52.7059H56.3894V53.5603H56.8166C56.959 53.5603 57.1014 53.5603 57.2438 53.5603C57.3862 53.5603 57.5286 53.4179 57.5286 53.1331C57.5286 52.9907 57.3862 52.8483 57.3862 52.8483Z" fill="#234996"/>
<path d="M65.218 12.6923V22.6601H60.6613V0.588501H65.218V8.84755H73.6194V0.588501H78.1761V22.6601H73.6194V12.6923H65.218Z" fill="#234996"/>
<path d="M86.5776 4.29084H82.3057V0.303711H86.5776V4.29084ZM86.5776 22.6601H82.3057V6.2844H86.5776V22.6601Z" fill="#234996"/>
<path d="M94.6942 8.42036C95.4062 7.42358 96.6878 5.85721 99.3933 5.85721C102.953 5.85721 106.086 8.56276 106.086 14.2587C106.086 18.8154 104.092 23.0873 99.3933 23.0873C97.6846 23.0873 95.8334 22.3753 94.6942 20.6665V22.6601H90.5647V0.588501H94.8366V8.42036H94.6942ZM98.2542 9.55954C95.4062 9.55954 94.6942 12.2651 94.6942 14.8282C94.6942 17.249 95.691 19.5274 98.3966 19.5274C101.102 19.5274 101.814 16.537 101.814 14.5434C101.814 11.9803 100.817 9.55954 98.2542 9.55954Z" fill="#234996"/>
<path d="M113.206 8.42036C113.918 7.42358 115.2 5.85721 117.905 5.85721C121.465 5.85721 124.598 8.56276 124.598 14.2587C124.598 18.8154 122.604 23.0873 117.905 23.0873C116.196 23.0873 114.345 22.3753 113.206 20.6665V22.6601H109.076V0.588501H113.348V8.42036H113.206ZM116.623 9.55954C113.776 9.55954 113.064 12.2651 113.064 14.8282C113.064 17.249 114.06 19.5274 116.766 19.5274C119.471 19.5274 120.183 16.537 120.183 14.5434C120.183 11.9803 119.329 9.55954 116.623 9.55954Z" fill="#234996"/>
<path d="M131.86 4.29084H127.588V0.303711H131.86V4.29084ZM131.86 22.6601H127.588V6.2844H131.86V22.6601Z" fill="#234996"/>
<path d="M150.372 22.6601H146.1V12.6923C146.1 11.5531 146.1 9.41711 143.394 9.41711C141.543 9.41711 140.119 10.6987 140.119 13.2618V22.6601H135.847V6.28437H139.834V8.70513C140.404 7.70834 141.685 5.85718 144.676 5.85718C147.809 5.85718 150.229 7.70834 150.229 11.2683V22.6601H150.372Z" fill="#234996"/>
<path d="M169.026 6.28443V21.8057C169.026 24.6537 168.883 29.3528 160.909 29.3528C157.634 29.3528 154.074 27.9288 153.932 24.3689H158.488C158.631 25.2233 159.058 26.0777 161.479 26.0777C163.757 26.0777 164.896 24.9385 164.896 22.3753V20.3818C164.184 21.6634 163.187 22.8025 160.624 22.8025C156.779 22.8025 153.647 20.097 153.647 14.4011C153.647 8.70519 156.779 5.99963 160.339 5.99963C163.33 5.99963 164.469 7.8508 165.039 8.84758V6.28443H169.026ZM161.194 19.1002C164.042 19.1002 164.754 16.6794 164.754 14.4011C164.754 11.6955 163.472 9.55957 161.194 9.55957C159.627 9.55957 157.919 10.6987 157.919 14.5435C157.919 16.6794 158.773 19.1002 161.194 19.1002Z" fill="#234996"/>
<path d="M196.651 7.85078C196.224 6.5692 195.654 4.00605 191.809 4.00605C189.673 4.00605 186.398 5.43002 186.398 11.6955C186.398 15.6826 187.965 19.2426 191.809 19.2426C194.373 19.2426 196.081 17.8186 196.651 15.113H201.208C200.353 19.9546 197.22 23.2297 191.809 23.2297C186.113 23.2297 181.842 19.2426 181.842 11.6955C181.842 4.00605 186.256 0.0189209 191.809 0.0189209C198.36 0.0189209 200.923 4.57564 201.208 7.85078H196.651Z" fill="#234996"/>
<path d="M211.603 23.0873C207.331 23.0873 203.344 20.3818 203.344 14.5435C203.344 8.70519 207.188 5.99963 211.603 5.99963C215.875 5.99963 219.862 8.70519 219.862 14.5435C219.862 20.3818 215.875 23.0873 211.603 23.0873ZM211.603 9.55957C208.328 9.55957 207.758 12.4075 207.758 14.5435C207.758 16.6794 208.328 19.5274 211.603 19.5274C214.878 19.5274 215.447 16.6794 215.447 14.5435C215.447 12.4075 214.878 9.55957 211.603 9.55957Z" fill="#234996"/>
<path d="M229.972 23.0873C225.7 23.0873 221.713 20.3818 221.713 14.5435C221.713 8.70519 225.558 5.99963 229.972 5.99963C234.244 5.99963 238.231 8.70519 238.231 14.5435C238.231 20.3818 234.386 23.0873 229.972 23.0873ZM229.972 9.55957C226.697 9.55957 226.127 12.4075 226.127 14.5435C226.127 16.6794 226.697 19.5274 229.972 19.5274C233.247 19.5274 233.817 16.6794 233.817 14.5435C233.817 12.4075 233.247 9.55957 229.972 9.55957Z" fill="#234996"/>
<path d="M245.066 8.70513C245.92 7.42355 247.06 5.85718 249.907 5.85718C253.467 5.85718 256.6 8.56273 256.6 14.2586C256.6 18.8153 254.607 23.0873 249.907 23.0873C246.917 23.0873 245.92 21.5209 245.351 20.5241V28.9256H241.079V6.14197H245.066V8.70513ZM248.768 19.5273C251.474 19.5273 252.186 16.537 252.186 14.5434C252.186 11.9803 251.331 9.55951 248.626 9.55951C245.778 9.55951 245.066 12.2651 245.066 14.8282C245.066 17.249 246.063 19.5273 248.768 19.5273Z" fill="#234996"/>
<path d="M273.403 17.8186C272.264 21.8057 269.131 23.0873 266.283 23.0873C261.727 23.0873 258.309 20.8089 258.309 14.1162C258.309 12.1227 259.021 5.85718 265.998 5.85718C269.131 5.85718 273.546 7.42355 273.546 14.8282V15.6826H262.581C262.723 16.9642 263.008 19.6697 266.283 19.6697C267.422 19.6697 268.704 19.1001 268.989 17.8186H273.403ZM269.131 12.8347C268.846 10.1291 267.28 9.41711 265.856 9.41711C263.862 9.41711 262.866 10.6987 262.581 12.8347H269.131Z" fill="#234996"/>
<path d="M276.251 6.28437H280.238V9.13232C281.093 7.42355 282.089 5.85718 284.653 5.85718C284.937 5.85718 285.222 5.85718 285.507 5.85718V10.2715C285.08 10.2715 284.653 10.2715 284.368 10.2715C281.093 10.2715 280.523 12.4075 280.523 14.1162V22.6601H276.251V6.28437Z" fill="#234996"/>
<path d="M301.028 19.5273C301.028 21.5209 301.455 21.9481 302.025 22.0905V22.8025H297.468C297.183 22.0905 297.183 21.8057 297.041 20.8089C296.044 21.8057 294.763 23.2297 291.915 23.2297C289.494 23.2297 287.073 21.8057 287.073 18.5305C287.073 15.3978 289.067 13.689 291.772 13.2618L295.617 12.6922C296.329 12.5499 297.041 12.2651 297.041 11.4107C297.041 9.55951 295.332 9.55951 294.193 9.55951C292.057 9.55951 291.772 10.8411 291.63 11.8379H287.5C287.928 6.85395 291.345 6.14197 294.62 6.14197C296.899 6.14197 301.028 6.85395 301.028 10.8411V19.5273ZM296.899 14.6858C296.471 14.9706 295.759 15.2554 294.051 15.5402C292.484 15.825 291.203 16.2522 291.203 17.961C291.203 19.5273 292.342 19.9545 293.196 19.9545C295.047 19.9545 297.041 18.6729 297.041 16.6794V14.6858H296.899Z" fill="#234996"/>
<path d="M309.572 6.28444H312.135V9.41718H309.572V18.2458C309.572 19.2426 309.572 19.5274 311.281 19.5274C311.566 19.5274 311.85 19.5274 312.135 19.5274V22.8025C311.423 22.8025 310.854 22.8025 310.142 22.8025H309.572C305.87 22.8025 305.3 21.3786 305.3 19.2426V9.27478H303.164V6.28444H305.3V1.87012H309.572V6.28444Z" fill="#234996"/>
<path d="M319.255 4.43329H314.983V0.446167H319.255V4.43329ZM319.255 22.6602H314.983V6.28446H319.255V22.6602Z" fill="#234996"/>
<path d="M331.928 22.6601H327.372L321.676 6.28442H326.375L329.65 18.3882H329.792L333.21 6.28442H337.624L331.928 22.6601Z" fill="#234996"/>
<path d="M353.858 17.8186C352.719 21.8057 349.586 23.0873 346.738 23.0873C342.181 23.0873 338.764 20.8089 338.764 14.1162C338.764 12.1227 339.476 5.85718 346.453 5.85718C349.586 5.85718 354 7.42355 354 14.8282V15.6826H343.035C343.178 16.9642 343.463 19.6697 346.738 19.6697C347.877 19.6697 349.159 19.1001 349.443 17.8186H353.858ZM349.586 12.8347C349.301 10.1291 347.735 9.41711 346.311 9.41711C344.317 9.41711 343.32 10.6987 343.035 12.8347H349.586Z" fill="#234996"/>
<path d="M75.4706 40.4598C75.0435 39.1782 74.4739 36.6151 70.6291 36.6151C68.4932 36.6151 65.218 38.039 65.218 44.3045C65.218 48.2916 66.7844 51.8516 70.6291 51.8516C73.1923 51.8516 74.9011 50.4276 75.4706 47.7221H80.0274C79.173 52.5636 76.0402 55.8387 70.6291 55.8387C64.9332 55.8387 60.8037 51.8516 60.8037 44.3045C60.8037 36.6151 65.218 32.6279 70.7715 32.6279C77.3218 32.6279 79.885 37.1846 80.1698 40.4598H75.4706Z" fill="#234996"/>
<path d="M83.0177 39.0358H87.0048V41.8838C87.8592 40.175 88.856 38.6086 91.4191 38.6086C91.7039 38.6086 91.9887 38.6086 92.2735 38.6086V43.023C91.8463 43.023 91.4191 43.023 91.1344 43.023C87.8592 43.023 87.2896 45.1589 87.2896 46.8677V55.4115H83.0177V39.0358Z" fill="#234996"/>
<path d="M108.649 50.57C107.51 54.5572 104.377 55.8387 101.529 55.8387C96.9727 55.8387 93.5552 53.5604 93.5552 46.8677C93.5552 44.8741 94.2672 38.6086 101.245 38.6086C104.377 38.6086 108.792 40.175 108.792 47.5797V48.2917H97.8271C97.9695 49.5732 98.2543 52.2788 101.529 52.2788C102.669 52.2788 103.95 51.7092 104.235 50.4276H108.649V50.57ZM104.377 45.5861C104.093 42.8806 102.526 42.1686 101.102 42.1686C99.1087 42.1686 98.1119 43.4502 97.8271 45.5861H104.377Z" fill="#234996"/>
<path d="M126.306 55.2691H122.177V53.2756C121.18 55.1267 119.329 55.6963 117.478 55.6963C112.779 55.6963 110.785 51.4244 110.785 46.8677C110.785 41.1718 113.918 38.4662 117.478 38.4662C120.183 38.4662 121.465 40.0326 122.177 41.0294V33.1975H126.449V55.2691H126.306ZM118.475 52.2788C121.18 52.2788 122.177 50.0004 122.177 47.5797C122.177 45.0165 121.465 42.3109 118.617 42.3109C115.911 42.3109 115.057 44.7317 115.057 47.2949C114.915 49.146 115.769 52.2788 118.475 52.2788Z" fill="#234996"/>
<path d="M134.281 37.0423H130.009V33.0552H134.281V37.0423ZM134.281 55.2692H130.009V39.0359H134.281V55.2692Z" fill="#234996"/>
<path d="M143.109 39.0358H145.673V42.1686H143.109V50.9972C143.109 51.994 143.109 52.2788 144.818 52.2788C145.103 52.2788 145.388 52.2788 145.673 52.2788V55.5539C144.961 55.5539 144.391 55.5539 143.679 55.5539H143.109C139.407 55.5539 138.837 54.13 138.837 51.994V42.0262H136.702V38.8934H138.837V34.4791H143.109V39.0358Z" fill="#234996"/>
<path d="M174.437 47.5797C174.437 53.4179 171.019 55.8387 165.608 55.8387C163.615 55.8387 160.624 55.4115 158.773 53.1331C157.634 51.7092 157.207 50.0004 157.064 47.722V33.1975H161.621V47.5797C161.621 50.7124 163.33 51.994 165.466 51.994C168.599 51.994 169.88 50.4276 169.88 47.722V33.1975H174.437V47.5797Z" fill="#234996"/>
<path d="M193.091 55.2691H188.819V45.3013C188.819 44.1621 188.819 42.0261 186.113 42.0261C184.262 42.0261 182.838 43.3077 182.838 45.8709V55.2691H178.566V39.0358H182.554V41.3141C183.123 40.3174 184.405 38.4662 187.395 38.4662C190.528 38.4662 192.949 40.3174 192.949 43.8773V55.2691H193.091Z" fill="#234996"/>
<path d="M201.35 37.0423H197.078V33.0552H201.35V37.0423ZM201.35 55.2692H197.078V39.0359H201.35V55.2692Z" fill="#234996"/>
<path d="M212.599 55.6963C208.327 55.6963 204.34 52.9908 204.34 47.1525C204.34 41.3142 208.185 38.6086 212.599 38.6086C216.871 38.6086 220.858 41.3142 220.858 47.1525C220.858 52.9908 217.014 55.6963 212.599 55.6963ZM212.599 42.1686C209.324 42.1686 208.755 45.0165 208.755 47.1525C208.755 49.2884 209.324 52.1364 212.599 52.1364C215.875 52.1364 216.444 49.2884 216.444 47.1525C216.444 45.0165 215.875 42.1686 212.599 42.1686Z" fill="#234996"/>
<path d="M238.373 55.2691H234.101V45.3013C234.101 44.1621 234.101 42.0261 231.396 42.0261C229.545 42.0261 228.121 43.3077 228.121 45.8709V55.2691H223.849V39.0358H227.836V41.3141C228.405 40.3174 229.687 38.4662 232.677 38.4662C235.81 38.4662 238.231 40.3174 238.231 43.8773V55.2691H238.373Z" fill="#234996"/>
</g>
<defs>
<clipPath id="clip0_612_170">
<rect width="354" height="56" fill="white"/>
</clipPath>
</defs>
</svg>
