<svg xmlns:xlink="http://www.w3.org/1999/xlink" xmlns="http://www.w3.org/2000/svg" width="172" height="54" viewBox="0 0 172 54">
								<g fill="none" fill-rule="evenodd">
									<polygon fill="#00273D" points="57.993 17.11 66.084 2.615 68.234 21.43 65.405 21.657 64.387 10.232 57.88 21.657 51.317 10.232 50.185 21.657 47.696 21.43 49.733 2.615"></polygon>
									<polygon fill="#00273D" points="73.666 21.486 70.95 21.714 70.95 3.183 73.666 2.899"></polygon>
									<polygon fill="#00273D" points="89.451 15.461 89.451 3.183 92.167 2.899 92.167 22.168 80.229 9.208 80.229 21.429 77.513 21.657 77.513 2.501"></polygon>
									<polygon fill="#00273D" points="107.783 15.461 107.783 3.183 110.499 2.899 110.499 22.168 98.617 9.208 98.617 21.429 95.902 21.657 95.902 2.501"></polygon>
									<polygon fill="#00273D" points="119.777 16.143 122.381 10.118 119.269 3.183 122.041 3.183 123.681 7.219 125.323 3.183 127.869 3.183 124.87 9.891 127.529 16.2 132.621 3.183 135.394 3.183 127.642 22.168 123.568 12.619 119.552 22.225 111.8 3.183 114.629 3.183"></polygon>
									<polygon fill="#00273D" points="145.408 3.183 146.087 5.684 139.241 5.684 139.241 10.743 144.729 10.743 144.729 13.301 139.241 13.301 139.241 18.872 146.879 18.872 145.917 21.486 136.525 21.486 136.525 3.183"></polygon>
									<g fill="#00273D" transform="translate(48.092 2.785)">
										<path d="M108.688158,4.66116632 C107.726316,3.18327158 106.481579,2.38748211 105.123684,2.38748211 C103.596053,2.38748211 102.464474,3.46748211 102.464474,4.94537684 C102.464474,7.04853474 104.388158,7.50327158 107.273684,8.75379789 C109.367105,9.66327158 110.555263,11.4253768 110.555263,13.5853768 C110.555263,16.7685347 108.122368,19.1559032 104.897368,19.1559032 C102.690789,19.1559032 100.880263,18.1327453 99.2960526,16.0864295 L101.332895,14.1537979 C102.238158,15.7453768 103.482895,16.5980084 104.840789,16.5980084 C106.538158,16.5980084 107.669737,15.4043242 107.669737,13.8127453 C107.669737,11.8801137 106.255263,11.3685347 104.048684,10.5159032 C101.163158,9.37906105 99.7486842,8.01485053 99.7486842,5.28642947 C99.7486842,2.10327158 101.955263,0.0569557895 105.293421,0.0569557895 C107.330263,0.0569557895 109.197368,1.08011368 110.385526,3.01274526 L108.688158,4.66116632 Z" fill="#00273D"></path>
										<polygon points="123.455 .398 123.455 3.013 118.872 3.013 118.872 18.701 116.157 18.929 116.157 3.013 111.178 3.013 111.913 .398" fill="#00273D"></polygon>
										<path d="M2.99879737 40.4145095L4.80932368 40.4145095C7.12906053 40.4145095 8.31721842 39.3913516 8.31721842 37.5724042 8.31721842 35.6403411 7.01590263 34.5034989 4.52642895 34.5034989L2.99879737 34.5034989 2.99879737 40.4145095zM2.99879737 32.3997726L4.35669211 32.3997726C6.95932368 32.3997726 8.31721842 31.5471411 8.31721842 29.4439832 8.31721842 27.6250358 7.12906053 26.7155621 4.80932368 26.7155621L3.05537632 26.7155621 3.05537632 32.3997726 2.99879737 32.3997726zM4.86590263 24.4418779C8.93958684 24.4418779 11.1461658 26.2039832 11.1461658 29.1597726 11.1461658 31.1492463 10.1277447 32.6277095 8.14748158 33.3666568 9.95800789 33.9350779 11.2027447 35.4124042 11.2027447 37.6298147 11.2027447 40.69872 9.05274474 42.7456042 5.09221842 42.7456042L.339586842 42.7456042.339586842 24.4418779 4.86590263 24.4418779zM19.6329513 33.4230442L24.3290039 33.4230442 22.0092671 28.7619916 19.6329513 33.4230442zM31.5711092 42.5751916L28.9684776 43.2567284 25.2908461 35.7541389 18.4447934 35.7541389 14.6540039 43.2567284 12.3342671 42.5751916 22.122425 23.7598863 31.5711092 42.5751916z" fill="#00273D"></path>
										<polygon points="44.698 36.663 44.698 24.442 47.413 24.158 47.413 43.427 35.532 30.467 35.532 42.688 32.816 42.916 32.816 23.703" fill="#00273D"></polygon>
										<polygon points="63.595 25.295 56.862 33.48 63.652 42.12 60.992 43.2 53.863 33.821 53.863 42.745 51.147 42.973 51.147 24.442 53.863 24.158 53.863 33.196 61.331 23.931" fill="#00273D"></polygon>
										<path d="M66.7064658,26.0335705 L66.9327816,26.0335705 C67.1590974,26.0335705 67.3854132,25.9198863 67.3854132,25.74936 C67.3854132,25.5788337 67.2156763,25.4651495 66.9893605,25.4651495 L66.7636105,25.4651495 L66.7636105,26.0335705 L66.7064658,26.0335705 Z M66.7064658,27.2278232 L66.1406763,27.2278232 L66.1406763,25.1240968 C66.3104132,25.1240968 66.5933079,25.0672547 66.9893605,25.0672547 C67.4419921,25.0672547 67.6122947,25.1240968 67.7814658,25.2383495 C67.9512026,25.3514653 68.0077816,25.4651495 68.0077816,25.6925179 C68.0077816,25.9198863 67.8380447,26.0909811 67.55515,26.1472547 C67.7814658,26.2040968 67.8951895,26.3751916 67.9512026,26.6594021 C68.0077816,26.9436126 68.0643605,27.1135705 68.1209395,27.1704126 L67.4985711,27.1704126 C67.4419921,27.1135705 67.3854132,26.8862021 67.3294,26.7156758 C67.2722553,26.4883074 67.1590974,26.4314653 66.9327816,26.4314653 L66.7064658,26.4314653 L66.7064658,27.2278232 Z M66.9893605,24.4419916 C66.0840974,24.4419916 65.3491368,25.1809389 65.3491368,26.1472547 C65.3491368,27.0567284 66.0275184,27.8525179 66.9893605,27.8525179 C67.8951895,27.8525179 68.63015,27.1135705 68.63015,26.1472547 C68.63015,25.2383495 67.9512026,24.4419916 66.9893605,24.4419916 L66.9893605,24.4419916 Z M66.9893605,23.9872547 C68.2340974,23.9872547 69.1959395,24.9541389 69.1959395,26.1472547 C69.1959395,27.3977811 68.2340974,28.3646653 66.9893605,28.3646653 C65.7446237,28.3646653 64.7262026,27.3977811 64.7262026,26.1472547 C64.7262026,24.9541389 65.7446237,23.9872547 66.9893605,23.9872547 L66.9893605,23.9872547 Z" fill="#00273D"></path>
									</g>
									<path fill="#E66B5B" d="M23.6502829.000227368421L33.1549803 23.3049221 29.7036645 23.3049221 23.3673882 7.44654316 20.1989671 14.8360168 23.9891908 23.3049221 20.5384408 23.3049221 18.5010329 18.3596589 16.4641908 23.3049221 13.3523487 23.3049221 17.0299803 15.0633853 13.8049803 7.33285895 7.58186184 23.3049221 4.18655921 23.3049221 13.7484013.0570694737 18.7279145 11.7659747 23.6502829.000227368421-.000282894737.000227368421-.000282894737 48.7139116 37.4555461 48.7139116 37.4555461.000227368421 23.6502829.000227368421zM29.7602434 25.3518063L33.1549803 25.3518063 23.5931382 48.5996589 18.6141908 36.8907537 13.6923882 48.6570695 4.18655921 25.3518063 7.69445395 25.3518063 13.9752829 41.2101853 17.1437039 33.8207116 13.3523487 25.3518063 16.8036645 25.3518063 18.8405066 30.2970695 20.8773487 25.3518063 23.9891908 25.3518063 20.312125 33.5933432 23.5365592 41.3238695 29.7602434 25.3518063zM34.9659026 51.6694737L35.1356395 51.6694737C35.3619553 51.6694737 35.5882711 51.5557895 35.5882711 51.3852632 35.5882711 51.2147368 35.4185342 51.1010526 35.1922184 51.1010526L34.9659026 51.1010526 34.9659026 51.6694737zM34.9093237 52.8631579L34.3435342 52.8631579 34.3435342 50.76C34.5132711 50.76 34.7961658 50.7031579 35.1922184 50.7031579 35.64485 50.7031579 35.8145868 50.76 35.9843237 50.8736842 36.1540605 50.9873684 36.2106395 51.1010526 36.2106395 51.3284211 36.2106395 51.5557895 36.0409026 51.7263158 35.7580079 51.7831579 35.9843237 51.84 36.0974816 52.0105263 36.1540605 52.2947368 36.2106395 52.5789474 36.2672184 52.7494737 36.3237974 52.8063158L35.7014289 52.8063158C35.64485 52.7494737 35.5882711 52.5221053 35.5316921 52.3515789 35.4751132 52.1242105 35.3619553 52.0673684 35.1356395 52.0673684L34.9093237 52.0673684 34.9093237 52.8631579zM35.2487974 50.0778947C34.3435342 50.0778947 33.6080079 50.8168421 33.6080079 51.7831579 33.6080079 52.6926316 34.2869553 53.4884211 35.2487974 53.4884211 36.1540605 53.4884211 36.8895868 52.7494737 36.8895868 51.7831579 36.8330079 50.8168421 36.1540605 50.0778947 35.2487974 50.0778947L35.2487974 50.0778947zM35.2487974 49.5663158C36.4935342 49.5663158 37.4553763 50.5326316 37.4553763 51.7263158 37.4553763 52.9768421 36.4935342 53.9431579 35.2487974 53.9431579 34.0040605 53.9431579 32.9856395 52.9768421 32.9856395 51.7263158 32.9856395 50.5326316 34.0040605 49.5663158 35.2487974 49.5663158L35.2487974 49.5663158z"></path>
								</g>
							</svg>