<svg width="476" height="238" viewBox="0 0 476 238" fill="none" xmlns="http://www.w3.org/2000/svg">
<g clip-path="url(#clip0_653_142)">
<mask id="mask0_653_142" style="mask-type:luminance" maskUnits="userSpaceOnUse" x="0" y="0" width="476" height="238">
<path d="M476 0H0V238H476V0Z" fill="white"/>
</mask>
<g mask="url(#mask0_653_142)">
<path d="M79.8412 85.7085C73.533 84.0846 70.2888 83.5433 65.2422 83.002L79.8412 85.7085Z" fill="#F2CA50"/>
<path d="M64.345 86.7919C57.1356 85.8897 55.1531 85.168 48.4844 85.168L64.345 86.7919Z" fill="#F2CA50"/>
<path d="M99.305 93.468C94.2584 89.4984 90.6538 86.9722 86.3281 84.2656L99.305 93.468Z" fill="#F2CA50"/>
<path d="M80.0267 102.128C74.7999 98.3385 72.2766 95.9928 68.6719 92.5645L80.0267 102.128Z" fill="#F2CA50"/>
<path d="M58.7529 111.151C51.5435 109.888 49.0202 109.346 42.3516 109.166L58.7529 111.151Z" fill="#F2CA50"/>
<path d="M82.9104 114.399C76.6022 110.61 73.8987 108.986 68.6719 104.836L82.9104 114.399Z" fill="#F2CA50"/>
<path d="M34.0654 111.872C26.6758 111.691 24.1525 111.691 17.6641 112.413L34.0654 111.872Z" fill="#F2CA50"/>
<path d="M14.9589 119.812C7.92978 121.617 6.30767 122.158 0.179688 124.684L14.9589 119.812Z" fill="#F2CA50"/>
<path d="M45.2371 149.223C39.4695 153.734 38.7486 154.636 34.0625 159.508L45.2371 149.223Z" fill="#F2CA50"/>
<path d="M34.9643 165.463C30.2782 171.057 29.5573 171.598 26.1328 177.191L34.9643 165.463Z" fill="#F2CA50"/>
<path d="M58.936 159.689C51.9069 162.396 50.6452 162.937 43.9766 164.561L58.936 159.689Z" fill="#F2CA50"/>
<path d="M136.26 127.931C131.034 124.142 128.871 122.157 125.086 118.729L136.26 127.931Z" fill="#F2CA50"/>
<path d="M112.645 150.666C106.156 149.583 103.273 148.861 98.4062 147.418L112.645 150.666Z" fill="#F2CA50"/>
<path d="M89.5767 142.367C83.0882 141.645 79.6638 141.104 74.6172 140.021L89.5767 142.367Z" fill="#F2CA50"/>
<path d="M63.9862 133.885C57.4978 133.163 52.8117 132.081 47.9453 130.998L63.9862 133.885Z" fill="#F2CA50"/>
<path d="M40.3746 126.669C33.8862 125.767 29.921 124.865 25.0547 123.602L40.3746 126.669Z" fill="#F2CA50"/>
<path d="M109.762 120.714C104.716 117.105 101.471 114.398 98.0469 111.15L109.762 120.714Z" fill="#F2CA50"/>
<path d="M90.4762 142.007C83.9878 141.285 80.0226 140.563 75.1562 139.48L90.4762 142.007Z" fill="#F2CA50"/>
<path d="M110.841 120.713C105.615 116.924 102.551 114.217 98.7656 110.789L110.841 120.713Z" fill="#F2CA50"/>
<path d="M109.586 121.798C114.092 127.391 118.237 135.331 124.365 139.3C128.15 141.646 134.098 142.909 137.703 140.022C138.784 139.12 137.342 137.496 136.261 138.398C131.394 142.187 124.545 137.315 121.301 133.526C117.697 129.196 114.452 124.685 111.028 120.354C110.307 119.271 108.685 120.715 109.586 121.798Z" fill="#F2CA50"/>
<path d="M135.9 129.557C139.866 134.97 143.29 142.548 148.697 146.698C152.482 149.405 158.61 150.668 162.575 147.781C163.656 146.879 162.215 145.255 161.133 146.157C156.087 149.946 149.418 145.255 146.354 141.105C143.29 136.955 140.406 132.444 137.342 128.113C136.802 126.85 135.179 128.293 135.9 129.557Z" fill="#F2CA50"/>
<path d="M86.69 97.6185C85.6086 104.475 76.4166 95.0923 74.7945 93.2879C72.091 90.4009 69.2072 87.8747 65.963 85.8899C64.7013 85.1681 63.6199 86.9725 64.7013 87.6943C68.306 89.8596 71.1898 92.5662 74.0735 95.6336C76.0561 97.6185 78.0387 99.9642 80.562 101.227C83.9864 102.851 88.3121 101.949 89.033 97.7989C89.033 96.5358 86.8702 96.3554 86.69 97.6185Z" fill="#F2CA50"/>
<path d="M83.2719 116.384C88.3184 121.616 93.1848 129.014 99.493 132.623C103.278 134.788 109.766 136.052 113.371 132.804C114.452 131.901 113.011 130.277 111.929 131.18C103.278 139.299 89.9405 120.173 84.894 114.94C83.9928 113.857 82.3707 115.301 83.2719 116.384Z" fill="#F2CA50"/>
<path d="M86.1532 123.422C84.3508 126.669 78.9438 125.226 76.4205 123.963C74.0775 122.7 72.2751 120.895 70.4728 119.091C67.2285 116.023 63.8041 113.317 59.8389 111.152C58.5773 110.43 57.3156 112.234 58.5773 112.956C64.8855 116.384 69.0309 122.339 75.1589 125.767C78.7636 127.752 85.4323 128.835 87.7753 124.504C88.4962 123.422 86.8741 122.158 86.1532 123.422Z" fill="#F2CA50"/>
<path d="M60.7422 118.187C59.3004 125.405 38.5734 112.954 34.6082 111.872C33.3465 111.511 32.4454 113.496 33.8873 113.857C40.7362 115.841 46.6839 121.435 53.7131 122.518C57.1375 123.059 62.1841 122.337 62.9051 118.368C63.2655 116.924 61.1027 116.744 60.7422 118.187Z" fill="#F2CA50"/>
<path d="M43.2573 119.992C43.6178 123.24 38.2107 123.601 36.2281 123.421C33.8851 123.24 31.542 122.338 29.199 121.616C24.8733 120.353 20.7279 119.271 16.4023 118.91C14.9604 118.729 14.7802 120.895 16.2221 121.075C23.7919 121.616 31.542 126.308 39.1119 125.586C42.3561 125.225 45.9608 123.421 45.4201 119.632C45.2399 118.188 43.077 118.729 43.2573 119.992Z" fill="#F2CA50"/>
<path d="M117.511 117.647C114.988 120.715 110.302 114.76 109.4 112.956C108.319 110.971 107.598 108.806 106.877 106.821C105.075 101.949 103.272 97.438 100.389 93.1074C99.6677 92.0248 98.0456 93.2879 98.7665 94.551C101.47 98.7011 103.272 103.032 104.895 107.723C105.976 110.971 107.057 114.399 109.4 116.925C111.743 119.632 116.249 121.978 119.133 118.73C120.214 117.828 118.412 116.565 117.511 117.647Z" fill="#F2CA50"/>
<path d="M99.85 103.031C98.2279 106.64 93.3616 102.309 92.0999 100.685C90.8383 98.8809 89.9371 96.896 88.8557 95.0916C86.6929 91.4829 84.1696 88.2349 80.7451 85.7088C79.6637 84.8066 78.4021 86.611 79.4835 87.5132C82.908 90.0393 85.251 93.2872 87.4138 96.896C88.8557 99.2418 89.9371 101.948 91.9197 103.753C94.6232 106.279 99.85 108.083 101.833 103.753C102.554 102.49 100.571 101.768 99.85 103.031Z" fill="#F2CA50"/>
<path d="M80.0228 104.114C83.4473 107.542 86.8717 111.151 90.2962 114.579C92.459 116.745 94.8021 119.271 97.5056 120.534C101.11 122.158 106.337 122.158 107.779 117.827C108.32 116.564 106.157 115.843 105.796 117.106C104.535 120.714 99.4882 119.271 97.1451 117.827C95.3428 116.745 93.9009 115.121 92.459 113.677C88.8543 110.068 85.2496 106.279 81.6449 102.67C80.7438 101.768 78.9414 103.212 80.0228 104.114Z" fill="#F2CA50"/>
<path d="M71.1898 139.118C74.434 144.351 61.9978 145.434 59.4745 145.614C54.7884 145.975 50.4628 146.516 45.9569 147.78C44.6953 148.14 45.0558 150.306 46.3174 149.945C53.3466 147.78 61.6374 149.223 68.306 146.336C71.1898 145.073 75.3352 141.645 73.1724 138.036C72.4514 136.953 70.4689 137.855 71.1898 139.118Z" fill="#F2CA50"/>
<path d="M57.4964 151.389C57.8568 151.75 57.8568 154.457 57.6766 154.818C56.9557 156.261 55.1533 157.163 53.7114 157.705C51.7289 158.607 49.3858 158.968 47.223 159.509C42.8974 160.592 38.9322 161.855 34.967 163.84C33.7054 164.381 34.6066 166.366 35.8682 165.824C40.0136 163.659 44.3392 162.577 48.8451 161.494C51.3684 160.772 54.2521 160.231 56.415 158.787C59.1185 156.983 62.0022 152.833 58.9382 149.946C58.0371 149.044 56.415 150.487 57.4964 151.389Z" fill="#F2CA50"/>
<path d="M59.8369 161.132C66.8661 158.425 75.5174 156.44 81.8256 152.29C85.0698 150.125 89.2152 144.712 85.971 140.922C85.0698 139.84 83.4477 141.283 84.3489 142.366C87.0524 145.433 81.6454 149.944 79.4825 151.208C77.8604 152.11 76.0581 152.832 74.2557 153.373C69.2092 155.358 63.9823 157.162 58.9358 159.147C57.6741 159.688 58.5753 161.673 59.8369 161.132Z" fill="#F2CA50"/>
<path d="M113.009 152.471C118.777 153.193 149.777 161.313 148.335 147.419C148.155 145.975 145.992 146.336 146.173 147.78C147.254 157.884 117.515 150.847 113.19 150.306C111.928 150.126 111.748 152.291 113.009 152.471Z" fill="#F2CA50"/>
<path d="M89.9408 144.713C95.7083 145.615 126.348 154.817 125.447 140.743C125.447 139.3 123.284 139.661 123.284 141.104C123.825 151.209 94.4467 143.269 90.1211 142.548C88.6792 142.187 88.4989 144.352 89.9408 144.713Z" fill="#F2CA50"/>
<path d="M64.1674 135.871C69.9349 136.954 99.6736 147.058 99.8539 133.345C99.8539 131.902 97.691 131.721 97.691 133.165C97.5108 143.63 69.0337 134.608 64.3476 133.706C62.9057 133.345 62.7255 135.51 64.1674 135.871Z" fill="#F2CA50"/>
<path d="M40.5502 129.015C45.9572 130.098 74.4343 139.661 74.6146 126.669C74.6146 125.226 72.4517 125.045 72.4517 126.489C72.2715 136.413 45.2363 127.752 40.7304 127.03C39.2885 126.489 39.1083 128.654 40.5502 129.015Z" fill="#F2CA50"/>
<path d="M232.141 176.109C280.624 176.109 320.096 136.773 320.096 88.0546C320.096 39.5163 280.804 0 232.141 0C183.658 0 144.188 39.3359 144.188 88.0546C144.188 136.593 183.658 176.109 232.141 176.109Z" fill="#2E6C5C"/>
<path d="M232.141 176.109C280.624 176.109 320.096 136.773 320.096 88.0546C320.096 39.5163 280.804 0 232.141 0C183.658 0 144.188 39.3359 144.188 88.0546C144.188 136.593 183.658 176.109 232.141 176.109Z" fill="url(#paint0_linear_653_142)"/>
<path d="M232.142 173.582C279.364 173.582 317.573 135.329 317.573 88.0538C317.573 40.7786 279.364 2.52539 232.142 2.52539C184.921 2.52539 146.711 40.7786 146.711 88.0538C146.711 135.329 184.921 173.582 232.142 173.582Z" fill="#F8E1A1"/>
<path d="M231.5 167C275.317 167 311 131.317 311 87.5C311 43.4977 275.317 8 231.5 8C187.498 8 152 43.6826 152 87.5C152 131.317 187.498 167 231.5 167Z" fill="#F2C94E"/>
<path d="M231.5 165C274.215 165 309 130.215 309 87.5C309 44.6047 274.215 10 231.5 10C188.605 10 154 44.7849 154 87.5C154 130.215 188.605 165 231.5 165Z" fill="#2E6C5C"/>
<path d="M231.5 165C274.215 165 309 130.215 309 87.5C309 44.6047 274.215 10 231.5 10C188.605 10 154 44.7849 154 87.5C154 130.215 188.605 165 231.5 165Z" fill="url(#paint1_linear_653_142)" fill-opacity="0.2"/>
<path d="M292.158 97.4374C282.605 103.753 270.169 106.099 266.744 104.114L264.221 103.031L270.529 91.3025C275.396 91.3025 281.163 88.0546 281.163 79.213C281.163 70.3715 274.855 66.0409 269.087 66.0409C263.32 66.0409 260.797 66.0409 260.797 66.0409C260.797 66.0409 260.436 122.699 260.797 124.503C261.337 127.39 263.32 132.804 279.721 132.804V136.593H246.198C237.727 139.841 227.814 141.465 221.506 141.465C215.197 141.465 185.819 137.134 185.819 116.925C185.819 110.79 185.819 68.5671 185.819 67.1236C185.819 65.1387 180.953 57.5603 173.383 57.1994V54.1319C173.383 54.1319 200.778 54.1319 203.842 54.1319C206.906 54.1319 208.168 56.2972 208.168 59.0038C208.168 60.8082 208.168 108.264 208.168 114.579C208.168 118.368 211.773 128.654 225.11 128.654C229.977 128.654 235.203 128.112 238.087 125.947C238.087 125.947 238.087 68.3866 238.087 66.5822C238.087 62.9734 233.942 57.5603 228.174 57.5603C222.407 57.5603 222.046 57.5603 222.046 57.5603V54.3123C227.273 54.6732 250.523 53.771 256.291 53.4101C262.058 53.0493 302.431 48.1774 302.431 76.6869C303.152 87.1524 298.286 93.4678 292.158 97.4374Z" fill="#F2C94E"/>
<path d="M290.72 95.9921C281.168 102.308 268.731 104.653 265.307 102.668L262.784 101.586L269.092 89.8572C273.958 89.8572 279.726 86.6093 279.726 77.7677C279.726 68.9262 273.417 64.5956 267.65 64.5956C261.882 64.5956 259.359 64.5956 259.359 64.5956C259.359 64.5956 258.999 121.254 259.359 123.058C259.9 125.945 261.882 131.358 278.284 131.358V135.148H244.76C236.289 138.395 226.376 140.019 220.068 140.019C213.76 140.019 184.382 135.689 184.382 115.48C184.382 109.345 184.382 67.1218 184.382 65.6783C184.382 63.6934 179.515 56.1149 171.945 55.7541V52.6866C171.945 52.6866 199.341 52.6866 202.405 52.6866C205.469 52.6866 206.731 54.8519 206.731 57.5585C206.731 59.3629 206.731 106.819 206.731 113.134C206.731 116.923 210.335 127.208 223.673 127.208C228.539 127.208 233.766 126.667 236.65 124.502C236.65 124.502 236.65 66.9413 236.65 65.1369C236.65 61.5281 232.504 56.1149 226.737 56.1149C220.969 56.1149 220.609 56.1149 220.609 56.1149V52.867C225.836 53.2279 249.086 52.3257 254.853 51.9648C260.621 51.6039 300.993 46.7321 300.993 75.2416C301.534 85.5266 296.848 92.0224 290.72 95.9921Z" fill="#F8E1A1"/>
<path d="M289.095 94.5495C279.543 100.865 267.106 103.211 263.682 101.226L261.159 100.143L267.467 88.4146C272.333 88.4146 278.101 85.1667 278.101 76.3251C278.101 67.4836 271.792 63.153 266.025 63.153C260.257 63.153 257.734 63.153 257.734 63.153C257.734 63.153 257.374 119.811 257.734 121.615C258.275 124.503 260.257 129.916 276.659 129.916V133.525H243.135C234.664 136.772 224.751 138.396 218.443 138.396C212.135 138.396 182.757 134.066 182.757 113.857C182.757 107.722 182.757 65.4987 182.757 64.0552C182.757 62.0704 177.89 54.4919 170.32 54.131V51.0635C170.32 51.0635 197.716 51.0635 200.78 51.0635C203.844 51.0635 205.106 53.2288 205.106 55.9354C205.106 57.7398 205.106 105.195 205.106 111.511C205.106 115.3 208.71 125.585 222.048 125.585C226.914 125.585 232.141 125.044 235.025 122.879C235.025 122.879 235.025 65.3183 235.025 63.5139C235.025 59.9051 230.879 54.4919 225.112 54.4919C219.344 54.4919 218.984 54.4919 218.984 54.4919V51.244C224.211 51.6049 247.461 50.7027 253.228 50.3418C258.996 49.9809 299.368 45.109 299.368 73.6185C299.909 84.084 295.223 90.5798 289.095 94.5495Z" fill="white"/>
<path d="M98.051 129.736C101.476 132.623 108.324 134.066 111.749 131.72L112.29 131.179C114.272 128.472 112.109 124.142 107.423 122.157C101.656 119.631 92.644 119.45 83.8125 114.939C90.301 121.435 94.4464 126.668 98.051 129.736Z" fill="#F2CA50"/>
<path d="M79.4848 114.94C83.8104 116.022 87.7756 120.172 86.6942 123.24L86.3337 123.781C84.3512 126.127 79.1243 126.307 75.1592 123.962C70.4731 121.075 66.8684 115.301 58.7578 111.15C68.13 112.955 75.1592 113.677 79.4848 114.94Z" fill="#F2CA50"/>
<path d="M52.9871 111.332C56.9523 111.512 61.6384 114.399 61.6384 117.286L61.4582 117.828C60.3768 120.354 56.0511 121.436 51.9057 119.993C47.0394 118.369 42.1731 113.858 34.0625 111.693C42.5335 111.693 48.6615 111.151 52.9871 111.332Z" fill="#F2CA50"/>
<path d="M33.7032 114.94C37.6683 114.218 42.8951 116.203 43.7963 119.09V119.631C43.6161 122.158 39.8311 124.142 35.5055 123.782C30.2787 123.24 24.1507 119.812 15.6797 119.451C23.9705 117.286 29.738 115.481 33.7032 114.94Z" fill="#F2CA50"/>
<path d="M114.805 105.376C117.869 108.263 119.852 114.398 118.05 117.285L117.509 117.826C115.166 119.631 111.02 117.646 108.497 113.496C105.613 108.444 104.532 100.685 99.125 92.9258C106.334 98.6999 111.561 102.309 114.805 105.376Z" fill="#F2CA50"/>
<path d="M95.8845 92.0251C99.1288 93.8295 101.652 99.4232 100.751 102.491L100.391 103.032C98.7683 105.197 94.9834 104.836 92.0996 101.588C88.6752 97.7992 87.0531 90.5816 79.8438 85.5293C87.9543 87.6946 92.6403 90.0403 95.8845 92.0251Z" fill="#F2CA50"/>
<path d="M95.7022 117.286C99.1267 120.173 104.534 120.534 106.336 117.286L106.516 116.565C107.057 112.956 104.173 108.445 100.028 107.001C94.9813 105.016 88.4928 106.46 80.5625 102.49C87.4114 108.986 91.9173 114.219 95.7022 117.286Z" fill="#F2CA50"/>
<path d="M46.6839 151.57C49.3874 149.043 55.155 147.961 57.8586 149.765L58.3993 150.126C60.0214 152.291 58.0387 155.9 54.2538 157.524C49.5677 159.689 42.1781 159.87 34.9688 163.839C40.3758 158.426 43.8002 154.096 46.6839 151.57Z" fill="#F2CA50"/>
<path d="M60.7407 137.495C64.1652 135.51 69.7525 135.329 71.7351 137.675L72.0955 138.216C72.9967 140.743 70.1129 143.81 65.9675 144.893C60.921 146.156 53.8919 145.254 45.7812 147.78C52.6302 143.269 57.136 139.48 60.7407 137.495Z" fill="#F2CA50"/>
<path d="M79.6645 151.389C83.8099 149.405 87.2344 144.352 85.432 141.465L84.8913 140.924C82.368 138.939 76.961 139.841 73.3563 142.909C69.0306 146.878 66.5074 153.555 58.9375 159.329C68.3097 155.72 75.3389 153.555 79.6645 151.389Z" fill="#F2CA50"/>
<path d="M122.921 136.413C125.985 139.481 132.833 141.285 136.438 139.3L137.159 138.759C139.502 136.233 137.7 131.902 133.194 129.556C127.787 126.669 118.775 125.948 110.484 120.715C116.252 127.752 119.676 133.165 122.921 136.413Z" fill="#F2CA50"/>
<path d="M147.972 143.991C150.675 147.059 157.344 148.863 161.129 146.878L161.85 146.337C164.373 143.811 163.112 139.48 158.786 137.135C153.559 134.247 144.548 133.526 136.617 128.293C142.024 135.33 145.088 140.924 147.972 143.991Z" fill="#F2CA50"/>
<path d="M81.1023 88.7762C84.3465 89.6784 88.1315 93.8285 88.1315 97.2568L87.9512 97.9786C87.05 100.685 83.4454 101.407 80.0209 99.0612C76.0557 96.3546 72.0906 90.0392 65.4219 86.25C72.6313 87.5131 77.6778 87.6935 81.1023 88.7762Z" fill="#F2CA50"/>
<path d="M80.7418 85.348C74.4336 83.724 70.4684 83.0023 65.4219 82.4609L80.7418 85.348Z" fill="#F2CA50"/>
<path d="M66.6864 86.4299C59.4771 85.5277 55.6921 84.9863 49.0234 84.9863L66.6864 86.4299Z" fill="#F2CA50"/>
<path d="M100.031 93.1072C94.9845 89.1375 91.56 86.7918 87.2344 84.2656L100.031 93.1072Z" fill="#F2CA50"/>
<path d="M81.646 102.491C76.4192 98.7014 73.3552 95.9948 69.5703 92.5664L81.646 102.491Z" fill="#F2CA50"/>
<path d="M60.7406 110.971C53.5312 109.708 49.7463 109.167 43.2578 108.986L60.7406 110.971Z" fill="#F2CA50"/>
<path d="M84.3496 114.58C78.0413 110.79 74.7971 108.986 69.5703 104.836L84.3496 114.58Z" fill="#F2CA50"/>
<path d="M35.8661 111.693C28.4765 111.512 24.8718 111.332 18.2031 112.054L35.8661 111.693Z" fill="#F2CA50"/>
<path d="M17.3009 118.729C10.2717 120.533 6.66704 121.435 0.539062 123.961L17.3009 118.729Z" fill="#F2CA50"/>
<path d="M47.0405 146.879C41.273 151.39 38.3892 153.736 33.7031 158.607L47.0405 146.879Z" fill="#F2CA50"/>
<path d="M36.0474 162.938C31.3613 168.531 29.0182 171.418 25.5938 177.012L36.0474 162.938Z" fill="#F2CA50"/>
<path d="M60.5587 158.246C53.7098 160.953 50.2853 162.396 43.7969 163.84L60.5587 158.246Z" fill="#F2CA50"/>
<path d="M137.521 128.473C132.294 124.684 129.23 121.977 125.445 118.549L137.521 128.473Z" fill="#F2CA50"/>
<path d="M123.46 136.413C126.524 139.481 133.373 141.285 136.977 139.3L137.698 138.759C140.041 136.233 138.239 131.902 133.733 129.556C128.326 126.669 119.314 125.948 111.023 120.715C116.611 127.752 120.035 133.165 123.46 136.413Z" fill="#F2CA50"/>
<path d="M123.46 136.413C126.524 139.481 133.373 141.285 136.977 139.3L137.698 138.759C140.041 136.233 138.239 131.902 133.733 129.556C128.326 126.669 119.314 125.948 111.023 120.715C116.611 127.752 120.035 133.165 123.46 136.413Z" fill="url(#paint2_linear_653_142)" fill-opacity="0.5"/>
<path d="M148.691 143.991C151.394 147.059 158.063 148.863 161.848 146.878L162.569 146.337C165.092 143.811 163.83 139.48 159.505 137.135C154.278 134.247 145.266 133.526 137.336 128.293C142.563 135.33 145.627 140.924 148.691 143.991Z" fill="#F2CA50"/>
<path d="M148.691 143.991C151.394 147.059 158.063 148.863 161.848 146.878L162.569 146.337C165.092 143.811 163.83 139.48 159.505 137.135C154.278 134.247 145.266 133.526 137.336 128.293C142.563 135.33 145.627 140.924 148.691 143.991Z" fill="url(#paint3_linear_653_142)" fill-opacity="0.5"/>
<path d="M81.6491 88.7762C84.8933 89.6784 88.6782 93.8285 88.6782 97.2568L88.498 97.9786C87.5968 100.685 83.9921 101.407 80.5677 99.0612C76.6025 96.3546 72.6374 90.0392 65.9688 86.25C73.1781 87.5131 78.2246 87.6935 81.6491 88.7762Z" fill="#F2CA50"/>
<path d="M81.6491 88.7762C84.8933 89.6784 88.6782 93.8285 88.6782 97.2568L88.498 97.9786C87.5968 100.685 83.9921 101.407 80.5677 99.0612C76.6025 96.3546 72.6374 90.0392 65.9688 86.25C73.1781 87.5131 78.2246 87.6935 81.6491 88.7762Z" fill="url(#paint4_linear_653_142)" fill-opacity="0.5"/>
<path d="M98.051 129.015C101.476 131.902 108.324 133.345 111.749 131L112.29 130.458C114.272 127.752 112.109 123.421 107.423 121.436C101.656 118.91 92.644 118.73 83.8125 114.219C90.301 120.895 94.4464 126.128 98.051 129.015Z" fill="#F2CA50"/>
<path d="M98.051 129.015C101.476 131.902 108.324 133.345 111.749 131L112.29 130.458C114.272 127.752 112.109 123.421 107.423 121.436C101.656 118.91 92.644 118.73 83.8125 114.219C90.301 120.895 94.4464 126.128 98.051 129.015Z" fill="url(#paint5_linear_653_142)" fill-opacity="0.5"/>
<path d="M80.0239 114.578C84.3495 115.661 88.3147 119.811 87.2333 122.879L86.8728 123.42C84.8902 125.766 79.6634 125.946 75.6982 123.6C71.0121 120.713 67.4074 114.939 59.2969 110.789C68.6691 112.593 75.518 113.315 80.0239 114.578Z" fill="#F2CA50"/>
<path d="M80.0239 114.578C84.3495 115.661 88.3147 119.811 87.2333 122.879L86.8728 123.42C84.8902 125.766 79.6634 125.946 75.6982 123.6C71.0121 120.713 67.4074 114.939 59.2969 110.789C68.6691 112.593 75.518 113.315 80.0239 114.578Z" fill="url(#paint6_linear_653_142)" fill-opacity="0.5"/>
<path d="M53.5262 111.15C57.4914 111.331 62.1775 114.218 62.1775 117.105L61.9972 117.646C60.9158 120.172 56.5902 121.255 52.4448 119.811C47.5785 118.187 42.7121 113.676 34.6016 111.511C43.2528 111.511 49.3808 110.97 53.5262 111.15Z" fill="#F2CA50"/>
<path d="M53.5262 111.15C57.4914 111.331 62.1775 114.218 62.1775 117.105L61.9972 117.646C60.9158 120.172 56.5902 121.255 52.4448 119.811C47.5785 118.187 42.7121 113.676 34.6016 111.511C43.2528 111.511 49.3808 110.97 53.5262 111.15Z" fill="url(#paint7_linear_653_142)" fill-opacity="0.5"/>
<path d="M34.4214 114.579C38.3865 113.857 43.6133 115.842 44.6947 118.729V119.27C44.3343 122.698 40.7296 123.781 36.4039 123.42C31.1771 122.879 25.0492 119.451 16.5781 119.09C24.6887 116.924 30.276 115.12 34.4214 114.579Z" fill="#F2CA50"/>
<path d="M34.4214 114.579C38.3865 113.857 43.6133 115.842 44.6947 118.729V119.27C44.3343 122.698 40.7296 123.781 36.4039 123.42C31.1771 122.879 25.0492 119.451 16.5781 119.09C24.6887 116.924 30.276 115.12 34.4214 114.579Z" fill="url(#paint8_linear_653_142)" fill-opacity="0.5"/>
<path d="M114.805 105.017C117.869 107.904 119.852 114.039 118.05 116.926L117.509 117.467C115.166 119.271 111.02 117.287 108.497 113.137C105.613 108.084 104.532 100.325 99.125 92.5664C106.334 98.3405 111.561 101.769 114.805 105.017Z" fill="#F2CA50"/>
<path d="M114.805 105.017C117.869 107.904 119.852 114.039 118.05 116.926L117.509 117.467C115.166 119.271 111.02 117.287 108.497 113.137C105.613 108.084 104.532 100.325 99.125 92.5664C106.334 98.3405 111.561 101.769 114.805 105.017Z" fill="url(#paint9_linear_653_142)" fill-opacity="0.5"/>
<path d="M95.7043 91.4822C98.9485 93.2866 101.472 98.8802 100.571 101.948L100.391 102.489C98.7683 104.654 94.9834 104.113 92.0996 101.045C88.6752 97.2562 87.0531 90.0386 79.8438 84.9863C87.7741 87.1516 92.4601 89.4973 95.7043 91.4822Z" fill="#F2CA50"/>
<path d="M95.7043 91.4822C98.9485 93.2866 101.472 98.8802 100.571 101.948L100.391 102.489C98.7683 104.654 94.9834 104.113 92.0996 101.045C88.6752 97.2562 87.0531 90.0386 79.8438 84.9863C87.7741 87.1516 92.4601 89.4973 95.7043 91.4822Z" fill="url(#paint10_linear_653_142)" fill-opacity="0.5"/>
<path d="M61.4595 136.954C64.8839 134.969 70.4712 134.788 72.4538 137.134L72.8143 137.675C73.7155 140.202 70.8317 143.269 66.6863 144.352C61.6397 145.615 54.6106 144.713 46.5 147.239C53.3489 142.728 57.8548 138.938 61.4595 136.954Z" fill="#F2CA50"/>
<path d="M61.4595 136.954C64.8839 134.969 70.4712 134.788 72.4538 137.134L72.8143 137.675C73.7155 140.202 70.8317 143.269 66.6863 144.352C61.6397 145.615 54.6106 144.713 46.5 147.239C53.3489 142.728 57.8548 138.938 61.4595 136.954Z" fill="url(#paint11_linear_653_142)" fill-opacity="0.5"/>
<path d="M96.2413 116.744C99.6657 119.631 105.073 119.992 106.875 116.744L107.055 116.022C107.596 112.414 104.712 107.903 100.567 106.279C95.5203 104.294 89.0319 105.737 81.1016 101.768C87.9505 108.624 92.6366 114.037 96.2413 116.744Z" fill="#F2CA50"/>
<path d="M96.2413 116.744C99.6657 119.631 105.073 119.992 106.875 116.744L107.055 116.022C107.596 112.414 104.712 107.903 100.567 106.279C95.5203 104.294 89.0319 105.737 81.1016 101.768C87.9505 108.624 92.6366 114.037 96.2413 116.744Z" fill="url(#paint12_linear_653_142)" fill-opacity="0.5"/>
<path d="M47.4028 151.029C50.1063 148.502 55.8738 147.42 58.5773 149.224L59.118 149.585C60.7401 151.75 58.7575 155.359 54.9726 156.983C50.2865 159.148 42.8969 159.329 35.6875 163.298C40.9143 157.885 44.519 153.374 47.4028 151.029Z" fill="#F2CA50"/>
<path d="M47.4028 151.029C50.1063 148.502 55.8738 147.42 58.5773 149.224L59.118 149.585C60.7401 151.75 58.7575 155.359 54.9726 156.983C50.2865 159.148 42.8969 159.329 35.6875 163.298C40.9143 157.885 44.519 153.374 47.4028 151.029Z" fill="url(#paint13_linear_653_142)" fill-opacity="0.5"/>
<path d="M80.2036 150.667C84.349 148.682 87.7734 143.63 85.9711 140.743L85.4304 140.201C82.9071 138.216 77.5 139.119 73.8953 142.186C69.5697 146.156 67.0464 152.832 59.4766 158.606C68.8488 154.997 75.8779 152.832 80.2036 150.667Z" fill="#F2CA50"/>
<path d="M80.2036 150.667C84.349 148.682 87.7734 143.63 85.9711 140.743L85.4304 140.201C82.9071 138.216 77.5 139.119 73.8953 142.186C69.5697 146.156 67.0464 152.832 59.4766 158.606C68.8488 154.997 75.8779 152.832 80.2036 150.667Z" fill="url(#paint14_linear_653_142)" fill-opacity="0.5"/>
<path d="M135.898 153.555C140.764 153.915 146.892 151.028 147.252 147.42V146.698C146.171 143.63 140.944 141.646 135.898 142.728C129.77 144.172 123.281 149.044 113.008 150.487C123.281 151.75 130.671 153.374 135.898 153.555Z" fill="#F2CA50"/>
<path d="M136.437 153.193C141.303 153.554 147.431 150.667 147.791 147.058V146.337C146.71 143.269 141.483 141.284 136.437 142.367C130.309 143.81 123.82 148.682 113.547 150.126C123.82 151.389 131.39 153.013 136.437 153.193Z" fill="#F2CA50"/>
<path d="M136.437 153.193C141.303 153.554 147.431 150.667 147.791 147.058V146.337C146.71 143.269 141.483 141.284 136.437 142.367C130.309 143.81 123.82 148.682 113.547 150.126C123.82 151.389 131.39 153.013 136.437 153.193Z" fill="url(#paint15_linear_653_142)" fill-opacity="0.5"/>
<path d="M113.726 150.306C107.237 149.223 103.452 148.141 98.5859 146.697L113.726 150.306Z" fill="#F2CA50"/>
<path d="M112.467 146.517C117.334 147.059 123.462 144.352 124.002 140.743V140.021C123.101 136.954 117.874 134.789 112.828 135.691C106.52 136.774 100.031 141.465 89.7578 142.728C100.031 144.352 107.421 146.156 112.467 146.517Z" fill="#F2CA50"/>
<path d="M113.186 145.976C118.052 146.518 124.18 143.811 124.721 140.202V139.48C123.82 136.413 118.593 134.248 113.547 135.15C107.238 136.232 100.75 140.924 90.4766 142.187C100.57 143.631 107.959 145.615 113.186 145.976Z" fill="#F2CA50"/>
<path d="M113.186 145.976C118.052 146.518 124.18 143.811 124.721 140.202V139.48C123.82 136.413 118.593 134.248 113.547 135.15C107.238 136.232 100.75 140.924 90.4766 142.187C100.57 143.631 107.959 145.615 113.186 145.976Z" fill="url(#paint16_linear_653_142)" fill-opacity="0.5"/>
<path d="M86.5137 138.397C91.3801 138.938 97.6883 136.593 98.4092 132.984V132.262C97.6883 129.014 92.8219 126.849 87.5951 127.571C81.2869 128.473 74.2578 132.984 63.9844 133.706C74.0775 135.871 81.4671 138.036 86.5137 138.397Z" fill="#F2CA50"/>
<path d="M87.0528 137.856C91.9191 138.397 98.2273 136.052 98.9483 132.443V131.721C98.2273 128.473 93.361 126.308 88.1342 127.03C81.826 127.932 74.7968 132.443 64.5234 133.165C74.7968 135.33 82.0062 137.315 87.0528 137.856Z" fill="#F2CA50"/>
<path d="M87.0528 137.856C91.9191 138.397 98.2273 136.052 98.9483 132.443V131.721C98.2273 128.473 93.361 126.308 88.1342 127.03C81.826 127.932 74.7968 132.443 64.5234 133.165C74.7968 135.33 82.0062 137.315 87.0528 137.856Z" fill="url(#paint17_linear_653_142)" fill-opacity="0.5"/>
<path d="M65.0621 133.345C58.5737 132.623 54.6085 131.901 49.7422 130.818L65.0621 133.345Z" fill="#F2CA50"/>
<path d="M61.6433 131.36C66.3294 131.901 72.2771 129.556 72.998 126.308V125.586C72.4573 122.519 67.591 120.353 62.7247 121.075C56.7769 121.977 50.1082 126.127 40.1953 126.849C49.928 129.014 56.9571 130.819 61.6433 131.36Z" fill="#F2CA50"/>
<path d="M62.362 130.819C67.0481 131.36 72.9959 129.015 73.7168 125.767V125.045C73.1761 121.978 68.3097 119.812 63.4434 120.534C57.4957 121.436 50.827 125.586 40.9141 126.308C50.6467 128.473 57.4957 130.278 62.362 130.819Z" fill="#F2CA50"/>
<path d="M62.362 130.819C67.0481 131.36 72.9959 129.015 73.7168 125.767V125.045C73.1761 121.978 68.3097 119.812 63.4434 120.534C57.4957 121.436 50.827 125.586 40.9141 126.308C50.6467 128.473 57.4957 130.278 62.362 130.819Z" fill="url(#paint18_linear_653_142)" fill-opacity="0.5"/>
<path d="M42.1715 126.487C35.6831 125.585 31.7179 124.683 26.8516 123.42L42.1715 126.487Z" fill="#F2CA50"/>
<path d="M23.6094 189.101C24.6908 188.56 25.592 188.019 26.4931 187.838C27.3943 187.477 28.4757 187.477 29.3769 187.477C30.6385 187.477 31.3595 187.838 31.9002 188.56C32.2606 189.282 32.6211 190.725 32.6211 192.71C32.6211 193.612 32.4409 196.499 32.2606 201.01C32.0804 205.702 31.9002 209.852 31.9002 213.461C31.9002 220.317 32.8013 225.189 34.7839 227.896C36.7665 230.783 40.0107 232.226 44.5166 232.226C49.9237 232.226 53.7086 230.422 56.0516 226.813C58.3947 223.204 59.6563 217.25 59.6563 209.13C59.6563 204.078 59.2959 199.747 58.7552 196.499C58.2144 193.251 57.3133 190.906 56.0516 189.462C57.133 188.74 58.0342 188.199 58.7552 187.838C59.6563 187.477 60.3773 187.297 61.0982 187.297C62.9006 187.297 64.1622 188.199 64.7029 190.003C65.4238 191.808 65.6041 196.138 65.6041 202.815C65.6041 215.445 63.8017 224.287 60.3773 229.7C56.9528 235.113 51.1853 237.82 43.4352 237.82C36.9467 237.82 32.2606 236.196 29.3769 232.768C26.4931 229.339 25.0513 223.926 25.0513 216.167C25.0513 214.363 25.0513 212.017 25.2315 208.95C25.4117 205.882 25.4117 203.536 25.4117 202.093C25.4117 199.025 25.2315 196.319 24.871 194.334C24.871 192.169 24.3303 190.545 23.6094 189.101Z" fill="black"/>
<path d="M106.7 237.279C103.456 234.212 99.1302 229.34 93.5429 222.663C87.9557 216.168 83.63 211.296 80.9265 208.409C80.9265 214.905 81.1067 221.942 81.287 229.159C81.287 231.144 81.4672 232.227 81.4672 232.768C81.4672 234.572 81.287 235.655 80.9265 236.196C80.566 236.738 79.8451 236.918 78.9439 236.918C78.223 236.918 77.6823 236.738 76.9613 236.557C76.2404 236.377 75.5195 236.016 74.7985 235.475C75.6997 233.851 76.4206 231.505 76.7811 228.618C77.1416 225.55 77.3218 220.318 77.3218 212.739C77.3218 209.13 77.1416 206.604 76.6009 205.161C76.2404 203.717 75.3392 202.635 74.2578 202.093C74.9788 201.191 75.6997 200.469 76.2404 200.108C76.7811 199.748 77.502 199.567 78.0427 199.567C78.5834 199.567 79.1242 199.748 79.6649 200.108C80.2056 200.469 80.9265 201.011 81.6474 202.093C81.8277 202.274 82.1881 202.635 82.5486 203.176C89.2173 211.115 96.7872 219.776 105.078 228.979C105.078 226.453 105.258 224.107 105.258 222.122C105.258 220.137 105.258 218.513 105.258 217.07C105.258 212.378 105.078 208.95 104.717 206.424C104.357 204.078 103.816 202.093 102.915 200.65C103.636 200.289 104.357 199.928 105.078 199.748C105.799 199.567 106.34 199.387 106.88 199.387C107.962 199.387 108.502 199.748 108.863 200.289C109.223 200.83 109.404 202.093 109.404 204.078C109.404 205.161 109.223 208.048 109.043 212.559C108.863 217.07 108.683 221.039 108.683 224.468C108.683 226.633 108.683 228.798 108.863 230.603C109.043 232.588 109.043 234.392 109.223 236.016L106.7 237.279Z" fill="black"/>
<path d="M126.345 235.654C125.444 236.015 124.723 236.376 124.002 236.737C123.282 236.917 122.561 237.098 121.84 237.098C120.938 237.098 120.218 236.917 119.857 236.376C119.497 235.835 119.316 234.933 119.316 233.489C119.316 232.767 119.316 230.422 119.497 226.452C119.677 222.482 119.677 218.873 119.677 215.626C119.677 211.475 119.497 208.228 119.316 205.882C119.136 203.536 118.595 201.912 118.055 201.01C118.956 200.469 119.677 200.108 120.398 199.927C121.119 199.747 121.84 199.566 122.38 199.566C123.281 199.566 124.002 199.747 124.363 200.288C124.723 200.829 124.904 201.732 124.904 202.995C124.904 203.175 124.723 205.34 124.543 209.491C124.363 213.641 124.183 217.61 124.183 221.58C124.183 225.55 124.363 228.617 124.543 230.782C125.444 232.948 125.805 234.572 126.345 235.654Z" fill="black"/>
<path d="M149.597 235.654C148.696 236.196 147.975 236.556 147.254 236.737C146.533 236.917 145.812 237.098 145.091 237.098C144.19 237.098 143.649 236.917 143.289 236.376C142.928 235.835 142.748 234.932 142.748 233.669C142.748 232.767 142.928 230.061 143.109 225.55C143.289 221.039 143.469 216.888 143.469 213.28C143.469 212.377 143.469 210.393 143.469 207.506C143.469 206.062 143.469 204.979 143.469 204.077H141.487C138.963 204.077 136.8 204.258 135.359 204.438C133.736 204.619 132.655 204.979 131.754 205.521C131.393 204.799 131.033 204.077 130.853 203.536C130.672 202.995 130.492 202.453 130.492 202.092C130.492 201.371 130.672 200.829 131.213 200.468C131.754 200.108 132.655 199.927 134.097 199.927C134.818 199.927 136.8 199.927 140.045 200.108C143.289 200.288 146.353 200.288 148.876 200.288C151.94 200.288 154.463 200.108 156.446 199.927C158.248 199.747 159.69 199.205 160.772 198.664C161.132 199.205 161.312 199.747 161.493 200.108C161.673 200.649 161.673 201.01 161.673 201.371C161.673 202.273 161.312 202.995 160.591 203.536C159.87 203.897 158.789 204.258 157.347 204.258C156.806 204.258 155.545 204.258 153.382 204.077C151.399 203.897 149.597 203.897 148.335 203.897C148.155 206.964 148.155 209.851 147.975 212.558C147.975 215.265 147.795 217.791 147.795 219.956C147.795 224.287 147.975 227.715 148.155 230.241C148.516 232.587 149.056 234.391 149.597 235.654Z" fill="black"/>
<path d="M186.538 204.619C185.637 204.259 184.555 203.898 183.113 203.717C181.852 203.537 180.049 203.356 178.067 203.356C177.166 203.356 175.724 203.356 173.381 203.356C172.84 203.356 172.48 203.356 172.119 203.356L171.939 214.905C172.48 214.905 172.84 214.905 173.381 214.905C173.921 214.905 174.823 214.905 175.904 214.905C178.247 214.905 180.049 214.905 181.672 214.724C183.113 214.544 184.195 214.544 184.916 214.183C185.096 214.724 185.276 215.085 185.456 215.446C185.637 215.807 185.637 216.168 185.637 216.528C185.637 217.431 185.456 217.972 184.916 218.333C184.375 218.694 183.474 218.874 182.212 218.874C181.852 218.874 180.77 218.874 179.328 218.874C177.706 218.874 176.445 218.874 175.183 218.874C174.282 218.874 173.561 218.874 173.2 218.874C172.66 218.874 172.299 218.874 171.939 218.874C171.939 220.859 171.939 223.024 171.939 225.19C171.939 227.355 171.759 229.881 171.759 232.407C171.939 232.407 172.119 232.407 172.48 232.407C174.823 232.407 176.445 232.407 177.346 232.407C179.148 232.407 180.77 232.227 182.032 232.046C183.294 231.866 184.555 231.505 185.456 230.964C185.817 231.685 186.177 232.227 186.358 232.768C186.538 233.309 186.538 233.67 186.538 234.212C186.538 235.114 186.177 235.836 185.637 236.196C185.096 236.557 183.834 236.738 182.212 236.738C181.311 236.738 180.049 236.738 178.427 236.738C176.805 236.738 175.544 236.738 174.642 236.738C172.84 236.738 171.038 236.738 169.055 236.918C168.695 236.918 168.514 236.918 168.334 236.918C167.793 236.918 167.253 236.738 167.072 236.557C166.892 236.196 166.712 235.836 166.712 235.114C166.712 234.753 166.712 233.851 166.892 232.407C167.253 226.994 167.253 221.942 167.253 217.25C167.253 212.559 167.253 208.77 167.072 206.063C166.892 203.176 166.712 201.191 166.352 199.748H169.596C173.741 199.748 177.887 199.567 182.212 199.387C183.113 199.387 183.654 199.387 183.834 199.387C185.276 199.387 186.177 199.567 186.718 199.928C187.259 200.289 187.439 200.83 187.439 201.552C187.439 202.093 187.259 202.454 187.079 202.996C187.259 203.356 186.898 203.898 186.538 204.619Z" fill="black"/>
<path d="M193.211 199.386C195.554 199.386 197.897 199.206 200.42 199.206C202.763 199.206 204.025 199.025 204.025 199.025C210.874 199.025 216.281 200.649 220.246 203.897C224.211 207.145 226.374 211.476 226.374 216.889C226.374 219.776 225.833 222.483 224.572 225.009C223.31 227.535 221.688 229.881 219.345 231.685C217.362 233.489 214.839 234.752 212.136 235.655C209.432 236.557 206.188 236.918 202.763 236.918C199.339 236.918 196.996 236.557 195.914 236.016C194.833 235.474 194.292 234.392 194.292 232.768C194.292 232.587 194.292 230.602 194.473 226.633C194.653 222.663 194.653 218.693 194.653 214.724C194.653 210.574 194.473 207.145 194.292 204.619C194.112 202.454 193.752 200.649 193.211 199.386ZM199.699 203.536C199.519 207.145 199.519 210.574 199.519 213.461C199.519 216.348 199.519 218.874 199.519 221.219C199.519 223.204 199.519 225.009 199.519 226.813C199.519 228.617 199.699 230.422 199.699 232.046C200.601 232.226 201.322 232.407 202.223 232.587C203.124 232.768 203.845 232.768 204.746 232.768C209.612 232.768 213.577 231.324 216.461 228.617C219.525 225.911 220.967 222.302 220.967 217.972C220.967 213.641 219.525 210.032 216.461 207.326C213.577 204.619 209.612 203.175 204.926 203.175C204.025 203.175 203.124 203.175 202.223 203.356C201.322 203.356 200.601 203.536 199.699 203.536Z" fill="black"/>
<path d="M261.337 235.294C260.255 235.835 259.174 236.376 258.273 236.737C257.372 237.098 256.47 237.279 255.749 237.279C254.487 237.279 253.587 236.918 253.226 236.196C252.686 235.474 252.505 234.211 252.505 232.226C252.505 230.963 252.686 227.896 252.866 223.024C253.046 217.972 253.226 213.641 253.226 209.852C253.226 203.536 253.046 198.665 252.686 195.056C252.325 191.627 251.784 189.282 251.062 188.019H252.505C253.947 188.019 256.11 187.838 258.994 187.658C261.878 187.477 264.221 187.297 265.662 187.297C270.889 187.297 275.034 188.56 277.917 191.086C280.801 193.612 282.424 197.041 282.424 201.552C282.424 206.604 280.621 210.754 277.197 214.002C273.772 217.25 269.086 218.874 263.499 218.874C262.598 218.874 261.878 218.874 261.157 218.874C260.436 218.874 259.715 218.693 259.174 218.693C259.174 223.024 259.353 226.633 259.714 229.339C259.894 231.685 260.436 233.85 261.337 235.294ZM259.174 213.28C259.895 213.461 260.436 213.461 261.157 213.461C261.878 213.461 262.598 213.461 263.499 213.461C267.284 213.461 270.167 212.378 272.33 210.393C274.493 208.408 275.575 205.702 275.575 202.093C275.575 198.845 274.674 196.499 272.692 194.875C270.889 193.251 268.005 192.349 264.4 192.349C263.679 192.349 262.959 192.349 262.238 192.53C261.517 192.53 260.615 192.71 259.714 192.891C259.534 195.958 259.354 199.025 259.354 202.093C259.174 204.98 259.174 207.867 259.174 210.574V213.28Z" fill="black"/>
<path d="M303.516 221.219C304.778 221.58 306.4 223.024 308.202 225.009C308.743 225.55 309.104 226.091 309.284 226.272C311.266 228.437 312.889 230.061 314.511 231.324C315.953 232.587 317.214 233.309 318.296 233.489C317.755 234.933 317.214 235.835 316.673 236.376C316.133 236.918 315.412 237.279 314.691 237.279C313.97 237.279 313.249 237.098 312.528 236.557C311.807 236.016 310.906 235.113 309.825 233.85C309.104 232.948 308.022 231.685 306.58 230.061C302.435 225.009 299.191 222.663 296.848 222.663C296.487 222.663 296.307 222.663 295.766 222.663C295.406 222.663 294.865 222.663 294.324 222.843C294.505 226.813 294.685 229.52 294.865 231.324C295.045 233.128 295.406 234.572 295.947 235.474C295.045 236.016 294.324 236.196 293.603 236.557C292.883 236.737 292.162 236.918 291.621 236.918C290.72 236.918 289.999 236.737 289.638 236.196C289.278 235.655 289.098 234.752 289.098 233.128C289.098 232.587 289.098 230.241 289.278 226.272C289.458 222.302 289.458 218.332 289.458 214.904C289.458 210.393 289.278 206.965 289.098 204.619C288.917 202.454 288.377 200.649 287.836 199.567C289.999 199.567 292.342 199.386 294.865 199.206C297.388 199.025 298.65 199.025 299.01 199.025C302.976 199.025 306.04 199.928 308.202 201.732C310.365 203.536 311.627 206.063 311.627 209.31C311.627 212.197 310.906 214.543 309.464 216.528C308.383 218.693 306.4 220.137 303.516 221.219ZM294.865 203.536C294.685 206.423 294.685 209.31 294.505 211.837C294.505 214.543 294.324 217.069 294.324 219.596C294.505 219.596 294.685 219.596 294.865 219.596C295.045 219.596 295.406 219.596 295.406 219.596C299.01 219.596 301.714 218.693 303.697 217.069C305.679 215.445 306.761 213.1 306.761 210.032C306.761 207.686 306.04 206.063 304.598 204.799C303.156 203.536 300.993 202.995 298.29 202.995C297.749 202.995 297.028 202.995 296.487 203.175C296.127 203.175 295.406 203.356 294.865 203.536Z" fill="black"/>
<path d="M342.803 224.829H328.745C327.303 227.896 326.402 230.242 325.861 232.046C325.321 233.851 324.96 235.294 324.96 236.557V236.918C324.6 236.918 324.239 236.918 324.059 237.099C323.879 237.099 323.698 237.099 323.518 237.099C322.437 237.099 321.536 236.918 320.995 236.377C320.454 235.836 320.094 235.294 320.094 234.392C320.094 233.49 321.716 229.701 325.14 222.844C328.565 215.987 331.449 209.672 333.972 203.898C333.611 203.537 333.431 203.176 333.071 202.815C332.71 202.454 332.35 202.093 331.989 201.732C332.71 201.011 333.251 200.289 333.792 199.928C334.332 199.567 334.873 199.387 335.414 199.387C336.135 199.387 336.856 199.928 337.577 200.83C338.297 201.732 339.018 203.356 340.1 205.702C341.001 207.687 342.082 210.574 343.524 214.002C348.391 226.272 351.815 233.129 353.617 234.933C352.896 235.655 352.356 236.196 351.815 236.557C351.274 236.918 350.734 237.099 350.013 237.099C348.21 237.099 346.228 234.031 344.065 228.077C343.524 226.633 342.984 225.731 342.803 224.829ZM335.954 208.048L334.693 210.935C332.71 215.626 331.268 219.055 330.367 221.22H341.361C340.46 218.874 339.559 216.529 338.658 214.363C337.757 212.198 336.856 210.033 335.954 208.048Z" fill="black"/>
<path d="M366.236 235.654C365.335 236.015 364.614 236.376 363.893 236.737C363.172 236.917 362.451 237.098 361.73 237.098C360.829 237.098 360.108 236.917 359.748 236.376C359.387 235.835 359.207 234.933 359.207 233.489C359.207 232.767 359.207 230.422 359.387 226.452C359.567 222.482 359.567 218.873 359.567 215.626C359.567 211.475 359.387 208.228 359.207 205.882C359.027 203.536 358.486 201.912 357.945 201.01C358.846 200.469 359.567 200.108 360.288 199.927C361.009 199.747 361.73 199.566 362.271 199.566C363.172 199.566 363.893 199.747 364.254 200.288C364.614 200.829 364.794 201.732 364.794 202.995C364.794 203.175 364.614 205.34 364.434 209.491C364.254 213.641 364.073 217.61 364.073 221.58C364.073 225.55 364.254 228.617 364.434 230.782C365.155 232.948 365.695 234.572 366.236 235.654Z" fill="black"/>
<path d="M389.126 221.219C390.387 221.58 392.009 223.024 393.812 225.009C394.353 225.55 394.713 226.091 394.893 226.272C396.876 228.437 398.498 230.061 400.12 231.324C401.562 232.587 402.824 233.309 403.905 233.489C403.364 234.933 402.824 235.835 402.283 236.376C401.742 236.918 401.021 237.279 400.3 237.279C399.579 237.279 398.858 237.098 398.137 236.557C397.417 236.016 396.515 235.113 395.434 233.85C394.713 232.948 393.632 231.685 392.19 230.061C388.044 225.009 384.8 222.663 382.457 222.663C382.097 222.663 381.916 222.663 381.376 222.663C381.015 222.663 380.474 222.663 379.934 222.843C380.114 226.813 380.294 229.52 380.474 231.324C380.655 233.128 381.015 234.572 381.556 235.474C380.655 236.016 379.934 236.196 379.213 236.557C378.492 236.737 377.771 236.918 377.23 236.918C376.329 236.918 375.608 236.737 375.248 236.196C374.887 235.655 374.707 234.752 374.707 233.128C374.707 232.587 374.707 230.241 374.887 226.272C375.067 222.302 375.067 218.332 375.067 214.904C375.067 210.393 374.887 206.965 374.707 204.619C374.527 202.454 373.986 200.649 373.445 199.567C375.608 199.567 378.131 199.386 380.474 199.206C382.998 199.025 384.259 199.025 384.62 199.025C388.585 199.025 391.649 199.928 393.812 201.732C395.975 203.536 397.236 206.063 397.236 209.31C397.236 212.197 396.515 214.543 395.073 216.528C393.992 218.693 391.829 220.137 389.126 221.219ZM380.294 203.536C380.114 206.423 380.114 209.31 379.934 211.837C379.934 214.543 379.754 217.069 379.754 219.596C379.934 219.596 380.114 219.596 380.294 219.596C380.655 219.596 380.835 219.596 380.835 219.596C384.44 219.596 387.143 218.693 389.126 217.069C391.108 215.445 392.19 213.1 392.19 210.032C392.19 207.686 391.469 206.063 390.027 204.799C388.585 203.536 386.422 202.995 383.719 202.995C383.178 202.995 382.457 202.995 381.916 203.175C381.556 203.175 381.015 203.356 380.294 203.536Z" fill="black"/>
<path d="M416.158 235.654C415.257 236.015 414.536 236.376 413.815 236.737C413.094 236.917 412.373 237.098 411.652 237.098C410.751 237.098 410.03 236.917 409.67 236.376C409.309 235.835 409.129 234.933 409.129 233.489C409.129 232.767 409.129 230.422 409.309 226.452C409.489 222.482 409.489 218.873 409.489 215.626C409.489 211.475 409.309 208.228 409.129 205.882C408.949 203.536 408.408 201.912 407.867 201.01C408.768 200.469 409.489 200.108 410.21 199.927C410.931 199.747 411.652 199.566 412.193 199.566C413.094 199.566 413.815 199.747 414.175 200.288C414.536 200.829 414.716 201.732 414.716 202.995C414.716 203.175 414.536 205.34 414.356 209.491C414.175 213.641 413.995 217.61 413.995 221.58C413.995 225.55 414.175 228.617 414.356 230.782C415.077 232.948 415.617 234.572 416.158 235.654Z" fill="black"/>
<path d="M444.28 204.619C443.379 204.259 442.297 203.898 440.856 203.717C439.594 203.537 437.792 203.356 435.809 203.356C434.908 203.356 433.466 203.356 431.123 203.356C430.582 203.356 430.222 203.356 429.861 203.356L429.681 214.905C430.222 214.905 430.582 214.905 431.123 214.905C431.664 214.905 432.565 214.905 433.646 214.905C435.989 214.905 437.792 214.905 439.414 214.724C440.856 214.544 441.937 214.544 442.658 214.183C442.838 214.724 443.018 215.085 443.199 215.446C443.379 215.807 443.379 216.168 443.379 216.528C443.379 217.431 443.018 217.972 442.658 218.333C442.117 218.694 441.216 218.874 439.954 218.874C439.594 218.874 438.513 218.874 437.071 218.874C435.449 218.874 434.187 218.874 432.925 218.874C432.024 218.874 431.303 218.874 430.943 218.874C430.402 218.874 430.041 218.874 429.681 218.874C429.681 220.859 429.681 223.024 429.681 225.19C429.681 227.355 429.501 229.881 429.501 232.407C429.681 232.407 429.861 232.407 430.222 232.407C432.565 232.407 434.187 232.407 435.088 232.407C436.89 232.407 438.513 232.227 439.774 232.046C441.036 231.866 442.297 231.505 443.199 230.964C443.559 231.685 443.92 232.227 444.1 232.768C444.28 233.309 444.28 233.67 444.28 234.212C444.28 235.114 443.92 235.836 443.379 236.196C442.838 236.557 441.577 236.738 439.954 236.738C439.053 236.738 437.792 236.738 436.169 236.738C434.547 236.738 433.286 236.738 432.385 236.738C430.582 236.738 428.78 236.738 426.797 236.918C426.437 236.918 426.257 236.918 426.076 236.918C425.536 236.918 424.995 236.738 424.815 236.557C424.634 236.196 424.454 235.836 424.454 235.114C424.454 234.753 424.454 233.851 424.634 232.407C424.995 226.994 424.995 221.942 424.995 217.25C424.995 212.559 424.995 208.77 424.815 206.063C424.634 203.176 424.454 201.191 424.094 199.748H427.338C431.483 199.748 435.629 199.567 439.954 199.387C440.856 199.387 441.396 199.387 441.577 199.387C443.018 199.387 443.92 199.567 444.46 199.928C445.001 200.289 445.181 200.83 445.181 201.552C445.181 202.093 445.001 202.454 444.821 202.996C445.001 203.356 444.821 203.898 444.28 204.619Z" fill="black"/>
<path d="M384.617 86.6109C390.925 84.9869 394.17 84.4456 399.216 83.9043L384.617 86.6109Z" fill="#F2CA50"/>
<path d="M400.117 87.6943C407.327 86.7921 409.309 86.0703 415.978 86.0703L400.117 87.6943Z" fill="#F2CA50"/>
<path d="M365.148 94.3704C370.195 90.4007 373.8 87.8746 378.125 85.168L365.148 94.3704Z" fill="#F2CA50"/>
<path d="M384.438 103.03C389.663 99.2409 392.188 96.8952 395.792 93.4668L384.438 103.03Z" fill="#F2CA50"/>
<path d="M405.523 112.053C412.733 110.79 415.256 110.249 421.925 110.068L405.523 112.053Z" fill="#F2CA50"/>
<path d="M381.555 115.302C387.863 111.512 390.566 109.888 395.793 105.738L381.555 115.302Z" fill="#F2CA50"/>
<path d="M430.398 112.774C437.788 112.594 440.311 112.594 446.8 113.315L430.398 112.774Z" fill="#F2CA50"/>
<path d="M449.32 120.715C456.349 122.519 457.972 123.061 464.1 125.587L449.32 120.715Z" fill="#F2CA50"/>
<path d="M419.039 150.125C424.807 154.636 425.528 155.538 430.214 160.41L419.039 150.125Z" fill="#F2CA50"/>
<path d="M429.492 166.365C434.178 171.959 434.899 172.5 438.324 178.094L429.492 166.365Z" fill="#F2CA50"/>
<path d="M405.523 160.592C412.553 163.298 413.814 163.84 420.483 165.464L405.523 160.592Z" fill="#F2CA50"/>
<path d="M328.023 129.015C333.25 125.226 335.413 123.241 339.198 119.812L328.023 129.015Z" fill="#F2CA50"/>
<path d="M351.812 151.568C358.301 150.486 361.185 149.764 366.051 148.32L351.812 151.568Z" fill="#F2CA50"/>
<path d="M374.703 143.449C381.192 142.727 384.616 142.186 389.663 141.104L374.703 143.449Z" fill="#F2CA50"/>
<path d="M400.477 134.787C406.965 134.066 411.651 132.983 416.517 131.9L400.477 134.787Z" fill="#F2CA50"/>
<path d="M424.086 127.751C430.574 126.849 434.54 125.947 439.406 124.684L424.086 127.751Z" fill="#F2CA50"/>
<path d="M354.695 121.616C359.742 118.007 362.986 115.301 366.411 112.053L354.695 121.616Z" fill="#F2CA50"/>
<path d="M373.984 142.909C380.473 142.187 384.438 141.465 389.304 140.383L373.984 142.909Z" fill="#F2CA50"/>
<path d="M353.617 121.616C358.844 117.826 361.908 115.12 365.693 111.691L353.617 121.616Z" fill="#F2CA50"/>
<path d="M353.08 121.437C349.655 125.768 346.411 130.459 342.806 134.609C339.562 138.398 332.713 143.09 327.847 139.301C326.765 138.398 325.504 140.203 326.585 141.105C330.37 143.992 336.318 142.549 339.922 140.203C346.05 136.233 350.196 128.294 354.702 122.7C355.783 121.618 353.981 120.354 353.08 121.437Z" fill="#F2CA50"/>
<path d="M326.763 129.015C323.699 133.346 320.995 137.676 317.751 142.007C314.687 146.157 308.199 150.668 302.972 146.879C301.89 145.977 300.629 147.781 301.71 148.683C305.675 151.57 311.983 150.307 315.588 147.42C320.995 143.27 324.42 135.691 328.385 130.278C329.286 129.196 327.484 127.933 326.763 129.015Z" fill="#F2CA50"/>
<path d="M375.605 98.8817C376.326 103.212 381.193 103.754 384.437 101.949C390.204 98.7012 393.809 92.3858 399.577 88.7771C400.838 88.0553 399.757 86.0705 398.675 86.7922C395.251 88.777 392.547 91.3032 389.664 94.1902C388.402 95.4533 387.321 96.7164 386.059 97.799C385.518 98.3404 385.158 98.7012 384.617 99.0621C383.355 100.506 381.914 100.686 380.291 99.423C378.669 99.7839 377.768 99.423 377.588 98.3404C377.408 97.0773 375.425 97.6186 375.605 98.8817Z" fill="#F2CA50"/>
<path d="M379.569 115.843C374.883 120.715 361.185 140.383 352.533 132.263C351.452 131.361 349.83 132.624 350.911 133.707C354.516 137.135 360.644 136.053 364.609 133.707C370.917 130.098 375.784 122.7 380.83 117.467C381.912 116.385 380.47 114.761 379.569 115.843Z" fill="#F2CA50"/>
<path d="M376.326 125.406C378.489 129.195 384.257 129.015 387.681 127.391C394.53 124.504 399.036 117.467 405.524 113.858C406.786 113.136 405.885 111.332 404.623 111.873C400.478 114.219 396.873 117.106 393.449 120.354C390.385 123.241 381.733 130.458 378.309 124.324C377.588 123.241 375.786 124.143 376.326 125.406Z" fill="#F2CA50"/>
<path d="M401.378 119.451C402.099 123.421 407.326 124.142 410.57 123.601C417.599 122.519 423.366 116.925 430.215 114.94C431.477 114.579 431.117 112.414 429.855 112.775C425.71 114.038 421.925 115.662 418.14 117.827C416.518 118.729 415.076 119.631 413.454 120.353C411.291 121.255 404.442 122.699 403.721 119.09C403.36 117.647 401.198 118.008 401.378 119.451Z" fill="#F2CA50"/>
<path d="M419.043 120.713C418.502 125.044 423.188 126.668 426.613 126.668C434.002 126.668 440.851 122.698 448.241 122.157C449.683 121.977 449.322 119.992 447.88 119.992C443.194 120.353 439.049 121.435 434.543 122.698C432.02 123.42 420.124 127.029 421.025 120.894C421.386 119.45 419.223 119.27 419.043 120.713Z" fill="#F2CA50"/>
<path d="M345.147 119.812C348.031 123.06 352.536 120.534 354.88 117.827C357.042 115.301 358.124 112.234 359.205 109.166C361.008 104.294 362.81 99.603 365.513 95.2724C366.234 94.1898 364.432 92.9267 363.711 94.0094C361.008 98.3399 359.025 102.851 357.223 107.723C356.502 109.708 355.781 111.873 354.88 113.677C353.798 115.662 349.472 121.436 346.769 118.188C345.868 117.467 344.246 118.91 345.147 119.812Z" fill="#F2CA50"/>
<path d="M362.452 104.836C364.435 109.347 370.202 107.001 372.726 104.294C374.528 102.31 375.609 99.7834 377.051 97.6181C379.214 94.0093 381.557 90.9418 384.801 88.4157C385.883 87.5135 384.441 85.8895 383.359 86.7917C379.935 89.4983 377.412 92.7462 375.069 96.355C373.987 98.3398 366.958 110.249 364.255 103.933C363.894 102.67 361.911 103.573 362.452 104.836Z" fill="#F2CA50"/>
<path d="M382.815 103.572C380.291 106.098 361.907 127.751 358.483 118.007C357.942 116.744 356.14 117.646 356.5 118.909C358.123 123.42 363.71 123.24 367.134 121.255C373.623 117.827 379.03 110.248 384.257 105.016C385.158 104.294 383.896 102.489 382.815 103.572Z" fill="#F2CA50"/>
<path d="M391.289 138.939C389.486 142.007 392.19 145.255 394.713 146.698C397.237 148.142 400.12 148.322 403.004 148.683C408.051 149.044 412.737 149.405 417.603 150.848C418.865 151.209 419.766 149.224 418.324 148.863C413.998 147.6 409.853 147.059 405.347 146.698C403.545 146.518 401.562 146.518 399.76 146.157C397.777 145.796 390.928 143.27 392.911 140.202C393.812 138.939 392.01 137.676 391.289 138.939Z" fill="#F2CA50"/>
<path d="M405.525 150.847C402.641 153.554 404.804 157.524 407.507 159.509C410.031 161.313 413.095 161.854 416.159 162.576C420.484 163.659 424.81 164.922 428.775 166.907C430.037 167.628 430.758 165.463 429.496 164.922C425.17 162.756 420.845 161.493 416.159 160.411C413.635 159.869 402.821 156.441 406.967 152.471C407.868 151.569 406.426 149.765 405.525 150.847Z" fill="#F2CA50"/>
<path d="M405.349 160.05C401.744 158.607 373.628 150.487 379.936 143.089C380.837 142.006 379.035 140.743 378.133 141.826C374.889 145.615 379.215 151.028 382.459 153.193C388.947 157.344 397.418 159.148 404.448 162.035C405.89 162.576 406.791 160.591 405.349 160.05Z" fill="#F2CA50"/>
<path d="M351.092 151.208C346.406 151.749 317.208 158.786 318.109 148.501C318.289 147.058 316.127 146.877 315.946 148.321C314.504 162.215 346.046 154.095 351.453 153.373C352.714 153.193 352.354 151.027 351.092 151.208Z" fill="#F2CA50"/>
<path d="M374.165 143.451C369.479 144.172 340.461 152.112 341.182 142.007C341.182 140.564 339.199 140.383 339.019 141.827C338.118 155.721 369.118 146.518 374.525 145.616C375.967 145.255 375.607 143.27 374.165 143.451Z" fill="#F2CA50"/>
<path d="M399.936 134.608C395.43 135.51 366.773 144.532 366.592 134.247C366.592 132.804 364.43 132.623 364.43 134.067C364.61 148.141 394.349 137.856 400.296 136.774C401.738 136.413 401.378 134.428 399.936 134.608Z" fill="#F2CA50"/>
<path d="M423.548 127.752C419.222 128.654 392.187 137.135 392.007 127.572C392.007 126.128 389.844 125.948 389.844 127.391C390.024 140.744 418.321 131.18 423.908 129.917C425.35 129.737 424.99 127.572 423.548 127.752Z" fill="#F2CA50"/>
<path d="M366.419 130.638C362.994 133.525 356.146 134.968 352.721 132.623L352.18 132.081C350.198 129.375 352.361 125.044 357.047 123.059C362.814 120.533 371.826 120.353 380.657 115.842C374.169 122.338 370.024 127.57 366.419 130.638Z" fill="#F2CA50"/>
<path d="M384.983 115.842C380.658 116.925 376.692 121.075 377.774 124.142L378.134 124.684C380.117 127.029 385.344 127.21 389.309 124.864C393.995 121.977 397.6 116.203 405.71 112.053C396.158 113.857 389.309 114.579 384.983 115.842Z" fill="#F2CA50"/>
<path d="M411.472 112.414C407.506 112.595 402.82 115.482 402.82 118.369L403.001 118.91C404.082 121.436 408.408 122.519 412.553 121.075C417.419 119.452 422.286 114.941 430.396 112.775C421.745 112.595 415.617 112.053 411.472 112.414Z" fill="#F2CA50"/>
<path d="M430.578 115.842C426.612 115.121 421.386 117.105 420.484 119.992V120.534C420.665 123.06 424.45 125.045 428.775 124.684C434.002 124.143 440.13 120.714 448.601 120.353C440.49 118.188 434.723 116.384 430.578 115.842Z" fill="#F2CA50"/>
<path d="M349.657 106.278C346.593 109.166 344.61 115.3 346.412 118.187L346.953 118.729C349.296 120.533 353.442 118.548 355.965 114.398C358.849 109.346 359.93 101.587 365.337 93.8281C358.128 99.6022 352.901 103.211 349.657 106.278Z" fill="#F2CA50"/>
<path d="M368.582 92.9255C365.338 94.7299 362.815 100.324 363.716 103.391L364.076 103.932C365.698 106.098 369.483 105.737 372.367 102.489C375.792 98.6996 377.414 91.482 384.623 86.4297C376.512 88.595 371.826 90.9407 368.582 92.9255Z" fill="#F2CA50"/>
<path d="M368.582 118.189C365.158 121.076 359.751 121.437 357.949 118.189L357.768 117.467C357.228 113.858 360.111 109.347 364.257 107.904C369.303 105.919 375.792 107.362 383.722 103.393C376.873 109.888 372.367 115.121 368.582 118.189Z" fill="#F2CA50"/>
<path d="M417.606 152.472C414.902 149.946 409.134 148.863 406.431 150.668L405.89 151.028C404.268 153.194 406.251 156.802 410.036 158.426C414.722 160.592 422.111 160.772 429.321 164.742C424.094 159.329 420.67 154.998 417.606 152.472Z" fill="#F2CA50"/>
<path d="M403.723 138.397C400.299 136.412 394.712 136.232 392.729 138.577L392.369 139.119C391.467 141.645 394.351 144.712 398.497 145.795C403.543 147.058 410.572 146.156 418.683 148.682C411.834 144.171 407.148 140.382 403.723 138.397Z" fill="#F2CA50"/>
<path d="M384.799 152.292C380.653 150.307 377.229 145.255 379.031 142.368L379.572 141.826C382.095 139.841 387.502 140.744 391.107 143.811C395.433 147.781 397.956 154.457 405.526 160.231C395.973 156.622 388.944 154.457 384.799 152.292Z" fill="#F2CA50"/>
<path d="M341.361 137.315C338.297 140.383 331.448 142.187 327.843 140.202L327.122 139.661C324.779 137.135 326.582 132.804 331.087 130.459C336.494 127.572 345.506 126.85 353.797 121.617C348.21 128.654 344.605 134.068 341.361 137.315Z" fill="#F2CA50"/>
<path d="M316.308 144.894C313.605 147.961 306.936 149.765 303.151 147.781L302.43 147.239C299.907 144.713 301.169 140.383 305.494 138.037C310.721 135.15 319.733 134.428 327.663 129.195C322.436 136.413 319.372 141.826 316.308 144.894Z" fill="#F2CA50"/>
<path d="M383.357 89.6785C380.113 90.5807 376.328 94.7308 376.328 98.1592L376.508 98.8809C377.41 101.588 381.014 102.309 384.439 99.9636C388.404 97.257 392.369 90.9416 399.038 87.1523C391.828 88.4154 386.782 88.5959 383.357 89.6785Z" fill="#F2CA50"/>
<path d="M383.539 86.43C389.847 84.8061 393.812 84.0843 398.859 83.543L383.539 86.43Z" fill="#F2CA50"/>
<path d="M397.781 87.3322C404.991 86.43 408.776 85.8887 415.444 85.8887L397.781 87.3322Z" fill="#F2CA50"/>
<path d="M364.438 94.1892C369.484 90.2195 372.909 87.8738 377.234 85.3477L364.438 94.1892Z" fill="#F2CA50"/>
<path d="M382.82 103.393C388.047 99.6036 391.111 96.897 394.896 93.4688L382.82 103.393Z" fill="#F2CA50"/>
<path d="M403.727 111.874C410.936 110.61 414.721 110.069 421.209 109.889L403.727 111.874Z" fill="#F2CA50"/>
<path d="M379.938 115.662C386.246 111.872 389.49 110.068 394.717 105.918L379.938 115.662Z" fill="#F2CA50"/>
<path d="M428.602 112.595C435.991 112.415 439.596 112.234 446.265 112.956L428.602 112.595Z" fill="#F2CA50"/>
<path d="M446.984 119.631C454.014 121.435 457.618 122.337 463.746 124.864L446.984 119.631Z" fill="#F2CA50"/>
<path d="M417.242 147.779C423.01 152.29 425.893 154.636 430.399 159.508L417.242 147.779Z" fill="#F2CA50"/>
<path d="M428.414 164.02C433.1 169.613 435.443 172.5 438.868 178.094L428.414 164.02Z" fill="#F2CA50"/>
<path d="M403.727 159.148C410.575 161.855 414 163.299 420.488 164.742L403.727 159.148Z" fill="#F2CA50"/>
<path d="M326.945 129.375C332.172 125.586 335.236 122.88 339.021 119.451L326.945 129.375Z" fill="#F2CA50"/>
<path d="M341.001 137.315C337.937 140.383 331.088 142.187 327.484 140.202L326.763 139.661C324.42 137.135 326.222 132.804 330.728 130.459C336.135 127.572 345.147 126.85 353.438 121.617C347.85 128.654 344.246 134.068 341.001 137.315Z" fill="#F2CA50"/>
<path d="M341.001 137.315C337.937 140.383 331.088 142.187 327.484 140.202L326.763 139.661C324.42 137.135 326.222 132.804 330.728 130.459C336.135 127.572 345.147 126.85 353.438 121.617C347.85 128.654 344.246 134.068 341.001 137.315Z" fill="url(#paint19_linear_653_142)" fill-opacity="0.5"/>
<path d="M315.769 144.894C313.066 147.961 306.397 149.765 302.612 147.781L301.891 147.239C299.368 144.713 300.63 140.383 304.955 138.037C310.182 135.15 319.194 134.428 327.124 129.195C321.897 136.413 318.833 141.826 315.769 144.894Z" fill="#F2CA50"/>
<path d="M315.769 144.894C313.066 147.961 306.397 149.765 302.612 147.781L301.891 147.239C299.368 144.713 300.63 140.383 304.955 138.037C310.182 135.15 319.194 134.428 327.124 129.195C321.897 136.413 318.833 141.826 315.769 144.894Z" fill="url(#paint20_linear_653_142)" fill-opacity="0.5"/>
<path d="M382.639 89.6785C379.394 90.5807 375.609 94.7308 375.609 98.1592L375.79 98.8809C376.691 101.588 380.295 102.309 383.72 99.9636C387.685 97.257 391.65 90.9416 398.319 87.1523C391.29 88.4154 386.063 88.5959 382.639 89.6785Z" fill="#F2CA50"/>
<path d="M382.639 89.6785C379.394 90.5807 375.609 94.7308 375.609 98.1592L375.79 98.8809C376.691 101.588 380.295 102.309 383.72 99.9636C387.685 97.257 391.65 90.9416 398.319 87.1523C391.29 88.4154 386.063 88.5959 382.639 89.6785Z" fill="url(#paint21_linear_653_142)" fill-opacity="0.5"/>
<path d="M366.419 130.097C362.994 132.984 356.146 134.427 352.721 132.082L352.18 131.54C350.198 128.834 352.361 124.503 357.047 122.518C362.814 119.992 371.826 119.812 380.657 115.301C374.169 121.797 370.024 127.029 366.419 130.097Z" fill="#F2CA50"/>
<path d="M366.419 130.097C362.994 132.984 356.146 134.427 352.721 132.082L352.18 131.54C350.198 128.834 352.361 124.503 357.047 122.518C362.814 119.992 371.826 119.812 380.657 115.301C374.169 121.797 370.024 127.029 366.419 130.097Z" fill="url(#paint22_linear_653_142)" fill-opacity="0.5"/>
<path d="M384.436 115.481C380.111 116.563 376.146 120.713 377.227 123.781L377.587 124.322C379.57 126.668 384.797 126.848 388.762 124.503C393.448 121.616 397.053 115.842 405.163 111.691C395.791 113.676 388.762 114.398 384.436 115.481Z" fill="#F2CA50"/>
<path d="M384.436 115.481C380.111 116.563 376.146 120.713 377.227 123.781L377.587 124.322C379.57 126.668 384.797 126.848 388.762 124.503C393.448 121.616 397.053 115.842 405.163 111.691C395.791 113.676 388.762 114.398 384.436 115.481Z" fill="url(#paint23_linear_653_142)" fill-opacity="0.5"/>
<path d="M410.933 112.052C406.967 112.233 402.281 115.12 402.281 118.007L402.461 118.548C403.543 121.074 407.869 122.157 412.014 120.714C416.88 119.09 421.747 114.579 429.857 112.413C421.206 112.413 415.078 111.872 410.933 112.052Z" fill="#F2CA50"/>
<path d="M410.933 112.052C406.967 112.233 402.281 115.12 402.281 118.007L402.461 118.548C403.543 121.074 407.869 122.157 412.014 120.714C416.88 119.09 421.747 114.579 429.857 112.413C421.206 112.413 415.078 111.872 410.933 112.052Z" fill="url(#paint24_linear_653_142)" fill-opacity="0.5"/>
<path d="M430.038 115.481C426.073 114.759 420.846 116.744 419.945 119.631V120.172C420.306 123.601 423.91 124.683 428.236 124.323C433.463 123.781 439.591 120.353 448.062 119.992C439.771 117.827 434.004 116.022 430.038 115.481Z" fill="#F2CA50"/>
<path d="M430.038 115.481C426.073 114.759 420.846 116.744 419.945 119.631V120.172C420.306 123.601 423.91 124.683 428.236 124.323C433.463 123.781 439.591 120.353 448.062 119.992C439.771 117.827 434.004 116.022 430.038 115.481Z" fill="url(#paint25_linear_653_142)" fill-opacity="0.5"/>
<path d="M349.657 105.919C346.593 108.806 344.61 114.941 346.412 117.828L346.953 118.369C349.296 120.174 353.442 118.189 355.965 114.039C358.849 108.987 359.93 101.047 365.337 93.4688C358.128 99.2428 352.901 102.852 349.657 105.919Z" fill="#F2CA50"/>
<path d="M349.657 105.919C346.593 108.806 344.61 114.941 346.412 117.828L346.953 118.369C349.296 120.174 353.442 118.189 355.965 114.039C358.849 108.987 359.93 101.047 365.337 93.4688C358.128 99.2428 352.901 102.852 349.657 105.919Z" fill="url(#paint26_linear_653_142)" fill-opacity="0.5"/>
<path d="M368.582 92.3845C365.338 94.1889 362.815 99.7825 363.716 102.85L364.076 103.391C365.698 105.557 369.483 105.015 372.367 101.948C375.792 98.1586 377.414 90.941 384.623 85.8887C376.512 88.0539 371.826 90.3997 368.582 92.3845Z" fill="#F2CA50"/>
<path d="M368.582 92.3845C365.338 94.1889 362.815 99.7825 363.716 102.85L364.076 103.391C365.698 105.557 369.483 105.015 372.367 101.948C375.792 98.1586 377.414 90.941 384.623 85.8887C376.512 88.0539 371.826 90.3997 368.582 92.3845Z" fill="url(#paint27_linear_653_142)" fill-opacity="0.5"/>
<path d="M403.005 137.856C399.58 135.871 393.993 135.691 392.01 138.036L391.65 138.578C390.749 141.104 393.632 144.171 397.778 145.254C402.824 146.517 409.854 145.615 417.964 148.141C411.115 143.63 406.429 139.841 403.005 137.856Z" fill="#F2CA50"/>
<path d="M403.005 137.856C399.58 135.871 393.993 135.691 392.01 138.036L391.65 138.578C390.749 141.104 393.632 144.171 397.778 145.254C402.824 146.517 409.854 145.615 417.964 148.141C411.115 143.63 406.429 139.841 403.005 137.856Z" fill="url(#paint28_linear_653_142)" fill-opacity="0.5"/>
<path d="M368.035 117.828C364.611 120.715 359.204 121.076 357.402 117.828L357.221 117.106C356.681 113.498 359.564 108.987 363.71 107.363C368.756 105.378 375.245 106.821 383.175 102.852C376.326 109.528 371.64 114.941 368.035 117.828Z" fill="#F2CA50"/>
<path d="M368.035 117.828C364.611 120.715 359.204 121.076 357.402 117.828L357.221 117.106C356.681 113.498 359.564 108.987 363.71 107.363C368.756 105.378 375.245 106.821 383.175 102.852C376.326 109.528 371.64 114.941 368.035 117.828Z" fill="url(#paint29_linear_653_142)" fill-opacity="0.5"/>
<path d="M417.066 151.931C414.363 149.405 408.595 148.322 405.892 150.126L405.351 150.487C403.729 152.653 405.712 156.261 409.497 157.885C414.183 160.051 421.572 160.231 428.782 164.201C423.375 158.788 419.95 154.457 417.066 151.931Z" fill="#F2CA50"/>
<path d="M417.066 151.931C414.363 149.405 408.595 148.322 405.892 150.126L405.351 150.487C403.729 152.653 405.712 156.261 409.497 157.885C414.183 160.051 421.572 160.231 428.782 164.201C423.375 158.788 419.95 154.457 417.066 151.931Z" fill="url(#paint30_linear_653_142)" fill-opacity="0.5"/>
<path d="M384.26 151.569C380.114 149.584 376.69 144.532 378.492 141.645L379.033 141.104C381.556 139.119 386.963 140.021 390.568 143.088C394.894 147.058 397.417 153.734 404.987 159.509C395.434 155.9 388.405 153.734 384.26 151.569Z" fill="#F2CA50"/>
<path d="M384.26 151.569C380.114 149.584 376.69 144.532 378.492 141.645L379.033 141.104C381.556 139.119 386.963 140.021 390.568 143.088C394.894 147.058 397.417 153.734 404.987 159.509C395.434 155.9 388.405 153.734 384.26 151.569Z" fill="url(#paint31_linear_653_142)" fill-opacity="0.5"/>
<path d="M328.566 154.457C323.699 154.818 317.571 151.931 317.211 148.322V147.6C318.292 144.533 323.519 142.548 328.566 143.631C334.694 145.074 341.182 149.946 351.456 151.389C341.182 152.833 333.612 154.277 328.566 154.457Z" fill="#F2CA50"/>
<path d="M327.847 154.096C322.981 154.457 316.853 151.569 316.492 147.961V147.239C317.574 144.171 322.8 142.187 327.847 143.269C333.975 144.713 340.463 149.585 350.737 151.028C340.463 152.291 333.074 153.915 327.847 154.096Z" fill="#F2CA50"/>
<path d="M327.847 154.096C322.981 154.457 316.853 151.569 316.492 147.961V147.239C317.574 144.171 322.8 142.187 327.847 143.269C333.975 144.713 340.463 149.585 350.737 151.028C340.463 152.291 333.074 153.915 327.847 154.096Z" fill="url(#paint32_linear_653_142)" fill-opacity="0.5"/>
<path d="M350.555 151.208C356.863 150.126 360.828 149.043 365.694 147.6L350.555 151.208Z" fill="#F2CA50"/>
<path d="M351.816 147.42C346.95 147.961 340.822 145.254 340.281 141.646V140.924C341.182 137.856 346.409 135.691 351.456 136.593C357.764 137.676 364.252 142.367 374.526 143.63C364.433 145.254 356.863 147.059 351.816 147.42Z" fill="#F2CA50"/>
<path d="M351.277 146.879C346.411 147.42 340.283 144.713 339.742 141.105V140.383C340.643 137.315 345.87 135.15 350.917 136.052C357.225 137.135 363.713 141.826 373.987 143.089C363.713 144.713 356.324 146.518 351.277 146.879Z" fill="#F2CA50"/>
<path d="M351.277 146.879C346.411 147.42 340.283 144.713 339.742 141.105V140.383C340.643 137.315 345.87 135.15 350.917 136.052C357.225 137.135 363.713 141.826 373.987 143.089C363.713 144.713 356.324 146.518 351.277 146.879Z" fill="url(#paint33_linear_653_142)" fill-opacity="0.5"/>
<path d="M377.95 139.479C373.084 140.02 366.776 137.675 366.055 134.066V133.344C366.776 130.096 371.642 127.931 376.869 128.653C383.177 129.555 390.206 134.066 400.48 134.788C390.206 136.773 382.997 138.938 377.95 139.479Z" fill="#F2CA50"/>
<path d="M377.231 138.758C372.365 139.3 366.057 136.954 365.336 133.345V132.623C366.057 129.376 370.923 127.21 376.15 127.932C382.458 128.834 389.487 133.345 399.761 134.067C389.668 136.232 382.278 138.217 377.231 138.758Z" fill="#F2CA50"/>
<path d="M377.231 138.758C372.365 139.3 366.057 136.954 365.336 133.345V132.623C366.057 129.376 370.923 127.21 376.15 127.932C382.458 128.834 389.487 133.345 399.761 134.067C389.668 136.232 382.278 138.217 377.231 138.758Z" fill="url(#paint34_linear_653_142)" fill-opacity="0.5"/>
<path d="M399.398 134.247C405.887 133.525 409.852 132.803 414.718 131.721L399.398 134.247Z" fill="#F2CA50"/>
<path d="M402.644 132.442C397.958 132.983 392.01 130.638 391.289 127.39V126.668C391.83 123.601 396.696 121.435 401.562 122.157C407.51 123.059 414.179 127.209 424.092 127.931C414.359 129.916 407.51 131.901 402.644 132.442Z" fill="#F2CA50"/>
<path d="M402.105 131.901C397.419 132.442 391.471 130.097 390.75 126.849V126.127C391.291 123.06 396.157 120.894 401.023 121.616C406.971 122.518 413.64 126.668 423.553 127.39C413.82 129.375 406.791 131.36 402.105 131.901Z" fill="#F2CA50"/>
<path d="M402.105 131.901C397.419 132.442 391.471 130.097 390.75 126.849V126.127C391.291 123.06 396.157 120.894 401.023 121.616C406.971 122.518 413.64 126.668 423.553 127.39C413.82 129.375 406.791 131.36 402.105 131.901Z" fill="url(#paint35_linear_653_142)" fill-opacity="0.5"/>
<path d="M422.289 127.39C428.778 126.488 432.743 125.585 437.609 124.322L422.289 127.39Z" fill="#F2CA50"/>
<path d="M455.817 193.611H451.852V192.168H461.584V193.611H457.619V205.34H455.997V193.611H455.817Z" fill="black"/>
<path d="M474.018 199.386C473.838 197.581 473.838 195.416 473.838 193.792C473.297 195.235 472.937 197.04 472.216 198.844L469.873 205.16H468.611L466.448 198.844C465.908 197.04 465.367 195.235 465.007 193.792C465.007 195.416 464.826 197.581 464.826 199.566L464.466 205.16H462.844L463.745 192.168H465.908L468.071 198.483C468.611 200.107 468.972 201.551 469.332 202.814C469.693 201.551 470.233 200.107 470.774 198.483L473.117 192.168H475.28L476.181 205.16H474.559L474.018 199.386Z" fill="black"/>
</g>
</g>
<defs>
<linearGradient id="paint0_linear_653_142" x1="169" y1="25" x2="295" y2="151" gradientUnits="userSpaceOnUse">
<stop stop-color="#97CCC2"/>
<stop offset="1" stop-color="#225147"/>
</linearGradient>
<linearGradient id="paint1_linear_653_142" x1="177" y1="33" x2="286" y2="142" gradientUnits="userSpaceOnUse">
<stop offset="0.1" stop-color="#2E6C5C"/>
<stop offset="0.5" stop-color="white"/>
<stop offset="0.9" stop-color="#2E6C5C"/>
</linearGradient>
<linearGradient id="paint2_linear_653_142" x1="132.5" y1="128.5" x2="126" y2="138.5" gradientUnits="userSpaceOnUse">
<stop stop-color="white"/>
<stop offset="0.475962" stop-color="white" stop-opacity="0"/>
<stop offset="1" stop-color="white"/>
</linearGradient>
<linearGradient id="paint3_linear_653_142" x1="158" y1="137" x2="152" y2="146" gradientUnits="userSpaceOnUse">
<stop stop-color="white"/>
<stop offset="0.475962" stop-color="white" stop-opacity="0"/>
<stop offset="1" stop-color="white"/>
</linearGradient>
<linearGradient id="paint4_linear_653_142" x1="85.6114" y1="91.1205" x2="81.0977" y2="99.2359" gradientUnits="userSpaceOnUse">
<stop stop-color="white"/>
<stop offset="0.475962" stop-color="white" stop-opacity="0"/>
<stop offset="1" stop-color="white"/>
</linearGradient>
<linearGradient id="paint5_linear_653_142" x1="107.5" y1="121" x2="102" y2="132" gradientUnits="userSpaceOnUse">
<stop stop-color="white"/>
<stop offset="0.475962" stop-color="white" stop-opacity="0"/>
<stop offset="1" stop-color="white"/>
</linearGradient>
<linearGradient id="paint6_linear_653_142" x1="82" y1="115.5" x2="77.5" y2="125" gradientUnits="userSpaceOnUse">
<stop stop-color="white"/>
<stop offset="0.475962" stop-color="white" stop-opacity="0"/>
<stop offset="1" stop-color="white"/>
</linearGradient>
<linearGradient id="paint7_linear_653_142" x1="54.0613" y1="110.969" x2="53.1581" y2="119.088" gradientUnits="userSpaceOnUse">
<stop stop-color="white"/>
<stop offset="0.475962" stop-color="white" stop-opacity="0"/>
<stop offset="1" stop-color="white"/>
</linearGradient>
<linearGradient id="paint8_linear_653_142" x1="30.6364" y1="114.43" x2="30.6364" y2="123.486" gradientUnits="userSpaceOnUse">
<stop stop-color="white"/>
<stop offset="0.475962" stop-color="white" stop-opacity="0"/>
<stop offset="1" stop-color="white"/>
</linearGradient>
<linearGradient id="paint9_linear_653_142" x1="118.05" y1="109.165" x2="107.229" y2="115.47" gradientUnits="userSpaceOnUse">
<stop stop-color="white"/>
<stop offset="0.475962" stop-color="white" stop-opacity="0"/>
<stop offset="1" stop-color="white"/>
</linearGradient>
<linearGradient id="paint10_linear_653_142" x1="98.2191" y1="94.7308" x2="91.9038" y2="101.039" gradientUnits="userSpaceOnUse">
<stop stop-color="white"/>
<stop offset="0.475962" stop-color="white" stop-opacity="0"/>
<stop offset="1" stop-color="white"/>
</linearGradient>
<linearGradient id="paint11_linear_653_142" x1="63" y1="136" x2="66.5" y2="144.5" gradientUnits="userSpaceOnUse">
<stop stop-color="white"/>
<stop offset="0.475962" stop-color="white" stop-opacity="0"/>
<stop offset="1" stop-color="white"/>
</linearGradient>
<linearGradient id="paint12_linear_653_142" x1="102.5" y1="107.5" x2="97.5" y2="117.5" gradientUnits="userSpaceOnUse">
<stop stop-color="white"/>
<stop offset="0.475962" stop-color="white" stop-opacity="0"/>
<stop offset="1" stop-color="white"/>
</linearGradient>
<linearGradient id="paint13_linear_653_142" x1="49.5" y1="149.5" x2="54" y2="158" gradientUnits="userSpaceOnUse">
<stop stop-color="white"/>
<stop offset="0.475962" stop-color="white" stop-opacity="0"/>
<stop offset="1" stop-color="white"/>
</linearGradient>
<linearGradient id="paint14_linear_653_142" x1="74.5" y1="141.5" x2="81.5" y2="150.5" gradientUnits="userSpaceOnUse">
<stop stop-color="white"/>
<stop offset="0.475962" stop-color="white" stop-opacity="0"/>
<stop offset="1" stop-color="white"/>
</linearGradient>
<linearGradient id="paint15_linear_653_142" x1="130.669" y1="142.068" x2="130.669" y2="153.224" gradientUnits="userSpaceOnUse">
<stop stop-color="white"/>
<stop offset="0.475962" stop-color="white" stop-opacity="0"/>
<stop offset="1" stop-color="white"/>
</linearGradient>
<linearGradient id="paint16_linear_653_142" x1="107.599" y1="134.943" x2="107.599" y2="146.045" gradientUnits="userSpaceOnUse">
<stop stop-color="white"/>
<stop offset="0.475962" stop-color="white" stop-opacity="0"/>
<stop offset="1" stop-color="white"/>
</linearGradient>
<linearGradient id="paint17_linear_653_142" x1="81.7359" y1="126.891" x2="81.7359" y2="137.934" gradientUnits="userSpaceOnUse">
<stop stop-color="white"/>
<stop offset="0.475962" stop-color="white" stop-opacity="0"/>
<stop offset="1" stop-color="white"/>
</linearGradient>
<linearGradient id="paint18_linear_653_142" x1="57.3154" y1="120.395" x2="57.3154" y2="130.897" gradientUnits="userSpaceOnUse">
<stop stop-color="white"/>
<stop offset="0.475962" stop-color="white" stop-opacity="0"/>
<stop offset="1" stop-color="white"/>
</linearGradient>
<linearGradient id="paint19_linear_653_142" x1="330" y1="131.5" x2="336" y2="140.5" gradientUnits="userSpaceOnUse">
<stop stop-color="white"/>
<stop offset="0.475962" stop-color="white" stop-opacity="0"/>
<stop offset="1" stop-color="white"/>
</linearGradient>
<linearGradient id="paint20_linear_653_142" x1="304.5" y1="138.5" x2="310.5" y2="148" gradientUnits="userSpaceOnUse">
<stop stop-color="white"/>
<stop offset="0.475962" stop-color="white" stop-opacity="0"/>
<stop offset="1" stop-color="white"/>
</linearGradient>
<linearGradient id="paint21_linear_653_142" x1="379.5" y1="91.5" x2="384" y2="100" gradientUnits="userSpaceOnUse">
<stop stop-color="white"/>
<stop offset="0.475962" stop-color="white" stop-opacity="0"/>
<stop offset="1" stop-color="white"/>
</linearGradient>
<linearGradient id="paint22_linear_653_142" x1="356" y1="123" x2="361" y2="132.5" gradientUnits="userSpaceOnUse">
<stop stop-color="white"/>
<stop offset="0.475962" stop-color="white" stop-opacity="0"/>
<stop offset="1" stop-color="white"/>
</linearGradient>
<linearGradient id="paint23_linear_653_142" x1="382" y1="116.5" x2="385.5" y2="125" gradientUnits="userSpaceOnUse">
<stop stop-color="white"/>
<stop offset="0.475962" stop-color="white" stop-opacity="0"/>
<stop offset="1" stop-color="white"/>
</linearGradient>
<linearGradient id="paint24_linear_653_142" x1="408.5" y1="113" x2="410" y2="121" gradientUnits="userSpaceOnUse">
<stop stop-color="white"/>
<stop offset="0.475962" stop-color="white" stop-opacity="0"/>
<stop offset="1" stop-color="white"/>
</linearGradient>
<linearGradient id="paint25_linear_653_142" x1="434.004" y1="115.332" x2="434.004" y2="124.389" gradientUnits="userSpaceOnUse">
<stop stop-color="white"/>
<stop offset="0.475962" stop-color="white" stop-opacity="0"/>
<stop offset="1" stop-color="white"/>
</linearGradient>
<linearGradient id="paint26_linear_653_142" x1="347" y1="110.5" x2="354" y2="115.5" gradientUnits="userSpaceOnUse">
<stop stop-color="white"/>
<stop offset="0.475962" stop-color="white" stop-opacity="0"/>
<stop offset="1" stop-color="white"/>
</linearGradient>
<linearGradient id="paint27_linear_653_142" x1="366.5" y1="94.5" x2="373" y2="101" gradientUnits="userSpaceOnUse">
<stop stop-color="white"/>
<stop offset="0.475962" stop-color="white" stop-opacity="0"/>
<stop offset="1" stop-color="white"/>
</linearGradient>
<linearGradient id="paint28_linear_653_142" x1="398.5" y1="136.5" x2="395.5" y2="144.5" gradientUnits="userSpaceOnUse">
<stop stop-color="white"/>
<stop offset="0.475962" stop-color="white" stop-opacity="0"/>
<stop offset="1" stop-color="white"/>
</linearGradient>
<linearGradient id="paint29_linear_653_142" x1="361.5" y1="108.5" x2="367" y2="118.5" gradientUnits="userSpaceOnUse">
<stop stop-color="white"/>
<stop offset="0.475962" stop-color="white" stop-opacity="0"/>
<stop offset="1" stop-color="white"/>
</linearGradient>
<linearGradient id="paint30_linear_653_142" x1="414" y1="150" x2="409.5" y2="158" gradientUnits="userSpaceOnUse">
<stop stop-color="white"/>
<stop offset="0.475962" stop-color="white" stop-opacity="0"/>
<stop offset="1" stop-color="white"/>
</linearGradient>
<linearGradient id="paint31_linear_653_142" x1="387" y1="142" x2="381.5" y2="149.5" gradientUnits="userSpaceOnUse">
<stop stop-color="white"/>
<stop offset="0.475962" stop-color="white" stop-opacity="0"/>
<stop offset="1" stop-color="white"/>
</linearGradient>
<linearGradient id="paint32_linear_653_142" x1="325" y1="143" x2="323.5" y2="154" gradientUnits="userSpaceOnUse">
<stop stop-color="white"/>
<stop offset="0.475962" stop-color="white" stop-opacity="0"/>
<stop offset="1" stop-color="white"/>
</linearGradient>
<linearGradient id="paint33_linear_653_142" x1="349" y1="136" x2="348" y2="147" gradientUnits="userSpaceOnUse">
<stop stop-color="white"/>
<stop offset="0.475962" stop-color="white" stop-opacity="0"/>
<stop offset="1" stop-color="white"/>
</linearGradient>
<linearGradient id="paint34_linear_653_142" x1="382.548" y1="127.793" x2="382.548" y2="138.836" gradientUnits="userSpaceOnUse">
<stop stop-color="white"/>
<stop offset="0.475962" stop-color="white" stop-opacity="0"/>
<stop offset="1" stop-color="white"/>
</linearGradient>
<linearGradient id="paint35_linear_653_142" x1="407.151" y1="121.477" x2="407.151" y2="131.979" gradientUnits="userSpaceOnUse">
<stop stop-color="white"/>
<stop offset="0.475962" stop-color="white" stop-opacity="0"/>
<stop offset="1" stop-color="white"/>
</linearGradient>
<clipPath id="clip0_653_142">
<rect width="476" height="238" fill="white"/>
</clipPath>
</defs>
</svg>
