<svg width="498" height="89" viewBox="0 0 498 89" fill="none" xmlns="http://www.w3.org/2000/svg">
<g clip-path="url(#clip0_629_396)">
<path d="M124.92 22.32C126.669 22.3018 128.416 22.4694 130.13 22.82C131.558 23.1095 132.917 23.6733 134.13 24.48C135.253 25.2514 136.15 26.3075 136.73 27.54C137.392 29.023 137.71 30.6366 137.66 32.26C137.724 34.0462 137.247 35.8101 136.29 37.32C135.255 38.7645 133.853 39.907 132.23 40.63C134.468 41.1782 136.439 42.5037 137.79 44.37C139.047 46.2777 139.686 48.5263 139.62 50.81C139.667 52.6307 139.262 54.4347 138.44 56.06C137.688 57.5027 136.601 58.744 135.27 59.68C133.891 60.6409 132.349 61.3455 130.72 61.76C129.007 62.2134 127.242 62.442 125.47 62.44H106.08V22.32H124.92ZM123.82 38.56C125.194 38.6174 126.55 38.2241 127.68 37.44C128.208 36.9993 128.622 36.4369 128.885 35.8011C129.148 35.1653 129.253 34.4752 129.19 33.79C129.225 32.993 129.053 32.2005 128.69 31.49C128.37 30.9107 127.905 30.4248 127.34 30.08C126.744 29.7328 126.09 29.4957 125.41 29.38C124.661 29.2463 123.901 29.1794 123.14 29.18H114.91V38.56H123.82ZM124.33 55.56C125.157 55.5651 125.981 55.4813 126.79 55.31C127.531 55.1602 128.236 54.8718 128.87 54.46C129.475 54.0571 129.967 53.5064 130.3 52.86C130.681 52.055 130.863 51.1701 130.83 50.28C130.83 48.22 130.25 46.75 129.09 45.87C127.745 44.9333 126.127 44.4691 124.49 44.55H114.91V55.55L124.33 55.56ZM145.89 37.61C146.693 36.3831 147.768 35.3567 149.03 34.61C150.363 33.8391 151.817 33.2982 153.33 33.01C154.91 32.691 156.518 32.5302 158.13 32.53C159.612 32.5332 161.093 32.6401 162.56 32.85C163.983 33.0313 165.367 33.4399 166.66 34.06C167.851 34.6327 168.882 35.4916 169.66 36.56C170.501 37.8125 170.915 39.3032 170.84 40.81V56C170.84 57.2599 170.914 58.5187 171.06 59.77C171.14 60.7138 171.408 61.632 171.85 62.47H163.77C163.621 62.0173 163.497 61.5566 163.4 61.09C163.311 60.6138 163.247 60.1331 163.21 59.65C161.983 60.954 160.434 61.9127 158.72 62.43C157.015 62.965 155.237 63.2348 153.45 63.23C152.143 63.2397 150.84 63.0681 149.58 62.72C148.439 62.4121 147.371 61.8782 146.44 61.15C145.538 60.423 144.819 59.4949 144.34 58.44C143.808 57.2136 143.549 55.8864 143.58 54.55C143.527 53.1389 143.826 51.7368 144.45 50.47C144.987 49.4507 145.758 48.5733 146.7 47.91C147.654 47.2502 148.717 46.7629 149.84 46.47C151.012 46.1526 152.2 45.8989 153.4 45.71C154.6 45.53 155.78 45.37 156.93 45.26C157.972 45.1698 159.005 44.9993 160.02 44.75C160.796 44.5815 161.524 44.2396 162.15 43.75C162.418 43.5198 162.625 43.2267 162.753 42.8969C162.88 42.5671 162.924 42.2108 162.88 41.86C162.914 41.1491 162.77 40.4409 162.46 39.8C162.194 39.3136 161.804 38.9064 161.33 38.62C160.829 38.327 160.275 38.1366 159.7 38.06C159.038 37.9601 158.369 37.9133 157.7 37.92C156.388 37.845 155.087 38.1957 153.99 38.92C153.504 39.3363 153.111 39.851 152.839 40.4303C152.567 41.0095 152.42 41.64 152.41 42.28H144.46C144.507 40.6228 145.001 39.0092 145.89 37.61ZM161.65 48.89C161.115 49.0618 160.571 49.202 160.02 49.31C159.44 49.42 158.83 49.52 158.2 49.59C157.57 49.66 156.92 49.76 156.29 49.87C155.691 49.9799 155.099 50.1302 154.52 50.32C153.976 50.4896 153.462 50.7463 153 51.08C152.584 51.4072 152.243 51.8198 152 52.29C151.72 52.8689 151.586 53.5075 151.61 54.15C151.582 54.7897 151.716 55.426 152 56C152.236 56.4448 152.58 56.823 153 57.1C153.481 57.3942 154.014 57.5944 154.57 57.69C155.184 57.8029 155.806 57.8598 156.43 57.86C157.692 57.9302 158.95 57.6572 160.07 57.07C160.867 56.623 161.532 55.9748 162 55.19C162.397 54.5072 162.655 53.7528 162.76 52.97C162.84 52.3697 162.887 51.7655 162.9 51.16V48.16C162.536 48.4839 162.111 48.7321 161.65 48.89ZM184.74 33.37V37.42H184.9C185.81 35.8207 187.179 34.5316 188.83 33.72C190.365 32.9656 192.05 32.569 193.76 32.56C195.548 32.4976 197.33 32.7969 199 33.44C200.27 33.9453 201.384 34.7766 202.23 35.85C203.052 36.9694 203.615 38.2569 203.88 39.62C204.213 41.2418 204.374 42.8943 204.36 44.55V62.44H196.36V46C196.483 44.1425 196.099 42.2866 195.25 40.63C194.5 39.45 193.18 38.86 191.25 38.86C190.368 38.7821 189.481 38.9178 188.663 39.2554C187.845 39.5931 187.12 40.1229 186.55 40.8C185.55 42.09 185.1 44.22 185.1 47.18V62.44H177.1V33.37H184.74ZM219.19 22.32V43.84L229.26 33.38H238.71L227.71 44.06L240 62.44H230.32L222.32 49.44L219.23 52.44V62.44H211.23V22.32H219.19ZM269.39 33C268.854 32.1519 268.178 31.4012 267.39 30.78C266.587 30.1411 265.685 29.6378 264.72 29.29C263.718 28.9362 262.663 28.7569 261.6 28.76C259.843 28.7034 258.1 29.0994 256.54 29.91C255.188 30.6513 254.038 31.7121 253.19 33C252.305 34.3473 251.665 35.8402 251.3 37.41C250.908 39.0815 250.714 40.7932 250.72 42.51C250.714 44.1641 250.909 45.8127 251.3 47.42C251.673 48.9498 252.313 50.402 253.19 51.71C254.057 52.9846 255.216 54.0337 256.57 54.77C258.132 55.576 259.873 55.9717 261.63 55.92C262.809 55.9879 263.989 55.7997 265.089 55.3681C266.189 54.9365 267.182 54.2719 268 53.42C269.594 51.5958 270.567 49.3128 270.78 46.9H279.33C279.15 49.2539 278.561 51.5584 277.59 53.71C276.697 55.6617 275.438 57.4237 273.88 58.9C272.319 60.346 270.483 61.4616 268.48 62.18C266.293 62.9513 263.989 63.3338 261.67 63.31C258.822 63.3567 255.996 62.8119 253.37 61.71C251.005 60.7075 248.886 59.2028 247.16 57.3C245.443 55.3767 244.121 53.134 243.27 50.7C242.354 48.071 241.897 45.3039 241.92 42.52C241.894 39.6803 242.351 36.8568 243.27 34.17C244.116 31.7009 245.438 29.4214 247.16 27.46C248.865 25.5395 250.972 24.017 253.33 23C257.958 21.0775 263.113 20.8369 267.9 22.32C269.814 22.927 271.605 23.8682 273.19 25.1C274.745 26.3289 276.041 27.8552 277 29.59C278.075 31.4985 278.755 33.6035 279 35.78H270.4C270.259 34.7934 269.915 33.8468 269.39 33ZM292.4 22.32V37.42H292.62C293.518 35.8329 294.864 34.5458 296.49 33.72C297.914 32.9855 299.488 32.5886 301.09 32.56C302.881 32.4976 304.667 32.7969 306.34 33.44C307.61 33.9453 308.724 34.7766 309.57 35.85C310.388 36.9717 310.951 38.2583 311.22 39.62C311.553 41.2418 311.714 42.8943 311.7 44.55V62.44H303.7V46C303.822 44.1403 303.431 42.2828 302.57 40.63C301.82 39.45 300.49 38.86 298.57 38.86C297.682 38.7806 296.789 38.9153 295.964 39.2529C295.139 39.5905 294.407 40.121 293.83 40.8C292.85 42.0933 292.36 44.22 292.36 47.18V62.44H284.36V22.32H292.4ZM326.31 55.45C327.626 56.4807 329.224 57.0864 330.893 57.1864C332.561 57.2865 334.22 56.8761 335.65 56.01C336.631 55.4451 337.387 54.5584 337.79 53.5H344.79C343.67 56.98 341.947 59.4667 339.62 60.96C337.083 62.5091 334.151 63.2873 331.18 63.2C329.07 63.2269 326.974 62.8571 325 62.11C323.249 61.4222 321.669 60.3609 320.37 59C319.07 57.6026 318.066 55.9562 317.42 54.16C316.724 52.1685 316.385 50.0695 316.42 47.96C316.399 45.8856 316.759 43.825 317.48 41.88C318.142 40.0684 319.162 38.4087 320.48 37C321.803 35.6145 323.395 34.5152 325.16 33.77C327.057 32.9654 329.099 32.5603 331.16 32.58C333.416 32.5181 335.654 33.0054 337.68 34C339.465 34.9198 341.014 36.237 342.21 37.85C343.409 39.5019 344.278 41.3693 344.77 43.35C345.296 45.457 345.485 47.6339 345.33 49.8H324.33C324.46 52.39 325.11 54.28 326.31 55.45ZM335.31 40.14C334.744 39.5871 334.067 39.1604 333.324 38.8881C332.581 38.6157 331.789 38.5039 331 38.56C329.904 38.5245 328.814 38.7472 327.82 39.21C327.046 39.5979 326.364 40.1469 325.82 40.82C325.338 41.4117 324.975 42.0908 324.75 42.82C324.559 43.4484 324.435 44.0954 324.38 44.75H337.38C337.136 43.0553 336.43 41.4604 335.34 40.14H335.31ZM357.73 33.34V38.74H357.85C358.248 37.8389 358.77 36.9976 359.4 36.24C360.029 35.4701 360.766 34.7963 361.59 34.24C362.414 33.7105 363.305 33.2935 364.24 33C365.184 32.6983 366.169 32.5465 367.16 32.55C367.753 32.5635 368.342 32.6577 368.91 32.83V40.25C367.967 40.0497 367.004 39.9558 366.04 39.97C364.764 39.9293 363.495 40.1789 362.33 40.7C361.358 41.1501 360.516 41.838 359.88 42.7C359.235 43.5969 358.786 44.6188 358.56 45.7C358.283 46.8966 358.149 48.1218 358.16 49.35V62.44H350.09V33.34H357.73ZM371.16 41.6C371.812 39.7951 372.833 38.1465 374.16 36.76C375.496 35.4092 377.101 34.3532 378.87 33.66C380.838 32.9035 382.932 32.5301 385.04 32.56C387.154 32.532 389.255 32.9052 391.23 33.66C393.009 34.3456 394.621 35.4024 395.96 36.76C397.289 38.1443 398.312 39.7936 398.96 41.6C399.694 43.632 400.057 45.7796 400.03 47.94C400.072 50.0884 399.723 52.2265 399 54.25C398.347 56.0451 397.325 57.6835 396 59.06C394.665 60.4151 393.051 61.4627 391.27 62.13C389.29 62.865 387.192 63.2277 385.08 63.2C382.975 63.2285 380.883 62.8657 378.91 62.13C377.139 61.4551 375.533 60.4082 374.2 59.06C372.878 57.6814 371.857 56.0435 371.2 54.25C370.467 52.2284 370.108 50.0902 370.14 47.94C370.097 45.7826 370.443 43.6351 371.16 41.6ZM378.39 51.32C378.59 52.3809 378.98 53.3971 379.54 54.32C380.068 55.196 380.812 55.9223 381.7 56.43C382.728 56.9923 383.889 57.2653 385.06 57.22C386.24 57.2604 387.41 56.9878 388.45 56.43C389.345 55.925 390.096 55.1985 390.63 54.32C391.19 53.3971 391.58 52.3809 391.78 51.32C392.01 50.198 392.124 49.0553 392.12 47.91C392.123 46.7581 392.009 45.6089 391.78 44.48C391.586 43.4173 391.196 42.4 390.63 41.48C390.083 40.6119 389.336 39.8881 388.45 39.37C387.416 38.7929 386.244 38.5094 385.06 38.55C383.885 38.504 382.721 38.7881 381.7 39.37C380.822 39.8916 380.082 40.6149 379.54 41.48C378.974 42.4 378.584 43.4173 378.39 44.48C378.169 45.61 378.059 46.7587 378.06 47.91C378.058 49.0547 378.168 50.1969 378.39 51.32ZM414.06 22.32V43.84L424.13 33.38H433.58L422.58 44.06L434.78 62.44H425.11L417.11 49.44L414.01 52.44V62.44H406.01V22.32H414.06ZM446.14 55.45C447.456 56.4807 449.054 57.0864 450.723 57.1864C452.391 57.2865 454.051 56.8761 455.48 56.01C456.457 55.4395 457.211 54.5546 457.62 53.5H464.62C463.54 56.98 461.823 59.48 459.47 61C456.921 62.5418 453.977 63.3064 451 63.2C448.89 63.2271 446.794 62.8573 444.82 62.11C443.071 61.4232 441.494 60.3617 440.2 59C438.897 57.6047 437.893 55.9576 437.25 54.16C436.554 52.1685 436.215 50.0695 436.25 47.96C436.229 45.8856 436.589 43.825 437.31 41.88C437.975 40.0699 438.995 38.4108 440.31 37C441.637 35.6103 443.233 34.5046 445 33.75C446.897 32.9454 448.939 32.5403 451 32.56C453.255 32.5064 455.488 33.0005 457.51 34C459.282 34.9184 460.818 36.2324 462 37.84C463.207 39.4872 464.077 41.3562 464.56 43.34C465.094 45.4456 465.287 47.6234 465.13 49.79H444.13C444.29 52.39 444.94 54.28 446.14 55.45ZM455.14 40.14C454.568 39.5816 453.882 39.1518 453.131 38.8793C452.379 38.6068 451.577 38.498 450.78 38.56C449.684 38.5245 448.594 38.7472 447.6 39.21C446.863 39.5729 446.209 40.0833 445.677 40.7094C445.146 41.3355 444.749 42.0641 444.51 42.85C444.319 43.4784 444.195 44.1254 444.14 44.78H457.14C456.922 43.0819 456.24 41.4766 455.17 40.14H455.14ZM478.44 55.45C479.754 56.4799 481.351 57.0851 483.018 57.1852C484.684 57.2852 486.342 56.8753 487.77 56.01C488.747 55.4395 489.501 54.5546 489.91 53.5H496.91C495.79 56.98 494.067 59.4667 491.74 60.96C489.203 62.5091 486.271 63.2873 483.3 63.2C481.19 63.229 479.093 62.8592 477.12 62.11C475.366 61.4218 473.783 60.3606 472.48 59C471.183 57.6021 470.183 55.9556 469.54 54.16C468.844 52.1685 468.505 50.0695 468.54 47.96C468.523 45.885 468.885 43.8244 469.61 41.88C470.272 40.0684 471.292 38.4087 472.61 37C473.933 35.6145 475.526 34.5152 477.29 33.77C479.203 32.9587 481.263 32.5534 483.34 32.58C485.576 32.5278 487.792 33.0149 489.8 34C491.587 34.9162 493.138 36.234 494.33 37.85C495.529 39.5001 496.396 41.3683 496.88 43.35C497.414 45.4556 497.607 47.6333 497.45 49.8H476.45C476.58 52.39 477.23 54.28 478.44 55.45ZM487.44 40.14C486.868 39.5805 486.183 39.15 485.431 38.8775C484.679 38.6049 483.877 38.4967 483.08 38.56C481.984 38.5245 480.894 38.7472 479.9 39.21C479.163 39.5729 478.509 40.0833 477.977 40.7094C477.446 41.3355 477.048 42.0641 476.81 42.85C476.617 43.4774 476.496 44.125 476.45 44.78H489.45C489.23 43.0786 488.541 41.4719 487.46 40.14H487.44Z" fill="#121212"/>
<path d="M56.25 0H39.91V18C39.8152 21.4524 38.3771 24.7316 35.9016 27.14C33.4262 29.5484 30.1087 30.8959 26.655 30.8959C23.2013 30.8959 19.8838 29.5484 17.4084 27.14C14.9329 24.7316 13.4948 21.4524 13.4 18H35.69V0H8.58C4 0.3 0.66 2.41 0.5 11.52V28.66C1 42.26 10.69 43.58 12 43.58H56.25V21.27L78.44 43.57H98.26L56.25 0ZM56.25 89H39.91V71C39.8152 67.5476 38.3771 64.2684 35.9016 61.86C33.4262 59.4516 30.1087 58.1041 26.655 58.1041C23.2013 58.1041 19.8838 59.4516 17.4084 61.86C14.9329 64.2684 13.4948 67.5476 13.4 71H35.69V89H8.58C4 88.7 0.66 86.59 0.5 77.48V60.34C1 46.75 10.69 45.42 12 45.42H56.25V67.72L78.44 45.42H98.26L56.25 89Z" fill="#E86D1F"/>
</g>
<defs>
<clipPath id="clip0_629_396">
<rect width="498" height="89" fill="white"/>
</clipPath>
</defs>
</svg>
