<svg xmlns:xlink="http://www.w3.org/1999/xlink" xmlns="http://www.w3.org/2000/svg" class="logo" width="292.63"  height="65.09" ><defs><symbol id="svg-site-logo" viewBox="0 0 292.63 65.09"><title>Security State Bank logo</title><defs><style>.cls-1,.cls-3{fill:#003976}.cls-1{fill-rule:evenodd}.cls-2{fill:#b38f6b}</style></defs><path class="cls-1" d="M86.88 17.76c-1.95-1-5.17-2.1-5.17-4.74 0-2.2 2.3-3.18 4.15-3.18 6.14 0 10.63 4.6 13.07 9.88h1.32l-.4-11.2h-1.12l-5.26 2a18.07 18.07 0 0 0-7.81-2c-6.82 0-11.94 4.11-11.94 11.25 0 5.33 3.6 9.58 10.68 12.76l3.7 1.67c2.2 1 5.37 2.2 5.37 5.08 0 2.45-2.64 3.28-4.69 3.28-6.63 0-11.41-5-13.85-10.81h-1.56l.35 12.13h1.21l5.27-2.3a17 17 0 0 0 7.8 2.3c7.08 0 14.63-2.59 14.63-11a11.55 11.55 0 0 0-5.8-10.07zM131.61 33.12c.1-8.66-5.75-13.79-14.19-13.79-7.36 0-13.8 4.45-13.8 12.27 0 5.77 3 9.2 7.12 11a19.48 19.48 0 0 0 8 1.32c5.26 0 9.36-2 12.29-6.21l-.93-.71c-2 2.84-5.31 5.14-8.92 5.14-4.54 0-5.27-3.08-5.27-7v-2.02zM115.91 32v-6.8c0-1.52-.24-4.7 2-4.7 2.58 0 2.19 3 2.19 4.7V32zM159.77 36c-1.61 3.43-4.34 6-8.29 6-5 0-5.36-4.16-5.56-8-.63-12.27 1.32-13.25 5.41-13.25.64 0 3.08.34 3.08 1.32 0 .29-.59.54-.78.63-2.2 1.08-3.61 2.35-3.61 5a5.05 5.05 0 0 0 5.21 5 5.21 5.21 0 0 0 5.52-5.43c0-3.86-2.78-7.92-12.25-7.92-7.5 0-15.41 3.91-15.41 12.37 0 7.58 6 12.18 14.88 12.18 5.66 0 10.53-1.81 12.92-7.29zM194.88 42h-2.73V19.43c-4.78.14-9.51.58-14.29.58v1.18h2.58v14.23c0 1.81-.58 5.18-3 5.18a1.72 1.72 0 0 1-1.76-2V19.43c-4.78.14-9.56.58-14.34.58v1.18H164v13.3c0 7.53 2.78 9.39 7.95 9.39a10.24 10.24 0 0 0 8.92-4.7v4.6c4.68-.15 9.37-.64 14-.64zM197.75 21.19V42h-2.58v1.17h18V42h-3.46V30.72a15.9 15.9 0 0 1 .53-5.67c.15-.49 1.61-3.28 2.34-2.05a9.46 9.46 0 0 0-.29 2.29 5.12 5.12 0 0 0 5.46 5.38A5.46 5.46 0 0 0 223.5 25c0-3.52-3.07-5.43-6.29-5.43a8.72 8.72 0 0 0-7.85 4.85h-.1v-4.99c-4.68.14-9.41.58-14.09.58v1.18z" fill="#003976"></path><path class="cls-1" d="M239.8 43.14V42h-2.58V19.43c-4.88.14-9.7.58-14.58.58v1.18h2.58V42h-2.68v1.17zM231.13 8c-3.17 0-6.54 1-6.54 4.84 0 3.62 3.51 4.8 6.54 4.8s6.53-1.18 6.53-4.8C237.66 9 234.3 8 231.13 8zM253.41 11.41c-3.08 5-7.86 8.6-13.9 8.6v1.18h2.87v14.67c0 6.36 1.47 8 7.37 8 6.29 0 10.24-2 10.73-8.85h-1.08c-.24 1.9-1.21 5.91-3.7 5.91-1.46 0-1.37-1.41-1.37-2.49V21.19h5.51V20h-5.51v-8.6z" fill="#003976"></path><path class="cls-1" d="M282 32.39l-6.83-11.2H278V20h-18.67v1.18H262l13.56 22.3c-1.81 3.08-3.22 5.43-4.83 6.84s-2.54 1.91-3.56 1.91c-.29 0-.64-.1-.64-.44s.54-.64 1.08-1.12a3.12 3.12 0 0 0 1.07-2.5c0-2.49-2.15-3.91-4.44-3.91a4.5 4.5 0 0 0-4.73 4.3 5.4 5.4 0 0 0 5.71 5.33c3.12 0 5.36-1.51 7.36-3.76a54.42 54.42 0 0 0 4.78-7l10.39-17.56c1.22-2.1 3-4.35 4.87-4.35V20h-8.48v1.18h.63a2.24 2.24 0 0 1 1.66 3.66zM77.36 56.79a9.57 9.57 0 0 0 3.46.62c3.18 0 5.18-1.12 5.18-2.64 0-1.08-.73-1.88-2.77-2.36-.51-.12-1.12-.2-1.61-.28l-1.51-.22c-1.51-.21-2.8-.31-2.8-1.23s1.46-1.38 3-1.38c2.43 0 3.95 1 4.21 2.1h.78v-2.28h-.44l-.92.49a9.08 9.08 0 0 0-3.58-.61c-2.53 0-4.43.94-4.43 2.21s1.12 2 3.38 2.32l1.47.24c1.82.31 3.85.53 3.85 1.65s-1.71 1.69-3.63 1.69c-2.59 0-4-1.06-4.49-2.21h-.7v2.4h.41zM102.22 57.23v-.3h-2.55v-7.44c3.43-.09 4.48.73 4.92 2.27h.75l-.27-2.58h-14l-.26 2.58h.78c.43-1.54 1.48-2.36 4.92-2.27v7.44H94v.3zM114.18 51.13l2.29 3.36h-4.75zm-1.76 6.1v-.3h-2.48l1.51-2.14h5.26l1.49 2.14h-2.53v.3h7.72v-.3h-2L115.86 49H115l-5.82 7.93h-2v.3zM137.66 57.23v-.3h-2.56v-7.44c3.44-.09 4.49.73 4.92 2.27h.76l-.27-2.58h-14l-.27 2.58h.78c.44-1.54 1.49-2.36 4.92-2.27v7.44h-2.56v.3zM153.93 49.49a17 17 0 0 1 2.12.09 3 3 0 0 1 2.68 1.77h.68l-.14-2.17h-13.48v.31h2.44v7.44h-2.44v.3h13.87l.21-2.59h-.7c-.51 1.36-1.2 2.29-4.36 2.29h-3.46v-3.69c2.63 0 3.48.25 3.7 1.59h.68v-3.36h-.68c-.12 1.29-1.36 1.47-3.7 1.47v-3.45zM186.84 49.49c3 0 5.16-.31 5.16 1.63 0 1.38-1.14 1.8-3 1.8h-2.16zm.09 7.74a38.4 38.4 0 0 0 5.75-.2c1.71-.27 3.2-.84 3.2-1.9 0-1.37-2.83-2-5.22-2.07 2.1-.16 4.65-.69 4.65-1.92 0-1.73-3.84-1.94-6.52-1.94h-7.48v.31h2.41v7.44h-2.41v.3zm-.09-4h2.31c2.49 0 3.24.72 3.24 1.85 0 .84-.36 1.86-2.48 1.86h-3.07zM207.47 51.13l2.29 3.36H205zm-1.76 6.1v-.3h-2.48l1.51-2.14H210l1.49 2.14H209v.3h7.73v-.3h-2L209.15 49h-.83l-5.82 7.93h-2v.3zM233.72 49.48h2.44v-.3h-5.55v.3h2.33v4.97l-7.21-5.27h-6.23v.3h2.38v7.44h-2.38v.31h5.55v-.31h-2.39v-7.19l10.33 7.65h.73v-7.9zM256.59 57.23v-.3h-1.12l-7.77-4.69 5.3-2.75h2.37v-.31h-6.12v.31h2.78l-6.78 3.56 6.24 3.88H249v.3zM245 49.49h2.41v-.31h-7.94v.31h2.41v7.44h-2.41v.3h7.94v-.3H245z" fill="#003976"></path><path class="cls-2" d="M44.89 7.15a25.91 25.91 0 0 1 3.9 10.4c1.1 0 2-.1 3 0 .3-3.8-.1-8 .3-12 11.3 7.9 16.4 20.5 13.7 34-2.1 8.6-8 17.1-16.7 21.1 5.1-5.5 6-11 5.5-18.9-.6-6.4-4.5-13-10.7-15.3-6.7-2.9-14-4.5-21-6.8a7.69 7.69 0 0 1-4.6-7.1V10a9.83 9.83 0 0 1 .5-1.6 12 12 0 0 1 6.8-7.3 16.39 16.39 0 0 1 19.3 6.05z" fill="#B38F6B"></path><path class="cls-3" d="M16.09 5a14.45 14.45 0 0 0-2 3.9c-2.4 6.9-1.6 14.3 2.5 19.9 5.9 7.1 15.5 7.1 23.1 10.7 4.1 1.1 8.2 4.1 9.2 8.5.4 2.6.5 4.7-.5 6.9-1.7 5.6-6.7 9.2-12.6 10-6.7 1.3-13.5-2.8-16.9-8.4-1.2-1.6-1.3-3.3-2.4-4.7-.4-1.6-1.1-3.2-1.4-4.9a3 3 0 0 0-2.9-.1l-.1 10.5-.5-.1c-3.9-3.5-6.9-7-8.9-11.7-1.7-4.8-3.5-11-2.3-16.2.7-10.1 6.8-19.1 15.5-24.8z" fill="#003976"></path></symbol></defs><use href="#svg-site-logo" xlink:href="#svg-site-logo"></use></svg>