<svg xmlns="http://www.w3.org/2000/svg" xmlns:xlink="http://www.w3.org/1999/xlink" id="Lake_Region_Bank_Logo" x="0px" y="0px" viewBox="0 0 327.7 95.5" style="enable-background:new 0 0 327.7 95.5;" xml:space="preserve">
<style type="text/css">
	.st0{fill:#004677;}
	.st1{fill:#5387BD;}
</style>
<path class="st0" d="M34,76c-0.7-0.6-1.3-1.4-1.7-2.3l-0.4-0.9l0.8-0.7c2.5-1.5,5.1-2.9,7.8-4.3l-0.2,0l-1.5-2.1l0.3-0.4  C44.4,58.5,55.7,37.2,58,25l0.9-4.6l1.7,4.7c2.4,6.2,7.3,21.5,3.1,33.6c3.4-1.1,5.6-1.6,5.6-1.6l1.3-0.3L69.9,58  c0,0.1-0.9,1.6-4.1,4.4c2.6-0.2,5.5,0,8.9,0.9c0.1-0.2,0.3-0.5,0.4-0.7c2.5-4.6,3.9-10,3.9-15.6c0-18.2-14.8-33-33-33  c-18.2,0-33,14.8-33,33c0,12.8,7.3,23.8,17.9,29.3C32,76.2,33,76.1,34,76z"></path>
<path class="st0" d="M37.5,74.8c0.4,0.1,0.9,0.2,1.5,0.2c10.8-3.3,16.1-11.3,26-12.5c0.9-0.7,1.4-1.5,2-2.6c-1.8,0.6-3.9,1.3-6.2,2  c1.5-3.4,2.1-7.6,2.1-11.8c0-9.2-2.6-15-3.9-19.2c-2.9,11.9-12,28.7-17.3,36.6c2.9-0.3,5.4-0.8,7.6-1.3c-6.2,2.5-11.8,5.1-14.4,7.1  C35.3,73.9,36.2,74.4,37.5,74.8z"></path>
<g>
	<path class="st1" d="M26.2,77.7c26.6,10.7,36.6-15.4,51.4-12C53.5,57.1,52.2,79.6,26.2,77.7z"></path>
</g>
<g>
	<path class="st1" d="M100.2,65.4C84.5,75.7,78,58,52.6,81.5C75.5,70.1,92.2,82.9,100.2,65.4z"></path>
</g>
<g>
	<path class="st0" d="M97.1,31.1v14.7c0,1.3,0.1,2.3,0.4,3.1c0.1,0.3,1,0.5,2.7,0.5h1.5c2,0,3.6-0.3,4.7-0.8   c0.4-0.2,0.9-0.7,1.4-1.4c0.5-0.7,0.9-1.5,1.2-2.4c0-0.2,0.2-0.2,0.5-0.2c0.6,0,0.9,0.1,1.1,0.2c-0.1,0.2-0.3,0.8-0.6,1.6   s-0.5,1.5-0.7,1.9c-0.2,0.4-0.3,1-0.5,1.6c-0.2,0.6-0.3,1.1-0.4,1.5c-1,0-3.2,0-6.5-0.1s-5.6-0.1-6.9,0l-5.2,0.2   c-0.1-0.1-0.1-0.3-0.1-0.6c0-0.4,0-0.7,0.1-0.7c0.3,0,0.8-0.1,1.5-0.3c0.7-0.2,1-0.4,1.1-0.6c0.2-0.5,0.3-1.7,0.3-3.6V31   c0-1.6-0.1-2.7-0.3-3.3c-0.1-0.2-0.5-0.4-1.1-0.6c-0.6-0.2-1.1-0.3-1.4-0.3c-0.1,0-0.2-0.2-0.2-0.6c0-0.4,0-0.7,0.1-0.7   c0.1,0,0.9,0,2.2,0.1c1.3,0.1,2.3,0.1,3,0.1c0.2,0,1.9-0.1,5-0.2c0.1,0.2,0.1,0.4,0.1,0.6c0,0.4-0.1,0.7-0.2,0.7   c-0.2,0-0.7,0.1-1.4,0.3c-0.7,0.2-1.1,0.4-1.1,0.6C97.2,28.5,97.1,29.6,97.1,31.1z"></path>
	<path class="st0" d="M120.8,34.1c1.6,0,2.8,0.4,3.6,1.3c0.8,0.9,1.2,2.3,1.2,4.4v7.7c0,0.5,0.1,0.9,0.4,1.2s0.5,0.4,0.9,0.4   s0.8-0.2,1.3-0.5c0.2,0.1,0.2,0.2,0.2,0.4c0,0.5-0.1,0.9-0.2,1.2c-0.4,0.3-0.9,0.6-1.6,1s-1.3,0.5-1.9,0.5s-1.2-0.2-1.8-0.7   s-1-0.9-1.1-1.5c0,0-0.1,0.1-0.3,0.3c-0.2,0.1-0.4,0.3-0.7,0.5s-0.6,0.4-1,0.6c-0.4,0.2-0.8,0.4-1.3,0.5s-1,0.2-1.5,0.2   c-1.3,0-2.4-0.4-3.2-1.1c-0.8-0.7-1.2-1.7-1.2-3c0-0.6,0.2-1.2,0.5-1.8c0.3-0.5,0.7-1,1.1-1.4c0.4-0.4,1-0.7,1.7-1   c0.7-0.3,1.3-0.6,1.8-0.8c0.5-0.2,1.2-0.4,2-0.6c0.8-0.2,1.4-0.4,1.7-0.5c0.2-0.1,0.4-0.3,0.4-0.6v-2.2c0-0.9-0.2-1.6-0.6-2.2   c-0.4-0.5-1-0.8-1.7-0.8c-0.8,0-1.4,0.2-1.8,0.7c-0.4,0.5-0.7,1.2-0.7,2.1c0,0.5-0.2,0.9-0.6,1.2c-0.4,0.2-0.8,0.4-1.3,0.4   c-1,0-1.6-0.3-2-0.9c0-1.3,0.9-2.4,2.6-3.5C117.1,34.7,118.9,34.1,120.8,34.1z M119,49.2c0.7,0,1.3-0.2,1.8-0.5   c0.5-0.4,0.8-0.8,0.8-1.3v-4c-0.2,0.1-0.6,0.2-1.2,0.4c-0.6,0.2-1,0.3-1.4,0.5c-0.3,0.1-0.7,0.3-1.1,0.5c-0.4,0.2-0.7,0.5-0.9,0.9   c-0.2,0.3-0.3,0.7-0.3,1.1c0,0.8,0.2,1.5,0.6,1.8C117.8,49,118.3,49.2,119,49.2z"></path>
	<path class="st0" d="M146.6,36.7c-0.5,0.3-1.4,0.9-2.5,1.8c-1.1,0.9-2.2,1.8-3.1,2.7c0.8,0.8,1.7,1.9,2.9,3.2   c1.2,1.3,2.1,2.4,2.9,3.2c0.8,0.8,1.3,1.4,1.6,1.6c0.4,0.3,0.9,0.6,1.5,0.8c0.6,0.2,1.1,0.3,1.3,0.3c0.1,0,0.2,0.2,0.2,0.7   c0,0.3,0,0.5,0,0.5c-2.9-0.1-4.4-0.2-4.6-0.2c-0.5,0-1,0-1.5,0s-1.1,0.1-1.7,0.1s-1.1,0.1-1.5,0.1c-0.1-0.1-0.2-0.3-0.2-0.7   s0.1-0.5,0.2-0.5c0.3,0,0.6-0.1,0.9-0.2c0.3-0.1,0.5-0.2,0.5-0.4c0-0.1,0-0.1,0-0.1l-5.7-6.4l-0.5,0.1v2.4c0,1.7,0.1,2.9,0.3,3.5   c0.1,0.2,0.4,0.4,1.1,0.6s1.1,0.3,1.4,0.3c0.1,0,0.1,0.2,0.1,0.6c0,0.4,0,0.6-0.1,0.8c-0.2,0-0.9-0.1-2.1-0.2   c-1.2-0.1-2.1-0.1-2.7-0.1c-0.6,0-1.5,0-2.7,0.1c-1.2,0.1-1.9,0.1-2.1,0.2c-0.1-0.1-0.2-0.4-0.2-0.7c0-0.4,0.1-0.6,0.2-0.6   c0.3,0,0.8-0.1,1.4-0.3c0.6-0.2,1-0.4,1-0.6c0.2-0.8,0.3-1.7,0.3-2.9V30.3c0-1-0.1-1.9-0.2-2.7c-0.1-0.4-0.8-0.6-2-0.6h-0.4   c-0.2,0-0.2-0.2-0.2-0.6c0-0.4,0.1-0.6,0.2-0.6c0.8-0.1,1.6-0.2,2.3-0.3c0.7-0.1,1.3-0.3,1.8-0.4c0.5-0.1,0.9-0.3,1.3-0.4   c0.4-0.1,0.7-0.3,1.1-0.4h0.1c0.1,0,0.2,0.1,0.3,0.2c0.1,0.1,0.2,0.3,0.2,0.4c-0.3,1-0.5,2.2-0.5,3.7v13.1c0.6-0.2,1-0.3,1.2-0.4   c0.5-0.5,1.1-1,1.8-1.5c0.6-0.5,1.1-0.9,1.4-1.2s0.6-0.5,0.9-0.8c0.3-0.3,0.5-0.5,0.6-0.6c0.1-0.2,0.1-0.3,0.1-0.5   c0-0.3-0.3-0.5-0.9-0.5c-0.6-0.1-0.9-0.1-0.9-0.1c-0.1-0.2-0.1-0.4-0.1-0.7s0.1-0.4,0.2-0.5c2,0,3.3,0,3.8,0c0.7,0,2.1-0.1,4.2-0.2   c0.1,0.1,0.2,0.2,0.2,0.4c0,0.2,0,0.4,0,0.6s-0.1,0.3-0.2,0.3C148.4,36,147.5,36.2,146.6,36.7z"></path>
	<path class="st0" d="M159.7,34.1c1.2,0,2.3,0.2,3.3,0.7c1,0.5,1.7,1.1,2.3,1.8s1,1.5,1.3,2.3c0.3,0.8,0.4,1.6,0.4,2.3   c0,0.6-0.1,0.9-0.3,1.1c-0.2,0.1-0.6,0.2-1.2,0.2h-9.4c-0.2,0-0.3,0.1-0.3,0.2c0,0.9,0.2,1.9,0.5,2.7s0.9,1.7,1.7,2.3   c0.8,0.7,1.8,1,3,1c0.4,0,0.8,0,1.1-0.1s0.7-0.1,1-0.2c0.3-0.1,0.6-0.2,0.8-0.3c0.2-0.1,0.5-0.2,0.7-0.4c0.2-0.2,0.4-0.3,0.5-0.3   c0.1-0.1,0.4-0.2,0.8-0.5c0.1,0,0.1,0.1,0.2,0.2c0.1,0.1,0.1,0.3,0.1,0.4c0,0.3-0.1,0.5-0.2,0.7c-0.4,0.7-1.2,1.4-2.3,2.1   c-1.2,0.7-2.4,1.1-3.9,1.1c-2.3,0-4.2-0.8-5.9-2.5s-2.5-3.7-2.5-6.1c0-2.6,0.8-4.8,2.3-6.4C155.4,34.9,157.3,34.1,159.7,34.1z    M159.4,35.9c-0.6,0-1.2,0.2-1.7,0.5c-0.5,0.4-0.9,0.8-1.1,1.3c-0.3,0.5-0.5,1-0.6,1.5c-0.1,0.5-0.2,0.8-0.2,1.2   c0,0.2,0.1,0.3,0.2,0.3h6.4c0.2,0,0.4-0.2,0.4-0.6c0-0.9-0.3-1.8-0.9-2.8S160.4,35.9,159.4,35.9z"></path>
	<path class="st0" d="M187,25.6c0.7,0,1.4,0.1,2.1,0.2c0.7,0.1,1.5,0.4,2.3,0.7c0.8,0.3,1.5,0.8,2.1,1.3c0.6,0.5,1.1,1.2,1.5,2   c0.4,0.8,0.6,1.7,0.6,2.7c0,1.4-0.5,2.7-1.4,4c-0.9,1.3-2,2.1-3.3,2.7c-0.2,0.1-0.3,0.2-0.2,0.4c1.5,2.6,2.9,4.9,4.4,6.7   c0.9,1.1,1.9,2.1,3,2.9c1.1,0.8,2,1.2,2.9,1.2c0.1,0.2,0.2,0.4,0.2,0.6s-0.1,0.5-0.2,0.7c-0.3,0.1-0.7,0.1-1.2,0.1   c-1.3,0-2.5-0.2-3.6-0.5s-2-0.8-2.8-1.4c-0.8-0.6-1.5-1.2-2-1.8c-0.5-0.6-1.1-1.3-1.6-2.2c-0.4-0.5-0.8-1.1-1.3-1.8   c-0.5-0.7-0.8-1.2-1.1-1.6c-0.2-0.4-0.5-0.8-0.8-1.2c-0.3-0.4-0.6-0.7-0.8-0.9c-0.2-0.2-0.4-0.4-0.6-0.4c-0.2-0.1-0.5-0.1-0.9-0.1   c-0.4,0-0.6,0.2-0.6,0.7v5.5c0,1.6,0.1,2.7,0.3,3.3c0.1,0.3,0.5,0.6,1.3,0.8c0.8,0.2,1.4,0.3,1.7,0.3c0.1,0,0.2,0.2,0.2,0.7   c0,0.3,0,0.5-0.1,0.7c-2.9-0.2-4.7-0.2-5.6-0.2c-0.7,0-1.5,0-2.4,0.1c-0.9,0-1.6,0.1-2.1,0.1l-0.8,0.1c-0.1-0.1-0.1-0.3-0.1-0.7   c0-0.4,0-0.6,0.1-0.6c0.3,0,0.8-0.1,1.5-0.3c0.7-0.2,1.1-0.4,1.2-0.6c0.2-0.5,0.2-1.7,0.2-3.6V31c0-1.5-0.1-2.6-0.2-3.2   c-0.1-0.2-0.5-0.4-1.2-0.6c-0.7-0.2-1.2-0.3-1.5-0.3c-0.1,0-0.2-0.2-0.2-0.6s0.1-0.6,0.2-0.7c2.8,0.1,4.5,0.1,5.2,0.1   c0.7,0,1.6,0,2.7,0C185.3,25.6,186.2,25.6,187,25.6z M186.3,27.5c-1.1,0-1.9,0.1-2.3,0.3c-0.3,0.1-0.4,1.5-0.5,4.1v4.5   c0,0.6,0.2,1,0.7,1.1c0.4,0.2,1.1,0.3,1.8,0.3h1c1,0,1.8-0.5,2.6-1.4c0.8-0.9,1.2-2.1,1.2-3.6C190.9,29.3,189.4,27.5,186.3,27.5z"></path>
	<path class="st0" d="M209.4,34.1c1.2,0,2.3,0.2,3.3,0.7c1,0.5,1.7,1.1,2.3,1.8s1,1.5,1.3,2.3c0.3,0.8,0.4,1.6,0.4,2.3   c0,0.6-0.1,0.9-0.3,1.1c-0.2,0.1-0.6,0.2-1.2,0.2h-9.4c-0.2,0-0.3,0.1-0.3,0.2c0,0.9,0.2,1.9,0.5,2.7s0.9,1.7,1.7,2.3   c0.8,0.7,1.8,1,3,1c0.4,0,0.8,0,1.1-0.1s0.7-0.1,1-0.2c0.3-0.1,0.6-0.2,0.8-0.3c0.2-0.1,0.5-0.2,0.7-0.4c0.2-0.2,0.4-0.3,0.5-0.3   c0.1-0.1,0.4-0.2,0.8-0.5c0.1,0,0.1,0.1,0.2,0.2c0.1,0.1,0.1,0.3,0.1,0.4c0,0.3-0.1,0.5-0.2,0.7c-0.4,0.7-1.2,1.4-2.3,2.1   c-1.2,0.7-2.4,1.1-3.9,1.1c-2.3,0-4.2-0.8-5.9-2.5s-2.5-3.7-2.5-6.1c0-2.6,0.8-4.8,2.3-6.4C205.1,34.9,207.1,34.1,209.4,34.1z    M209.1,35.9c-0.6,0-1.2,0.2-1.7,0.5c-0.5,0.4-0.9,0.8-1.1,1.3c-0.3,0.5-0.5,1-0.6,1.5c-0.1,0.5-0.2,0.8-0.2,1.2   c0,0.2,0.1,0.3,0.2,0.3h6.4c0.2,0,0.4-0.2,0.4-0.6c0-0.9-0.3-1.8-0.9-2.8S210.2,35.9,209.1,35.9z"></path>
	<path class="st0" d="M226,34.2c0.9,0,2,0.2,3.3,0.5c1.2,0.3,2.3,0.5,3.1,0.5h2.2c0.1,0,0.1,0.2,0.3,0.5s0.2,0.6,0.2,0.8   c0,0.4-0.1,0.5-0.2,0.5h-2.5c-0.1,0-0.2,0-0.2,0.1c0,0,0.1,0.4,0.4,1s0.4,1.3,0.4,1.9c0,1.5-0.6,2.9-1.9,4.2s-2.9,1.9-4.8,1.9   c-0.9,0-1.8-0.1-2.4-0.2c-0.3,0.1-0.6,0.4-0.9,0.7c-0.3,0.4-0.4,0.7-0.4,1c0,0.3,0.1,0.5,0.4,0.7c0.2,0.2,0.6,0.3,1.2,0.4   c0.5,0.1,1,0.1,1.3,0.2c0.4,0,0.9,0.1,1.6,0.1c0.3,0,0.5,0,0.6,0c2.6,0.1,4.5,0.4,5.7,1.1c1.2,0.6,1.8,1.6,1.8,2.9   c0,2-0.9,3.7-2.8,5.1c-1.9,1.4-4.1,2.2-6.6,2.2c-1.9,0-3.6-0.3-5-1.1c-1.4-0.8-2.1-1.8-2.1-3.2c0-0.8,0.4-1.5,1.1-2.2   s1.5-1.2,2.4-1.5c-0.7-0.2-1.3-0.6-1.9-1.2c-0.6-0.6-0.9-1.3-0.9-2.1c0-1.1,1-2.3,2.9-3.5c-0.8-0.3-1.5-1-2.1-2c-0.7-1-1-2.1-1-3.2   c0-1.9,0.7-3.3,2-4.4C222.3,34.7,224,34.2,226,34.2z M231.4,54.7c0-0.9-0.7-1.5-2-1.8c-1.3-0.3-3.1-0.5-5.3-0.5c-0.1,0-0.1,0-0.2,0   c-0.1,0-0.1,0.1-0.2,0.1c-0.3,0.1-0.6,0.2-0.8,0.3s-0.4,0.2-0.6,0.4s-0.4,0.4-0.5,0.7c-0.1,0.3-0.2,0.6-0.2,0.9   c0,0.9,0.5,1.7,1.5,2.4c1,0.6,2.1,0.9,3.3,0.9c1.5,0,2.7-0.3,3.6-1C230.9,56.6,231.4,55.7,231.4,54.7z M223,39.9   c0,1.3,0.3,2.4,0.8,3.2c0.5,0.9,1.3,1.3,2.2,1.3c1,0,1.7-0.4,2.1-1.1c0.5-0.7,0.7-1.7,0.7-2.8c0-1.4-0.3-2.5-0.8-3.4   c-0.5-0.9-1.3-1.3-2.3-1.3c-0.9,0-1.6,0.4-2.1,1.2C223.2,37.9,223,38.8,223,39.9z"></path>
	<path class="st0" d="M244.2,45.9c0,1.6,0.1,2.8,0.3,3.5c0.1,0.2,0.4,0.4,1.1,0.6s1.1,0.3,1.3,0.3c0.1,0,0.2,0.2,0.2,0.6   c0,0.4,0,0.6-0.1,0.8c-0.2,0-0.9-0.1-2.1-0.2s-2.1-0.1-2.7-0.1c-0.7,0-1.6,0-2.8,0.1c-1.2,0.1-1.9,0.1-2.1,0.2   c-0.1-0.1-0.2-0.4-0.2-0.7c0-0.4,0.1-0.6,0.2-0.6c0.3,0,0.8-0.1,1.4-0.3c0.7-0.2,1-0.4,1.1-0.6c0.2-0.8,0.3-1.7,0.3-2.9v-6.4   c0-1.2-0.2-2.1-0.6-2.5c-0.2-0.3-0.5-0.5-0.9-0.6s-0.7-0.2-0.9-0.2c-0.3,0-0.4-0.1-0.4-0.1c0-0.8,0.1-1.2,0.2-1.2   c0.7-0.1,1.8-0.2,3.2-0.5c1.4-0.3,2.4-0.5,3.1-0.7c0,0,0.1,0,0.3-0.1c0.1,0,0.2,0.1,0.3,0.3c0.1,0.2,0.1,0.3,0.1,0.4   c-0.2,1.7-0.3,2.8-0.3,3.4V45.9z M240.1,29.5c-0.5-0.5-0.7-1.1-0.7-1.7s0.2-1.2,0.7-1.7s1-0.7,1.7-0.7s1.3,0.2,1.7,0.7   s0.7,1,0.7,1.7s-0.2,1.2-0.7,1.7c-0.5,0.5-1,0.7-1.7,0.7S240.6,30,240.1,29.5z"></path>
	<path class="st0" d="M257,34.1c2.5,0,4.6,0.9,6.3,2.6c1.7,1.7,2.6,3.8,2.6,6.2s-0.9,4.5-2.6,6.2c-1.7,1.7-3.8,2.6-6.3,2.6   c-2.5,0-4.6-0.9-6.3-2.6c-1.7-1.7-2.6-3.8-2.6-6.2c0-2.5,0.9-4.5,2.6-6.2C252.4,35,254.5,34.1,257,34.1z M256.5,36   c-1.2,0-2.2,0.6-2.9,1.8c-0.7,1.2-1,2.6-1,4.3c0,2.1,0.4,4,1.3,5.5c0.8,1.6,2,2.4,3.5,2.4c1.2,0,2.2-0.6,2.9-1.8   c0.7-1.2,1-2.6,1-4.2c0-1.4-0.2-2.6-0.5-3.8c-0.3-1.2-0.9-2.1-1.6-2.9C258.4,36.3,257.5,36,256.5,36z"></path>
	<path class="st0" d="M280,34.1c3.4,0,5.1,2.7,5.1,8v3.7c0,1.6,0.1,2.8,0.3,3.5c0.1,0.2,0.4,0.4,1.1,0.6c0.7,0.2,1.1,0.3,1.4,0.3   c0.1,0,0.1,0.2,0.1,0.6c0,0.4,0,0.6-0.1,0.8c-0.2,0-0.8-0.1-2.1-0.2s-2.1-0.1-2.7-0.1c-0.6,0-1.5,0-2.6,0.1s-1.8,0.1-2,0.2   c-0.1-0.1-0.2-0.4-0.2-0.7c0-0.4,0.1-0.6,0.2-0.6c0.3,0,0.7-0.1,1.3-0.3c0.6-0.2,0.9-0.4,1-0.6c0.2-0.8,0.3-1.7,0.3-2.9v-3.7   c0-2.2-0.3-3.7-0.9-4.5c-0.6-0.9-1.5-1.3-2.8-1.3c-0.8,0-1.6,0.2-2.2,0.7c-0.6,0.5-0.9,0.9-0.9,1.5v6.7c0,1.6,0.1,2.8,0.3,3.5   c0.1,0.2,0.4,0.4,1,0.6s1.1,0.3,1.3,0.3c0.1,0,0.2,0.2,0.2,0.6c0,0.4,0,0.6-0.1,0.8c-0.2,0-0.9-0.1-2.1-0.2c-1.2-0.1-2-0.1-2.6-0.1   c-0.6,0-1.5,0-2.7,0.1c-1.2,0.1-1.9,0.1-2.1,0.2c-0.1-0.1-0.2-0.4-0.2-0.7c0-0.4,0.1-0.6,0.2-0.6c0.3,0,0.8-0.1,1.4-0.3   s1-0.4,1-0.6c0.2-0.8,0.3-1.7,0.3-2.9v-6.4c0-1.2-0.2-2.1-0.6-2.5c-0.2-0.3-0.5-0.5-0.9-0.6s-0.7-0.2-0.9-0.2   c-0.2,0-0.4-0.1-0.4-0.1c0-0.8,0.1-1.2,0.2-1.2c1.2-0.1,3.3-0.5,6.3-1.2c0,0,0.1,0,0.1-0.1c0,0,0.1,0,0.1,0s0.1,0,0.1,0   c0.1,0,0.2,0.1,0.3,0.3c0.1,0.2,0.1,0.3,0.1,0.4c-0.1,0.7-0.2,1.2-0.2,1.4c0,0.1,0,0.2,0,0.2c0,0,0.1,0,0.2-0.1   c0.6-0.6,1.4-1.2,2.4-1.6S279,34.1,280,34.1z"></path>
</g>
<g>
	<path class="st1" d="M244.9,72.1v-9.4c0-0.9,0-1.6-0.1-1.9c0-0.1-0.3-0.3-0.7-0.4c-0.4-0.2-0.8-0.2-0.9-0.2c-0.1,0-0.1-0.1-0.1-0.4   c0-0.3,0-0.4,0.1-0.5c1.3,0.1,2.6,0.1,3.7,0.1c0.5,0,1.8,0,3.8,0c0.6,0,1.2,0.1,1.9,0.2s1.2,0.4,1.8,0.7c0.6,0.3,1.1,0.8,1.4,1.4   c0.4,0.6,0.5,1.3,0.5,2.1c0,0.9-0.2,1.6-0.7,2.1c-0.5,0.6-0.9,0.9-1.3,1.1c-0.1,0.1-0.2,0.1-0.1,0.2c0.6,0.1,1.2,0.5,1.8,1.2   c0.6,0.7,0.9,1.6,0.9,2.8c0,1.4-0.6,2.6-1.7,3.4c-1.2,0.9-2.7,1.3-4.6,1.2l-3.7,0c-0.5,0-1.1,0-1.7,0c-0.6,0-1.1,0-1.5,0.1l-0.5,0   c-0.1-0.1-0.1-0.2-0.1-0.4c0-0.3,0-0.5,0.1-0.5c0.2,0,0.5-0.1,0.9-0.2s0.7-0.2,0.7-0.4C244.8,73.9,244.9,73.2,244.9,72.1z    M251.1,66.2c0.2-0.1,0.4-0.3,0.6-0.4c0.1-0.1,0.3-0.4,0.4-0.7c0.2-0.4,0.2-0.9,0.2-1.4c0-2.1-0.8-3.1-2.3-3.1   c-0.7,0-1.2,0-1.4,0.1c-0.1,0-0.2,0.1-0.2,0.3v2.3v2.8c0,0.2,0.4,0.3,1.3,0.3C250.3,66.4,250.8,66.4,251.1,66.2z M253,71.3   c0-2.3-1-3.5-3.1-3.5c-0.5,0-1,0-1.3,0.1c-0.2,0.1-0.3,0.1-0.3,0.2v5.6c0,0.2,0.1,0.3,0.2,0.3c0.2,0.1,0.8,0.2,1.9,0.2   C252.1,74.3,253,73.3,253,71.3z"></path>
	<path class="st1" d="M267.9,74.9c0.4,0,0.7-0.1,1.1-0.2c0.4-0.2,0.6-0.4,0.6-0.6c0,0-0.2-0.6-0.6-1.7l-0.7-1.8   c-0.1-0.1-0.1-0.1-0.2-0.1c-0.3,0-1.1,0-2.4,0c-1.1,0-1.9,0-2.5,0c-0.1,0-0.1,0-0.2,0.1l-0.8,1.9c-0.3,0.7-0.5,1.3-0.5,1.5   c0,0.3,0.1,0.5,0.4,0.6c0.3,0.1,0.6,0.2,0.8,0.3s0.4,0,0.6,0c0,0,0.1,0.2,0.1,0.4s0,0.4,0,0.5c-0.2,0-0.7-0.1-1.3-0.1   c-0.7-0.1-1.2-0.1-1.6-0.1c-0.4,0-0.9,0-1.5,0.1c-0.6,0.1-1,0.1-1.3,0.1c-0.1-0.1-0.1-0.2-0.1-0.4c0-0.3,0-0.5,0-0.5   c0.2,0,0.5-0.1,1-0.3c0.5-0.2,0.8-0.4,0.9-0.5c0.1-0.2,0.3-0.4,0.4-0.7c0.1-0.3,0.3-0.5,0.3-0.7l0.1-0.3l5.5-12.7   c0.2-0.4,0.5-0.6,0.9-0.6c0.2,0,0.4,0.1,0.6,0.3l5.1,12.6c0.3,0.8,0.6,1.4,0.8,2c0.1,0.3,0.4,0.5,0.8,0.6c0.4,0.1,0.8,0.2,1,0.2   c0.1,0,0.1,0.1,0.1,0.4c0,0.3,0,0.4,0,0.5c-0.1,0-0.6,0-1.5-0.1s-1.6-0.1-2.1-0.1c-0.1,0-1.4,0.1-3.8,0.2c-0.1-0.1-0.1-0.2-0.1-0.5   S267.9,74.9,267.9,74.9z M263.9,68.8c0.5,0,1.1,0.1,1.8,0.1c0.7,0,1.3,0,1.8,0l0.1-0.1l-1.8-4.5L263.9,68.8   C263.8,68.8,263.8,68.8,263.9,68.8z"></path>
	<path class="st1" d="M291.2,62.6c0-0.9-0.1-1.5-0.3-1.8c-0.1-0.2-0.5-0.3-0.9-0.5c-0.5-0.1-0.8-0.2-1-0.2c-0.1,0-0.1-0.1-0.1-0.4   c0-0.3,0-0.4,0-0.5c1.5,0.1,2.6,0.2,3.3,0.2c0.4,0,1,0,1.7-0.1c0.7-0.1,1.2-0.1,1.4-0.1c0.1,0.1,0.1,0.3,0.1,0.4   c0,0.3,0,0.5-0.1,0.5c-0.9,0-1.6,0.3-2.1,0.8c-0.2,0.3-0.3,0.9-0.3,1.8v9.5c0,0.6,0,1.8,0.1,3.5c-0.1,0.1-0.3,0.1-0.6,0.1   c-0.2,0-0.5-0.2-0.8-0.6l-10.1-12.6v9.6c0,0.9,0.1,1.5,0.2,1.8c0.1,0.3,0.5,0.5,1,0.7c0.5,0.2,0.9,0.2,1.2,0.2c0,0,0.1,0.1,0.1,0.4   c0,0.3,0,0.5,0,0.5c-0.1,0-0.6,0-1.5-0.1c-0.8-0.1-1.5-0.1-1.9-0.1c-0.4,0-1,0-1.6,0.1c-0.7,0.1-1.1,0.1-1.4,0.1   c0,0-0.1-0.2-0.1-0.4c0-0.3,0-0.5,0.1-0.5c0.2,0,0.4,0,0.6,0c0.2,0,0.5-0.1,0.8-0.3c0.3-0.2,0.6-0.4,0.7-0.6   c0.2-0.3,0.2-0.9,0.2-1.8v-9.8c0-0.9-0.1-1.5-0.4-1.8c-0.1-0.1-0.4-0.2-0.9-0.3c-0.5-0.1-0.9-0.1-1.1-0.1c-0.1,0-0.1-0.1-0.1-0.4   s0-0.4,0.1-0.5c0.3,0,0.8,0.1,1.6,0.1c0.8,0.1,1.4,0.1,1.8,0.1c0.6,0,1.4-0.1,2.4-0.2c0.3,0.6,0.8,1.4,1.7,2.5s1.9,2.4,3.2,4   c1.3,1.6,2.3,2.9,3.1,3.9c0-0.1,0-0.5,0-1V62.6z"></path>
	<path class="st1" d="M301,59.3c0.3,0,1.5,0,3.5-0.1c0,0.1,0.1,0.3,0.1,0.4c0,0.3,0,0.5-0.1,0.5c-0.1,0-0.4,0.1-0.9,0.2   c-0.4,0.1-0.7,0.3-0.7,0.4c-0.1,0.4-0.2,1.2-0.2,2.1v3.9c0,0.1,0,0.1,0,0.2c0,0,0.1,0,0.1,0h0h0.2c0.1,0,0.5-0.3,1.1-0.9   c1.4-1.5,2.9-3.1,4.5-4.9c0.1-0.2,0.2-0.4,0.2-0.6c0-0.2-0.2-0.3-0.5-0.3c-0.4-0.1-0.7-0.1-0.9-0.1c-0.1,0-0.1-0.1-0.1-0.3   s0-0.4,0-0.5c1.8,0.1,3,0.1,3.3,0.1c0.2,0,1.3,0,3.3-0.1c0,0.1,0,0.2,0,0.5c0,0.3,0,0.4-0.1,0.4l-0.1,0c-0.1,0-0.2,0-0.3,0   c-0.1,0-0.2,0-0.4,0c-0.1,0-0.3,0-0.4,0.1c-0.1,0-0.3,0.1-0.4,0.1s-0.3,0.1-0.4,0.2c-0.1,0.1-0.3,0.1-0.4,0.2   c-0.1,0.1-0.3,0.2-0.4,0.3l-4.3,4.7c-0.2,0.2-0.2,0.5,0,0.7l5.9,7.7c0.2,0.2,0.5,0.4,0.9,0.5s0.7,0.1,0.9,0.1   c0.1,0,0.1,0.2,0.1,0.5c0,0.2,0,0.3-0.1,0.4c0,0-0.5,0-1.6-0.1s-1.8-0.1-2.2-0.1c-0.9,0-2.1,0.1-3.5,0.2c-0.1-0.1-0.1-0.2-0.1-0.5   s0-0.4,0.1-0.4c0.2,0,0.4,0,0.7-0.1c0.3-0.1,0.4-0.2,0.4-0.3c0-0.5-1.5-2.5-4.4-5.8c0,0-0.2-0.1-0.3-0.1c-0.4,0-0.6,0.1-0.6,0.4V72   c0,0.9,0.1,1.7,0.2,2.2c0,0.1,0.3,0.2,0.7,0.4c0.4,0.1,0.7,0.2,0.9,0.2c0.1,0,0.1,0.2,0.1,0.5c0,0.2,0,0.3,0,0.4   c-0.1,0-0.6,0-1.5-0.1c-0.9-0.1-1.5-0.1-2-0.1c-0.4,0-1.1,0-2,0.1c-0.9,0.1-1.4,0.1-1.6,0.1c-0.1-0.1-0.1-0.2-0.1-0.4   c0-0.3,0-0.5,0.1-0.5c0.2,0,0.5-0.1,0.9-0.2c0.4-0.1,0.7-0.3,0.7-0.4c0.1-0.4,0.2-1.1,0.2-2v-9.6c0-1.1-0.1-1.7-0.2-1.9   c-0.1-0.1-0.3-0.3-0.7-0.4c-0.4-0.1-0.7-0.2-0.8-0.2c-0.1,0-0.1-0.1-0.1-0.4c0-0.3,0-0.5,0-0.5C299.7,59.3,300.9,59.3,301,59.3z"></path>
</g>
</svg>