<svg width="200" height="73" viewBox="0 0 200 73" fill="none" xmlns="http://www.w3.org/2000/svg">
<mask id="mask0_629_400" style="mask-type:luminance" maskUnits="userSpaceOnUse" x="0" y="0" width="200" height="73">
<path d="M0 0.5625H200V72.5625H0V0.5625Z" fill="white"/>
</mask>
<g mask="url(#mask0_629_400)">
<path d="M186.501 24.3555L165.93 60.3075" stroke="#595959" stroke-width="0.307" stroke-linecap="round"/>
<path d="M189.926 24.7852C189.355 29.2812 184.928 28.2742 184.158 29.6212C186.804 24.9912 188.904 26.7752 189.926 24.7852ZM187.135 29.6632C186.564 34.1602 182.137 33.1532 181.361 34.4992C184.013 29.8692 186.107 31.6482 187.135 29.6632ZM184.338 34.5482C183.767 39.0442 179.34 38.0312 178.57 39.3782C181.223 34.7482 183.316 36.5322 184.338 34.5482Z" fill="#D9D9D9" stroke="#595959" stroke-width="0.307" stroke-linecap="round"/>
<path d="M184.424 21.5742C180.852 24.3232 183.931 27.6842 183.161 29.0312C185.814 24.4012 183.233 23.4612 184.424 21.5742Z" fill="#D9D9D9" stroke="#595959" stroke-width="0.307" stroke-miterlimit="5" stroke-linecap="round"/>
<path d="M181.622 26.4541C178.049 29.2021 181.128 32.5641 180.358 33.9111C183.011 29.2811 180.431 28.3411 181.622 26.4541ZM178.831 31.3381C175.252 34.0811 178.337 37.4481 177.562 38.7951C180.214 34.1651 177.634 33.2251 178.831 31.3381ZM185.772 25.6221C186.638 24.1051 189.2 23.9121 190.115 22.3151C191.029 20.7131 189.291 19.4751 190.878 16.7031C189.291 19.4821 187.354 18.5781 186.439 20.1801C185.525 21.7811 186.638 24.1111 185.772 25.6281V25.6221ZM176.172 42.5881C183.306 40.2331 186.024 42.4911 184.833 46.5081C183.643 50.5241 182.47 51.4161 183.203 53.6381C180.677 51.0461 184.268 45.9491 182.025 44.4201C179.781 42.8911 178.686 42.4791 176.178 42.5821L176.172 42.5881ZM173.279 47.6421C171.733 40.2331 168.443 38.9901 165.586 42.0361C162.729 45.0881 162.555 46.5561 160.281 47.0291C163.77 47.9331 166.35 42.2541 168.78 43.4491C171.21 44.6451 172.118 45.3911 173.279 47.6421ZM171.162 51.3441C178.295 48.9891 181.014 51.2461 179.823 55.2641C178.632 59.2861 177.459 60.1721 178.187 62.3931C175.667 59.8021 179.252 54.7051 177.008 53.1761C174.771 51.6461 173.67 51.2341 171.162 51.3441Z" fill="#D9D9D9" stroke="#595959" stroke-width="0.307" stroke-linecap="round"/>
<path d="M31.3469 25.8587C33.8369 25.8587 34.5049 25.6827 35.6599 24.8887C36.4239 24.4507 36.5199 24.3597 36.8089 24.3597C37.0979 24.3597 37.3859 24.6267 37.3859 24.9797C37.3859 25.5067 36.8089 26.3017 35.8529 27.1877C34.4149 28.5107 33.4589 28.8627 30.4869 28.9527L29.3379 29.0377L25.2179 42.6357C21.4829 54.6437 18.5119 60.9057 14.3009 65.4087C10.9509 69.0307 5.87388 71.7617 2.71688 71.7617C1.56688 71.7617 0.796875 71.1417 0.796875 70.3477C0.796875 69.2007 1.08687 69.0247 5.58587 68.3207C11.9069 67.1737 14.0129 63.7277 19.9489 45.2807L25.0259 29.2137C21.5789 29.2987 20.3339 29.6507 18.6139 30.9797C18.4219 31.0707 18.2289 31.1557 18.0359 31.1557C17.7479 31.1557 17.4589 30.8957 17.4589 30.6277C17.4589 30.0997 18.5119 28.6017 19.4679 27.7157C21.0019 26.3017 21.5729 26.1257 25.9819 25.9497L27.6119 20.8287C31.2519 9.08169 38.3419 1.84869 46.1919 1.84869C48.6819 1.84869 49.9269 2.37669 49.9269 3.43869C49.9269 4.14169 49.2599 4.67569 48.3929 4.67569C48.1049 4.67569 47.7259 4.67569 47.2449 4.58569C45.7769 4.28969 44.7549 4.14169 44.1769 4.14169C39.0099 4.14169 35.4619 8.72969 32.1109 20.0337L30.2889 25.8587H31.3469ZM46.6739 30.3607C46.6739 31.9507 46.7699 32.0357 51.4609 36.8957C55.1009 40.6037 55.7679 41.9257 55.7679 44.7537C55.7679 50.9307 49.1579 56.4037 41.6869 56.4037C35.9429 56.4037 31.7269 53.3157 31.7269 49.0797C31.7269 46.6097 34.0239 43.0797 35.5569 43.0797C35.9429 43.0797 36.3219 43.4307 36.3219 43.6977C36.3219 43.9647 36.2259 44.2317 36.0329 44.7597C35.3589 45.9067 35.1729 46.7927 35.1729 48.0247C35.1729 51.7317 38.5289 54.6447 42.9329 54.6447C47.6229 54.6447 51.9359 51.0277 51.9359 47.1387C51.9359 44.7537 51.0759 43.2547 48.0089 40.1667C43.9849 36.1917 42.7389 34.2507 42.7389 31.9567C42.7389 28.6017 45.8009 25.8647 49.6389 25.8647C51.0759 25.8647 51.8399 26.0407 53.8489 26.9267C54.1379 27.0167 54.3299 27.1027 54.5229 27.1027C54.7149 27.1027 54.9079 27.0117 55.1899 26.6597C55.5749 26.3077 55.7679 26.1317 56.1469 26.1317C57.1989 26.1317 57.9689 28.5167 57.9689 31.6047C57.9689 33.7227 57.5839 34.6087 56.7239 34.6087C56.0569 34.6087 55.7679 34.2567 55.5749 33.2857C54.7149 29.4867 52.7959 27.4607 49.9269 27.4607C48.1109 27.4607 46.6729 28.6927 46.6729 30.3727L46.6739 30.3607ZM72.2359 31.0647C76.2599 27.9767 80.6629 26.0347 83.6349 26.0347C87.7549 26.0347 90.3349 28.5047 90.3349 32.4787C90.3349 42.8057 76.8319 56.2287 66.3959 56.2287C63.0459 56.2287 60.5559 54.1107 60.5559 51.1977C60.5559 49.5227 60.8439 48.3757 62.9499 43.2547L76.6439 9.17969C76.8369 8.82769 77.0289 8.29969 77.2159 7.85669C77.5039 7.06169 77.6009 6.80069 77.6009 6.53369C77.6009 6.18169 77.3119 6.00569 76.9329 6.00569C76.5539 6.00569 76.1629 6.09069 75.3989 6.53369C73.9619 7.15369 73.5829 7.32869 73.1979 7.32869C72.8129 7.32869 72.6199 7.06169 72.6199 6.70969C72.6199 5.91469 74.3469 4.76769 78.1719 3.09369C80.3739 2.12269 81.5219 1.67969 82.1959 1.67969C82.8699 1.67969 83.2489 2.03169 83.2489 2.82669C83.2489 3.17869 83.1519 3.62169 82.8639 4.32469C82.5749 4.85269 82.3819 5.38069 82.1899 5.82469L72.2299 31.0717L72.2349 31.0657L72.2359 31.0647ZM70.7989 35.4757C68.7889 38.3887 65.0549 47.9207 65.0549 50.4817C65.0549 52.4237 66.5889 53.7457 68.7899 53.7457C75.4899 53.7457 85.0719 42.7157 85.0719 34.7657C85.0719 31.4107 83.2499 29.3837 80.1879 29.3837C77.3129 29.3837 73.4819 31.9437 70.8049 35.4757H70.7989Z" fill="#22653C" stroke="#22653C" stroke-width="1.594"/>
<path d="M120.61 6.7275V10.5015C120.61 11.1695 120.706 11.5945 120.893 11.7815C121.079 11.9645 121.518 12.0615 122.204 12.0615H122.324V12.5345H117.645V12.0615H117.783C118.312 12.0615 118.661 11.9645 118.83 11.7645C118.992 11.5645 119.076 11.1445 119.076 10.5085V2.5895C119.076 1.9395 118.998 1.5155 118.836 1.3275C118.673 1.1335 118.324 1.0365 117.789 1.0365H117.651V0.5625H125.47L125.717 2.7595H125.133L125.109 2.5955C125.013 1.9285 124.82 1.5155 124.532 1.3705C124.243 1.2245 123.491 1.1455 122.27 1.1455H120.622V6.2305H122.444C123.238 6.2305 123.744 6.1575 123.972 6.0175C124.195 5.8775 124.309 5.5575 124.309 5.0535V4.9195H124.892V8.0265H124.309V7.9105C124.309 7.4605 124.213 7.1335 124.026 6.9395C123.882 6.7935 123.359 6.7145 122.45 6.7145H120.628L120.61 6.7265V6.7275ZM128.989 9.6285L128.441 10.9995C128.279 11.3875 128.201 11.6365 128.201 11.7395C128.201 11.9825 128.399 12.1225 128.808 12.1585L128.904 12.1705V12.5285H126.667V12.1705H126.763C126.873 12.1729 126.982 12.1513 127.083 12.1073C127.183 12.0632 127.274 11.9978 127.347 11.9155C127.497 11.7455 127.671 11.4245 127.858 10.9575L131.052 3.0685H131.431L134.775 10.9575C134.985 11.4485 135.148 11.7765 135.268 11.9335C135.388 12.0915 135.539 12.1705 135.707 12.1705H135.785V12.5285H133.097V12.1705H133.199C133.44 12.1705 133.596 12.1465 133.68 12.0975C133.764 12.0495 133.8 11.9575 133.8 11.8185C133.8 11.7035 133.704 11.4185 133.518 10.9575L132.952 9.6275H128.989V9.6285ZM129.151 9.1735H132.742L130.895 4.8405L129.151 9.1735ZM139.701 8.1475V10.9505C139.701 11.4485 139.767 11.7765 139.894 11.9275C140.02 12.0855 140.291 12.1645 140.7 12.1645H140.754V12.5225H137.428V12.1645H137.518C137.933 12.1645 138.203 12.0855 138.33 11.9345C138.456 11.7825 138.522 11.4545 138.522 10.9515V4.9075C138.522 4.4095 138.456 4.0825 138.33 3.9245C138.203 3.7725 137.933 3.6945 137.518 3.6945H137.428V3.3355H140.85C141.927 3.3355 142.691 3.4755 143.136 3.7555C143.581 4.0335 143.803 4.5135 143.803 5.1985C143.803 5.8355 143.629 6.3815 143.268 6.8305C142.913 7.2805 142.378 7.6315 141.656 7.8925C141.909 8.0505 142.113 8.2205 142.263 8.4025C142.414 8.5845 142.691 8.9915 143.094 9.6225L143.701 10.6295C144.092 11.2725 144.375 11.6915 144.555 11.8855C144.736 12.0795 144.928 12.1765 145.133 12.1765H145.205V12.5345H143.448L140.85 8.1545H139.701V8.1475ZM139.701 7.7895H141C141.472 7.65334 141.88 7.35162 142.149 6.9395C142.42 6.5275 142.558 6.0295 142.558 5.4355C142.558 4.8405 142.372 4.3855 141.999 4.1065C141.626 3.8275 141.024 3.6875 140.2 3.6875H139.707V7.7835L139.701 7.7895ZM148.663 4.8955V10.9515C148.663 11.4485 148.729 11.7765 148.856 11.9275C148.982 12.0855 149.259 12.1645 149.674 12.1645H149.752V12.5225H146.973V12.1645H147.057C147.472 12.1645 147.743 12.0855 147.875 11.9275C148.002 11.7705 148.068 11.4485 148.068 10.9515V4.9075C148.068 4.4095 148.002 4.0825 147.875 3.9245C147.749 3.7725 147.472 3.6945 147.057 3.6945H146.973V3.3355H149.096L152.507 9.9555L155.646 3.3355H157.824V3.6935H157.734C157.325 3.6935 157.06 3.7735 156.928 3.9245C156.801 4.0825 156.735 4.4045 156.735 4.9075V10.7265C156.735 11.3815 156.801 11.7825 156.928 11.9395C157.054 12.0915 157.325 12.1705 157.734 12.1705H157.824V12.5285H154.552V12.1705H154.624C155.045 12.1705 155.316 12.0915 155.448 11.9405C155.58 11.7885 155.646 11.4605 155.646 10.9575V4.2825L152.14 11.6245L148.669 4.8945L148.663 4.8955ZM162.16 8.0805L162.233 11.1935C162.239 11.5935 162.413 11.8735 162.75 12.0185C163.087 12.1705 163.67 12.2375 164.512 12.2135H164.759C165.126 12.2015 165.39 12.0975 165.565 11.9095C165.733 11.7215 165.854 11.3875 165.914 10.9085L165.932 10.7935L166.383 10.7815L166.251 12.7955C165.693 12.7647 165.136 12.7507 164.578 12.7535C164.187 12.7655 163.73 12.7535 163.207 12.7345C162.696 12.7165 162.383 12.7105 162.281 12.7165L160.001 12.7715V12.4135H160.097C160.488 12.4075 160.747 12.3165 160.879 12.1525C161.006 11.9885 161.066 11.6605 161.054 11.1755L160.915 5.1255C160.903 4.6155 160.837 4.2885 160.705 4.1425C160.579 3.9975 160.308 3.9245 159.899 3.9365H159.791L159.785 3.5785L165.805 3.4385L166.022 5.1385L165.571 5.1505L165.553 5.0285C165.469 4.5135 165.312 4.1985 165.084 4.0885C164.861 3.9785 164.278 3.9365 163.333 3.9545L162.064 3.9845L162.148 7.7165L163.52 7.6865C164.145 7.6745 164.548 7.6075 164.717 7.4985C164.891 7.3835 164.969 7.1345 164.963 6.7525V6.6485L165.415 6.6365L165.469 9.0095L165.018 9.0215V8.9305C165.006 8.5845 164.927 8.3415 164.783 8.1965C164.663 8.0805 164.248 8.0325 163.532 8.0505L162.16 8.0805ZM170.66 8.1715L170.726 10.9755C170.738 11.4725 170.81 11.7945 170.942 11.9525C171.075 12.1035 171.345 12.1765 171.754 12.1705H171.808L171.814 12.5285L168.488 12.6075V12.2495H168.566C168.981 12.2375 169.252 12.1585 169.372 12.0005C169.493 11.8425 169.553 11.5155 169.541 11.0115L169.402 4.9615C169.39 4.4645 169.318 4.1365 169.192 3.9855C169.06 3.8335 168.789 3.7605 168.374 3.7725H168.284L168.272 3.4145L171.688 3.3355C172.765 3.3115 173.535 3.4335 173.986 3.7005C174.437 3.9675 174.671 4.4465 174.683 5.1255C174.696 5.7635 174.533 6.3155 174.184 6.7705C173.835 7.2255 173.306 7.5955 172.602 7.8685C172.861 8.0205 173.065 8.1845 173.222 8.3605C173.378 8.5365 173.661 8.9365 174.076 9.5555L174.708 10.5445C175.111 11.1815 175.405 11.5945 175.592 11.7825C175.778 11.9765 175.971 12.0675 176.175 12.0615H176.247L176.253 12.4195L174.497 12.4615L171.802 8.1415L170.654 8.1655L170.66 8.1715ZM170.654 7.8135L171.947 7.7835C172.417 7.6381 172.818 7.3277 173.078 6.9095C173.342 6.4915 173.462 5.9875 173.45 5.3995C173.438 4.7925 173.24 4.3495 172.861 4.0825C172.482 3.8155 171.875 3.6875 171.051 3.7065L170.557 3.7185L170.654 7.8135ZM178.196 12.2915L178.016 10.2655L178.467 10.2535L178.485 10.3505C178.617 10.9695 178.876 11.4485 179.255 11.7765C179.634 12.1035 180.109 12.2615 180.686 12.2495C180.932 12.2479 181.175 12.1972 181.401 12.1004C181.628 12.0035 181.832 11.8625 182.004 11.6855C182.364 11.3215 182.539 10.8905 182.527 10.3925C182.515 9.7675 182.022 9.1365 181.059 8.4995L180.145 7.8925C179.255 7.3045 178.671 6.8495 178.395 6.5155C178.11 6.17524 177.957 5.7448 177.962 5.3015C177.943 4.5915 178.214 4.0155 178.774 3.5665C179.333 3.1175 180.079 2.8865 181.005 2.8625C181.763 2.84926 182.518 2.96629 183.237 3.2085L183.465 4.9315L183.014 4.9435L182.984 4.8465C182.647 3.7425 181.919 3.2025 180.801 3.2325C180.301 3.2445 179.886 3.4085 179.568 3.7185C179.411 3.86811 179.289 4.04956 179.209 4.25056C179.129 4.45155 179.093 4.66741 179.104 4.8835C179.116 5.4715 179.537 6.0425 180.361 6.5825L181.679 7.4495C182.503 7.9955 183.044 8.4325 183.309 8.7545C183.567 9.0825 183.706 9.4945 183.718 9.9925C183.736 10.7625 183.459 11.3875 182.882 11.8555C182.304 12.3285 181.528 12.5715 180.542 12.5955C179.749 12.6166 178.959 12.5079 178.202 12.2735L178.196 12.2915ZM130.757 28.4205L130.589 25.7865H131.178L131.202 25.9145C131.352 26.7215 131.671 27.3465 132.152 27.7885C132.634 28.2255 133.241 28.4445 133.981 28.4445C134.649 28.4445 135.22 28.2145 135.701 27.7525C135.93 27.5416 136.113 27.2845 136.236 26.998C136.36 26.7116 136.421 26.4023 136.417 26.0905C136.417 25.2705 135.803 24.4405 134.57 23.5845L133.404 22.7645C132.267 21.9765 131.527 21.3575 131.172 20.9205C130.817 20.4835 130.643 19.9495 130.643 19.3305C130.643 18.4085 131.01 17.6615 131.749 17.0975C132.489 16.5335 133.458 16.2475 134.661 16.2475C135.605 16.2475 136.561 16.4175 137.542 16.7575L137.788 18.9975H137.199L137.163 18.8755C136.76 17.4435 135.834 16.7215 134.384 16.7215C133.734 16.7215 133.199 16.9215 132.772 17.3165C132.345 17.7105 132.134 18.2145 132.134 18.8205C132.134 19.5855 132.658 20.3375 133.71 21.0725L135.394 22.2425C136.447 22.9775 137.139 23.5595 137.47 23.9965C137.794 24.4275 137.963 24.9735 137.963 25.6225C137.963 26.6305 137.584 27.4305 136.826 28.0255C136.068 28.6205 135.052 28.9175 133.776 28.9175C132.751 28.9242 131.732 28.7582 130.763 28.4265L130.757 28.4205ZM143.701 19.8105H142.775C142.077 19.8105 141.596 19.9075 141.331 20.0955C141.066 20.2835 140.892 20.6535 140.808 21.2115L140.79 21.3325H140.303L140.525 19.1905C141.542 19.3065 142.6 19.3605 143.701 19.3605H144.928C146.029 19.3605 147.087 19.3065 148.104 19.1905L148.326 21.3325H147.875L147.851 21.2125C147.767 20.6595 147.593 20.2895 147.322 20.0955C147.051 19.9075 146.564 19.8095 145.86 19.8095H144.922V26.9755C144.922 27.4795 144.994 27.8075 145.151 27.9585C145.301 28.1105 145.626 28.1895 146.113 28.1895H146.203V28.5475H142.426V28.1895H142.516C143.009 28.1895 143.334 28.1105 143.484 27.9595C143.635 27.8075 143.707 27.4795 143.707 26.9755V19.8105H143.701ZM151.478 25.6475L150.931 27.0175C150.768 27.4075 150.69 27.6555 150.69 27.7585C150.69 28.0015 150.895 28.1405 151.298 28.1775L151.394 28.1895V28.5475H149.156V28.1895H149.253C149.362 28.1919 149.471 28.1703 149.572 28.1262C149.673 28.0822 149.763 28.0168 149.836 27.9345C149.987 27.7645 150.161 27.4435 150.347 26.9755L153.541 19.0875H153.92L157.264 26.9755C157.469 27.4675 157.637 27.7955 157.758 27.9525C157.806 28.0244 157.872 28.0835 157.948 28.1247C158.024 28.166 158.11 28.1882 158.197 28.1895H158.275V28.5475H155.586V28.1895H155.689C155.929 28.1895 156.086 28.1655 156.17 28.1165C156.254 28.0685 156.296 27.9765 156.296 27.8375C156.296 27.7225 156.2 27.4375 156.013 26.9755L155.448 25.6475H151.478ZM151.653 25.1925H155.243L153.397 20.8595L151.653 25.1925ZM162.798 19.8105H161.872C161.174 19.8105 160.693 19.9075 160.428 20.0955C160.164 20.2835 159.989 20.6535 159.905 21.2115L159.887 21.3325H159.4L159.622 19.1905C160.676 19.3072 161.737 19.3639 162.798 19.3605H164.025C165.126 19.3605 166.185 19.3065 167.201 19.1905L167.424 21.3325H166.973L166.949 21.2125C166.864 20.6595 166.69 20.2895 166.419 20.0955C166.149 19.9005 165.661 19.8095 164.958 19.8095H164.019V26.9755C164.019 27.4795 164.091 27.8075 164.248 27.9585C164.398 28.1105 164.723 28.1895 165.21 28.1895H165.3V28.5475H161.523V28.1895H161.613C162.107 28.1895 162.431 28.1105 162.582 27.9595C162.732 27.8075 162.804 27.4795 162.804 26.9755V19.8105H162.798ZM171.574 23.9055V27.0185C171.574 27.4185 171.742 27.6985 172.073 27.8555C172.404 28.0135 172.987 28.0925 173.829 28.0925H174.076C174.443 28.0925 174.714 28.0015 174.888 27.8125C175.063 27.6255 175.189 27.2975 175.261 26.8245L175.279 26.7085H175.73L175.55 28.7175C174.993 28.6725 174.436 28.6461 173.878 28.6385C173.487 28.6385 173.035 28.6205 172.506 28.5895C172.197 28.5691 171.888 28.5551 171.58 28.5475H169.3V28.1895H169.409C169.799 28.1895 170.058 28.1105 170.19 27.9465C170.323 27.7825 170.389 27.4615 170.389 26.9765V20.9265C170.389 20.4165 170.329 20.0895 170.202 19.9365C170.076 19.7865 169.812 19.7125 169.403 19.7125H169.294V19.3545H175.321L175.502 21.0595H175.05L175.032 20.9325C174.96 20.4105 174.81 20.0955 174.587 19.9795C174.365 19.8645 173.781 19.8035 172.843 19.8035H171.574V23.5415H172.945C173.571 23.5415 173.974 23.4865 174.148 23.3775C174.323 23.2685 174.413 23.0195 174.413 22.6375V22.5345H174.864V24.9065H174.413V24.8165C174.413 24.4705 174.341 24.2265 174.196 24.0765C174.076 23.9605 173.661 23.8995 172.951 23.8995H171.58L171.574 23.9055ZM119.852 39.5005C122.306 40.1425 124.231 41.2405 125.632 42.7945C127.028 44.3475 127.731 46.1685 127.731 48.2555C127.731 50.8405 126.823 52.8855 125.001 54.3955C123.178 55.9005 120.712 56.6535 117.596 56.6535H105.477V55.4095H105.873C107.227 55.4095 108.123 55.1485 108.544 54.6325C108.971 54.1175 109.182 53.0245 109.182 51.3565V30.7745C109.182 29.0995 108.965 28.0015 108.544 27.4915C108.117 26.9815 107.227 26.7215 105.873 26.7215H105.477V25.4715H116.297C118.914 25.4715 120.724 25.5495 121.717 25.7135C122.709 25.8715 123.599 26.2235 124.387 26.7575C125.891 27.8015 126.649 29.2875 126.649 31.2175C126.649 33.0135 126.083 34.6035 124.953 35.9805C123.822 37.3575 122.126 38.5355 119.852 39.4935V39.5005ZM113.206 26.7275V39.2025H116.905C118.192 39.2025 119.551 38.4375 120.989 36.9085C122.186 35.6345 122.781 34.0635 122.781 32.2005C122.781 30.3375 122.168 29.0085 120.941 28.0985C119.714 27.1885 117.867 26.7335 115.395 26.7335H113.2L113.206 26.7275ZM113.206 40.4465V51.3385C113.206 54.0565 114.95 55.4095 118.439 55.4095C120.044 55.4095 121.374 54.8265 122.432 53.6745C123.491 52.5145 124.02 51.0585 124.02 49.3045C124.02 46.7995 123.04 44.6995 121.091 42.9945C119.136 41.2955 116.736 40.4405 113.897 40.4405H113.206V40.4465ZM135.01 49.2145L133.602 52.7345C133.187 53.7285 132.983 54.3595 132.983 54.6265C132.983 55.2465 133.5 55.6035 134.54 55.6945L134.781 55.7245V56.6595H129.031V55.7255H129.271C129.873 55.7255 130.372 55.5065 130.763 55.0755C131.154 54.6455 131.593 53.8255 132.074 52.6245L140.327 32.3345H141.271L149.848 52.6185C150.384 53.8805 150.805 54.7115 151.117 55.1185C151.43 55.5185 151.809 55.7185 152.248 55.7185H152.447V56.6535H145.536V55.7185H145.794C146.408 55.7185 146.823 55.6585 147.033 55.5365C147.244 55.4155 147.352 55.1725 147.352 54.8205C147.352 54.5235 147.111 53.7955 146.624 52.6245L145.175 49.2145H135.01ZM135.443 48.0495H144.633L139.942 36.9095L135.443 48.0495ZM158.552 38.3895V52.6425C158.552 53.9165 158.714 54.7425 159.039 55.1365C159.364 55.5245 160.049 55.7245 161.102 55.7245H161.373V56.6595H154.071V55.7255H154.251C155.292 55.7255 155.977 55.5305 156.296 55.1355C156.615 54.7485 156.771 53.9165 156.771 52.6425V36.4115L156.308 35.7685C155.43 34.5725 154.624 33.9725 153.878 33.9725H153.608V33.0375H158.107L171.953 50.3675V37.0475C171.953 35.7805 171.79 34.9555 171.46 34.5605C171.135 34.1665 170.437 33.9725 169.378 33.9725H169.138V33.0375H176.404V33.9725H176.133C175.093 33.9725 174.407 34.1665 174.076 34.5605C173.745 34.9555 173.583 35.7865 173.583 37.0485L173.565 57.3575L158.552 38.3835V38.3895ZM184.313 44.7545V52.6485C184.313 53.9105 184.476 54.7355 184.807 55.1365C185.137 55.5305 185.829 55.7305 186.894 55.7305H187.134V56.6655H178.443V55.7315H178.732C179.772 55.7315 180.458 55.5315 180.777 55.1365C181.101 54.7415 181.264 53.9105 181.264 52.6485V37.0605C181.264 35.7925 181.101 34.9675 180.777 34.5725C180.452 34.1785 179.772 33.9845 178.732 33.9845H178.443V33.0495H187.134V33.9845H186.894C185.835 33.9845 185.137 34.1785 184.807 34.5725C184.482 34.9675 184.313 35.7985 184.313 37.0605V44.2505L191.315 37.0305C192.512 35.8105 193.113 35.0405 193.113 34.7125C193.113 34.2265 192.674 33.9785 191.802 33.9785H191.591V33.0435H197.805V33.9785H197.546C196.517 33.9785 195.02 34.9915 193.059 37.0245L186.894 43.3705L195.477 52.6665C196.572 53.8505 197.42 54.6515 198.021 55.0815C198.623 55.5065 199.2 55.7245 199.765 55.7245H200.006V56.6595H195.248L184.319 44.7545H184.313Z" fill="#22653C" stroke="#22653C" stroke-width="0.2"/>
</g>
</svg>
