<svg xmlns="http://www.w3.org/2000/svg" viewBox="0 0 462.9 97.2"><path d="M113.3 18.5c0 0 25.3-16.3 58.8-4.3 22.8 8.1 29 26.9 29 26.9h-35c0 0-4.6-14.7-17.8-20.4C132.6 13.9 113.3 18.5 113.3 18.5L113.3 18.5z" fill="#003D79"/><polygon points="19 76.9 57.1 56.7 45.6 32.5 97.7 15.9 92.9 7 121.7 7.3 119.8 3.7 122.2 3.2 125 8.2 119 9.2 96.7 9.2 100.6 16.6 48.5 34.1 60 56.9 17.3 80.2 19 76.9 " fill="#003D79"/><polygon points="49.4 80.2 27.1 54.3 72.5 34.1 68.2 15.4 101.5 15.2 102 17.3 71.3 17.3 75.4 35.1 30.2 55.3 50.4 78.3 49.4 80.2 " fill="#003D79"/><polygon points="26.4 54.3 62.2 54.1 61.7 56.5 25.9 56.5 26.4 54.3 " fill="#003D79"/><polygon points="41 32.9 76.8 32.7 76.3 35.1 40.6 35.1 41 32.9 " fill="#003D79"/><polygon points="67 15.4 102.7 15.2 102.2 17.6 66.5 17.6 67 15.4 " fill="#003D79"/><polygon points="89.5 7.3 122.9 7 125 8.9 89 9.4 89.5 7.3 " fill="#003D79"/><path d="M0 81.2c0 0 19.8-51.7 74.4-71 66.8-23.6 100.3 1.4 100.3 1.4s-43.6-19.5-94.8 3.4C35.6 34.7 17.5 81.2 17.5 81.2" fill="#A39161"/><path d="M49 80.7c0 0 7.9-42.7 43.4-62.2 42.8-23.4 80.2-7.2 80.2-7.2S132.3-1 103.4 20C73.2 42 71 80.7 71 80.7H49L49 80.7z" fill="#A39161"/><path d="M100.1 66.9v1.3c0 4 1.1 6.6 5.7 6.6 2.6 0 5.2-1.7 5.2-5.3 0-3.9-2-5.3-7.7-7.3 -7.7-2.6-11.2-5.8-11.2-13 0-8.3 5.1-12.6 13.3-12.6 7.7 0 13.3 3.3 13.3 11.5v1.2h-8.3c0-4-1.4-6.4-4.7-6.4 -3.9 0-4.9 2.5-4.9 5 0 2.6 0.8 4.3 4.4 5.8l6.7 2.9c6.5 2.8 8.2 6.1 8.2 11.3 0 9.1-5.5 13.1-14.9 13.1 -9.8 0-13.6-4.6-13.6-12.5v-1.7H100.1L100.1 66.9z" fill="#A39161"/><path d="M122.8 37.4h8.3v13.9h0.1c1.6-2.8 4.4-4.1 7.9-4.1 5.2 0 8.2 2.8 8.2 9.2v23.9H139V58c0-3.2-1.1-4.5-3.5-4.5 -2.8 0-4.4 1.7-4.4 5.3v21.4h-8.3V37.4L122.8 37.4z" fill="#A39161"/><path d="M166.7 64.1c-1.1 0.8-2.5 1.4-3.5 1.6 -3.4 0.7-4.7 2.3-4.7 5.2 0 2.5 0.9 4.5 3.1 4.5 2.2 0 5.1-1.4 5.1-5V64.1L166.7 64.1zM151.5 57.9v-0.8c0-7.4 5.1-10 11.3-10 9.8 0 11.7 4.1 11.7 9.9v17c0 3 0.2 4.4 1 6.2h-7.9c-0.5-1-0.8-2.3-1-3.4h-0.1c-1.9 3.4-4.3 4.2-8.2 4.2 -5.8 0-7.8-4.9-7.8-9.2 0-6.1 2.5-8.5 8.2-10.1l4.7-1.3c2.5-0.7 3.3-1.6 3.3-3.8 0-2.5-1.1-4-3.8-4 -2.5 0-3.8 1.7-3.8 4.2v0.9H151.5L151.5 57.9z" fill="#A39161"/><path d="M179.2 48h7.9v4.3h0.1c1.7-3.1 4-5.2 7.4-5.2 0.5 0 1 0.1 1.5 0.1v7.9c-0.8-0.1-1.7-0.1-2.6-0.1 -2.9 0-6.1 1.5-6.1 5.8v19.4h-8.3V48L179.2 48z" fill="#A39161"/><path d="M213.6 60.4c-0.2-4.9-0.8-7.7-4.2-7.7 -3.3 0-4.3 3.4-4.3 6.4v1.3H213.6L213.6 60.4zM205.1 65.4v2.6c0 3.8 1 7.5 4.1 7.5 2.8 0 3.9-2.1 4.4-6.1h7.4c-0.3 7.5-3.9 11.7-11.7 11.7 -12 0-12.5-9.2-12.5-17.3 0-8.6 1.7-16.7 12.8-16.7 9.7 0 11.8 6.5 11.8 16.4v1.9H205.1L205.1 65.4z" fill="#A39161"/><path d="M234.3 64.1h8.4l-4.1-19.3h-0.1L234.3 64.1 234.3 64.1zM233.2 37.4h10.7l11.3 42.8h-9l-2-9.1h-11.4l-2 9.1h-9L233.2 37.4 233.2 37.4z" fill="#003D79"/><path d="M268.6 74.7c3.7 0 4.4-3.6 4.4-10.6 0-7-0.7-10.6-4.4-10.6 -3.6 0-4.3 3.6-4.3 10.6C264.2 71.1 265 74.7 268.6 74.7L268.6 74.7zM273.3 76.8h-0.1c-1.8 3-4.1 4.3-7.3 4.3 -6.8 0-9.9-5-9.9-17 0-12 3.1-17 9.9-17 3.1 0 5.2 1.3 7 3.8h0.1V37.4h8.3v42.8h-7.9V76.8L273.3 76.8z" fill="#003D79"/><polygon points="300.8 48 309.1 48 301 80.2 291.4 80.2 283.1 48 291.7 48 296.3 71.1 296.4 71.1 300.8 48 " fill="#003D79"/><path d="M325.1 64.1c-1.1 0.8-2.5 1.4-3.5 1.6 -3.4 0.7-4.7 2.3-4.7 5.2 0 2.5 0.9 4.5 3.1 4.5 2.2 0 5.1-1.4 5.1-5V64.1L325.1 64.1zM310 57.9v-0.8c0-7.4 5.1-10 11.3-10 9.8 0 11.7 4.1 11.7 9.9v17c0 3 0.2 4.4 1 6.2h-7.9c-0.5-1-0.8-2.3-1-3.4h-0.1c-1.9 3.4-4.3 4.2-8.2 4.2 -5.8 0-7.8-4.9-7.8-9.2 0-6.1 2.5-8.5 8.2-10.1l4.7-1.3c2.5-0.7 3.3-1.6 3.3-3.8 0-2.5-1.1-4-3.8-4 -2.5 0-3.8 1.7-3.8 4.2v0.9H310L310 57.9z" fill="#003D79"/><path d="M337.7 48h7.9v3.8h0.1c1.7-3.2 4.7-4.6 8.2-4.6 5.2 0 8.2 2.8 8.2 9.2v23.9h-8.3V58c0-3.2-1.1-4.5-3.5-4.5 -2.8 0-4.4 1.7-4.4 5.3v21.4h-8.3V48L337.7 48z" fill="#003D79"/><path d="M368.3 38.7h8.3V48h4.8v5.6h-4.8v17.5c0 2.5 0.5 3.5 2.9 3.5 0.7 0 1.3-0.1 1.9-0.1v5.8c-1.8 0.2-3.5 0.4-5.4 0.4 -6.5 0-7.7-2-7.7-8.5V53.6h-4.2V48h4.2V38.7L368.3 38.7z" fill="#003D79"/><path d="M398.1 64.1c-1.1 0.8-2.5 1.4-3.5 1.6 -3.4 0.7-4.7 2.3-4.7 5.2 0 2.5 0.9 4.5 3.1 4.5 2.2 0 5.1-1.4 5.1-5V64.1L398.1 64.1zM382.9 57.9v-0.8c0-7.4 5.1-10 11.3-10 9.8 0 11.7 4.1 11.7 9.9v17c0 3 0.2 4.4 1 6.2h-7.9c-0.5-1-0.8-2.3-1-3.4h-0.1c-1.9 3.4-4.3 4.2-8.2 4.2 -5.8 0-7.8-4.9-7.8-9.2 0-6.1 2.5-8.5 8.2-10.1l4.7-1.3c2.5-0.7 3.3-1.6 3.3-3.8 0-2.5-1.1-4-3.8-4 -2.5 0-3.8 1.7-3.8 4.2v0.9H382.9L382.9 57.9z" fill="#003D79"/><path d="M422.4 73.5c3.5 0 4.5-3.8 4.5-9.2 0-7.9-1-10.8-4.3-10.8 -3.7 0-4.3 2.9-4.3 11.6C418.3 69.6 418.9 73.5 422.4 73.5L422.4 73.5zM434.8 48v30.7c0 8.5-3.8 12.7-13.4 12.7 -7 0-11-3.1-11-8.6h7.9c0 1.1 0.5 1.9 1.3 2.5 0.8 0.5 1.7 0.9 2.8 0.9 3.4 0 4.6-2.5 4.6-5.8v-4.3h-0.1c-1.7 2.4-4.3 4-6.9 4 -6.6 0-9.9-4.5-9.9-16.3 0-7.6 1.1-16.4 10.1-16.4 2.3 0 5.1 1.1 6.7 4.4h0.1V48H434.8L434.8 48z" fill="#003D79"/><path d="M455 60.4c-0.2-4.9-0.8-7.7-4.2-7.7 -3.3 0-4.3 3.4-4.3 6.4v1.3H455L455 60.4zM446.5 65.4v2.6c0 3.8 1 7.5 4.1 7.5 2.8 0 3.9-2.1 4.4-6.1h7.4c-0.3 7.5-3.9 11.7-11.7 11.7 -12 0-12.5-9.2-12.5-17.3 0-8.6 1.7-16.7 12.8-16.7 9.7 0 11.8 6.5 11.8 16.4v1.9H446.5L446.5 65.4z" fill="#003D79"/><path d="M276.5 85.2l-0.7 2.1c-0.8-0.2-1.7-0.3-2.5-0.3 -1.6 0-2.8 0.4-3.7 1.3 -0.9 0.9-1.3 2-1.3 3.2 0 1 0.4 1.9 1.1 2.6 0.8 0.7 1.8 1.1 3.3 1.1 0.9 0 1.9-0.1 3.1-0.4l-0.5 2.1c-1.2 0.2-2.3 0.3-3.2 0.3 -2.4 0-4.1-0.5-5.3-1.6 -1.2-1-1.8-2.3-1.8-3.8 0-1.9 0.8-3.5 2.5-4.8 1.7-1.3 3.8-2 6.3-2C274.8 85 275.7 85.1 276.5 85.2L276.5 85.2z" fill="#A39161"/><path d="M285.9 88.3c0-1-0.9-1.5-2.6-1.5 -0.7 0-1.3 0-1.8 0.1 0 0.5-0.2 1.7-0.4 3.6 0.4 0 0.7 0 1 0C284.6 90.6 285.9 89.8 285.9 88.3L285.9 88.3zM289 96.9h-3.3c-0.6-2.1-1.1-3.4-1.5-3.9 -0.5-0.5-1.2-0.8-2.2-0.8 -0.3 0-0.7 0-1.2 0 -0.2 1.7-0.4 3.2-0.4 4.7h-3.2c0.2-0.8 0.5-2.9 1-6.1 0.3-2.2 0.5-4.1 0.5-5.6h2c0.2 0 0.7 0 1.4 0 0.7 0 1.4 0 2 0 1.4 0 2.5 0.2 3.4 0.7 0.9 0.5 1.3 1.1 1.3 2 0 0.8-0.3 1.4-0.9 2 -0.6 0.6-1.4 1-2.4 1.2l0 0.1c0.7 0.2 1.3 0.7 1.8 1.5C287.8 93.5 288.4 94.9 289 96.9L289 96.9z" fill="#A39161"/><path d="M301.3 85.1l-0.4 2c-2.2-0.1-4.2-0.1-6-0.1 -0.1 0.6-0.2 1.6-0.3 3 1.5 0 3.2 0 5-0.1l-0.3 1.9c-1.7-0.1-3.4-0.1-4.9-0.1 -0.2 1.2-0.3 2.4-0.4 3.4 2 0 4.2-0.1 6.5-0.2l-0.4 2h-9.4c0.2-0.8 0.5-2.9 1-6.1 0.3-2.2 0.5-4.1 0.5-5.6H301.3L301.3 85.1z" fill="#A39161"/><path d="M312.3 90.4c0-1-0.4-1.9-1.1-2.5 -0.7-0.7-1.9-1-3.3-1 -0.4 0-0.8 0-1.4 0.1 0 0.6-0.2 1.8-0.4 3.8 -0.2 1.4-0.4 2.9-0.5 4.3 0.5 0.1 1 0.1 1.5 0.1 1.6 0 2.9-0.5 3.9-1.4C311.9 92.8 312.3 91.7 312.3 90.4L312.3 90.4zM315.4 90.1c0 1.9-0.8 3.5-2.4 4.9 -1.6 1.3-3.6 2-6.1 2 -1.2 0-2.7 0-4.6-0.1 0.2-0.8 0.5-2.9 1-6.1 0.3-2.2 0.5-4.1 0.5-5.6h2.1c0.3 0 0.8 0 1.4 0 0.6 0 1.1 0 1.5 0 2.2 0 3.9 0.5 5 1.4C314.8 87.5 315.4 88.7 315.4 90.1L315.4 90.1z" fill="#A39161"/><path d="M321.3 85.1c-0.1 0.7-0.4 2.5-0.9 5.6 -0.3 2.1-0.5 4.1-0.6 6.1h-3.3c0.2-0.8 0.5-2.9 1-6.1 0.3-2.2 0.5-4.1 0.5-5.6H321.3L321.3 85.1z" fill="#A39161"/><path d="M334.6 85.1l-0.3 1.9c-1.5-0.1-2.9-0.1-4.2-0.1 -0.1 0.5-0.3 1.8-0.5 3.8 -0.3 2.3-0.5 4.4-0.6 6.1h-3.2c0.2-0.9 0.5-2.9 1-6.1 0.2-1.4 0.3-2.6 0.5-3.8 -1 0-2.5 0-4.3 0.1l0.4-1.9H334.6L334.6 85.1z" fill="#A39161"/><path d="M352.7 85.1c-0.1 0.8-0.4 2.9-0.9 6.1 -0.5 4-2.8 6-6.9 6 -1.7 0-3-0.3-4-1 -0.9-0.6-1.4-1.9-1.4-3.6 0-0.4 0-0.8 0.1-1.3 0.3-1.9 0.5-3.9 0.6-6.1h3.3c-0.2 0.9-0.5 2.9-0.9 5.9 -0.1 0.5-0.1 1-0.1 1.5 0 1.1 0.2 1.8 0.7 2.2 0.4 0.4 1.1 0.6 2 0.6 1.1 0 1.9-0.3 2.5-0.9s1-1.7 1.3-3.5c0.3-2 0.4-3.9 0.5-5.9H352.7L352.7 85.1z" fill="#A39161"/><path d="M367.5 85.1c-0.1 0.7-0.4 2.5-0.9 5.6 -0.3 2.3-0.5 4.3-0.7 6.1h-2.7c0-0.3-0.9-1.7-2.6-4.1 -1.8-2.6-2.8-4.3-3-5.1h-0.2c0.1 0.5 0.1 0.9 0.1 1.4 0 0.7-0.1 1.6-0.2 2.6 -0.2 1.5-0.4 3.3-0.5 5.3H354c0.2-0.8 0.5-2.9 1-6.1 0.3-2.2 0.5-4.1 0.5-5.6h3.4c0 0.4 0.8 1.8 2.4 4.1 1.7 2.5 2.6 4.1 2.8 4.8h0.2c-0.1-0.3-0.1-0.7-0.1-1.1 0-0.8 0.1-1.8 0.2-2.9 0.2-1.7 0.4-3.4 0.4-4.9H367.5L367.5 85.1z" fill="#A39161"/><path d="M373.8 85.1c-0.1 0.7-0.4 2.5-0.9 5.6 -0.3 2.1-0.5 4.1-0.6 6.1H369c0.2-0.8 0.5-2.9 1-6.1 0.3-2.2 0.5-4.1 0.5-5.6H373.8L373.8 85.1z" fill="#A39161"/><path d="M386.1 90.4c0-1.1-0.3-1.9-1-2.6 -0.7-0.6-1.5-1-2.6-1 -1.4 0-2.4 0.5-3.3 1.5 -0.8 1-1.2 2.1-1.2 3.3 0 1.1 0.3 1.9 1 2.6 0.7 0.6 1.5 1 2.6 1 1.3 0 2.4-0.5 3.3-1.5C385.7 92.7 386.1 91.6 386.1 90.4L386.1 90.4zM389.2 90.2c0 1.9-0.8 3.5-2.3 4.9 -1.5 1.4-3.5 2.1-5.8 2.1 -1.8 0-3.2-0.5-4.4-1.5 -1.2-1-1.7-2.3-1.7-3.8 0-1.9 0.8-3.5 2.3-4.9 1.6-1.4 3.5-2.1 5.8-2.1 1.8 0 3.2 0.5 4.4 1.5C388.6 87.4 389.2 88.7 389.2 90.2L389.2 90.2z" fill="#A39161"/><path d="M403.9 85.1c-0.1 0.7-0.4 2.5-0.9 5.6 -0.3 2.3-0.5 4.3-0.7 6.1h-2.7c0-0.3-0.9-1.7-2.6-4.1 -1.8-2.6-2.8-4.3-3-5.1h-0.2c0.1 0.5 0.1 0.9 0.1 1.4 0 0.7-0.1 1.6-0.2 2.6 -0.2 1.5-0.4 3.3-0.5 5.3h-2.7c0.2-0.8 0.5-2.9 1-6.1 0.3-2.2 0.5-4.1 0.5-5.6h3.4c0 0.4 0.8 1.8 2.4 4.1 1.7 2.5 2.6 4.1 2.8 4.8h0.2c-0.1-0.3-0.1-0.7-0.1-1.1 0-0.8 0.1-1.8 0.2-2.9 0.2-1.7 0.4-3.4 0.4-4.9H403.9L403.9 85.1z" fill="#A39161"/></svg>