<?xml version="1.0" encoding="utf-8"?>
<!-- Generator: Adobe Illustrator 25.2.3, SVG Export Plug-In . SVG Version: 6.00 Build 0)  -->
<svg version="1.1" xmlns="http://www.w3.org/2000/svg" xmlns:xlink="http://www.w3.org/1999/xlink" x="0px" y="0px"
	 viewBox="0 0 338.3 56.1" style="enable-background:new 0 0 338.3 56.1;" xml:space="preserve">
<style type="text/css">
	.st0{fill:#004C97;}
	.st1{fill:#231F20;}
</style>
<g id="Layer_1">
</g>
<g id="Layer_2">
	<g>
		<path class="st0" d="M85.1,50.1c21.9-13.3,74-18,88.2-18.7c20.2-1.1,40.2,0.6,55,2.6c14.8,2,24.6,4.2,24.6,4.2l-0.2,0.9
			c0,0-9.5-1.3-23.8-1.5c-14.3-0.3-33.4,0.4-52.4,4.3c-4.1,0.8-29.9,5.8-39.8,14.2L85.1,50.1z"/>
	</g>
	<g>
		<path class="st1" d="M186.6,20.6c-1.3,0-1.5,0-1.6,0c-0.1,0-0.2-0.1-0.2-0.2c0-0.3,0-0.3,0-0.8c0-0.1,0.1-0.2,0.2-0.2
			c0.2-0.1,0.4-0.1,0.6-0.1c0.8,0,1.3,0,1.4-0.1c0-0.1,0.2-0.7,0.2-3.5l0-3.8c0-4-0.1-4.3-0.4-4.6c-0.6-0.6-0.9-0.7-2.3-0.9
			c-0.1,0-0.2-0.1-0.2-0.2l-0.1-0.9c0-0.1,0-0.1,0.1-0.2c0-0.1,0.1-0.1,0.2-0.1h5c0.1,0,0.1,0,0.2,0.1c1.6,1.5,2.4,2.3,2.9,2.9
			c0.4,0.4,5.2,5.4,7.5,7.8c0-0.7-0.1-1.9-0.1-2.8c0-0.8-0.1-1.4-0.1-1.7c-0.1-1.3-0.2-4-0.3-4.3c0,0-0.2-0.2-1.1-0.4
			c-0.4-0.1-0.6-0.1-0.7-0.2l-0.1,0c-0.1,0-0.1-0.1-0.1-0.2l0-0.8c0-0.1,0-0.1,0.1-0.2c0,0,0.1-0.1,0.2-0.1h5.5
			c0.1,0,0.2,0.1,0.2,0.2l0,0.6c0,0.1,0,0.2-0.1,0.2c-0.2,0.1-1.2,0.4-1.3,0.4c0,0-0.5,0.3-0.6,0.4c0,0-0.1,0.1-0.1,0.3l0,1.5
			c0,0.3,0,0.9,0.1,1.6c0,0.8,0.1,1.6,0.1,1.8l0.1,4.1c0,0.2,0,0.7,0,1.3c0,0.6,0,1.2,0,1.4l0,1.4c0,0.1,0,0.1-0.1,0.2
			c0,0-0.1,0.1-0.2,0.1h-1.6c-0.1,0-0.1,0-0.2-0.1c0,0-0.8-0.7-1-1l0,0l-2.7-2.8c-1.5-1.5-2.6-2.7-3.3-3.4c-0.4-0.5-2.8-2.8-3.9-3.9
			l0.1,3.8c0,0.4,0,2.1,0,2.4c0,0.3,0.1,0.9,0.1,1.5c0,0.6,0.1,1.2,0.1,1.5c0,0.2,0,0.3,0.1,0.4c0.2,0.1,0.8,0.1,1.2,0.2
			c0.5,0.1,0.8,0.1,0.9,0.1c0.1,0,0.2,0.1,0.2,0.2l0,0.7c0,0.1,0,0.1-0.1,0.2c0,0.1-0.1,0.1-0.2,0.1l-0.6,0
			C188.7,20.6,187.5,20.6,186.6,20.6z"/>
		<path class="st1" d="M184.4,20.6h-7.4c-0.1,0-0.2-0.1-0.2-0.2c0-0.2,0-0.3,0-0.4c0-0.1,0-0.1,0-0.3c0-0.1,0.1-0.2,0.2-0.2
			c0.3-0.1,1.4-0.3,1.5-0.4c0.1,0,0.3-0.1,0.3-0.2c0-0.2,0-0.2-0.3-0.9c-0.5-1.1-0.6-1.5-0.8-2.1c-0.1-0.2-0.1-0.3-0.2-0.5h-4
			c-0.3,0.8-1.1,3-1.1,3.3c0,0.3,0,0.3,1.6,0.6l0.2,0c0.1,0,0.2,0.1,0.2,0.2c0,0.1,0,0.2,0,0.3c0,0.2,0,0.3,0,0.4
			c0,0.1-0.1,0.2-0.2,0.2h0l-5.6,0c-0.1,0-0.1,0-0.2-0.1c0-0.1-0.1-0.1-0.1-0.2l0-0.6c0-0.1,0.1-0.2,0.2-0.2c0.1,0,0.3-0.1,0.6-0.1
			c0.3-0.1,1.1-0.2,1.2-0.3c0.3-0.3,0.6-1.1,1.4-3.3l0-0.1c0.2-0.6,0.5-1.5,0.9-2.6l0.6-1.7c0.9-2.6,2.3-6.3,2.4-6.4
			c0-0.1,0.1-0.2,0.2-0.2l1.3,0c0,0,0,0,0,0c0.1,0,0.2,0.1,0.2,0.1c0.4,0.9,2.9,7.5,3.5,9.1c0,0.1,0.1,0.3,0.2,0.5
			c0.2,0.5,0.5,1.2,0.5,1.4c0.3,0.8,1,2.9,1.4,3.1c0,0,0.1,0,0.2,0c0.3,0.1,0.4,0.1,0.4,0.1c0.5,0.1,0.7,0.2,0.9,0.2
			c0.1,0,0.1,0.1,0.2,0.2c0.1,0.4,0.1,0.4,0.1,0.6l0,0.1C184.6,20.4,184.5,20.6,184.4,20.6z M174.1,13.6l2.7,0
			c-0.3-0.9-0.9-2.6-1.4-3.6L174.1,13.6z"/>
		<path class="st1" d="M159.2,0.7h1c2.5,0,6.6,1,6.6,4.9c0,2.2-1.8,3.2-3.3,3.9c4.2,1.2,4.4,4.3,4.4,4.9c0,2.4-1.4,4.3-3.6,5.2
			c-2,0.8-4.1,0.8-5.2,0.8l-0.2,0c-6.2,0-9.9,0-10.1,0c-0.1,0-0.1,0-0.2,0c-0.1,0-0.1-0.1-0.1-0.2l0-1c0-0.1,0.1-0.2,0.2-0.2
			c0.1,0,0.5-0.1,0.9-0.2c0.5-0.1,1.2-0.2,1.4-0.3c0.2-0.1,0.4-0.1,0.4-0.7l0-0.3c0-0.6,0.1-1.5,0.1-2c0-7.5-0.1-12.3-0.3-12.8
			c0-0.1-0.1-0.1-1-0.2l-0.4,0c-0.3,0-0.6-0.1-1-0.1c-0.1,0-0.2-0.1-0.2-0.2L148.5,1c0-0.1,0-0.1,0.1-0.2c0-0.1,0.1-0.1,0.2-0.1
			 M156.4,18.5c0.3,0.1,0.9,0.4,1.7,0.4c3.2,0,4.8-1.3,4.8-4c0-1.1-0.2-2.2-1.5-3.2c-0.6-0.5-1.4-0.8-4-0.8c-0.7,0-0.9,0-1.1,0.1
			c0,0.3,0,0.9,0,1.3l0,0.4l0,2.2C156.2,17.6,156.3,18.2,156.4,18.5z M156.3,9c0.3,0,0.6,0.1,1.2,0.1c1.6,0,4.5,0,4.5-3.4
			c0-0.7-0.3-3.1-4.3-3.1c-0.5,0-1,0.1-1.4,0.1l-0.1,0c0,0.9,0.1,3.6,0.1,4.2V9z"/>
		<path class="st1" d="M137.5,20.6h-1.7c-0.1,0-0.1,0-0.2-0.1c-0.4-0.3-0.8-0.8-1-1l-2.7-2.8c-1.5-1.5-2.6-2.7-3.3-3.4
			c-0.4-0.5-2.8-2.8-3.9-3.9l0.1,3.8c0,0.4,0,2.1,0,2.4c0,0.3,0.1,0.9,0.1,1.6c0,0.6,0.1,1.1,0.1,1.4c0,0.2,0,0.3,0.1,0.4
			c0.2,0.1,0.8,0.1,1.2,0.2c0.5,0.1,0.8,0.1,0.9,0.1c0.1,0,0.2,0.1,0.2,0.2l0,0.7c0,0.1,0,0.1-0.1,0.2c0,0.1-0.1,0.1-0.2,0.1l-0.6,0
			c-5,0-5.5,0-5.6,0c-0.1,0-0.2-0.1-0.2-0.2c0-0.2,0-0.3,0-0.4c0-0.1,0-0.2,0-0.4c0-0.1,0.1-0.2,0.2-0.2c0.2-0.1,0.4-0.1,0.6-0.1
			c0.8,0,1.3,0,1.4-0.1c0-0.1,0.2-0.7,0.2-3.5l0-3.8c0-4-0.1-4.3-0.4-4.6c-0.6-0.6-0.9-0.7-2.3-0.9c-0.1,0-0.2-0.1-0.2-0.2l-0.1-0.8
			c0-0.1,0-0.1,0.1-0.2c0-0.1,0.1-0.1,0.2-0.1h5c0.1,0,0.1,0,0.2,0.1c1.5,1.4,2.2,2.2,2.9,2.9c0.4,0.4,5.2,5.4,7.5,7.8
			c0-0.7-0.1-1.9-0.1-2.8c0-0.8-0.1-1.4-0.1-1.7c-0.1-1.3-0.2-4-0.3-4.3c0,0-0.2-0.2-1.1-0.4c-0.4-0.1-0.6-0.1-0.7-0.2l-0.1,0
			c-0.1,0-0.1-0.1-0.1-0.2l0-0.8c0-0.1,0-0.1,0.1-0.2c0,0,0.1-0.1,0.2-0.1h5.5c0.1,0,0.1,0,0.2,0.1s0.1,0.1,0.1,0.2l0,0.6
			c0,0.1-0.1,0.2-0.1,0.2c-0.2,0.1-1.2,0.4-1.3,0.4c0,0-0.5,0.3-0.6,0.4c0,0-0.1,0.1-0.1,0.3l0,1.5c0,0.2,0,0.8,0,1.5
			c0,0.8,0.1,1.7,0.1,1.9l0.1,4.1c0,0.2,0,0.7,0,1.3c0,0.6,0,1.2,0,1.4l0,1.4c0,0.1,0,0.1-0.1,0.2S137.6,20.6,137.5,20.6z"/>
		<path class="st1" d="M114.8,20.6c-2.3,0-5.7,0-10,0l-0.6,0c-0.1,0-0.1,0-0.2-0.1c0,0-0.1-0.1-0.1-0.2l0-0.7c0-0.1,0.1-0.2,0.2-0.2
			c0.2-0.1,0.3-0.1,1.3-0.2c0.5-0.1,0.8-0.2,1-0.2c0-0.1,0.1-0.3,0.1-0.7l0-5.5c0-0.5,0-1.1,0-1.6c0-0.5,0-1.1,0-1.6V8.3l-0.1-1.6
			c-0.1,0-0.3-0.1-0.8-0.1c-0.4,0-1.3-0.1-1.4-0.1c-0.1,0-0.1,0-0.2-0.1c0-0.1-0.1-0.1-0.1-0.2c0-0.1,0-0.2,0-0.4c0-0.2,0-0.4,0-0.5
			c0-0.1,0.1-0.2,0.2-0.2h13.9c0.5,0,0.5,0.6,0.5,1l0,0.6c0,0.8,0,2.1,0,2.5c0,0.1-0.1,0.2-0.2,0.2c-0.4,0-0.6,0-0.9,0
			c-0.1,0-0.2-0.1-0.2-0.1c-0.1-0.2-0.1-0.2-0.2-0.5l-0.1-0.2c-0.7-1.2-0.8-1.4-1.1-1.8c-0.7-0.1-3.3-0.2-3.5-0.2
			c-0.3,0-1.6,0-2.2,0c0,0.8,0,3.4,0,4l0,1.1c0,0,0,0.1,0,0.1c0.7,0,3.2,0,3.9-0.2c0.3-0.1,0.4-0.6,0.7-2.1c0-0.1,0.1-0.2,0.2-0.2
			h0.8c0.1,0,0.2,0.1,0.2,0.2c0,0.9,0,1,0,1.6l0,2.1c0,0.2,0,0.7,0,1.2c0,0.5,0,1,0,1.1c0,0.1-0.1,0.2-0.2,0.2h-0.8
			c-0.1,0-0.2-0.1-0.2-0.2l-0.4-1.8c-0.2-0.5-0.3-0.5-2-0.5c-0.8,0-1.5,0-2.3,0.1c0,0.7,0,2,0,2.5l0,2.6c0,0.4,0,0.6,2.9,0.6
			c0.3,0,2.4-0.1,3.1-0.4c0.8-0.4,1.4-1.3,1.9-2.6c0-0.1,0.1-0.2,0.2-0.2c0.4,0,0.5,0,1,0c0.1,0,0.1,0,0.2,0.1
			c0,0.1,0.1,0.1,0.1,0.2c0,0.3-0.1,0.5-0.3,2c-0.1,0.4-0.3,1.9-0.3,2.2c0,0.1-0.1,0.2-0.2,0.2C118.6,20.5,117.3,20.6,114.8,20.6z"
			/>
		<path class="st1" d="M95.8,20.9c-0.3,0-1.8,0-3.3-0.4c-1.7-0.4-2.1-0.5-2.1-1c0-0.3,0-1,0-1.7c0-0.7,0-1.3,0-1.6
			c0-0.2,0.1-0.3,0.3-0.3l1.3,0c0,0,0,0,0,0c0.1,0,0.2,0.1,0.2,0.2l0,0.1c0.7,1.3,0.9,1.6,1.5,2.2c0.5,0.4,1.5,0.9,3,0.9
			c1.4,0,3.5-0.7,3.5-2.2c0-0.9-1.1-1.6-1.3-1.6c-1.4-0.5-2-0.7-2.8-0.9l-0.1,0c-1.1-0.3-3.1-0.9-4.1-1.7c-1-0.8-1.8-2.2-1.8-3.4
			c0-0.8,0.3-4.7,6.7-4.7c1.1,0,2.7,0.3,4.3,0.7c0.1,0,0.2,0.1,0.2,0.2c0.3,0.7,0.5,2.5,0.5,3.2c0,0.2,0,0.3-0.1,0.5
			c0,0.2-0.3,0.3-0.4,0.3c0,0-1.1-0.1-1.3-0.1c-0.1,0-0.2-0.1-0.2-0.2c-0.4-1.1-1.1-2.8-3.5-2.8c-1,0-2.8,0.4-2.8,1.8
			c0,0.8,0.8,1.5,2.3,2l0.1,0c0.2,0.1,0.7,0.2,1.2,0.3c0.7,0.2,1.5,0.4,1.7,0.5c1.8,0.6,4.4,1.5,4.4,4.7c0,2.8-1.8,3.8-3,4.4
			C99,20.7,97.8,20.9,95.8,20.9z"/>
		<path class="st1" d="M80.6,20.6l-0.8,0c-2,0-8.1,0-8.3,0c-0.1,0-0.1,0-0.2-0.1s-0.1-0.1-0.1-0.2l0-0.8c0-0.1,0.1-0.2,0.2-0.2
			c0.1,0,0.4-0.1,0.7-0.2c0.3-0.1,0.8-0.2,0.9-0.2c0.5-0.2,0.6-0.4,0.6-1.2c0-0.4,0-2.7,0-3.2v-2.8c0-0.3,0-1.2,0-2.1
			c0-0.8,0-1.6,0-1.9c0-0.7,0-0.7-0.4-0.8c-0.1,0-0.4-0.1-0.8-0.2c-0.4-0.1-0.9-0.2-1.1-0.2c-0.1,0-0.2-0.1-0.2-0.2l0-1
			c0,0,0-0.1,0-0.1c0.2-0.3,7.2-0.4,7.2-0.4c1.9,0,4.5,0,6.6,1.6c2.6,2,3.1,4.6,3.1,6.5c0,3.3-1.6,5.1-2.3,5.8
			C84.7,19.9,83.4,20.6,80.6,20.6z M77.2,6.6L77.2,6.6c0,0.1,0,0.3,0,0.3l0,2v7.3c0,1.4,0.2,1.9,0.9,2.3c0.8,0.4,1.5,0.4,1.7,0.4
			c0.6,0,2.1,0,3.2-1.3c1.2-1.5,1.2-4.4,1.2-4.7c0-6-3.8-6.6-5.4-6.6C78.1,6.4,77.5,6.5,77.2,6.6z"/>
		<path class="st1" d="M53.8,20.6c-1.3,0-1.5,0-1.6,0c-0.1,0-0.2-0.1-0.2-0.2c0-0.3,0-0.3,0-0.8c0-0.1,0.1-0.2,0.2-0.2
			c0.2-0.1,0.4-0.1,0.6-0.1c0.8,0,1.3,0,1.4-0.1c0-0.1,0.2-0.7,0.2-3.5l0-3.8c0-4-0.1-4.3-0.4-4.6c-0.6-0.6-0.9-0.7-2.3-0.9
			c-0.1,0-0.2-0.1-0.2-0.2l-0.1-0.9c0-0.1,0-0.1,0.1-0.2C51.6,5,51.6,5,51.7,5h5c0.1,0,0.1,0,0.2,0.1c1.6,1.5,2.3,2.3,2.9,2.9
			c0.4,0.4,5.2,5.4,7.5,7.8c0-0.7-0.1-1.9-0.1-2.8c0-0.8-0.1-1.5-0.1-1.8c-0.1-1.3-0.2-4-0.3-4.3c0,0-0.2-0.2-1.1-0.4
			c-0.4-0.1-0.6-0.1-0.7-0.2l-0.1,0c-0.1,0-0.1-0.1-0.1-0.2l0-0.8c0-0.1,0-0.1,0.1-0.2c0,0,0.1-0.1,0.2-0.1h5.5
			c0.1,0,0.2,0.1,0.2,0.2l0,0.6c0,0.1,0,0.2-0.1,0.2c-0.2,0.1-1.2,0.4-1.3,0.4c0,0-0.5,0.3-0.6,0.4c0,0-0.1,0.1-0.1,0.3l0,1.5
			c0,0.2,0,0.9,0.1,1.5c0,0.8,0.1,1.6,0.1,1.9l0.1,4.1c0,0.2,0,0.7,0,1.3c0,0.6,0,1.2,0,1.4l0,1.4c0,0.1,0,0.1-0.1,0.2
			c0,0-0.1,0.1-0.2,0.1h-1.6c-0.1,0-0.1,0-0.2-0.1c0,0-0.8-0.7-1-1l0,0l-2.7-2.8c-1.5-1.5-2.6-2.7-3.3-3.4c-0.4-0.5-2.8-2.8-3.9-3.9
			l0.1,3.8c0,0.4,0,2.1,0,2.4c0,0.3,0.1,0.9,0.1,1.6c0,0.6,0.1,1.2,0.1,1.4c0,0.2,0,0.3,0.1,0.4c0.2,0.1,0.8,0.1,1.2,0.2
			c0.5,0.1,0.8,0.1,0.9,0.1c0.1,0,0.2,0.1,0.2,0.2l0,0.7c0,0.1,0,0.1-0.1,0.2c0,0.1-0.1,0.1-0.2,0.1l-0.6,0
			C55.9,20.6,54.6,20.6,53.8,20.6z"/>
		<path class="st1" d="M51.1,20.6h-7.4c-0.1,0-0.2-0.1-0.2-0.2c0-0.2,0-0.3,0-0.4c0-0.1,0-0.1,0-0.3c0-0.1,0.1-0.2,0.2-0.2
			c0.3-0.1,1.4-0.3,1.5-0.4c0.1,0,0.3-0.1,0.3-0.2c0-0.2,0-0.2-0.3-0.9c-0.5-1.1-0.6-1.5-0.8-2.1c-0.1-0.2-0.1-0.3-0.2-0.5h-4
			c-0.3,0.8-1.1,3-1.1,3.3c0,0.3,0,0.3,1.6,0.6l0.2,0c0.1,0,0.2,0.1,0.2,0.2c0,0.1,0,0.2,0,0.3c0,0.2,0,0.3,0,0.4
			c0,0.1-0.1,0.2-0.2,0.2c0,0,0,0,0,0l-5.6,0c-0.1,0-0.1,0-0.2-0.1c0-0.1-0.1-0.1-0.1-0.2l0-0.6c0-0.1,0.1-0.2,0.2-0.2
			c0.1,0,0.3-0.1,0.6-0.1c0.3-0.1,1.1-0.2,1.2-0.3c0.3-0.3,0.6-1.1,1.4-3.4l0-0.1c0.2-0.6,0.5-1.5,0.9-2.6l0.6-1.7
			c0.9-2.6,2.3-6.3,2.4-6.4c0-0.1,0.1-0.2,0.2-0.2l1.3,0h0c0.1,0,0.2,0.1,0.2,0.1c0.4,0.9,2.9,7.4,3.5,9.1c0,0.1,0.1,0.3,0.2,0.5
			c0.2,0.5,0.5,1.2,0.5,1.3c0.3,0.8,1,2.9,1.4,3.1c0,0,0.1,0,0.2,0c0.3,0.1,0.4,0.1,0.4,0.1c0.5,0.1,0.7,0.2,0.9,0.2
			c0.1,0,0.1,0.1,0.2,0.2c0.1,0.4,0.1,0.4,0.1,0.6l0,0.1C51.4,20.4,51.3,20.6,51.1,20.6z M40.9,13.6l2.7,0c-0.3-0.9-0.9-2.6-1.4-3.6
			L40.9,13.6z"/>
		<g>
			<path class="st1" d="M11.1,20.5C11.1,20.5,11.1,20.5,11.1,20.5c-0.4,0-7.3,0-10.9,0h0c-0.1,0-0.1,0-0.2-0.1c0,0-0.1-0.1-0.1-0.2
				l0-0.9c0-0.1,0.1-0.2,0.2-0.2c0.1,0,0.5-0.1,0.8-0.2c0.5-0.1,1-0.2,1.1-0.2l0.2-0.1c0.4-0.1,0.5-0.1,0.7-0.3
				c0.1-0.2,0.1-0.5,0.1-1l-0.1-3.5l0-1.5l-0.1-2.1l0-2.5c0-0.4-0.1-1.5-0.1-2.6C3,4.3,3,3.4,2.9,3C2.8,2.9,2.5,2.8,1.9,2.7
				C1.6,2.6,1.4,2.6,0.3,2.3C0.2,2.3,0.2,2.2,0.2,2l0-1c0-0.1,0-0.1,0.1-0.2c0,0,0.1-0.1,0.2-0.1h17.3c0.1,0,0.2,0.1,0.2,0.2
				c0.1,0.3,0.4,3.3,0.4,3.8c0,0.4,0,0.5-0.1,0.7c0,0.1-0.1,0.2-0.2,0.2l-0.3,0c-0.2,0-0.3,0-0.5,0c-0.7,0-0.8-0.2-1.2-1.3l-0.1-0.1
				c-0.6-1.4-0.9-1.4-3.3-1.4c-0.6,0-3.7,0.1-4.7,0.3C7.8,3.3,7.8,3.6,7.8,3.8c0,4.4,0,5.3,0,5.5c0,0,0,0.1,0,0.1c0.1,0,0.5,0,1.1,0
				l1.9,0c0.6,0,2.6-0.2,2.9-0.4c0.5-0.4,0.6-0.7,0.6-2.2c0-0.1,0.1-0.2,0.2-0.2c0.8,0,0.9,0,1.4,0c0.1,0,0.2,0.1,0.2,0.3
				c0,0.6-0.2,3.2-0.2,3.7c0,0.1,0,0.5,0,0.8c0,0.8,0,1.8,0,2.1c0,0.1-0.1,0.2-0.1,0.2c-0.1,0.1-0.4,0.1-0.6,0.1
				c-0.2,0-0.5-0.1-0.7-0.1c-0.1,0-0.1-0.1-0.2-0.1c-0.1-0.2-0.2-0.5-0.4-1.1C14.1,12.4,14,12.1,14,12c-0.2-0.3-0.2-0.4-0.7-0.5
				c-0.7-0.2-3.7-0.2-4.3-0.2c-0.5,0-0.8,0-1.1,0.1l0,0c-0.1,0.3-0.1,0.6-0.1,1.2c0,1.3,0.1,5.3,0.3,5.7c0.1,0.1,0.3,0.3,1.3,0.4
				c0.1,0,0.1,0,0.1,0c0.5,0,0.9,0.1,1.7,0.3c0.1,0,0.2,0.1,0.2,0.2c0,0.1,0,0.2,0,0.3c0,0.1,0,0.2,0,0.4l0,0.2c0,0.1,0,0.2,0,0.3
				C11.4,20.5,11.3,20.5,11.1,20.5z"/>
		</g>
		<path class="st1" d="M27.1,20.5L27.1,20.5l-7.4,0c-0.1,0-0.2-0.1-0.2-0.2c0-0.4-0.1-0.4,0-0.8c0-0.1,0.1-0.1,0.1-0.2
			c0.2-0.1,0.4-0.2,0.9-0.3c0.5-0.1,0.7-0.1,0.9-0.2c0.1-0.5,0.1-1.9,0-2.6c0-0.3,0-1.1,0-1.8c0-0.4,0-0.7,0-0.8c0-0.3,0-1.3,0-2.2
			c0-0.8,0-1.7,0-1.9c0-0.5,0-2.3-0.1-2.9c-0.2,0-0.4-0.1-0.6-0.1l-1-0.1c-0.1,0-0.2-0.1-0.2-0.2l0-0.1c0-0.3,0-0.6,0-0.8
			c0-0.1,0.1-0.1,0.2-0.2C20.1,5,21.6,5,23,4.9c0.9,0,1.8,0,2.2-0.1c0.4,0,0.8,0,1.1-0.1c0.6,0,1-0.1,1.2-0.1C31,4.8,32.9,7,32.9,9
			c0,1.7-1,3.1-2.9,3.8c0.2,0.3,0.4,0.7,0.7,1.1c0.3,0.5,0.6,1,0.8,1.3c0.3,0.4,0.4,0.7,0.6,1c0.4,0.6,0.6,1,1.1,1.9
			c0.3,0.6,0.4,0.7,1.3,1l0.2,0.1c0.6,0.3,0.7,0.5,0.7,1.1c0,0.1-0.1,0.2-0.2,0.2l-4.9,0c0,0,0,0,0,0c-0.1,0-0.2,0-0.2-0.1
			c-0.2-0.3-0.9-1.7-1.6-3.3c-0.6-1.3-1.2-2.6-1.5-3c-0.3-0.7-0.4-0.8-2-0.8c0,0.1,0,0.3,0,0.6c0,0.4,0,0.8,0,1.3c0,0.5,0,0.9,0,1.3
			c0,0.2,0,0.7,0,1.1c0,0.4,0,0.7,0,0.9c0.2,0.1,0.3,0.1,0.6,0.2c0.5,0.1,1,0.2,1.6,0.4c0.1,0,0.2,0.1,0.2,0.2l0,0.3
			c0,0.2,0,0.3,0,0.6C27.3,20.5,27.2,20.5,27.1,20.5z M20.1,6.1L20.1,6.1L20.1,6.1z M25,11.7c0.9,0,2.4,0,3.2-0.7
			c0.4-0.4,0.6-0.9,0.6-1.6c0-3-1.9-3-3.1-3c-0.3,0-0.5,0-0.7,0c0,0,0,0,0,0l0,1.6l0,2.2c0,0.3,0,0.4,0,0.6C25,11,25,11.2,25,11.7
			L25,11.7z"/>
		<path class="st1" d="M315.8,20.9c-0.3,0-1.8,0-3.3-0.4l-0.1,0c-1.6-0.4-2.1-0.5-2.1-1c0-0.3,0-1,0-1.7c0-0.7,0-1.3,0-1.6
			c0-0.2,0.1-0.3,0.3-0.3l1.3,0c0,0,0,0,0,0c0.1,0,0.2,0.1,0.2,0.2l0,0.1c0.7,1.3,0.9,1.6,1.5,2.2c0.5,0.4,1.5,0.9,3,0.9
			c1.4,0,3.5-0.7,3.5-2.2c0-0.9-1.1-1.6-1.3-1.6c-1.4-0.5-2-0.7-2.7-0.9l-0.1,0c-1.1-0.3-3.1-0.9-4.1-1.7c-1-0.8-1.8-2.2-1.8-3.4
			c0-0.8,0.3-4.7,6.7-4.7c1.1,0,2.7,0.3,4.3,0.7c0.1,0,0.2,0.1,0.2,0.2c0.3,0.7,0.5,2.5,0.5,3.2c0,0.2,0,0.3-0.1,0.5
			c0,0.2-0.3,0.3-0.4,0.3c0,0-1.1-0.1-1.3-0.1c-0.1,0-0.2-0.1-0.2-0.2c-0.4-1.1-1.1-2.8-3.5-2.8c-1,0-2.8,0.4-2.8,1.8
			c0,0.8,0.8,1.5,2.3,2l0.1,0c0.2,0.1,0.6,0.2,1.2,0.3c0.7,0.2,1.5,0.4,1.8,0.5c1.8,0.6,4.4,1.5,4.4,4.7c0,2.8-1.8,3.8-3,4.4
			C319,20.7,317.8,20.9,315.8,20.9z"/>
		<path class="st1" d="M215.9,20.6c-1.1,0-1.9,0-2,0c-0.1,0-0.2-0.1-0.2-0.2l0-0.1c0-0.1,0-0.1,0-0.2c0-0.1,0-0.2,0-0.4l0-0.1
			c0-0.1,0.1-0.2,0.2-0.2c0.5-0.2,0.8-0.3,1.2-0.3c0.1,0,0.2-0.1,0.2-0.2c0-0.2-0.3-0.6-2.1-2.7c-0.7-0.8-1.1-1.4-1.5-1.8
			c-0.3-0.4-0.6-0.7-0.8-0.9c0,0.1,0,0.2,0,0.4c0,0.2,0,0.9,0,1.5c0,0.6,0,1.1,0,1.3l0,2.1c0.1,0.1,0.3,0.2,0.9,0.4
			c0.5,0.1,0.6,0.2,0.9,0.4c0,0,0.1,0.1,0.1,0.2c0.1,0.2,0,0.3,0,0.4c0,0,0,0.1,0,0.2c0,0.1-0.1,0.2-0.2,0.2h-7.4
			c-0.1,0-0.2-0.1-0.2-0.2l0-0.6c0-0.1,0-0.2,0.1-0.2c0.6-0.3,1.3-0.6,2-0.9c0.2-0.1,0.2-0.2,0.2-2l0-5.4c0,0,0,0,0,0l0-1
			c0-0.1,0-0.1,0-0.2c0-0.1,0-0.2,0-0.3c0-0.3,0-0.4,0-1.2c0-0.7,0-1.3-0.1-1.7c-0.3-0.2-0.6-0.3-0.7-0.4c0,0-0.1,0-0.1,0
			c-0.7-0.2-0.8-0.2-1.1-0.4l-0.1-0.1c-0.1-0.1-0.1-0.1-0.1-0.2l0.1-0.6c0-0.1,0.1-0.2,0.2-0.2h7.1c0.1,0,0.2,0.1,0.2,0.2
			c0.1,0.2,0,0.6,0,0.8c0,0.1-0.1,0.2-0.2,0.2c-0.2,0.1-0.3,0.1-0.4,0.2c-0.3,0.1-0.4,0.2-1.2,0.3c-0.2,0-0.2,0.1-0.2,0.6l0,1.1
			c0,0.9,0,1.6,0,1.9l0,0.9l0,0.4c1.1-1.1,4.1-4.1,4.6-5c-0.2-0.1-0.6-0.1-0.8-0.1c-0.2,0-0.3,0-0.5-0.1l-0.3-0.1
			c-0.1,0-0.2-0.1-0.2-0.2c0-0.2,0-0.8,0-0.8c0-0.1,0.1-0.2,0.2-0.2h6.5c0.1,0,0.1,0,0.2,0.1c0,0,0.1,0.1,0.1,0.2l0,0.8
			c0,0.1-0.1,0.2-0.2,0.2c-1.3,0.3-2.4,0.6-3.3,1.3c-0.8,0.7-3.1,2.9-3.8,3.6c0.5,0.6,1.2,1.4,1.9,2.2c0.4,0.5,0.8,1,1.2,1.4
			c0.6,0.8,1.6,2.1,2.4,3l0.6,0.8c0.2,0.3,0.2,0.3,0.6,0.4c0.2,0,0.3,0.1,0.7,0.3l0.3,0.1c0.1,0,0.1,0.1,0.1,0.2l0,0.2
			c0,0.1,0,0.2,0,0.5c0,0.1-0.1,0.2-0.2,0.2C220.5,20.6,217.8,20.6,215.9,20.6z"/>
		<path class="st1" d="M234.7,21.1c-1.4,0-6-0.4-6-5c0-3.2,2.6-4.7,3.7-5.3c0.1-0.1,0.5-0.2,0.9-0.5c0.1-0.1,0.2-0.1,0.3-0.2
			c-1.1-1.4-1.9-2.3-1.9-3.8c0-1.7,1.1-3,2.2-3.6c1.3-0.8,2.6-0.8,3.2-0.7h0.1c3.4,0,4.6,2.3,4.6,3.7c0,1.8-1.1,2.7-2.9,3.7
			c0,0-0.1,0.1-0.2,0.1c0.2,0.2,0.6,0.7,1.4,1.5l0.1,0.1c0.2,0.2,0.5,0.7,1,1.2c0.5,0.6,1,1.3,1.2,1.5c0.1,0.2,0.2,0.3,0.3,0.3
			c1-1.1,1.5-2.2,1.5-2.5c0-0.4-0.3-0.7-0.9-0.9c-0.1,0-0.2-0.1-0.2-0.2l0-0.9c0-0.1,0.1-0.2,0.2-0.2c0.9-0.2,3.4-0.4,4.3-0.4
			c0.8,0,1.1-0.1,1.5-0.1l0.1,0c0.1,0,0.2,0,0.2,0.1c0.1,0.1,0.1,0.1,0.1,0.2c0,0.2-0.1,1-0.1,1.1c0,0.1-0.1,0.2-0.1,0.2
			c-1.7,0.8-2.4,1.4-5.4,5.3c0.3,0.5,1.9,2.4,3,2.4c0.4,0,0.9-0.3,1.3-0.8c0.5-0.5,0.6-0.7,1-0.7c0.4,0,0.9,0.4,0.9,0.9
			c0,0.8-1.1,3.6-4.4,3.6c-1.1,0-2.5-0.2-4.8-2.3C239,20.3,237,21.1,234.7,21.1z M234.9,11.6c-0.7,0.3-2,1.2-2,2.7c0,1.8,1.9,4,4,4
			c1,0,1.9-0.4,2.7-1.1C239,16.3,236,12.8,234.9,11.6z M236.9,3.8c-0.6,0-1.6,0.5-1.6,1.5c0,0.9,1.1,2,2,2.8
			c1.1-0.5,1.3-1.2,1.3-2.2c0-0.2,0-0.4-0.3-1.3C238.3,4.2,237.7,3.8,236.9,3.8z"/>
		<path class="st1" d="M271.1,20.6C271.1,20.6,271.1,20.6,271.1,20.6c-0.1,0-10.7,0-11.3,0c-0.1,0-0.1,0-0.2-0.1
			c0,0-0.1-0.1-0.1-0.2c0-0.1,0-0.2,0-0.3c0-0.1,0-0.2,0-0.2c0-0.6,0.6-0.8,1.9-1.1l0.3-0.1c0.4-0.1,1.1-0.3,1.4-0.4
			c0.1-0.2,0.1-0.3,0.1-1l0-0.1c0.1-1.4,0.1-3.7,0.1-5.1c0-0.9-0.1-7.7-0.2-8.5c-0.1,0-0.2-0.1-1-0.1H260c-1.6,0-2,0.2-2.4,0.7
			c-0.1,0.1-0.3,0.3-0.5,0.6c-1.2,1.4-1.4,1.6-1.6,1.5c0,0-0.7-0.3-1-0.6c-0.1-0.1-0.1-0.2,0-0.3c0.3-0.5,0.9-2.5,1.3-3.8
			c0.2-0.5,0.3-1,0.4-1.2c0-0.1,0.1-0.2,0.2-0.2c0,0,0,0,0,0l1,0c0.1,0,0.2,0.1,0.2,0.1c0.1,0.1,0.6,0.8,0.7,1.1
			c0.9,0,10.8,0,14.7,0c0,0,0.1,0,0.4,0c0.1,0,0.3,0,0.4,0c0.1-0.1,0.3-0.4,0.5-1.1c0-0.1,0.1-0.1,0.2-0.1c0.6,0,1.1,0,1.1,0
			c0.1,0,0.2,0.1,0.2,0.2c0,1,0,1.2,0,2.8v2.4c0,0.4,0,0.4-0.1,0.7c0,0.1-0.1,0.2-0.2,0.2c-0.6,0.2-0.8,0.2-1.2,0.3
			c-0.1,0-0.2,0-0.2-0.1c-0.4-0.6-0.5-0.8-1.3-2.7c-0.2-0.4-0.2-0.5-3.7-0.5c-0.4,0-0.7,0-0.9,0c-0.1,0.5-0.1,0.8-0.1,2.7v4.4
			c0,0.4,0,1.4,0,2.4c0,1,0,1.9,0,2.3c0,2.6,0,3,0.1,3.3c0.1,0.1,0.2,0.1,0.6,0.1l0.2,0c0.4,0,1.6,0.3,2,0.5c0.1,0,0.1,0.1,0.2,0.2
			l0,0.2c0.1,0.4,0.1,0.4,0,0.7l0,0.1C271.3,20.5,271.2,20.6,271.1,20.6z"/>
		<path class="st1" d="M300.4,21c-6.2,0-6.2-4.2-6.2-6.6l0-2.4c0-4.3,0-5-0.1-5.2c-0.1-0.2-0.6-0.3-0.8-0.3c-0.1,0-0.3,0-0.5,0
			c-0.2,0-0.5,0-0.6,0c-0.1,0-0.2-0.1-0.2-0.2l0-0.9c0-0.1,0-0.1,0.1-0.2s0.1-0.1,0.2-0.1l0.7,0c6.9,0,6.9,0,7,0
			c0.1,0,0.1,0.1,0.1,0.2l0,0.9c0,0.1-0.1,0.2-0.2,0.2c-0.1,0-1.6,0.1-1.7,0.1c-0.2,0-0.3,0.1-0.4,0.2c0,0.2-0.1,0.7-0.1,1.2
			c0,1.9,0,2.1,0.1,3.1l0,2c0,0.9,0.1,3.5,0.4,4.3c0.6,1.9,2.5,2,2.9,2c1.9,0,3.1-0.6,3.7-1.7c0.5-1,0.5-2.3,0.5-3.1
			c0-3.3-0.4-7.3-0.4-7.6c-0.1-0.3-0.5-0.5-0.7-0.5h-1.2c-0.1,0-0.2-0.1-0.2-0.2l0-0.9c0-0.1,0-0.1,0.1-0.2c0,0,0.1-0.1,0.2-0.1
			c5.5,0,5.5,0,5.6,0.2c0.1,0.2,0.1,0.4,0.1,0.6c0,0.1,0,0.2-0.1,0.4c0,0.1-0.1,0.2-0.2,0.2c-0.4,0.1-0.5,0.1-0.9,0.2
			c-0.8,0.1-0.8,0.1-0.8,0.4c0,0.1,0,0.5,0,0.8c0,0.3,0,0.7,0,0.8c0,0.7,0,0.9,0,1.8l0,0.6c0,0.9,0.1,2.5,0.1,2.9v0.1
			c0,2.9,0,4.4-1.8,5.8C303.7,20.9,301.7,21,300.4,21z"/>
		<path class="st1" d="M326.7,20.6c-0.1,0-0.1,0-0.2-0.1c0,0-0.1-0.1-0.1-0.2c0,0,0-0.1,0-0.2c0-0.1,0-0.1,0-0.2
			c0-0.5,0.5-0.7,1.4-0.9l0.2-0.1c0.3-0.1,0.8-0.2,1-0.3c0-0.1,0.1-0.2,0.1-0.8l0-0.1c0.1-1.1,0.1-2.9,0.1-4c0-0.7-0.1-5.8-0.2-6.6
			c-0.1,0-0.3,0-0.7,0c-0.6,0-0.7,0-1.6,0c-1.2,0-1.4,0.2-1.7,0.5c-0.1,0.1-0.2,0.3-0.4,0.5c-0.8,1-1,1.2-1.2,1.2c0,0-0.1,0-0.1,0
			c0,0-0.5-0.2-0.8-0.5c-0.1-0.1-0.1-0.2,0-0.3c0.2-0.4,0.6-2,0.9-3c0.1-0.4,0.2-0.8,0.3-1c0-0.1,0.1-0.2,0.2-0.2h0.7
			c0.1,0,0.2,0.1,0.2,0.1c0.1,0.1,0.3,0.6,0.5,0.8l0.1,0c6.2,0,10.3,0,11.1,0c0.1-0.2,0.3-0.5,0.4-0.8c0-0.1,0.1-0.1,0.2-0.1
			c0.3,0,0.4,0,0.6,0c0.1,0,0.2,0,0.3,0c0.1,0,0.2,0.1,0.2,0.2c0,0.5,0,0.8,0,1.3c0,0.3,0,0.6,0,1.2v1.6c0,0.3,0,0.3,0,0.6
			c0,0.1-0.1,0.2-0.2,0.2c-0.4,0.1-0.6,0.2-0.9,0.2c-0.1,0-0.2,0-0.2-0.1c-0.3-0.5-0.4-0.6-0.9-2.1c-0.1-0.3-0.1-0.3-2.6-0.3
			c-0.2,0-0.4,0-0.6,0c0,0.3,0,0.7,0,2.1v3.5c0,0.3,0,1.1,0,1.9c0,0.8,0,1.5,0,1.8c0,1.9,0,2.3,0.1,2.6c0.1,0,0.1,0,0.4,0.1l0.1,0
			c0.3,0,1.2,0.3,1.5,0.4c0.1,0,0.1,0.1,0.2,0.2l0,0.2c0,0.3,0,0.3,0,0.5c0,0.1-0.1,0.3-0.3,0.3h0C332.2,20.5,327,20.5,326.7,20.6
			C326.7,20.6,326.7,20.6,326.7,20.6z"/>
		<path class="st1" d="M284,20.5C284,20.5,284,20.5,284,20.5l-7.4,0c-0.1,0-0.2-0.1-0.2-0.2c0-0.4-0.1-0.4,0-0.8
			c0-0.1,0.1-0.1,0.1-0.2c0.2-0.1,0.4-0.2,0.9-0.3c0.5-0.1,0.7-0.1,0.9-0.2c0.1-0.5,0.1-1.9,0-2.6c0-0.3,0-1.1,0-1.8
			c0-0.4,0-0.7,0-0.8c0-0.3,0-1.3,0-2.2c0-0.8,0-1.7,0-1.9c0-0.6,0-2.3-0.1-2.9c-0.2,0-0.4-0.1-0.6-0.1l-1-0.1
			c-0.1,0-0.2-0.1-0.2-0.2l0-0.1c0-0.3,0-0.6,0-0.8c0-0.1,0.1-0.1,0.2-0.2c0.3,0,1.8-0.1,3.2-0.1c0.9,0,1.8,0,2.2-0.1
			c0.4,0,0.8,0,1.1-0.1c0.6,0,1-0.1,1.2-0.1c3.4,0,5.3,2.2,5.3,4.3c0,1.7-1,3.1-2.9,3.8c0.2,0.3,0.4,0.7,0.7,1.1
			c0.3,0.5,0.6,1,0.8,1.3c0.3,0.4,0.4,0.7,0.6,1c0.4,0.6,0.6,1,1.1,1.9c0.3,0.6,0.4,0.7,1.3,1l0.2,0.1c0.6,0.3,0.7,0.5,0.7,1.1
			c0,0.1-0.1,0.2-0.2,0.2l-4.9,0h0c-0.1,0-0.2,0-0.2-0.1c-0.2-0.3-0.9-1.7-1.6-3.3c-0.6-1.2-1.2-2.5-1.5-3c-0.3-0.7-0.4-0.8-2-0.8
			c0,0.1,0,0.3,0,0.6c0,0.4,0,0.8,0,1.3c0,0.5,0,0.9,0,1.3c0,0.2,0,0.7,0,1.1c0,0.4,0,0.7,0,0.9c0.2,0.1,0.3,0.1,0.6,0.2
			c0.5,0.1,1,0.2,1.6,0.4c0.1,0,0.2,0.1,0.2,0.2l0,0.3c0,0.2,0,0.3,0,0.5C284.2,20.5,284.1,20.5,284,20.5z M277,6.1L277,6.1L277,6.1
			z M282,11.7c0.9,0,2.4,0,3.2-0.7c0.4-0.4,0.6-0.9,0.6-1.6c0-3-1.9-3-3.1-3c-0.3,0-0.5,0-0.7,0c0,0,0,0,0,0l0,1.6l0,2.2
			c0,0.3,0,0.4,0,0.6C282,11,282,11.2,282,11.7L282,11.7z"/>
	</g>
</g>
</svg>
