<svg width="334" height="221" viewBox="0 0 334 221" fill="none" xmlns="http://www.w3.org/2000/svg">
<g clip-path="url(#clip0_622_1963)">
<path d="M0.84375 0.0996094V220.8L167.344 193.6L333.844 220.8V0.0996094H0.84375Z" fill="#1F2621"/>
<path d="M333.844 0V220.8L0.84375 166.4V0H333.844Z" fill="#9E714C"/>
<path d="M0.84375 0V220.8L333.844 166.4V0H0.84375Z" fill="#1F2621"/>
<path d="M51.3422 77.9008C51.4422 77.6008 51.6422 76.9008 51.7422 76.7008H55.1422V84.7008H51.5422L51.3422 82.4008C50.1422 80.9008 47.5422 79.9008 44.2422 79.9008C39.2422 79.9008 35.8422 82.8008 35.8422 87.9008C35.8422 93.2008 39.6422 96.3008 44.7422 96.3008C48.4422 96.3008 51.8422 94.2008 52.4422 90.3008C52.8422 90.5008 55.2422 91.6008 55.7422 91.7008C55.0422 98.1008 49.3422 100.201 44.2422 100.201C36.9422 100.201 31.7422 94.9008 31.7422 87.8008C31.7422 80.0008 37.3422 75.9008 44.4422 75.9008C47.2422 76.0008 49.6422 76.8008 51.3422 77.9008ZM64.2422 88.2008C64.2422 80.6008 69.0422 75.8008 76.3422 75.8008C83.6422 75.8008 88.5422 80.7008 88.5422 87.9008C88.5422 95.5008 83.7422 100.301 76.4422 100.301C69.0422 100.301 64.2422 95.4008 64.2422 88.2008ZM76.2422 79.6008C71.3422 79.6008 68.2422 82.7008 68.2422 87.9008C68.2422 93.2008 71.3422 96.7008 76.3422 96.7008C81.2422 96.7008 84.4422 93.6008 84.4422 88.4008C84.4422 83.0008 81.2422 79.6008 76.2422 79.6008ZM104.142 76.7008C105.742 79.7008 110.642 89.7008 112.142 92.7008L120.142 76.7008H127.442V80.5008H125.042V95.7008H127.442V99.5008H118.042V96.0008C118.542 96.0008 120.542 95.8008 121.142 95.8008V83.6008C119.542 86.6008 114.542 96.6008 113.042 99.6008H111.142L103.042 83.6008V95.8008C103.542 95.8008 105.542 96.0008 106.142 96.0008V99.5008H96.7422V95.7008H99.1422V80.5008H96.7422V76.7008H104.142ZM144.042 76.7008C145.642 79.7008 150.542 89.7008 152.042 92.7008L160.042 76.7008H167.342V80.5008H164.942V95.7008H167.342V99.5008H157.942V96.0008C158.442 96.0008 160.442 95.8008 161.042 95.8008V83.6008C159.442 86.6008 154.442 96.6008 152.942 99.6008H151.042L142.942 83.6008V95.8008C143.442 95.8008 145.442 96.0008 146.042 96.0008V99.5008H136.642V95.7008H139.042V80.5008H136.642V76.7008H144.042ZM197.942 95.7008V91.5008H201.742V99.5008H176.542V95.7008H178.942V80.5008H176.542V76.7008H201.042V84.0008H197.142V80.6008H182.742V85.9008H191.742V89.8008H182.742V95.8008H197.942V95.7008ZM226.742 90.2008H217.442V95.8008H220.542V99.6008H211.142V95.8008H213.542V80.5008C212.742 80.5008 212.042 80.6008 211.142 80.6008V76.6008H228.142C233.642 76.6008 236.842 79.3008 236.842 83.3008C236.842 86.5008 234.642 89.2008 231.042 89.7008L232.242 94.0008C232.642 95.5008 233.642 96.3008 234.842 96.3008C235.542 96.3008 236.142 96.1008 236.742 95.8008V99.6008C235.442 100.001 234.242 100.301 233.242 100.301C230.442 100.301 228.842 98.7008 228.242 96.0008L226.742 90.2008ZM217.442 86.7008H227.842C230.542 86.7008 232.042 85.1008 232.042 83.4008C232.042 81.4008 230.542 80.3008 227.242 80.3008C225.442 80.3008 222.642 80.4008 217.542 80.4008V86.7008H217.442ZM264.742 77.9008C264.842 77.6008 265.042 76.9008 265.142 76.7008H268.542V84.7008H264.942L264.742 82.4008C263.542 80.9008 260.942 79.9008 257.642 79.9008C252.642 79.9008 249.242 82.8008 249.242 87.9008C249.242 93.2008 253.042 96.3008 258.142 96.3008C261.842 96.3008 265.242 94.2008 265.842 90.3008C266.242 90.5008 268.642 91.6008 269.142 91.7008C268.442 98.1008 262.742 100.201 257.642 100.201C250.342 100.201 245.142 94.9008 245.142 87.8008C245.142 80.0008 250.742 75.9008 257.842 75.9008C260.642 76.0008 263.042 76.8008 264.742 77.9008ZM299.242 95.7008V91.5008H303.042V99.5008H277.842V95.7008H280.242V80.5008H277.842V76.7008H302.442V84.0008H298.542V80.6008H284.142V85.9008H293.142V89.8008H284.142V95.8008H299.242V95.7008ZM101.442 122.301H101.842C104.142 122.301 113.042 122.101 115.742 122.101C121.242 122.101 125.442 123.101 125.442 128.101C125.442 130.001 124.442 131.401 123.142 132.601C124.842 133.701 125.842 135.601 125.842 137.501C125.842 143.701 120.742 145.301 115.942 145.301C114.442 145.301 102.442 145.101 101.242 145.101V141.301H103.642V126.001C103.242 126.001 101.442 126.101 101.242 126.101V122.301H101.442ZM107.742 131.301H117.942C120.042 131.301 121.242 129.901 121.242 128.501C121.242 127.201 120.142 126.001 117.742 126.001C115.942 126.001 112.842 126.101 107.742 126.101V131.301ZM107.742 141.501C108.942 141.501 115.142 141.601 117.042 141.601C119.442 141.601 121.742 140.401 121.742 138.001C121.742 136.001 119.642 135.201 117.242 135.201H107.842V141.501H107.742ZM149.442 122.001C151.142 125.401 157.242 138.001 158.942 141.401H161.342V145.201H152.242L152.142 141.701C152.542 141.701 154.142 141.501 154.542 141.501L152.442 137.301H141.842L139.742 141.501L142.142 141.701C142.142 142.501 142.142 144.401 142.042 145.201H133.042V141.401H135.442L144.942 122.001H149.442ZM150.842 133.501C149.742 131.201 148.642 128.901 147.342 126.201L143.842 133.501H150.842ZM196.542 126.201H194.142V145.201H190.242L175.342 128.401V141.401H178.542V145.201H169.042V141.401H171.442V126.201H169.042V122.401H175.442L190.442 139.401V126.201H187.242V122.401H196.742V126.201H196.542ZM232.142 141.701C232.542 141.701 232.842 141.601 233.142 141.501V145.301C232.242 145.601 231.342 145.801 230.442 145.801C226.842 145.801 223.542 142.001 217.942 134.401L211.342 138.701V141.401H214.242V145.201H205.042V141.401H207.442V126.201H205.042V122.401H214.242V126.201H211.442V134.601L224.342 126.201C223.442 126.101 222.442 126.001 221.542 125.901V122.301H233.042V126.101H230.042L221.642 132.001C226.342 139.001 229.942 141.701 232.142 141.701Z" fill="white"/>
</g>
<defs>
<clipPath id="clip0_622_1963">
<rect width="334" height="221" fill="white"/>
</clipPath>
</defs>
</svg>
