<svg width="178" height="46" viewBox="0 0 178 46" fill="none" xmlns="http://www.w3.org/2000/svg">
<path d="M48.2222 12.7454V15.3393C48.2222 18.4623 46.6605 20.2474 43.6484 20.2474C40.6365 20.2474 39.0748 18.4623 39.0748 15.3393V5.18795C39.0748 2.06457 40.6365 0.279785 43.6484 0.279785C46.6605 0.279785 48.2222 2.06457 48.2222 5.18795V7.08429H45.3216V4.99274C45.3216 3.59838 44.7084 3.06852 43.7323 3.06852C42.7556 3.06852 42.1424 3.59838 42.1424 4.99274V15.5345C42.1424 16.9288 42.7556 17.4305 43.7323 17.4305C44.7084 17.4305 45.3216 16.9288 45.3216 15.5345V12.7454H48.2222Z" fill="#3A87BB"/>
<path d="M52.7666 15.5345C52.7666 16.9288 53.3804 17.4587 54.3565 17.4587C55.3325 17.4587 55.946 16.9288 55.946 15.5345V4.99274C55.946 3.59838 55.3325 3.06852 54.3565 3.06852C53.3804 3.06852 52.7666 3.59838 52.7666 4.99274V15.5345ZM49.6993 5.18795C49.6993 2.06457 51.3443 0.279785 54.3565 0.279785C57.3683 0.279785 59.0136 2.06457 59.0136 5.18795V15.3393C59.0136 18.4623 57.3683 20.2474 54.3565 20.2474C51.3443 20.2474 49.6993 18.4623 49.6993 15.3393V5.18795Z" fill="#3A87BB"/>
<path d="M67.3231 14.3629H67.3792L69.4429 0.50293H73.7093V20.0244H70.8094V6.02462H70.7536L68.6899 20.0244H65.7896L63.5587 6.21983H63.5026V20.0244H60.8254V0.50293H65.0925L67.3231 14.3629Z" fill="#3A87BB"/>
<path d="M82.2701 14.3629H82.3255L84.3892 0.50293H88.6559V20.0244H85.7556V6.02462H85.7002L83.6362 20.0244H80.7362L78.5049 6.21983H78.4489V20.0244H75.7717V0.50293H80.0387L82.2701 14.3629Z" fill="#3A87BB"/>
<path d="M93.6741 0.50293V15.5621C93.6741 16.9568 94.2876 17.4587 95.264 17.4587C96.2397 17.4587 96.8536 16.9568 96.8536 15.5621V0.50293H99.7539V15.3672C99.7539 18.4906 98.1922 20.2754 95.18 20.2754C92.1682 20.2754 90.6065 18.4906 90.6065 15.3672V0.50293H93.6741Z" fill="#3A87BB"/>
<path d="M104.494 5.88518H104.438V20.0244H101.677V0.50293H105.526L108.621 12.1877H108.677V0.50293H111.41V20.0244H108.259L104.494 5.88518Z" fill="#3A87BB"/>
<path d="M113.473 20.0244H116.54V0.50293H113.473V20.0244Z" fill="#3A87BB"/>
<path d="M117.739 0.50293H127.221V3.29166H124.014V20.0244H120.946V3.29166H117.739V0.50293Z" fill="#3A87BB"/>
<path d="M131.291 13.5545L127.415 0.50293H130.622L132.937 9.39899H132.992L135.307 0.50293H138.235L134.359 13.5545V20.0244H131.291V13.5545Z" fill="#3A87BB"/>
<path d="M42.1424 27.9903V33.986H43.3419C44.4853 33.986 45.1822 33.4841 45.1822 31.9224V29.9982C45.1822 28.6038 44.7084 27.9903 43.6208 27.9903H42.1424ZM45.4889 44.723C45.3216 44.221 45.2104 43.9143 45.2104 42.3247V39.2571C45.2104 37.4444 44.5965 36.7748 43.2025 36.7748H42.1424V44.723H39.0748V25.2015H43.7044C46.8836 25.2015 48.2498 26.6799 48.2498 29.6914V31.2252C48.2498 33.2331 47.6084 34.5162 46.2419 35.1573V35.2134C47.7757 35.8548 48.2776 37.3046 48.2776 39.3407V42.3529C48.2776 43.3007 48.3059 43.9979 48.6123 44.723H45.4889Z" fill="#1F2C4E"/>
<path d="M53.2134 33.4286H57.4244V36.2173H53.2134V41.9342H58.512V44.723H50.1454V25.2015H58.512V27.9903H53.2134V33.4286Z" fill="#1F2C4E"/>
<path d="M63.8375 24.9784C66.8211 24.9784 68.3552 26.7632 68.3552 29.8866V30.5004H65.4547V29.6914C65.4547 28.2973 64.8975 27.7671 63.9212 27.7671C62.9451 27.7671 62.3874 28.2973 62.3874 29.6914C62.3874 31.1139 63.0006 32.1733 65.0088 33.9305C67.5744 36.1894 68.3831 37.8066 68.3831 40.0379C68.3831 43.1612 66.8211 44.946 63.8096 44.946C60.7978 44.946 59.2358 43.1612 59.2358 40.0379V38.8387H62.1364V40.2331C62.1364 41.6271 62.7496 42.1291 63.726 42.1291C64.7017 42.1291 65.3152 41.6271 65.3152 40.2331C65.3152 38.8105 64.7017 37.7511 62.6941 35.9939C60.1285 33.735 59.3194 32.1179 59.3194 29.8866C59.3194 26.7632 60.8532 24.9784 63.8375 24.9784Z" fill="#1F2C4E"/>
<path d="M72.8163 40.2331C72.8163 41.6271 73.4298 42.1573 74.4062 42.1573C75.3822 42.1573 75.9954 41.6271 75.9954 40.2331V29.6914C75.9954 28.2973 75.3822 27.7671 74.4062 27.7671C73.4298 27.7671 72.8163 28.2973 72.8163 29.6914V40.2331ZM69.7487 29.8866C69.7487 26.7632 71.394 24.9784 74.4062 24.9784C77.4177 24.9784 79.0633 26.7632 79.0633 29.8866V40.0379C79.0633 43.1612 77.4177 44.946 74.4062 44.946C71.394 44.946 69.7487 43.1612 69.7487 40.0379V29.8866Z" fill="#1F2C4E"/>
<path d="M83.8312 25.2015V40.261C83.8312 41.6554 84.4444 42.1573 85.4207 42.1573C86.3968 42.1573 87.0103 41.6554 87.0103 40.261V25.2015H89.9109V40.0658C89.9109 43.1892 88.3492 44.974 85.3371 44.974C82.3252 44.974 80.7635 43.1892 80.7635 40.0658V25.2015H83.8312Z" fill="#1F2C4E"/>
<path d="M94.9297 27.9903V33.986H96.1291C97.2725 33.986 97.9694 33.4841 97.9694 31.9224V29.9982C97.9694 28.6038 97.4956 27.9903 96.408 27.9903H94.9297ZM98.2764 44.723C98.1088 44.221 97.9976 43.9143 97.9976 42.3247V39.2571C97.9976 37.4444 97.3837 36.7748 95.9897 36.7748H94.9297V44.723H91.8624V25.2015H96.4917C99.6708 25.2015 101.037 26.6799 101.037 29.6914V31.2252C101.037 33.2331 100.396 34.5162 99.0294 35.1573V35.2134C100.563 35.8548 101.065 37.3046 101.065 39.3407V42.3529C101.065 43.3007 101.093 43.9979 101.4 44.723H98.2764Z" fill="#1F2C4E"/>
<path d="M111.828 37.4443V40.0379C111.828 43.1612 110.267 44.946 107.255 44.946C104.243 44.946 102.681 43.1612 102.681 40.0379V29.8866C102.681 26.7632 104.243 24.9784 107.255 24.9784C110.267 24.9784 111.828 26.7632 111.828 29.8866V31.7829H108.928V29.6914C108.928 28.2973 108.315 27.7671 107.339 27.7671C106.363 27.7671 105.749 28.2973 105.749 29.6914V40.2331C105.749 41.6271 106.363 42.1291 107.339 42.1291C108.315 42.1291 108.928 41.6271 108.928 40.2331V37.4443H111.828Z" fill="#1F2C4E"/>
<path d="M116.624 33.4286H120.835V36.2173H116.624V41.9342H121.923V44.723H113.557V25.2015H121.923V27.9903H116.624V33.4286Z" fill="#1F2C4E"/>
<path d="M130.372 35.9385V41.9342H132.129C133.161 41.9342 133.719 41.4602 133.719 40.01V38.3086C133.719 36.4962 133.133 35.9385 131.738 35.9385H130.372ZM130.372 27.9903V33.1497H131.571C132.715 33.1497 133.412 32.6478 133.412 31.0858V29.9982C133.412 28.6038 132.938 27.9903 131.85 27.9903H130.372ZM136.48 29.6914V30.3886C136.48 32.3968 135.866 33.6517 134.5 34.2931V34.3486C136.145 34.99 136.786 36.4404 136.786 38.5041V40.0937C136.786 43.1058 135.196 44.723 132.129 44.723H127.304V25.2015H131.934C135.113 25.2015 136.48 26.6799 136.48 29.6914Z" fill="#1F2C4E"/>
<path d="M141.415 38.532H144.371L142.921 28.6596H142.865L141.415 38.532ZM148.414 44.723H145.319L144.789 41.1813H141.024L140.494 44.723H137.678L140.801 25.2015H145.291L148.414 44.723Z" fill="#1F2C4E"/>
<path d="M152.485 30.5838H152.429V44.723H149.668V25.2015H153.517L156.613 36.8863H156.668V25.2015H159.401V44.723H156.25L152.485 30.5838Z" fill="#1F2C4E"/>
<path d="M165.48 36.9424L164.532 38.7272V44.723H161.464V25.2015H164.532V33.6517H164.587L168.548 25.2015H171.615L167.348 33.9027L171.615 44.723H168.463L165.48 36.9424Z" fill="#1F2C4E"/>
<path d="M176.676 43.3613C176.676 42.4705 175.954 41.7483 175.063 41.7483C174.173 41.7483 173.451 42.4705 173.451 43.3613C173.451 44.2518 174.173 44.974 175.063 44.974C175.954 44.974 176.676 44.2518 176.676 43.3613Z" fill="#3A87BB"/>
<path fill-rule="evenodd" clip-rule="evenodd" d="M24.9853 24.8068V24.1091C24.9853 23.2147 24.6756 22.8215 23.9655 22.8215H23V26.1304H23.7835C24.5302 26.1304 24.9853 25.8085 24.9853 24.8068Z" fill="#1F2C4E"/>
<path fill-rule="evenodd" clip-rule="evenodd" d="M23.9655 8.2627H23V11.5715H23.7835C24.5299 11.5715 24.9853 11.2943 24.9853 10.4327V9.3708C24.9853 8.60127 24.6759 8.2627 23.9655 8.2627Z" fill="#1F2C4E"/>
<path fill-rule="evenodd" clip-rule="evenodd" d="M24.9853 30.3622V29.4234C24.9853 28.4235 24.638 28.1156 23.8107 28.1156H23V31.4244H24.0423C24.6543 31.4244 24.9853 31.1625 24.9853 30.3622Z" fill="#1F2C4E"/>
<path fill-rule="evenodd" clip-rule="evenodd" d="M13.044 9.55731C11.8284 9.55731 11.0645 10.2179 11.0645 11.9561V27.2668C11.0645 29.005 11.8284 29.631 13.044 29.631C14.259 29.631 15.0228 29.005 15.0228 27.2668V21.1825H18.6339V27.024C18.6339 30.9173 16.6899 33.1423 12.9395 33.1423C9.18982 33.1423 7.24518 30.9173 7.24518 27.024V12.1995C7.24518 8.30564 9.18982 6.0809 12.9395 6.0809C16.6899 6.0809 18.6339 8.30564 18.6339 12.1995V18.069H15.0228V11.9561C15.0228 10.2179 14.259 9.55731 13.044 9.55731ZM21.1733 21.1825H23.9418C25.8426 21.1825 26.6596 22.0678 26.6596 23.8707V24.2879C26.6596 25.49 26.2928 26.2415 25.4757 26.6253V26.6586C26.4594 27.0427 26.8431 27.9109 26.8431 29.1464V30.098C26.8431 31.9012 25.8923 32.8696 24.0584 32.8696H21.1733V21.1825ZM26.5965 14.8469V16.6502C26.5965 17.2177 26.6133 17.6351 26.7961 18.069H24.9292C24.8288 17.7686 24.7619 17.585 24.7619 16.6334V14.7968C24.7619 13.7114 24.3954 13.3108 23.5616 13.3108H22.928V18.069H21.0937V6.38222H23.8616C25.7627 6.38222 26.5794 7.2672 26.5794 9.07015V9.98844C26.5794 11.1906 26.1961 11.9585 25.3791 12.3427V12.376C26.2962 12.7601 26.5965 13.628 26.5965 14.8469ZM30.1171 0.321533H3.97114C2.05727 0.321533 0.5 1.88044 0.5 3.7967V27.4334C0.5 32.445 3.35122 36.902 8.74587 40.323C12.7452 42.8593 16.6849 43.9283 16.8506 43.9725C16.914 43.9896 16.979 43.998 17.044 43.998C17.1167 43.998 17.1888 43.9877 17.2588 43.9669C17.4242 43.9174 21.3564 42.727 25.3495 40.1322C30.7392 36.6293 33.5882 32.238 33.5882 27.4334V3.7967C33.5882 1.88044 32.0307 0.321533 30.1171 0.321533Z" fill="#1D3363"/>
</svg>
