<svg xmlns:xlink="http://www.w3.org/1999/xlink" xmlns="http://www.w3.org/2000/svg" viewBox="0 0 205.495 68.128" width="205.495"  height="68.128" ><title>logo</title><path d="M117.0485,7.471l6.411,9.736c33.635,10.528,42.041,24.379,50.874,33.332l23.953.484c-20.325-23.712-49.662-39.077-81.238-43.552" style="fill:#ffc627;fill-rule:evenodd"/><path d="M12.7035,34.568c18.691-11.312,45.247-19.598,69.321-21.715l6.897-6.412c-2.905.181-5.869.483-8.831.847C52.2635,10.977,33.9355,19.568,12.7035,34.568Z" style="fill:#ffc627;fill-rule:evenodd"/><polyline points="101.684 27.857 97.873 17.752 87.47 14.002 97.873 10.253 101.684 0.089 105.556 10.253 115.899 14.002 105.556 17.752 101.684 27.857" style="fill:#ffc627;fill-rule:evenodd"/><polyline points="102.152 27.68 98.259 17.36 88.944 14.002 98.261 10.645 101.688 1.503 105.169 10.645 114.432 14.002 105.171 17.36 101.216 27.678 102.151 28.036 105.94 18.145 116.07 14.472 116.07 13.532 105.942 9.861 102.151 -0.089 101.216 -0.086 97.486 9.861 87.3 13.532 87.3 14.473 97.486 18.144 101.216 28.033 102.152 27.681" style="fill:#0e553f"/><path d="M1.27,44.248a15.5914,15.5914,0,0,0,6.836,1.695c2.843,0,4.356-1.151,4.356-3.024,0-1.635-1.331-2.664-4.598-3.811-4.535-1.635-7.561-4.177-7.561-8.229,0-4.717,3.932-8.286,10.342-8.286a15.8826,15.8826,0,0,1,7.018,1.391l-1.391,5.022a12.504,12.504,0,0,0-5.687-1.332c-2.66,0-3.992,1.271-3.992,2.661,0,1.754,1.513,2.539,5.083,3.932,4.838,1.815,7.077,4.355,7.077,8.287,0,4.598-3.509,8.529-11.009,8.529A17.7274,17.7274,0,0,1,0,49.39l1.27-5.142" style="fill:#0e553f;fill-rule:evenodd"/><path d="M32.12,46.606c2.479,0,3.933-2.419,3.933-5.987,0-2.966-1.092-5.991-3.933-5.991-2.904,0-4.053,3.025-4.053,5.991,0,3.448,1.451,5.987,4.053,5.987m-.122,4.477c-5.747,0-10.222-3.87-10.222-10.283,0-6.472,4.235-10.647,10.585-10.647,6.049,0,10.102,4.235,10.102,10.285,0,7.257-5.142,10.645-10.403,10.645Z" style="fill:#0e553f;fill-rule:evenodd"/><path d="M64.9675,44.187c0,2.661.12,4.78.181,6.412h-5.324l-.302-2.784h-.121a7.1636,7.1636,0,0,1-6.231,3.268c-4.052,0-6.956-2.54-6.956-8.711V30.639h6.17V41.404c0,2.905.907,4.659,3.146,4.659a3.39,3.39,0,0,0,3.085-2.178,4.3565,4.3565,0,0,0,.241-1.331V30.639h6.111V44.187" style="fill:#0e553f;fill-rule:evenodd"/><path d="M76.8215,25.193v5.446h4.417v4.595h-4.417v7.26c0,2.418.606,3.507,2.42,3.507a8.1379,8.1379,0,0,0,1.876-.18v4.718a12.1268,12.1268,0,0,1-3.931.544,6.9544,6.9544,0,0,1-4.719-1.693c-1.089-1.212-1.694-3.145-1.694-5.99V35.234h-2.601V30.639h2.601V26.887l6.048-1.694" style="fill:#0e553f;fill-rule:evenodd"/><path d="M84.8065,21.565h6.17V33.056h.061a7.1282,7.1282,0,0,1,5.686-2.903c3.934,0,6.897,2.783,6.897,8.833V50.599h-6.172V39.649c0-2.659-.846-4.415-3.205-4.415a3.3237,3.3237,0,0,0-3.085,2.179,4.6982,4.6982,0,0,0-.182,1.33V50.599h-6.17V21.565" style="fill:#0e553f;fill-rule:evenodd"/><path d="M114.9315,35.96a9.4438,9.4438,0,0,0,2.058.122c3.265,0,5.322-1.635,5.322-4.419,0-2.539-1.754-4.049-4.839-4.049a11.4183,11.4183,0,0,0-2.541.179V35.96m-6.17-12.521a46.3048,46.3048,0,0,1,8.348-.606c3.81,0,6.593.727,8.407,2.299a7.83,7.83,0,0,1,2.905,6.291,8.8074,8.8074,0,0,1-2.482,6.595c-2.116,1.934-5.261,2.902-8.95,2.902a10.0581,10.0581,0,0,1-2.058-.179v9.858h-6.17Z" style="fill:#0e553f;fill-rule:evenodd"/><path d="M140.3985,46.606c2.419,0,3.932-2.419,3.932-5.987,0-2.966-1.151-5.991-3.932-5.991-2.965,0-4.053,3.025-4.053,5.991,0,3.448,1.39,5.987,3.992,5.987h.061m-.121,4.477c-5.808,0-10.285-3.87-10.285-10.283,0-6.472,4.235-10.647,10.648-10.647,5.989,0,10.042,4.235,10.042,10.285C150.6825,47.695,145.5395,51.083,140.2775,51.083Z" style="fill:#0e553f;fill-rule:evenodd"/><path d="M160.6625,50.599h-6.109V30.639h6.109Zm-3.086-22.562a3.33,3.33,0,1,1,.06-6.654,3.33,3.33,0,1,1-.06,6.654Z" style="fill:#0e553f;fill-rule:evenodd"/><path d="M165.6225,36.99c0-2.483-.061-4.537-.183-6.351h5.385l.303,2.781h.12a7.011,7.011,0,0,1,6.109-3.267c4.053,0,7.079,2.783,7.079,8.652V50.599h-6.171V39.528c0-2.538-.847-4.294-3.085-4.294a3.4593,3.4593,0,0,0-3.205,2.3,5.8206,5.8206,0,0,0-.183,1.574V50.599h-6.169V36.99" style="fill:#0e553f;fill-rule:evenodd"/><path d="M196.0485,25.193v5.446h4.415v4.595h-4.415v7.26c0,2.418.605,3.507,2.421,3.507a7.2454,7.2454,0,0,0,1.814-.18l.061,4.718a12.2791,12.2791,0,0,1-3.992.544,6.7851,6.7851,0,0,1-4.658-1.693C190.5465,48.178,190,46.245,190,43.4V35.234h-2.6V30.639H190V26.887l6.048-1.694" style="fill:#0e553f;fill-rule:evenodd"/><rect x="0.0005" y="55.916" width="200.163" height="1" style="fill:#0e553f"/><path d="M202.6835,26.743v.937h.64a.7965.7965,0,0,0,.492-.113.4461.4461,0,0,0,.143-.373.4073.4073,0,0,0-.135-.349.8847.8847,0,0,0-.5-.102h-.64m-.366-.324h1.069a2.0814,2.0814,0,0,1,.385.026l.218.071a.6566.6566,0,0,1,.268.267.85.85,0,0,1,.088.402.7334.7334,0,0,1-.094.382.6632.6632,0,0,1-.285.248.3858.3858,0,0,1,.23.152.8054.8054,0,0,1,.086.362l.03.456a.7081.7081,0,0,0,.039.216l.088.105v.074h-.433a.925.925,0,0,1-.074-.37v-.009l-.023-.36a.5371.5371,0,0,0-.116-.361.9649.9649,0,0,0-.499-.08h-.607v1.18h-.37Z" style="fill:#0e553f"/><path d="M203.2945,25.769v.108a1.984,1.984,0,1,1-1.984,1.985,1.9873,1.9873,0,0,1,1.984-1.985v-.216a2.2005,2.2005,0,1,0,2.201,2.201,2.2035,2.2035,0,0,0-2.201-2.201v.108" style="fill:#0e553f"/><polyline points="8.742 61.564 3.857 61.564 3.857 63.522 8.344 63.522 8.344 64.979 3.857 64.979 3.857 68.078 0.742 68.078 0.742 60.099 8.742 60.099 8.742 61.564" style="fill:#0e553f"/><path d="M12.0655,61.48a2.6438,2.6438,0,0,1-1.265-.265c-.327-.177-.492-.391-.492-.648a.7406.7406,0,0,1,.492-.645,2.7758,2.7758,0,0,1,1.265-.251,2.7622,2.7622,0,0,1,1.269.251.7377.7377,0,0,1,.487.645.7535.7535,0,0,1-.487.657,2.7205,2.7205,0,0,1-1.269.256m1.505,6.598H10.5216V62.381H13.57Z" style="fill:#0e553f"/><path d="M25.4835,68.078h-3.04V64.913q0-1.326-1.641-1.325a2.2516,2.2516,0,0,0-1.302.351,1.0426,1.0426,0,0,0-.512.89v3.249h-3.049V62.381h3.049v.902h.039a4.4255,4.4255,0,0,1,3.175-1.042q3.2805,0,3.281,2.348v3.489" style="fill:#0e553f"/><path d="M35.9195,68.078h-2.886V67.26h-.038a4.085,4.085,0,0,1-2.943.957,4.59,4.59,0,0,1-2.263-.47,1.4119,1.4119,0,0,1-.824-1.254q0-1.6575,3.406-1.914l2.682-.207q0-.9345-1.756-.935a9.3331,9.3331,0,0,0-3.357.608V62.72a11.6981,11.6981,0,0,1,1.74-.333,15.5492,15.5492,0,0,1,2.014-.146q4.2255,0,4.225,2.431v3.406m-2.866-2.314v-.385l-1.795.133q-1.485.111-1.485.774a.56.56,0,0,0,.362.492,2.0663,2.0663,0,0,0,.978.193,2.5681,2.5681,0,0,0,1.399-.343A1.0017,1.0017,0,0,0,33.0535,65.764Z" style="fill:#0e553f"/><path d="M47.6775,68.078h-3.039V64.913q0-1.326-1.642-1.325a2.2494,2.2494,0,0,0-1.302.351,1.0426,1.0426,0,0,0-.512.89v3.249h-3.048V62.381h3.048v.902h.039a4.4255,4.4255,0,0,1,3.175-1.042q3.2805,0,3.281,2.348v3.489" style="fill:#0e553f"/><path d="M57.38,67.872a9.9284,9.9284,0,0,1-2.981.345,7.4512,7.4512,0,0,1-3.686-.796,2.3448,2.3448,0,0,1-1.409-2.052,2.5418,2.5418,0,0,1,1.51-2.289,8.311,8.311,0,0,1,4.038-.839,8.5109,8.5109,0,0,1,2.528.268v1.49a5.3452,5.3452,0,0,0-2.133-.411,4.15,4.15,0,0,0-2.079.444,1.3549,1.3549,0,0,0-.767,1.22,1.3238,1.3238,0,0,0,.734,1.187,3.9761,3.9761,0,0,0,2.017.432,6.2258,6.2258,0,0,0,2.228-.413v1.414" style="fill:#0e553f"/><path d="M60.7225,61.48a2.645,2.645,0,0,1-1.264-.265c-.327-.177-.491-.391-.491-.648a.7394.7394,0,0,1,.491-.645,3.3233,3.3233,0,0,1,2.534,0,.7389.7389,0,0,1,.488.645.7547.7547,0,0,1-.488.657,2.7221,2.7221,0,0,1-1.27.256m1.506,6.598H59.18V62.381h3.049Z" style="fill:#0e553f"/><path d="M72.8195,68.078h-2.886V67.26h-.039a4.0808,4.0808,0,0,1-2.942.957,4.59,4.59,0,0,1-2.263-.47,1.413,1.413,0,0,1-.825-1.254q0-1.6575,3.407-1.914l2.681-.207q0-.9345-1.755-.935a9.3253,9.3253,0,0,0-3.357.608V62.72a11.672,11.672,0,0,1,1.74-.333,15.547,15.547,0,0,1,2.013-.146q4.2255,0,4.226,2.431v3.406m-2.867-2.314v-.385l-1.794.133q-1.4865.111-1.485.774a.56.56,0,0,0,.361.492,2.0735,2.0735,0,0,0,.979.193,2.5681,2.5681,0,0,0,1.399-.343A1.0006,1.0006,0,0,0,69.9525,65.764Z" style="fill:#0e553f"/><rect x="75.0335" y="59.644" width="3.049" height="8.434" style="fill:#0e553f"/><path d="M95.9255,67.794a15.1071,15.1071,0,0,1-3.957.423,9.8207,9.8207,0,0,1-5.008-1.08,3.2457,3.2457,0,0,1-1.824-2.877,3.5308,3.5308,0,0,1,2.051-3.102,10.5087,10.5087,0,0,1,5.321-1.191,16.8383,16.8383,0,0,1,3.417.294v1.732a9.6246,9.6246,0,0,0-3.165-.48,6.1516,6.1516,0,0,0-3.146.706,2.1485,2.1485,0,0,0-1.196,1.914,2.08,2.08,0,0,0,1.128,1.845,5.8277,5.8277,0,0,0,3.04.686,10.4223,10.4223,0,0,0,3.339-.511v1.641" style="fill:#0e553f"/><path d="M104.2855,63.966a4.3345,4.3345,0,0,0-1.283-.173,2.5529,2.5529,0,0,0-1.554.42,1.3584,1.3584,0,0,0-.56,1.145v2.72H97.84V62.381h3.048v1.056h.039a2.8262,2.8262,0,0,1,2.605-1.156,3.329,3.329,0,0,1,.753.066v1.619" style="fill:#0e553f"/><path d="M114.3045,65.731h-6.446q.153,1.239,2.712,1.24a8.4512,8.4512,0,0,0,2.865-.445v1.268a12.323,12.323,0,0,1-3.56.423,7.4858,7.4858,0,0,1-3.715-.765,2.3628,2.3628,0,0,1-1.322-2.133,2.5138,2.5138,0,0,1,1.429-2.249,6.8863,6.8863,0,0,1,3.512-.829,6.3341,6.3341,0,0,1,3.343.74,2.2749,2.2749,0,0,1,1.182,2.009v.741m-2.828-1.081q0-1.2225-1.717-1.224a2.2567,2.2567,0,0,0-1.268.351,1.4031,1.4031,0,0,0-.652.873Z" style="fill:#0e553f"/><path d="M125.5885,68.078h-3.049v-.785h-.038a4.4733,4.4733,0,0,1-3.059.924,5.2806,5.2806,0,0,1-2.981-.754,2.3939,2.3939,0,0,1-1.129-2.105,2.62,2.62,0,0,1,1.245-2.265,5.674,5.674,0,0,1,3.262-.852,3.6085,3.6085,0,0,1,2.662.79h.038V59.644h3.049v8.434m-2.991-2.77v-.429a1.08,1.08,0,0,0-.559-.924,2.6108,2.6108,0,0,0-1.458-.367,2.45,2.45,0,0,0-1.581.46,1.5271,1.5271,0,0,0-.57,1.26,1.352,1.352,0,0,0,.55,1.156,2.52,2.52,0,0,0,1.526.407,2.4839,2.4839,0,0,0,1.509-.429A1.3406,1.3406,0,0,0,122.5975,65.308Z" style="fill:#0e553f"/><path d="M129.5015,61.48a2.6422,2.6422,0,0,1-1.264-.265c-.328-.177-.492-.391-.492-.648a.739.739,0,0,1,.492-.645,3.3207,3.3207,0,0,1,2.533,0,.7389.7389,0,0,1,.488.645.7546.7546,0,0,1-.488.657,2.7176,2.7176,0,0,1-1.269.256m1.506,6.598h-3.049V62.381h3.049Z" style="fill:#0e553f"/><path d="M139.3485,68.01a7.4418,7.4418,0,0,1-2.035.207q-3.2235,0-3.223-1.931V63.677h-1.602V62.381h1.602V61.152l3.04-.501v1.73h2.218v1.296H137.13v2.304q0,.89,1.225.89a3.2382,3.2382,0,0,0,.993-.163V68.01" style="fill:#0e553f"/><path d="M157.7015,64.622q0,3.594-5.807,3.595-5.637,0-5.635-3.512V60.099h3.126v4.63q0,1.935,2.625,1.935,2.5755,0,2.575-1.869V60.099h3.116v4.523" style="fill:#0e553f"/><path d="M169.7595,68.078H166.72V64.913q0-1.326-1.641-1.325a2.2527,2.2527,0,0,0-1.303.351,1.0437,1.0437,0,0,0-.511.89v3.249h-3.049V62.381h3.049v.902h.038a4.4271,4.4271,0,0,1,3.175-1.042q3.28,0,3.281,2.348v3.489" style="fill:#0e553f"/><path d="M173.5175,61.48a2.6422,2.6422,0,0,1-1.264-.265c-.327-.177-.492-.391-.492-.648a.7406.7406,0,0,1,.492-.645,3.3207,3.3207,0,0,1,2.533,0,.7389.7389,0,0,1,.488.645.7546.7546,0,0,1-.488.657,2.7176,2.7176,0,0,1-1.269.256m1.506,6.598h-3.049V62.381h3.049Z" style="fill:#0e553f"/><path d="M182.1,68.217a7.9193,7.9193,0,0,1-3.883-.799,2.42,2.42,0,0,1-1.414-2.166,2.4482,2.4482,0,0,1,1.468-2.213,8.3477,8.3477,0,0,1,3.965-.798,7.8419,7.8419,0,0,1,3.859.798,2.3891,2.3891,0,0,1,1.4,2.113,2.5029,2.5029,0,0,1-1.442,2.242,8.0148,8.0148,0,0,1-3.953.823m.077-4.629a2.8368,2.8368,0,0,0-1.678.429,1.4,1.4,0,0,0-.598,1.212q0,1.641,2.296,1.642,2.19,0,2.191-1.686Q184.3885,63.5875,182.1775,63.588Z" style="fill:#0e553f"/><path d="M198.82,68.078h-3.039V64.913q0-1.326-1.641-1.325a2.2527,2.2527,0,0,0-1.303.351,1.0437,1.0437,0,0,0-.511.89v3.249h-3.049V62.381h3.049v.902h.039a4.4212,4.4212,0,0,1,3.174-1.042q3.28,0,3.281,2.348v3.489" style="fill:#0e553f"/></svg>