<svg width="526" height="96" viewBox="0 0 526 96" fill="none" xmlns="http://www.w3.org/2000/svg">
<g clip-path="url(#clip0_622_1804)">
<path fill-rule="evenodd" clip-rule="evenodd" d="M30.7 0.0117188L29.85 4.94172H18.71L12.2 40.1617H5.01L11.46 4.94172H0.5L1.41 0.0117188H30.7Z" fill="#00A4E4"/>
<path fill-rule="evenodd" clip-rule="evenodd" d="M71.2369 12.0509L55.5969 40.1609H51.1369C49.9569 33.7009 49.2169 29.4709 48.9169 27.4909C48.6069 25.3409 48.3469 22.5509 48.1169 19.1109C47.0069 22.0209 45.5069 25.2509 43.6069 28.8109C41.8169 32.2109 39.7369 36.0009 37.3769 40.1609H32.9269L29.0469 11.8809L35.9569 10.9609C36.1469 13.4509 36.4669 17.4909 36.9269 23.0709C37.1869 26.2809 37.3069 29.4209 37.2669 32.4809C38.8269 28.5809 42.4069 21.5809 47.9969 11.4809H52.9669C54.2269 19.8609 55.0269 26.8509 55.3669 32.4809C58.1469 25.8609 61.6269 18.6909 65.8169 10.9609L71.2369 12.0509Z" fill="#00A4E4"/>
<path fill-rule="evenodd" clip-rule="evenodd" d="M92.5997 22.8991C92.5997 17.5391 90.8497 14.8691 87.3397 14.8691C85.1397 14.8691 83.2097 16.1891 81.5797 18.8491C79.9397 21.5091 79.1197 24.6391 79.1197 28.2291C79.1197 33.9291 80.9297 36.7791 84.5497 36.7791C86.3297 36.7791 87.9297 35.8991 89.3397 34.1391C91.5097 31.4291 92.5997 27.6791 92.5997 22.8991ZM99.7897 23.7591C99.7897 28.4991 98.2697 32.5291 95.2197 35.8591C92.1797 39.1891 88.4997 40.8491 84.1997 40.8491C80.6297 40.8491 77.6797 39.6191 75.3797 37.1491C73.0797 34.6791 71.9297 31.5391 71.9297 27.7191C71.9297 23.0491 73.5197 19.0591 76.6997 15.7491C79.8697 12.4491 83.6897 10.7891 88.1397 10.7891C91.5297 10.7891 94.3197 12.0091 96.5097 14.4291C98.6997 16.8591 99.7897 19.9691 99.7897 23.7591Z" fill="#00A4E4"/>
<path fill-rule="evenodd" clip-rule="evenodd" d="M156.708 0.0117188L149.287 40.1617H142.098L145.747 20.5417H130.787L127.137 40.1617H119.938L127.367 0.0117188H134.557L131.647 15.6117H146.667L149.518 0.0117188H156.708Z" fill="#00A4E4"/>
<path fill-rule="evenodd" clip-rule="evenodd" d="M180.702 19.7291C180.702 18.3591 180.262 17.2491 179.382 16.4091C178.512 15.5691 177.382 15.1491 176.012 15.1491C173.502 15.1491 171.362 16.5891 169.592 19.4691C167.822 22.3491 166.942 25.8091 166.942 29.8491C166.942 34.0491 168.292 36.1491 170.992 36.1491C173.652 36.1491 176.012 34.1591 178.072 30.1991C179.822 26.8391 180.702 23.3491 180.702 19.7291ZM189.262 11.4791L183.892 40.1591H177.162L178.072 35.3391C175.862 37.4491 174.052 38.8891 172.642 39.6791C171.242 40.4591 169.682 40.8491 167.962 40.8491C165.412 40.8491 163.402 39.8591 161.942 37.8691C160.472 35.8791 159.742 33.1791 159.742 29.7791C159.742 24.6891 161.282 20.2591 164.372 16.4691C167.452 12.6791 171.052 10.7891 175.162 10.7891C178.052 10.7891 180.302 12.1091 181.902 14.7491L182.522 11.4791H189.262Z" fill="#00A4E4"/>
<path fill-rule="evenodd" clip-rule="evenodd" d="M215.467 12.9691L212.157 18.1391C211.167 17.7491 210.247 17.5591 209.417 17.5591C207.357 17.5591 205.667 18.5591 204.337 20.5391C203.267 22.1891 202.407 24.7091 201.757 28.1191L199.537 40.1591H192.797L198.047 11.4791H204.847L203.817 16.9291L205.987 14.1191C207.697 11.8991 209.397 10.7891 211.067 10.7891C212.557 10.7891 214.017 11.5191 215.467 12.9691Z" fill="#00A4E4"/>
<path fill-rule="evenodd" clip-rule="evenodd" d="M236.653 22C236.653 17.66 235.243 15.5 232.433 15.5C230.033 15.5 227.803 17.38 225.753 21.13C224.073 24.2 222.913 28.34 222.263 33.56C223.523 35.59 225.253 36.61 227.463 36.61C229.893 36.61 232.033 35.14 233.883 32.21C235.733 29.27 236.653 25.87 236.653 22ZM243.853 21.81C243.853 27.35 241.963 32.17 238.193 36.26C235.373 39.32 232.203 40.85 228.663 40.85C225.923 40.85 223.523 39.82 221.463 37.75L221.013 40.16H214.273L222.033 -2H228.773L225.293 16.93C227.153 14.71 228.873 13.14 230.433 12.2C231.993 11.26 233.683 10.79 235.513 10.79C238.133 10.79 240.183 11.76 241.653 13.69C243.113 15.62 243.853 18.33 243.853 21.81Z" fill="#00A4E4"/>
<path fill-rule="evenodd" clip-rule="evenodd" d="M268.74 22.8991C268.74 17.5391 266.99 14.8691 263.49 14.8691C261.28 14.8691 259.36 16.1891 257.72 18.8491C256.08 21.5091 255.26 24.6391 255.26 28.2291C255.26 33.9291 257.07 36.7791 260.69 36.7791C262.48 36.7791 264.08 35.8991 265.49 34.1391C267.66 31.4291 268.74 27.6791 268.74 22.8991ZM275.93 23.7591C275.93 28.4991 274.41 32.5291 271.37 35.8591C268.32 39.1891 264.65 40.8491 260.35 40.8491C256.77 40.8491 253.83 39.6191 251.52 37.1491C249.22 34.6791 248.07 31.5391 248.07 27.7191C248.07 23.0491 249.66 19.0591 252.84 15.7491C256.02 12.4491 259.83 10.7891 264.29 10.7891C267.67 10.7891 270.46 12.0091 272.65 14.4291C274.84 16.8591 275.93 19.9691 275.93 23.7591Z" fill="#00A4E4"/>
<path fill-rule="evenodd" clip-rule="evenodd" d="M302.662 12.9691L299.342 18.1391C298.352 17.7491 297.442 17.5591 296.602 17.5591C294.552 17.5591 292.852 18.5591 291.522 20.5391C290.462 22.1891 289.602 24.7091 288.952 28.1191L286.722 40.1591H279.992L285.242 11.4791H292.042L291.012 16.9291L293.182 14.1191C294.892 11.8991 296.582 10.7891 298.262 10.7891C299.742 10.7891 301.212 11.5191 302.662 12.9691Z" fill="#00A4E4"/>
<path fill-rule="evenodd" clip-rule="evenodd" d="M321.378 13.2591L318.868 16.7591C317.348 15.6091 315.878 15.0391 314.468 15.0391C313.408 15.0391 312.538 15.3191 311.878 15.8991C311.208 16.4691 310.878 17.2191 310.878 18.1391C310.878 18.9791 311.308 19.9891 312.188 21.1791L314.418 23.7591C316.198 25.8591 317.418 27.5191 318.068 28.7491C318.718 29.9691 319.038 31.2291 319.038 32.5291C319.038 34.9091 317.988 36.8891 315.898 38.4691C313.808 40.0591 311.178 40.8491 308.018 40.8491C304.938 40.8491 302.058 40.0491 299.398 38.4391L301.568 34.0291C303.698 35.6291 305.738 36.4391 307.678 36.4391C309.008 36.4391 310.078 36.0991 310.878 35.4291C311.678 34.7591 312.068 33.8491 312.068 32.7091C312.068 31.8691 311.858 31.0791 311.418 30.3491C310.978 29.6291 309.938 28.3291 308.308 26.4491C306.558 24.4691 305.388 22.9491 304.798 21.8891C304.208 20.8391 303.908 19.6991 303.908 18.4791C303.908 16.3391 304.838 14.5191 306.708 13.0291C308.568 11.5391 310.878 10.7891 313.618 10.7891C316.318 10.7891 318.908 11.6091 321.378 13.2591Z" fill="#00A4E4"/>
<path fill-rule="evenodd" clip-rule="evenodd" d="M367.001 0.0117188L366.091 4.94172H354.101L351.761 17.6217H363.461L362.611 22.6117H350.841L347.591 40.1617H340.391L347.821 0.0117188H367.001Z" fill="#00A4E4"/>
<path fill-rule="evenodd" clip-rule="evenodd" d="M385.899 18.0791C385.899 17.1191 385.609 16.3491 385.039 15.7491C384.469 15.1591 383.709 14.8691 382.759 14.8691C380.779 14.8691 378.879 15.8191 377.049 17.7291C375.599 19.2591 374.519 21.3491 373.799 23.9891C376.159 23.9891 377.449 23.9091 377.679 23.7591C380.039 23.5991 381.999 22.9891 383.559 21.9191C385.119 20.8491 385.899 19.5691 385.899 18.0791ZM392.069 17.6191C392.069 20.6391 390.519 23.0991 387.409 24.9891C384.309 26.8791 380.209 27.8291 375.109 27.8291H373.169V29.0291C373.169 33.7791 375.169 36.1491 379.159 36.1491C381.249 36.1491 383.769 35.3591 386.699 33.7991L388.469 37.2991C384.169 39.6691 380.189 40.8491 376.539 40.8491C373.219 40.8491 370.709 39.9691 368.999 38.2091C366.979 36.1491 365.969 33.3591 365.969 29.8391C365.969 24.7891 367.779 20.3491 371.399 16.5291C375.009 12.7091 379.199 10.7891 383.959 10.7891C386.429 10.7891 388.399 11.4091 389.869 12.6591C391.329 13.8991 392.069 15.5491 392.069 17.6191Z" fill="#00A4E4"/>
<path fill-rule="evenodd" clip-rule="evenodd" d="M415.591 19.73C415.591 18.36 415.161 17.25 414.311 16.41C413.451 15.57 412.341 15.15 410.961 15.15C408.411 15.15 406.251 16.59 404.491 19.47C402.711 22.35 401.831 25.81 401.831 29.85C401.831 34.05 403.201 36.15 405.941 36.15C408.571 36.15 410.911 34.16 412.961 30.2C414.711 26.84 415.591 23.35 415.591 19.73ZM426.721 -2L418.841 40.16H412.111L413.021 35.34C410.851 37.45 409.061 38.89 407.651 39.68C406.251 40.46 404.671 40.85 402.911 40.85C400.361 40.85 398.351 39.86 396.861 37.87C395.381 35.88 394.641 33.18 394.641 29.78C394.641 24.69 396.191 20.26 399.291 16.47C402.391 12.68 406.001 10.79 410.111 10.79C412.961 10.79 415.191 12.11 416.791 14.75L419.871 -2H426.721Z" fill="#00A4E4"/>
<path fill-rule="evenodd" clip-rule="evenodd" d="M447.789 18.0791C447.789 17.1191 447.509 16.3491 446.939 15.7491C446.359 15.1591 445.599 14.8691 444.649 14.8691C442.669 14.8691 440.769 15.8191 438.939 17.7291C437.489 19.2591 436.409 21.3491 435.689 23.9891C438.049 23.9891 439.339 23.9091 439.569 23.7591C441.929 23.5991 443.889 22.9891 445.449 21.9191C447.009 20.8491 447.789 19.5691 447.789 18.0791ZM453.959 17.6191C453.959 20.6391 452.409 23.0991 449.309 24.9891C446.199 26.8791 442.099 27.8291 436.999 27.8291H435.059V29.0291C435.059 33.7791 437.059 36.1491 441.059 36.1491C443.149 36.1491 445.659 35.3591 448.589 33.7991L450.359 37.2991C446.059 39.6691 442.079 40.8491 438.429 40.8491C435.119 40.8491 432.599 39.9691 430.889 38.2091C428.869 36.1491 427.859 33.3591 427.859 29.8391C427.859 24.7891 429.669 20.3491 433.289 16.5291C436.909 12.7091 441.089 10.7891 445.849 10.7891C448.319 10.7891 450.289 11.4091 451.759 12.6591C453.229 13.8991 453.959 15.5491 453.959 17.6191Z" fill="#00A4E4"/>
<path fill-rule="evenodd" clip-rule="evenodd" d="M478.912 12.9691L475.602 18.1391C474.612 17.7491 473.692 17.5591 472.862 17.5591C470.802 17.5591 469.112 18.5591 467.782 20.5391C466.712 22.1891 465.852 24.7091 465.212 28.1191L462.982 40.1591H456.242L461.492 11.4791H468.292L467.262 16.9291L469.432 14.1191C471.142 11.8991 472.842 10.7891 474.512 10.7891C476.002 10.7891 477.462 11.5191 478.912 12.9691Z" fill="#00A4E4"/>
<path fill-rule="evenodd" clip-rule="evenodd" d="M498.95 19.7291C498.95 18.3591 498.51 17.2491 497.64 16.4091C496.76 15.5691 495.64 15.1491 494.27 15.1491C491.76 15.1491 489.62 16.5891 487.85 19.4691C486.08 22.3491 485.19 25.8091 485.19 29.8491C485.19 34.0491 486.54 36.1491 489.24 36.1491C491.91 36.1491 494.27 34.1591 496.33 30.1991C498.08 26.8391 498.95 23.3491 498.95 19.7291ZM507.52 11.4791L502.15 40.1591H495.41L496.33 35.3391C494.12 37.4491 492.31 38.8891 490.9 39.6791C489.49 40.4591 487.93 40.8491 486.22 40.8491C483.67 40.8491 481.66 39.8591 480.2 37.8691C478.73 35.8791 478 33.1791 478 29.7791C478 24.6891 479.54 20.2591 482.62 16.4691C485.7 12.6791 489.3 10.7891 493.41 10.7891C496.3 10.7891 498.55 12.1091 500.15 14.7491L500.78 11.4791H507.52Z" fill="#00A4E4"/>
<path fill-rule="evenodd" clip-rule="evenodd" d="M525.5 -1.94141L517.74 40.1586H511L518.82 -1.94141H525.5Z" fill="#00A4E4"/>
<path d="M241.683 53.9282L241.663 53.9182C215.483 53.1082 187.993 59.5682 161.333 66.3682C134.893 72.9982 116.183 80.8482 81.3626 82.1582C38.5226 84.0082 7.93259 61.7982 10.8126 57.8282C13.3826 53.6982 30.1626 72.2682 90.2126 71.5082C112.973 71.0982 142.653 62.8082 162.993 58.8582C183.203 54.9182 204.063 51.1982 224.073 50.8482H224.083C244.553 50.4882 261.823 53.6082 277.433 60.3282C266.413 56.4382 254.623 54.3282 241.683 53.9282Z" fill="#00A4E4"/>
<path d="M79.7728 87.0702C107.933 86.3202 133.353 78.8302 165.493 69.9602C193.783 62.1502 223.583 57.4102 250.753 60.4402L251.823 60.5602C223.523 58.5902 193.573 65.9602 164.403 73.9102C132.303 82.6502 101.393 96.5402 70.5628 95.4402C42.5128 94.8702 15.6528 76.4402 17.4528 73.1802C19.2728 69.7702 35.8328 88.0402 79.7728 87.0702Z" fill="#00A4E4"/>
<path fill-rule="evenodd" clip-rule="evenodd" d="M312.301 57.94L310.241 60.91C308.511 60.15 306.861 59.77 305.301 59.77C302.031 59.77 299.381 60.88 297.341 63.09C295.311 65.3 294.291 68.1 294.291 71.49C294.291 74.42 295.091 76.76 296.701 78.53C298.301 80.29 300.431 81.17 303.071 81.17C304.581 81.17 306.181 80.87 307.851 80.27L308.941 83.77C306.681 84.72 304.341 85.2 301.941 85.2C298.351 85.2 295.351 84.13 292.951 81.98C290.171 79.52 288.781 76.15 288.781 71.9C288.781 67.37 290.351 63.54 293.481 60.42C296.611 57.31 300.441 55.75 304.981 55.75C307.701 55.75 310.141 56.48 312.301 57.94Z" fill="#6C6D6F"/>
<path fill-rule="evenodd" clip-rule="evenodd" d="M329.781 65.4289L327.441 69.0889C326.731 68.8189 326.081 68.6789 325.491 68.6789C324.031 68.6789 322.831 69.3889 321.891 70.7989C321.131 71.9589 320.521 73.7489 320.071 76.1689L318.491 84.7089H313.711L317.431 64.3689H322.251L321.521 68.2289L323.061 66.2389C324.281 64.6689 325.481 63.8789 326.661 63.8789C327.721 63.8789 328.761 64.3989 329.781 65.4289Z" fill="#6C6D6F"/>
<path fill-rule="evenodd" clip-rule="evenodd" d="M343.099 69.0489C343.099 68.3689 342.899 67.8189 342.499 67.3989C342.089 66.9789 341.549 66.7689 340.879 66.7689C339.469 66.7689 338.119 67.4489 336.829 68.7989C335.799 69.8889 335.029 71.3689 334.519 73.2389C336.189 73.2389 337.109 73.1789 337.269 73.0689C338.949 72.9689 340.339 72.5289 341.439 71.7689C342.549 71.0089 343.099 70.1089 343.099 69.0489ZM347.479 68.7189C347.479 70.8589 346.379 72.6089 344.179 73.9489C341.979 75.2889 339.069 75.9589 335.449 75.9589H334.069V76.8189C334.069 80.1789 335.489 81.8589 338.329 81.8589C339.809 81.8589 341.589 81.3089 343.669 80.1889L344.919 82.6689C341.879 84.3589 339.059 85.1989 336.459 85.1989C334.119 85.1989 332.329 84.5689 331.119 83.3289C329.689 81.8589 328.969 79.8789 328.969 77.3889C328.969 73.8089 330.259 70.6589 332.819 67.9489C335.379 65.2389 338.349 63.8789 341.729 63.8789C343.479 63.8789 344.879 64.3189 345.919 65.1989C346.959 66.0889 347.479 67.2589 347.479 68.7189Z" fill="#6C6D6F"/>
<path fill-rule="evenodd" clip-rule="evenodd" d="M364.157 70.2186C364.157 69.2486 363.847 68.4586 363.237 67.8686C362.637 67.2686 361.847 66.9686 360.877 66.9686C359.067 66.9686 357.537 67.9986 356.277 70.0386C355.027 72.0786 354.397 74.5286 354.397 77.3986C354.397 80.3686 355.367 81.8586 357.307 81.8586C359.177 81.8586 360.837 80.4586 362.287 77.6386C363.527 75.2586 364.157 72.7886 364.157 70.2186ZM372.047 54.8086L366.457 84.7086H361.687L362.327 81.2886C360.797 82.7786 359.527 83.8086 358.527 84.3586C357.527 84.9186 356.407 85.1986 355.167 85.1986C353.357 85.1986 351.927 84.4886 350.877 83.0786C349.817 81.6686 349.297 79.7586 349.297 77.3486C349.297 73.7386 350.397 70.5886 352.597 67.9086C354.797 65.2186 357.347 63.8786 360.267 63.8786C362.287 63.8786 363.867 64.8186 365.007 66.6886L367.187 54.8086H372.047Z" fill="#6C6D6F"/>
<path fill-rule="evenodd" clip-rule="evenodd" d="M383.557 57.7387C383.557 58.6887 383.247 59.4988 382.627 60.1588C382.007 60.8288 381.237 61.1588 380.317 61.1588C379.587 61.1588 378.997 60.9187 378.557 60.4487C378.107 59.9687 377.887 59.3487 377.887 58.5887C377.887 57.6487 378.197 56.8388 378.817 56.1888C379.437 55.5388 380.207 55.2188 381.127 55.2188C381.827 55.2188 382.407 55.4587 382.867 55.9287C383.327 56.3987 383.557 57.0087 383.557 57.7387ZM382.017 64.3688L378.257 84.7087H373.477L377.237 64.3688H382.017Z" fill="#6C6D6F"/>
<path fill-rule="evenodd" clip-rule="evenodd" d="M399.123 64.3705L398.633 67.1405H393.773L391.913 76.9505C391.613 78.5205 391.463 79.5505 391.463 80.0305C391.463 81.3305 392.083 81.9805 393.333 81.9805C394.033 81.9805 394.933 81.7905 396.043 81.4105L396.323 84.0605C394.623 84.8205 392.923 85.2005 391.223 85.2005C388.093 85.2005 386.523 83.8905 386.523 81.2605C386.523 80.8805 386.733 79.5805 387.133 77.3605L388.993 67.1405H386.523L387.013 64.3705H389.563L390.453 59.4505L395.393 58.2305L394.263 64.3705H399.123Z" fill="#6C6D6F"/>
<path fill-rule="evenodd" clip-rule="evenodd" d="M434.671 56.2305L431.711 72.0605C431.231 74.6905 430.731 76.6505 430.221 77.9405C429.701 79.2205 428.961 80.4105 427.991 81.4905C425.781 83.9605 422.861 85.2005 419.241 85.2005C416.521 85.2005 414.371 84.5305 412.811 83.1805C411.241 81.8405 410.461 80.0005 410.461 77.6705C410.461 76.3205 410.741 74.0905 411.311 71.0005L414.021 56.2305H419.121L416.331 71.4105C415.871 73.9005 415.641 75.6805 415.641 76.7305C415.641 78.0905 416.031 79.1705 416.821 79.9705C417.601 80.7705 418.651 81.1705 419.971 81.1705C422.541 81.1705 424.401 79.9605 425.561 77.5505C426.261 76.1105 426.831 74.1705 427.261 71.7305L430.101 56.2305H434.671Z" fill="#6C6D6F"/>
<path fill-rule="evenodd" clip-rule="evenodd" d="M454.87 68.0289C454.87 68.6789 454.72 69.8089 454.42 71.4089L451.95 84.7089H447.18L449.44 72.4589C449.71 70.9989 449.85 70.0789 449.85 69.6989C449.85 68.2289 449.11 67.4989 447.62 67.4989C446.08 67.4989 444.62 68.3689 443.25 70.1089C441.87 71.8389 440.91 74.1289 440.38 76.9789L438.92 84.7089H434.18L437.91 64.3689H442.72L441.83 69.0889C444.37 65.6189 447.18 63.8789 450.25 63.8789C451.68 63.8789 452.81 64.2589 453.63 64.9989C454.46 65.7489 454.87 66.7589 454.87 68.0289Z" fill="#6C6D6F"/>
<path fill-rule="evenodd" clip-rule="evenodd" d="M467.949 57.7387C467.949 58.6887 467.639 59.4988 467.019 60.1588C466.389 60.8288 465.619 61.1588 464.709 61.1588C463.979 61.1588 463.389 60.9187 462.949 60.4487C462.499 59.9687 462.279 59.3487 462.279 58.5887C462.279 57.6487 462.589 56.8388 463.209 56.1888C463.829 55.5388 464.599 55.2188 465.519 55.2188C466.219 55.2188 466.799 55.4587 467.259 55.9287C467.719 56.3987 467.949 57.0087 467.949 57.7387ZM466.409 64.3688L462.639 84.7087H457.859L461.629 64.3688H466.409Z" fill="#6C6D6F"/>
<path fill-rule="evenodd" clip-rule="evenodd" d="M484.004 72.4589C484.004 68.6689 482.764 66.7689 480.284 66.7689C478.714 66.7689 477.354 67.7089 476.194 69.5989C475.034 71.4789 474.454 73.6989 474.454 76.2489C474.454 80.2889 475.734 82.3089 478.294 82.3089C479.564 82.3089 480.694 81.6889 481.694 80.4389C483.234 78.5089 484.004 75.8489 484.004 72.4589ZM489.104 73.0689C489.104 76.4389 488.024 79.2989 485.864 81.6589C483.704 84.0189 481.104 85.1989 478.054 85.1989C475.514 85.1989 473.434 84.3189 471.794 82.5689C470.164 80.8189 469.344 78.5889 469.344 75.8789C469.344 72.5689 470.474 69.7489 472.734 67.3989C474.984 65.0589 477.684 63.8789 480.844 63.8789C483.244 63.8789 485.224 64.7389 486.774 66.4589C488.324 68.1889 489.104 70.3889 489.104 73.0689Z" fill="#6C6D6F"/>
<path fill-rule="evenodd" clip-rule="evenodd" d="M511.971 68.0289C511.971 68.6789 511.821 69.8089 511.521 71.4089L509.051 84.7089H504.281L506.541 72.4589C506.811 70.9989 506.951 70.0789 506.951 69.6989C506.951 68.2289 506.201 67.4989 504.721 67.4989C503.181 67.4989 501.721 68.3689 500.351 70.1089C498.971 71.8389 498.011 74.1289 497.471 76.9789L496.021 84.7089H491.281L495.001 64.3689H499.821L498.931 69.0889C501.471 65.6189 504.281 63.8789 507.351 63.8789C508.781 63.8789 509.911 64.2589 510.731 64.9989C511.561 65.7489 511.971 66.7589 511.971 68.0289Z" fill="#6C6D6F"/>
<path fill-rule="evenodd" clip-rule="evenodd" d="M30.7 0.0117188L29.85 4.94172H18.71L12.2 40.1617H5.01L11.46 4.94172H0.5L1.41 0.0117188H30.7Z" fill="#00A4E4"/>
<path fill-rule="evenodd" clip-rule="evenodd" d="M71.2369 12.0509L55.5969 40.1609H51.1369C49.9569 33.7009 49.2169 29.4709 48.9169 27.4909C48.6069 25.3409 48.3469 22.5509 48.1169 19.1109C47.0069 22.0209 45.5069 25.2509 43.6069 28.8109C41.8169 32.2109 39.7369 36.0009 37.3769 40.1609H32.9269L29.0469 11.8809L35.9569 10.9609C36.1469 13.4509 36.4669 17.4909 36.9269 23.0709C37.1869 26.2809 37.3069 29.4209 37.2669 32.4809C38.8269 28.5809 42.4069 21.5809 47.9969 11.4809H52.9669C54.2269 19.8609 55.0269 26.8509 55.3669 32.4809C58.1469 25.8609 61.6269 18.6909 65.8169 10.9609L71.2369 12.0509Z" fill="#00A4E4"/>
<path fill-rule="evenodd" clip-rule="evenodd" d="M92.5997 22.8991C92.5997 17.5391 90.8497 14.8691 87.3397 14.8691C85.1397 14.8691 83.2097 16.1891 81.5797 18.8491C79.9397 21.5091 79.1197 24.6391 79.1197 28.2291C79.1197 33.9291 80.9297 36.7791 84.5497 36.7791C86.3297 36.7791 87.9297 35.8991 89.3397 34.1391C91.5097 31.4291 92.5997 27.6791 92.5997 22.8991ZM99.7897 23.7591C99.7897 28.4991 98.2697 32.5291 95.2197 35.8591C92.1797 39.1891 88.4997 40.8491 84.1997 40.8491C80.6297 40.8491 77.6797 39.6191 75.3797 37.1491C73.0797 34.6791 71.9297 31.5391 71.9297 27.7191C71.9297 23.0491 73.5197 19.0591 76.6997 15.7491C79.8697 12.4491 83.6897 10.7891 88.1397 10.7891C91.5297 10.7891 94.3197 12.0091 96.5097 14.4291C98.6997 16.8591 99.7897 19.9691 99.7897 23.7591Z" fill="#00A4E4"/>
<path fill-rule="evenodd" clip-rule="evenodd" d="M156.708 0.0117188L149.287 40.1617H142.098L145.747 20.5417H130.787L127.137 40.1617H119.938L127.367 0.0117188H134.557L131.647 15.6117H146.667L149.518 0.0117188H156.708Z" fill="#00A4E4"/>
<path fill-rule="evenodd" clip-rule="evenodd" d="M180.702 19.7291C180.702 18.3591 180.262 17.2491 179.382 16.4091C178.512 15.5691 177.382 15.1491 176.012 15.1491C173.502 15.1491 171.362 16.5891 169.592 19.4691C167.822 22.3491 166.942 25.8091 166.942 29.8491C166.942 34.0491 168.292 36.1491 170.992 36.1491C173.652 36.1491 176.012 34.1591 178.072 30.1991C179.822 26.8391 180.702 23.3491 180.702 19.7291ZM189.262 11.4791L183.892 40.1591H177.162L178.072 35.3391C175.862 37.4491 174.052 38.8891 172.642 39.6791C171.242 40.4591 169.682 40.8491 167.962 40.8491C165.412 40.8491 163.402 39.8591 161.942 37.8691C160.472 35.8791 159.742 33.1791 159.742 29.7791C159.742 24.6891 161.282 20.2591 164.372 16.4691C167.452 12.6791 171.052 10.7891 175.162 10.7891C178.052 10.7891 180.302 12.1091 181.902 14.7491L182.522 11.4791H189.262Z" fill="#00A4E4"/>
<path fill-rule="evenodd" clip-rule="evenodd" d="M215.467 12.9691L212.157 18.1391C211.167 17.7491 210.247 17.5591 209.417 17.5591C207.357 17.5591 205.667 18.5591 204.337 20.5391C203.267 22.1891 202.407 24.7091 201.757 28.1191L199.537 40.1591H192.797L198.047 11.4791H204.847L203.817 16.9291L205.987 14.1191C207.697 11.8991 209.397 10.7891 211.067 10.7891C212.557 10.7891 214.017 11.5191 215.467 12.9691Z" fill="#00A4E4"/>
<path fill-rule="evenodd" clip-rule="evenodd" d="M236.653 22C236.653 17.66 235.243 15.5 232.433 15.5C230.033 15.5 227.803 17.38 225.753 21.13C224.073 24.2 222.913 28.34 222.263 33.56C223.523 35.59 225.253 36.61 227.463 36.61C229.893 36.61 232.033 35.14 233.883 32.21C235.733 29.27 236.653 25.87 236.653 22ZM243.853 21.81C243.853 27.35 241.963 32.17 238.193 36.26C235.373 39.32 232.203 40.85 228.663 40.85C225.923 40.85 223.523 39.82 221.463 37.75L221.013 40.16H214.273L222.033 -2H228.773L225.293 16.93C227.153 14.71 228.873 13.14 230.433 12.2C231.993 11.26 233.683 10.79 235.513 10.79C238.133 10.79 240.183 11.76 241.653 13.69C243.113 15.62 243.853 18.33 243.853 21.81Z" fill="#00A4E4"/>
<path fill-rule="evenodd" clip-rule="evenodd" d="M268.74 22.8991C268.74 17.5391 266.99 14.8691 263.49 14.8691C261.28 14.8691 259.36 16.1891 257.72 18.8491C256.08 21.5091 255.26 24.6391 255.26 28.2291C255.26 33.9291 257.07 36.7791 260.69 36.7791C262.48 36.7791 264.08 35.8991 265.49 34.1391C267.66 31.4291 268.74 27.6791 268.74 22.8991ZM275.93 23.7591C275.93 28.4991 274.41 32.5291 271.37 35.8591C268.32 39.1891 264.65 40.8491 260.35 40.8491C256.77 40.8491 253.83 39.6191 251.52 37.1491C249.22 34.6791 248.07 31.5391 248.07 27.7191C248.07 23.0491 249.66 19.0591 252.84 15.7491C256.02 12.4491 259.83 10.7891 264.29 10.7891C267.67 10.7891 270.46 12.0091 272.65 14.4291C274.84 16.8591 275.93 19.9691 275.93 23.7591Z" fill="#00A4E4"/>
<path fill-rule="evenodd" clip-rule="evenodd" d="M302.662 12.9691L299.342 18.1391C298.352 17.7491 297.442 17.5591 296.602 17.5591C294.552 17.5591 292.852 18.5591 291.522 20.5391C290.462 22.1891 289.602 24.7091 288.952 28.1191L286.722 40.1591H279.992L285.242 11.4791H292.042L291.012 16.9291L293.182 14.1191C294.892 11.8991 296.582 10.7891 298.262 10.7891C299.742 10.7891 301.212 11.5191 302.662 12.9691Z" fill="#00A4E4"/>
<path fill-rule="evenodd" clip-rule="evenodd" d="M321.378 13.2591L318.868 16.7591C317.348 15.6091 315.878 15.0391 314.468 15.0391C313.408 15.0391 312.538 15.3191 311.878 15.8991C311.208 16.4691 310.878 17.2191 310.878 18.1391C310.878 18.9791 311.308 19.9891 312.188 21.1791L314.418 23.7591C316.198 25.8591 317.418 27.5191 318.068 28.7491C318.718 29.9691 319.038 31.2291 319.038 32.5291C319.038 34.9091 317.988 36.8891 315.898 38.4691C313.808 40.0591 311.178 40.8491 308.018 40.8491C304.938 40.8491 302.058 40.0491 299.398 38.4391L301.568 34.0291C303.698 35.6291 305.738 36.4391 307.678 36.4391C309.008 36.4391 310.078 36.0991 310.878 35.4291C311.678 34.7591 312.068 33.8491 312.068 32.7091C312.068 31.8691 311.858 31.0791 311.418 30.3491C310.978 29.6291 309.938 28.3291 308.308 26.4491C306.558 24.4691 305.388 22.9491 304.798 21.8891C304.208 20.8391 303.908 19.6991 303.908 18.4791C303.908 16.3391 304.838 14.5191 306.708 13.0291C308.568 11.5391 310.878 10.7891 313.618 10.7891C316.318 10.7891 318.908 11.6091 321.378 13.2591Z" fill="#00A4E4"/>
<path fill-rule="evenodd" clip-rule="evenodd" d="M367.001 0.0117188L366.091 4.94172H354.101L351.761 17.6217H363.461L362.611 22.6117H350.841L347.591 40.1617H340.391L347.821 0.0117188H367.001Z" fill="#00A4E4"/>
<path fill-rule="evenodd" clip-rule="evenodd" d="M385.899 18.0791C385.899 17.1191 385.609 16.3491 385.039 15.7491C384.469 15.1591 383.709 14.8691 382.759 14.8691C380.779 14.8691 378.879 15.8191 377.049 17.7291C375.599 19.2591 374.519 21.3491 373.799 23.9891C376.159 23.9891 377.449 23.9091 377.679 23.7591C380.039 23.5991 381.999 22.9891 383.559 21.9191C385.119 20.8491 385.899 19.5691 385.899 18.0791ZM392.069 17.6191C392.069 20.6391 390.519 23.0991 387.409 24.9891C384.309 26.8791 380.209 27.8291 375.109 27.8291H373.169V29.0291C373.169 33.7791 375.169 36.1491 379.159 36.1491C381.249 36.1491 383.769 35.3591 386.699 33.7991L388.469 37.2991C384.169 39.6691 380.189 40.8491 376.539 40.8491C373.219 40.8491 370.709 39.9691 368.999 38.2091C366.979 36.1491 365.969 33.3591 365.969 29.8391C365.969 24.7891 367.779 20.3491 371.399 16.5291C375.009 12.7091 379.199 10.7891 383.959 10.7891C386.429 10.7891 388.399 11.4091 389.869 12.6591C391.329 13.8991 392.069 15.5491 392.069 17.6191Z" fill="#00A4E4"/>
<path fill-rule="evenodd" clip-rule="evenodd" d="M415.591 19.73C415.591 18.36 415.161 17.25 414.311 16.41C413.451 15.57 412.341 15.15 410.961 15.15C408.411 15.15 406.251 16.59 404.491 19.47C402.711 22.35 401.831 25.81 401.831 29.85C401.831 34.05 403.201 36.15 405.941 36.15C408.571 36.15 410.911 34.16 412.961 30.2C414.711 26.84 415.591 23.35 415.591 19.73ZM426.721 -2L418.841 40.16H412.111L413.021 35.34C410.851 37.45 409.061 38.89 407.651 39.68C406.251 40.46 404.671 40.85 402.911 40.85C400.361 40.85 398.351 39.86 396.861 37.87C395.381 35.88 394.641 33.18 394.641 29.78C394.641 24.69 396.191 20.26 399.291 16.47C402.391 12.68 406.001 10.79 410.111 10.79C412.961 10.79 415.191 12.11 416.791 14.75L419.871 -2H426.721Z" fill="#00A4E4"/>
<path fill-rule="evenodd" clip-rule="evenodd" d="M447.789 18.0791C447.789 17.1191 447.509 16.3491 446.939 15.7491C446.359 15.1591 445.599 14.8691 444.649 14.8691C442.669 14.8691 440.769 15.8191 438.939 17.7291C437.489 19.2591 436.409 21.3491 435.689 23.9891C438.049 23.9891 439.339 23.9091 439.569 23.7591C441.929 23.5991 443.889 22.9891 445.449 21.9191C447.009 20.8491 447.789 19.5691 447.789 18.0791ZM453.959 17.6191C453.959 20.6391 452.409 23.0991 449.309 24.9891C446.199 26.8791 442.099 27.8291 436.999 27.8291H435.059V29.0291C435.059 33.7791 437.059 36.1491 441.059 36.1491C443.149 36.1491 445.659 35.3591 448.589 33.7991L450.359 37.2991C446.059 39.6691 442.079 40.8491 438.429 40.8491C435.119 40.8491 432.599 39.9691 430.889 38.2091C428.869 36.1491 427.859 33.3591 427.859 29.8391C427.859 24.7891 429.669 20.3491 433.289 16.5291C436.909 12.7091 441.089 10.7891 445.849 10.7891C448.319 10.7891 450.289 11.4091 451.759 12.6591C453.229 13.8991 453.959 15.5491 453.959 17.6191Z" fill="#00A4E4"/>
<path fill-rule="evenodd" clip-rule="evenodd" d="M478.912 12.9691L475.602 18.1391C474.612 17.7491 473.692 17.5591 472.862 17.5591C470.802 17.5591 469.112 18.5591 467.782 20.5391C466.712 22.1891 465.852 24.7091 465.212 28.1191L462.982 40.1591H456.242L461.492 11.4791H468.292L467.262 16.9291L469.432 14.1191C471.142 11.8991 472.842 10.7891 474.512 10.7891C476.002 10.7891 477.462 11.5191 478.912 12.9691Z" fill="#00A4E4"/>
<path fill-rule="evenodd" clip-rule="evenodd" d="M498.95 19.7291C498.95 18.3591 498.51 17.2491 497.64 16.4091C496.76 15.5691 495.64 15.1491 494.27 15.1491C491.76 15.1491 489.62 16.5891 487.85 19.4691C486.08 22.3491 485.19 25.8091 485.19 29.8491C485.19 34.0491 486.54 36.1491 489.24 36.1491C491.91 36.1491 494.27 34.1591 496.33 30.1991C498.08 26.8391 498.95 23.3491 498.95 19.7291ZM507.52 11.4791L502.15 40.1591H495.41L496.33 35.3391C494.12 37.4491 492.31 38.8891 490.9 39.6791C489.49 40.4591 487.93 40.8491 486.22 40.8491C483.67 40.8491 481.66 39.8591 480.2 37.8691C478.73 35.8791 478 33.1791 478 29.7791C478 24.6891 479.54 20.2591 482.62 16.4691C485.7 12.6791 489.3 10.7891 493.41 10.7891C496.3 10.7891 498.55 12.1091 500.15 14.7491L500.78 11.4791H507.52Z" fill="#00A4E4"/>
<path fill-rule="evenodd" clip-rule="evenodd" d="M525.5 -1.94141L517.74 40.1586H511L518.82 -1.94141H525.5Z" fill="#00A4E4"/>
<path d="M241.683 53.9282L241.663 53.9182C215.483 53.1082 187.993 59.5682 161.333 66.3682C134.893 72.9982 116.183 80.8482 81.3626 82.1582C38.5226 84.0082 7.93259 61.7982 10.8126 57.8282C13.3826 53.6982 30.1626 72.2682 90.2126 71.5082C112.973 71.0982 142.653 62.8082 162.993 58.8582C183.203 54.9182 204.063 51.1982 224.073 50.8482H224.083C244.553 50.4882 261.823 53.6082 277.433 60.3282C266.413 56.4382 254.623 54.3282 241.683 53.9282Z" fill="#00A4E4"/>
<path d="M79.7728 87.0702C107.933 86.3202 133.353 78.8302 165.493 69.9602C193.783 62.1502 223.583 57.4102 250.753 60.4402L251.823 60.5602C223.523 58.5902 193.573 65.9602 164.403 73.9102C132.303 82.6502 101.393 96.5402 70.5628 95.4402C42.5128 94.8702 15.6528 76.4402 17.4528 73.1802C19.2728 69.7702 35.8328 88.0402 79.7728 87.0702Z" fill="#00A4E4"/>
<path fill-rule="evenodd" clip-rule="evenodd" d="M312.301 57.94L310.241 60.91C308.511 60.15 306.861 59.77 305.301 59.77C302.031 59.77 299.381 60.88 297.341 63.09C295.311 65.3 294.291 68.1 294.291 71.49C294.291 74.42 295.091 76.76 296.701 78.53C298.301 80.29 300.431 81.17 303.071 81.17C304.581 81.17 306.181 80.87 307.851 80.27L308.941 83.77C306.681 84.72 304.341 85.2 301.941 85.2C298.351 85.2 295.351 84.13 292.951 81.98C290.171 79.52 288.781 76.15 288.781 71.9C288.781 67.37 290.351 63.54 293.481 60.42C296.611 57.31 300.441 55.75 304.981 55.75C307.701 55.75 310.141 56.48 312.301 57.94Z" fill="#6C6D6F"/>
<path fill-rule="evenodd" clip-rule="evenodd" d="M329.781 65.4289L327.441 69.0889C326.731 68.8189 326.081 68.6789 325.491 68.6789C324.031 68.6789 322.831 69.3889 321.891 70.7989C321.131 71.9589 320.521 73.7489 320.071 76.1689L318.491 84.7089H313.711L317.431 64.3689H322.251L321.521 68.2289L323.061 66.2389C324.281 64.6689 325.481 63.8789 326.661 63.8789C327.721 63.8789 328.761 64.3989 329.781 65.4289Z" fill="#6C6D6F"/>
<path fill-rule="evenodd" clip-rule="evenodd" d="M343.099 69.0489C343.099 68.3689 342.899 67.8189 342.499 67.3989C342.089 66.9789 341.549 66.7689 340.879 66.7689C339.469 66.7689 338.119 67.4489 336.829 68.7989C335.799 69.8889 335.029 71.3689 334.519 73.2389C336.189 73.2389 337.109 73.1789 337.269 73.0689C338.949 72.9689 340.339 72.5289 341.439 71.7689C342.549 71.0089 343.099 70.1089 343.099 69.0489ZM347.479 68.7189C347.479 70.8589 346.379 72.6089 344.179 73.9489C341.979 75.2889 339.069 75.9589 335.449 75.9589H334.069V76.8189C334.069 80.1789 335.489 81.8589 338.329 81.8589C339.809 81.8589 341.589 81.3089 343.669 80.1889L344.919 82.6689C341.879 84.3589 339.059 85.1989 336.459 85.1989C334.119 85.1989 332.329 84.5689 331.119 83.3289C329.689 81.8589 328.969 79.8789 328.969 77.3889C328.969 73.8089 330.259 70.6589 332.819 67.9489C335.379 65.2389 338.349 63.8789 341.729 63.8789C343.479 63.8789 344.879 64.3189 345.919 65.1989C346.959 66.0889 347.479 67.2589 347.479 68.7189Z" fill="#6C6D6F"/>
<path fill-rule="evenodd" clip-rule="evenodd" d="M364.157 70.2186C364.157 69.2486 363.847 68.4586 363.237 67.8686C362.637 67.2686 361.847 66.9686 360.877 66.9686C359.067 66.9686 357.537 67.9986 356.277 70.0386C355.027 72.0786 354.397 74.5286 354.397 77.3986C354.397 80.3686 355.367 81.8586 357.307 81.8586C359.177 81.8586 360.837 80.4586 362.287 77.6386C363.527 75.2586 364.157 72.7886 364.157 70.2186ZM372.047 54.8086L366.457 84.7086H361.687L362.327 81.2886C360.797 82.7786 359.527 83.8086 358.527 84.3586C357.527 84.9186 356.407 85.1986 355.167 85.1986C353.357 85.1986 351.927 84.4886 350.877 83.0786C349.817 81.6686 349.297 79.7586 349.297 77.3486C349.297 73.7386 350.397 70.5886 352.597 67.9086C354.797 65.2186 357.347 63.8786 360.267 63.8786C362.287 63.8786 363.867 64.8186 365.007 66.6886L367.187 54.8086H372.047Z" fill="#6C6D6F"/>
<path fill-rule="evenodd" clip-rule="evenodd" d="M383.557 57.7387C383.557 58.6887 383.247 59.4988 382.627 60.1588C382.007 60.8288 381.237 61.1588 380.317 61.1588C379.587 61.1588 378.997 60.9187 378.557 60.4487C378.107 59.9687 377.887 59.3487 377.887 58.5887C377.887 57.6487 378.197 56.8388 378.817 56.1888C379.437 55.5388 380.207 55.2188 381.127 55.2188C381.827 55.2188 382.407 55.4587 382.867 55.9287C383.327 56.3987 383.557 57.0087 383.557 57.7387ZM382.017 64.3688L378.257 84.7087H373.477L377.237 64.3688H382.017Z" fill="#6C6D6F"/>
<path fill-rule="evenodd" clip-rule="evenodd" d="M399.123 64.3705L398.633 67.1405H393.773L391.913 76.9505C391.613 78.5205 391.463 79.5505 391.463 80.0305C391.463 81.3305 392.083 81.9805 393.333 81.9805C394.033 81.9805 394.933 81.7905 396.043 81.4105L396.323 84.0605C394.623 84.8205 392.923 85.2005 391.223 85.2005C388.093 85.2005 386.523 83.8905 386.523 81.2605C386.523 80.8805 386.733 79.5805 387.133 77.3605L388.993 67.1405H386.523L387.013 64.3705H389.563L390.453 59.4505L395.393 58.2305L394.263 64.3705H399.123Z" fill="#6C6D6F"/>
<path fill-rule="evenodd" clip-rule="evenodd" d="M434.671 56.2305L431.711 72.0605C431.231 74.6905 430.731 76.6505 430.221 77.9405C429.701 79.2205 428.961 80.4105 427.991 81.4905C425.781 83.9605 422.861 85.2005 419.241 85.2005C416.521 85.2005 414.371 84.5305 412.811 83.1805C411.241 81.8405 410.461 80.0005 410.461 77.6705C410.461 76.3205 410.741 74.0905 411.311 71.0005L414.021 56.2305H419.121L416.331 71.4105C415.871 73.9005 415.641 75.6805 415.641 76.7305C415.641 78.0905 416.031 79.1705 416.821 79.9705C417.601 80.7705 418.651 81.1705 419.971 81.1705C422.541 81.1705 424.401 79.9605 425.561 77.5505C426.261 76.1105 426.831 74.1705 427.261 71.7305L430.101 56.2305H434.671Z" fill="#6C6D6F"/>
<path fill-rule="evenodd" clip-rule="evenodd" d="M454.87 68.0289C454.87 68.6789 454.72 69.8089 454.42 71.4089L451.95 84.7089H447.18L449.44 72.4589C449.71 70.9989 449.85 70.0789 449.85 69.6989C449.85 68.2289 449.11 67.4989 447.62 67.4989C446.08 67.4989 444.62 68.3689 443.25 70.1089C441.87 71.8389 440.91 74.1289 440.38 76.9789L438.92 84.7089H434.18L437.91 64.3689H442.72L441.83 69.0889C444.37 65.6189 447.18 63.8789 450.25 63.8789C451.68 63.8789 452.81 64.2589 453.63 64.9989C454.46 65.7489 454.87 66.7589 454.87 68.0289Z" fill="#6C6D6F"/>
<path fill-rule="evenodd" clip-rule="evenodd" d="M467.949 57.7387C467.949 58.6887 467.639 59.4988 467.019 60.1588C466.389 60.8288 465.619 61.1588 464.709 61.1588C463.979 61.1588 463.389 60.9187 462.949 60.4487C462.499 59.9687 462.279 59.3487 462.279 58.5887C462.279 57.6487 462.589 56.8388 463.209 56.1888C463.829 55.5388 464.599 55.2188 465.519 55.2188C466.219 55.2188 466.799 55.4587 467.259 55.9287C467.719 56.3987 467.949 57.0087 467.949 57.7387ZM466.409 64.3688L462.639 84.7087H457.859L461.629 64.3688H466.409Z" fill="#6C6D6F"/>
<path fill-rule="evenodd" clip-rule="evenodd" d="M484.004 72.4589C484.004 68.6689 482.764 66.7689 480.284 66.7689C478.714 66.7689 477.354 67.7089 476.194 69.5989C475.034 71.4789 474.454 73.6989 474.454 76.2489C474.454 80.2889 475.734 82.3089 478.294 82.3089C479.564 82.3089 480.694 81.6889 481.694 80.4389C483.234 78.5089 484.004 75.8489 484.004 72.4589ZM489.104 73.0689C489.104 76.4389 488.024 79.2989 485.864 81.6589C483.704 84.0189 481.104 85.1989 478.054 85.1989C475.514 85.1989 473.434 84.3189 471.794 82.5689C470.164 80.8189 469.344 78.5889 469.344 75.8789C469.344 72.5689 470.474 69.7489 472.734 67.3989C474.984 65.0589 477.684 63.8789 480.844 63.8789C483.244 63.8789 485.224 64.7389 486.774 66.4589C488.324 68.1889 489.104 70.3889 489.104 73.0689Z" fill="#6C6D6F"/>
<path fill-rule="evenodd" clip-rule="evenodd" d="M511.971 68.0289C511.971 68.6789 511.821 69.8089 511.521 71.4089L509.051 84.7089H504.281L506.541 72.4589C506.811 70.9989 506.951 70.0789 506.951 69.6989C506.951 68.2289 506.201 67.4989 504.721 67.4989C503.181 67.4989 501.721 68.3689 500.351 70.1089C498.971 71.8389 498.011 74.1289 497.471 76.9789L496.021 84.7089H491.281L495.001 64.3689H499.821L498.931 69.0889C501.471 65.6189 504.281 63.8789 507.351 63.8789C508.781 63.8789 509.911 64.2589 510.731 64.9989C511.561 65.7489 511.971 66.7589 511.971 68.0289Z" fill="#6C6D6F"/>
</g>
<defs>
<clipPath id="clip0_622_1804">
<rect width="526" height="96" fill="white"/>
</clipPath>
</defs>
</svg>
