<svg width="418" height="78" viewBox="0 0 418 78" fill="none" xmlns="http://www.w3.org/2000/svg">
<g clip-path="url(#clip0_622_1766)">
<path d="M175.908 16.0586H179.503V55.3116H169.282V37.8345L160.964 46.573H159.836L151.588 37.8345V55.3116H141.367V16.0586H145.033L160.329 33.0424L175.908 16.0586Z" fill="#E77724"/>
<path d="M215.031 25.149H200.58V30.7163H213.903V39.5958H200.58V46.5021H215.595V55.3816H190.641V16.2695H215.101V25.2195L215.031 25.149Z" fill="#E77724"/>
<path d="M259.791 16.0586H263.386V55.3116H253.165V37.8345L244.847 46.573H243.719L235.471 37.8345V55.3116H225.25V16.0586H228.916L244.212 33.0424L259.791 16.0586Z" fill="#E77724"/>
<path d="M300.323 34.945C303.495 36.5658 305.046 39.4552 305.046 42.9083C305.046 49.7441 300.817 55.241 292.851 55.241H274.523V16.1289H291.23C297.997 16.1289 303.425 21.4143 303.425 28.1796C303.425 34.945 302.227 33.3946 300.323 34.945ZM284.11 25.1493V31.4918H290.455C294.402 31.4918 294.402 25.1493 290.455 25.1493H284.181H284.11ZM284.11 39.8076V46.4319H292.076C296.094 46.4319 296.023 39.8076 292.076 39.8076H284.11Z" fill="#E77724"/>
<path d="M338.39 25.149H323.939V30.7163H337.262V39.5958H323.939V46.5021H338.954V55.3816H314V16.2695H338.461V25.2195L338.39 25.149Z" fill="#E77724"/>
<path d="M381.67 53.9017V55.3816H370.462L363.765 43.8946H358.549V55.3816H348.539V16.2695H365.739C381.106 16.2695 383.926 34.8037 373.987 41.569L381.67 53.9721V53.9017ZM365.739 25.149C363.413 25.149 360.946 25.149 358.549 25.149V34.9447H365.739C371.167 34.9447 371.449 25.2195 365.739 25.149Z" fill="#E77724"/>
<path d="M408.033 43.8259C408.033 41.0775 404.791 40.4432 400.843 40.2318C392.314 39.5976 386.745 36.7082 386.674 28.1811C386.322 11.2678 416.774 11.2678 416.563 28.1811H407.046C407.046 22.9661 396.543 23.4595 396.191 28.0401C395.979 31 398.869 31.6342 402.394 31.9866C410.148 32.8322 417.761 34.0303 417.761 43.7554C417.761 60.1754 385.899 60.4573 386.11 43.2621H395.768C395.768 48.2657 408.033 48.2656 408.033 43.685V43.8259Z" fill="#E77724"/>
<path d="M141.578 71.5951C141.578 68.2125 143.693 65.8164 147.429 65.8164C151.165 65.8164 150.319 66.2392 151.235 66.6621V69.2695H150.178V67.2258C149.473 66.944 148.416 66.7325 147.499 66.7325C144.75 66.7325 142.706 68.3534 142.706 71.5247C142.706 74.6959 144.962 76.3168 147.499 76.3168C150.037 76.3168 150.319 75.8235 151.306 75.2597V76.3168C150.46 76.8101 149.05 77.3034 147.429 77.3034C144.116 77.3034 141.578 75.1892 141.578 71.5951Z" fill="#75787B"/>
<path d="M154.125 71.595C154.125 68.3532 156.31 65.8867 159.764 65.8867C163.218 65.8867 165.333 68.3532 165.333 71.595C165.333 74.8367 163.148 77.3737 159.764 77.3737C156.381 77.3737 154.125 74.9072 154.125 71.595ZM164.205 71.595C164.205 68.7056 162.443 66.8029 159.694 66.8029C156.945 66.8029 155.182 68.7761 155.182 71.595C155.182 74.4138 156.945 76.3871 159.694 76.3871C162.443 76.3871 164.205 74.4138 164.205 71.595Z" fill="#75787B"/>
<path d="M168.227 71.595C168.227 68.3532 170.412 65.8867 173.866 65.8867C177.32 65.8867 179.435 68.3532 179.435 71.595C179.435 74.8367 177.249 77.3737 173.866 77.3737C170.482 77.3737 168.227 74.9072 168.227 71.595ZM178.377 71.595C178.377 68.7056 176.615 66.8029 173.866 66.8029C171.117 66.8029 169.354 68.7761 169.354 71.595C169.354 74.4138 171.117 76.3871 173.866 76.3871C176.615 76.3871 178.377 74.4138 178.377 71.595Z" fill="#75787B"/>
<path d="M182.039 76.2456H183.801V67.0138H182.039V66.0977H186.903C188.947 66.0977 191.203 67.0138 191.203 69.4803C191.203 71.9468 188.947 72.863 186.903 72.863H184.859V76.1752H186.973V77.0913H182.039V76.1752V76.2456ZM184.929 72.0173H186.973C189.159 72.0173 190.146 71.0307 190.146 69.4803C190.146 67.9299 189.159 67.0138 186.973 67.0138H184.929V72.0173Z" fill="#75787B"/>
<path d="M193.742 76.2456H195.504V67.0138H193.742V66.0977H202.554V69.0575H201.567V67.0138H196.632V71.1012H201.637V72.0173H196.632V76.2456H201.567V74.202H202.554V77.1618H193.742V76.2456Z" fill="#75787B"/>
<path d="M205.516 76.2456H207.278V67.0138H205.516V66.0977H210.521C212.565 66.0977 214.821 66.9433 214.821 69.4098C214.821 71.8764 213.763 72.0878 212.142 72.5106L214.186 76.2456H215.878V77.1618H213.481L211.084 72.722H208.335V76.2456H210.098V77.1618H205.516V76.2456ZM210.591 71.8059C212.706 71.8059 213.763 70.8898 213.763 69.4098C213.763 67.9299 212.706 67.0138 210.591 67.0138H208.406V71.8764H210.591V71.8059Z" fill="#75787B"/>
<path d="M217.57 76.2456H219.121L222.857 67.0138H221.236V66.0977H224.478L228.567 76.2456H230.118V77.1618H225.606V76.2456H227.439L226.311 73.4972H221.306L220.249 76.2456H222.082V77.1618H217.641V76.2456H217.57ZM225.959 72.5811L223.774 67.1547L221.588 72.5811H225.888H225.959Z" fill="#75787B"/>
<path d="M233.217 76.2456H235.05V67.0138H231.737V68.987H230.75V66.0977H240.407V68.987H239.42V67.0138H236.107V76.2456H237.94V77.1618H233.147V76.2456H233.217Z" fill="#75787B"/>
<path d="M242.875 76.2456H244.637V67.0138H242.875V66.0977H247.457V67.0138H245.695V76.2456H247.457V77.1618H242.875V76.2456Z" fill="#75787B"/>
<path d="M250.91 67.0138H249.359V66.0977H253.871V67.0138H252.038L255.422 75.8933L258.805 67.0138H256.972V66.0977H261.484V67.0138H259.933L255.986 77.1618H254.858L250.91 67.0138Z" fill="#75787B"/>
<path d="M263.32 76.2456H265.083V67.0138H263.32V66.0977H272.132V69.0575H271.145V67.0138H266.21V71.1012H271.215V72.0173H266.21V76.2456H271.145V74.202H272.132V77.1618H263.32V76.2456Z" fill="#75787B"/>
<path d="M280.727 71.5951C280.727 68.2125 282.841 65.8164 286.577 65.8164C290.313 65.8164 289.468 66.2392 290.384 66.6621V69.2695H289.327V67.2258C288.622 66.944 287.564 66.7325 286.648 66.7325C283.899 66.7325 281.854 68.3534 281.854 71.5247C281.854 74.6959 284.11 76.3168 286.648 76.3168C289.186 76.3168 289.468 75.8235 290.454 75.2597V76.3168C289.608 76.8101 288.199 77.3034 286.577 77.3034C283.264 77.3034 280.727 75.1892 280.727 71.5951Z" fill="#75787B"/>
<path d="M293.062 76.2456H294.825V67.0138H293.062V66.0977H298.067C300.112 66.0977 302.367 66.9433 302.367 69.4098C302.367 71.8764 301.31 72.0878 299.689 72.5106L301.733 76.2456H303.425V77.1618H301.028L298.631 72.722H295.882V76.2456H297.644V77.1618H293.062V76.2456ZM298.138 71.8059C300.253 71.8059 301.31 70.8898 301.31 69.4098C301.31 67.9299 300.253 67.0138 298.138 67.0138H295.953V71.8764H298.138V71.8059Z" fill="#75787B"/>
<path d="M305.82 76.2456H307.583V67.0138H305.82V66.0977H314.632V69.0575H313.645V67.0138H308.71V71.1012H313.715V72.0173H308.71V76.2456H313.645V74.202H314.632V77.1618H305.82V76.2456Z" fill="#75787B"/>
<path d="M317.594 76.2456H319.356V67.0138H317.594V66.0977H322.528C325.771 66.0977 328.308 67.9299 328.308 71.5945C328.308 75.259 325.7 77.0913 322.528 77.0913H317.594V76.1752V76.2456ZM322.599 76.2456C325.418 76.2456 327.251 74.5543 327.251 71.665C327.251 68.7756 325.418 67.0138 322.599 67.0138H320.484V76.2456H322.599Z" fill="#75787B"/>
<path d="M330.992 76.2456H332.754V67.0138H330.992V66.0977H335.574V67.0138H333.812V76.2456H335.574V77.1618H330.992V76.2456Z" fill="#75787B"/>
<path d="M340.436 76.2456H342.269V67.0138H338.956V68.987H337.969V66.0977H347.626V68.987H346.639V67.0138H343.326V76.2456H345.159V77.1618H340.365V76.2456H340.436Z" fill="#75787B"/>
<path d="M356.575 73.4974V66.9435H354.812V66.0273H359.394V66.9435H357.632V73.4269C357.632 75.5411 359.112 76.3163 360.804 76.3163C362.496 76.3163 363.906 75.4706 363.906 73.4269V66.9435H362.144V66.0273H366.655V66.9435H364.893V73.4269C364.893 75.9639 363.201 77.3029 360.734 77.3029C358.267 77.3029 356.504 76.0344 356.504 73.4974H356.575Z" fill="#75787B"/>
<path d="M369.055 76.2456H370.817V67.0138H369.055V66.0977H371.945L378.571 75.4V67.0138H376.809V66.0977H381.32V67.0138H379.558V77.1618H378.571L371.804 67.7185V76.2456H373.566V77.1618H368.984V76.2456H369.055Z" fill="#75787B"/>
<path d="M383.859 76.2456H385.622V67.0138H383.859V66.0977H388.441V67.0138H386.679V76.2456H388.441V77.1618H383.859V76.2456Z" fill="#75787B"/>
<path d="M391.047 71.595C391.047 68.3532 393.232 65.8867 396.686 65.8867C400.14 65.8867 402.255 68.3532 402.255 71.595C402.255 74.8367 400.07 77.3737 396.686 77.3737C393.303 77.3737 391.047 74.9072 391.047 71.595ZM401.127 71.595C401.127 68.7056 399.365 66.8029 396.616 66.8029C393.867 66.8029 392.104 68.7761 392.104 71.595C392.104 74.4138 393.867 76.3871 396.616 76.3871C399.365 76.3871 401.127 74.4138 401.127 71.595Z" fill="#75787B"/>
<path d="M404.867 76.2456H406.63V67.0138H404.867V66.0977H407.758L414.384 75.4V67.0138H412.621V66.0977H417.133V67.0138H415.371V77.1618H414.384L407.617 67.7185V76.2456H409.379V77.1618H404.797V76.2456H404.867Z" fill="#75787B"/>
<path d="M76.655 0.628906V23.5324C47.1191 23.5324 23.1519 47.4929 23.1519 77.0207H0.242188C0.242188 34.8079 34.4306 0.628906 76.655 0.628906Z" fill="#B81F37"/>
<path d="M130.23 77.0196H107.32C107.32 60.1063 93.6445 46.4347 76.7266 46.4347V23.5312C106.263 23.5312 130.23 47.4918 130.23 77.0196Z" fill="#7FA9AE"/>
<path d="M76.6558 46.5078V77.0927H46.0625C46.0625 60.1794 59.7379 46.5078 76.6558 46.5078Z" fill="#F99D22"/>
</g>
<defs>
<clipPath id="clip0_622_1766">
<rect width="418" height="78" fill="white"/>
</clipPath>
</defs>
</svg>
