<svg xmlns:xlink="http://www.w3.org/1999/xlink" xmlns="http://www.w3.org/2000/svg" width="282" height="71" viewBox="0 0 282 71" fill="none">
<path d="M79.1306 51.7493C79.7306 51.36 80.1638 51.3531 79.9923 50.4515C77.4026 49.9825 74.709 50.1464 72.0697 50.1464C71.0883 50.1464 70.2334 50.4879 69.2047 50.4697C67.515 50.4401 65.3561 49.6091 63.7432 49.5818C62.5182 49.5613 60.5895 50.0804 59.2878 50.1624C58.7983 50.6246 59.36 50.6633 59.7232 50.7293C60.8286 50.9274 62.5927 51.4533 63.4996 51.5057C65.8209 51.6423 68.7377 51.1778 71.2327 51.3053C72.3945 51.3645 73.5766 51.8244 74.8151 51.6104C74.2376 52.5211 72.8141 52.4323 71.8599 52.8308C68.8573 54.083 66.1389 56.3804 64.0274 58.8416C63.3529 59.6271 60.2759 63.4658 61.0136 64.3424C62.5566 63.9827 62.992 62.1339 63.8943 61.0228C67.0909 57.0907 72.0088 52.3162 77.5221 53.0812C78.5553 53.2247 80.2856 53.8258 79.9607 55.1805C79.5073 56.6058 71.3027 56.4099 70.1995 58.1813C69.9717 58.5456 69.8995 58.9964 69.9266 59.4222C70.6868 59.5178 75.9949 59.404 75.9588 58.7004L75.1038 57.981C79.4306 57.2273 84.6079 56.3303 79.1283 51.7539L79.1306 51.7493Z" fill="#2D4259"/>
<path d="M56.4138 37.2847C54.3926 36.0871 55.5137 34.6709 52.5969 35.1764C51.6855 35.3335 46.6571 37.3712 45.7931 37.879C43.5147 39.2155 43.7967 41.0119 46.5646 41.3989C49.6214 41.827 54.7422 40.0602 56.4116 37.2847H56.4138Z" fill="#2D4259"/>
<path d="M19.3227 56.0889C18.0075 54.8822 16.5727 54.9732 17.3059 52.7647C16.2659 52.6759 15.3388 53.1654 14.2875 53.0698C13.5859 53.0061 13.1438 52.5826 12.5482 52.4915C10.2337 52.1386 4.01649 54.0215 3.5202 56.6854C3.02616 59.3333 5.16022 59.9572 7.34843 59.3812C7.69584 59.2901 7.97105 58.9531 7.53567 58.6913L4.91884 57.7737C3.68036 55.9432 8.19213 54.4587 9.47347 54.2834C12.1828 53.9122 13.6153 54.0375 15.8441 55.5379C18.2037 57.1248 19.6362 59.7318 22.1944 60.8656C22.2824 58.8484 20.6852 57.3366 19.3227 56.0889Z" fill="#2D4259"/>
<path d="M67.2399 48.6664L79.9947 49.288L79.9518 48.4592C78.587 47.6396 77.2335 47.8763 75.7175 47.8035L75.2145 46.3759C70.9215 46.6514 65.1555 45.1168 61.0701 46.6082C60.6099 46.7766 60.3031 46.4488 60.4384 47.2616H66.3331C66.6669 47.2616 66.7369 48.5617 67.2399 48.6641V48.6664Z" fill="#2D4259"/>
<path d="M65.4714 55.0736C66.0624 53.7781 65.1127 52.5122 63.7411 52.4552C60.4407 52.3232 54.5619 57.7762 54.1152 61.155C54.9003 61.9427 57.1539 57.6942 57.7021 57.0977C58.5796 56.1437 60.4091 54.7548 61.6431 54.4087C62.5364 54.1583 63.7072 53.7644 63.3283 55.1874C63.1749 55.7657 59.7391 55.6838 59.8655 57.1045C61.2122 57.38 64.9006 56.3213 65.4714 55.0736Z" fill="#2D4259"/>
<path d="M21.4748 50.1647C20.0559 50.1419 22.1087 52.8286 22.1448 52.9857C22.2667 53.5184 21.926 53.9693 22.032 54.5089C22.2779 55.7429 24.4684 59.1467 25.1181 60.6745C26.1671 63.1312 26.8032 66.0728 28.1207 68.3633C28.265 68.616 29.2531 70.2941 29.6682 69.841C30.3856 69.06 24.1526 57.1318 23.4916 55.3649C23.1713 54.5066 22.3862 50.1806 21.4748 50.1647Z" fill="#2D4259"/>
<path d="M29.5147 55.959C29.2846 55.6084 28.2288 55.1803 27.9581 55.3761C26.8099 56.2117 29.2395 59.1079 29.5959 59.9275C30.0854 61.0523 31.1231 66.8832 32.9391 66.3481C35.0777 65.7175 31.3916 61.2549 30.8615 60.1005C30.3764 59.0464 29.8531 56.4713 29.5147 55.9567V55.959Z" fill="#2D4259"/>
<path d="M26.7671 53.6618C26.2843 53.3248 25.2624 53.6572 25.4045 54.577C25.6143 55.9409 27.383 59.1079 27.9537 60.7131C28.6011 62.5323 28.7252 64.5199 29.6163 66.2753C29.9276 66.8855 30.2457 67.8646 31.1052 67.8145C31.8857 66.9037 28.1906 59.5792 27.7394 58.0355C27.5048 57.2341 27.1416 53.9236 26.7671 53.664V53.6618Z" fill="#2D4259"/>
<path d="M4.36621 50.7337L18.6031 51.0297L19.3137 50.5925L19.0024 49.8935C17.8 50.1076 16.5119 49.5566 15.4358 49.5543C13.1258 49.5497 9.72168 49.6977 7.38909 49.8731C6.6063 49.9323 4.76776 50.0529 4.36621 50.736V50.7337Z" fill="#2D4259"/>
<path d="M20.1574 63.6412C19.3971 62.9718 14.2379 59.9937 13.5544 60.4263C13.3153 60.5766 13.2995 61.1913 12.7964 61.3939C12.3091 61.5875 10.3059 61.3803 10.1209 61.8857C9.94046 62.3798 9.96753 62.5847 10.5428 62.6075C11.576 62.6485 12.5708 62.8784 13.4371 62.908C14.3011 62.9376 14.9598 62.4458 15.9456 62.6621C17.3014 62.9604 18.9302 65.3693 20.7552 64.6316C20.8702 64.0874 20.4845 63.9303 20.1596 63.6434L20.1574 63.6412Z" fill="#2D4259"/>
<path d="M80.4525 59.1352C78.5327 59.3584 75.467 62.3182 78.553 63.1811C78.3951 60.112 81.3436 60.9544 83.4438 60.8656C83.9717 59.2878 81.524 59.01 80.4525 59.1352Z" fill="#2D4259"/>
<path d="M149.582 49.8686C151.946 50.1054 154.432 50.4924 156.765 49.8595L156.478 48.4205C154.43 49.3608 150.547 46.9543 149.582 49.8686Z" fill="#2D4259"/>
<path d="M150.157 47.1228C150.029 47.6715 151.364 48.0767 151.739 48.1314C153.069 48.3272 155.181 48.1314 156.627 48.1314C156.783 48.1314 157.223 47.4893 157.058 47.2662C155.995 46.8154 150.502 45.6656 150.157 47.1228Z" fill="#2D4259"/>
<path d="M12.1264 45.5289C9.87052 46.5922 7.06194 44.6524 5.23242 46.2507C5.23468 47.2411 12.0835 47.9583 12.1264 45.5289Z" fill="#2D4259"/>
<path d="M71.1944 66.9722C70.7026 66.6034 67.9594 65.7086 67.6301 66.5146C67.206 67.5573 69.0806 67.5368 69.5544 67.9034C69.9739 68.229 70.5108 70.4557 71.5846 69.183C72.0291 68.657 71.7832 67.4116 71.1944 66.9722Z" fill="#2D4259"/>
<path d="M170.203 48.9397C168.506 48.0518 166.584 48.6118 164.814 48.8486L164.536 49.8687C164.845 49.6706 165.075 49.8687 165.251 49.8687H170.859C170.959 49.3222 170.611 49.1537 170.201 48.9397H170.203Z" fill="#2D4259"/>
<path d="M32.5466 37.4258C32.6121 38.9126 33.9633 39.9212 35.1296 40.6065C35.9959 38.6576 34.683 36.5583 32.5466 37.4258Z" fill="#2D4259"/>
<path d="M80.281 66.0795C80.4705 67.0448 81.4405 67.5617 81.6526 68.6045C81.8128 69.3945 81.6864 70.2051 81.7203 70.9974C81.7451 71.0316 82.4015 70.7219 82.494 70.6217C84.1724 68.8276 81.2533 65.212 80.281 66.0772V66.0795Z" fill="#2D4259"/>
<path d="M31.6849 41.4786C31.1164 42.3051 34.1416 44.5204 34.5589 44.0787C34.6582 43.3456 34.5183 42.025 33.8979 41.5674C33.2775 41.1097 32.3639 41.2418 31.6872 41.4786H31.6849Z" fill="#2D4259"/>
<path d="M168.558 47.5509C168.68 45.9731 164.243 46.2919 163.961 46.688C164.365 48.6142 167.146 47.5373 168.558 47.5509Z" fill="#2D4259"/>
<path d="M37.5773 36.2715C35.8154 37.4896 40.3407 40.9754 39.9798 38.4982C39.8264 37.4395 38.3398 36.8452 37.5773 36.2715Z" fill="#2D4259"/>
<path d="M56.9937 64.1966C57.6659 64.9935 58.4081 65.4534 59.4052 64.9434L59.5608 64.0714C58.7397 63.83 57.6614 63.3678 56.9937 64.1966Z" fill="#2D4259"/>
<path d="M65.6156 67.2385C65.3788 68.0764 67.6933 68.9074 67.9121 68.682C68.1084 67.3068 66.6285 67.1634 65.6156 67.2385Z" fill="#2D4259"/>
<path d="M43.0455 35.6886C41.9627 35.9095 43.0658 38.2387 43.7584 37.7127C44.2547 37.3325 43.9614 35.5019 43.0455 35.6886Z" fill="#2D4259"/>
<path d="M115.076 49.2881C115.865 49.5568 117.977 50.0053 117.95 48.7143C117.061 48.8396 115.57 48.2772 115.076 49.2881Z" fill="#2D4259"/>
<path d="M121.279 48.8987C120.837 49.0968 121.965 49.8208 122.762 49.2858C122.22 48.6665 121.604 48.753 121.279 48.8987Z" fill="#2D4259"/>
<path d="M124.208 51.2689C124.19 52.0703 125.473 52.2548 126.051 51.5603C125.618 50.8978 124.785 50.7589 124.208 51.2689Z" fill="#2D4259"/>
<path d="M232.634 31.4149C232.971 28.9172 229.066 26.5539 228.93 25.6932C228.748 24.5275 230.223 23.043 230.39 21.6564C230.706 19.0495 229.167 15.8096 227.369 13.9722C225.81 12.3807 224.119 12.2304 221.969 12.5992C220.737 12.811 219.413 14.1566 218.682 14.2203C218.253 14.2568 217.105 12.8041 216.081 12.5947C211.118 11.5815 211.643 14.4503 209.825 17.7426C209.16 18.9493 206.306 23.0316 205.216 23.5234C205.09 23.5803 204.745 23.5963 204.79 23.3823C206.035 21.6154 207.396 19.8737 207.1 17.5786C206.935 16.29 204.815 14.316 204.215 12.959C203.59 12.6493 199.446 13.2049 198.868 13.6693C198.575 13.9039 198.544 14.5368 198.282 14.5778C197.887 14.6415 196.179 13.7536 195.169 13.6739C191.28 13.3688 187.603 16.1647 185.243 19.0472C183.325 21.3923 183.398 23.2115 182.125 25.7501C181.988 26.0256 180.205 29.2473 179.772 28.7351C179.082 24.8075 184.69 22.9428 182.987 18.9857C182.391 17.6014 180.688 16.6998 180.632 15.1356C184.23 14.8237 186.517 13.8287 184.81 9.91714C183.939 7.92265 182.1 5.81431 179.698 6.22414C174.87 7.04379 177.864 12.6129 179.484 15.1333C178.074 15.2677 176.258 14.6757 175.164 15.8528C174.36 16.718 172.815 20.5613 172.242 21.8841C171.92 22.6263 170.816 26.4173 170.137 26.4173C169.048 25.4974 168.685 23.7101 168.725 22.3281C168.784 20.304 169.806 19.6414 168.894 17.5399C168.619 16.9024 166.713 13.8879 166.273 13.5236C165.567 12.9385 164.333 12.4603 163.645 13.2299C162.032 15.3451 160.126 17.2348 158.497 19.3363C156.738 21.6086 155.558 24.5412 153.169 26.1304C153.027 25.099 152.963 24.3362 152.402 23.4323C151.427 21.8591 147.213 19.2544 145.557 20.4975C144.258 21.472 143.369 27.1299 142.257 29.0424C141.901 29.6526 141.833 30.0533 140.949 29.894C141.271 27.1959 143.225 25.8708 140.633 23.6987C138.848 22.2029 135.194 20.3108 133.7 23.0362C133.175 23.997 132.798 27.6194 131.169 26.2715C132.748 23.0612 135.979 15.5409 133.888 12.2532C133.788 12.0961 131.219 10.0788 130.991 9.9604C128.435 8.63301 125.796 10.8119 123.978 12.3807C123.326 12.943 119.556 17.376 118.807 16.5814C118.419 14.6552 119.811 14.7394 120.826 13.8401C126.775 8.56926 123.666 0.973793 116.044 0.115432C107.144 -0.888646 99.3772 4.79202 94.7481 11.9276C92.411 11.2764 89.4197 9.99911 91.7748 7.32157H86.742C85.9479 7.32157 82.8054 3.36218 81.2173 2.75199C77.1815 1.19692 74.4654 4.08165 72.5637 7.23277C71.0388 9.75776 67.1857 19.1906 65.1915 20.3609C64.9073 20.5271 64.6704 20.707 64.314 20.666C63.1251 20.789 62.8003 18.733 62.7552 17.8405C62.6739 16.1898 63.283 14.5186 64.7426 13.6898L64.5824 15.147C64.808 15.4658 65.5299 15.5568 65.848 15.3724C66.06 15.2495 68.4693 11.561 68.5573 11.2923C68.8573 10.3702 68.4422 9.78509 68.6159 9.35477C68.8348 8.81061 70.7162 7.48094 71.2012 6.73187C71.6298 6.06932 71.711 5.06296 72.2051 4.55751C72.7826 3.96553 74.2805 3.89268 74.6775 2.97056C75.3904 1.31532 72.9833 1.30849 71.8012 1.23335C68.7784 1.03982 66.2766 1.69782 63.4477 1.82077C56.9778 2.10537 50.1628 1.50885 43.9636 3.62856C40.1647 4.92635 36.5824 7.05746 33.0226 8.53511C28.4838 10.418 29.7877 6.12851 26.9633 4.44367C25.982 5.52743 24.0036 7.77921 25.0435 9.22499C25.5173 9.88527 28.4206 10.8757 28.2243 11.8046C28.1454 12.1757 27.6604 12.2463 27.2836 12.1894C25.7902 11.964 22.1199 9.08838 20.7867 9.96723L19.8934 12.8133C20.7799 12.8975 25.012 14.0792 24.7728 15.2791C24.6646 15.8255 24.2585 15.5614 23.9833 15.509C22.0861 15.1447 20.0761 12.9931 17.7728 13.7376C16.884 14.6529 16.2208 15.8596 16.4351 17.1643H21.7545C22.0004 17.1643 22.2688 17.7608 22.156 18.1456C21.7139 19.6278 16.2862 18.4256 15.8283 19.07L15.5711 22.0867C16.1802 22.6947 20.816 20.5476 20.4596 22.2256L15.3207 25.0147C14.98 26.5994 16.8344 27.6741 16.8727 29.1722C16.8908 29.8553 15.3139 33.7099 14.8402 34.2267C13.8747 35.2786 12.3587 34.4522 11.1496 35.142C10.3239 35.6133 10.36 36.4854 9.96748 36.8474C9.593 37.1912 8.98391 37.1138 8.51694 37.4143C7.92139 37.7968 7.57849 38.6597 7.08897 39.1606C6.86564 38.2385 6.72351 38.1406 6.23399 37.5441C5.47601 38.3819 4.68645 38.5755 4.23302 39.4748C3.67807 40.5722 4.55335 40.529 2.52306 40.932L0.0280516 43.3568C-0.159187 44.2448 0.625861 44.3017 1.34323 44.37C5.30231 44.7388 14.2266 43.375 17.1592 45.5289C19.0564 46.92 19.9182 49.3403 23.0561 48.7119C23.4103 45.4902 21.0258 42.9993 20.2656 40.0873C19.3993 36.77 19.2685 32.0273 19.3001 28.578C19.3113 27.3439 19.9926 27.6376 18.7429 26.7178C19.1128 26.5971 19.758 26.7201 20.0242 26.4309C20.8183 25.5657 21.9846 22.1414 22.9365 20.6637C28.4928 12.0391 41.9018 4.74193 51.9923 3.88357C55.6424 3.57392 59.1209 4.97417 62.7371 4.42773C61.1084 8.53739 65.7307 9.81696 67.3436 6.02606C68.0587 4.34804 67.5918 4.54157 67.0526 2.97967L70.477 3.29615C70.644 6.87076 67.6098 7.51737 65.6043 9.48227C64.2576 10.8028 61.6768 13.8128 61.3678 15.6365C61.0384 17.59 61.6611 19.0563 61.8709 20.9233C60.5038 19.5322 58.0516 15.7708 58.4284 13.8378C58.7983 11.9344 63.5583 12.1757 63.8854 9.92397H60.4384C60.3414 9.3616 60.8602 9.04057 60.964 8.55333C61.1918 7.48094 60.4857 5.73918 59.43 6.7387C58.76 7.37166 56.574 12.7723 56.4432 13.8606C55.9131 18.3095 59.7345 23.8126 64.4809 22.8176C65.3833 22.6286 66.2179 21.9524 67.2196 21.8135C68.9859 21.5676 71.0658 21.9205 72.9089 21.7521C76.9672 21.3787 81.7903 18.5713 85.7201 20.8163C85.8757 21.6473 85.5283 22.0867 84.9824 22.615C83.4439 24.1017 76.4551 28.4118 74.3278 29.5456C72.4961 30.5224 73.0645 30.0738 71.4877 29.6162C71.129 29.5115 70.4545 29.7323 70.2537 29.5638C70.1657 29.491 70.2244 28.8079 69.6356 28.307C66.3037 25.4678 62.4845 27.5511 58.875 26.9819C58.5051 26.9227 55.6153 25.6204 55.2814 25.3904C54.3948 24.7779 53.8173 22.895 55.1258 22.6514C57.6343 22.1846 58.0877 26.7041 60.7249 26.1327C61.6814 25.2037 56.6755 20.4224 55.3852 20.345C54.6836 20.3017 54.255 20.8823 53.6888 20.8982C52.9624 20.9187 52.1232 20.1924 51.3629 20.0763C49.3687 19.7667 46.8828 20.5681 45.1931 18.7603C43.9343 17.4147 44.3697 16.2831 45.0442 14.8351C45.3758 14.1224 48.6311 8.74003 49.5109 9.63937C49.5176 12.6379 46.1406 13.7855 47.7783 17.0436C48.6356 18.7466 53.1586 19.4411 54.9859 19.6483C55.7416 19.0927 54.5686 14.892 54.7107 13.5737C54.8731 12.0665 57.8238 7.02558 57.2508 6.19454C56.8492 6.05565 56.4251 5.86668 55.9875 5.87351C53.9143 5.90311 48.225 7.37166 45.9984 7.98412C36.5486 10.5911 20.5972 19.4502 21.0461 30.9094C21.1273 32.9608 22.2372 40.5563 23.0268 42.2298C23.39 43.0016 23.9697 43.095 24.7638 43.2065C25.5083 41.763 25.5647 39.6547 26.7919 38.5823C25.6053 41.886 25.136 46.7697 25.7135 50.2351C26.0632 52.3297 27.8679 53.22 29.2463 54.495C30.0697 55.2555 30.9224 57.1862 31.6217 56.0319C32.8602 53.985 33.361 50.2055 34.8476 48.2793C36.3455 46.3417 39.7745 45.2056 41.7235 43.6232C44.6178 41.2735 42.7545 41.5809 40.4445 42.3345C38.5405 42.9561 32.5556 46.2097 31.3893 47.6919C30.8073 48.4295 30.7351 49.3334 30.3922 50.1577C29.7245 49.2834 28.3462 47.7124 28.08 46.6946C27.0693 42.8263 30.7554 33.9376 34.3603 32.1548C37.1148 30.7933 36.3388 32.2573 37.8547 33.6712C38.6262 34.393 40.3091 35.224 41.3446 35.3697C44.0088 35.7431 53.8647 33.8556 53.8286 30.3152C53.8083 28.3138 51.1058 30.8275 50.5756 31.1098C47.9611 32.4941 42.5808 34.4089 39.9301 32.7423C39.0977 32.2186 36.5598 28.8079 36.138 27.8721C35.9507 27.4578 35.9259 27.4441 36.2959 27.1549C37.7126 26.0507 46.2534 26.5174 48.5183 26.4332C49.4026 26.399 50.2418 26.0757 51.108 25.9596C52.2134 26.5493 52.4142 28.0429 53.4338 28.7009C54.6971 29.5183 57.7697 30.133 59.2924 30.4768L59.1345 32.2095C60.6617 33.8693 63.2086 32.9267 65.0065 32.1776L64.7516 30.7683L68.4896 30.1877L67.9166 31.1963C68.158 31.6539 69.2498 31.7109 69.0649 32.4964L39.4609 47.9992C37.6652 48.9396 36.2643 48.5912 35.9936 51.3143C34.0761 49.3881 33.7738 54.4677 33.6994 55.8042C33.4851 59.6884 33.8731 61.5782 36.3365 64.5699C38.0758 65.0959 37.3945 63.3131 38.4412 62.6073L42.0349 65.9315C41.216 66.207 40.8009 66.1887 40.8821 67.2315L39.1609 66.3641C38.4615 67.079 41.243 70.2119 41.895 70.7037L42.6033 70.2597L42.3214 69.267L43.7268 68.5407L42.8989 66.6555C45.6375 67.7916 50.508 71.7578 52.2585 67.4956C52.1051 66.7875 48.322 63.9461 47.467 63.3564C46.0842 62.4001 44.6472 61.2572 42.8989 61.1547C44.0922 66.5553 39.2804 62.2658 37.7306 60.4216C37.3426 59.9594 35.5108 57.7417 36.2801 57.2408C36.7335 56.9471 41.701 58.1812 42.5199 58.4931C45.2044 59.5154 47.1783 61.7831 49.5357 63.2972C50.0726 63.6433 52.2066 65.1687 52.7029 64.4584C53.012 63.4816 53.2376 61.4484 52.5879 60.6538C52.0893 60.0436 44.0877 56.5578 42.9733 56.2982C41.3333 55.9135 40.9453 56.8128 39.5985 55.0574C39.3639 54.7523 39.2105 54.0237 39.1112 53.9622C38.3894 53.5137 35.3417 54.2719 35.7049 51.8903C37.5186 52.5164 37.9901 50.3125 39.5286 50.7792C40.7287 51.1435 40.6994 54.0806 42.0552 54.9048C43.0162 55.49 43.9727 55.2076 44.9111 55.5014C46.3323 55.9476 50.8802 58.4885 51.9156 58.2768C52.527 57.5573 52.6781 55.6926 51.9698 55.0528C50.6794 53.8871 44.3607 54.6658 42.8944 52.4686C46.2556 52.3206 49.3958 52.5073 52.6849 53.1767C53.3346 53.3088 53.9414 53.8302 54.5663 53.9076C57.0139 54.2058 58.5231 51.1321 58.4239 48.9942C53.7925 48.9669 47.061 51.082 42.6846 49.0625C42.2965 48.8849 42.2289 49.0352 42.3214 48.4159C44.0629 48.4387 45.915 47.9173 47.6272 47.8239C49.4793 47.7215 58.5367 48.4523 59.2179 47.767C59.7706 47.2092 59.5022 45.3399 60.576 45.2261L83.1777 45.6473L83.6582 45.8795C85.2553 52.2523 92.0546 54.5883 97.9469 54.7933C102.59 54.9549 105.371 51.8858 108.931 51.6125C110.28 51.5101 114.573 52.2478 115.36 51.7446C115.642 51.5625 115.696 51.3416 115.644 51.0206L110.758 50.2965L115.847 45.8385C116.314 45.7179 118.669 47.3185 119.529 47.5666C120.731 47.915 123.698 47.9742 124.921 47.7647C125.771 47.619 126.946 46.6718 127.289 46.6787C127.747 46.6855 128.819 47.6987 129.735 47.2524L128.586 46.1004C129.204 45.8203 132.439 45.3877 132.2 46.3963C132 47.2456 130.93 48.4614 130.542 49.3676C128.383 54.4176 129.29 57.703 134.472 59.7066C142.713 62.8896 144.65 57.9512 147.409 51.2961C148.197 49.3972 148.472 46.0503 150.577 45.7998C153.776 45.4196 157.498 46.1117 160.631 46.1072C165.477 46.0981 170.354 45.4492 175.231 45.8841L177.753 46.6696C175.042 46.2119 173.011 48.1609 177.025 48.129C178.38 48.1176 180.133 47.389 181.561 47.6031C187.196 49.6249 193.023 53.1608 198.67 54.9959C199.861 55.383 201.654 56.173 201.621 54.2013C197.973 53.113 194.578 51.3143 191.063 49.9186C189.714 49.3813 186.163 48.721 185.38 47.8194C184.688 47.0202 185.396 46.5011 183.501 46.5284C183.492 46.237 184.753 46.1004 185.074 46.0821C189.576 45.8158 194.801 46.5717 199.177 46.0958C199.791 46.0298 200.788 45.8954 201.045 45.2306L191.404 43.8281C189.335 45.1373 188.649 43.5981 187.397 43.4684C186.459 43.3705 185.665 43.8099 184.814 43.7917C182.838 43.753 180.957 43.0449 178.75 43.1929C177.417 43.2817 176.167 43.9169 174.809 43.7211C173.237 43.4934 171.741 41.9406 170.58 41.5968C169.201 41.187 167.726 41.6697 166.544 40.1647L171.044 37.4872C174.618 39.2904 175.899 40.8796 180.133 39.3746C181.333 38.9489 183.673 37.1843 184.535 37.1274C185.611 37.0568 187.059 38.7804 188.53 38.8123C189.279 38.8282 192.419 38.0495 193.071 37.6351C193.786 37.1798 193.883 36.3738 194.582 36.244C195.929 35.9958 196.635 37.2139 197.815 37.626C201.014 38.7462 202.751 36.9179 205.462 35.7226C205.462 35.7226 206.302 36.688 208.192 36.7244L208.212 47.1477C208.084 47.6167 207.276 47.3663 207.418 47.9765L217.448 47.981C219.828 47.8831 222.736 46.6946 222.427 43.6778C222.266 42.1228 221.123 41.2735 219.92 40.5973C221.36 39.8004 222.271 38.6984 221.915 36.8815C221.56 35.0783 219.706 34.1357 218.095 33.9854H213.396C213.401 33.9717 213.41 33.9558 213.414 33.9421C214.116 31.8406 215.334 27.2415 217.725 24.9692C216.101 29.1995 217.464 31.3124 220.315 34.377C220.315 34.377 222.564 36.4307 223.746 36.7108C224.655 36.9248 225.754 36.9271 226.663 36.7108C228.342 36.3123 232.38 33.2705 232.63 31.4058L232.634 31.4149ZM130.366 17.3578C130.917 16.0554 131.181 14.4344 131.724 13.2254C131.842 12.9635 131.828 12.3624 132.322 12.8201C132.521 13.0045 133.069 15.1834 133.08 15.6137C133.229 21.0713 126.035 31.2988 122.541 35.5314C121.988 36.2007 119.545 39.1652 118.954 39.1674C114.53 36.5013 120.465 32.9631 122.261 30.6203C124.636 27.5215 128.868 20.896 130.364 17.3578H130.366ZM97.2792 41.5763C96.7491 39.9643 100.248 34.9599 101.556 33.8033C104.272 31.4035 110.219 31.2305 111.755 29.0174C113.319 26.7702 111.918 22.2393 109.161 21.8135C106.12 21.3445 103.781 23.5803 104.721 18.0295C106.244 18.1638 115.712 21.6724 115.913 22.5467C114.812 25.1035 113.35 27.4965 113.064 30.3379C112.795 32.9995 113.447 37.2663 111.182 39.1538C110.569 39.6638 109.95 39.7822 109.432 40.1442C109.278 40.2512 109.204 40.554 108.96 40.6975C107.038 41.8427 105.567 42.3664 103.399 42.931C102.35 43.0426 102.071 41.6287 101.107 41.4716C100.04 41.3008 97.6401 42.6942 97.2724 41.5763H97.2792ZM98.6034 46.4692C95.673 48.3635 94.4796 45.1714 98.9711 45.818C99.1155 46.4874 98.8922 46.2825 98.6034 46.4692ZM115.286 20.2767C113.86 19.4798 106.007 17.228 105.425 16.2922C104.595 14.9557 109.378 10.1767 110.679 9.96723C112.173 9.72589 111.295 11.4221 111.354 12.342C111.591 16.1101 114.39 18.1501 117.526 19.473C117.977 20.1082 115.827 20.6728 115.288 20.2744L115.286 20.2767ZM119.247 26.1372C119.967 24.4637 124.799 16.825 126.204 16.3537C126.594 16.2239 127.034 16.2968 127.436 16.2922C127.691 16.5404 126.899 19.2407 126.712 19.7598C125.701 22.5603 120.925 29.1995 118.812 31.408C118.505 31.7268 118.058 32.0114 117.663 32.2118C117.345 31.7814 118.897 26.9455 119.245 26.1372H119.247ZM119.38 7.74733C120.172 6.72049 120.65 5.68453 120.968 4.42773C123.077 6.41539 123.247 9.16351 121.122 11.2377C119.175 13.1388 116.062 13.8674 117.372 17.4511C115.746 16.932 114.036 16.0327 114.543 14.0177L115.642 13.5464C113.79 10.7937 117.819 9.7737 119.38 7.74733ZM103.438 6.46093C106.655 3.65133 111.794 1.56349 116.096 2.09627C118.53 2.39908 115.527 5.89628 114.564 6.74325C112.333 8.7036 109.032 8.71953 106.587 10.7869C105.43 11.7659 102.998 15.2836 102.998 16.7271V22.0822C95.4813 19.9078 99.1832 10.1767 103.438 6.46093ZM76.6852 5.00376C79.7059 2.16002 80.1525 8.31654 83.4439 8.19359C81.1474 10.7345 75.8009 8.58748 76.6852 5.00376ZM82.1061 18.5895C77.6101 17.6333 73.315 20.0968 68.7806 19.4752C68.7242 18.84 68.6926 18.6943 69.2747 18.3846C69.8612 18.0727 74.0052 17.5399 74.9663 17.4557C76.2589 17.3396 77.6823 17.499 78.9998 17.4648C80.9782 17.4124 82.8077 16.8842 84.8809 17.7471L82.1061 18.5918V18.5895ZM83.2702 41.1642C82.907 41.2485 81.8535 40.4129 81.2354 40.3878C80.7346 40.3696 80.3307 40.8409 79.8232 40.8978C77.5538 41.1483 76.0491 37.733 75.7829 37.6898C74.594 37.4963 73.3804 39.641 72.9518 39.6729C72.645 39.6957 72.1216 39.0286 71.7268 38.9238C70.1815 38.5117 70.0958 41.08 69.2318 40.8864C68.0046 38.794 65.4848 39.7389 64.4764 37.8378L64.0726 37.733C62.0536 38.9329 60.0729 44.7775 58.1554 45.3968C55.8792 46.1322 55.9334 44.2015 54.7738 43.8486C53.8828 43.5776 52.6691 44.0421 51.6833 44.0922C51.372 44.1081 50.323 44.2857 50.3794 43.7939C51.8525 43.6505 53.7632 41.9839 55.1438 42.9014C55.9898 43.4661 55.692 44.7844 57.2666 44.2152C57.8599 44.0011 59.7278 42.1842 60.1541 41.6173C60.8557 40.6838 61.5167 38.4753 62.0558 38.0313C62.8792 37.3505 64.79 36.8952 65.8141 36.3146C67.0774 35.5997 68.1016 34.5318 69.3468 33.7919C73.2495 31.4695 77.4477 29.8257 81.6346 27.3462C84.2492 25.7957 88.3549 24.6823 89.0723 21.2284C89.3543 19.8714 89.2483 17.7699 88.4722 16.5905C88.2241 16.2148 86.7578 15.1333 86.469 15.1333H80.5744C80.4187 12.0733 81.3256 10.4567 84.4974 10.2313C86.5998 10.0833 86.5998 11.5382 88.1948 11.9754C88.9821 12.1917 89.6002 11.8729 90.4213 12.0073C91.3913 12.1666 92.4539 12.9635 93.4758 13.1434C94.0194 13.9881 92.5238 16.8159 92.3884 17.9065C91.9395 21.5153 94.5586 24.1359 97.2476 25.9869C95.4948 27.8539 93.178 28.9081 91.2109 30.6134C87.6827 33.6712 85.3659 36.9954 83.2792 41.1597L83.2702 41.1642ZM100.207 27.2346C103.111 26.0439 107.009 26.6836 109.463 24.1837C111.099 24.803 111.938 26.9842 110.672 28.3617C109.641 29.4841 105.838 29.8074 104.236 30.4222C100.194 31.9704 96.3543 37.3118 94.9398 41.3259C94.5609 42.4005 94.0059 45.9729 93.654 46.3986C92.5306 47.7579 90.0942 44.8208 89.8348 43.5822C88.7136 38.234 95.3504 29.2269 100.207 27.2346ZM113.79 45.5357C107.832 51.337 98.265 55.8543 90.3469 51.1708C99.0275 50.9841 105.991 45.4788 112.696 40.6428C114.016 40.4402 114.918 43.5685 116.224 43.7962L113.79 45.5357ZM117.09 44.6546L120.817 43.926C124.925 42.248 127.206 38.5117 130.023 35.3948C129.852 37.5168 130.172 39.4953 130.563 41.5581C126.77 45.7566 122.36 48.4683 117.088 44.6523L117.09 44.6546ZM130.666 29.236C129.929 31.597 125.466 37.9835 123.4 39.2904C122.834 39.6501 122.376 39.8254 121.69 39.7367L130.454 27.8721C131.133 28.348 130.851 28.6417 130.666 29.236ZM224.552 22.1437C225.486 20.2994 225.959 18.1797 226.789 16.2945C230.173 19.4251 228.736 26.1736 224.904 28.2865C223.888 28.8466 222.909 29.327 221.802 28.6964C221.254 25.996 223.473 24.277 224.554 22.1459L224.552 22.1437ZM199.87 22.4806C200.709 20.5522 201.679 17.4648 202.719 15.7959C202.888 15.5249 203.037 15.0445 203.473 15.1516C203.798 15.5432 204.377 15.7822 204.691 16.1078C207.45 18.9561 203.495 22.5125 202.234 25.1491C201.557 26.563 202.02 27.5648 199.861 28.2592C195.593 29.6321 199.295 23.8035 199.87 22.4829V22.4806ZM187.975 22.9565C189.301 19.5344 192.836 14.3342 196.892 17.4534C197.436 18.1979 195.999 20.4042 195.392 20.5818C194.684 20.7912 193.93 20.493 193.073 20.8527C191.859 21.365 190.61 23.6828 190.204 24.91C189.888 25.864 189.439 31.9818 187.321 29.8234C186.213 28.6964 187.424 24.3749 187.975 22.9542V22.9565ZM191.28 27.5807C190.84 27.0707 193.554 22.3235 194.151 22.9519C194.359 23.1705 192.703 27.8175 191.28 27.5807ZM182.276 9.66669C183.718 9.28874 185.132 13.0068 183.021 13.6261C181.36 14.1133 179.892 13.5669 179.551 11.7955L182.276 9.66897V9.66669ZM176.849 23.0453C177.566 21.2921 178.852 19.7325 178.913 17.7403C184.819 19.5435 179.691 23.2775 178.762 26.1281C178.103 28.1522 179.24 31.0665 176.682 31.5788C172.526 32.4098 176.204 24.6231 176.846 23.0476L176.849 23.0453ZM165.824 16.2763C166.7 16.2763 168.116 18.6237 168.215 19.4001C168.351 20.477 167.369 21.4083 167.187 22.2894C166.476 25.716 171.076 29.3794 165.398 31.0529C165.583 29.5615 166.33 27.7856 166.269 26.2943C166.131 22.9451 162.118 19.2179 165.824 16.2763ZM149.307 23.2502C149.661 23.002 150.962 23.8991 151.213 24.1996C153.397 26.8157 148.619 31.2737 146.421 32.5032C146.435 29.179 148.1 26.2237 149.307 23.2502ZM137.641 25.8412C138.307 24.6778 138.731 23.4733 139.764 25.4496C140.475 26.8066 139.009 28.6781 138.573 30.2514C137.91 32.6489 138.42 36.6379 134.916 36.2668C134.873 32.8242 135.934 28.8284 137.641 25.8412ZM136.777 39.4407C138.291 38.1702 138.941 36.1575 140.664 35.1056C140.572 36.0368 140.488 37.2822 140.058 38.1087C139.721 38.7553 134.98 43.0267 134.425 43.1769C133.676 43.3796 133.143 42.3391 132.62 41.9065C133.908 40.9092 135.516 40.4971 136.777 39.4384V39.4407ZM134.05 53.4818C133.59 53.6936 132.733 53.7801 132.315 53.4978C130.292 52.1362 135.55 45.0007 136.926 43.9328C137.215 43.7097 137.292 43.3705 137.788 43.5025C138.776 44.2083 135.568 52.7828 134.05 53.4818ZM148.366 44.4474C148.152 45.5494 147.161 46.9496 146.776 48.0562C144.777 53.7846 142.792 63.2471 134.634 57.8283C135.083 57.1475 135.932 57.0132 136.498 56.5259C141.971 51.8288 142.401 44.9779 144.256 38.5732C145.46 34.4157 148.21 34.0196 151.023 31.4923C153.67 29.1153 156.174 25.5088 158.775 23.0863C159.057 22.8244 159.181 22.5558 159.643 22.6628C160.099 24.4205 160.9 25.9277 160.288 27.7947C159.891 29.0037 157.241 32.1685 155.993 32.4417C154.969 32.6649 153.327 32.148 152.618 33.0952C151.626 34.4248 152.828 36.1825 152.607 36.565C152.478 36.7882 151.154 37.4644 150.728 37.8514C147.822 40.4948 149.002 41.1574 148.364 44.4451L148.366 44.4474ZM158.231 32.6557C158.466 32.419 159.659 31.2874 160.002 30.8138C160.363 32.2732 158.808 32.8197 158.231 32.6557ZM157.631 42.3413C155.736 43.038 154.651 41.2416 153.336 41.0185C152.533 40.8819 151.535 41.4761 150.59 41.4853C150.202 41.4875 150.029 41.5353 150.164 41.0527C150.331 40.4584 151.921 38.2294 152.546 38.3296C152.934 38.6825 158.423 41.6651 157.631 42.3413ZM159.932 42.9219V42.0567C161.793 42.9697 163.875 39.4384 164.534 41.763C163.034 42.2935 161.606 43.1291 159.932 42.9242V42.9219ZM217.951 45.1008C217.798 45.1828 217.175 45.4264 217.044 45.4264H211.646V42.1H217.125C217.193 42.1 217.861 42.3504 217.969 42.4074C219.108 43.0153 219.074 44.4998 217.951 45.1008ZM217.604 36.7335C218.713 37.2458 218.576 38.7644 217.563 39.3177C217.493 39.3564 217.071 39.5386 217.044 39.5386H211.646V36.5514H217.125C217.161 36.5514 217.527 36.6971 217.604 36.7312V36.7335ZM214.741 26.4514C214.028 27.8471 212.627 32.9608 211.842 33.6644C211.729 33.7646 211.589 33.8784 211.431 33.9945H207.427C207.29 34.591 208.025 34.3611 208.196 34.7641V35.2354C207.84 35.2217 207.499 35.1352 207.204 34.9439C206.87 34.7276 206.281 34.3246 205.78 34.2495C202.717 33.7964 202.214 37.8765 197.894 36.1188C197.107 35.7978 195.97 34.5751 195.437 34.5182C193.77 34.3406 192.313 37.8082 188.157 36.9453C186.804 36.6629 185.525 35.4631 184.248 35.6816C183.668 35.7818 182.691 36.8246 181.983 37.1821C180.205 38.0768 177.699 38.6734 175.741 38.1543C174.333 37.7809 172.96 35.6907 171.687 35.8319C170.67 35.9435 169.334 37.1752 168.335 37.626C164.317 39.4361 157.726 42.2685 154.755 37.5691C154.694 36.9612 154.791 37.1912 155.188 37.1342C160.67 36.3442 164.561 35.1466 168.996 31.6403C172.481 38.5186 177.419 33.6917 181.694 30.7933L182.218 31.0506C184.282 36.4558 189.75 33.5004 192.572 30.4791C192.838 30.4791 194.025 32.8151 195.227 33.0337C197.79 33.4982 202.8 28.6485 204.939 27.2916C205.32 28.348 204.084 29.302 203.94 30.3539C203.601 32.8493 206.362 32.1776 208.054 32.1639C210.888 28.011 211.33 22.5307 214.991 18.8855C216.437 17.4466 219.474 15.2176 221.332 16.8569C221.47 17.1665 221.084 17.8723 220.944 18.2207C219.711 21.2739 216.32 23.3549 214.741 26.4469V26.4514ZM224.049 35.5496C223.327 35.3492 220.306 33.3684 220.897 32.5055C223.685 31.7382 226.167 30.133 228.267 28.1795C231.031 30.1603 231.624 31.4422 228.951 33.8078C227.568 35.0327 225.984 36.0869 224.049 35.5496Z" fill="#2D4259"/>
<path d="M64.1765 68.9597C63.6982 69.2397 65.0337 70.8927 65.5999 70.1641C66.1639 69.4355 64.8645 68.559 64.1765 68.9597Z" fill="#2D4259"/>
<path d="M262.543 33.9947H257.81C257.682 34.6163 258.724 34.4023 258.724 35.0603V42.1844L258.474 42.0569L251.417 34.5912L252.153 34.3226L252.164 33.9924H246.436C246.305 34.5958 247.113 34.3704 247.307 34.8485L247.352 46.9202C247.255 47.7763 246.371 47.2549 246.438 47.9858H251.171C251.284 47.4166 250.589 47.5737 250.341 47.1752V38.7715L258.476 47.2617C258.248 47.6146 257.704 47.4484 257.813 47.988H262.545C262.685 47.3915 261.934 47.6215 261.758 47.2185L261.733 34.8235C261.864 34.3544 262.692 34.6049 262.545 33.9947H262.543Z" fill="#2D4259"/>
<path d="M281.991 47.569L281.019 47.289L274.774 39.7527L280.019 35.0329C280.387 34.7232 280.746 34.4637 281.204 34.3794L281.208 33.9946H275.079C274.977 34.68 275.654 34.2246 275.873 34.73L275.808 34.894L270.403 39.5227V34.8894C270.403 34.4227 271.377 34.5616 271.199 33.9946H266.27C266.152 34.5866 266.762 34.384 266.956 34.6822C267.059 34.8416 267.059 35.1194 267.071 35.3152C267.285 39.0241 266.904 43.0131 267.068 46.7516C267.122 47.6351 266.211 47.3117 266.272 47.988H271.201C271.312 47.355 270.506 47.6259 270.405 47.0044L270.418 43.6962L272.273 41.9362L276.385 47.0499C276.604 47.6077 275.51 47.3732 275.695 47.988H282L281.991 47.5713V47.569Z" fill="#2D4259"/>
<path d="M241.71 47.1546L236.6 34.5934C236.964 34.4773 237.568 34.5001 237.449 33.9946H231.428C231.319 34.5183 231.843 34.4113 232.183 34.6003L227.033 47.1091C226.848 47.5144 226.462 47.5326 226.081 47.6009L226 47.988H230.749L230.74 47.6555C230.46 47.6168 230.309 47.3823 230.164 47.1091L231.292 44.5431L237.027 44.5022C237.081 44.9735 238.164 46.8905 238.132 47.2617C238.098 47.6715 237.277 47.3914 237.449 47.988H242.621C242.768 47.3801 241.902 47.7102 241.71 47.1569V47.1546ZM232.233 42.3733L234.141 37.9244L236.009 42.3733H232.233Z" fill="#2D4259"/>
</svg>