<svg width="325" height="50" viewBox="0 0 325 50" fill="none" xmlns="http://www.w3.org/2000/svg">
<g clip-path="url(#clip0_622_1939)">
<mask id="mask0_622_1939" style="mask-type:luminance" maskUnits="userSpaceOnUse" x="0" y="-9" width="325" height="59">
<path d="M0 -8.2793H325V49.4047H0V-8.2793Z" fill="white"/>
</mask>
<g mask="url(#mask0_622_1939)">
<path d="M19.7473 1.22611C18.4223 2.53611 18.4223 5.34511 19.7473 6.73911C20.3943 7.40411 20.3943 7.42011 20.3943 8.79911C20.3943 9.54811 20.3463 10.1771 20.2793 10.1771C20.0473 10.1611 19.5673 9.72811 19.5673 9.52811C19.5673 9.41211 19.2203 8.98011 18.7733 8.53111C17.6463 7.40111 16.4883 7.13611 15.3133 7.71711C14.4543 8.15011 15.0983 10.1251 16.3883 11.0711C17.0183 11.5201 17.2503 11.5841 18.1263 11.5841C18.6893 11.5681 19.3843 11.4681 19.6833 11.3361C19.9793 11.2031 20.2633 11.1361 20.3113 11.2031C20.3593 11.2521 20.3783 12.1491 20.3593 13.1791L20.3113 15.0701L19.9313 14.6541C19.7313 14.4221 19.2843 13.9051 18.9373 13.5081C17.9273 12.3141 16.6843 11.9141 15.5103 12.3951C15.0143 12.6111 14.9303 12.7271 14.9303 13.2251C14.9303 14.0051 15.1463 14.5021 15.7743 15.2151C16.7683 16.3621 18.3903 16.8101 19.4003 16.2291C20.3273 15.6971 20.3943 15.7971 20.3943 17.8891C20.3943 20.1321 20.2143 20.3131 19.3843 18.9671C18.4743 17.4721 16.6523 16.7591 15.4263 17.3881C15.0113 17.6041 14.9303 17.7531 14.9303 18.2341C14.9303 19.8771 16.9003 21.6551 18.4573 21.4071C18.7573 21.3581 19.2843 21.2071 19.6473 21.0741L20.3113 20.8261L20.3593 22.7361C20.3753 23.7991 20.3753 24.6961 20.3273 24.7281C20.1633 24.8931 19.7473 24.4961 19.2003 23.7151C18.5223 22.7011 17.5113 22.1201 16.4363 22.1201C15.4263 22.1201 14.9303 22.4691 14.9303 23.1661C14.9473 24.4761 16.1053 25.8901 17.5473 26.2871C18.2093 26.4681 18.3903 26.4521 19.0523 26.2031C20.5263 25.6381 20.3943 25.4901 20.3943 27.7491C20.3943 28.8441 20.3463 29.7571 20.2943 29.7571C20.0633 29.7571 19.5673 29.3921 19.5673 29.2081C19.5673 28.8281 18.5573 27.7621 17.8783 27.4171C17.0353 26.9841 15.9253 26.9521 15.3293 27.3331C14.9303 27.5981 14.8993 27.7131 14.9823 28.3631C15.2143 30.4541 17.7463 31.9491 19.4843 31.0191C20.3783 30.5391 20.3943 30.5871 20.3943 32.7461C20.3943 34.6891 20.3783 34.7381 20.0633 34.5731C19.8833 34.4731 19.6323 34.1931 19.5003 33.9241C19.1363 33.2271 18.0103 32.2971 17.2993 32.0971C16.4563 31.8651 16.1893 31.8651 15.4773 32.1651C14.8983 32.4141 14.8983 32.4301 14.9663 33.2431C15.0663 34.2411 15.5933 35.0701 16.5043 35.6831C17.3473 36.2481 18.6243 36.3811 19.3683 36.0001C20.3623 35.4831 20.3943 35.5351 20.3943 37.6431C20.3943 39.7511 20.2143 40.0511 19.4843 38.9051C18.4413 37.2101 16.7193 36.4811 15.4293 37.1451C15.0143 37.3621 14.9343 37.5101 14.9343 37.9911C14.9343 40.0191 17.6343 41.8781 19.2393 40.9641C19.4713 40.8321 19.8193 40.7321 20.0343 40.7161C20.3983 40.7161 20.3983 40.7481 20.3983 42.6261C20.3983 44.8861 20.2333 45.0351 19.3383 43.6401C19.0403 43.1601 18.4963 42.5781 18.1483 42.3781C17.3383 41.8651 15.9313 41.7291 15.3483 42.1131C14.4863 42.6781 15.0183 44.4381 16.3913 45.4671C17.3343 46.1971 18.2453 46.3321 19.3713 45.8831C19.8513 45.6831 20.2813 45.5351 20.3143 45.5351C20.3623 45.5351 20.3983 46.4971 20.3983 47.6951C20.3983 49.0251 20.4653 49.8541 20.5623 49.8541C20.6583 49.8541 20.7263 49.0571 20.7263 47.7941C20.7263 46.6491 20.7933 45.6871 20.8583 45.6351C20.9253 45.6031 21.3053 45.7031 21.7013 45.8831C22.5443 46.2481 22.8433 46.2641 23.7703 46.0001C25.5753 45.4511 26.9143 42.7301 25.6903 42.0811C24.6323 41.5161 22.5283 42.2651 21.9163 43.4111C21.5853 44.0281 21.1223 44.5411 20.8903 44.5411C20.7903 44.5411 20.7263 43.7911 20.7263 42.6301C20.7263 40.7541 20.7263 40.7191 21.1063 40.7191C21.3053 40.7191 21.6203 40.8351 21.7843 40.9671C22.4963 41.5001 24.1533 41.1321 25.0963 40.2541C25.6913 39.6891 26.1703 38.6441 26.1863 37.9461C26.1863 37.5141 26.0863 37.3491 25.6913 37.1491C24.4843 36.5161 22.7113 37.2171 21.7843 38.6591C20.8903 40.0541 20.7263 39.9061 20.7263 37.6461C20.7263 35.5541 20.7933 35.4541 21.7203 35.9861C23.0623 36.7521 25.2153 35.7551 25.9263 34.0441C26.3573 33.0141 26.2733 32.4981 25.6263 32.1841C24.9643 31.8681 24.6683 31.8521 23.8213 32.1011C23.0753 32.3011 22.1673 33.0631 21.6213 33.9441C20.9093 35.0741 20.7263 34.8241 20.7263 32.6491C20.7263 30.4741 20.5943 30.6391 22.0163 31.1551C23.6893 31.7681 25.8903 30.3251 26.1383 28.4471C26.2543 27.6331 26.0383 27.3331 25.2113 27.1011C24.0013 26.7681 22.7953 27.3811 21.7013 28.8601C21.3373 29.3571 20.9743 29.7251 20.8743 29.6731C20.6743 29.5411 20.6743 25.9871 20.8743 25.8711C20.9573 25.8221 21.3543 25.9191 21.7333 26.1031C22.7083 26.5361 23.1583 26.5201 24.2173 25.9711C25.3113 25.4221 26.0223 24.4611 26.1383 23.3981C26.2223 22.7681 26.1703 22.6331 25.8383 22.3851C25.3083 22.0201 24.1183 22.0521 23.2553 22.4691C22.5443 22.8171 21.5493 23.8311 21.5493 24.2281C21.5493 24.4121 21.0543 24.7771 20.8223 24.7771C20.7743 24.7771 20.7223 23.9151 20.7223 22.8661C20.7223 21.1061 20.7393 20.9551 21.0383 20.9551C21.2023 20.9551 21.5683 21.0711 21.8173 21.2031C23.5383 22.1011 26.1703 20.2731 26.1873 18.1831C26.1873 17.7501 26.0873 17.5851 25.6553 17.3691C24.4293 16.7191 22.6603 17.4531 21.7173 18.9791C20.9063 20.3091 20.7233 20.1091 20.7233 17.8821C20.7233 15.7901 20.7903 15.6901 21.7173 16.2221C22.3123 16.5551 23.4383 16.5231 24.1853 16.1551C25.3953 15.5421 26.3223 14.0471 26.1553 12.9821C26.1223 12.6661 25.9393 12.5171 25.4433 12.3331C24.1533 11.8851 22.6793 12.5491 21.7363 13.9931C20.8933 15.2871 20.7263 15.1231 20.7263 12.9791C20.7263 11.3361 20.7583 11.1521 21.0253 11.1521C21.1893 11.1521 21.4723 11.2681 21.6553 11.4001C22.0193 11.6811 23.3293 11.7331 23.9893 11.4681C25.0793 11.0681 26.2573 9.42511 26.1573 8.44711C26.1253 8.01411 25.9933 7.85011 25.4793 7.61711C24.5363 7.13711 23.4093 7.46911 22.3993 8.48211C21.9843 8.91511 21.5043 9.46011 21.3403 9.71211C21.1763 9.96111 20.9773 10.1291 20.8773 10.0771C20.7933 10.0091 20.7293 9.38011 20.7293 8.66711C20.7293 7.42011 20.7613 7.32011 21.1603 7.05611C21.8713 6.59111 22.3863 5.29611 22.3863 3.96611C22.3863 2.63611 22.0903 1.84311 21.4433 1.14211C20.8643 0.562111 20.3853 0.577111 19.7543 1.21011L19.7473 1.22611ZM5.0973 10.6941C4.2863 11.3421 3.9223 12.2721 3.9223 13.7501C3.9223 15.2291 4.3223 16.2581 5.0813 16.7551C5.4613 17.0041 5.4963 17.1201 5.4963 18.4151C5.4963 20.0411 5.2643 20.2251 4.5853 19.1631C3.7233 17.7691 2.4323 17.0361 1.1903 17.2041C0.312301 17.3201 0.0323012 17.5691 0.0323012 18.2661C0.0323012 19.4281 1.1743 20.8901 2.4323 21.3061C3.0953 21.5231 3.7583 21.4711 4.7493 21.0901L5.4123 20.8421L5.4603 22.7521C5.4763 23.8151 5.4763 24.7121 5.4283 24.7441C5.2643 24.9091 4.8483 24.5121 4.3023 23.7311C3.6223 22.7171 2.6123 22.1361 1.5383 22.1361C0.463301 22.1361 0.0323012 22.4851 0.0323012 23.2311C0.0323012 24.5091 1.2263 25.9031 2.6483 26.3031C3.3113 26.4841 3.4913 26.4681 4.1543 26.2191C5.6283 25.6551 5.4963 25.5061 5.4963 27.7661C5.4963 28.9961 5.4283 29.7731 5.3323 29.7731C5.1163 29.7731 4.5053 29.1601 4.5053 28.9601C4.5053 28.6441 3.6103 27.7661 2.9833 27.4331C2.1883 27.0331 1.2773 26.9681 0.550301 27.2851C0.0193012 27.5011 0.00330123 27.5331 0.0703012 28.2981C0.286301 30.4581 2.8023 31.9841 4.5883 31.0381C5.4833 30.5581 5.4983 30.6061 5.4983 32.7661C5.4983 34.9251 5.3833 35.1411 4.4883 33.8111C3.4463 32.3011 1.8883 31.6361 0.614301 32.1681C0.00330126 32.4331 -0.0126988 32.4331 0.0673012 33.2631C0.215301 34.8251 1.5093 36.0871 3.0793 36.2191C3.6743 36.2681 4.1063 36.2031 4.4693 36.0191C5.4633 35.5031 5.4963 35.5541 5.4963 37.6621C5.4963 39.7701 5.3163 40.0701 4.6013 38.9571C3.5073 37.2461 1.8053 36.5001 0.527301 37.1621C-0.299699 37.5941 -0.135699 38.8211 0.891301 39.9861C1.8503 41.0841 3.3913 41.5321 4.3343 40.9841C4.5663 40.8511 4.9143 40.7511 5.1293 40.7351C5.4923 40.7351 5.4923 40.7671 5.4923 42.6461C5.4923 44.9061 5.3283 45.0541 4.4343 43.6601C4.1343 43.1791 3.5913 42.5981 3.2443 42.3981C2.4323 41.8841 1.0263 41.7481 0.444301 42.1331C-0.418699 42.6981 0.112301 44.4571 1.4863 45.4871C2.4293 46.2171 3.3403 46.3521 4.4663 45.9031C4.9463 45.7031 5.3763 45.5541 5.4093 45.5541C5.4573 45.5541 5.4923 46.5161 5.4923 47.7141C5.4923 49.0441 5.5603 49.8741 5.6573 49.8741C5.7533 49.8741 5.8213 49.0761 5.8213 47.8141C5.8213 46.6681 5.8693 45.7061 5.9533 45.6541C6.0203 45.6221 6.3683 45.7221 6.7313 45.8871C7.0953 46.0711 7.5743 46.2031 7.7903 46.2191C8.4693 46.2191 9.4123 45.8551 10.0263 45.3741C11.0533 44.5081 11.6323 42.7341 11.0363 42.2361C10.6573 41.9201 9.4153 41.8391 8.7203 42.0721C8.0413 42.3041 6.6503 43.5661 6.6503 43.9661C6.6503 44.1821 6.1873 44.5631 5.9243 44.5631C5.8753 44.5631 5.8243 43.7021 5.8243 42.6531C5.8243 40.7771 5.8243 40.7421 6.2043 40.7421C6.4043 40.7421 6.7183 40.8581 6.8833 40.9901C7.5933 41.5231 9.2513 41.1551 10.1933 40.2771C10.7893 39.7121 11.2683 38.6671 11.2853 37.9691C11.2853 37.5361 11.1853 37.3721 10.7893 37.1721C9.5823 36.5391 7.8093 37.2391 6.8833 38.6821C5.9883 40.0771 5.8233 39.9281 5.8233 37.6691C5.8233 35.5771 5.8913 35.4771 6.8183 36.0091C8.1603 36.7751 10.3133 35.7771 11.0243 34.0661C11.4553 33.0361 11.3723 32.5201 10.7243 32.2071C10.0623 31.8911 9.7663 31.8751 8.9193 32.1231C8.1733 32.3231 7.2653 33.0851 6.7193 33.9661C6.0073 35.0961 5.8243 34.8471 5.8243 32.6721C5.8243 30.4961 5.6923 30.6611 7.1143 31.1781C8.4723 31.6911 10.1103 30.9131 10.8733 29.3981C11.5523 28.0041 11.4203 27.4401 10.2773 27.1231C9.0873 26.7751 7.5453 27.6721 6.4353 29.3311C6.2713 29.5801 6.0723 29.7801 5.9883 29.7801C5.8883 29.7801 5.8243 28.9341 5.8243 27.7721C5.8243 26.2261 5.8723 25.7811 6.0393 25.8451C7.6773 26.4751 7.9443 26.5261 8.5883 26.3261C10.5583 25.7291 12.0633 23.2051 10.9213 22.4071C10.4253 22.0591 9.1993 22.0751 8.3723 22.4561C7.7103 22.7531 6.6513 23.8501 6.6513 24.2471C6.6513 24.4311 6.1553 24.7961 5.9243 24.7961C5.8753 24.7961 5.8243 23.9341 5.8243 22.8861C5.8243 21.1261 5.8403 20.9741 6.1393 20.9741C6.3033 20.9741 6.6703 21.0901 6.9183 21.2231C8.6403 22.1201 11.2723 20.2931 11.2883 18.2021C11.2883 17.7691 11.1883 17.6041 10.7573 17.3881C9.5313 16.7551 7.6773 17.4881 6.8183 18.9831C6.5873 19.3991 6.2553 19.7481 6.1083 19.7801C5.8593 19.8281 5.8243 19.6641 5.8243 18.4851C5.8243 17.1751 5.8403 17.1231 6.3393 16.6911C7.1173 16.0421 7.4813 15.1121 7.4813 13.7511C7.4813 12.3881 7.1173 11.4581 6.3393 10.7941C5.6923 10.2611 5.6593 10.2441 5.0973 10.6941ZM34.7303 10.8421C33.7553 11.7041 33.3563 13.6151 33.8353 15.2091C33.9513 15.5741 34.3153 16.1881 34.6623 16.5391C35.2743 17.2041 35.2903 17.2361 35.2903 18.5151C35.2903 20.0611 35.0743 20.1931 34.3153 19.0801C33.3553 17.6851 32.1953 17.0361 30.9553 17.2041C30.1123 17.3201 29.8293 17.5691 29.8293 18.2501C29.8293 19.0151 30.0933 19.6451 30.7083 20.2931C31.7023 21.3391 33.2083 21.7561 34.1353 21.2231C34.3663 21.0911 34.7143 20.9911 34.9293 20.9741C35.2933 20.9741 35.2933 21.0071 35.2933 22.8851C35.2933 25.1451 35.1453 25.2931 34.2343 23.9151C33.4563 22.7691 32.6933 22.2721 31.5543 22.1721C30.8913 22.1231 30.5443 22.1721 30.2283 22.3881C29.8293 22.6371 29.7973 22.7531 29.8643 23.4661C29.9643 24.3801 30.4283 25.1261 31.3543 25.7901C32.2813 26.4711 33.2243 26.5721 34.1863 26.1391C34.6013 25.9391 35.0293 25.7901 35.1133 25.7901C35.2293 25.7901 35.2933 26.5041 35.2933 27.7821C35.2933 28.8791 35.2253 29.7741 35.1613 29.7741C34.9293 29.7741 34.5473 29.3761 34.0863 28.6601C33.2593 27.3501 31.3713 26.6841 30.2443 27.2821C29.9133 27.4661 29.8293 27.6301 29.8293 28.1431C29.8293 30.2871 32.4293 31.9811 34.2503 31.0481C35.2773 30.5161 35.2933 30.5511 35.2933 32.7591C35.2933 33.8571 35.2613 34.7511 35.2253 34.7511C34.9103 34.7511 34.5633 34.4511 34.2993 33.9211C33.8683 33.0911 32.9573 32.3431 32.0303 32.0781C31.4033 31.9141 31.1523 31.9141 30.5883 32.1101C29.9423 32.3271 29.9103 32.3751 29.8613 33.1081C29.7293 35.1161 32.5773 36.9781 34.2993 35.9971C35.2253 35.4641 35.2933 35.5641 35.2933 37.6561C35.2933 39.2181 35.2453 39.5661 35.0453 39.5661C34.9133 39.5661 34.6823 39.3661 34.5153 39.1341C33.3723 37.4751 32.2453 36.7741 30.9883 36.9591C30.0613 37.0751 29.8293 37.3231 29.8293 38.1531C29.8293 40.0801 32.5613 41.8751 34.1353 40.9771C34.3663 40.8451 34.7143 40.7451 34.9293 40.7291C35.2933 40.7291 35.2933 40.7611 35.2933 42.6391C35.2933 44.8151 35.1133 45.0481 34.3833 43.9021C33.5883 42.6081 32.4613 41.8911 31.2873 41.8911C29.9453 41.8911 29.4823 42.7211 30.0453 44.0991C30.4923 45.1451 32.0493 46.2071 33.1723 46.2071C33.3373 46.2071 33.8353 46.0581 34.2993 45.8741C34.7623 45.6941 35.1773 45.5421 35.2093 45.5421C35.2583 45.5421 35.2933 46.5041 35.2933 47.7011C35.2933 49.0311 35.3613 49.8611 35.4573 49.8611C35.5543 49.8611 35.6213 49.0311 35.6213 47.7011C35.6213 46.5071 35.6693 45.5411 35.7533 45.5411C35.8213 45.5581 36.1683 45.6911 36.5323 45.8741C37.4273 46.3071 38.0543 46.2901 39.0813 45.7741C40.3223 45.1411 41.2983 43.5141 41.0183 42.5841C40.7863 41.8711 39.3283 41.6711 38.1863 42.2041C37.5583 42.4841 36.4483 43.5501 36.4483 43.8821C36.4483 44.0661 35.9683 44.5471 35.7693 44.5471C35.6863 44.5471 35.6213 43.7021 35.6213 42.6371C35.6213 40.5451 35.6893 40.4451 36.6163 40.9771C38.1213 41.8391 40.6703 40.3291 41.0023 38.3891C41.1663 37.3751 40.7383 36.9941 39.4443 36.9941C38.2343 36.9941 37.3073 37.5591 36.5803 38.7541C35.7703 40.0481 35.6213 39.8841 35.6213 37.6561C35.6213 35.5801 35.6533 35.5131 36.5483 35.9961C37.6583 36.5621 39.2283 36.1461 40.2233 35.0191C40.7033 34.4701 41.0853 33.5401 41.0853 32.9111C41.0853 32.3941 40.4583 32.0301 39.5283 32.0301C38.3533 32.0301 37.3113 32.6431 36.6323 33.7571C35.8053 35.1191 35.6223 34.9191 35.6223 32.6621C35.6223 30.4061 35.4893 30.6521 36.9123 31.1681C37.8383 31.5171 38.8323 31.2841 39.7593 30.4871C40.5223 29.8381 40.8343 29.2931 41.0013 28.3951C41.1503 27.6301 40.9343 27.3491 40.0913 27.1171C38.8013 26.7681 37.4753 27.5171 36.2333 29.3411C36.0693 29.5731 35.8693 29.7731 35.7853 29.7731C35.6853 29.7731 35.6213 28.9281 35.6213 27.7821C35.6213 26.6361 35.6533 25.7901 35.7213 25.7901C35.7693 25.7901 36.1523 25.9391 36.5643 26.1391C38.0383 26.8201 39.8403 26.0711 40.6543 24.4441C41.4173 22.8981 41.1663 22.3011 39.7273 22.1691C39.0323 22.1201 38.6693 22.1851 38.1543 22.4331C37.5073 22.7661 36.4483 23.8121 36.4483 24.1281C36.4483 24.3121 35.9683 24.7931 35.7693 24.7931C35.6863 24.7931 35.6213 23.9471 35.6213 22.8821C35.6213 21.0071 35.6213 20.9721 36.0013 20.9721C36.2013 20.9721 36.5163 21.0871 36.6803 21.2201C37.8543 22.1171 40.4063 20.7391 40.9023 18.9441C41.1663 17.9981 41.0503 17.5821 40.4223 17.3171C39.1803 16.8041 37.4593 17.5501 36.5803 18.9961C35.8343 20.1901 35.6213 20.0741 35.6213 18.5151C35.6213 17.2361 35.6373 17.2051 36.2493 16.5391C37.2593 15.4771 37.5593 13.7341 37.0113 12.1201C36.7803 11.4071 35.8373 10.3451 35.4543 10.3451C35.3703 10.3451 35.0393 10.5771 34.7273 10.8421H34.7303Z" fill="#009645"/>
<path d="M61.6987 18.6461C61.4347 18.7141 57.7247 18.7781 53.4707 18.7951L45.7207 18.8111V19.2111C45.7207 19.9411 46.0207 20.4571 46.6157 20.7051C46.9317 20.8381 47.2628 21.0861 47.3628 21.2701C47.4948 21.5031 47.5428 24.5921 47.5428 30.9861C47.5428 40.0861 47.5268 40.3691 47.2118 40.7831C47.0318 40.9991 46.6998 41.2481 46.4648 41.2991C46.0178 41.4151 45.7188 41.9641 45.7188 42.6611V43.0581H53.3517L53.3027 42.2781C53.2707 41.6281 53.1868 41.4481 52.8398 41.2801C52.0288 40.8831 52.0127 40.7831 52.0127 36.1311V31.7641H54.0498C56.3338 31.7641 56.3667 31.7801 57.0457 33.0101C57.3767 33.6231 57.4608 33.6751 58.1878 33.7231L58.9668 33.7721V27.4451H58.3198C57.6398 27.4451 57.1298 27.8781 56.8978 28.6231C56.6978 29.2371 55.9708 29.4371 53.9178 29.4371H52.0127V20.8021H55.2238C59.1308 20.8021 59.1787 20.8181 60.2057 22.8781L60.8678 24.2081L61.6628 24.2561L62.4417 24.3051V21.3991C62.4417 19.7891 62.3938 18.4941 62.3258 18.4941C62.2418 18.5111 61.9777 18.5781 61.6987 18.6431V18.6461ZM110.867 18.6461C110.604 18.7141 106.893 18.7781 102.639 18.7951L94.8908 18.8111V19.2111C94.8908 19.9411 95.1897 20.4571 95.7847 20.7051C96.1007 20.8381 96.4317 21.0861 96.5317 21.2701C96.6637 21.5031 96.7118 24.5921 96.7118 30.9861C96.7118 40.0861 96.6957 40.3691 96.3807 40.7831C96.2007 40.9991 95.8687 41.2481 95.6337 41.2991C95.1867 41.4151 94.8878 41.9641 94.8878 42.6611V43.0581H102.7L102.585 42.3611C102.437 41.4801 102.404 41.4151 101.906 41.2311C101.653 41.1135 101.453 40.9071 101.343 40.6511C101.243 40.4011 101.178 38.3581 101.178 35.9831V31.7641H103.215C104.325 31.7641 105.336 31.8321 105.468 31.9121C105.584 31.9961 105.883 32.4261 106.131 32.8581C106.546 33.6391 106.594 33.6721 107.357 33.7231L108.135 33.7721V27.4451H107.489C106.81 27.4451 106.298 27.8781 106.066 28.6231C105.867 29.2201 105.14 29.4371 103.17 29.4371H101.349V20.8021H104.477C108.283 20.8021 108.351 20.8341 109.378 22.8781C110.056 24.2241 110.256 24.3881 111.247 24.4401L111.611 24.4561V21.4671C111.611 19.8241 111.562 18.4941 111.495 18.4941C111.411 18.5111 111.147 18.5781 110.867 18.6431V18.6461ZM195.381 19.2951C193.28 19.9751 191.922 21.6191 191.655 23.7951C191.539 24.8241 191.903 27.6131 192.318 28.7591C192.45 29.1561 192.549 29.5081 192.533 29.5241C192.501 29.5401 191.854 29.8881 191.076 30.2891C187.616 32.0831 185.959 34.9891 186.439 38.4421C186.77 40.7661 187.929 42.4451 189.898 43.3751C190.757 43.7721 190.989 43.8071 193.142 43.8071C195.957 43.8071 197.695 43.3911 199.365 42.2971C199.78 42.0321 199.812 42.0321 200.507 42.5451C200.906 42.8251 201.765 43.2261 202.396 43.4261C203.67 43.8261 203.439 43.8261 209.829 43.6421L213.42 43.5421V43.0621C213.42 42.2961 213.256 42.0481 212.494 41.7321C211.914 41.4671 211.766 41.3151 211.683 40.8701C211.635 40.5701 211.615 36.4181 211.635 31.6541L211.683 22.9841L218.337 43.4741H219.779L223.039 33.2621L226.318 23.0491L226.334 32.0481C226.334 42.0961 226.433 41.2631 225.207 41.9281C224.744 42.1771 224.677 42.2931 224.677 42.8901V43.5551H232.457V43.1581C232.457 42.3931 232.177 41.9281 231.547 41.7321C231.167 41.5991 230.884 41.3821 230.784 41.1181C230.585 40.5701 230.585 22.4521 230.8 21.9061C230.849 21.779 230.927 21.6648 231.027 21.5724C231.128 21.48 231.248 21.4119 231.379 21.3731C231.894 21.2411 232.126 20.8411 232.126 20.0791V19.4821H224.744L222.459 26.5731C221.201 30.4931 220.126 33.7651 220.059 33.8811C220.011 33.9811 218.849 30.7921 217.475 26.7741L215.01 19.4821H207.461V20.0951C207.461 20.8601 207.561 21.0251 208.24 21.3731C208.536 21.5221 208.819 21.8061 208.867 22.0231C208.915 22.2231 208.935 26.4571 208.915 31.4381L208.867 40.4731L208.105 40.9531C207.673 41.2181 207.046 41.4701 206.679 41.5181C205.337 41.7021 203.632 40.8381 202.673 39.4911L202.142 38.7431L203.201 37.1161C204.69 34.8401 206.016 33.0491 206.611 32.5481C206.891 32.3161 207.49 32.0001 207.953 31.8511L208.78 31.5711V29.9431H205.054C200.932 29.9431 200.964 29.9271 201.279 30.9891C201.395 31.4221 201.543 31.5541 202.09 31.6861C203.728 32.0861 203.728 32.9321 202.074 35.0921C200.916 36.6021 200.932 36.5861 200.237 35.4921C199.474 34.2941 197.125 29.9471 197.206 29.8791C197.238 29.8461 197.836 29.4461 198.512 28.9981C200.864 27.4191 201.955 25.8601 202.123 23.8491C202.271 21.9741 201.376 20.5281 199.523 19.6661C198.795 19.3331 198.297 19.2331 197.19 19.2011C196.411 19.1851 195.6 19.2171 195.368 19.3011L195.381 19.2951ZM198.229 21.4551C199.918 22.5321 199.951 24.1431 198.313 26.0381C197.997 26.4021 197.402 26.9511 196.987 27.2321L196.24 27.7811L195.909 26.9831C195.394 25.7731 195.178 24.8241 195.162 23.6301C195.146 22.3841 195.478 21.6031 196.173 21.2381C196.852 20.8571 197.383 20.9211 198.226 21.4541L198.229 21.4551ZM195.034 34.8051C195.697 36.0991 196.688 37.8421 197.235 38.6911C197.782 39.5371 198.177 40.3011 198.129 40.3851C197.981 40.6021 196.655 41.0151 195.333 41.2471C192.817 41.6641 190.963 40.4501 190.416 38.0101C190.168 36.8961 190.448 35.6181 191.143 34.7041C191.623 34.0751 193.492 32.4291 193.724 32.4291C193.772 32.4291 194.351 33.4911 195.034 34.8051ZM265.872 19.5921L264.581 19.6591V20.1731C264.581 20.5371 264.745 20.8211 265.16 21.2031L265.74 21.7351V31.6481C265.74 41.1121 265.724 41.5801 265.424 41.8771C265.26 42.0411 265.028 42.2091 264.929 42.2411C264.829 42.2741 264.697 42.5901 264.629 42.9391L264.53 43.5521H270.537V43.0391C270.537 42.6901 270.389 42.3891 270.006 42.0411L269.459 41.5611L269.411 37.4771C269.363 32.9941 269.328 33.1261 270.405 32.5771C271.316 32.1121 272.359 31.9971 272.97 32.3121C273.897 32.7931 274.013 33.4421 274.013 37.8261V41.7281L273.598 41.9931C273.266 42.2091 273.182 42.4091 273.182 42.9061V43.5561H278.811V42.9901C278.811 42.5581 278.695 42.3411 278.363 42.0931L277.9 41.7601L277.816 37.2931L277.733 32.8421L277.253 31.8801C276.159 29.6371 273.462 29.1561 270.499 30.6701L269.373 31.2341V19.4791L268.262 19.5111C267.635 19.5271 266.557 19.5791 265.862 19.5951L265.872 19.5921ZM87.5408 24.6241C86.2508 24.7891 86.1187 24.9891 86.1187 26.7671C86.1187 28.5461 85.9188 29.2431 85.3078 29.7731C84.9598 30.0531 84.7928 30.3701 84.7608 30.7701C84.7128 31.3351 84.7287 31.3511 85.3407 31.4031L85.9507 31.4511V35.9511C85.9507 41.0511 86.0188 41.4481 87.0258 42.4941C88.1528 43.6721 89.8418 43.8561 91.6278 42.9911C93.0698 42.2931 93.1338 42.2261 92.8018 41.4121C92.6018 40.8801 92.4547 40.7321 92.2547 40.8151C92.1067 40.8831 91.6087 40.9631 91.1287 41.0151C90.3687 41.0991 90.2337 41.0641 89.8547 40.6831L89.4237 40.2501V31.2671H92.5668V29.4401H89.4237V24.4601L88.9757 24.4761C88.7127 24.4921 88.0657 24.5601 87.5347 24.6241H87.5408ZM309.641 25.1211C308.083 25.3051 308.003 25.4371 307.919 27.7291L307.871 29.6401L307.244 30.1731C306.729 30.6051 306.629 30.7861 306.629 31.3031C306.629 31.9191 306.645 31.9351 307.192 31.9351H307.771L307.82 36.6991C307.868 41.2671 307.884 41.5151 308.235 42.1641C308.962 43.5431 310.236 44.1721 311.909 44.0071C312.82 43.9071 314.374 43.2421 314.741 42.8131C315.04 42.4481 314.477 41.1701 314.094 41.3351C313.946 41.4031 313.448 41.4831 313 41.5151C312.337 41.5831 312.09 41.5321 311.758 41.2671L311.343 40.9341L311.295 36.3511L311.247 31.7671H314.41V29.9401H311.266V27.4491C311.266 25.1741 311.234 24.9581 310.986 24.9741C310.822 24.9901 310.223 25.0581 309.644 25.1221L309.641 25.1211ZM158.958 29.2081C156.11 29.9721 154.321 32.5131 154.321 35.7831C154.321 39.7171 156.506 42.5901 160.033 43.2391C162.434 43.6881 164.551 42.7061 166.108 40.4311L166.604 39.7011L166.073 39.2691L165.561 38.8201L164.702 39.6501C163.627 40.6951 162.865 41.0601 161.787 41.0601C159.734 41.0601 158.06 39.1851 157.848 36.6091L157.748 35.5791H166.736V35.0311C166.736 34.3171 166.305 32.5231 165.973 31.9091C165.246 30.4831 163.772 29.4531 162.015 29.1201C160.757 28.8881 160.078 28.9041 158.952 29.2041L158.958 29.2081ZM162.102 31.0831C162.617 31.4311 163.261 32.6771 163.261 33.2911V33.7561H160.529C157.449 33.7561 157.517 33.7881 158.112 32.5101C158.891 30.8311 160.792 30.1531 162.102 31.0831Z" fill="black"/>
<path d="M111.645 29.358C110.451 29.691 109.924 29.991 109.328 30.672C108.334 31.818 108.501 33.112 109.676 33.577C111.018 34.074 112.276 33.161 112.276 31.666C112.276 31.185 112.359 30.936 112.54 30.869C113.035 30.685 114.277 30.769 114.776 31.033C115.423 31.366 115.902 32.428 115.918 33.525V34.371L115.223 34.487C112.758 34.868 110.191 35.782 109.164 36.663C107.607 37.976 107.41 40.481 108.717 42.027C109.528 42.957 110.722 43.454 112.276 43.454C113.849 43.47 114.792 43.122 115.735 42.16L116.462 41.41L116.926 42.06C117.189 42.424 117.621 42.825 117.885 42.973C118.547 43.306 120.086 43.289 120.764 42.957C121.112 42.757 121.295 42.741 121.344 42.873C121.392 43.005 122.303 43.053 124.375 43.053C127.191 43.053 127.339 43.038 127.339 42.737C127.339 42.157 127.043 41.607 126.692 41.507C126.096 41.359 125.981 40.662 126.061 37.822C126.145 34.965 126.393 33.771 127.055 33.006C127.419 32.573 127.435 32.573 128.05 32.841C128.397 32.989 129.044 33.121 129.475 33.141C130.434 33.173 131.081 32.792 131.428 31.963C131.588 31.578 131.613 31.15 131.499 30.7489C131.384 30.3479 131.137 29.9975 130.798 29.755C129.292 28.677 127.107 29.555 125.965 31.682C125.701 32.179 125.701 32.163 125.681 30.785V29.39L124.407 29.507C123.712 29.555 122.753 29.607 122.254 29.607H121.376V30.204C121.376 30.652 121.492 30.901 121.923 31.282L122.454 31.762V36.414C122.454 40.665 122.438 41.082 122.158 41.346C121.894 41.611 121.826 41.611 121.662 41.395C121.53 41.246 121.183 41.146 120.719 41.146C119.629 41.146 119.561 40.946 119.561 37.063C119.561 34.255 119.513 33.641 119.23 32.712C118.798 31.334 117.772 30.139 116.549 29.607C115.439 29.109 112.974 28.993 111.648 29.358H111.645ZM116.083 37.528C116.066 39.852 115.239 40.917 113.351 41.033C112.16 41.098 111.812 40.901 111.613 39.987C111.433 39.157 111.545 38.641 112.06 37.944C112.639 37.163 114.493 36.285 115.635 36.266L116.083 36.249V37.528ZM72.13 29.591C71.402 29.923 70.608 30.704 70.077 31.598L69.729 32.179V29.391L68.455 29.507C67.76 29.556 66.785 29.607 66.286 29.607H65.376L65.476 30.272C65.523 30.737 65.723 31.086 66.07 31.418L66.582 31.899V40.934L66.071 41.415C65.771 41.695 65.54 42.112 65.475 42.477L65.375 43.057H71.383V42.561C71.383 42.08 71.087 41.663 70.473 41.315C70.225 41.166 70.157 40.85 70.093 39.372C70.009 37.428 70.273 34.704 70.623 33.842C70.756 33.542 71.003 33.145 71.203 32.945C71.518 32.629 71.567 32.629 72.146 32.861C72.493 33.01 73.156 33.126 73.652 33.142C74.43 33.158 74.595 33.11 75.042 32.661C76.812 30.882 74.527 28.474 72.127 29.588L72.13 29.591Z" fill="black"/>
<path d="M78.8458 29.5404C76.2808 30.2214 75.0388 32.1974 75.7178 34.4884C75.9658 35.3504 77.4228 36.8124 78.6658 37.4784C80.5188 38.4554 81.3298 39.0724 81.5618 39.6374C81.8448 40.2864 81.6618 41.1314 81.1978 41.4964C80.8178 41.7764 78.7648 41.8124 78.5338 41.5284C78.4338 41.4124 78.3698 40.9154 78.3858 40.4314C78.4178 39.6174 78.3698 39.5014 77.8738 39.0524C77.4588 38.6884 77.1788 38.5724 76.6318 38.5724C76.2518 38.5724 75.8528 38.6394 75.7528 38.7044C75.1228 39.1204 74.9588 40.7144 75.4538 41.5614C76.2328 42.8744 78.8298 43.7684 80.7698 43.4044C83.3018 42.9074 84.9398 41.2124 84.9558 39.0844C84.9558 37.2424 84.0458 36.1804 80.9178 34.4174C78.1378 32.8554 77.6738 32.2424 78.5848 31.3444C78.9168 30.9964 79.1478 30.9284 79.9748 30.9284C80.5218 30.9284 81.0018 30.9964 81.0498 31.0764C81.0978 31.1444 81.0498 31.4414 80.9338 31.7414C80.3708 33.2364 82.6238 34.1174 83.9138 32.8874C84.1938 32.6234 84.2938 32.3554 84.2938 31.7904C84.2938 31.1604 84.2098 30.9604 83.6658 30.4284C82.6068 29.3504 80.7508 29.0184 78.8488 29.5304L78.8458 29.5404ZM139.222 29.5394C138.807 29.6724 138.08 30.0374 137.601 30.3534C137.121 30.6694 136.706 30.9344 136.674 30.9344C136.642 30.9344 136.606 30.5864 136.606 30.1694V29.4044L134.09 29.5204C132.7 29.5884 131.525 29.6694 131.49 29.7044C131.458 29.7374 131.474 30.0044 131.538 30.3024C131.602 30.7184 131.786 30.9344 132.265 31.1824L132.877 31.5154L132.925 36.0834C132.941 38.5914 132.925 40.8154 132.877 40.9994C132.845 41.1994 132.581 41.4474 132.298 41.5644C131.75 41.7964 131.471 42.1774 131.471 42.7094C131.471 43.0424 131.554 43.0584 134.634 43.0584H137.813L137.713 42.4454C137.646 42.0964 137.514 41.7804 137.414 41.7484C137.314 41.7154 137.082 41.5484 136.918 41.3834C136.619 41.0834 136.603 40.7504 136.603 36.8324V32.5964L137.134 32.2644C137.43 32.0844 138.061 31.8484 138.54 31.7514C139.319 31.5674 139.451 31.5864 140.194 31.9514C141.501 32.6004 141.568 32.8484 141.568 37.3004V41.0864L141.089 41.5344C140.825 41.7834 140.558 42.2324 140.493 42.5324L140.378 43.0644H146.205V42.5674C146.205 42.3034 146.089 41.9874 145.941 41.8704C144.982 41.0734 145.047 41.4214 145.047 36.9384V32.7874L145.478 32.4554C145.993 32.0384 147.547 31.7054 148.342 31.8414C148.657 31.8904 149.104 32.1224 149.336 32.3544L149.767 32.7714L149.816 36.9544L149.864 41.1214L149.349 41.5864C149.001 41.9024 148.853 42.1994 148.853 42.5484V43.0614H154.649V42.6294C154.649 42.3454 154.449 42.0124 154.07 41.6674L153.49 41.1344V36.9844C153.474 32.5844 153.374 31.7184 152.728 30.7414C151.537 28.9134 148.358 28.8494 145.774 30.5924L144.815 31.2414L144.02 30.5284C142.714 29.3494 141.008 29.0014 139.219 29.5494L139.222 29.5394ZM173.441 29.5894C172.714 29.9214 171.919 30.7024 171.388 31.5964L171.041 32.1764V29.3894L169.766 29.5054C169.044 29.5587 168.321 29.5921 167.598 29.6054H166.687L166.787 30.2704C166.835 30.7354 167.034 31.0844 167.382 31.4164L167.894 31.8974V40.9164L167.314 41.4964C166.919 41.8944 166.735 42.2264 166.735 42.5594V43.0564H172.695V42.5594C172.695 42.0784 172.399 41.6614 171.768 41.2974C171.469 41.1324 171.453 40.8974 171.469 38.2244C171.469 35.0704 171.7 33.8404 172.411 32.9914C172.743 32.6114 172.843 32.5754 173.158 32.7434C173.888 33.1404 175.163 33.2754 175.758 33.0074C176.405 32.7594 177 31.8944 177 31.2644C177 30.6354 176.405 29.7704 175.758 29.5054C174.995 29.1894 174.236 29.2214 173.441 29.5894ZM180.179 29.5244C179.069 29.8404 178.773 29.9894 177.994 30.7024C176.456 32.0964 176.537 34.6044 178.158 36.1674C178.442 36.4314 179.549 37.1804 180.607 37.8264C182.892 39.2044 183.288 39.7014 182.976 40.7504C182.728 41.5644 182.412 41.7284 181.09 41.7284C179.767 41.7284 179.584 41.5484 179.732 40.4984C179.848 39.7854 179.816 39.7014 179.269 39.1524C178.773 38.6554 178.574 38.5724 177.943 38.5724C176.916 38.5724 176.501 39.0884 176.501 40.3314C176.501 41.1284 176.569 41.3094 177.08 41.8774C177.792 42.6744 178.77 43.1394 180.192 43.4034C182.393 43.8204 184.877 42.7064 185.82 40.8954C186.235 40.0984 186.284 39.8504 186.235 38.8684C186.136 37.0414 185.209 36.0124 182.097 34.3334C181.254 33.8684 180.327 33.2874 180.028 33.0234C179.249 32.3584 179.301 31.6134 180.16 31.1804C180.691 30.8994 182.229 30.8474 182.377 31.0964C182.425 31.1964 182.393 31.5124 182.277 31.8264C182.094 32.3064 182.113 32.4554 182.342 32.8234C182.905 33.6844 184.478 33.6844 185.273 32.8394C185.753 32.3254 185.769 31.5094 185.341 30.7634C184.646 29.5854 182.097 28.9694 180.176 29.5174L180.179 29.5244ZM60.7518 29.5564L59.2938 29.6244V30.1564C59.2938 30.8214 59.4098 30.9864 60.0728 31.3354C60.4528 31.5154 60.6358 31.7514 60.6998 32.1484C60.7478 32.4284 60.7838 34.5724 60.7478 36.8964C60.6998 40.7994 60.6838 41.1314 60.3848 41.2964C59.7048 41.6934 59.4578 41.9934 59.3578 42.5064L59.2578 43.0554H65.0858V42.5584C65.0858 42.0774 64.6898 41.5124 64.2758 41.3804C63.8788 41.2474 63.7598 39.8694 63.7598 34.7044V29.4404L62.9818 29.4724C62.5338 29.4884 61.5398 29.5404 60.7448 29.5564H60.7518ZM236.714 29.6084C234.761 29.9564 233.171 31.2354 232.26 33.2104C231.334 35.1864 231.433 38.1104 232.476 40.2184C233.155 41.5644 234.577 42.8744 235.951 43.4074C237.393 43.9564 239.462 43.9724 240.604 43.4394C241.499 43.0234 242.722 41.9454 243.401 40.9634L243.864 40.2834L243.384 39.8184L242.889 39.3534L241.978 40.2184C241.483 40.6834 240.82 41.1804 240.488 41.3124C239.777 41.6284 238.403 41.6284 237.708 41.3284C236.45 40.8124 235.259 38.8724 235.076 37.0254L234.976 36.2454H244.099L243.983 35.1504C243.783 33.1904 242.94 31.4964 241.698 30.5994C240.54 29.7534 238.339 29.3204 236.717 29.6014L236.714 29.6084ZM239.346 31.5834C239.893 31.9164 240.373 32.7784 240.521 33.6914L240.62 34.2564H235.06L235.16 33.6594C235.275 32.9454 235.938 32.0324 236.666 31.5834C237.345 31.1674 238.667 31.1674 239.346 31.5834Z" fill="black"/>
<path d="M258.302 29.774C257.292 29.99 255.654 30.788 254.959 31.401L254.363 31.918L254.164 31.253C253.833 30.155 252.526 29.574 251.184 29.939C250.373 30.155 249.147 31.217 248.684 32.082L248.369 32.679L248.353 31.285V29.89L247.59 30.007C247.159 30.055 246.2 30.107 245.437 30.107H244.047V30.704C244.047 31.153 244.163 31.401 244.594 31.782L245.125 32.262V41.562L244.594 42.043C244.198 42.392 244.047 42.693 244.047 43.041V43.554H250.007V43.121C250.007 42.821 249.807 42.489 249.395 42.108L248.768 41.543V38.686C248.784 35.513 249.015 34.236 249.762 33.489C250.142 33.109 250.209 33.089 250.64 33.325C251.319 33.674 252.562 33.822 252.973 33.605C253.25 33.451 253.289 33.645 253.089 34.187C252.526 35.814 252.626 38.073 253.353 40.032C253.833 41.327 255.207 42.705 256.548 43.222C258.038 43.802 260.355 43.87 261.649 43.386C262.691 42.989 264.297 41.626 264.928 40.63L265.275 40.049L264.828 39.551L264.365 39.071L263.47 39.916C262.379 40.962 261.449 41.378 260.291 41.395C258.637 41.395 257.459 40.449 256.931 38.655C256.667 37.792 256.667 34.868 256.931 33.987C257.346 32.576 258.273 31.647 259.464 31.43C260.358 31.265 260.606 31.43 260.606 32.211C260.606 33.389 261.385 34.255 262.476 34.255C262.991 34.255 263.238 34.138 263.686 33.69C264.181 33.193 264.249 33.025 264.249 32.28C264.249 30.684 262.958 29.823 260.358 29.687C259.631 29.655 258.704 29.687 258.305 29.771L258.302 29.774ZM282.87 29.842C281.644 30.159 281.233 30.356 280.586 30.936C279.608 31.798 279.392 33.16 280.139 33.842C280.303 33.99 280.734 34.158 281.097 34.206C282.34 34.371 283.282 33.493 283.282 32.131C283.282 31.582 283.35 31.45 283.662 31.366C284.293 31.201 285.088 31.25 285.699 31.514C286.426 31.814 286.909 32.828 286.925 34.022V34.868L285.483 35.168C282.108 35.833 280.203 36.763 279.392 38.125C278.102 40.368 279.212 43.073 281.725 43.822C283.611 44.371 285.583 43.89 286.89 42.544C287.269 42.163 287.585 41.911 287.585 42.027C287.585 42.144 287.849 42.524 288.18 42.873C288.875 43.654 290.066 44.003 291.06 43.719C291.375 43.635 293.081 43.554 294.851 43.554H298.062L297.962 42.941C297.895 42.544 297.698 42.192 297.431 42.011L297.016 41.695V32.911L297.795 32.562C298.805 32.114 300.08 32.097 300.791 32.514C301.09 32.698 301.47 33.147 301.669 33.544C301.985 34.192 302.001 34.489 301.949 37.994C301.901 41.464 301.885 41.781 301.586 41.981C301.421 42.114 301.206 42.246 301.122 42.262C301.039 42.294 300.942 42.594 300.874 42.943L300.775 43.556H306.618V42.992C306.618 42.542 306.502 42.342 306.139 42.078L305.659 41.729L305.592 37.194C305.544 32.975 305.508 32.627 305.177 31.881C304.977 31.449 304.565 30.868 304.266 30.603C302.824 29.273 299.533 29.273 297.711 30.603L297.016 31.1V29.722L295.742 29.838C295.047 29.886 293.972 29.938 293.341 29.938H292.215V30.519C292.215 30.835 292.331 31.184 292.463 31.3C293.242 31.949 293.209 31.7 293.209 36.73C293.209 40.997 293.177 41.546 292.93 41.746C292.765 41.878 292.63 41.91 292.598 41.813C292.566 41.713 292.234 41.665 291.835 41.697C290.677 41.797 290.661 41.729 290.545 37.43C290.429 32.979 290.313 32.482 288.988 31.152C288.293 30.471 287.913 30.238 287.002 29.958C285.744 29.558 284.138 29.525 282.864 29.841L282.87 29.842ZM287.092 37.996C287.092 40.404 286.133 41.598 284.18 41.634C283.154 41.634 282.854 41.434 282.607 40.52C282.375 39.623 282.755 38.577 283.566 37.964C284.177 37.483 286.082 36.769 286.725 36.75C287.073 36.75 287.089 36.818 287.089 37.996H287.092ZM318.894 30.039C316.079 30.804 314.821 33.193 315.998 35.569C316.494 36.546 317.324 37.227 319.493 38.473C321.147 39.419 321.694 40.016 321.694 40.881C321.694 42.043 320.388 42.673 318.962 42.191L318.299 41.976L318.347 41.114C318.38 40.649 318.331 40.1 318.232 39.919C317.852 39.222 316.478 38.841 315.731 39.239C315.316 39.471 315.004 40.552 315.136 41.298C315.368 42.508 316.69 43.489 318.679 43.906C321.858 44.571 325.018 42.311 325.002 39.374C324.986 37.912 323.712 36.517 321.028 35.023C318.544 33.628 318.212 33.363 318.212 32.699C318.212 31.853 318.692 31.521 319.918 31.521H320.944L320.896 32.382C320.848 33.08 320.912 33.296 321.192 33.56C322.267 34.574 324.336 33.793 324.336 32.382C324.336 31.269 323.493 30.439 321.919 30.026C320.745 29.726 320.066 29.726 318.888 30.042L318.894 30.039Z" fill="black"/>
</g>
</g>
<defs>
<clipPath id="clip0_622_1939">
<rect width="325" height="50" fill="white"/>
</clipPath>
</defs>
</svg>
