<?xml version="1.0" encoding="UTF-8"?><svg id="Layer_2" xmlns="http://www.w3.org/2000/svg" viewBox="0 0 107.712281 51.6361765"><defs><style>.cls-1{fill:#f4aa00;}.cls-2{fill:#002664;}.cls-3{fill:#a6a7cb;}</style></defs><g id="Layer_1-2"><path class="cls-1" d="M48.3556814,1.0701905s4.7028603-.4756833,9.2468109.3878696c3.5195286.6697732,7.5224979,1.6484457,10.5405887,2.1182334,7.5027941,1.1636088,17.7738911,2.4331835,22.8995101-.6545687,0,0-10.4574295.6393642-19.3934793-1.1757103-6.5014506-1.321239-16.5299157-2.8030628-23.2934304-.675824"/><path class="cls-3" d="M9.3111774,9.1699935s10.8632962-1.1968104,21.4176931.0819181c4.616579.5636521,10.6239031,1.9543973,17.0389558,3.093803,7.7240349,1.3666973,16.1057415,1.4576139,21.7085953.9606754,0,0-9.1937504,3.1090075-18.8450317,3.1090075-9.6497299,0-16.2996763-2.7334011-19.2297983-3.4272157-5.9333186-1.4121556-13.6360801-2.9515324-22.0904141-3.8181882"/><path class="cls-2" d="M19.2366974,37.6528009c0-1.0819834,0-1.277099-.013896-1.4983887-.0139787-.2360423-.0696706-.3456878-.2983841-.3940384-.0557745-.0148478-.1728439-.0223669-.2360423-.0223669-.0278873,0-.0557745-.0129443-.0557745-.0408315,0-.0409267.0353112-.0557745.111549-.0557745.3122802,0,.7491488.0204633.7835208.0204633.1663592,0,.4368687-.0204633.7557161-.0204633,1.1376543,0,1.3867486.6933743,1.3867486,1.0391573,0,.5687858-.3253322.9090485-.6516036,1.2492118.5131065.1598996,1.2000087.6506434,1.2000087,1.4629906,0,.7417249-.5827771,1.511333-1.7679379,1.511333-.0770945,0-.2992407-.0130354-.5000671-.0204593-.2007311-.0148478-.3949902-.0204674-.4228649-.0204674-.0139086,0-.1310732,0-.2779208.0056196-.1375453,0-.2974449.0148478-.40157.0148478-.0761427,0-.1105972-.0148478-.1105972-.0557745,0-.0204633.0139912-.0409267.0548227-.0409267.0633062,0,.1460036-.0148478.2082502-.0278873.1384845-.0278873.1728439-.1802678.2007311-.3829025.0353112-.2900084.0353112-.8384261.0353112-1.5039132v-1.2194292ZM19.7907306,37.8051856c0,.0483506.0148604.06139.0483506.0762379.0427351.0056155.1672284.0278873.4238292.0278873.388518,0,.4851241-.0148478.6311277-.1803671.1449566-.1672242.2500335-.4164012.2500335-.7007941,0-.5763049-.2575526-1.1934414-.9369357-1.1934414-.0762379,0-.2211945.0074239-.3327435.0353112-.0623418.0148478-.0836618.035307-.0836618.0762337v1.8589326ZM19.7907306,38.5394866c0,.5335698,0,1.3942677.0074239,1.4982976.0204633.338359.0204633.4368686.2360423.5409938.1868351.0891821.4852318.1041251.6098077.1041251.3745268,0,.9777672-.2008263.9777672-.9852863,0-.4164053-.1394363-1.0186939-.672911-1.3867486-.2361375-.1598996-.4089814-.180363-.5753531-.2008263-.0901213-.0129443-.4368686-.0129443-.5409938-.0129443-.0269229,0-.0417833.0129443-.0417833.0482554v.3941336Z"/><path class="cls-2" d="M20.4506021,41.11882c-.046447,0-.1431482-.0046637-.2565057-.0102793l-.2518419-.0111359c-.2008263-.013896-.3876614-.0195116-.4145843-.0195116-.0139086,0-.1273612,0-.2695577.0046637-.0780462.0009518-.1542841.0046637-.2249064.0083757-.0688139.003712-.1329642.0074239-.1850267.0074239-.3159921,0-.3253196-.2426096-.3253196-.2704969,0-.1459084.1162128-.2555539.2695451-.2555539.0196067,0,.0670056-.0028554.1645634-.0233187-.0064721-.0027642.0111359-.0520626.032551-.201687.032551-.2742048.032551-.830907.032551-1.47507v-1.2194292c0-1.0763679,0-1.2706311-.0130394-1.4843975-.0102793-.1728439-.0241753-.1756992-.1292522-.197971-.0353112-.0093275-.1254451-.0177032-.1914037-.0177032-.1515114,0-.2704843-.1124056-.2704843-.2555539,0-.0278915.0093149-.2704969.3262589-.2704969.2369941,0,.5455749.0120877.6988946.0177032l.0855779.0027602c.0668978,0,.1515114-.0027602.250021-.0074239.1449692-.0056155.3159921-.0130394.5047434-.0130394,1.2640511,0,1.6014584.7881719,1.6014584,1.2538796,0,.5158667-.2342339.8699302-.4963551,1.1673584.5576626.2751648,1.0446776.8152067,1.0446776,1.544844,0,.8579377-.6812867,1.7260594-1.9825651,1.7260594ZM19.5276702,40.6484486h0c.019499,0,.1152484.0028554.2398495.0093275-.1552485-.1431482-.1663843-.3290316-.1813273-.5800169-.0092323-.1282052-.0101841-.7993119-.0101841-1.5382725v-.3941336c0-.064055.0195116-.1198295.0520626-.1644682-.0344546-.0473988-.0520626-.1059335-.0520626-.1756992v-1.8589326c0-.017699.0018084-.0427309.0093275-.0706181-.0204633,0-.0399749.0009518-.0576655.0009518l-.1004257-.003712c-.0129443,0-.0269355-.0009518-.0408315-.0019036.032551.0864219.0445435.1794112.050159.2704969.0148478.2276666.0148478.4238292.0148478,1.5113329v1.2194292c0,.6849986,0,1.2269442-.0371196,1.5298969-.0102793.0725259-.0223669.1618032-.0502542.2491769.0883255-.0028554.1524757-.0028554.1636242-.0028554ZM20.0054655,38.31182v.2276666c0,.4842675,0,1.3867486.0064596,1.4834498q.0185598.3159921.115261.3625343c.1199247.0575829.345783.0827059.5168185.0827059.179316,0,.7630449-.0548187.7630449-.7705599,0-.2435614-.0557619-.8486102-.5800169-1.2101928-.1905345-.129157-.323416-.1449566-.4767484-.1644682-.0251271-.0028554-.0947976-.0093275-.3448186-.0111359ZM21.2035581,38.2364387c.5678341.4796989.6329361,1.1711696.6329361,1.4611781,0,.1459084-.0185598.276969-.0520626.3949902.147812-.2137706.2193861-.4600963.2193861-.6998464,0-.5930604-.4294447-.9694867-.8002596-1.1563218ZM20.0054655,37.6852609c.0640425.0056114.1477042.0093275.2574449.0093275.3754912,0,.3893746-.0157996.4702762-.1078371.1245885-.1431482.1961626-.3475913.1961626-.5586018,0-.1775076-.0418785-1.09398-.9238837-.9648272v1.6219385ZM21.0557461,36.0271546c.2053949.2676457.3029527.6357004.3029527,1.0009949,0,.0418785-.0027602.0836618-.0064595.1255402.0650894-.1385838.1031607-.291912.1031607-.4731316,0-.0585389-.0148478-.4294447-.3996539-.6534036Z"/><path class="cls-2" d="M26.3816412,35.8142448c.0836618-.2286184.1105972-.2695451.1523805-.2695451.0418785,0,.0697657.0353112.1534275.2490818.1031733.2640248,1.1915378,3.1267952,1.615367,4.1808044.2491769.6172316.4499081.7286814.5958165.7696081.1041251.0353152.2082502.0427391.2779208.0427391.0409267,0,.0688268.0056155.0688268.0409267,0,.0409267-.0623546.0557745-.1384973.0557745-.1041251,0-.6106643,0-1.0884597-.0148478-.1320124-.0056196-.2081551-.0056196-.2081551-.0483506,0-.0278873.0203682-.0409267.0482554-.0483506.0418785-.0130394.0836618-.0762379.0418785-.1858874l-.6451189-1.7065479c-.013896-.0278831-.0269355-.0408274-.0622466-.0408274h-1.4908737c-.0343594,0-.0557745.0203682-.0688012.0538709l-.416418,1.2287525c-.0622466.1729391-.0965933.3401674-.0965933.4647518,0,.1375368.1449439.2007352.2630603.2007352h.0696706c.0483506,0,.0688139.0130394.0688139.0409267,0,.0409267-.0409267.0557745-.1041251.0557745-.1663718,0-.4647559-.0204674-.5409938-.0204674-.0762252,0-.4572368.0204674-.7825564.0204674-.0910857,0-.1320124-.0148478-.1320124-.0557745,0-.0278873.0278873-.0409267.0622466-.0409267.0483506,0,.1459084-.0074239.2008263-.0148478.3187523-.0409267.4582013-.3048603.5827771-.6506392l1.5735837-4.3072012ZM27.1029155,38.5878372c.0343466,0,.0343466-.0204633.0278745-.0483506l-.6590149-1.8719679c-.0343594-.1041251-.0688139-.1041251-.1041251,0l-.6097125,1.8719679c-.0148478.0353112,0,.0483506.0204633.0483506h1.3245147Z"/><path class="cls-2" d="M29.106883,41.0983567c-.1050769,0-.6143635,0-1.0949318-.0157996-.1542713-.0056155-.4164053-.0167514-.4164053-.2621212,0-.0659586.0250319-.1412447.0891821-.1952149l-.5929611-1.5717713h-1.2864306l-.3857579,1.1368062c-.0519674.1441041-.08271.2853488-.0845184.3848102.0055203-.0083757.0250319-.0027602.0483506-.0027602h.0696706c.194259,0,.2834411.1328649.2834411.2555539,0,.1004132-.067767.2704969-.3187523.2704969-.1022216,0-.2527937-.0074239-.3736702-.0139912-.1365809-.0064721-.1552359-.0092323-.3188475-.0018084-.1616953.0064721-.4088862.0157996-.6310325.0157996-.321595,0-.3467347-.2072985-.3467347-.2704969,0-.1459084.1189729-.2555539.276969-.2555539.0418785,0,.1245885-.0065673.1719873-.0130394.1775076-.0223669.280681-.1515239.409838-.5103463l1.5736789-4.3080578c.0845184-.2295744.1505722-.410885.3540635-.410885.2026347,0,.2724004.179407.3532069.3857579l.230522.6013368c.3671981.961111,1.0642843,2.7829199,1.3839884,3.577564.2342339.5819205.3941336.6264639.4545718.6432153.0873737.0297908.1672412.0344546.2202427.0344546.2230981,0,.2835363.1607562.2835363.2555539,0,.0455904-.0176904.2704969-.3532069.2704969ZM28.1317936,40.6568243c.1031606.0027602.2045255.0056155.3020833.0065673-.1040299-.1310606-.2147224-.324463-.3298882-.6088559-.3197993-.7955959-1.0187891-2.6211167-1.3868438-3.5840361l-.1775076-.4638041-.1347725.3690065c.0836618.0008566.2053949.0269355.2704969.2249064l.6970863,1.9798049-.0436869.0762379c.0436869.0232235.0864219.0631984.1180212.1272535l.6543512,1.7260594c.018655.0502542.028839.0994614.0306602.1468602ZM26.0377618,38.3731149h.8086353l-.4201173-1.1906812-.388518,1.1906812Z"/><path class="cls-2" d="M31.8069977,39.9411782c.0139089.5687858.0836618.7472453.2713535.8030157.1310606.0353152.2835363.0427391.345783.0427391.0353112,0,.0557745.0130394.0557745.0409267,0,.0409267-.0409267.0557745-.1245885.0557745-.395942,0-.672911-.0204674-.7351576-.0204674s-.3541458.0204674-.665487.0204674c-.0697657,0-.1105972-.0074239-.1105972-.0557745,0-.0278873.0203682-.0409267.0557745-.0409267.0548227,0,.179316-.0074239.2843929-.0427391.1728439-.0483465.2072985-.2490777.2072985-.8792536l.0064721-3.9744577c0-.2695451.02132-.345783.0762379-.345783.0557745,0,.1728439.1524757.2434662.2211945.1031862.1189729,1.1368232,1.2343681,2.2047243,2.3794588.6859375.7342969,1.4426054,1.580151,1.6637999,1.8087694l-.0762249-3.522646c-.0074369-.4499081-.0557875-.6022928-.2714616-.6580631-.1244803-.0278873-.2824764-.0354063-.3382639-.0354063-.0502542,0-.0557745-.0203682-.0557745-.0482554,0-.0409267.0557745-.0483506.1375327-.0483506.3122802,0,.6450367.0204633.7212616.0204633.0762379,0,.3048563-.0204633.5893444-.0204633.0761427,0,.1244933.0074239.1244933.0483506,0,.0278873-.0259837.0482554-.0762249.0482554-.0334206,0-.0817712,0-.165433.0223669-.2286054.0483506-.2565057.2007311-.2565057.6153281l-.0130265,4.0636398c0,.457332-.0148608.4926432-.0632114.4926432-.0557615,0-.1394363-.0762379-.5055874-.4442926-.0762379-.0688139-1.076372-1.0875079-1.8106601-1.8775834-.8030327-.8681218-1.587575-1.741859-1.8087823-1.990945l.0892773,3.3220142Z"/><path class="cls-2" d="M35.8427503,41.1467073c-.1523805,0-.2397543-.0873737-.6571114-.507491-.0818534-.0734777-1.1060676-1.1191071-1.8161804-1.8831989-.5363429-.5799217-1.0633455-1.1608904-1.4221679-1.5586407l.0744424,2.7381861c.0138832.5725889.0891692.5948647.1180212.6032404.0984967.0259837.2295573.0335028.28438.0335028.1542841,0,.2705098.1096455.2705098.2555539,0,.0455904-.0167643.2704969-.3393237.2704969-.2881049,0-.5139631-.0111359-.6422635-.0167514l-.0928941-.003712-.1068853.003712c-.1301088.0064721-.3393108.0167514-.5586018.0167514-.30952,0-.3253196-.2249064-.3253196-.2704969,0-.1459084.1161176-.2555539.2704969-.2555539.0417833,0,.1421965-.0065673.215579-.0316944.06139-.0696706.06139-.5260508.06139-.6756711l.0064721-3.9744577c0-.2231023,0-.5605053.2909602-.5605053.1347725,0,.2323304.1068853.3355037.2203337l.0576781.0622508c.1124185.1292522,1.140427,1.23808,2.2121353,2.3868827.3652945.3913734.7509572.8142508,1.065141,1.1590779.0762379.0836659.1487638.1626639.2147224.2351898l-.0641502-2.9576673c-.0064721-.4283978-.0520626-.4404854-.1105972-.4554284-.0947976-.0204633-.2332821-.0278873-.2843929-.0278873-.1589479,0-.2704969-.1086937-.2704969-.2629778,0-.078998.0343594-.263073.3522551-.263073.2119752,0,.4341085.0093275.5809687.0157996.1338208.0056155.1514288.0056155.2555539,0,.1143092-.0064721.2816327-.0157996.4740834-.0157996.3140886,0,.3392157.2016787.3392157.263073,0,.1273486-.1022216.2629778-.2909472.2629778-.0259967,0-.0538839,0-.1106102.014943-.0678622.0148478-.096606.0203682-.096606.4080296l-.0130394,4.0645916c0,.4544766,0,.7064137-.2779208.7064137ZM31.6201626,40.6484486l.0743343.0028554c-.0557745-.1292522-.0799498-.2882001-.0920375-.4657077-.0055203.180363-.0204505.3392157-.0641502.4657077.0381665-.0009518.0670056-.0028554.0818534-.0028554ZM31.6117869,36.1767792l.2658331.3001925c.2212074.2482251,1.0047979,1.1210106,1.8060093,1.9872288.7277337.7835082,1.7213005,1.7947782,1.7975384,1.8645439.0641502.0641502.1403881.140384.2100586.2091068v-.0985096l.0009518-.0678622-.2602047-.2685933c-.1041381-.1078371-.3262844-.3514026-.6042052-.6562547-.313232-.3429276-.6970863-.7649525-1.0623679-1.1552749-.9852992-1.0568604-1.9045189-2.0486189-2.1536135-2.3218759v.2072985Z"/><path class="cls-2" d="M39.5699346,37.6528009c0-1.0819834,0-1.277099-.0129312-1.4983887-.0149561-.2360423-.0707306-.3456878-.299349-.3940384-.0557745-.0148478-.1728439-.0223669-.2342339-.0223669-.0278873,0-.0557745-.0129443-.0557745-.0408315,0-.0409267.0335158-.0557745.1096585-.0557745.3123623,0,.7213437.0204633.7640788.0204633.0612949,0,.4647559-.0204633.672911-.0204633.0762379,0,.1096586.0148478.1096586.0557745,0,.0278873-.0278052.0408315-.0556924.0408315-.0483506,0-.0892773.0075191-.1729391.0223669-.1877869.0334076-.2434531.1505722-.2565057.3940384-.0130394.2212897-.0130394.4164053-.0130394,1.4983887v.4164094h.026092c.1189729-.1320124,1.3736961-1.4072161,1.622791-1.6786606.1951977-.2007311.3755607-.3810941.3755607-.5000671,0-.0817582-.0353112-.1245885-.0910857-.1449566-.0335028-.0130394-.06139-.0278873-.06139-.0557745,0-.0335028.0335028-.0483506.0817582-.0483506.1394363,0,.3551104.0204633.5205304.0204633.0353112,0,.4926432-.0204633.665487-.0204633.0762379,0,.1041251.0148478.1041251.0483506,0,.0353112-.0130394.0482554-.0688139.0482554-.1040299,0-.2490818.0354063-.388518.0967012-.2843929.1263969-.4367735.2993359-.7491488.5967683-.1728439.1672284-1.3793116,1.3458219-1.5242813,1.518761.1802678.2007311,1.6209825,1.6916049,1.9053755,1.9556296.5837288.5408986.7009066.6524476,1.0336369.7899803.180281.0762379.3811073.0910857.4293496.0910857.0483506,0,.0910857.0130394.0910857.0409267,0,.0353071-.0353112.0557745-.1523805.0557745h-.3551104c-.1933072,0-.3253196,0-.4777002-.0148478-.3662463-.0335028-.5409938-.1858833-.8384261-.4220208-.3122802-.2565097-1.7826906-1.8440847-2.1154341-2.253062h-.0335028v.6785265c0,.665487,0,1.2139047.0335028,1.5039132.0222717.2026347.0631984.3550153.2713535.3829025.0967012.0130394.2082502.0278873.2695451.0278873.0427482,0,.0557745.0204633.0557745.0409267,0,.0353071-.0353112.0557745-.111549.0557745-.3382639,0-.7417249-.0204674-.7974994-.0204674-.0538579,0-.4572368.0204674-.665487.0204674-.0762379,0-.1096455-.0148478-.1096455-.0557745,0-.0204633.0130394-.0409267.0538709-.0409267.0631984,0,.1468602-.0148478.2082502-.0278873.1394363-.0278873.1747475-.1802678.2007311-.3829025.0353112-.2900084.0353112-.8384261.0353112-1.5039132v-1.2194292Z"/><path class="cls-2" d="M43.9459497,41.0983567h-.3551104c-.2016829,0-.3392157-.0009518-.4981635-.0157996-.4107898-.0381665-.6301759-.2128188-.9080967-.4341085l-.0427351-.0334076c-.263073-.2156741-1.2343681-1.2511195-1.8013455-1.8859591v.1431482c0,.6451148,0,1.2018171.0315992,1.4797379.0204633.1858833.0417833.1886435.0873737.1942549.086435.0120917.1858833.0260829.2407061.0260829.1542841,0,.2704969.1096455.2704969.2555539,0,.1004132-.0688008.2704969-.3262714.2704969-.2434662,0-.5204352-.0111359-.6803349-.0167514l-.1171646-.003712c-.0166562,0-.0715741.0019036-.1440048.0046637-.1534275.0064721-.3810941.0157996-.5214822.0157996-.3150404,0-.3243678-.2426096-.3243678-.2704969,0-.1459084.115261-.2555539.2685933-.2555539.0167514,0,.065102-.0019036.1636116-.0233187-.003712-.003716.0139912-.0520626.032551-.1997834.0334207-.2761083.0334207-.8328106.0334207-1.4769736v-1.2194292c0-1.0763679,0-1.2706311-.0121007-1.4853492-.0111359-.1718921-.0240671-.1747475-.1301088-.1970192-.0353112-.0093275-.1263969-.0177032-.1895953-.0177032-.1515239,0-.2704969-.1124056-.2704969-.2555539,0-.0278915.0093405-.2704969.3243809-.2704969.2305089,0,.5140452.0111359.6664258.0177032l.097653.0027602c.0204633,0,.0808064-.0019036.1598996-.0056155.1551407-.0055203.3754786-.0148478.5130113-.0148478.3151355,0,.3243678.2426054.3243678.2704969,0,.1431482-.1189729.2555539-.2704017.2555539-.0372147,0-.0678622.0065673-.1310606.0177032-.0530143.0093275-.0744295.0138919-.0846136.1952108-.0120877.2100586-.0120877.3996539-.0120877,1.3988363.0891821-.0920375.1905471-.1961626.2964806-.3048563.3913734-.4015616.8411863-.863458.9796839-1.0140302.1134395-.1171646.2472602-.2537455.2993228-.3328387-.1143092-.0696706-.1329642-.166376-.1329642-.2230029,0-.130204.1022216-.263073.2964806-.263073.0697657,0,.1580912.0056113.2509985.0101841.0910725.0056155.186822.0102793.269532.0102793l.12641-.0046637c.1598996-.0056155.4182957-.0157996.539077-.0157996.30952,0,.3188475.2360423.3188475.263073,0,.1310606-.0883255.2629778-.2835363.2629778-.056618,0-.1700837.0204633-.3020009.0781414-.2072985.0919423-.3318869.2128188-.5586018.4312489l-.1292522.1245926c-.2184212.211867-1.0446776,1.0205023-1.3783729,1.3635251.4043176.4275412,1.5076251,1.5661557,1.7575635,1.7984902.5790651.5372818.6785265.6283675.9694867.7491488.1459084.06139.3141837.0744295.3475913.0744295.2100586,0,.3058212.1328649.3058212.2555539,0,.0809016-.0362761.2704969-.3671161.2704969ZM39.7196501,35.8719229c.0324689.0854702.0454953.1784594.0511108.2695451.013896.2276666.013896.4238292.013896,1.5113329v1.2194292c0,.6849986,0,1.2269442-.0372147,1.5298969-.0092323.0688139-.0203682.1618032-.050159.2519371.0752861-.0027602.1310606-.0056155.1496204-.0056155l.1339159.0046637c.0055203,0,.0121007.0009518.0185598.0009518-.0353112-.0957494-.046434-.1924506-.0530143-.2546973-.0352981-.3011443-.0352981-.8421381-.0352981-1.5271367v-1.2194292c0-1.0875037,0-1.2836663.0139781-1.5113329.003712-.065102.0083757-.1673235.0436869-.2695451-.0623418.0027602-.1087889.0046637-.1273486.0046637l-.1143092-.0046637h-.0074239ZM40.3869587,38.1324088c.413632.4860759,1.741846,1.9174631,2.0234918,2.1489369l.0409267.0315992c.2387893.1905471.3698499.2955288.6032273.3327435-.1534275-.1170694-.3318869-.2825845-.6264639-.5548898-.324463-.3011443-1.7808822-1.8097212-1.9491575-1.9974129l-.0259837-.0297908c-.025114.0260747-.0465422.0483506-.0660407.0688139Z"/><path class="cls-2" d="M48.9018866,39.4485351c0-.8105389.5205304-1.3514374,1.061429-1.6712367-.2564923-.3606308-.3401674-.6450237-.3401674-.957308,0-.5466051.5614704-1.2752906,1.4908737-1.2752906.3532069,0,.6525428.0688139.8384261.1729391.0836618.0482554.0910857.0910857.0910857.1728439,0,.2082502-.0278873.6933743-.0483506.7974994-.0222717.1041251-.0427351.1189729-.0706223.1189729-.0335028,0-.0409267-.0278914-.0409267-.1320124,0-.1802678-.0408315-.4089814-.215579-.5892492-.1524757-.1598996-.3867097-.3048563-.6934561-.3048563-.4145151,0-.879271.2565057-.879271.9071449,0,.5409938.3736702.9927102,1.0949318,1.7752666.2361375.2566008,1.0893163,1.0540962,1.3106059,1.241792.1933072-.2639296.3532069-.7286855.3532069-1.1507063,0-.1040299-.0278873-.2360423-.131999-.3401674-.0892907-.0910857-.2342473-.111549-.3383724-.111549-.0427351,0-.0836618-.0129484-.0836618-.0483506,0-.0334076.0557745-.0482554.111549-.0482554.16542,0,.4424842.0074239.8310022.0482554.1040299.014943.1244933.0688139.1244933.1394363,0,.5614571-.3810941,1.2622553-.685937,1.6359255.4573186.388518.7621749.5744014.9573857.6859504.2211945.1320124.5744014.2713535.8234831.2713535.0631984,0,.0985096.0056155.0985096.0483506,0,.0278832-.0557611.0483506-.1189729.0483506h-.6785265c-.5130113,0-.6803349-.0483506-1.4425231-.6524517-.1598996.1598085-.7064137.7491529-1.7325316.7491529-1.2139047,0-1.6860845-.9295118-1.6860845-1.5318004ZM52.1402349,40.0991743c-.388518-.3178957-1.0744684-.9778624-1.2548314-1.1711696s-.6246422-.6859504-.8179628-.9703433c-.3606175.2360423-.6245604.6097125-.6245604,1.1636506,0,.8681177.6097125,1.4908737,1.3867486,1.4908737.6450237,0,1.0744684-.2695451,1.3106059-.5130113Z"/><path class="cls-2" d="M50.5879711,41.1949627c-1.3849402,0-1.9008069-1.0716131-1.9008069-1.7464276,0-.6869063.3457963-1.2956629.9787323-1.7344351-.1793293-.2992449-.2574708-.5762139-.2574708-.8941096,0-.7046012.7008934-1.490013,1.7055961-1.490013.3718618,0,.7157412.0734777.9434078.2008263.176651.1022216.2008263.2332821.2008263.359679,0,.1998745-.0269355.7091739-.053001.8384261-.015813.0752861-.06226.2927686-.2806944.2927686-.1161994,0-.2556491-.0604383-.2556491-.3467347,0-.1858833-.0519674-.3336995-.1551407-.4405806-.1041251-.1096455-.2825845-.2388025-.539172-.2388025-.1106106,0-.6645486.0334076-.6645486.6924225,0,.45362.3317917.8644098,1.0382055,1.63031.1813148.1970192.7612365.7463886,1.0995955,1.0530533.1068853-.2239547.1914988-.5279543.1914988-.817011,0-.0548227-.0120877-.1310606-.0688139-.1886476-.0296956-.0297867-.1022216-.0483465-.1868351-.0483465-.1952108,0-.2983708-.132869-.2983708-.263073,0-.126401.1023033-.2629778.326258-.2629778.2537455,0,.5409938.0167514.8532739.050159.2007311.0278873.3169439.1598996.3169439.3522551,0,.5261459-.2946722,1.1618381-.6060006,1.601471.3448312.2807761.5892492.4322008.7686604.5345216.1998745.1189729.5168185.2426096.7175496.2426096.2974324,0,.313232.2192909.313232.2629778,0,.1263969-.1049817.263073-.3336953.263073h-.6785265c-.5557464,0-.7854118-.0855653-1.4276753-.5827771-.2843929.2621212-.8457548.6793831-1.7473794.6793831ZM49.2560453,38.8062716c-.0864219.1858833-.1394363.3987021-.1394363.6422635,0,.4675161.3355037,1.1850657,1.2185685,1.3012784-.6562547-.2119622-1.1070194-.8421381-1.1070194-1.6285016,0-.1086937.0093275-.2146272.0278873-.3150404ZM52.3837011,40.0210329l.0697657.0418785c.5381384.4265894.748197.5529862.996327.5911528-.2109018-.1254451-.5000671-.3159921-.8987692-.6543512l-.0130394.017608-.1756041-.1486686c-.2193861-.1858833-1.0782756-.986147-1.3301175-1.2603518-.7138377-.7742759-1.1516581-1.2817669-1.1516581-1.9203185,0-.0436869.0019036-.0864219.0056155-.1273486-.0315992.0892773-.0483506.1775035-.0483506.2593568,0,.291821.0864219.5334788.3001925.8328106l.1347725.1905512-.0166562.0101841c.183028.2639296.5920094.7203098.7862684.92856.1663718.1784553.8440416.8318588,1.2334163,1.1516581l.1078371.0872786ZM50.0237672,38.2597574c-.2434796.2192909-.3661645.5083476-.3661645.8615545,0,.7278289.503779,1.2762465,1.1720262,1.2762465.4600922,0,.7798096-.1505722.9815877-.2965757-.3960505-.3456919-.9183893-.8504186-1.0828575-1.0270696-.0204633-.02132-.4313483-.4638041-.704592-.8141556ZM53.0027412,38.2467139c.0427351.0928982.0659586.1970192.0659586.3076206,0,.0418785-.0018084.0846136-.0045686.1273445.0473988-.1468561.0780462-.2900043.0864219-.4210649-.0502542-.0045686-.0994614-.0092323-.147812-.0139002Z"/><path class="cls-2" d="M61.6580703,38.8722302c0,.665487,0,1.2139047.0353112,1.5039132.0204633.2026347.0631984.3550153.2713535.3829025.0967012.0130394.2490818.0278873.3104718.0278873.0427487,0,.0557745.0204633.0557745.0409267,0,.0353071-.0335028.0557745-.111549.0557745-.3791906,0-.8179628-.0204674-.8513568-.0204674-.0353248,0-.4721934.0204674-.6804437.0204674-.0762243,0-.1096455-.0148478-.1096455-.0557745,0-.0204633.0130394-.0409267.0538709-.0409267.0631984,0,.1468602-.0148478.2082502-.0278873.1394363-.0278873.1747475-.1802678.2026347-.3829025.0334076-.2900084.0334076-.8384261.0334076-1.5039132v-2.9333969l-1.0261178.0148478c-.4294312.0074239-.5966731.0557745-.7064002.2211945-.0762514.1189729-.0985232.1673194-.1189729.2156741-.0204769.0557745-.0409267.0688139-.0687323.0688139-.0204633,0-.0354063-.0204633-.0354063-.06139,0-.0706223.1394363-.665487.1524757-.7212616.0148478-.0427351.0427351-.1320124.0706359-.1320124.048337,0,.117151.0688139.3048427.0836576.2008263.0204675.4647559.033507.5465141.033507h2.6007622c.2211808,0,.3810805-.0130394.4925343-.033507.1041251-.0148436.1673235-.035307.1934024-.035307.0353112,0,.0353112.0409267.0353112.0836618,0,.2081551-.0204633.6859504-.0204633.7621883,0,.0631943-.0204633.0891821-.0483506.0891821-.0353112,0-.0483506-.0204633-.0557745-.1170694l-.0074239-.0762379c-.0204633-.2081551-.1858833-.3680547-.8532739-.3810941l-.8736421-.0148478v2.9333969Z"/><path class="cls-2" d="M62.2194322,41.0983567c-.2955152,0-.6264639-.0130394-.7779879-.0185598l-.0743207-.0019036-.1088025.003712c-.1552359.0056155-.4209739.0167514-.5706894.0167514-.3150404,0-.3243678-.2426096-.3243678-.2704969,0-.1459084.115261-.2555539.2685933-.2555539.0167514,0,.065102-.0019036.1636116-.0233187-.003712-.003716.0139912-.0520626.0353112-.201687.0306474-.273253.0306474-.8299553.0306474-1.47507v-2.7159143l-.8086353.0120877c-.4201173.0064721-.4851241.0557703-.5307145.1245885-.0631984.0993662-.08271.1402929-.1003996.1812196-.0622602.1719873-.1933208.1997794-.2657515.1997794-.1208765,0-.2500335-.096606-.2500335-.2760172,0-.032551,0-.09385.1570443-.7649484.0427486-.1301088.1022216-.3030479.2806945-.3030479.0622331,0,.1115355.0223627.1515104.0399749.0409267.0177032.0864355.0381665.1700837.0446386.197971.0204633.4507647.032551.5297627.032551h2.6007622c.2397406,0,.3791769-.0158038.4535112-.0297908.0586299-.0083757.097653-.0166562.1263969-.0232235.0399749-.0083757.0707175-.0157996.1060287-.0157996.0417833,0,.2500335.0148478.2500335.2983841,0,.1310606-.0083757.3690065-.0139912.5484135-.003712.1031775-.0064721.1858875-.0064721.2137748,0,.2081551-.1366761.3039045-.263073.3039045-.111549,0-.2490818-.0548227-.2695451-.3150404l-.0074239-.0725259c-.013896-.1450518-.3578706-.1812196-.6432153-.1868351l-.655303-.0111359v2.7149625c0,.644163,0,1.2008653.0335028,1.4779254.0185598.1876958.0417833.190456.0873737.1960674.0873874.0120917.2258582.0260829.2816327.0260829.1542841,0,.2704969.1096455.2704969.2555539,0,.1004132-.0688003.2704969-.3262714.2704969ZM61.2908722,35.8765867v2.9956435c0,.6849986,0,1.2259924-.0353112,1.5280885-.0093139.0706223-.0222717.1636116-.0520626.2546973.0130394-.0009518.0260789-.0009518.0381665-.0019036l.1264105-.0046637.0891685.0028554c.0214151.0008566.046447.0018084.0752861.0027602-.036263-.0967012-.0464334-.1933072-.0520626-.2565057-.0371196-.2983841-.0371196-.8403297-.0371196-1.5253283v-2.9956435h-.1524757Z"/><path class="cls-2" d="M66.3499824,37.6528009c0-1.0819834,0-1.277099-.0148478-1.4983887-.0130257-.2360423-.0687188-.3456878-.2974324-.3940384-.0557745-.0148478-.1728439-.0223669-.2360423-.0223669-.0278873,0-.0557745-.0129443-.0557745-.0408315,0-.0409267.0353112-.0557745.111549-.0557745.3122802,0,.7491488.0204633.7844737.0204633.0762241,0,.6022749-.0204633.817949-.0204633.4367735,0,.899721.0427351,1.2677757.3048521.1728577.126401.4796037.4647601.4796037.9443638,0,.5130113-.2156741,1.0243094-.8402345,1.6005192.5687858.7287807,1.0409657,1.3459171,1.4425231,1.7753618.3736702.395942.672911.4721798.84585.4981635.1320124.0222717.2286323.0222717.2713535.0222717.0335028,0,.06139.0204633.06139.0409267,0,.0409267-.0409267.0557745-.16542.0557745h-.4926293c-.3885319,0-.561471-.0353112-.7417388-.1320124-.2993359-.1598045-.5409938-.5000671-.9369357-1.0186939-.2918168-.3810941-.6171364-.84585-.7547643-1.0261178-.0278735-.0278873-.0482554-.0427351-.0910857-.0427351l-.8531788-.0130394c-.033489,0-.0483506.0204633-.0483506.0557745v.16542c0,.665487,0,1.2139047.0353112,1.5039132.0204771.2026347.0612949.3550153.2695451.3829025.0985096.0130394.2509853.0278873.3122802.0278873.0427351,0,.0557745.0204633.0557745.0409267,0,.0353071-.0353112.0557745-.111549.0557745-.3810941,0-.8179628-.0204674-.8513704-.0204674-.0074239,0-.4442926.0204674-.6525428.0204674-.0761427,0-.1114401-.0148478-.1114401-.0557745,0-.0204633.0148341-.0409267.0556656-.0409267.0633073,0,.1450518-.0148478.2082502-.0278873.1394363-.0278873.1728439-.1802678.2007311-.3829025.0353112-.2900084.0353112-.8384261.0353112-1.5039132v-1.2194292ZM66.9040156,38.2550937c0,.0353112.0148616.0631984.0483506.0836618.1040299.0631984.4238292.111549.7286855.111549.1673235,0,.3606308-.0223669.5205304-.1320124.2416578-.1673235.4219394-.5409938.4219394-1.0689481,0-.8662224-.4573458-1.3867486-1.1989755-1.3867486-.2082502,0-.3960371.0222717-.4647421.0427309-.0353249.0130436-.0557883.0409267-.0557883.0818534v2.267914Z"/><path class="cls-2" d="M70.8226988,41.0983567h-.4926293c-.4108988,0-.6237176-.0399749-.8431037-.1579961-.3140886-.1673235-.5492743-.4768436-.9061931-.9462632l-.0994614-.1310606c-.1765558-.2305261-.3652945-.4916914-.5176751-.7026107-.0828052-.1134485-.1534275-.2119581-.2063467-.2825804l-.6385378-.0102793v.0046637c0,.644163,0,1.2008653.0333938,1.4779254.0185598.1876958.0409267.190456.0855791.1960674.0891683.0120917.2276529.0260829.2834274.0260829.1542841,0,.2705107.1096455.2705107.2555539,0,.1004132-.0688277.2704969-.3262852.2704969-.2974324,0-.6274019-.0130394-.7788445-.0185598l-.0734777-.0019036c-.1319986.0056155-.4739882.0204633-.651591.0204633-.3169439,0-.3261762-.2426096-.3261762-.2704969,0-.1459084.1161176-.2555539.2704017-.2555539.0335028,0,.0892773-.0075191.1645634-.0233187-.0009518-.0092323.0158133-.0808105.032551-.201687.032551-.2742048.032551-.830907.032551-1.47507v-1.2194292c0-1.0763679,0-1.2696793-.0139912-1.4843975-.0093275-.1728439-.0232235-.1765558-.1283004-.197971-.0353112-.0093275-.1254451-.0177032-.1914037-.0177032-.1515102,0-.2704832-.1124056-.2704832-.2555539,0-.0278915.0093138-.2704969.3262577-.2704969.2360423,0,.5437539.0120877.698038.0177032l.0873875.0027602c.0269217,0,.1152472-.0027602.2258445-.0056155.194259-.0064721.4544766-.0148478.5911528-.0148478.4488749,0,.9656934.0409267,1.3923641.3448312.2639296.1933072.5697376.6004802.5697376,1.1191071,0,.5771615-.2453698,1.0958836-.766852,1.6209825l.0725259.0938459c.4768436.6125679.8895507,1.141474,1.23808,1.5141924.3197041.3392157.5650739.409838.7212754.4330615.1189729.0196067.2026209.0196067.2397404.0196067.1524757,0,.2761263.1151658.2761263.2555539,0,.1236367-.0660676.2704969-.3801562.2704969ZM66.5712721,40.6503522l.1310606.0009518c.0222717.0008566.0473988.0018084.0761427.0027602-.0361678-.0967012-.046447-.1933072-.0519674-.2565057-.0372147-.2983841-.0372147-.8403297-.0372147-1.5253283v-.16542c0-.0920375.0409267-.1710355.1049817-.2193861-.0669104-.0585347-.1049817-.1412447-.1049817-.2323304v-2.267914c0-.0399749.0074239-.0781372.0204633-.1124966-.0315992.0009518-.0557745.0019036-.0678484.0019036l-.1022353-.003712c-.0130394-.0009518-.0260789-.0009518-.0409267-.0019036.0335028.0864219.0454953.180363.050159.2714487.0157996.2258582.0157996.4219256.0157996,1.5103811v1.2194292c0,.6849986,0,1.2269442-.0371196,1.5298969-.0102793.0734777-.0223669.1645634-.0511108.2519371.0398797-.0009518.0724307-.0027602.0947976-.003712ZM68.0890813,38.6083006c.065102.0845184.1375465.1849315.2211945.3011443.1505722.2081509.3374073.4656125.5112167.6933743l.1003994.1320124c.3225594.4238292.5353921.7035584.7677086.8281469.06139.032551.1218283.0575829.2055039.0752861-.0772035-.0622466-.1581051-.1366761-.241753-.2249064-.362453-.3876614-.7798101-.9238963-1.2640775-1.5448399l-.2249064-.2881049c-.0241753.0101841-.0493024.0195116-.0752861.0278873ZM67.1187517,38.1751439c.1709266.0473988.7360956.1207813.9619539-.0335028.1579961-.1096455.3280798-.4024141.3280798-.8922971,0-.7454369-.3587272-1.1720262-.9842394-1.1720262-.1227801,0-.2314738.0083757-.3057943.0167514v2.0810747ZM68.3781379,35.9964162c.2946722.276969.4600922.7073655.4600922,1.2529278,0,.1245843-.0093275.2435573-.0269355.3551104.1226849-.2332821.1812196-.468472.1812196-.7138377,0-.3829977-.2463216-.6646304-.3912782-.7715157-.0697657-.0492072-.1450518-.0901339-.2230981-.1226849Z"/><path class="cls-2" d="M72.5589423,37.6528009c0-1.0819834,0-1.277099-.0130394-1.4983887-.0148478-.2360423-.0706223-.3456878-.2992407-.3940384-.0539522-.0148478-.1729252-.0223669-.2361375-.0223669-.0259837,0-.0538571-.0129443-.0538571-.0408315,0-.0409267.0333937-.0557745.1096316-.0557745.3122802,0,.7361094.0204633.7974994.0204633.0631984,0,.4796176-.0204633.687854-.0204633.0761427,0,.1096594.0148478.1096594.0557745,0,.0278873-.0279012.0408315-.0557884.0408315-.0483506,0-.0892773.0075191-.1728439.0223669-.1877869.0259795-.241753.1505722-.2566008.3940384-.0130394.2212897-.0130394.4164053-.0130394,1.4983887v.9703475c0,.9982306.2213036,1.4276753.518722,1.7120682.3401674.3197993.6524616.3810941,1.0484035.3810941.4220069,0,.8384122-.2007311,1.0874939-.4981635.3197041-.395942.4033659-.9852863.4033659-1.699124v-.8662223c0-1.0819834,0-1.277099-.0148478-1.4983887-.0130394-.2360423-.0688139-.3456878-.2974324-.3940384-.0557745-.0148478-.1747475-.0223669-.2360423-.0223669-.0278733,0-.0557745-.0129443-.0557745-.0408315,0-.0409267.0353112-.0557745.111549-.0557745.3122942,0,.6933743.0204633.7342058.0204633.0483506,0,.3755738-.0204633.5819205-.0204633.0762379,0,.111549.0148478.111549.0557745,0,.0278873-.0278873.0408315-.0557745.0408315-.0483506,0-.0892773.0075191-.1729391.0223669-.1876917.0409267-.2434662.1505722-.2565057.3940384-.0130394.2212897-.0130394.4164053-.0130394,1.4983887v.7417291c0,.7491488-.0836618,1.5800558-.6395034,2.0726949-.4981635.4442966-1.0186939.5131106-1.4276753.5131106-.2360423,0-.9368405-.0278873-1.4276753-.4926432-.3401674-.3253196-.604097-.8105389-.604097-1.8236173v-1.0112742Z"/><path class="cls-2" d="M74.5907146,41.1949627c-.3708149,0-1.0688529-.0714789-1.5753921-.5520345-.4637902-.4434359-.6711026-1.0541003-.6711026-1.9788531v-1.0112742c0-1.0763679,0-1.2706311-.0120877-1.4853492-.0111359-.1718921-.0241753-.1747475-.1301088-.1970192-.036263-.0102793-.1282865-.0177032-.1914988-.0177032-.1505722,0-.2685933-.1124056-.2685933-.2555539,0-.0278915.0092323-.2704969.3243678-.2704969.2193861,0,.4926432.0101841.6599667.0167514l.1375327.003712c.0214151,0,.0854702-.0019036.1673235-.0056155.1598045-.0055203.3838543-.0148478.5205304-.0148478.3150404,0,.3243678.2426054.3243678.2704969,0,.1431482-.1189729.2555539-.2704969.2555539-.0372147,0-.0678622.0065673-.1310606.0177032-.0493024.0130394-.0743343.0399749-.0846136.1970192-.0120877.2147182-.0120877.4089814-.0120877,1.4853492v.9703475c0,.9908067.2287136,1.3430617.4517165,1.5568323.2882001.2704969.5390902.3216077.9006867.3216077.3467208,0,.70916-.16542.9230257-.421069.2434662-.3020009.3532069-.78446.3532069-1.5614961v-.8662223c0-1.0763679,0-1.2696793-.0139912-1.4843975-.0093275-.1728439-.0232235-.1765558-.1283004-.197971-.0353112-.0093275-.1273486-.0177032-.1914037-.0177032-.1515239,0-.2704969-.1124056-.2704969-.2555539,0-.0278915.0093275-.2704969.3262714-.2704969.2323443,0,.5028272.0111359.6459755.0177032l.0891821.0027602.111549-.0046637c.1292522-.0064721.3272232-.0157996.4694196-.0157996.3169439,0,.3261762.2426054.3261762.2704969,0,.1431482-.1189729.2555539-.2704017.2555539-.0372147,0-.0678482.0065673-.1310606.0177032-.0548087.0120877-.0744295.0167472-.0846136.1952108-.0120736.2165266-.0120736.4107898-.0120736,1.4871576v.7417291c0,.7462935-.0809016,1.6739969-.7119341,2.2334552-.5698468.507491-1.1693752.5669775-1.5699809.5669775ZM72.7085766,35.8709711c.0325371.0854702.0455765.1794112.0510969.2704969.0139912.2276666.0139912.4238292.0139912,1.5113329v1.0112742c0,1.0233577.2871531,1.4294837.5371866,1.6683814.0809016.0762379.1682753.1394363.2603128.1914988-.0120877-.0102793-.0241753-.0214151-.036263-.032551-.410885-.3931818-.5864751-.9517835-.5864751-1.8682559v-.9703475c0-1.0875037,0-1.2836663.0138821-1.5113329.003712-.06139.0102793-.1655152.0455904-.2695451q-.1413259.0055203-.2974184,0-.0009518-.0009518-.0019036-.0009518ZM76.3707402,35.8728747c.0324558.0854702.0445435.1784594.0492072.2695451.0158136.2258582.0158136.4219256.0158136,1.5103811v.8662223c0,.1171646-.0018224.2361375-.0074379.3569188.0120877-.1644682.0148478-.327128.0148478-.4814121v-.7417291c0-1.0875037,0-1.2836663.0139912-1.5113329.0046637-.0892773.0157996-.1821714.0446386-.2667849-.018655.0009518-.0315992.0019036-.0391183.0019036l-.0919423-.003712Z"/><path class="cls-2" d="M79.6563921,40.7925486c-.096606-.0483547-.1041251-.0762379-.1041251-.2639296,0-.345783.0278873-.622752.0353112-.7343051.0056155-.0762338.0204774-.1097365.0539661-.1097365.0427351,0,.050159.0204633.050159.0762379,0,.06139,0,.1598996.0204633.2565057.1041251.5112981.5614571.7064137,1.0261178.7064137.6655822,0,.9908067-.4777002.9908067-.9219927,0-.4777953-.2007311-.7565727-.7974042-1.2474075l-.3123754-.2565057c-.7342869-.6041922-.9015294-1.0335417-.9015294-1.5057216,0-.7417249.5558416-1.2474075,1.4369217-1.2474075.269531,0,.4703573.0278873.6432012.0688139.1320124.0278873.1877869.0353112.2435614.0353112s.0687188.0130394.0687188.0483506-.0278873.2639296-.0278873.734301c0,.1115449-.0129301.1598045-.0482554.1598045-.0409267,0-.0483506-.0353112-.0557745-.0891863-.0056155-.0836576-.0483506-.2714445-.0892773-.3476823-.0409267-.0761427-.2286184-.3680589-.8662182-.3680589-.4796037,0-.8532739.2993401-.8532739.8049275,0,.395942.1802678.6451189.8457548,1.1655541l.1934024.1524757c.8197853.6450237,1.0130784,1.0744684,1.0130784,1.6284065,0,.2844881-.111549.8124383-.5892351,1.1507063-.2993501.2082502-.672911.291912-1.0465953.291912-.3272232,0-.6451189-.0483506-.9295118-.1877869Z"/><path class="cls-2" d="M80.5859039,41.1949627c-.4015575,0-.7362046-.0687188-1.0243094-.2100586-.2239547-.1114539-.2239547-.2713535-.2239547-.456285,0-.2900084.0195116-.5335698.0306474-.6748145l.0055203-.0734777c.0214151-.2881049.2100586-.3104718.2677367-.3104718.0269355,0,.2648814.0083757.2648814.2909602,0,.0548227,0,.1375327.0157996.2119622.0985096.4842675.6032404.5362348.8160592.5362348.5335698,0,.7761936-.3661511.7761936-.7072703,0-.3894698-.1478261-.6116161-.7185155-1.0818923l-.3122661-.2566008c-.6962438-.5725019-.9806367-1.0567653-.9806367-1.6711415,0-.8746891.6635835-1.4621299,1.6516441-1.4621299.2574433,0,.4777953.0241753.6925036.0752861.1170694.0241711.1589479.028839.194259.028839.1952108,0,.2834411.1320124.2834411.263073l-.0046637.0669104c-.0064721.0920375-.0232235.3076164-.0232235.6673906,0,.3095158-.1431482.3745268-.2629778.3745268-.0688139,0-.2342339-.0269396-.2677367-.2742088-.0064721-.0799498-.0446386-.2360423-.0659586-.2760172-.0232235-.0427351-.1626598-.2546973-.6775747-.2546973-.2946722,0-.6385516.1542841-.6385516.590201,0,.2946722.115261.489883.7630449.9964222l.194259.1533323c.7974994.6274157,1.0949318,1.1144433,1.0949318,1.7966818,0,.4080296-.1794112.9704344-.6803349,1.3254497-.3114236.2174866-.7157412.3317958-1.1702179.3317958ZM79.955728,36.555018c-.0157996.0744295-.0232235.1534275-.0232235.2370893,0,.4089814.1375327.7760843.8234831,1.3403016l.3113284.2565057c.5940081.4879794.8764975.8234831.8764975,1.4128275,0,.046447-.0027602.0938459-.0092323.1402929.0669104-.1905512.0724307-.3522551.0724307-.4043176,0-.471228-.1477168-.8439465-.9313061-1.4601311l-.1933214-.1524757c-.6413117-.5010189-.9276082-.813299-.9276082-1.3338294,0-.0120918.0009518-.0241753.0009518-.036263Z"/><path class="cls-2" d="M86.9119332,38.8722302c0,.665487,0,1.2139047.0353254,1.5039132.0204491.2026347.0612806.3550153.2695308.3829025.096606.0130394.2490818.0278873.3122802.0278873.0409267,0,.0557745.0204633.0557745.0409267,0,.0353071-.0353112.0557745-.111549.0557745-.3810941,0-.8179628-.0204674-.8532739-.0204674-.0334076,0-.4702762.0204674-.6785265.0204674-.0761427,0-.111549-.0148478-.111549-.0557745,0-.0204633.014943-.0409267.0557745-.0409267.0631984,0,.1450518-.0148478.2082502-.0278873.1394505-.0278873.1728439-.1802678.2007311-.3829025.0353112-.2900084.0353112-.8384261.0353112-1.5039132v-2.9333969l-1.0261178.0148478c-.4294447.0074239-.5966731.0557745-.7082221.2211945-.0762379.1189729-.0967012.1673194-.1171646.2156741-.0204633.0557745-.0427351.0688139-.0687046.0688139-.0223811,0-.0354205-.0204633-.0354205-.06139,0-.0706223.1376279-.665487.1524899-.7212616.0130252-.0427351.0409267-.1320124.0687997-.1320124.0482696,0,.1189729.0688139.3048563.0836576.2007311.0204675.4647559.033507.5484177.033507h2.6006533c.2211945,0,.3810941-.0130394.4926432-.033507.1040299-.0148436.16542-.035307.1933072-.035307.0353255,0,.0353255.0409267.0353255.0836618,0,.2081551-.0223812.6859504-.0223812.7621883,0,.0631943-.0203682.0891821-.0482554.0891821-.0335028,0-.0483363-.0204633-.0539661-.1170694l-.0074239-.0762379c-.0204633-.2081551-.1877726-.3680547-.8532739-.3810941l-.8736421-.0148478v2.9333969Z"/><path class="cls-2" d="M87.4732951,41.0983567c-.2955288,0-.6237038-.0120877-.7770361-.0185598l-.0771896-.0019036-.1040299.003712c-.1534275.0056155-.4229726.0167514-.5735448.0167514-.3169439,0-.3261762-.2426096-.3261762-.2704969,0-.1459084.1161176-.2555539.2704017-.2555539.0335028,0,.0892773-.0075191.1655152-.0233187-.0019036-.0092323.0148478-.0808105.0315992-.201687.0324558-.2742048.0324558-.830907.0324558-1.47507v-2.7159143l-.8086353.0120877c-.4209596.0064721-.4860759.0567221-.5334747.1263969-.0622466.0967012-.0799498.1384845-.0975578.1794112-.065102.1794112-.2072985.1997794-.2658189.1997794-.1236509,0-.2500477-.0948018-.2500477-.2760172,0-.1170694.1579961-.7705681.1598045-.7760843.0307426-.0994614.0883397-.291912.2761124-.291912.0622466,0,.111549.0223627.1514288.0399749.0409267.0177032.0873737.0381665.1701789.0446386.197971.0204633.4517165.032551.5316663.032551h2.6006533c.2397543,0,.3791906-.0158038.4535249-.0297908.0576781-.0083757.0957494-.0166562.1245885-.0232235.0399749-.0083757.0715741-.0157996.1078371-.0157996.0417833,0,.2500335.0148478.2500335.2983841,0,.1320124-.0093275.3690065-.0157853.5484135-.0037263.1031775-.0065816.1858875-.0065816.2137748,0,.2081551-.1365809.3039045-.2629778.3039045-.0929893,0-.2519371-.0417875-.2677367-.3197083l-.0074239-.067858c-.013896-.1441-.3578706-.1812196-.6441671-.1868351l-.6543512-.0111359v2.7149625c0,.644163,0,1.2008653.0335028,1.4779254.0185598.1876958.0409267.190456.0854702.1960674.0873737.0120917.2259534.0260829.2835363.0260829.1542841,0,.2704969.1096455.2704969.2555539,0,.1004132-.0688139.2704969-.3262714.2704969ZM86.5447351,35.8765867v2.9956435c0,.6849986,0,1.2269442-.0371196,1.5298969-.0102793.0734777-.0223669.1645634-.051206.2528889.0149573-.0009518.028839-.0019036.0418785-.0019036l.1217331-.0046637.0920375.003712c.0214151,0,.046447.0009518.0743486.0019036-.0362772-.0967012-.0464613-.1933072-.0520768-.2565057-.0371196-.2983841-.0371196-.8403297-.0371196-1.5253283v-2.9956435h-.1524757Z"/><path class="cls-2" d="M3.0035808,20.3413709c.0480696-.27374.1455299-.4199303.2745473-.4199303.128944,0,.2264127.0816781.4357089.5002176l4.409057,9.1090833,4.3932614-9.2208579c.1290174-.259499.2093047-.388443.3547612-.388443.1455385,0,.2429901.1619689.2909863.5002176l1.4699764,9.9820423c.1447226,1.0162138.3066915,1.4849477.791204,1.631138.4680087.144796.791204.1605746,1.0005086.1605746.1461904,0,.2594292.017173.2594292.1132388,0,.128944-.19426.1776741-.4200037.1776741-.4042164,0-2.6331145-.0487301-3.2788533-.0959925-.3712089-.0329548-.4680086-.0816817-.4680086-.1777475,0-.0816817.0645087-.1290174.1777475-.1777475.0960659-.0329515.144796-.2436506.0802873-.6952115l-.9689515-7.1052039h-.0645087l-3.5203843,7.3316815c-.3711917.7597169-.4529553.9045162-.5976779.9045162-.1455299,0-.3067649-.3225435-.5654602-.8084503-.3877861-.7424772-1.6634291-3.2136194-1.8569552-3.6651069-.1461904-.3397165-1.1151418-2.3751531-1.6799416-3.5863608h-.0645087l-.8399341,6.4287065c-.0322177.2909863-.0487301.5002176-.0487301.7582524,0,.3067649.2106991.452952.4845124.517464.2909129.0645087.5173906.0802873.678699.0802873.128944,0,.2421828.0329515.2421828.1132388,0,.1461904-.1454565.1776741-.3877127.1776741-.6779651,0-1.4046604-.0487301-1.6956467-.0487301-.3067649,0-1.0821903.0487301-1.5989204.0487301-.1613084,0-.2902525-.0314838-.2902525-.1776741,0-.0802873.0967264-.1132388.2579614-.1132388.1290257,0,.2422562,0,.4845124-.0473357.4522214-.0974635.5818993-.728163.6621866-1.2771108l1.5989204-10.5295957Z"/><path class="cls-2" d="M18.6165941,24.9611185c0-2.4553669,0-2.9068544-.0322177-3.4243184-.0322089-.5489477-.1941866-.8227611-.5496816-.9044428-.1770136-.0487337-.3870522-.0645087-.5805049-.0645087-.1619689,0-.2595026-.0329515-.2595026-.1619689,0-.095996.1304852-.129021.3884466-.129021.6135298,0,1.6312114.0487337,2.0992202.0487337.4034825,0,1.3566554-.0487337,1.9701852-.0487337.2099652,0,.3397165.0330249.3397165.129021,0,.1290174-.0975336.1619689-.2587687.1619689s-.2902525.015775-.484439.0487301c-.4365074.0802873-.5654602.355495-.5977513.9202214-.0322177.517464-.0322177.9689515-.0322177,3.4243184v2.8424191c0,1.5667027,0,2.8423457.0645087,3.5360895.0487301.435779.1619778.7267687.646408.7912774.2257438.0329515.5812388.0645087.823495.0645087.1770136,0,.2579614.0487301.2579614.1304085,0,.1117743-.1289351.1605044-.3059576.1605044-1.0664851,0-2.0841667-.0487301-2.5198756-.0487301-.3712736,0-1.3889552.0487301-2.0354366.0487301-.2092313,0-.3224701-.0487301-.3224701-.1605044,0-.0816784.0645087-.1304085.2579614-.1304085.2422562,0,.4365162-.0315572.5819727-.0645087.3225435-.0645087.4200037-.3397165.468-.8069825.0809478-.6780385.0809478-1.9536815.0809478-3.5203843v-2.8424191Z"/><path class="cls-2" d="M26.1733588,30.2904617c.032291,1.2599378.2422562,1.6798682.5647997,1.793107.2744739.0960659.5818993.1118444.8399341.1118444.1777565,0,.2744739.0329515.2744739.1304085,0,.1290207-.1454565.1605044-.3712736.1605044-1.0498993,0-1.6956467-.0487301-2.0024117-.0487301-.1454565,0-.9044338.0487301-1.7443769.0487301-.2100386,0-.355495-.0157052-.355495-.1605044,0-.097457.0967264-.1304085.2586953-.1304085.2093047,0,.500291-.0157786.7267687-.0802873.4199303-.1290174.484448-.5977513.5002176-2.0024117l.1461904-9.5606478c0-.3239343.0480696-.5489478.2093047-.5489478.1777475,0,.323204.2092349.5976779.5002212.1935351.2106991,2.648893,2.8424191,5.0067997,5.1830795,1.0979689,1.0994367,3.2781281,3.4243184,3.5526019,3.683821h.0810212l-.1619689-7.2514676c-.0157786-.9862014-.1612351-1.2928894-.549012-1.4534639-.2421828-.0974602-.6299781-.0974602-.8557127-.0974602-.1935352,0-.2587044-.0487301-.2587044-.1461904,0-.1290174.178408-.1447996.4199303-.1447996.8400075,0,1.614699.0487337,1.9544154.0487337.1777567,0,.7912866-.0487337,1.5824813-.0487337.2099652,0,.3712002.0157822.3712002.1447996,0,.0974602-.0959925.1461904-.2902525.1461904-.1612351,0-.2902525,0-.4851729.0487301-.4514875.1290174-.5805049.4687339-.5970174,1.3731731l-.1770136,10.1898828c0,.355495-.0645087.5002176-.2106991.5002176-.1777475,0-.3712736-.1777475-.5489477-.3540305-1.017755-.970416-3.0846754-3.0860665-4.7645435-4.7487617-1.7602288-1.7444503-3.5526753-3.7626405-3.8429278-4.0707998h-.0487301l.1777475,6.7842015Z"/><path class="cls-2" d="M40.8339331,30.2904617c.0315572,1.2599378.2422562,1.6798682.5647263,1.793107.2752078.0960659.5819727.1118444.8399341.1118444.1777475,0,.2745473.0329515.2745473.1304085,0,.1290207-.1455299.1605044-.3720075.1605044-1.0492388,0-1.6956374-.0487301-2.0016684-.0487301-.1454658,0-.9044521.0487301-1.7444503.0487301-.2099745,0-.3554309-.0157052-.3554309-.1605044,0-.097457.0967264-.1304085.2586953-.1304085.2093047,0,.5002176-.0157786.7266953-.0802873.4200037-.1290174.4845124-.5977513.500291-2.0024117l.1461904-9.5606478c0-.3239343.0479962-.5489478.2093047-.5489478.1776741,0,.323204.2092349.5976779.5002212.1935261.2106991,2.648893,2.8424191,5.0067997,5.1830795,1.0979689,1.0994367,3.2781376,3.4243184,3.5526115,3.683821h.0809382l-.1619689-7.2514676c-.0157052-.9862014-.1612351-1.2928894-.5489477-1.4534639-.2422562-.0974602-.6299689-.0974602-.8557127-.0974602-.19426,0-.2587592-.0487301-.2587592-.1461904,0-.1290174.1784719-.1447996.4199942-.1447996.8399341,0,1.614699.0487337,1.9544154.0487337.1777475,0,.791204-.0487337,1.5824079-.0487337.2100386,0,.3712736.0157822.3712736.1447996,0,.0974602-.0960659.1461904-.2909767.1461904-.1605108,0-.2895282,0-.4844487.0487301-.4515609.1290174-.5805783.4687339-.5970174,1.3731731l-.1777475,10.1898828c0,.355495-.0645087.5002176-.2099652.5002176-.1777475,0-.3712736-.1777475-.5490116-.3540305-1.0176912-.970416-3.0846115-3.0860665-4.7645531-4.7487617-1.7601554-1.7444503-3.5525926-3.7626405-3.8428544-4.0707998h-.0487301l.1777475,6.7842015Z"/><path class="cls-2" d="M54.5899912,24.9611185c0-2.4553669,0-2.9068544-.0322177-3.4243184-.032291-.5489477-.1612351-.8069825-.6944776-.9202214-.1290174-.0329551-.4042252-.0487301-.629235-.0487301-.1784814,0-.2752078-.0329515-.2752078-.1461904,0-.1117746.1132388-.1447996.3554216-.1447996.4357823,0,.9045162.0157822,1.3080074.0157822.4199303.0172428.7919379.0329515,1.0169477.0329515.517464,0,3.7310833,0,4.0378483-.0157088.3067014-.0330249.5654602-.0645051.6944776-.09753.0809478-.0157052.178408-.0645087.2586953-.0645087s.0967264.0645087.0967264.144796c0,.1132388-.0809478.3081593-.1290174,1.0507065-.0164391.1605012-.0479962.8714912-.0809478,1.0649439-.0157786.0817551-.0487301.1777475-.1619689.1777475-.1125049,0-.144796-.0802873-.144796-.2250099,0-.1132388-.0157786-.3884466-.0967264-.5819727-.1132388-.2909863-.2744739-.4845124-1.0821903-.5819727-.2744739-.0314873-1.970194-.0645123-2.293398-.0645123-.0810212,0-.1125049.0488071-.1125049.1619725v4.0865784c0,.1118444.0157052.1762797.1125049.1762797.355495,0,2.2123768,0,2.5836505-.0314838.3884564-.0329515.6299689-.0802907.7754254-.2422562.1132388-.1290174.1777475-.2093047.2580348-.2093047.0645087,0,.1132388.0315572.1132388.1290174,0,.0960659-.0645087.3540273-.1290174,1.1782562-.0157786.3224701-.0645087.9689515-.0645087,1.0821869,0,.1290208,0,.3067649-.1447226.3067649-.113229,0-.1462539-.0645053-.1462539-.1447926-.0157884-.1619723-.0157884-.3712736-.0645185-.5819727-.0802139-.3224701-.3066915-.5647263-.9044428-.629235-.3066915-.0329515-1.9049417-.0487301-2.293398-.0487301-.0802873,0-.0959925.0645087-.0959925.1605746v1.2771108c0,.5489477-.0165125,2.0339688,0,2.502626.0314838,1.1137508.2902525,1.356007,1.937903,1.356007.4200037,0,1.0979689,0,1.5178992-.1935294.4200037-.1934494.6135298-.5317715.7267687-1.193958.0314936-.1777475.0645186-.2422596.1777475-.2422596.1289539,0,.1289539.1290207.1289539.2895219,0,.3712736-.1289539,1.4692425-.2107089,1.7931804-.1125049.4200037-.2579614.4200037-.8714912.4200037-1.2111979,0-2.099138-.0330249-2.7936156-.0488035-.6952115-.0314838-1.1954291-.0487301-1.6799416-.0487301-.1777475,0-.5331692,0-.9202214.0172464-.3711905,0-.791204.0314838-1.1151418.0314838-.2093047,0-.3225435-.0487301-.3225435-.1605044,0-.0816784.0645087-.1304085.2580348-.1304085.2422562,0,.4364428-.0315572.5819727-.0645087.3224701-.0645087.4042252-.4200037.4686702-.8872698.0802776-.6794329.0802776-1.9551493.0802776-3.440097v-2.8424191Z"/><path class="cls-2" d="M63.276282,32.2928734c-.2580348-.1132388-.3067649-.1935261-.3067649-.5490244,0-.8886609.0645087-1.8576124.0802873-2.1156472.0164391-.2422562.0645087-.4199337.1941866-.4199337.1455299,0,.1612351.1447259.1612351.27374,0,.2107024.0645186.5504155.1455299.8241555.355495,1.1955025,1.3079341,1.6312148,2.3098371,1.6312148,1.4534639,0,2.1629862-.9847301,2.1629862-1.8404427,0-.791204-.2422462-1.5351456-1.5824079-2.5843843l-.7425472-.5819727c-1.775934-1.3888818-2.3901244-2.5198756-2.3901244-3.8270758,0-1.7774018,1.4856816-3.0531182,3.7303495-3.0531182,1.0507166,0,1.7286717.1619689,2.1486121.2752078.1447859.0315572.2250732.0802873.2250732.1935261,0,.2106991-.0645087.6779651-.0645087,1.937903,0,.355495-.0487301.4845124-.1777475.4845124-.111771,0-.1605012-.0960694-.1605012-.2895186,0-.1462638-.0817551-.6464814-.4200037-1.0664851-.2422562-.3066915-.7109901-.791204-1.7601554-.791204-1.1954291,0-1.9221878.6937437-1.9221878,1.6626952,0,.7439416.3712637,1.3086679,1.7114254,2.3264229l.4529453.3382487c1.9536815,1.4691691,2.6474987,2.5843843,2.6474987,4.1180621,0,.9374677-.3541007,2.0511418-1.5179726,2.8108587-.8069825.5159995-1.7114253.6621899-2.567138.6621899-.9374677,0-1.6635025-.1132421-2.3579067-.4199303Z"/><path class="cls-2" d="M71.1712954,26.3816309c0-2.7621319,1.8246641-6.3312463,6.6694949-6.3312463,4.0206019,0,6.524699,2.3421281,6.524699,6.0402599,0,3.6981285-2.5843843,6.6221592-6.6866679,6.6221592-4.6341317,0-6.507526-3.4730485-6.507526-6.3311729ZM82.1050429,26.6883958c0-3.6178445-2.0840933-5.8625124-4.7329864-5.8625124-1.8562213,0-3.9718718,1.0334602-3.9718718,5.0554565,0,3.3584153,1.8562213,6.023087,4.9579962,6.023087,1.129526,0,3.7468619-.5490211,3.7468619-5.216031Z"/><path class="cls-2" d="M89.4166892,21.1813784l-2.4066368.0644353c-.9359999.0330249-1.3244465.1132388-1.5667027.4687303-.1605012.2422598-.2421828.4357859-.27374.5647299-.0329515.1290174-.0802768.1935261-.1777475.1935261-.1132388,0-.1461799-.0802873-.1461799-.2579614,0-.2580348.3081488-1.7286717.339706-1.8576891.0487301-.2093047.0974602-.3067649.1934527-.3067649.1304852,0,.2909968.1619689.6952115.1949939.4687339.0472623,1.0821903.0802139,1.6154434.0802139h6.3942767c.5174747,0,.8728856-.0487337,1.1151418-.0802139.2422562-.0487301.3712736-.0817551.4357823-.0817551.1132388,0,.128944.0974602.128944.3397165,0,.3397165-.0487301,1.4534639-.0487301,1.8734677-.0157678.1605012-.0487301.2579614-.1447226.2579614-.1290174,0-.1619689-.0802873-.1777475-.3224701l-.0157786-.1777475c-.0329515-.4200073-.4687339-.872959-1.9064192-.9044428l-2.0353632-.0487301v6.6221592c0,1.4849477,0,2.7606641.0816817,3.4558756.0487301.4514875.144796.8069825.6293084.8714912.2264043.0329515.5818993.0645087.8241555.0645087.1777475,0,.2580348.0487301.2580348.1304085,0,.1117743-.1290174.1605044-.3067649.1605044-1.0664117,0-2.0826883-.0487301-2.5356542-.0487301-.3711896,0-1.3889552.0487301-2.0353632.0487301-.2093047,0-.3225435-.0487301-.3225435-.1605044,0-.0816784.0645087-.1304085.2580348-.1304085.2422562,0,.4371767-.0315572.5819727-.0645087.3224701-.0645087.4199303-.4200037.4686605-.8872698.0802873-.6794329.0802873-1.9551493.0802873-3.440097v-6.6221592Z"/><path class="cls-2" d="M98.749388,28.2708037c-.0816709,0-.113228.0329515-.1461904.1304118l-.8714912,2.3091766c-.1619689.4042252-.2422562.7912741-.2422562.9847301,0,.2909863.144796.500291.6450136.500291h.2436506c.1935261,0,.2408618.0329515.2408618.1304085,0,.1290207-.0960659.1605044-.2738134.1605044-.5159962,0-1.2112077-.0487301-1.7114253-.0487301-.1777475,0-1.0664117.0487301-1.9064192.0487301-.2092313,0-.3066915-.0314838-.3066915-.1605044,0-.097457.0645087-.1304085.1934527-.1304085.1462638,0,.3712736-.0157786.500291-.0315572.7438682-.0974602,1.0506331-.6464814,1.3731766-1.4534639l4.0535534-10.1425435c.1935261-.4687339.2909863-.646408.4529553-.646408.144796,0,.2422671.1461904.4027574.5173906.3884575.8872698,2.9728309,7.4779453,4.0062911,9.9318444.6134564,1.4534639,1.0821903,1.6799383,1.4205124,1.7602288.2421828.0487301.484439.0645087.6779651.0645087.1304118,0,.2106991.017173.2106991.1304085,0,.1290207-.1461793.1605044-.7424738.1605044-.5819727,0-1.7602179,0-3.0531182-.0314838-.2909863-.0172464-.484439-.0172464-.484439-.1290207,0-.097457.0644462-.1304085.2264776-.1461871.1131764-.0315572.2264043-.1777475.1447335-.3712736l-1.2914325-3.4243184c-.0330249-.0802873-.0817551-.1132388-.1620423-.1132388h-3.6005982ZM102.0432947,27.4638178c.0816817,0,.0974602-.0487267.0816817-.0974568l-1.4548583-3.9891181c-.0157677-.0645087-.0315572-.1447226-.0802873-.1447226s-.0802873.0802139-.0959925.1447226l-1.4864155,3.9733396c-.0157786.0645087,0,.1132354.0645087.1132354h2.9713631Z"/><path class="cls-2" d="M46.8375599,7.5185999c-7.7634425-.8727066-16.6087308-.9909292-28.322082-.5273475,0,0,22.2388906-3.9967634,33.8340382-3.3179916,6.4483904.3787091,13.92543,1.9877541,21.861552,3.2422794,8.7120163,1.3817466,16.9602958,2.0575706,24.5222013,1.5848351,0,0-9.5043563,4.521163-28.8931812,2.4120834-9.4362464-1.0272338-15.6694658-2.5666106-23.0025282-3.3938589"/><path class="cls-2" d="M74.0560761,14.0507786c0,.6516442-.5113953,1.1613291-1.1767223,1.1613291-.6576304,0-1.1827085-.509685-1.1827085-1.1613291,0-.6379614.5250781-1.1476463,1.1827085-1.1476463.665327,0,1.1767223.509685,1.1767223,1.1476463ZM71.9908258,14.0507786c0,.5113953.3779878.9167488.8962246.9167488.5036987,0,.8748451-.4053535.8748451-.9099074,0-.5113953-.3711464-.9235902-.8825417-.9235902-.5105401,0-.888528.4121949-.888528.9167488ZM72.6980564,14.6528226h-.2668149v-1.1476463c.1051867-.0222346.2522769-.0359174.4412709-.0359174.2172147,0,.31556.0359174.3993672.0838073.063283.0496002.1120281.1402489.1120281.2531321,0,.1248557-.0983453.2240561-.237739.2651046v.0136828c.1111729.0427588.1744559.1265661.2095181.2804978.0350622.1744559.0564416.2445804.0838073.2873392h-.286484c-.0350622-.0427588-.0564416-.1470903-.0915038-.2804978-.0205242-.1248557-.0906487-.1812973-.237739-.1812973h-.1257109v.4617951ZM72.7048978,14.0011784h.1257109c.1470903,0,.2659598-.0478899.2659598-.1676145,0-.1043315-.0769658-.1744559-.2445804-.1744559-.0701244,0-.1197247.0068414-.1470903.0136828v.3283876Z"/><path class="cls-2" d="M15.8822151,49.9026804v-.0113672c0-.6630859.5176807-.9889453,1.267915-.9889453.3429102,0,.5873047.0520996.8260156.1278809v-.0757812c0-.4357422-.2676025-.6687695-.7620752-.6687695-.3433838,0-.5991455.0757812-.8785889.1922949l-.1861377-.5522559c.3377002-.1515625.6692432-.2500781,1.1575586-.2500781.4598975,0,.8028076.12125,1.0183105.3429102.2268701.2207129.331543.5465723.331543.9482129v1.8206445h-.6862939v-.3845898c-.2098193.2510254-.5295215.4480566-1.0007861.4480566-.5759375,0-1.0874609-.331543-1.0874609-.9482129ZM17.987513,49.6819676v-.2093457c-.1799805-.0700977-.4186914-.1221973-.6976611-.1221973-.4537402,0-.7213428.1922949-.7213428.5115234v.0123145c0,.2964941.2614453.4651074.5991455.4651074.4651074,0,.8198584-.2680762.8198584-.6574023Z"/><path class="cls-2" d="M20.8582015,49.2575926v-.0123145c0-1.0173633.6919775-1.5933008,1.4251611-1.5933008.5058398,0,.8260156.2500781,1.0467285.5408887v-1.6520313h.7038184v4.2465918h-.7038184v-.5124707c-.2268701.3201758-.5465723.5759375-1.0467285.5759375-.7213428,0-1.4251611-.5759375-1.4251611-1.5933008ZM23.3419319,49.2575926v-.0123145c0-.5929883-.4186914-.9823145-.8899561-.9823145-.4831055,0-.8842725.3722754-.8842725.9823145v.0123145c0,.5929883.4073242.9832617.8842725.9832617.4712646,0,.8899561-.395957.8899561-.9832617Z"/><path class="cls-2" d="M24.8154036,46.5758836h.755918v.6687695h-.755918v-.6687695ZM24.8442952,47.7163914h.7038184v3.0710352h-.7038184v-3.0710352Z"/><path class="cls-2" d="M26.0610579,47.7163914h.7563916l.8260156,2.2563867.8316992-2.2563867h.7388672l-1.2565479,3.0937695h-.6341943l-1.2622314-3.0937695Z"/><path class="cls-2" d="M29.7099251,46.5758836h.755918v.6687695h-.755918v-.6687695ZM29.7388167,47.7163914h.7038184v3.0710352h-.7038184v-3.0710352Z"/><path class="cls-2" d="M30.9963118,50.3857859l.3140186-.4764746c.3377002.2500781.6924512.377959,1.0064697.377959.3026514,0,.4769482-.1278809.4769482-.331543v-.0123145c0-.2377637-.3258594-.3192285-.6862939-.4300586-.4537402-.1278809-.9595801-.3144922-.9595801-.9017969v-.0113672c0-.5816211.4826318-.9368457,1.0931445-.9368457.3841162,0,.8028076.1335645,1.128667.349541l-.2789697.5001562c-.2969678-.1809277-.6109863-.2908105-.866748-.2908105-.2737598,0-.4305322.1278809-.4305322.3021777v.0113672c0,.2273438.331543.3201758.6919775.4366895.4480566.139248.9538965.3429102.9538965.8961133v.0113672c0,.6450879-.5001563.9652637-1.1400342.9652637-.4362158,0-.9188477-.1572461-1.3029639-.4594238Z"/><path class="cls-2" d="M34.0574007,46.5758836h.7563916v.6687695h-.7563916v-.6687695ZM34.0862923,47.7163914h.7038184v3.0710352h-.7038184v-3.0710352Z"/><path class="cls-2" d="M35.4252522,49.2689597v-.0113672c0-.8781152.6981348-1.6056152,1.6406641-1.6056152.9420557,0,1.6345068.7151855,1.6345068,1.5933008v.0123145c0,.8724316-.6981348,1.5989844-1.6463477,1.5989844-.9363721,0-1.6288232-.7151855-1.6288232-1.5876172ZM37.9966048,49.2689597v-.0113672c0-.5408887-.3897998-.9889453-.9425293-.9889453-.5640967,0-.9250049.442373-.9250049.9766309v.0123145c0,.5352051.3897998.9832617.9368457.9832617.5697803,0,.9306885-.442373.9306885-.9718945Z"/><path class="cls-2" d="M39.3009895,47.7163914h.7038184v.470791c.1979785-.285127.4831055-.5352051.9600537-.5352051.6919775,0,1.0936182.4651074,1.0936182,1.1746094v1.9608398h-.7038184v-1.7448633c0-.4774219-.2387109-.7511816-.6574023-.7511816-.4073242,0-.6924512.285127-.6924512.7625488v1.7334961h-.7038184v-3.0710352Z"/><path class="cls-2" d="M44.2537679,49.2689597v-.0113672c0-.8781152.6981348-1.6056152,1.6406641-1.6056152.9420557,0,1.6345068.7151855,1.6345068,1.5933008v.0123145c0,.8724316-.6981348,1.5989844-1.6463477,1.5989844-.9363721,0-1.6288232-.7151855-1.6288232-1.5876172ZM46.8251204,49.2689597v-.0113672c0-.5408887-.3897998-.9889453-.9425293-.9889453-.5640967,0-.9250049.442373-.9250049.9766309v.0123145c0,.5352051.3897998.9832617.9368457.9832617.5697803,0,.9306885-.442373.9306885-.9718945Z"/><path class="cls-2" d="M48.2872249,48.3207469h-.3897998v-.5873047h.3897998v-.2273437c0-.3372266.0871484-.5929883.2500781-.755918s.3897998-.2443945.6924512-.2443945c.2439209,0,.4125342.0350488.5697803.0814648v.5939355c-.1397217-.0473633-.2619189-.0757813-.4130078-.0757813-.2676025,0-.4073242.1449316-.4073242.4651074v.1686133h.8146484v.5816211h-.8028076v2.4666797h-.7038184v-2.4666797Z"/><path class="cls-2" d="M51.8489436,49.059614v-2.3444824h.7156592v2.3151172c0,.7568652.3897998,1.1575586,1.0296777,1.1575586.6337207,0,1.0235205-.377959,1.0235205-1.1281934v-2.3444824h.7156592v2.3094336c0,1.2162891-.6867676,1.8263281-1.7510205,1.8263281-1.0585693,0-1.7334961-.6100391-1.7334961-1.7912793Z"/><path class="cls-2" d="M56.2021028,46.7151316h.7620752l1.2390234,1.925791,1.2390234-1.925791h.7620752v4.0722949h-.7156592v-2.9204199l-1.2854395,1.9201074h-.023208l-1.2740723-1.9087402v2.9090527h-.7038184v-4.0722949Z"/><path class="cls-2" d="M61.1373567,46.7151316h1.8268018c.4651074,0,.8316992.1278809,1.0642529.3609082.1804541.1799805.2732861.4016406.2732861.6744531v.0123145c0,.4878418-.2789697.7502344-.5816211.9074805.4769482.1629297.8084912.4357422.8084912.987998v.0123145c0,.7265527-.5991455,1.1168262-1.506626,1.1168262h-1.884585v-4.0722949ZM63.586512,47.8670066c0-.3201758-.2562354-.517207-.7156592-.517207h-1.0296777v1.0817773h.9775781c.4594238,0,.7677588-.1809277.7677588-.5532031v-.0113672ZM62.9755257,49.0359324h-1.1343506v1.1168262h1.1869238c.4883154,0,.7852832-.1913477.7852832-.5579395v-.0113672c0-.3438574-.2737598-.5475195-.8378564-.5475195Z"/><path class="cls-2" d="M66.8522102,46.7151316h1.8268018c.4651074,0,.8316992.1278809,1.0642529.3609082.1804541.1799805.2732861.4016406.2732861.6744531v.0123145c0,.4878418-.2789697.7502344-.5816211.9074805.4769482.1629297.8084912.4357422.8084912.987998v.0123145c0,.7265527-.5991455,1.1168262-1.506626,1.1168262h-1.884585v-4.0722949ZM69.3013655,47.8670066c0-.3201758-.2562354-.517207-.7156592-.517207h-1.0296777v1.0817773h.9775781c.4594238,0,.7677588-.1809277.7677588-.5532031v-.0113672ZM68.6903792,49.0359324h-1.1343506v1.1168262h1.1869238c.4883154,0,.7852832-.1913477.7852832-.5579395v-.0113672c0-.3438574-.2737598-.5475195-.8378564-.5475195Z"/><path class="cls-2" d="M70.6531136,49.9026804v-.0113672c0-.6630859.5176807-.9889453,1.267915-.9889453.3429102,0,.5873047.0520996.8260156.1278809v-.0757812c0-.4357422-.2676025-.6687695-.7620752-.6687695-.3433838,0-.5991455.0757812-.8785889.1922949l-.1861377-.5522559c.3377002-.1515625.6692432-.2500781,1.1575586-.2500781.4598975,0,.8028076.12125,1.0183105.3429102.2268701.2207129.331543.5465723.331543.9482129v1.8206445h-.6862939v-.3845898c-.2098193.2510254-.5295215.4480566-1.0007861.4480566-.5759375,0-1.0874609-.331543-1.0874609-.9482129ZM72.7584114,49.6819676v-.2093457c-.1799805-.0700977-.4186914-.1221973-.6976611-.1221973-.4537402,0-.7213428.1922949-.7213428.5115234v.0123145c0,.2964941.2614453.4651074.5991455.4651074.4651074,0,.8198584-.2680762.8198584-.6574023Z"/><path class="cls-2" d="M74.1561019,47.7163914h.7038184v.470791c.1979785-.285127.4831055-.5352051.9600537-.5352051.6919775,0,1.0936182.4651074,1.0936182,1.1746094v1.9608398h-.7038184v-1.7448633c0-.4774219-.2387109-.7511816-.6574023-.7511816-.4073242,0-.6924512.285127-.6924512.7625488v1.7334961h-.7038184v-3.0710352Z"/><path class="cls-2" d="M77.6481966,46.5408347h.7038184v2.5358301l1.2740723-1.3602734h.8549072l-1.221499,1.2503906,1.2622314,1.8206445h-.8260156l-.9070068-1.3318555-.4366895.4537402v.8781152h-.7038184v-4.2465918Z"/><path class="cls-2" d="M80.6751839,51.3339988c.354751-.0700977.5233643-.2500781.5001563-.5465723h-.3026514v-.8032813h.773916v.681084c0,.6450879-.308335.9188477-.8961133.9709473l-.0753076-.3021777Z"/><path class="cls-2" d="M83.9977181,47.7163914h.7038184v.470791c.1979785-.285127.4831055-.5352051.9600537-.5352051.6919775,0,1.0936182.4651074,1.0936182,1.1746094v1.9608398h-.7038184v-1.7448633c0-.4774219-.2387109-.7511816-.6574023-.7511816-.4073242,0-.6924512.285127-.6924512.7625488v1.7334961h-.7038184v-3.0710352Z"/><path class="cls-2" d="M87.4433968,49.9841453h.773916v.8032813h-.773916v-.8032813Z"/><path class="cls-2" d="M88.7359407,49.9026804v-.0113672c0-.6630859.5176807-.9889453,1.267915-.9889453.3429102,0,.5873047.0520996.8260156.1278809v-.0757812c0-.4357422-.2676025-.6687695-.7620752-.6687695-.3433838,0-.5991455.0757812-.8785889.1922949l-.1861377-.5522559c.3377002-.1515625.6692432-.2500781,1.1575586-.2500781.4598975,0,.8028076.12125,1.0183105.3429102.2268701.2207129.331543.5465723.331543.9482129v1.8206445h-.6867676v-.3845898c-.2093457.2510254-.5290479.4480566-1.0003125.4480566-.5759375,0-1.0874609-.331543-1.0874609-.9482129ZM90.8412386,49.6819676v-.2093457c-.1799805-.0700977-.4186914-.1221973-.6976611-.1221973-.4537402,0-.7213428.1922949-.7213428.5115234v.0123145c0,.2964941.2614453.4651074.5991455.4651074.4651074,0,.8198584-.2680762.8198584-.6574023Z"/><path class="cls-2" d="M92.192513,49.9841453h.773916v.8032813h-.773916v-.8032813Z"/></g></svg>