<svg xmlns="http://www.w3.org/2000/svg" viewBox="0 0 307.38 122"><defs><style>.cls-1{fill:#49176e;}.cls-2{fill:#ed3125;}.cls-3{fill:#6f6e73;}</style></defs><title>Asset 3</title><g id="Layer_2" data-name="Layer 2"><g id="Layer_2-2" data-name="Layer 2"><path class="cls-1" d="M163.94,93.38a16.37,16.37,0,0,0,8.84-2.14A20.27,20.27,0,0,0,183,78.48a11.08,11.08,0,0,0-.27-7.08,9.09,9.09,0,0,0-10.14-5.57,18.49,18.49,0,0,0-14.61,11,76.07,76.07,0,0,0-4.6,13.55c0-.57.1-1.13.14-1.7s.06-1.22.14-1.82c.94-7.31,1.79-14.63,2.86-21.92a189.24,189.24,0,0,1,4.9-22.89,118,118,0,0,1,7.8-21.25A52.24,52.24,0,0,1,179.38,6.33a21.39,21.39,0,0,1,10-5.91,15.39,15.39,0,0,1,9.66.83,21,21,0,0,1,7.66,5.54,3.92,3.92,0,0,1,.24.32,17.23,17.23,0,0,0-2.4-.82c-2.27-.43-4.3.39-6.25,1.42a33.75,33.75,0,0,0-8.18,6.43A91.1,91.1,0,0,0,177.7,29.66,147.42,147.42,0,0,0,167,50.74c-1.91,4.55-3.62,9.18-5.42,13.77-.07.17-.1.35-.17.57.91-.87,1.74-1.69,2.6-2.49a26.19,26.19,0,0,1,12.81-6.75,15.11,15.11,0,0,1,10.41,1.22c4.15,2.25,6.12,5.92,6.41,10.53a21.35,21.35,0,0,1-3.41,12.66,28.46,28.46,0,0,1-15.92,12.79,18.53,18.53,0,0,1-9.49.56C164.51,93.56,164.22,93.46,163.94,93.38Z"/><path class="cls-2" d="M99.71,31.17c1.46-.86,2.86-1.82,4.38-2.55a21.34,21.34,0,0,1,15.57-1.32,28.26,28.26,0,0,1,10.81,6.25A48.06,48.06,0,0,1,141.35,48a103.24,103.24,0,0,1,9,26.39c1,4.94,1.74,9.94,2.58,14.92a3.32,3.32,0,0,1,0,1.08c-.74-1.89-1.44-3.79-2.23-5.66-5-11.79-10.82-23.09-18.62-33.29a68.48,68.48,0,0,0-19.94-17.73,30.8,30.8,0,0,0-5.6-2.42,9.24,9.24,0,0,0-6.72.07Z"/><path class="cls-3" d="M3.21,109.42c-.85-2.06-1.09-2.06-3.21-2.4v-.5H5.15l5.2,12.4h.05l5.07-12.4h1.72l-6.47,15.23H8.41Z"/><path class="cls-3" d="M37.8,109.51c0-1.9-.08-1.92-2.65-2.22v-.5l5.57-.52v15.48H37.8Z"/><path class="cls-3" d="M72.06,108.35a13.35,13.35,0,0,0-4.75-1c-1.41,0-2.55.7-2.55,2.2,0,3.49,8.62,3.17,8.62,8,0,3.24-3,4.46-6.66,4.46a23.12,23.12,0,0,1-4.64-.59v-1.83a12.37,12.37,0,0,0,5.07,1.36c1.67,0,3.32-.59,3.32-2.65,0-3.67-8.62-3.33-8.62-8.1,0-2.49,2.23-3.92,6-3.92a26.31,26.31,0,0,1,4.24.41Z"/><path class="cls-3" d="M94.34,109.51c0-1.9-.08-1.92-2.65-2.22v-.5l5.57-.52v15.48H94.34Z"/><path class="cls-3" d="M119.09,114.19c0-4.87,1.59-7.92,7.35-7.92,5.52,0,7.19,3.06,7.19,7.92S132,122,126.44,122,119.09,119,119.09,114.19Zm7.35,6.74c4.11,0,4.27-3.85,4.27-6.74s-.24-6.86-4.27-6.86-4.43,3.8-4.43,6.86C122,117,122.41,120.94,126.44,120.94Z"/><path class="cls-3" d="M155.59,109.42c0-2.1-.37-2-2.65-2.4v-.5h5.6l8.35,12.31h.05V106.52h1.67v15.23h-2.55l-8.75-12.88h-.05v12.88h-1.67Z"/><path class="cls-3" d="M191.58,109.6c0-2.24-.05-2.24-2.52-2.58v-.5h7.88c3.05,0,6.29.61,6.29,3.67,0,2.22-1.88,3.08-3.18,3.44v0c1.88.32,4.08,1.15,4.08,4,0,4.05-5.38,4.05-7.56,4.05h-5Zm2.92,3.58h1.78c2.28,0,4-.63,4-2.87,0-2-1.35-2.72-3.77-2.72-1.59,0-2,.07-2,1.18Zm0,6.59c0,.93,1.09.93,2.55.93,2.92,0,4.16-1.11,4.16-3.42s-2-3-4.3-3H194.5Z"/><path class="cls-3" d="M228.42,109.42a8.31,8.31,0,0,0,.45-1.34c0-.91-1-.93-2-1.06v-.5h5l6.47,15.23h-2.76l-2-4.71h-6.76l-2,4.71h-1.64ZM227.23,116h5.86l-3-6.61Z"/><path class="cls-3" d="M259.22,109.42c0-2.1-.37-2-2.65-2.4v-.5h5.6l8.35,12.31h.05V106.52h1.67v15.23h-2.55l-8.75-12.88h-.05v12.88h-1.67Z"/><path class="cls-3" d="M294.81,109.51c0-1.79-.21-2-2.65-2.22v-.5l5.57-.52v7.54h.05l6.58-7.29h1.94l-6,6.65,7.11,8.58H304l-6.21-7.67h-.05v7.67h-2.92Z"/></g></g></svg>