<svg width="321" height="93" viewBox="0 0 321 93" fill="none" xmlns="http://www.w3.org/2000/svg">
<g clip-path="url(#clip0_612_2)">
<path d="M110.811 35.304H105.998V44.823H110.811C114.057 44.823 117.355 43.959 117.355 40.064C117.356 36.171 114.057 35.304 110.811 35.304ZM109.624 20.646H105.999V29.244H109.404C112.436 29.244 115.356 28.544 115.356 24.865C115.355 21.349 112.542 20.646 109.624 20.646ZM112.542 51.476H97.2891V14.155H110.003C113.41 14.155 116.711 14.423 119.196 15.72C121.687 17.02 123.958 19.456 123.958 23.567C123.958 27.679 121.307 30.815 118.491 31.789V31.897C123.145 33.033 126.227 36.171 126.227 40.765C126.227 48.774 119.522 51.476 112.542 51.476Z" fill="#1F375D"/>
<path d="M152.947 21.0251C146.724 21.0251 142.019 25.5121 142.019 32.6531C142.019 39.7911 146.724 44.3381 152.947 44.3381C159.169 44.3381 163.874 39.7911 163.874 32.6531C163.874 25.5691 159.169 21.0251 152.947 21.0251ZM152.947 52.1271C141.858 52.1271 133.148 44.9331 133.148 32.8691C133.148 20.8081 141.858 13.5601 152.947 13.5601C164.038 13.5601 172.746 20.8081 172.746 32.8691C172.746 44.9331 164.038 52.1271 152.947 52.1271Z" fill="#1F375D"/>
<path d="M192.81 20.916H189.345V30.492H192.81C196.056 30.492 199.19 29.514 199.19 25.676C199.19 21.781 196.056 20.916 192.81 20.916ZM200.005 51.479L192.161 37.198H189.403V51.479H180.637V14.156H194.054C201.192 14.156 208.007 17.184 208.007 25.352C208.007 32.435 203.463 35.197 200.708 36.062L210.174 51.479H200.005Z" fill="#1F375D"/>
<path d="M230.294 21.403H225.857V44.066H230.294C237.215 44.066 241.383 39.74 241.383 32.817C241.383 25.786 237.376 21.403 230.294 21.403ZM229.804 51.476H217.148V14.155H229.804C241.544 14.155 250.253 20.373 250.253 32.817C250.253 45.313 241.598 51.476 229.804 51.476Z" fill="#1F375D"/>
<path d="M258.147 51.479V14.156H282.323V21.13H266.856V28.757H281.46V35.738H266.856V44.392H282.814V51.479H258.147Z" fill="#1F375D"/>
<path d="M303.368 20.916H299.901V30.492H303.368C306.612 30.492 309.747 29.514 309.747 25.676C309.747 21.781 306.612 20.916 303.368 20.916ZM310.56 51.479L302.716 37.198H299.957V51.479H291.191V14.156H304.609C311.747 14.156 318.566 17.184 318.566 25.352C318.566 32.435 314.018 35.197 311.263 36.062L320.728 51.479H310.56Z" fill="#1F375D"/>
<path d="M106.431 78.3639C106.431 77.4259 106.011 76.7919 105.375 76.3449C104.733 75.9039 104.071 75.8049 103.089 75.8049H100.485V80.8449H103.236C104.981 80.8449 106.431 80.4269 106.431 78.3639ZM105.422 71.0859C105.422 69.6159 104.267 68.9019 102.622 68.9019H100.486V73.4699H102.477C104.147 73.4709 105.422 73.0039 105.422 71.0859ZM97.2921 66.3979H102.721C105.621 66.3979 108.667 67.1349 108.667 70.6719C108.667 72.7359 107.144 73.9399 106.035 74.3809V74.4299C108.225 74.9209 109.675 76.3449 109.675 78.5079C109.675 82.2199 106.677 83.3519 103.484 83.3519H97.2921V66.3979Z" fill="#1F375D"/>
<path d="M118.707 76.888H123.791L121.264 70.033L118.707 76.888ZM124.579 79.444H117.92L116.448 83.348H113.132L119.79 66.373H122.884L129.543 83.348H126.057L124.579 79.444Z" fill="#1F375D"/>
<path d="M137.125 70.844C137.125 70.844 137.174 73.006 137.174 75.019V83.348H134.054V66.395H137.447L145.871 78.752C145.871 78.752 145.822 76.762 145.822 74.751V66.395H148.944V83.348H145.725L137.125 70.844Z" fill="#1F375D"/>
<path d="M159.918 75.463L158.369 77.106V83.35H155.202V66.397H158.369V73.104L164.44 66.397H168.249L161.934 73.204L168.688 83.35H164.854L159.918 75.463Z" fill="#1F375D"/>
<path d="M57.297 40.7051C62.22 37.1471 66.087 30.8221 66.087 23.0791C66.087 13.0781 60.559 7.15406 54.509 4.00206C48.456 0.840059 40.43 0.185059 32.138 0.185059H1.21704V42.8681L31.886 26.9381L57.297 40.7051Z" fill="#1F375D"/>
<path d="M45.549 82.929L32.116 77.754L18.025 82.946C17.362 83.194 16.71 82.55 16.947 81.882L21.958 67.686L16.997 54.343C16.751 53.674 17.391 53.026 18.06 53.264L31.964 58.189L45.548 53.304C46.226 53.063 46.872 53.727 46.615 54.395L41.535 67.536L46.64 81.866C46.882 82.544 46.221 83.188 45.549 82.929ZM70.904 61.499C70.904 61.499 69.874 57.171 68.404 55.655L31.677 35.759L1.07001 51.655V92.632H38.178C55.148 92.632 71.468 86.054 71.468 66.579C71.468 64.793 71.269 63.098 70.904 61.499Z" fill="#1F375D"/>
</g>
<defs>
<clipPath id="clip0_612_2">
<rect width="320" height="93" fill="white" transform="translate(0.932007)"/>
</clipPath>
</defs>
</svg>
