<svg xmlns="http://www.w3.org/2000/svg" xmlns:xlink="http://www.w3.org/1999/xlink" version="1.1" id="Layer_2" x="0px" y="0px" viewBox="0 0 150.7 49.2" style="enable-background:new 0 0 150.7 49.2;" xml:space="preserve" width="250"  height="75" >
  <style type="text/css">
	.st0{fill:#0062A7;}
	.st1{fill:#00ADEE;}
</style>
  <g>
    <path class="st0" d="M56.6,33.1c0-2.2,1.5-3.7,3.9-3.7c1.2,0,2.2,0.4,2.9,1.2l-0.9,0.9c-0.4-0.5-1.1-0.9-2-0.9   c-1.5,0-2.4,1-2.4,2.5c0,1.5,1,2.6,2.5,2.6c1,0,1.7-0.4,2.1-1.1l0.9,0.8c-0.7,0.9-1.8,1.4-3.1,1.4C58.1,36.8,56.6,35.3,56.6,33.1z"/>
    <path class="st0" d="M68.8,34.1h-1.5v2.6H66v-7.2H69c1.5,0,2.6,0.9,2.6,2.3c0,0.9-0.5,1.7-1.3,2l1.9,2.9h-1.6L68.8,34.1z M67.4,33   h1.4c0.8,0,1.4-0.5,1.4-1.1c0-0.7-0.5-1.1-1.3-1.1h-1.5V33z"/>
    <path class="st0" d="M79.6,35.6v1.1h-5v-7.2h5v1.1h-3.6v1.8h3.2v1.1h-3.2v1.9H79.6z"/>
    <path class="st0" d="M88.8,33.1c0,2.2-1.4,3.6-3.6,3.6h-2.9v-7.2h2.9C87.3,29.6,88.8,31,88.8,33.1z M87.3,33.1   c0-1.5-0.9-2.5-2.1-2.5h-1.5v4.9h1.5C86.5,35.6,87.3,34.6,87.3,33.1z"/>
    <path class="st0" d="M91.5,29.6h1.4v7.2h-1.4V29.6z"/>
    <path class="st0" d="M101.1,30.7h-2.2v6h-1.4v-6h-2.2v-1.1h5.8V30.7z"/>
    <path class="st0" d="M107.6,34v-4.5h1.4V34c0,1,0.7,1.7,1.8,1.7c1.1,0,1.8-0.7,1.8-1.7v-4.4h1.4V34c0,1.7-1.3,2.8-3.2,2.8   C108.9,36.8,107.6,35.7,107.6,34z"/>
    <path class="st0" d="M117,29.6h0.9l4.6,4.9l0-4.9h1.4v7.2H123l-4.6-4.9l0,4.9H117V29.6z"/>
    <path class="st0" d="M127,29.6h1.4v7.2H127V29.6z"/>
    <path class="st0" d="M131,33.1c0-2.2,1.5-3.7,3.8-3.7c2.3,0,3.8,1.5,3.8,3.7c0,2.2-1.5,3.7-3.8,3.7C132.5,36.8,131,35.4,131,33.1z    M137.2,33.1c0-1.5-1-2.6-2.4-2.6c-1.4,0-2.4,1-2.4,2.6c0,1.5,1,2.6,2.4,2.6C136.3,35.7,137.2,34.7,137.2,33.1z"/>
    <path class="st0" d="M141.3,29.6h0.9l4.6,4.9l0-4.9h1.4v7.2h-0.9l-4.6-4.9l0,4.9h-1.4V29.6z"/>
  </g>
  <g>
    <path class="st1" d="M5.2,41.3C7.7,40.4,34,32,60.5,40.2c0.3,0.1,0.2,0.6-0.1,0.5c-9.5-1.6-34-3.8-59.8,8.4   c-0.2,0.1-0.5-0.2-0.3-0.4l4.4-7.1C4.9,41.4,5,41.4,5.2,41.3L5.2,41.3z"/>
  </g>
  <path class="st0" d="M56.4,14.8c0-0.7,0-1.4-0.1-2c0-0.6-0.2-1.1-0.4-1.4c-0.2-0.4-0.6-0.7-1.1-1c-0.5-0.3-1.1-0.4-1.9-0.5V9.2  L60,8.7v13.7c0,0.7,0.1,1.4,0.2,1.8c0.1,0.5,0.3,0.8,0.6,1.1c0.3,0.2,0.7,0.4,1.1,0.5c0.5,0.1,1,0.1,1.7,0.2v0.6  c-1.1-0.1-2.2-0.1-3.3-0.1c-1.1,0-2.2,0-3.3,0c-0.7,0-1.4,0-2.1,0c-0.7,0-1.4,0.1-2.1,0.1V26c0.6,0,1.2-0.1,1.6-0.2  c0.4-0.1,0.8-0.2,1.1-0.5c0.3-0.2,0.5-0.6,0.6-1.1c0.1-0.5,0.2-1.1,0.2-1.8V14.8z M59.5,1c0.5,0.5,0.7,1.1,0.7,1.8  c0,0.7-0.2,1.3-0.7,1.8c-0.5,0.5-1.1,0.8-1.7,0.8c-0.7,0-1.3-0.3-1.7-0.8c-0.5-0.5-0.7-1.1-0.7-1.8c0-0.7,0.2-1.3,0.7-1.8  c0.5-0.5,1.1-0.8,1.7-0.8C58.4,0.2,59,0.5,59.5,1z"/>
  <path class="st0" d="M64.5,9.8l6.8-1.1v2.5c0.8-0.7,1.8-1.3,2.9-1.8c1.1-0.6,2.1-0.9,3.1-0.9c0.9,0,1.7,0.1,2.5,0.3  C80.6,9,81.3,9.4,82,9.9c0.6,0.5,1.1,1.2,1.5,2c0.4,0.8,0.6,1.9,0.6,3.1v8.2c0,1,0.3,1.7,0.8,2c0.6,0.3,1.4,0.6,2.4,0.8v0.6  c-0.9-0.1-1.9-0.1-2.9-0.1c-1,0-2.1,0-3.1,0c-0.7,0-1.4,0-2.1,0c-0.7,0-1.3,0.1-1.9,0.1V26c1-0.2,1.8-0.4,2.3-0.8  c0.5-0.3,0.8-1,0.8-2v-7.5c0-1.6-0.3-2.8-1-3.7c-0.7-0.9-1.8-1.3-3.2-1.3c-0.5,0-1.1,0.1-1.6,0.2c-0.6,0.2-1.1,0.4-1.5,0.6  c-0.5,0.3-0.9,0.6-1.2,0.9c-0.3,0.3-0.5,0.6-0.5,0.9v9.9c0,1,0.3,1.7,0.9,2c0.6,0.3,1.5,0.6,2.7,0.8v0.6c-1.1-0.1-2.1-0.1-3.1-0.1  c-1,0-2.1,0-3.2,0c-0.7,0-1.4,0-2.1,0c-0.7,0-1.4,0.1-2.1,0.1V26c1.1-0.2,1.9-0.4,2.4-0.8c0.6-0.3,0.8-1,0.8-2V12.4  c0-0.9-0.3-1.5-1-1.7c-0.6-0.2-1.4-0.3-2.2-0.3V9.8z"/>
  <path class="st0" d="M87.8,9.8l6.8-1.1v2.5c0.8-0.7,1.8-1.3,2.9-1.8c1.1-0.6,2.1-0.9,3.1-0.9c0.9,0,1.7,0.1,2.5,0.3  c0.8,0.2,1.5,0.6,2.1,1.1c0.6,0.5,1.1,1.2,1.5,2c0.4,0.8,0.6,1.9,0.6,3.1v8.2c0,1,0.3,1.7,0.8,2c0.6,0.3,1.4,0.6,2.4,0.8v0.6  c-0.9-0.1-1.9-0.1-2.9-0.1c-1,0-2.1,0-3.1,0c-0.7,0-1.4,0-2.1,0c-0.7,0-1.3,0.1-1.9,0.1V26c1-0.2,1.8-0.4,2.3-0.8  c0.5-0.3,0.8-1,0.8-2v-7.5c0-1.6-0.3-2.8-1-3.7c-0.7-0.9-1.8-1.3-3.2-1.3c-0.5,0-1.1,0.1-1.6,0.2c-0.6,0.2-1.1,0.4-1.5,0.6  c-0.5,0.3-0.9,0.6-1.2,0.9c-0.3,0.3-0.5,0.6-0.5,0.9v9.9c0,1,0.3,1.7,0.9,2c0.6,0.3,1.5,0.6,2.7,0.8v0.6c-1.1-0.1-2.1-0.1-3.1-0.1  c-1,0-2.1,0-3.2,0c-0.7,0-1.4,0-2.1,0c-0.7,0-1.4,0.1-2.1,0.1V26c1.1-0.2,1.9-0.4,2.4-0.8c0.6-0.3,0.8-1,0.8-2V12.4  c0-0.9-0.3-1.5-1-1.7c-0.6-0.2-1.4-0.3-2.2-0.3V9.8z"/>
  <path class="st0" d="M126.7,16.3c-0.3-0.8-0.7-1.6-1.1-2.4c-0.4-0.8-0.9-1.5-1.4-2.1c-0.5-0.6-1.2-1.1-1.9-1.5  c-0.7-0.4-1.6-0.6-2.6-0.6c-1,0-1.8,0.2-2.5,0.7c-0.7,0.5-1.2,1.1-1.7,1.8c-0.4,0.7-0.7,1.6-0.9,2.5c-0.2,0.9-0.3,1.8-0.3,2.7  c0,1,0.2,2,0.5,2.9c0.3,0.9,0.8,1.8,1.4,2.5c0.6,0.7,1.4,1.3,2.3,1.7c0.9,0.4,1.9,0.6,3,0.6c1.2,0,2.2-0.2,3.3-0.6  c1-0.4,2-1,2.9-1.6l0.7,0.7c-1.4,1.1-2.8,2-4.1,2.6c-1.3,0.6-2.9,0.9-4.5,0.9c-1.2,0-2.4-0.2-3.5-0.7c-1.1-0.5-2.1-1.2-2.9-2  c-0.8-0.8-1.5-1.8-2-3c-0.5-1.1-0.7-2.3-0.7-3.6c0-1.3,0.2-2.5,0.7-3.6c0.5-1.1,1.2-2.1,2-3c0.8-0.8,1.8-1.5,2.9-2  c1.1-0.5,2.3-0.7,3.5-0.7c1.3,0,2.5,0.1,3.6,0.2c1.1,0.1,2.2,0.3,3.3,0.5l0.6,7.1H126.7z"/>
  <path class="st0" d="M144.3,9.2c1.2,0.5,2.3,1.1,3.2,1.9c0.9,0.8,1.6,1.8,2.1,2.9c0.5,1.2,0.7,2.4,0.7,3.8c0,1.4-0.2,2.7-0.7,3.8  c-0.5,1.2-1.2,2.1-2.1,2.9c-0.9,0.8-1.9,1.4-3.2,1.9c-1.2,0.4-2.6,0.7-4.1,0.7c-1.5,0-2.9-0.2-4.1-0.7c-1.2-0.5-2.3-1.1-3.2-1.9  c-0.9-0.8-1.6-1.8-2.1-2.9c-0.5-1.1-0.7-2.4-0.7-3.8c0-1.4,0.2-2.7,0.7-3.8c0.5-1.1,1.2-2.1,2.1-2.9c0.9-0.8,1.9-1.4,3.2-1.9  c1.2-0.4,2.6-0.7,4.1-0.7C141.7,8.5,143.1,8.7,144.3,9.2z M137.1,10.5c-0.6,0.4-1.2,1-1.6,1.7c-0.4,0.7-0.7,1.5-0.9,2.4  c-0.2,0.9-0.3,1.8-0.3,2.7c0,1,0.1,2,0.4,3c0.3,1,0.7,1.9,1.2,2.8c0.6,0.8,1.3,1.5,2.1,2c0.8,0.5,1.9,0.8,3,0.8  c0.9,0,1.6-0.2,2.3-0.6c0.6-0.4,1.2-1,1.6-1.7c0.4-0.7,0.7-1.5,0.9-2.4c0.2-0.9,0.3-1.8,0.3-2.6c0-1-0.1-2-0.4-3  c-0.3-1-0.7-1.9-1.3-2.7c-0.6-0.8-1.3-1.5-2.1-2c-0.8-0.5-1.8-0.8-3-0.8C138.5,9.9,137.7,10.1,137.1,10.5z"/>
  <path class="st0" d="M44,34.2L44,34.2c0,0-0.1,0.1-0.1,0.1c-0.1,0.1,0.1,0.2,0.2,0.2l0.2,0c0,0,5.3,0.5,7.3,1l0.3,0.1  c0.3,0.1,0.5,0.1,0.5,0c0-0.1-0.2-0.3-0.4-0.5c-0.2-0.2-0.3-0.3-0.4-0.4c-0.1-0.1-0.2-0.2-0.3-0.4c-0.3-0.4-0.8-1.2-1-1.7  c-0.2-0.5-0.3-1.1-0.5-1.7c-0.2-1.1-0.5-2.4-0.7-3.7c-0.3-1.4-0.5-2.9-0.8-4.4c-0.3-1.5-0.5-3.1-0.7-4.6c-0.2-1.6-0.5-3-0.7-4.4  c-0.2-1.3-0.3-2.5-0.5-3.6c-0.1-1.1-0.2-1.9-0.2-2.5c0-0.8,0.1-1.4,0.3-1.9c0.2-0.5,0.5-0.9,0.9-1.2C48,4.2,48.4,4,49,3.8  c0.6-0.2,1.2-0.3,1.8-0.4l0.2,0v-1l-0.2,0c-1,0.1-2.1,0.1-3.1,0.1c-1,0-2,0-3.1,0c-1.2,0-2.4,0-3.5,0c-1.1,0-2.3-0.1-3.5-0.1l-0.2,0  v1l0.1,0c0.5,0.2,1,0.4,1.5,0.7c0.6,0.4,0.9,0.7,0.9,1.1v0.1c0,0.3-0.1,0.6-0.1,0.6L39.7,6l0,0c-1,2.5-2,4.9-3,7.1  c-1.6,3.5-3.2,7-5,10.5L24.3,6.3c-0.1-0.1-0.1-0.2-0.1-0.4c0-0.1,0-0.1-0.1-0.2c0-0.9,0.4-1.3,0.9-1.7c0.5-0.4,0.9-0.6,1.5-0.7  l0.1,0v-1l-0.2,0c-1,0.1-2,0.1-3,0.1c-0.9,0-1.9,0-3,0c-1.5,0-2.8,0-4.1,0c-1.3,0-2.7-0.1-4.1-0.1l-0.2,0v1l0.2,0  c0.9,0.2,1.9,0.4,2.8,0.8c0.9,0.4,1.6,0.8,2.3,1.3L15,23.7c-0.2,1.3-0.3,2.6-0.5,3.9c-0.2,1.3-0.3,2.6-0.5,3.8  c-0.1,0.8-0.4,1.9-0.7,2.6c-0.3,0.6-0.9,1.5-1.4,2c-0.5,0.4-1.3,1-2,1.3l-0.1,0.1c-0.1,0.1-0.4,0.2-0.5,0.2c-0.1,0-0.1,0.1-0.1,0.2  c0.1,0.1,0.3,0,0.3,0l0.4-0.1c3.2-0.8,6.5-1.5,9.9-2l0.3-0.1c0.1,0,0.1-0.1,0.1-0.1c0-0.1-0.1-0.1-0.2-0.2c-0.2,0-0.2,0-0.3,0  c-0.2-0.1-0.4-0.1-0.5-0.2c-0.7-0.3-1.2-0.7-1.6-1.2c-0.4-0.5-0.7-1.2-0.8-2c-0.1-0.8-0.2-1.8-0.2-2.9c0-0.9,0.1-2.2,0.2-4  c0.1-1.8,0.3-3.8,0.5-6c0.2-2.3,0.5-4.5,0.7-6.7c0.1-0.7,0.2-1.3,0.2-2c0.2-1.4,0.3-2.7,0.5-3.8c1.5,3.3,3,6.6,4.5,9.9  c0.3,0.7,0.6,1.3,0.9,2c1.9,4.2,4,9.2,5.8,14.9l0.3,1l0.4-1.2c0.8-2.4,1.6-5.1,2.6-7.4c1-2.5,2.1-5,3.1-7.4c1.1-2.5,2.2-4.9,3.3-7.3  c0.6-1.2,1.2-2.6,1.8-4.2l3.3,20.4c0.2,0.9,0.3,1.7,0.3,2.3c0,0.7,0,1.2,0,1.6c0,0.8-0.1,1.5-0.4,2c-0.2,0.4-0.3,0.6-0.6,0.9"/>
</svg>