<?xml version="1.0" encoding="UTF-8"?>
<svg xmlns="http://www.w3.org/2000/svg" width="176" height="92" viewBox="0 0 176 92" fill="none">
  <path fill-rule="evenodd" clip-rule="evenodd" d="M53.452 67.1251C52.248 68.0611 50.443 68.8381 48.683 68.8381C45.843 68.8381 44.13 66.9961 44.35 64.1851C44.68 60.0011 47.797 57.5291 51.396 57.5291C54.14 57.5291 55.373 59.1131 54.783 61.6801L52.618 62.1171C52.98 60.5831 52.458 59.6291 50.908 59.6291C48.762 59.6291 46.954 61.2601 46.743 63.9591C46.607 65.6871 47.541 66.7381 49.187 66.7381C50.479 66.7381 51.808 66.0591 52.769 65.3161L53.452 67.1251" fill="#1A1919"></path>
  <path fill-rule="evenodd" clip-rule="evenodd" d="M59.4338 59.6619L58.5948 62.9399H61.2748C62.3888 62.9399 63.3348 62.1979 63.4298 60.9859C63.4978 60.1289 62.9698 59.6619 62.1138 59.6619H59.4338ZM57.6848 57.6899H62.3978C64.2868 57.6899 66.0228 58.5939 65.8528 60.7589C65.6688 63.1019 63.8858 64.4269 61.8968 64.6699C62.6258 65.6709 63.3538 66.8819 64.4358 66.8819C64.7908 66.8819 65.2998 66.7859 65.6838 66.6249L65.4418 68.4649C64.9548 68.6919 64.3148 68.8379 63.6208 68.8379C61.2158 68.8379 60.2638 65.7359 59.1818 64.7179H58.1488L57.1438 68.6749H54.8838L57.6848 57.6899V57.6899Z" fill="#1A1919"></path>
  <path fill-rule="evenodd" clip-rule="evenodd" d="M66.561 68.6749L69.361 57.6899H77.805L77.309 59.6769H71.013L70.406 62.0519H75.557L75.045 64.0399H69.895L69.219 66.6889H75.515L75.004 68.6749H66.561" fill="#1A1919"></path>
  <path fill-rule="evenodd" clip-rule="evenodd" d="M81.5598 59.6619L79.7628 66.7059H82.0398C84.2678 66.7059 86.1168 65.1549 86.3298 62.4399C86.4688 60.6789 85.4818 59.6619 83.8358 59.6619H81.5598ZM79.8108 57.6899H84.3298C87.0888 57.7069 88.9378 59.4509 88.7178 62.2619C88.3888 66.4459 85.3398 68.6749 81.7398 68.6749H77.0098L79.8108 57.6899V57.6899Z" fill="#1A1919"></path>
  <path fill-rule="evenodd" clip-rule="evenodd" d="M92.0041 57.6899H94.2641L91.4631 68.6749H89.2031L92.0041 57.6899" fill="#1A1919"></path>
  <path fill-rule="evenodd" clip-rule="evenodd" d="M101.003 59.6769L98.697 68.6749H96.437L98.743 59.6769H95.271L95.768 57.6899H104.856L104.345 59.6769H101.003" fill="#1A1919"></path>
  <path fill-rule="evenodd" clip-rule="evenodd" d="M110.28 63.8929C109.837 65.6379 110.394 66.7529 112.122 66.7529C113.898 66.7529 115.057 65.5739 115.497 63.8789L117.064 57.6899H119.325L117.712 64.0399C117.057 66.6249 115.073 68.8539 111.715 68.8539C108.567 68.8539 107.273 66.8339 107.977 64.0399L109.59 57.6899H111.85L110.28 63.8929" fill="#1A1919"></path>
  <path fill-rule="evenodd" clip-rule="evenodd" d="M123.188 61.1799L121.292 68.6749H119.032L121.833 57.6899H123.803L127.796 65.2019L129.694 57.6899H131.955L129.154 68.6749H127.184L123.188 61.1799" fill="#1A1919"></path>
  <path fill-rule="evenodd" clip-rule="evenodd" d="M134.591 57.6899H136.85L134.05 68.6749H131.79L134.591 57.6899" fill="#1A1919"></path>
  <path fill-rule="evenodd" clip-rule="evenodd" d="M142.068 66.7061C144.248 66.7061 146.151 64.8791 146.333 62.5701C146.463 60.9211 145.527 59.6771 143.864 59.6771C141.717 59.6771 139.783 61.4701 139.6 63.8131C139.473 65.4291 140.405 66.7061 142.068 66.7061ZM144.324 57.5291C147.1 57.5291 148.831 59.5321 148.609 62.3591C148.316 66.0911 145.082 68.8381 141.562 68.8381C138.802 68.8381 137.086 66.8341 137.307 64.0231C137.6 60.2921 140.82 57.5291 144.324 57.5291V57.5291Z" fill="#1A1919"></path>
  <mask id="mask0-logo" maskUnits="userSpaceOnUse" x="0" y="31" width="162" height="38">
    <path fill-rule="evenodd" clip-rule="evenodd" d="M0.0600586 31.97H161.994V68.675H0.0600586V31.97Z" fill="white"></path>
  </mask>
  <g mask="url(#mask0-logo)">
    <path fill-rule="evenodd" clip-rule="evenodd" d="M153.227 61.1799L151.331 68.6749H149.071L151.872 57.6899H153.842L157.835 65.2019L159.733 57.6899H161.994L159.193 68.6749H157.224L153.227 61.1799" fill="#1A1919"></path>
    <path fill-rule="evenodd" clip-rule="evenodd" d="M16.7632 48.962C14.5582 50.633 11.1342 52.13 7.88021 52.13C2.09321 52.13 -1.25079 48.386 0.438206 42.08C2.14421 35.715 7.49521 31.97 13.2822 31.97C18.3492 31.97 20.4162 34.793 19.3042 39.373L14.6222 40.294C15.2272 37.932 14.5332 36.435 12.0282 36.435C9.03421 36.435 6.41321 38.479 5.44821 42.08C4.49921 45.622 6.02421 47.667 9.19121 47.667C11.4662 47.667 13.7602 46.63 15.4812 45.362L16.7632 48.962" fill="#1A1919"></path>
  </g>
  <path fill-rule="evenodd" clip-rule="evenodd" d="M18.6729 51.842L23.9209 32.259H39.6409L38.5149 36.463H27.3999L26.4979 39.833H35.5109L34.4219 43.894H25.4099L24.4059 47.637H35.5199L34.3939 51.842H18.6729" fill="#1A1919"></path>
  <path fill-rule="evenodd" clip-rule="evenodd" d="M45.3892 39.949L42.2022 51.842H37.3652L42.6122 32.259H46.8152L53.4752 44.153L56.6632 32.259H61.5002L56.2522 51.842H52.0782L45.3892 39.949" fill="#1A1919"></path>
  <path fill-rule="evenodd" clip-rule="evenodd" d="M73.4429 36.493L69.3309 51.842H64.4929L68.6049 36.493H62.5879L63.7229 32.259H80.4229L79.2879 36.493H73.4429" fill="#1A1919"></path>
  <path fill-rule="evenodd" clip-rule="evenodd" d="M86.353 36.463L85.057 41.302H89.434C91.017 41.302 92.288 40.322 92.674 38.883C93.075 37.385 92.313 36.463 90.73 36.463H86.353ZM82.644 32.259H91.943C95.744 32.259 98.956 34.13 97.729 38.71C96.903 41.792 94.15 44.009 91.022 44.614C92.348 46.227 93.611 47.955 95.425 47.955C96.059 47.955 96.925 47.839 97.599 47.58L97.041 51.381C96.126 51.785 94.854 52.13 93.529 52.13C89.037 52.13 87.251 46.544 85.16 44.787H84.123L82.233 51.842H77.396L82.644 32.259V32.259Z" fill="#1A1919"></path>
  <path fill-rule="evenodd" clip-rule="evenodd" d="M103.754 32.259H108.591L103.344 51.842H98.5068L103.754 32.259" fill="#1A1919"></path>
  <path fill-rule="evenodd" clip-rule="evenodd" d="M125.107 48.962C122.903 50.633 119.479 52.13 116.225 52.13C110.438 52.13 107.094 48.386 108.783 42.08C110.489 35.715 115.84 31.97 121.627 31.97C126.694 31.97 128.761 34.793 127.648 39.373L122.967 40.294C123.571 37.932 122.878 36.435 120.373 36.435C117.379 36.435 114.758 38.479 113.793 42.08C112.845 45.622 114.369 47.667 117.536 47.667C119.81 47.667 122.104 46.63 123.827 45.362L125.107 48.962" fill="#1A1919"></path>
  <path fill-rule="evenodd" clip-rule="evenodd" d="M132.266 32.259H137.102L131.855 51.842H127.018L132.266 32.259" fill="#1A1919"></path>
  <path fill-rule="evenodd" clip-rule="evenodd" d="M149.014 36.493L144.901 51.842H140.063L144.176 36.493H138.158L139.293 32.259H155.993L154.858 36.493H149.014" fill="#1A1919"></path>
  <path fill-rule="evenodd" clip-rule="evenodd" d="M159.825 44.297L155.5 32.605L155.593 32.259H161.007L163.44 39.833L169.961 32.259H175.346L175.253 32.605L164.67 44.268L162.641 51.842H157.804L159.825 44.297" fill="#1A1919"></path>
  <path fill-rule="evenodd" clip-rule="evenodd" d="M58.2631 29.064C73.1001 14.823 93.2361 4.92099 109.942 4.92099C120.813 4.92099 128.266 9.12699 131.665 15.993C128.777 6.57799 120.034 0.635986 106.444 0.635986C87.3011 0.635986 64.0721 12.406 47.5581 29.1" fill="#9A2339"></path>
  <path fill-rule="evenodd" clip-rule="evenodd" d="M30.0792 54.808C21.9372 75.981 32.0622 92 54.3842 92C67.9782 92 83.6312 86.059 97.4842 76.647C86.0982 83.505 73.7542 87.711 62.8712 87.711C42.8752 87.711 33.5912 73.519 40.4952 54.66" fill="#9A2339"></path>
</svg>
