<svg width="394" height="129" viewBox="0 0 394 129" fill="none" xmlns="http://www.w3.org/2000/svg">
<g clip-path="url(#clip0_618_779)">
<path d="M123.357 74.6764C119.107 73.4461 115.697 71.8357 113.117 69.8652L117.637 59.8229C120.107 61.6334 123.037 63.0837 126.437 64.1839C129.837 65.2842 133.237 65.8343 136.637 65.8343C140.417 65.8343 143.217 65.2742 145.027 64.1439C146.837 63.0237 147.737 61.5233 147.737 59.6629C147.737 58.2926 147.207 57.1523 146.137 56.2521C145.067 55.3519 143.697 54.6218 142.027 54.0716C140.357 53.5215 138.087 52.9214 135.237 52.2612C130.847 51.221 127.257 50.1807 124.457 49.1305C121.657 48.0902 119.257 46.4199 117.257 44.1093C115.257 41.8088 114.257 38.7381 114.257 34.8972C114.257 31.5564 115.157 28.5157 116.967 25.8051C118.777 23.0945 121.507 20.934 125.147 19.3436C128.797 17.7533 133.247 16.9531 138.517 16.9531C142.187 16.9531 145.787 17.3932 149.297 18.2734C152.807 19.1536 155.877 20.4139 158.507 22.0543L154.397 32.1766C149.077 29.1559 143.757 27.6555 138.437 27.6555C134.707 27.6555 131.947 28.2557 130.167 29.466C128.387 30.6762 127.497 32.2666 127.497 34.2371C127.497 36.2075 128.527 37.6778 130.577 38.6381C132.637 39.5983 135.777 40.5485 139.997 41.4787C144.387 42.519 147.977 43.5592 150.777 44.6094C153.577 45.6497 155.977 47.3001 157.977 49.5506C159.977 51.8011 160.977 54.8418 160.977 58.6827C160.977 61.9734 160.057 64.9741 158.217 67.6948C156.377 70.4054 153.627 72.5659 149.947 74.1562C146.277 75.7466 141.807 76.5468 136.537 76.5468C131.987 76.5468 127.587 75.9266 123.337 74.6964L123.357 74.6764Z" fill="#143053"/>
<path d="M183.401 72.6976C178.661 70.147 174.931 66.6062 172.211 62.0852C169.501 57.5641 168.141 52.4429 168.141 46.7416C168.141 41.0403 169.501 35.9191 172.211 31.3981C174.921 26.877 178.651 23.3362 183.401 20.7856C188.141 18.2351 193.481 16.9648 199.401 16.9648C204.391 16.9648 208.901 17.845 212.931 19.5954C216.961 21.3558 220.351 23.8764 223.091 27.1671L214.541 35.0689C210.651 30.5679 205.821 28.3174 200.061 28.3174C196.491 28.3174 193.311 29.0976 190.521 30.6579C187.721 32.2183 185.541 34.3988 183.981 37.1994C182.421 40.0001 181.641 43.1808 181.641 46.7416C181.641 50.3024 182.421 53.4932 183.981 56.2838C185.541 59.0845 187.721 61.265 190.521 62.8253C193.321 64.3857 196.501 65.1659 200.061 65.1659C205.821 65.1659 210.641 62.8953 214.541 58.3343L223.091 66.2361C220.351 69.5869 216.951 72.1375 212.891 73.8879C208.831 75.6383 204.311 76.5185 199.321 76.5185C193.451 76.5185 188.151 75.2382 183.401 72.6876V72.6976Z" fill="#143053"/>
<path d="M270.472 63.1938H243.742L238.642 75.5367H224.992L250.652 17.9434H263.812L289.562 75.5367H275.582L270.482 63.1938H270.472ZM266.272 53.0715L257.142 31.0164L248.012 53.0715H266.272Z" fill="#143053"/>
<path d="M297.211 17.9434H310.541V64.6742H339.411V75.5367H297.211V17.9434Z" fill="#143053"/>
<path d="M393.119 64.8442V75.5367H348.539V17.9434H392.049V28.6359H361.779V41.1388H388.509V51.5011H361.779V64.8342H393.119V64.8442Z" fill="#143053"/>
<path d="M269.96 110.365C272.44 109.175 275.18 106.835 275.18 102.314V102.214C275.18 100.003 274.41 98.0726 272.88 96.4923C270.77 94.4318 267.57 93.3516 263.62 93.3516H248.57V128.64H264.27C272.2 128.64 277.12 124.919 277.12 118.927V118.827C277.12 114.766 274.71 111.916 269.95 110.365H269.96ZM252.83 112.766H263.68C269.55 112.766 272.78 114.827 272.78 118.577V118.677C272.78 122.418 269.56 124.739 264.38 124.739H252.83V112.766ZM270.84 102.854C270.84 106.645 267.9 108.915 262.98 108.915H252.83V97.2425H263.28C268.01 97.2425 270.84 99.3029 270.84 102.754V102.854Z" fill="#143053"/>
<path d="M297.603 93.0918L281.523 128.63H285.953L290.093 119.397H308.873L312.963 128.63H317.593L301.513 93.0918H297.593H297.603ZM307.173 115.497H291.803L299.513 98.293L307.173 115.497Z" fill="#143053"/>
<path d="M349.731 121.008L328.041 93.4118L327.991 93.3418H324.031V128.64H328.231V100.323L350.521 128.64H353.921V93.3418H349.731V121.008Z" fill="#143053"/>
<path d="M377.975 108.805L393.135 93.3418H387.545L367.745 113.946V93.3418H363.445V128.64H367.745V119.147L374.985 111.806L388.335 128.64H393.725L377.975 108.805Z" fill="#143053"/>
<path d="M93.2 0H0V35.6582H57.56L93.2 0.0100006V0Z" fill="#66DDD0"/>
<path d="M57.5625 35.658V93.2213H93.2025V0.00976562L57.5625 35.658Z" fill="#00C7B1"/>
<path d="M0 93.2208H35.58V57.6426H35.57L0 93.2208Z" fill="#00C7B1"/>
<path d="M0 93.2208L35.57 57.6426H0V93.2208Z" fill="#66DDD0"/>
</g>
<defs>
<clipPath id="clip0_618_779">
<rect width="394" height="129" fill="white"/>
</clipPath>
</defs>
</svg>
